<svg width="161" height="161" viewBox="0 0 161 161" fill="none" xmlns="http://www.w3.org/2000/svg">
<path d="M91.9688 62.8848C83.7896 73.2211 76.7769 84.4803 71.124 96.3887C70.9584 96.7376 70.8086 97.037 70.6582 97.3008C70.6293 97.3515 70.5984 97.3975 70.5713 97.4424C70.5344 97.3867 70.4919 97.3229 70.4453 97.249C70.1912 96.8465 69.8861 96.3188 69.4902 95.6172C68.7183 94.249 67.6829 92.3667 66.3301 90.1748C64.4743 87.1681 62.0123 83.5602 58.6602 79.5938C60.298 80.1665 61.9733 80.631 63.4443 81.0469C66.6332 81.9485 69.0583 82.6782 70.5791 83.6436L73.2588 85.3438L75.3193 82.9307C76.3287 81.749 78.2867 79.2706 80.6328 76.3545C83.0219 73.3849 85.9042 69.8471 88.8848 66.3877C89.9119 65.1955 90.9454 64.0198 91.9688 62.8848Z" fill="#0079FF" stroke="#010101" stroke-width="7.31429"/>
<mask id="path-2-inside-1_7723_4611" fill="white">
<path d="M76.4088 139.295C76.7494 139.411 77.1112 139.418 77.4465 139.321C90.2964 135.625 102.371 126.297 110.576 113.729C125.788 90.4301 126.731 60.1044 123.806 32.4372C123.72 31.6466 123.107 31.0143 122.319 30.9087C72.6185 24.3049 75.7835 24.639 75.3217 24.7117C65.9073 26.1428 31.7542 31.378 30.9097 31.4579C30 31.4579 29.2476 32.1632 29.1892 33.0695C28.2727 46.9447 27.3249 61.2928 28.8612 75.4521C32.1962 106.146 46.8606 129.133 76.4088 139.295ZM32.5358 34.7282L75.5979 28.1595L120.513 34.1487C123.191 60.6802 122.124 89.7306 107.688 111.842C100.042 123.557 88.8858 132.281 77.0152 135.852C49.1922 126.049 35.474 104.41 32.2933 75.0793C30.84 61.7015 31.6621 48.0093 32.5358 34.7282Z"/>
</mask>
<path d="M76.4088 139.295C76.7494 139.411 77.1112 139.418 77.4465 139.321C90.2964 135.625 102.371 126.297 110.576 113.729C125.788 90.4301 126.731 60.1044 123.806 32.4372C123.72 31.6466 123.107 31.0143 122.319 30.9087C72.6185 24.3049 75.7835 24.639 75.3217 24.7117C65.9073 26.1428 31.7542 31.378 30.9097 31.4579C30 31.4579 29.2476 32.1632 29.1892 33.0695C28.2727 46.9447 27.3249 61.2928 28.8612 75.4521C32.1962 106.146 46.8606 129.133 76.4088 139.295ZM32.5358 34.7282L75.5979 28.1595L120.513 34.1487C123.191 60.6802 122.124 89.7306 107.688 111.842C100.042 123.557 88.8858 132.281 77.0152 135.852C49.1922 126.049 35.474 104.41 32.2933 75.0793C30.84 61.7015 31.6621 48.0093 32.5358 34.7282Z" fill="#0079FF"/>
<path d="M76.4088 139.295L74.03 146.212L74.0437 146.216L74.0574 146.221L76.4088 139.295ZM77.4465 139.321L75.4247 132.292L75.4175 132.294L75.4103 132.296L77.4465 139.321ZM110.576 113.729L104.452 109.73L104.452 109.73L110.576 113.729ZM123.806 32.4372L131.08 31.6681L131.079 31.6601L131.078 31.6521L123.806 32.4372ZM122.319 30.9087L123.29 23.6591L123.282 23.6581L122.319 30.9087ZM75.3217 24.7117L76.4209 31.943L76.4404 31.94L76.4598 31.9369L75.3217 24.7117ZM30.9097 31.4579V38.7722H31.2548L31.5985 38.7397L30.9097 31.4579ZM29.1892 33.0695L36.4875 33.5515L36.4883 33.5398L29.1892 33.0695ZM28.8612 75.4521L21.5896 76.2411L21.5897 76.2422L28.8612 75.4521ZM32.5358 34.7282L31.4329 27.4975L25.6231 28.3838L25.2373 34.248L32.5358 34.7282ZM75.5979 28.1595L76.5647 20.9094L75.5284 20.7712L74.495 20.9288L75.5979 28.1595ZM120.513 34.1487L127.79 33.4141L127.21 27.6626L121.48 26.8986L120.513 34.1487ZM107.688 111.842L101.563 107.844L101.563 107.845L107.688 111.842ZM77.0152 135.852L74.5846 142.75L76.8363 143.544L79.1224 142.856L77.0152 135.852ZM32.2933 75.0793L39.5649 74.2907L39.5648 74.2894L32.2933 75.0793ZM76.4088 139.295L74.0574 146.221C75.8052 146.814 77.6983 146.863 79.4826 146.346L77.4465 139.321L75.4103 132.296C76.5241 131.973 77.6937 132.007 78.7601 132.369L76.4088 139.295ZM77.4465 139.321L79.4683 146.35C94.2139 142.109 107.662 131.573 116.701 117.727L110.576 113.729L104.452 109.73C97.0806 121.021 86.3789 129.141 75.4247 132.292L77.4465 139.321ZM110.576 113.729L116.701 117.728C133.359 92.2134 134.044 59.7014 131.08 31.6681L123.806 32.4372L116.532 33.2063C119.419 60.5075 118.217 88.6467 104.452 109.73L110.576 113.729ZM123.806 32.4372L131.078 31.6521C130.633 27.5307 127.434 24.2141 123.29 23.6591L122.319 30.9087L121.348 38.1583C118.781 37.8145 116.808 35.7624 116.534 33.2222L123.806 32.4372ZM122.319 30.9087L123.282 23.6581C98.4363 20.3568 86.809 18.7903 81.3255 18.0568C78.6318 17.6965 77.3321 17.5251 76.693 17.4527C76.6098 17.4433 75.8191 17.3371 75.0084 17.3844C74.1893 17.4323 73.5238 17.6036 73.0419 17.7661C73.0313 17.7697 73.5384 17.5882 74.1835 17.4865L75.3217 24.7117L76.4598 31.9369C76.7544 31.8905 77.0498 31.8265 77.3453 31.743C77.5826 31.6759 77.8431 31.585 77.7172 31.6275C77.264 31.7803 76.6263 31.9434 75.8619 31.9881C75.1607 32.0291 74.5868 31.9364 75.0484 31.9886C75.4989 32.0395 76.6008 32.1837 79.3861 32.5562C84.8607 33.2885 96.5011 34.8568 121.356 38.1593L122.319 30.9087ZM75.3217 24.7117L74.2225 17.4805C69.514 18.1962 58.6119 19.8644 48.7993 21.3608C43.8894 22.1096 39.2507 22.8156 35.7878 23.3393C32.0981 23.8972 30.1623 24.1816 30.2208 24.1761L30.9097 31.4579L31.5985 38.7397C32.7175 38.6338 67.2885 33.3311 76.4209 31.943L75.3217 24.7117ZM30.9097 31.4579V24.1436C26.1484 24.1436 22.1968 27.8384 21.89 32.5991L29.1892 33.0695L36.4883 33.5398C36.2983 36.4879 33.8515 38.7722 30.9097 38.7722V31.4579ZM29.1892 33.0695L21.8908 32.5874C20.9815 46.3549 19.973 61.3417 21.5896 76.2411L28.8612 75.4521L36.1328 74.6631C34.6768 61.2438 35.564 47.5345 36.4875 33.5515L29.1892 33.0695ZM28.8612 75.4521L21.5897 76.2422C23.3583 92.5194 28.182 107.222 36.8594 119.333C45.5842 131.51 57.9275 140.674 74.03 146.212L76.4088 139.295L78.7876 132.378C65.3419 127.754 55.5789 120.343 48.7507 110.813C41.8752 101.217 37.6992 89.0792 36.1327 74.6621L28.8612 75.4521ZM32.5358 34.7282L33.6388 41.9588L76.7009 35.3901L75.5979 28.1595L74.495 20.9288L31.4329 27.4975L32.5358 34.7282ZM75.5979 28.1595L74.6312 35.4096L119.546 41.3988L120.513 34.1487L121.48 26.8986L76.5647 20.9094L75.5979 28.1595ZM120.513 34.1487L113.236 34.8833C115.877 61.0505 114.564 87.9311 101.563 107.844L107.688 111.842L113.812 115.841C129.685 91.5301 130.506 60.3099 127.79 33.4141L120.513 34.1487ZM107.688 111.842L101.563 107.845C94.7336 118.308 84.9181 125.836 74.908 128.848L77.0152 135.852L79.1224 142.856C92.8536 138.725 105.351 128.806 113.813 115.84L107.688 111.842ZM77.0152 135.852L79.4458 128.953C66.8467 124.514 57.7431 117.531 51.3798 108.558C44.9676 99.5154 41.0568 88.0486 39.5649 74.2907L32.2933 75.0793L25.0216 75.8678C26.7104 91.4411 31.2491 105.459 39.447 117.02C47.6937 128.649 59.3607 137.387 74.5846 142.75L77.0152 135.852ZM32.2933 75.0793L39.5648 74.2894C38.1905 61.6382 38.956 48.5601 39.8343 35.2083L32.5358 34.7282L25.2373 34.248C24.3682 47.4586 23.4896 61.7648 25.0217 75.8692L32.2933 75.0793Z" fill="#010101" mask="url(#path-2-inside-1_7723_4611)"/>
<path d="M134.616 72.1593C136.442 56.65 136.339 40.4107 134.29 21.0516C134.205 20.2599 133.592 19.6287 132.803 19.5232C71.8345 11.4161 75.5508 11.824 75.09 11.8966C16.1155 20.8773 19.8679 20.245 19.4743 20.4967C19.4794 20.3867 19.4822 20.2773 19.4872 20.1672C19.3074 20.3549 18.0524 20.8911 17.8961 21.1032C17.432 21.7335 16.638 22.2 16.068 22.767C14.7611 24.0674 14.856 25.4311 14.4265 29.4428C13.4312 38.7642 12.6704 48.0989 12.6275 57.5101C12.4364 101.753 30.1923 141.526 72.8307 154.35C81.1911 156.864 88.8459 150.861 96.0845 145.96C104.682 140.139 112.192 132.718 118.123 124.197C128.715 108.976 132.388 91.0732 134.616 72.1593ZM22.0125 23.4819L75.3662 15.3443L131 22.7643C134.341 55.5677 133.074 91.5314 115.187 118.926C105.702 133.457 91.8458 144.27 77.1047 148.668C42.649 136.586 25.636 109.817 21.6936 73.5182C19.89 56.9195 20.9277 39.9424 22.0125 23.4819Z" fill="#00AA72"/>
<path d="M142.529 24.4588C143.468 24.2982 144.099 23.4076 143.94 22.4688C142.904 16.3931 138.845 10.8857 133.349 8.09489C132.496 7.66476 131.463 8.0028 131.029 8.85295C130.598 9.70197 130.937 10.7408 131.786 11.172C136.33 13.4777 139.683 18.0282 140.539 23.0483C140.699 23.9869 141.59 24.6188 142.529 24.4588Z" fill="#FFE9C5"/>
<path d="M148.348 16.6031C147.605 12.2255 144.68 8.25773 140.718 6.24636C139.86 5.81174 138.829 6.15651 138.398 7.00441C137.967 7.85344 138.306 8.89226 139.155 9.32351C142.163 10.8486 144.382 13.8606 144.948 17.1826C145.109 18.1284 146.004 18.7523 146.938 18.5931C147.877 18.4337 148.508 17.5431 148.348 16.6031Z" fill="#FFE9C5"/>
</svg>
