<svg width="154" height="149" viewBox="0 0 154 149" fill="none" xmlns="http://www.w3.org/2000/svg">
<path fill-rule="evenodd" clip-rule="evenodd" d="M142.6 103.936L141.335 103.254C138.495 101.899 134.904 102.966 133.226 105.703L132.161 107.635L130.583 110.376C129.031 113.136 129.82 116.798 132.281 118.591L133.686 119.43L139.206 122.606C135.168 123.972 130.96 123.369 127.379 121.095C126.722 120.677 125.614 119.659 125.042 119.088C123.12 117.167 121.196 113.254 121.17 110.335C121.159 109.135 120.943 108.977 121.1 107.473C121.216 106.364 120.477 105.471 119.466 105.038C118.78 104.829 118.098 104.226 117.139 103.918L113.368 101.906C111.765 100.977 110.112 100.358 108.728 99.5142C105.456 97.5191 106.318 98.5563 103.771 97.2233C103.907 97.0569 104.047 96.8948 104.237 96.7779C104.41 96.6693 106.94 94.1643 107.402 93.52C108.122 92.5148 108.711 91.4061 108.993 90.2006C109.494 90.4712 111.368 91.4669 111.557 91.8264C111.787 92.2653 114.268 93.2731 115.272 93.9902C116.591 94.9317 119.091 96.4494 120.543 97.3362C121.119 97.688 123.228 98.8976 123.547 99.1919C124.397 99.9749 125.292 99.1824 126.027 98.9744C126.676 98.7905 127.248 98.1954 127.803 97.8946C136.364 93.2494 146.726 98.0963 148.264 107.319L142.6 103.936ZM100.005 93.4399C99.8817 93.5612 99.795 93.717 99.6775 93.8401L97.6787 95.938C96.8749 96.9545 95.943 97.9605 94.9701 98.8138C94.2224 99.4129 92.6284 99.7072 91.5662 99.3456L90.6171 98.9249C90.5004 98.9082 90.6486 98.8218 90.3488 98.6951C89.753 98.4431 88.8767 96.673 88.6282 96.0491L88.3456 95.1724C89.9264 94.1468 92.3641 91.3504 93.6433 89.9646L96.1187 87.3022C96.2281 87.1197 96.3028 87.2774 96.6655 86.7664L99.0318 84.1758C99.5124 84.2851 100.043 84.2705 100.344 84.5043C100.858 84.9035 101.275 84.6085 102.865 85.9433L103.338 86.7089L103.602 87.9057C103.609 89.6874 103.141 89.9096 102.213 91.0117L100.005 93.4399ZM89.3423 119.071C91.0457 125.891 92.6921 132.448 94.2377 139.309L90.5882 140.338C90.4601 140.354 90.3324 140.383 90.2065 140.416C89.2523 137.292 88.421 134.131 87.566 130.979C87.4855 130.679 87.368 130.392 87.3018 130.09L85.8783 124.977L85.2718 123.267C85.1895 123.008 85.1606 122.735 85.0365 122.489C84.8282 122.072 84.5519 121.688 84.4776 121.218C84.4735 121.194 84.4611 121.171 84.4465 121.157C84.2133 120.895 84.2433 120.345 83.9388 119.985C83.7807 119.798 83.3107 118.181 83.2642 118.004C83.0073 117.024 82.5194 116.341 82.3668 115.604C82.0399 114.024 81.836 114.451 81.3869 113.563C82.552 113.024 84.9065 111.645 85.8739 110.934C86.2099 110.681 86.6081 110.515 86.8973 110.201C87.0258 110.063 87.0404 110.203 87.6008 109.737C87.6465 109.99 87.7706 110.404 87.6608 110.548C87.4357 110.841 88.1388 111.831 88.1849 112.584L88.7109 115.604C88.7779 115.922 89.108 117.14 89.0389 117.342C88.8906 117.777 89.1311 118.08 89.2307 118.513C89.2742 118.698 89.2925 118.886 89.3423 119.071ZM78.6334 109.636L79.6524 109.256C80.2559 109.044 82.8078 107.645 83.5453 107.208L87.9994 104.334C88.3101 104.128 88.4591 103.821 88.8866 103.825C89.0498 103.826 89.3972 103.53 89.6582 103.383C88.279 102.76 86.9954 101.567 86.1839 100.322C85.6199 99.4577 85.7524 99.41 85.431 98.7952C85.1598 98.2762 85.3999 98.1972 85.3608 97.9514L85.1979 96.4734C83.7697 96.7804 81.9407 96.767 80.5275 96.3525C79.6033 96.0815 78.1169 95.3258 77.3959 94.6669C76.721 94.0499 75.8125 93.1187 75.3495 92.3123C74.0091 89.9784 73.5794 87.1485 74.4231 84.5549L74.064 84.6595C73.5297 84.8583 73.5333 84.6883 73.3503 84.7724C73.0385 84.9163 71.6275 85.043 71.2047 85.0678C66.0058 85.3762 62.991 83.6033 58.9878 81.2865L58.8539 84.5484C58.6943 86.0034 58.2247 87.9458 57.7068 89.352L56.537 92.1375C56.145 92.8703 55.2208 94.3719 54.6784 94.9845C53.3464 96.4883 53.7114 95.7952 52.4629 96.8547C52.0086 97.2401 51.4399 97.5096 50.8846 97.7805C49.3774 98.5163 49.4648 98.1105 48.8155 98.1069C48.6559 98.1058 48.5956 97.9696 48.2006 98.0289C48.246 97.8771 48.3181 97.754 48.2562 97.5631C48.2196 97.4524 48.4612 97.4142 48.4129 97.1279C48.3467 96.7345 48.8269 96.7243 48.8646 95.9085C48.8821 95.5294 49.4802 95.2839 49.8137 94.5271C50.079 93.9247 50.9856 92.6812 50.9794 92.4456C50.9684 92.0355 51.247 91.9572 51.2353 91.641C51.2353 91.6247 51.2374 91.6083 51.2477 91.5959C51.4647 91.3409 51.4428 91.0033 51.4849 90.7232C51.5116 90.5408 51.6295 90.4049 51.6931 90.2468L52.9845 85.9011C53.0339 85.708 53.0298 85.5048 53.065 85.31C53.5814 82.3369 53.4636 80.3235 53.0814 77.3676L52.8483 75.7953C52.5683 73.122 55.4254 71.51 57.5827 73.3216L58.1852 73.9229C58.7196 74.5621 61.0804 76.2972 61.7934 76.8257C64.1809 78.5451 64.2555 78.6656 66.9714 79.8719C69.4694 80.9813 73.1841 80.6954 75.6833 79.8617C75.9926 79.7525 76.0998 79.5562 76.4406 79.6975C76.5804 79.7554 76.8546 79.5572 77.1935 79.5044C77.3234 79.4859 77.4307 79.3853 77.5544 79.3402C78.7315 78.8915 78.3724 79.0932 79.2626 78.1823L80.7519 76.7517C79.7139 76.0448 79.9177 76.5882 78.4888 75.0418C77.8095 74.3068 76.7934 73.708 75.8956 72.8022C75.7247 72.6296 74.0959 71.0598 73.81 70.9178C73.2083 70.6184 73.041 70.1697 72.4796 69.8605C72.4528 69.8441 72.4239 69.8255 72.4053 69.8029C71.9946 69.3185 71.4543 69.0166 70.9551 68.6535C70.6579 68.436 70.431 68.1487 70.163 67.9021L68.3458 66.2865C66.8945 65.0234 64.6988 62.7697 63.2647 61.2982L61.1854 59.2721C60.4296 58.528 59.8194 57.8127 58.6438 57.753C57.425 57.6911 57.0201 58.2538 56.3353 58.9826L49.6515 65.6706C48.9048 66.2763 48.3375 67.048 47.6399 67.6967C46.6608 68.604 44.2403 71.258 43.318 72.2701C41.9762 73.7761 40.4272 75.4169 39.7036 77.2955C39.1538 78.7221 38.1945 84.1678 37.8241 85.8577C37.1949 88.7299 36.9486 90.8915 35.2682 93.4756C33.9996 95.4263 33.2628 95.8506 31.7548 97.3224L29.1411 99.8453C28.7399 100.223 28.4731 100.707 27.9361 100.88C27.677 100.963 26.4834 102.158 26.1621 102.452C25.3986 103.151 23.8466 104.57 23.0634 105.143C22.3156 105.691 21.4558 107.11 21.0499 107.118C20.8215 107.123 19.9383 107.973 19.8761 108.052C19.3198 108.764 18.6844 109.267 17.8773 109.641L20.5635 111.647C24.825 114.866 25.9919 115.962 29.7538 119.568L31.5527 121.287C32.1936 121.809 32.2793 122.072 32.485 122.221L39.951 129.319C40.1739 128.771 40.0238 128.761 40.8485 128.036C41.373 127.575 41.6094 126.927 42.2657 126.285C42.3762 126.177 43.4 125.106 43.4684 124.898C43.6141 124.455 44.0119 124.33 44.1203 123.986C44.1265 123.966 44.1389 123.947 44.1532 123.935C44.4852 123.678 44.6422 123.286 44.8567 122.937C44.9826 122.734 45.1868 122.594 45.3417 122.415L46.3691 121.2L53.3563 114.103C55.2735 112.286 57.5666 110.939 60.1639 110.351C61.0028 110.161 62.984 109.885 63.8401 109.963C64.5147 110.021 65.1768 109.885 65.8495 109.92C66.2518 109.936 66.65 109.94 67.0501 109.934L70.7593 110.088C73.9264 110.406 75.6902 110.584 78.6334 109.636ZM42.3458 61.5332C42.0343 61.3368 40.9012 60.6882 40.7698 60.4412C40.5297 59.9896 38.0741 59.0088 37.0481 58.2735C35.7934 57.3742 33.1607 55.7684 31.765 54.9213C31.4122 54.7078 31.0326 54.529 30.6985 54.3014C29.6359 53.57 28.7805 53.0073 27.4969 53.9423C25.9615 55.0604 26.9592 54.1684 25.2276 55.1904C23.8053 56.0296 21.622 56.617 20.0518 56.7773C17.5589 57.0311 14.694 56.5413 12.4416 55.3423C11.2542 54.7104 9.94353 53.9055 9.01311 52.9261C7.30784 51.1313 6.45393 49.9552 5.62563 47.5726L5.12639 45.5217L11.569 49.3791C14.705 51.1422 18.5555 50.0904 20.4193 46.8274C20.7399 46.2662 22.9232 42.4376 23.2394 41.6377C24.47 38.5263 22.9993 35.3613 20.203 33.718L14.2285 30.294C18.1804 28.9665 22.1641 29.5 25.7521 31.6489C27.1437 32.4822 28.1755 33.4801 29.2095 34.7527C30.8639 36.789 32.2387 40.3841 32.2668 43.1405L32.2112 45.2405C32.2079 47.8985 33.1647 47.295 35.1551 48.5621C35.1942 48.5869 35.2437 48.6095 35.285 48.6237C36.0785 48.8907 36.7019 49.4563 37.6162 49.7487C38.0722 49.8944 41.0681 51.5727 41.3956 51.7625C42.9904 52.6876 44.6865 53.3224 46.0477 54.1561C46.5374 54.4558 48.0619 55.3583 48.6018 55.4923C49.4187 55.7018 50.2272 56.0467 51.0259 56.4655L47.1681 60.5651L44.7956 62.9671L42.3458 61.5332ZM62.8453 39.121C62.4474 36.9988 62.5096 36.9005 61.8139 34.8656C61.7436 34.6726 61.6674 34.4777 61.6345 34.2705C61.5789 33.9296 61.3479 33.6342 61.3479 33.2747L60.5683 30.364C60.49 30.1032 60.3765 29.8468 60.2938 29.5798L59.1284 25.4577L58.4106 22.9799L58.0497 22.167C58.0044 22.0439 58.0106 21.9044 57.9216 21.7915C57.773 21.6028 57.5545 21.4364 57.5443 21.2044C57.5443 21.1902 57.5381 21.1818 57.5256 21.1756C57.3265 21.0627 57.4436 20.7983 57.1852 20.6297C56.9824 20.4971 56.8715 19.6077 56.455 19.0242C56.1201 18.5551 56.2211 18.0627 55.9598 17.928C56.8273 18.031 56.1681 18.3435 58.7653 18.1414C59.755 18.0645 60.4794 17.9859 61.4577 17.7473C61.621 17.7072 62.0225 17.7309 62.4749 17.5976C62.4851 17.5936 62.4954 17.5914 62.5038 17.5914L62.6008 18.6342C62.6081 18.6877 62.7629 19.3207 62.6711 19.4223C62.4661 19.6489 62.6608 19.7632 62.6938 19.9541L64.0429 26.1657L64.8287 30.2958L65.7218 33.2212C65.7994 33.8724 67.5318 39.3228 67.7455 40.3116C67.8509 41.0146 68.3077 42.5352 68.6964 43.1463L68.8593 43.6351C69.0039 43.8033 69.214 43.949 69.2202 44.1646C69.2202 44.177 69.2282 44.1872 69.2407 44.1934C69.4409 44.2976 69.3124 44.5391 69.5624 44.68C69.763 44.7929 69.8468 45.5876 70.2432 46.1168C68.9541 46.5826 68.2777 46.8642 67.2188 47.7631C66.9157 48.0439 65.3968 49.6027 65.2032 49.9432C65.1695 50.0372 65.0802 49.9301 64.9616 50.1465C64.9616 49.8125 64.6801 48.5807 64.772 48.4674C64.9711 48.2212 64.7797 48.1047 64.7369 47.8803C64.3364 45.7373 63.6765 43.245 63.2186 41.0466L62.8453 39.121ZM73.9462 50.8381C74.2342 50.8643 74.9502 50.9022 75.1614 51.0781C75.5563 51.4074 77.016 51.847 77.7275 53.4225C78.2487 54.5764 78.0858 54.4471 78.3073 55.6992L78.4083 56.2124C78.4105 56.2881 78.3567 56.3581 78.4021 56.4422C78.4826 56.5839 78.6166 56.746 78.528 56.8734C78.5258 56.8756 78.528 56.8858 78.5364 56.896C78.6674 57.0483 78.469 57.1087 78.6209 57.3065L78.5942 57.7067L76.9479 58.9775C76.3784 59.5438 75.8154 60.0683 75.4172 60.7818L75.0541 61.1821C74.9736 61.3995 74.9447 61.6624 74.7529 61.7794C74.7426 61.7856 74.7386 61.7998 74.7386 61.8121C74.7349 62.0496 74.4582 62.0627 74.456 62.3563C74.4542 62.5843 73.8012 63.0534 73.4843 63.7315C73.4638 63.7727 73.4411 63.8095 73.4184 63.8484L65.2035 55.3725C65.4608 55.2145 66.1896 54.5621 66.3177 54.5906C66.6149 54.6565 66.6017 54.4518 66.751 54.328C67.4977 53.6833 70.0192 51.1866 70.8109 51.0515C71.3537 50.959 71.4617 50.806 72.2259 50.7601L73.9462 50.8381ZM83.997 61.5845C84.4636 61.4865 85.3696 61.5058 85.901 61.6563C86.8666 61.9298 87.2285 62.2907 87.3925 62.3479C87.7084 62.4583 87.6066 62.5544 87.797 62.6516C89.5564 63.5523 90.0721 66.7574 89.5937 68.5063L89.2987 69.2781C88.4785 70.9098 89.1995 69.6933 86.8728 71.1997C85.6247 72.0075 84.2872 73.5485 84.034 73.7226L82.3982 75.2253C81.776 74.203 80.8028 72.6955 80.0938 71.7952C79.6729 71.2594 79.2417 70.7299 78.9075 70.1406C78.4456 69.3269 76.4186 67.0582 75.743 66.3553C77.1869 65.6866 76.4713 66.418 78.2846 65.058C80.2186 63.5756 81.2888 61.952 83.997 61.5845ZM153.253 107.865C152.609 102.142 149.491 97.3974 144.6 94.4375C142.218 92.9959 140.54 92.4926 137.906 91.9885C136.953 91.806 136.551 91.912 135.922 91.8202C134.592 91.6254 131.791 92.0409 130.527 92.3746C128.432 92.9274 126.146 93.9778 124.404 95.2773C122.106 94.0955 119.292 92.8269 116.918 91.759L109.229 88.3249C109.271 85.4797 107.665 82.1034 104.976 81.0826C104.468 80.8895 104.663 80.683 103.468 80.5836L102.838 80.4503C102.505 80.5337 102.211 80.2671 101.782 80.4277L100.462 80.4871C100.839 76.7372 97.4697 73.9116 97.3449 74.3636C97.3284 74.4867 97.4664 74.5442 97.4045 74.6775C97.0407 74.8025 97.0952 74.6415 97.0952 74.895C96.9254 74.7904 96.6827 74.6076 96.5301 74.628C96.4474 75.0716 96.7413 75.9377 97.0645 76.2229C97.0645 76.2229 97.354 76.7998 97.2047 76.9535C96.9898 77.1749 97.5948 77.7813 97.4708 78.2778C97.2804 79.0382 97.186 80.0934 96.5363 80.9587C96.4393 81.0877 96.2205 80.9846 96.0557 81.3346C95.8588 81.7531 90.115 86.9966 89.1241 88.0328C88.589 88.5966 86.3424 90.6548 85.6894 91.0503C84.1507 91.9827 81.9802 91.5591 80.6392 90.457C80.3969 90.2578 79.7929 89.4765 79.7582 89.1863C79.7157 88.8301 79.4075 88.4236 79.4899 87.3984C79.5759 86.3268 79.9316 85.468 80.6677 84.7196L84.5874 80.7865C84.7729 80.5996 84.9362 80.3822 85.1382 80.2074L88.3584 76.9331C88.6619 76.5507 89.1809 75.87 89.5612 75.5618C89.821 75.3513 89.8298 74.9267 90.2193 74.7879C90.2921 74.762 90.1252 74.738 90.5575 74.5147C91.0161 74.2784 90.6321 74.0464 92.5277 73.8209C92.9413 73.7717 93.2572 73.6333 93.6931 73.7758C93.8714 73.834 94.4288 74.0198 94.603 73.9666C95.3073 73.7514 95.5583 74.2237 95.913 74.1123C96.2153 74.0172 96.2684 74.2733 96.3855 74.2292C96.5751 74.1574 96.7113 74.2292 96.8808 74.2784C96.7706 73.8694 96.8936 73.7685 96.8683 73.6151C96.7764 73.0575 96.8884 73.0113 96.8332 72.8904C96.4646 72.0793 96.3515 72.0366 95.711 71.4535C95.0426 70.8449 94.3618 70.5332 93.5284 70.2567C95.4727 66.096 94.0763 59.7482 89.7533 57.5705C89.0272 57.2049 89.2284 57.2205 88.4144 56.9219C87.6956 56.6582 87.8109 56.5901 87.0261 56.3963C85.8893 56.1159 84.8165 55.9152 83.6306 56.0514L83.6657 54.4831C83.5263 52.8959 83.265 51.6648 82.3993 50.2892C81.2405 48.4481 79.9661 47.3358 77.9702 46.465C76.1566 45.6736 75.5135 45.6277 73.6669 45.49C73.8053 44.1144 74.1072 44.6312 73.8404 42.7661L73.4689 40.8816C73.0937 38.7179 72.8276 37.5243 72.1135 35.2939C71.6725 33.9161 71.1257 32.6738 70.7831 31.402C70.7501 31.2829 70.6718 31.1721 70.6345 31.0549L70.0075 29.0247C68.916 26.5215 65.952 15.1752 65.4455 14.3831C64.4488 12.8851 63.4844 9.28486 62.3435 7.85824C61.5657 6.92368 61.3604 6.72154 60.658 5.69665C60.5756 5.57755 60.4559 5.48723 60.3714 5.37432L58.9439 3.42434C58.2273 2.65111 57.616 1.78611 57.0048 0.928031C55.8807 -0.714197 53.0778 -0.0837488 52.9471 2.08586C52.8168 4.24417 52.7769 5.04398 52.8088 7.14402L52.8644 9.48226C52.9189 9.60027 52.7604 9.58023 52.8501 9.98305C52.9204 10.2992 52.83 12.5773 53.0997 13.5097L53.7783 15.585C53.9621 15.9874 54.0722 16.8492 54.2446 16.5847C54.3094 16.4853 54.2853 16.3141 54.4756 16.2089L54.6118 16.0264C54.7194 16.317 54.6568 16.3884 54.9873 15.6567C55.3119 14.9378 55.1729 14.4414 55.4207 14.0946C55.6421 13.7843 55.4379 13.5206 55.5938 13.1094L56.291 10.7075C56.5494 10.3859 56.4294 10.3545 56.4828 10.1349L56.6563 9.36936C59.034 12.7838 62.2414 14.056 62.4859 14.4086C60.2964 14.8984 59.2107 14.9301 56.287 15.314C55.4741 15.4207 55.5447 15.7431 55.2245 16.0406L54.4075 16.5971C54.4833 16.7162 54.3537 16.8208 54.3684 16.8969C54.4189 17.1617 54.2527 17.1591 54.1788 17.2498C53.7575 17.7662 53.6901 17.3219 53.2857 18.6374L53.0196 19.8444C52.9526 21.0798 52.6085 20.3347 52.931 22.6157L54.1235 28.3695L55.454 32.625L56.302 35.1377C56.3372 35.2713 56.4195 35.3901 56.4609 35.5237L57.1417 37.7611C57.9081 39.5617 58.1467 40.961 58.7199 42.8047L60.0588 46.6926C60.1448 46.7975 59.9699 46.7939 60.166 47.1075C60.3172 47.3489 60.8066 49.3503 61.3523 50.1519L63.1575 52.5455L62.8233 53.3664C59.6038 51.462 55.5103 51.8379 52.8838 54.5509L52.3454 55.107C51.0867 53.8898 47.6688 51.2857 46.2183 50.2954C45.36 49.7105 44.4998 49.1314 43.7242 48.4765C42.7276 47.6352 38.4715 44.9248 37.36 44.299C37.6513 41.1628 36.9903 38.1257 35.8436 35.2258C35.2264 33.6648 33.4414 31.0476 32.3013 29.8865C27.9003 25.4041 22.1183 23.2578 15.81 24.2124C12.4643 24.7187 9.43 26.0262 6.78041 28.127C5.26913 29.3252 5.43787 31.7028 7.15778 32.6596L17.7492 38.4997C18.1895 38.7495 18.453 39.2376 18.2814 39.7417L15.6614 44.3606C15.4989 44.6957 15.2277 44.8337 14.8694 44.8982C14.451 44.9736 14.3247 44.9277 13.7761 44.6232L3.45479 38.8107C2.11188 38.047 0.360128 38.9215 0.211892 40.4959C0.113433 41.5412 0.0116811 42.4263 0.0614593 43.4952C0.333409 49.3678 2.86587 54.1805 7.58528 57.6226C9.52005 59.0339 11.7333 60.0472 14.0649 60.6117C15.0626 60.8532 15.6138 60.8393 16.037 60.9464C17.2928 61.2644 20.1718 61.0393 21.4771 60.8273C24.0835 60.4037 26.9106 59.1661 29.0338 57.545L29.04 57.541L43.6437 64.1901C42.4088 65.4652 40.731 67.1475 39.5798 68.4703C36.9797 71.6255 35.2275 73.8795 34.3978 77.9726C33.7459 81.1882 33.3404 84.8667 32.6651 88.2142C32.4209 89.3236 32.0725 90.1471 31.5407 91.1272L30.5422 92.5538L26.0676 97.1745C22.9466 100.444 20.8662 103.68 18.1869 107.235C16.3883 109.622 17.4736 108.642 17.6401 108.664C17.7217 109.11 17.5468 109.076 17.8773 108.96L17.5596 109.407C17.2474 109.177 14.2384 106.778 14.193 107.085C14.2281 107.258 14.4426 107.381 14.4302 107.557C13.9492 107.626 14.0001 107.4 14.1311 107.789C13.9093 107.627 13.3841 107.193 13.1469 107.153C13.4642 108.782 16.2064 110.601 16.2518 111.216C16.284 111.65 17.8389 112.628 18.4549 113.439C19.0819 114.264 20.7114 116.027 21.473 116.836C21.805 117.189 23.1307 118.498 23.2391 118.782C23.4587 119.359 23.9627 119.649 24.4004 120.102C28.8413 124.749 33.4227 129.261 37.8797 133.893L40.3141 136.469C40.5319 136.722 40.5922 137.287 40.1922 137.658L34.8571 142.755C34.7063 142.925 34.1892 143.002 33.8729 142.777L32.8722 141.796C32.1483 141.026 31.3002 140.388 30.6176 139.573L26.8425 135.792L24.0882 133.072C23.4733 132.489 22.8566 131.904 22.2439 131.321L13.9137 123.072C13.5858 122.752 13.2329 122.455 12.9214 122.12C12.3047 121.461 11.6795 120.817 11.0236 120.197C9.76528 119.006 8.60171 117.723 7.28991 116.584L5.3815 114.878C5.08027 114.505 4.73695 114.217 4.84932 113.898C4.86762 113.847 4.73292 113.788 4.89068 113.478C5.22412 112.82 4.60445 113.451 5.64577 112.353C6.6018 111.343 7.59626 110.356 8.4553 109.267C8.79094 108.842 9.81359 107.698 10.3842 107.293C10.6342 107.115 10.8157 106.557 11.6634 106.611C12.2758 106.651 12.2322 106.381 12.6143 106.576C13.0711 106.809 12.6001 106.411 13.5016 106.8C13.2717 106.343 13.2604 106.05 13.1981 105.956C13.0375 105.705 12.8288 105.482 12.7545 105.213C12.7124 105.065 11.9204 104.647 11.5291 104.552C8.53839 103.829 6.59155 106.582 4.33982 107.918C3.68575 108.307 1.90728 109.751 1.26382 110.552C-0.554912 112.817 -0.388741 116.142 1.62069 118.402L4.45731 121.278C5.1403 122.107 6.3972 123.319 7.20499 124.143C7.46267 124.408 7.70021 124.694 7.95606 124.96C12.4723 129.642 17.3305 134.308 22.0502 138.827L27.9091 144.425C28.2081 144.722 28.5445 144.987 28.8475 145.281C30.1736 146.575 31.0129 147.64 32.9736 148.105C34.9362 148.571 37.2696 147.93 38.6696 146.451L43.5566 141.356C44.3091 140.604 44.8252 139.871 45.1554 138.814C45.8537 136.581 45.1766 134.455 43.5874 132.859L41.7492 131.043L43.8392 129.905C44.6748 129.331 45.0924 129.212 45.3841 129.011C47.1761 127.775 49.0999 125.983 50.6467 124.451C52.1236 122.985 54.1052 121.277 55.637 119.781C57.3803 118.005 58.2697 116.776 60.8461 115.877C62.1641 115.416 63.4664 115.244 64.869 115.269C65.104 115.273 65.3393 115.224 65.5765 115.222C70.0975 115.266 74.8674 115.848 79.2498 114.44L79.2684 117.332C79.32 117.841 79.3819 118.35 79.3343 118.865C79.1963 120.26 80.4887 125.513 80.9104 127.042C80.9268 127.099 80.9473 127.159 80.9495 127.216L82.7156 134.555C83.6797 137.976 84.6353 141.416 85.7337 144.794C86.1649 146.116 87.5883 146.841 88.9188 146.412L96.8903 144.078L98.716 143.536C99.9077 143.115 100.486 141.89 100.055 140.607C98.6669 136.543 97.6549 132.393 96.4426 128.272L94.5573 122.107C94.453 121.905 94.6104 121.896 94.3325 121.249L92.9216 116.618C91.9421 113.795 90.4572 111.247 89.1527 108.589C91.2822 106.968 92.1233 106.278 93.8337 104.098C95.7146 103.966 97.3961 103.292 98.8239 102.047C99.896 101.112 101.566 99.7196 102.49 98.6168C103.52 99.6515 107.32 102.534 108.553 103.375C109.409 103.958 110.269 104.535 111.043 105.19C111.981 105.983 115.001 107.893 116.104 108.575C115.761 112.133 116.52 115.261 118.004 118.461C118.955 120.514 120.747 122.731 122.406 124.217C124.788 126.352 128.028 127.958 131.215 128.579C135.461 129.407 139.809 128.701 143.63 126.742C144.682 126.213 145.653 125.537 146.588 124.829C147.913 123.957 148.277 121.334 146.268 120.215L136.591 114.894L135.576 114.323C135.095 114.079 135.023 113.354 135.221 112.993L137.954 108.3C138.489 107.717 139.166 108.069 139.671 108.333C141.12 109.091 142.685 110.054 144.036 110.714L145.872 111.757L149.892 114.05C151.253 114.79 153.001 113.992 153.208 112.4C153.404 110.895 153.42 109.372 153.253 107.865Z" fill="#FAFAFA"/>
</svg>
