<svg width="102" height="102" viewBox="0 0 102 102" fill="none" xmlns="http://www.w3.org/2000/svg">
<path d="M101.563 83.1959L96.5033 57.8235C96.3898 57.2518 96.0511 56.7478 95.567 56.425C95.0809 56.1023 94.4852 55.9887 93.9155 56.1043L77.4501 59.477L63.9929 54.2695C63.7419 54.1719 63.473 54.1221 63.204 54.1221H43.2643C42.8539 54.1221 42.4555 54.2376 42.1108 54.4508L25.3028 58.4192L6.41496 55.913C5.23559 55.7557 4.14586 56.5705 3.96258 57.7478L0.0260375 82.9389C-0.0675949 83.5406 0.0937716 84.1562 0.470294 84.6343C0.848808 85.1124 1.40861 85.4132 2.01822 85.461L18.9956 86.8117L21.4818 87.8278C21.0057 89.814 21.5396 91.9954 23.0795 93.5413C24.225 94.6888 25.7451 95.3223 27.3647 95.3223C28.3827 95.3223 29.3609 95.0713 30.2315 94.6012C30.2773 94.6928 30.3251 94.7844 30.3749 94.8741C30.6399 95.3542 30.9765 95.8044 31.3829 96.2128C32.5265 97.3603 34.0485 97.9939 35.6681 97.9939C36.3494 97.9939 37.0109 97.8823 37.6344 97.6671C37.8854 98.1672 38.2201 98.6353 38.6365 99.0537C39.6724 100.094 41.049 100.665 42.5152 100.665C43.7683 100.665 44.9557 100.249 45.9219 99.476C46.1271 99.8008 46.3721 100.106 46.653 100.388C47.6889 101.428 49.0655 102 50.5318 102C51.8765 102 53.1475 101.52 54.1476 100.635C55.1915 100.936 56.2613 101.084 57.3271 101.084C59.7277 101.084 62.1024 100.331 64.1005 98.8784L78.755 89.6327L99.8083 85.7798C100.386 85.6742 100.898 85.3415 101.227 84.8554C101.557 84.3693 101.679 83.7717 101.563 83.1959ZM13.7282 81.9967L4.7216 81.2795L7.96288 60.5389L16.7862 61.7103L13.7282 81.9967ZM32.1041 86.8755C32.1041 86.8755 28.5481 90.4435 28.5441 90.4475C27.9006 91.0929 26.8288 91.0909 26.1853 90.4475C25.5279 89.7881 25.5279 88.7143 26.1853 88.0549C26.1853 88.0549 29.7394 84.4869 29.7434 84.4829C30.3869 83.8374 31.4626 83.8394 32.1041 84.4829C32.7615 85.1423 32.7615 86.2161 32.1041 86.8755ZM40.4055 89.547C40.4055 89.547 36.8515 93.115 36.8475 93.119C36.206 93.7645 35.1282 93.7605 34.4868 93.119C33.8313 92.4596 33.8313 91.3858 34.4868 90.7264C34.4868 90.7264 38.0422 87.159 38.0468 87.1544C38.6701 86.5283 39.7672 86.5121 40.4055 87.1544C41.0629 87.8138 41.0629 88.8876 40.4055 89.547ZM47.659 91.575L43.2902 95.9598C42.8659 96.3862 42.1626 96.3822 41.7403 95.9598C41.3658 95.5813 41.316 95.0016 41.5909 94.5693L46.1091 89.9953C46.5335 89.5709 47.2367 89.5709 47.659 89.9953C48.0933 90.4315 48.0933 91.1388 47.659 91.575ZM51.3067 97.2946C50.8824 97.7209 50.1792 97.7169 49.7568 97.2946C49.3245 96.8583 49.3245 96.1511 49.7568 95.7148L52.1116 93.3521C52.5299 92.9337 53.2471 92.9337 53.6615 93.3521C54.0958 93.7864 54.0958 94.4956 53.6615 94.9299L51.3067 97.2946ZM61.5665 95.3024C60.4349 96.1371 59.1061 96.6073 57.7455 96.687C58.8232 94.6171 58.4965 91.9954 56.7673 90.2582C55.7314 89.2183 54.3528 88.6465 52.8865 88.6465C52.5758 88.6465 52.269 88.6724 51.9681 88.7242C51.7012 88.0608 51.3008 87.4393 50.7649 86.9014C49.7289 85.8615 48.3503 85.2897 46.8841 85.2897C46.1171 85.2897 45.376 85.4451 44.6947 85.7439C44.4078 85.1343 44.0134 84.5646 43.5113 84.0605C42.4027 82.9473 40.8147 82.2795 39.2262 82.2795C38.2082 82.2795 37.228 82.5306 36.3574 83.0027C36.0745 82.419 35.69 81.8751 35.2079 81.391C34.0644 80.2415 32.5424 79.61 30.9228 79.61C29.3051 79.61 27.7831 80.2415 26.6396 81.391L23.9402 84.1004L20.3403 82.6262C20.1311 82.5405 19.91 82.4887 19.6849 82.4708L18.1091 82.3453L21.1332 62.286L25.1255 62.8159C25.3905 62.8518 25.6594 62.8379 25.9184 62.7761L36.0108 60.3556L28.7971 67.4278C28.3807 67.8362 28.1437 68.396 28.1417 68.9797C28.1377 69.5635 28.3668 70.1252 28.7792 70.5396C33.5365 75.3149 41.1307 75.4623 46.0693 70.8763L47.6571 69.4041C49.9959 72.0656 54.7074 77.0321 59.5802 79.8849C64.9113 83.0067 70.2603 85.9312 73.5793 87.7162L61.5665 95.3024ZM78.2908 85.2638C76.1153 84.1143 68.9415 80.2874 61.7936 76.1018C55.7593 72.5697 49.6194 64.9456 49.5576 64.8679C49.1771 64.3918 48.6153 64.0969 48.0077 64.0511C47.9539 64.0471 47.9001 64.0451 47.8463 64.0451C47.2945 64.0451 46.7626 64.2543 46.3542 64.6308L43.087 67.6649C40.4494 70.1153 36.6423 70.4799 33.66 68.7985L44.1588 58.5049H62.7936L76.468 63.7961C76.8604 63.9475 77.2867 63.9834 77.6991 63.8997L79.9583 63.4375L83.8609 84.2438L78.2908 85.2638ZM88.17 83.4549L84.2534 62.557L92.6365 60.8397L96.83 81.8691L88.17 83.4549Z" fill="black"/>
<path d="M44.4071 51.2241C43.7865 51.2241 43.1574 51.1432 42.5261 50.9396C40.4899 50.283 39.2248 48.6665 38.1086 47.2403C37.508 46.4729 36.9408 45.7482 36.3832 45.3452C35.8106 44.9314 34.9301 44.6132 33.9978 44.2766C32.3002 43.6636 30.3764 42.9687 29.1311 41.2692C27.8933 39.5802 27.819 37.5516 27.7533 35.762C27.7168 34.7711 27.6827 33.8354 27.4596 33.1534C27.255 32.5275 26.7452 31.7818 26.2053 30.9923C25.1762 29.487 24.0098 27.7811 24.0098 25.612C24.0098 23.4431 25.1762 21.737 26.2053 20.232C26.745 19.4425 27.255 18.6966 27.4596 18.0706C27.6825 17.3887 27.717 16.4528 27.7533 15.4619C27.8188 13.6723 27.8933 11.6437 29.1311 9.9547C30.3764 8.25537 32.3002 7.5605 33.9978 6.94731C34.9301 6.61063 35.8106 6.29248 36.3832 5.8787C36.9406 5.47588 37.508 4.75093 38.1084 3.98374C39.2246 2.55754 40.4899 0.941084 42.5259 0.284461C44.4856 -0.347458 46.428 0.202383 48.1414 0.687479C49.1212 0.96499 50.0466 1.22696 50.8022 1.22696C51.5578 1.22696 52.4832 0.96499 53.4629 0.687479C55.1764 0.202383 57.1184 -0.347458 59.0785 0.284461C61.1145 0.940884 62.3795 2.55754 63.4958 3.98374C64.0964 4.75113 64.6636 5.47588 65.221 5.8789C65.7937 6.29287 66.6743 6.61083 67.6066 6.9475C69.3042 7.5605 71.228 8.25537 72.4733 9.9547C73.7111 11.6439 73.7856 13.6721 73.8511 15.4617C73.8876 16.4526 73.9216 17.3885 74.1448 18.0704C74.3494 18.6966 74.8594 19.4423 75.3992 20.232C76.4282 21.737 77.5948 23.4431 77.5948 25.612C77.5948 27.7809 76.4286 29.4868 75.3992 30.9919C74.8594 31.7814 74.3494 32.5273 74.1448 33.1532C73.9218 33.8354 73.8876 34.7713 73.8511 35.7622C73.7856 37.5518 73.7111 39.5802 72.4735 41.2692C71.228 42.9687 69.3042 43.6636 67.6066 44.2766C66.6743 44.6132 65.7937 44.9314 65.221 45.3452C64.6636 45.748 64.0964 46.4727 63.496 47.2401C62.3797 48.6663 61.1147 50.283 59.0785 50.9396C57.1188 51.5717 55.1766 51.0217 53.4629 50.5366C52.4832 50.2591 51.5578 49.9971 50.8022 49.9971C50.0466 49.9971 49.1212 50.2591 48.1412 50.5366C46.98 50.8655 45.7132 51.2241 44.4071 51.2241ZM44.4097 4.38377C44.2087 4.38377 44.0272 4.40568 43.871 4.45609C43.1134 4.70033 42.3587 5.66454 41.5599 6.68533C40.7981 7.65871 40.0102 8.66536 38.9505 9.43116C37.8787 10.2059 36.6625 10.6452 35.4865 11.0699C34.3241 11.4897 33.1218 11.924 32.6662 12.5457C32.2239 13.1494 32.1777 14.4068 32.1331 15.6228C32.0894 16.8146 32.0398 18.1655 31.6255 19.4329C31.2262 20.6537 30.513 21.697 29.8233 22.7056C29.0876 23.7818 28.3926 24.7982 28.3926 25.6122C28.3926 26.4262 29.0874 27.4426 29.8233 28.5188C30.513 29.5277 31.2262 30.5708 31.6255 31.7918C32.04 33.0594 32.0894 34.4101 32.1331 35.6018C32.1777 36.8178 32.2237 38.0753 32.666 38.6789C33.1216 39.3007 34.3237 39.7348 35.4863 40.1547C36.6623 40.5795 37.8783 41.0188 38.9503 41.7933C40.01 42.5593 40.7979 43.5658 41.5597 44.5393C42.3585 45.5601 43.1132 46.5243 43.8708 46.7686C44.5679 46.9935 45.7775 46.6508 46.9471 46.3197C48.1145 45.9892 49.4379 45.6145 50.8022 45.6145C52.1664 45.6145 53.4894 45.9892 54.6573 46.3197C55.8267 46.6508 57.0363 46.9933 57.7336 46.7686C58.4912 46.5243 59.2458 45.5601 60.0447 44.5393C60.8065 43.5658 61.5942 42.5593 62.6541 41.7933C63.7261 41.0186 64.9419 40.5795 66.1181 40.1545C67.2807 39.7348 68.4828 39.3005 68.9386 38.6787C69.3809 38.0753 69.4269 36.8178 69.4715 35.602C69.5153 34.4101 69.5647 33.0592 69.9793 31.7916C70.3783 30.5708 71.0917 29.5275 71.7814 28.5186C72.5171 27.4426 73.2122 26.4262 73.2122 25.6124C73.2122 24.7986 72.5173 23.782 71.7814 22.706C71.0915 21.6972 70.3783 20.6539 69.9793 19.4329C69.5647 18.1655 69.5153 16.8146 69.4715 15.6228C69.4269 14.4068 69.3809 13.1496 68.9384 12.5459C68.4828 11.9242 67.2807 11.4901 66.1183 11.0701C64.9423 10.6454 63.7261 10.2061 62.6541 9.43135C61.5944 8.66536 60.8067 7.65891 60.0447 6.68533C59.2456 5.66454 58.4912 4.70053 57.7336 4.45628C57.0367 4.23137 55.8267 4.57382 54.6571 4.90512C53.4896 5.23563 52.1664 5.61035 50.8022 5.61035C49.4379 5.61035 48.1147 5.23563 46.9471 4.90512C46.0395 4.64773 45.1073 4.38377 44.4097 4.38377Z" fill="#00AA72"/>
<path d="M50.8032 43.5484C40.9132 43.5484 32.8672 35.5023 32.8672 25.6123C32.8672 15.7223 40.9132 7.67627 50.8032 7.67627C60.6933 7.67627 68.7393 15.7223 68.7393 25.6123C68.7393 35.5023 60.6933 43.5484 50.8032 43.5484ZM50.8032 12.0589C43.33 12.0589 37.25 18.1388 37.25 25.6121C37.25 33.0854 43.33 39.1654 50.8032 39.1654C58.2765 39.1654 64.3565 33.0854 64.3565 25.6121C64.3565 18.1388 58.2765 12.0589 50.8032 12.0589Z" fill="black"/>
<path d="M47.2611 33.3442C46.7003 33.3442 46.1395 33.1302 45.7116 32.7023L41.7142 28.705C40.8586 27.8491 40.8586 26.4616 41.7142 25.6057C42.5701 24.7499 43.9576 24.7499 44.8135 25.6057L47.2613 28.0535L56.7927 18.5221C57.6486 17.6665 59.0361 17.6665 59.892 18.5221C60.7478 19.3779 60.7478 20.7655 59.892 21.6214L48.811 32.7023C48.3827 33.1302 47.8219 33.3442 47.2611 33.3442Z" fill="#00AA72"/>
</svg>
