<svg width="72" height="72" viewBox="0 0 72 72" fill="none" xmlns="http://www.w3.org/2000/svg">
<path d="M40.5 36.768C40.5 39.249 38.481 41.268 36 41.268C33.519 41.268 31.5 39.249 31.5 36.768C31.5 34.287 33.519 32.268 36 32.268C38.481 32.268 40.5 34.287 40.5 36.768ZM7.032 20.64C6.381 21.6 6 22.755 6 24C6 26.58 7.647 28.767 9.939 29.613C13.611 25.998 17.388 23.634 20.757 21.528C24.915 18.93 28.149 16.893 30.729 12.822C28.971 9.609 28.041 6.753 27.891 6.267C26.715 2.457 23.421 0 19.5 0H6C2.691 0 0 2.691 0 6C0 8.634 1.716 10.851 4.077 11.655C3.42 12.615 3 13.749 3 15C3 17.616 4.692 19.821 7.032 20.64ZM65.733 44.109C65.361 43.995 64.263 43.629 62.817 43.026C58.731 47.904 54.198 50.754 50.196 53.253C47.139 55.164 44.43 56.886 42 59.424V59.997C42 63.306 44.691 65.997 48 65.997C49.242 65.997 50.4 65.616 51.36 64.965C52.179 67.305 54.384 68.997 57 68.997C58.251 68.997 59.385 68.577 60.345 67.92C61.152 70.284 63.369 71.997 66 71.997C69.309 71.997 72 69.306 72 65.997V52.497C72 48.576 69.543 45.282 65.733 44.106V44.109ZM65.19 26.364C61.392 38.412 53.43 44.16 47.016 48.168C42.18 51.189 36.621 54.456 32.292 62.574C30.297 66.315 25.437 67.383 22.167 64.68L8.07 53.019C5.697 51.054 4.998 47.73 6.294 44.934C11.268 34.212 18.348 30.111 23.934 26.619C29.109 23.385 35.169 18.273 38.808 9.888C40.509 5.97 45.429 4.704 48.72 7.425L63.006 19.242C65.088 20.964 66.003 23.787 65.19 26.364ZM46.5 36.768C46.5 30.978 41.79 26.268 36 26.268C30.21 26.268 25.5 30.978 25.5 36.768C25.5 42.558 30.21 47.268 36 47.268C41.79 47.268 46.5 42.558 46.5 36.768Z" fill="#00AA72"/>
</svg>
