<svg width="32" height="32" viewBox="0 0 32 32" fill="none" xmlns="http://www.w3.org/2000/svg">
<path d="M29.456 18.4L31.5333 21.1693C32.1893 22.044 32.1493 23.256 31.4387 24.0867L24.0147 32L26.7613 24H21.2667L24.0147 32L16.592 24.0867C15.88 23.256 15.8413 22.044 16.4973 21.1693L18.5747 18.4C19.0787 17.728 19.868 17.3333 20.708 17.3333H22.848L21.3467 21.3333H26.68L25.1787 17.3333H27.32C28.16 17.3333 28.9493 17.728 29.4533 18.4H29.456ZM32 12V14.6667H0V12C0 8.324 2.99067 5.33333 6.66667 5.33333H8.13467C8.75467 2.29467 11.448 0 14.6667 0H17.3333C20.552 0 23.2453 2.29467 23.8653 5.33333H25.3333C29.0093 5.33333 32 8.324 32 12ZM21.088 5.33333C20.536 3.78533 19.0693 2.66667 17.3333 2.66667H14.6667C12.9307 2.66667 11.464 3.78533 10.912 5.33333H21.0867H21.088ZM14.6493 25.912C13.032 24.0333 12.948 21.46 14.3667 19.5693L16.044 17.3333H0V25.3333C0 29.0093 2.99067 32 6.66667 32H20.36L14.6493 25.912Z" fill="#00AA72"/>
</svg>
