<svg width="32" height="32" viewBox="0 0 32 32" fill="none" xmlns="http://www.w3.org/2000/svg">
<path d="M25.3333 1.33337H6.66667C2.99067 1.33337 0 4.32404 0 8.00004V18.6667C0 22.3427 2.99067 25.3334 6.66667 25.3334H14.6667V28H9.33333C8.59733 28 8 28.5974 8 29.3334C8 30.0694 8.59733 30.6667 9.33333 30.6667H22.6667C23.4027 30.6667 24 30.0694 24 29.3334C24 28.5974 23.4027 28 22.6667 28H17.3333V25.3334H25.3333C29.0093 25.3334 32 22.3427 32 18.6667V8.00004C32 4.32404 29.0093 1.33337 25.3333 1.33337ZM26.6667 14.6374C26.6667 15.3734 26.0693 15.9707 25.3333 15.9707C24.5973 15.9707 24 15.3734 24 14.6374V12.5534L19.328 17.2254C18.1533 18.4014 16.104 18.4014 14.9293 17.2254L12.4467 14.7427C12.2733 14.5694 11.992 14.5694 11.8187 14.7427L7.61333 18.948C7.35333 19.208 7.012 19.3387 6.67067 19.3387C6.32933 19.3387 5.988 19.208 5.728 18.948C5.20667 18.4267 5.20667 17.584 5.728 17.0627L9.93333 12.8574C11.1453 11.644 13.12 11.644 14.332 12.8574L16.8147 15.34C17.0413 15.5667 17.216 15.5667 17.4427 15.34L22.1147 10.668H20C19.264 10.668 18.6667 10.0707 18.6667 9.33471C18.6667 8.59871 19.264 8.00137 20 8.00137H24.6667C25.7693 8.00137 26.6667 8.89871 26.6667 10.0014V14.6387V14.6374Z" fill="#FAFAFA"/>
</svg>
