<svg width="34" height="34" viewBox="0 0 34 34" fill="none" xmlns="http://www.w3.org/2000/svg">
<g clip-path="url(#clip0_10620_4345)">
<path d="M17 0C7.62592 0 0 7.62592 0 17C0.85425 39.5222 33.15 39.5165 34 17C34 7.62592 26.3741 0 17 0ZM18.4167 24.0833V25.5C18.4096 27.353 15.5904 27.3516 15.5833 25.5V24.0833H15.2037C13.6921 24.0833 12.2811 23.2702 11.5232 21.9597C11.1307 21.2812 11.3631 20.4156 12.0388 20.0246C12.7174 19.6293 13.5844 19.8645 13.974 20.5402C14.2276 20.9794 14.6979 21.25 15.2022 21.25H18.4152C19.8277 21.3421 20.4595 19.0542 18.9196 18.7567L14.6115 18.0384C9.65033 17.119 10.7185 9.88833 15.5819 9.91667V8.5C15.5904 6.647 18.4082 6.64842 18.4152 8.5V9.91667H18.7949C20.3065 9.91667 21.7175 10.7312 22.4754 12.0417C22.8678 12.7188 22.6355 13.5844 21.9597 13.9768C21.2798 14.3693 20.4142 14.1369 20.0246 13.4598C19.771 13.022 19.3007 12.7514 18.7963 12.7514H15.5833C14.1709 12.6593 13.5405 14.9472 15.079 15.2447L19.3871 15.963C24.3482 16.8824 23.2801 24.1117 18.4167 24.0833Z" fill="#FAFAFA"/>
</g>
<defs>
<clipPath id="clip0_10620_4345">
<rect width="34" height="34" fill="white"/>
</clipPath>
</defs>
</svg>
