<svg width="287" height="292" viewBox="0 0 287 292" fill="none" xmlns="http://www.w3.org/2000/svg">
<path d="M88.5215 24.6816C103.968 20.865 120.163 21.3401 135.358 26.0557C150.554 30.7714 164.173 39.5487 174.745 51.4395C185.317 63.3303 192.44 77.883 195.345 93.5264L195.835 96.167L198.476 96.6572C214.119 99.5618 228.672 106.685 240.562 117.257C252.453 127.828 261.231 141.447 265.946 156.643C270.662 171.838 271.137 188.034 267.32 203.48C263.504 218.927 255.54 233.036 244.289 244.287C233.038 255.538 218.929 263.502 203.482 267.318C188.036 271.135 171.84 270.66 156.645 265.944C141.449 261.229 127.83 252.451 117.259 240.561C106.687 228.67 99.5638 214.117 96.6592 198.474L96.1689 195.833L93.5283 195.343L92.0654 195.058C76.9783 191.989 62.9607 184.985 51.4414 174.743C39.5506 164.172 30.7733 150.552 26.0576 135.356C21.342 120.161 20.8669 103.966 24.6836 88.5195C28.5003 73.0733 36.4642 58.9635 47.7148 47.7129C58.9655 36.4623 73.0753 28.4984 88.5215 24.6816ZM129.69 194.515C123.787 195.913 117.753 196.693 111.688 196.841L106.763 196.96L107.997 201.729C112.269 218.24 121.899 232.866 135.377 243.314C148.855 253.763 165.42 259.445 182.474 259.468H182.479C184.32 259.468 186.142 259.383 187.911 259.252L196.426 258.623L131.814 194.012L129.69 194.515ZM164.718 177.09C159.529 181.336 153.872 184.974 147.856 187.934L142.956 190.345L146.818 194.208L207.772 255.162L210.148 254.242C217.136 251.536 223.691 247.824 229.604 243.223L233.1 240.503L229.969 237.371L169.96 177.351L167.458 174.848L164.718 177.09ZM187.936 147.878C184.976 153.893 181.338 159.551 177.092 164.739L174.85 167.479L177.353 169.981L237.373 229.989L240.506 233.122L243.225 229.624C247.828 223.703 251.541 217.14 254.245 210.145L255.163 207.769L253.362 205.969L194.209 146.839L190.347 142.978L187.936 147.878ZM196.843 111.676C196.679 117.75 195.881 123.791 194.463 129.7L193.951 131.83L195.5 133.378L258.576 196.454L259.197 187.929C259.327 186.142 259.412 184.354 259.412 182.5V182.497C259.398 165.447 253.729 148.882 243.291 135.4C232.853 121.918 218.237 112.281 201.734 107.996L196.976 106.761L196.843 111.676ZM182.498 105.589C162.108 105.611 142.56 113.722 128.142 128.14C113.724 142.558 105.613 162.106 105.591 182.496L105.587 186.415L109.506 186.411C129.896 186.389 149.444 178.278 163.862 163.86C178.28 149.442 186.391 129.894 186.413 109.504L186.417 105.585L182.498 105.589ZM32.8066 104.071C32.6765 105.858 32.5908 107.646 32.5908 109.5V109.504C32.6083 126.562 38.287 143.132 48.7363 156.615C59.1856 170.098 73.8149 179.732 90.3291 184.005L95.0996 185.239L95.2188 180.312C95.365 174.24 96.1441 168.199 97.5439 162.288L98.0469 160.165L33.4277 95.5459L32.8066 104.071ZM48.7783 62.376C44.175 68.2971 40.4625 74.8598 37.7588 81.8555L36.8408 84.2314L38.6416 86.0312L97.7949 145.161L101.657 149.022L104.068 144.122C107.028 138.107 110.666 132.449 114.912 127.261L117.154 124.521L114.65 122.019L54.6309 62.0107L51.498 58.8779L48.7783 62.376ZM81.8574 37.7568C74.8617 40.4606 68.2991 44.1731 62.3779 48.7764L58.8789 51.4971L62.0127 54.6299L122.044 114.649L124.547 117.151L127.286 114.91C132.474 110.665 138.131 107.026 144.146 104.066L149.048 101.654L84.2324 36.8389L81.8574 37.7568ZM109.502 32.5889C107.669 32.5889 105.883 32.6734 104.224 32.7402L95.3018 33.0996L158.646 96.4443L160.189 97.9883L162.313 97.4854C168.217 96.0871 174.25 95.3069 180.315 95.1592L180.233 91.8027L184.132 91.3066V87.2432L183.146 87.2666C178.519 72.0085 169.261 58.5334 156.617 48.7344C143.134 38.2851 126.564 32.6064 109.506 32.5889H109.502Z" fill="black" stroke="white" stroke-width="7.82143"/>
</svg>
