<svg width="101" height="102" viewBox="0 0 101 102" fill="none" xmlns="http://www.w3.org/2000/svg">
<path d="M27.9408 38.6367C22.3162 38.6367 17.7405 43.258 17.7405 48.9381C17.7405 53.8661 21.1857 57.9949 25.7709 59.0026V73.1351H30.1108V59.0026C34.696 57.9951 38.1412 53.8663 38.1412 48.9381C38.1414 43.258 33.5655 38.6367 27.9408 38.6367ZM27.9408 54.8566C24.7093 54.8566 22.0803 52.2015 22.0803 48.9381C22.0803 45.6745 24.7095 43.0195 27.9408 43.0195C31.1722 43.0195 33.8014 45.6747 33.8014 48.9381C33.8016 52.2017 31.1724 54.8566 27.9408 54.8566Z" fill="#00AA72"/>
<path d="M57.916 62.5415C49.5405 62.5415 42.7266 69.4229 42.7266 77.8813C42.7266 86.3397 49.5405 93.2211 57.916 93.2211C66.2914 93.2211 73.1053 86.3397 73.1053 77.8813C73.1053 69.4229 66.2914 62.5415 57.916 62.5415ZM57.916 88.8383C51.9335 88.8383 47.0664 83.923 47.0664 77.8813C47.0664 71.8396 51.9335 66.9243 57.916 66.9243C63.8984 66.9243 68.7655 71.8396 68.7655 77.8813C68.7655 83.923 63.8984 88.8383 57.916 88.8383Z" fill="#00AA72"/>
<path d="M57.916 71.3071C54.3266 71.3071 51.4062 74.2564 51.4062 77.8813C51.4062 81.5063 54.3266 84.4555 57.916 84.4555C61.5054 84.4555 64.4257 81.5063 64.4257 77.8813C64.4257 74.2564 61.5054 71.3071 57.916 71.3071ZM57.916 80.0727C56.7196 80.0727 55.7461 79.0896 55.7461 77.8813C55.7461 76.6731 56.7196 75.6899 57.916 75.6899C59.1124 75.6899 60.0859 76.6731 60.0859 77.8813C60.0859 79.0896 59.1124 80.0727 57.916 80.0727Z" fill="#00AA72"/>
<path d="M99.9151 25.7738L98.4421 24.915C98.5733 23.9896 98.6394 23.0521 98.6394 22.113C98.6394 21.1739 98.5733 20.2364 98.4421 19.311L99.9151 18.4522C100.953 17.8469 101.309 16.5068 100.709 15.4587L95.6759 6.65428C95.0766 5.60619 93.7496 5.247 92.7118 5.85223L91.2357 6.71285C89.7759 5.553 88.1514 4.60433 86.4333 3.90826V2.1914C86.4333 0.981148 85.4617 0 84.2633 0H74.1963C72.9979 0 72.0264 0.981148 72.0264 2.1914V3.90846C70.3082 4.60452 68.6838 5.5532 67.224 6.71305L65.7479 5.85243C64.7101 5.2476 63.3831 5.60639 62.7838 6.65448L57.7503 15.4589C57.1511 16.507 57.5067 17.8473 58.5445 18.4524L60.0173 19.3112C59.8861 20.2368 59.8201 21.1741 59.8201 22.1132C59.8201 23.0523 59.8861 23.9896 60.0173 24.9152L58.5445 25.774C57.5067 26.3792 57.1511 27.7194 57.7503 28.7675L62.7838 37.5719C63.3829 38.6198 64.7097 38.979 65.7479 38.374L67.224 37.5133C68.6838 38.6732 70.3082 39.6219 72.0264 40.3179V42.035C72.0264 43.2452 72.9979 44.2264 74.1963 44.2264H84.2633C85.4617 44.2264 86.4333 43.2452 86.4333 42.035V40.3179C88.1514 39.6219 89.7759 38.6732 91.2357 37.5133L92.7118 38.374C93.75 38.979 95.0766 38.62 95.6759 37.5719L100.709 28.7675C101.309 27.7192 100.953 26.3788 99.9151 25.7738ZM93.9151 18.6795C94.1704 19.7981 94.2998 20.9533 94.2998 22.113C94.2998 23.2726 94.1704 24.4281 93.9151 25.5465C93.7011 26.485 94.1187 27.4548 94.9446 27.9365L95.8661 28.4738L93.0026 33.4828L92.0768 32.9431C91.2503 32.4612 90.2087 32.5813 89.511 33.2391C87.8384 34.8161 85.8052 36.0035 83.6307 36.6728C82.7176 36.9539 82.0936 37.8048 82.0936 38.769V39.8436H76.3664V38.769C76.3664 37.8048 75.7425 36.9539 74.8293 36.6728C72.6551 36.0035 70.6215 34.8161 68.9491 33.2391C68.2514 32.5813 67.2102 32.4612 66.3832 32.9431L65.4575 33.483L62.594 28.474L63.5152 27.9367C64.3412 27.4552 64.759 26.4852 64.5447 25.5467C64.2895 24.4281 64.1601 23.2728 64.1601 22.1132C64.1601 20.9535 64.2895 19.7981 64.5447 18.6797C64.7588 17.7412 64.3412 16.7714 63.5152 16.2897L62.594 15.7524L65.4575 10.7434L66.3832 11.2833C67.21 11.7654 68.2515 11.6451 68.9491 10.9873C70.6217 9.41026 72.6551 8.22292 74.8293 7.55355C75.7425 7.27245 76.3664 6.42159 76.3664 5.45738V4.3828H82.0936V5.45738C82.0936 6.42159 82.7178 7.27245 83.6309 7.55355C85.805 8.22272 87.8386 9.41026 89.5112 10.9873C90.2091 11.6451 91.2503 11.765 92.077 11.2833L93.0028 10.7436L95.8663 15.7526L94.9448 16.2899C94.1187 16.771 93.7009 17.7408 93.9151 18.6795Z" fill="#00AA72"/>
<path d="M79.2287 12.3511C73.8988 12.3511 69.5627 16.7301 69.5627 22.1128C69.5627 27.4954 73.8988 31.8744 79.2287 31.8744C84.5586 31.8744 88.8947 27.4954 88.8947 22.1128C88.8947 16.7301 84.5584 12.3511 79.2287 12.3511ZM79.2287 27.4916C76.2918 27.4916 73.9026 25.0787 73.9026 22.1128C73.9026 19.1468 76.2918 16.7339 79.2287 16.7339C82.1656 16.7339 84.5549 19.1468 84.5549 22.1128C84.5549 25.0787 82.1654 27.4916 79.2287 27.4916Z" fill="#00AA72"/>
<path d="M92.4718 62.2558L88.8534 59.8431L88.5936 55.472C88.5484 54.714 88.118 54.0335 87.4556 53.6735C86.7934 53.3137 85.9938 53.3256 85.3425 53.7056L77.3976 58.338C76.8993 58.6286 76.5356 59.1071 76.3866 59.6685L75.7883 61.9233C71.412 56.9303 65.0222 53.7765 57.9157 53.7765C56.4948 53.7765 55.1027 53.9032 53.7495 54.1446C55.1511 50.7388 55.8816 47.0752 55.8816 43.3283C55.8816 35.8411 53.0082 28.7886 47.7909 23.4698C42.5772 18.1549 35.6284 15.1868 28.2246 15.1122C20.7613 15.0377 13.7111 17.9294 8.35729 23.2559C3.00569 28.5798 0.0378418 35.657 0.000361488 43.1835C-0.0377106 50.8727 2.9327 58.0742 8.36479 63.4614C10.974 66.0491 12.4705 69.7279 12.4705 73.5544V85.3473C12.4705 89.6891 15.9682 93.2216 20.2674 93.2216H35.614C36.7759 93.2216 37.9036 92.9622 38.9302 92.4738C43.2947 98.2515 50.1808 101.987 57.9155 101.987C71.0771 101.987 81.7846 91.1737 81.7846 77.8818C81.7846 75.2097 81.351 72.6382 80.5527 70.2341L82.7693 70.8339C82.9542 70.8839 83.143 70.9086 83.331 70.9086C83.7087 70.9086 84.0833 70.809 84.4159 70.615L92.3608 65.9826C93.0121 65.6028 93.4222 64.9096 93.4447 64.1503C93.4672 63.3911 93.0995 62.6743 92.4718 62.2558ZM11.4054 60.3341C6.81705 55.7836 4.30784 49.7007 4.34019 43.2054C4.37195 36.8537 6.87997 30.8776 11.4027 26.3782C15.9281 21.8761 21.8922 19.4299 28.1812 19.4948C34.4345 19.5578 40.3037 22.065 44.7077 26.5545C49.1146 31.0469 51.5417 37.0041 51.5417 43.3283C51.5417 47.834 50.2944 52.1967 47.9347 55.988C41.6757 58.9097 36.8723 64.4892 34.9553 71.2851H16.6736C16.1741 67.1221 14.3165 63.221 11.4054 60.3341ZM35.6142 88.8386H20.2675C18.3612 88.8386 16.8105 87.2724 16.8105 85.3471V75.6679H34.1487C34.0826 76.3973 34.0471 77.1354 34.0471 77.8816C34.0471 81.7686 34.964 85.443 36.589 88.6976C36.2756 88.7906 35.9479 88.8386 35.6142 88.8386ZM57.9159 97.6042C47.1475 97.6042 38.3867 88.7568 38.3867 77.8816C38.3867 67.0065 47.1475 58.1591 57.9159 58.1591C64.3531 58.1591 70.0722 61.3215 73.6318 66.1877L60.5895 73.7923C59.5517 74.3975 59.196 75.7377 59.7953 76.7857C60.1973 77.4888 60.9266 77.8818 61.6766 77.8818C62.0447 77.8818 62.4179 77.787 62.7596 77.5878L75.8077 69.9799C76.8599 72.4004 77.4454 75.0729 77.4454 77.8814C77.4452 88.7568 68.6842 97.6042 57.9159 97.6042ZM83.0248 66.3655L79.3655 65.3751L80.3461 61.6796L84.4721 59.2739L84.5865 61.1995C84.6276 61.888 84.987 62.517 85.5569 62.8971L87.151 63.9599L83.0248 66.3655Z" fill="black"/>
<path d="M28.2031 10.7298C29.4015 10.7298 30.373 9.74862 30.373 8.53837V2.21679C30.373 1.00654 29.4015 0.0253906 28.2031 0.0253906C27.0047 0.0253906 26.0332 1.00654 26.0332 2.21679V8.53837C26.0332 9.74862 27.0045 10.7298 28.2031 10.7298Z" fill="black"/>
<path d="M42.8261 14.401C43.1418 14.5634 43.4779 14.6403 43.8093 14.6403C44.5993 14.6403 45.3614 14.2028 45.7447 13.443L48.5857 7.80991C49.1295 6.73135 48.7048 5.41193 47.637 4.86268C46.5694 4.31344 45.2625 4.74235 44.7187 5.82072L41.8777 11.4538C41.3334 12.5322 41.7581 13.8518 42.8261 14.401Z" fill="black"/>
<path d="M10.662 13.443C11.0453 14.2028 11.8072 14.6403 12.5974 14.6403C12.9288 14.6403 13.2651 14.5634 13.5806 14.401C14.6484 13.8518 15.0731 12.5322 14.5292 11.4538L11.688 5.82072C11.144 4.74235 9.83728 4.31344 8.76968 4.86268C7.70188 5.41193 7.27717 6.73155 7.82103 7.80991L10.662 13.443Z" fill="black"/>
</svg>
