<svg width="28" height="28" viewBox="0 0 28 28" fill="none" xmlns="http://www.w3.org/2000/svg">
<path d="M0.117833 4.66667C0.660333 2.00783 3.017 0 5.83333 0H22.1667C24.983 0 27.3397 2.00783 27.8822 4.66667H0.117833ZM28 7V22.1667C28 25.3832 25.3832 28 22.1667 28H5.83333C2.61683 28 0 25.3832 0 22.1667V7H28ZM3.5 11.6667C3.5 12.3107 4.0215 12.8333 4.66667 12.8333H10.5C11.1452 12.8333 11.6667 12.3107 11.6667 11.6667C11.6667 11.0227 11.1452 10.5 10.5 10.5H4.66667C4.0215 10.5 3.5 11.0227 3.5 11.6667ZM17.5 23.3333C17.5 22.6882 16.9785 22.1667 16.3333 22.1667H4.66667C4.0215 22.1667 3.5 22.6882 3.5 23.3333C3.5 23.9785 4.0215 24.5 4.66667 24.5H16.3333C16.9785 24.5 17.5 23.9785 17.5 23.3333ZM17.5 17.5C17.5 16.8548 16.9785 16.3333 16.3333 16.3333H8.16667C7.5215 16.3333 7 16.8548 7 17.5C7 18.1452 7.5215 18.6667 8.16667 18.6667H16.3333C16.9785 18.6667 17.5 18.1452 17.5 17.5ZM24.5 23.3333C24.5 22.4723 24.0275 21.728 23.3333 21.3232V14C23.3333 12.0703 21.763 10.5 19.8333 10.5H18.3435C17.9398 9.80583 17.1955 9.33333 16.3333 9.33333C15.0442 9.33333 14 10.3775 14 11.6667C14 12.9558 15.0442 14 16.3333 14C17.1943 14 17.9387 13.5275 18.3435 12.8333H19.8333C20.4773 12.8333 21 13.3572 21 14V21.3232C20.3058 21.7268 19.8333 22.4712 19.8333 23.3333C19.8333 24.6225 20.8775 25.6667 22.1667 25.6667C23.4558 25.6667 24.5 24.6225 24.5 23.3333Z" fill="#FAFAFA"/>
</svg>
