<svg width="36" height="36" viewBox="0 0 36 36" fill="none" xmlns="http://www.w3.org/2000/svg">
<path d="M20.25 18.384C20.25 19.6245 19.2405 20.634 18 20.634C16.7595 20.634 15.75 19.6245 15.75 18.384C15.75 17.1435 16.7595 16.134 18 16.134C19.2405 16.134 20.25 17.1435 20.25 18.384ZM3.516 10.32C3.1905 10.8 3 11.3775 3 12C3 13.29 3.8235 14.3835 4.9695 14.8065C6.8055 12.999 8.694 11.817 10.3785 10.764C12.4575 9.465 14.0745 8.4465 15.3645 6.411C14.4855 4.8045 14.0205 3.3765 13.9455 3.1335C13.3575 1.2285 11.7105 0 9.75 0H3C1.3455 0 0 1.3455 0 3C0 4.317 0.858 5.4255 2.0385 5.8275C1.71 6.3075 1.5 6.8745 1.5 7.5C1.5 8.808 2.346 9.9105 3.516 10.32ZM32.8665 22.0545C32.6805 21.9975 32.1315 21.8145 31.4085 21.513C29.3655 23.952 27.099 25.377 25.098 26.6265C23.5695 27.582 22.215 28.443 21 29.712V29.9985C21 31.653 22.3455 32.9985 24 32.9985C24.621 32.9985 25.2 32.808 25.68 32.4825C26.0895 33.6525 27.192 34.4985 28.5 34.4985C29.1255 34.4985 29.6925 34.2885 30.1725 33.96C30.576 35.142 31.6845 35.9985 33 35.9985C34.6545 35.9985 36 34.653 36 32.9985V26.2485C36 24.288 34.7715 22.641 32.8665 22.053V22.0545ZM32.595 13.182C30.696 19.206 26.715 22.08 23.508 24.084C21.09 25.5945 18.3105 27.228 16.146 31.287C15.1485 33.1575 12.7185 33.6915 11.0835 32.34L4.035 26.5095C2.8485 25.527 2.499 23.865 3.147 22.467C5.634 17.106 9.174 15.0555 11.967 13.3095C14.5545 11.6925 17.5845 9.1365 19.404 4.944C20.2545 2.985 22.7145 2.352 24.36 3.7125L31.503 9.621C32.544 10.482 33.0015 11.8935 32.595 13.182ZM23.25 18.384C23.25 15.489 20.895 13.134 18 13.134C15.105 13.134 12.75 15.489 12.75 18.384C12.75 21.279 15.105 23.634 18 23.634C20.895 23.634 23.25 21.279 23.25 18.384Z" fill="#00AA72"/>
</svg>
