<svg width="36" height="36" viewBox="0 0 36 36" fill="none" xmlns="http://www.w3.org/2000/svg">
<path d="M26.9985 18C22.0365 18 17.9985 22.038 17.9985 27C17.9985 31.962 22.0365 36 26.9985 36C31.9605 36 35.9985 31.962 35.9985 27C35.9985 22.038 31.9605 18 26.9985 18ZM28.4985 33H25.4985V30H28.4985V33ZM28.4985 28.5H25.4985V21H28.4985V28.5ZM17.8935 34.803C16.5615 35.4435 15.618 35.769 15.474 35.817L14.922 36L14.391 35.7645C13.803 35.505 0 29.2725 0 17.9865V8.2215C0 6.282 1.242 4.56 3.084 3.9495L14.9985 0L26.9145 3.951C28.755 4.5615 29.9985 6.2835 29.9985 8.223V15.3945C29.0385 15.147 28.0365 15.0015 26.9985 15.0015C20.3715 15.0015 14.9985 20.3745 14.9985 27.0015C14.9985 29.9835 16.092 32.7045 17.8935 34.803Z" fill="#00AA72"/>
</svg>
