<svg width="35" height="36" viewBox="0 0 35 36" fill="none" xmlns="http://www.w3.org/2000/svg">
<path d="M33.2926 5.54845L31.3096 7.53145L26.7136 2.93545L28.5646 1.08445C29.7661 -0.117052 31.7266 -0.348052 33.0421 0.728948C34.5556 1.96645 34.6381 4.20295 33.2911 5.54995L33.2926 5.54845ZM24.5926 5.05645L16.6486 13.0004C15.4291 14.2199 14.7451 15.8729 14.7451 17.5964V18.7499C14.7451 19.1639 15.0811 19.4999 15.4951 19.4999H16.6486C18.3721 19.4999 20.0251 18.8144 21.2446 17.5964L29.1886 9.65245L24.5926 5.05645ZM30.1531 20.8274L29.4766 20.4374C29.6296 19.6214 29.7061 18.8054 29.7061 17.9999C29.7061 17.1944 29.6296 16.3784 29.4766 15.5624L29.0416 14.0399L23.3656 19.7159C21.5716 21.5099 19.1866 22.4984 16.6486 22.4984H15.4936C13.4251 22.4984 11.7436 20.8169 11.7436 18.7484V17.5934C11.7436 15.0569 12.7321 12.6719 14.5261 10.8764L20.7046 4.69795V4.49695C20.7046 2.01595 18.6856 -0.00305176 16.2046 -0.00305176C13.7236 -0.00305176 11.7046 2.01595 11.7046 4.49695V5.27995C10.1341 5.83495 8.68062 6.67345 7.41912 7.75345L6.74412 7.36495C5.70462 6.76795 4.49262 6.60895 3.32862 6.92245C2.16912 7.23445 1.20012 7.98145 0.601624 9.02245C0.00162412 10.0634 -0.155876 11.2769 0.157624 12.4379C0.469624 13.5974 1.21662 14.5664 2.25912 15.1664L2.93562 15.5549C2.78262 16.3709 2.70612 17.1869 2.70612 17.9939C2.70612 18.8009 2.78262 19.6169 2.93562 20.4329L2.25912 20.8214C1.21662 21.4214 0.471124 22.3904 0.157624 23.5499C-0.155876 24.7109 0.00162426 25.9244 0.600124 26.9639C1.19862 28.0064 2.16762 28.7535 3.32862 29.0655C4.49262 29.3805 5.70462 29.2215 6.74412 28.623L7.41912 28.2344C8.68062 29.3159 10.1341 30.153 11.7046 30.708V31.4909C11.7046 33.972 13.7236 35.9909 16.2046 35.9909C18.6856 35.9909 20.7046 33.972 20.7046 31.4909V30.708C22.2751 30.153 23.7286 29.3144 24.9901 28.2344L25.6651 28.623C26.7076 29.2215 27.9196 29.3805 29.0806 29.0655C30.2401 28.7535 31.2091 28.0064 31.8091 26.9639C33.0466 24.813 32.3026 22.0574 30.1516 20.8199L30.1531 20.8274Z" fill="#FAFAFA"/>
</svg>
