<svg width="48" height="48" viewBox="0 0 48 48" fill="none" xmlns="http://www.w3.org/2000/svg">
<path fill-rule="evenodd" clip-rule="evenodd" d="M43.6117 16.5V40.5C43.6117 41.694 43.1381 42.8385 42.2935 43.6815C41.449 44.526 40.3043 45 39.1104 45H15.1032C13.9093 45 12.7646 44.526 11.9201 43.6815C11.0756 42.8385 10.6019 41.694 10.6019 40.5V29.802C11.3328 29.9325 12.0852 30 12.8525 30C19.8918 30 25.6064 24.2865 25.6064 17.25C25.6064 10.2135 19.8918 4.5 12.8525 4.5C12.4646 4.5 12.0809 4.51799 11.7036 4.55099C12.5288 3.60149 13.7464 3 15.1032 3H30.1077V12C30.1077 13.194 30.5814 14.3385 31.426 15.1815C32.2705 16.026 33.4151 16.5 34.6091 16.5H43.6117ZM19.6046 37.5V36C19.6046 35.172 18.9315 34.5 18.1041 34.5C17.2767 34.5 16.6037 35.172 16.6037 36V37.5C16.6037 38.328 17.2767 39 18.1041 39C18.9315 39 19.6046 38.328 19.6046 37.5ZM25.6064 37.5V31.5C25.6064 30.672 24.9333 30 24.1059 30C23.2785 30 22.6054 30.672 22.6054 31.5V37.5C22.6054 38.328 23.2785 39 24.1059 39C24.9333 39 25.6064 38.328 25.6064 37.5ZM31.6082 37.5V33C31.6082 32.172 30.9351 31.5 30.1077 31.5C29.2803 31.5 28.6072 32.172 28.6072 33V37.5C28.6072 38.328 29.2803 39 30.1077 39C30.9351 39 31.6082 38.328 31.6082 37.5ZM37.6099 37.5V27C37.6099 26.172 36.9369 25.5 36.1095 25.5C35.2821 25.5 34.6091 26.172 34.6091 27V37.5C34.6091 38.328 35.2821 39 36.1095 39C36.9369 39 37.6099 38.328 37.6099 37.5ZM33.1086 3.0285C34.1868 3.1515 35.1921 3.6615 35.9294 4.473L42.4414 11.6325C42.928 12.1695 43.2752 12.81 43.4596 13.5H34.6091C34.2104 13.5 33.8288 13.3425 33.548 13.0605C33.2672 12.78 33.1086 12.3975 33.1086 12V3.0285ZM22.4897 18.75C21.7673 23.4195 17.7247 27 12.8525 27C7.47021 27 3.09961 22.6305 3.09961 17.25C3.09961 12.3795 6.68138 8.33701 11.3521 7.61551V15.75C11.3521 17.4075 12.6961 18.75 14.353 18.75H22.4897ZM14.353 7.61551C18.535 8.26201 21.8445 11.5695 22.4897 15.75H14.353V7.61551Z" fill="white"/>
</svg>
