<svg width="56" height="56" viewBox="0 0 56 56" fill="none" xmlns="http://www.w3.org/2000/svg">
<path d="M16.4066 13.8906H21.875H27.3434C27.8647 13.8906 28.352 13.6407 28.6645 13.2234C31.0541 10.0331 32.2656 6.50409 32.2656 2.73438V1.64062C32.2656 0.734562 31.5311 0 30.625 0C27.5866 0 23.6234 1.96788 21.875 2.92534C20.1266 1.96788 16.1634 0 13.125 0C12.2189 0 11.4844 0.734562 11.4844 1.64062V2.73438C11.4844 6.50409 12.6959 10.0331 15.0855 13.2234C15.398 13.6407 15.8854 13.8906 16.4066 13.8906Z" fill="white"/>
<path d="M23.1455 38.0045V42.6496C23.9836 42.1972 24.4815 41.362 24.6146 40.5702C24.7098 40.0047 24.7486 38.6471 23.1455 38.0045Z" fill="white"/>
<path d="M19.5863 32.0824C19.4713 32.6927 19.6193 33.2614 19.9631 33.5311C20.0977 33.6366 20.2489 33.7399 20.4109 33.8412V30.7532C19.9333 31.0872 19.6732 31.6218 19.5863 32.0824Z" fill="white"/>
<path d="M30.8438 41.3802V33.2404C30.8438 30.9668 32.4791 29.0523 34.7324 28.6881C35.8975 28.4997 36.9112 27.7728 37.4688 26.7358C35.1186 23.4853 32.3516 20.4583 29.6084 17.6634C29.2999 17.349 28.8778 17.1719 28.4375 17.1719H15.3125C14.872 17.1719 14.4502 17.349 14.1416 17.6633C7.14864 24.788 0 33.42 0 43.4219L0.000109375 43.5396C0.0154219 50.4103 5.69756 56 12.6668 56H31.0832C33.0317 56 34.8795 55.5627 36.531 54.783C32.9753 51.3488 30.8438 46.5533 30.8438 41.3802ZM27.3107 41.0236C27.102 42.2648 26.4776 43.4165 25.5524 44.2666C24.8605 44.9023 24.0435 45.3374 23.1451 45.5573V46.5938C23.1451 47.3489 22.533 47.9609 21.7779 47.9609C21.0228 47.9609 20.4107 47.3489 20.4107 46.5938V45.6851C19.2653 45.5905 18.3228 45.2882 16.9822 44.4113C16.3504 43.998 16.1732 43.1506 16.5865 42.5188C16.9998 41.8868 17.847 41.7096 18.479 42.123C19.2543 42.6301 19.7491 42.8466 20.4107 42.9344V36.9283C19.5036 36.5142 18.8285 36.1165 18.2754 35.6826C17.1199 34.7763 16.5924 33.2028 16.899 31.576C17.2333 29.802 18.4678 28.3906 20.1206 27.8927C20.2183 27.8633 20.315 27.8364 20.4107 27.8114V26.9062C20.4107 26.1511 21.0228 25.5391 21.7779 25.5391C22.533 25.5391 23.1451 26.1511 23.1451 26.9062V27.66C24.5166 27.8892 25.4851 28.5619 25.9523 29.0978C26.4483 29.6671 26.389 30.5307 25.8197 31.0267C25.2532 31.5203 24.395 31.4639 23.8979 30.9023C23.8654 30.8691 23.6197 30.631 23.1451 30.4674V35.0941C23.4034 35.1902 23.6615 35.2833 23.915 35.3729C26.4068 36.2535 27.7398 38.4717 27.3107 41.0236Z" fill="white"/>
<path d="M54.8691 31.9272C52.6414 31.5671 50.6909 30.1568 49.6641 28.0961C49.5246 27.816 49.2342 27.643 48.9211 27.643H41.2039C40.8908 27.643 40.6004 27.816 40.4609 28.0961C39.4341 30.1569 37.4836 31.5671 35.2559 31.9272C34.607 32.0321 34.125 32.5829 34.125 33.2403V41.3801C34.125 47.9753 38.3346 53.8105 44.5427 55.9144C44.8794 56.0284 45.2457 56.0284 45.5824 55.9144C51.7904 53.8106 56 47.9753 56 41.3801V33.2403C56 32.5829 55.518 32.0321 54.8691 31.9272ZM50.863 39.9281L44.6759 46.1152C44.3555 46.4356 43.9356 46.5958 43.5158 46.5958C43.096 46.5958 42.676 46.4357 42.3558 46.1152L39.2622 43.0217C38.6215 42.381 38.6215 41.3422 39.2622 40.7015C39.9028 40.0608 40.9417 40.0608 41.5824 40.7015L43.5159 42.6349L48.543 37.6079C49.1836 36.9672 50.2225 36.9672 50.8632 37.6079C51.5037 38.2488 51.5037 39.2875 50.863 39.9281Z" fill="white"/>
</svg>
