<svg width="130" height="130" viewBox="0 0 130 130" fill="none" xmlns="http://www.w3.org/2000/svg">
<g clip-path="url(#clip0_926_1453)">
<path d="M49.5342 15.6595C63.0568 15.6595 76.0527 21.2782 85.3418 31.1029L85.416 31.181H113.56C114.544 31.181 115.341 31.9781 115.341 32.9623V76.516H127.969C128.661 76.516 129.291 76.9185 129.583 77.5463V77.5472C129.877 78.1745 129.777 78.9162 129.332 79.4437H129.331L100.462 113.705V113.706C100.124 114.109 99.625 114.34 99.0996 114.34C98.5741 114.34 98.0757 114.109 97.7373 113.708L85.4707 99.1566L85.291 98.9437L85.0986 99.1449C75.8222 108.828 62.9918 114.34 49.5322 114.34C22.3579 114.34 0.25 92.2077 0.25 65.0023C0.250107 37.7946 22.3575 15.6598 49.5342 15.6595ZM86.4209 78.2992C86.4209 79.2834 85.6238 80.0804 84.6396 80.0804H74.0605L74.4062 80.4916L86.0254 94.2865L98.9082 109.57L99.0996 109.796L99.291 109.57L123.79 80.4916L124.137 80.0804H113.557C112.573 80.0802 111.775 79.2833 111.775 78.2992V34.7435H86.4209V78.2992ZM51.3135 82.0443L51.6143 81.9828C55.5174 81.1776 58.4756 78.1431 58.4756 74.4857C58.4756 72.1786 57.8667 70.6307 56.6709 69.5306C55.4907 68.4449 53.7695 67.8265 51.623 67.2963L51.3135 67.2201V82.0443ZM47.4531 48.0179C43.5498 48.823 40.5908 51.8565 40.5908 55.514C40.5908 57.8212 41.1997 59.369 42.3955 60.4691C43.5757 61.5549 45.2968 62.1732 47.4434 62.7035L47.7529 62.7806V47.9554L47.4531 48.0179ZM47.748 66.4398L47.5527 66.3959C45.261 65.8812 43.0249 65.2493 41.1768 64.0297C38.4303 62.2176 37.0254 59.3683 37.0254 55.514C37.0254 49.9307 41.5676 45.2554 47.5371 44.389L47.751 44.3578V40.1879C47.7512 39.2039 48.5482 38.4066 49.5322 38.4066C50.5162 38.4067 51.3133 39.2039 51.3135 40.1879V44.3578L51.5273 44.389C57.4969 45.2554 62.0381 49.9307 62.0381 55.514C62.0381 56.4982 61.241 57.2953 60.2568 57.2953C59.2727 57.2952 58.4756 56.4982 58.4756 55.514C58.4756 51.8567 55.5173 48.8232 51.6143 48.0179L51.3135 47.9554V63.557L51.5088 63.601C53.8007 64.1156 56.0365 64.7484 57.8848 65.9681C60.6312 67.7802 62.0361 70.6295 62.0361 74.4838C62.0359 80.0669 57.4938 84.7424 51.5244 85.6088L51.3105 85.639V89.809C51.3105 90.7932 50.5135 91.5902 49.5293 91.5902C48.5452 91.5901 47.748 90.7931 47.748 89.809V85.639L47.5342 85.6088C41.5648 84.7424 37.0236 80.0669 37.0234 74.4838C37.0234 73.4996 37.8205 72.7025 38.8047 72.7025C39.7888 72.7026 40.5859 73.4996 40.5859 74.4838C40.5861 78.1435 43.5444 81.1747 47.4473 81.9799L47.748 82.0414V66.4398ZM82.8584 52.0394L82.8408 51.9955C77.5197 38.3566 64.1842 29.2163 49.5322 29.2162C29.8227 29.2162 13.7881 45.2735 13.7881 65.0052C13.7882 84.7368 29.825 100.791 49.5342 100.791C59.8768 100.791 69.5554 96.388 76.3516 88.6586L76.4941 88.4974L76.3555 88.3324L68.8701 79.4457L68.79 79.3441C68.4119 78.8242 68.3425 78.1376 68.6162 77.5463C68.9078 76.9164 69.5379 76.516 70.2305 76.516H82.8584V52.0394ZM82.8584 33.6625L82.79 33.5902C74.1711 24.4481 62.0959 19.2192 49.5322 19.2191C24.3232 19.2191 3.81261 39.7584 3.8125 65.0023C3.8125 90.2438 24.3232 110.778 49.5322 110.778C62.1647 110.778 74.2001 105.544 82.8291 96.3588L82.9814 96.1967L82.8379 96.0258L78.999 91.4681L78.8145 91.2494L78.6221 91.4613C71.1715 99.6814 60.7044 104.352 49.5322 104.352C27.8575 104.352 10.2236 86.6979 10.2236 65.0023C10.2237 43.3068 27.8575 25.6537 49.5322 25.6537C57.6718 25.6537 65.4799 28.1205 72.1152 32.7904C76.2229 35.6794 79.6923 39.2749 82.3994 43.3998L82.8584 44.1V33.6625Z" fill="#00AA72" stroke="white" stroke-width="0.5"/>
</g>
<defs>
<clipPath id="clip0_926_1453">
<rect width="130" height="130" fill="white"/>
</clipPath>
</defs>
</svg>
