<svg width="50" height="50" viewBox="0 0 50 50" fill="none" xmlns="http://www.w3.org/2000/svg">
<path d="M22.6562 8.59375V19.5312C22.6562 20.3601 22.327 21.1549 21.741 21.741C21.1549 22.327 20.3601 22.6562 19.5312 22.6562H8.59375C7.76495 22.6562 6.97009 22.327 6.38404 21.741C5.79799 21.1549 5.46875 20.3601 5.46875 19.5312V8.59375C5.46875 7.76495 5.79799 6.97009 6.38404 6.38404C6.97009 5.79799 7.76495 5.46875 8.59375 5.46875H19.5312C20.3601 5.46875 21.1549 5.79799 21.741 6.38404C22.327 6.97009 22.6562 7.76495 22.6562 8.59375ZM41.4062 5.46875H30.4688C29.6399 5.46875 28.8451 5.79799 28.259 6.38404C27.673 6.97009 27.3438 7.76495 27.3438 8.59375V19.5312C27.3438 20.3601 27.673 21.1549 28.259 21.741C28.8451 22.327 29.6399 22.6562 30.4688 22.6562H41.4062C42.2351 22.6562 43.0299 22.327 43.616 21.741C44.202 21.1549 44.5312 20.3601 44.5312 19.5312V8.59375C44.5312 7.76495 44.202 6.97009 43.616 6.38404C43.0299 5.79799 42.2351 5.46875 41.4062 5.46875ZM19.5312 27.3438H8.59375C7.76495 27.3438 6.97009 27.673 6.38404 28.259C5.79799 28.8451 5.46875 29.6399 5.46875 30.4688V41.4062C5.46875 42.2351 5.79799 43.0299 6.38404 43.616C6.97009 44.202 7.76495 44.5312 8.59375 44.5312H19.5312C20.3601 44.5312 21.1549 44.202 21.741 43.616C22.327 43.0299 22.6562 42.2351 22.6562 41.4062V30.4688C22.6562 29.6399 22.327 28.8451 21.741 28.259C21.1549 27.673 20.3601 27.3438 19.5312 27.3438ZM35.9375 27.3438C34.2378 27.3438 32.5763 27.8478 31.1631 28.7921C29.7498 29.7364 28.6484 31.0785 27.9979 32.6488C27.3475 34.2191 27.1773 35.947 27.5089 37.6141C27.8405 39.2811 28.6589 40.8123 29.8608 42.0142C31.0627 43.2161 32.5939 44.0345 34.2609 44.3661C35.928 44.6977 37.6559 44.5275 39.2262 43.8771C40.7965 43.2267 42.1386 42.1252 43.0829 40.7119C44.0272 39.2987 44.5312 37.6372 44.5312 35.9375C44.5312 33.6583 43.6258 31.4724 42.0142 29.8608C40.4026 28.2492 38.2167 27.3438 35.9375 27.3438Z" fill="white"/>
</svg>
