<svg width="51" height="51" viewBox="0 0 51 51" fill="none" xmlns="http://www.w3.org/2000/svg">
<path fill-rule="evenodd" clip-rule="evenodd" d="M25.4118 37.1435C18.9517 37.1435 13.68 31.8719 13.68 25.4118C13.68 18.9517 18.9517 13.68 25.4118 13.68C31.8719 13.68 37.1435 18.9517 37.1435 25.4118C37.1435 31.8719 31.8719 37.1435 25.4118 37.1435ZM24.5647 18.8766C24.245 18.933 23.9338 19.0202 23.6382 19.1365C22.1742 19.713 21.111 20.9725 21.194 22.692V22.6925C21.3052 24.9654 23.3735 25.8918 25.2853 26.2066L25.2862 26.2067C25.9914 26.3221 26.7581 26.4985 27.3703 26.8678C27.8572 27.1615 28.2334 27.5927 28.3151 28.2596C28.3958 28.9308 28.0865 29.4102 27.6241 29.7289C27.0422 30.1301 26.254 30.3116 25.5445 30.3284C24.1953 30.3602 22.8148 29.7437 22.4709 28.3627C22.358 27.909 21.8979 27.6324 21.4443 27.7453C20.9906 27.8583 20.7141 28.3182 20.827 28.7719C21.2825 30.6016 22.8224 31.684 24.5647 31.9557V32.8368C24.5647 33.3043 24.9443 33.6838 25.4118 33.6838C25.8792 33.6838 26.2588 33.3043 26.2588 32.8368V31.9678C28.264 31.6934 30.2807 30.4061 29.9969 28.056L29.9968 28.0548C29.7114 25.7176 27.5255 24.8564 25.5597 24.5348C25.0244 24.4468 24.4567 24.3102 23.9653 24.0699C23.3913 23.7892 22.9227 23.3545 22.8862 22.61C22.8413 21.6769 23.4642 21.0257 24.2588 20.7129C25.5729 20.1956 27.3978 20.5411 28.0844 22.1746C28.2656 22.6057 28.7626 22.8084 29.1936 22.6273C29.6246 22.4461 29.8274 21.9491 29.6462 21.5182C28.9837 19.9422 27.6608 19.0979 26.2588 18.8662V17.9868C26.2588 17.5192 25.8792 17.1397 25.4118 17.1397C24.9443 17.1397 24.5647 17.5192 24.5647 17.9868V18.8766ZM40.7787 25.4118H50.8235V28.853L46.6136 30.4734C46.0804 32.7168 45.1872 34.8564 43.9825 36.8228L45.8104 40.9497L40.9497 45.8104L36.8228 43.9825C34.8632 45.1942 32.7168 46.0804 30.4734 46.6136L28.853 50.8235H21.9774L20.3571 46.6136C18.1067 46.0804 15.9672 45.1872 14.0007 43.9825L9.87385 45.8104L5.01311 40.9497L6.84805 36.8228C5.63633 34.8632 4.74999 32.7168 4.20988 30.4734L0 28.853V21.9774L4.20988 20.3571C4.74999 18.1067 5.63633 15.9672 6.84805 14.0007L5.01311 9.87385L9.87385 5.01311L14.0007 6.84805C15.9672 5.63633 18.1067 4.74999 20.3502 4.21687L21.9774 0H25.4126V10.0448H25.4118C16.9495 10.0448 10.0448 16.9495 10.0448 25.4118C10.0448 33.874 16.9495 40.7787 25.4118 40.7787C33.874 40.7787 40.7787 33.874 40.7787 25.4118ZM29.7501 10.6703L32.222 4.70266C33.1305 5.00283 34.0128 5.36146 34.8646 5.77387L32.3971 11.7307C31.5563 11.2989 30.6709 10.9424 29.7501 10.6703ZM45.8869 17.9305L39.9355 20.3957C39.6209 19.4891 39.2234 18.6208 38.7523 17.7995L44.7293 15.3237C45.1696 16.1623 45.557 17.0328 45.8869 17.9305ZM34.9142 13.3501L39.4825 8.78178C40.2084 9.39716 40.8937 10.0591 41.5338 10.7628L36.9805 15.3162C36.3539 14.5993 35.6619 13.9408 34.9142 13.3501Z" fill="white"/>
</svg>
