<svg width="130" height="130" viewBox="0 0 130 130" fill="none" xmlns="http://www.w3.org/2000/svg">
<g clip-path="url(#clip0_926_1407)">
<path d="M2.70801 62.8916H21.667C22.8376 62.8918 23.7754 63.8341 23.7754 65V65.5996H47.3955C49.3278 65.5996 51.2209 66.1455 52.8438 67.1729L52.8447 67.1738L86.4414 88.3213C88.0277 89.3204 89.2424 90.6842 90.0479 92.2363L90.3359 92.793L90.8789 92.4805L114.062 79.1494L114.062 79.1504C118.809 76.423 124.827 77.9231 127.757 82.4697L128.031 82.9199C130.858 87.816 129.17 94.0763 124.271 96.8916L70.1045 128.037C66.9825 129.83 63.1576 129.856 60.0244 128.107L60.0107 128.1L24.1797 109.325L23.7061 109.077L23.4053 109.519C23.0237 110.078 22.3926 110.441 21.667 110.441H2.70801C1.53738 110.441 0.599609 109.499 0.599609 108.333V65C0.599609 63.8341 1.53738 62.8918 2.70801 62.8916ZM23.7754 104.35L24.0967 104.518L61.9629 124.361C61.9883 124.378 62.009 124.389 62.0205 124.396C62.0428 124.408 62.0647 124.418 62.082 124.426C63.8103 125.385 65.888 125.433 67.6455 124.569L67.9941 124.383L122.16 93.2373C125.048 91.5813 126.04 87.9007 124.386 85.0215C122.783 82.2324 119.275 81.2135 116.444 82.6572L116.173 82.8047L91.5 96.9854L91.2148 97.1494L91.1992 97.4785C91.1226 99.18 90.6117 100.887 89.6387 102.434C86.6331 107.213 80.3146 108.65 75.5303 105.642L43.9238 85.7422H43.9248C42.9457 85.1231 42.6493 83.8199 43.2715 82.835L43.2744 82.8311C43.8829 81.8514 45.1887 81.5536 46.168 82.1738L46.1689 82.1748L77.7754 102.073C80.5003 103.787 84.0716 103.047 85.9053 100.445L86.0791 100.185C86.829 98.983 87.1153 97.6104 86.9648 96.2959L86.957 96.2236L86.9551 96.2178V96.2129L86.9492 96.1719C86.7244 94.5797 85.8786 93.0769 84.4707 92.0811L84.1816 91.8887L50.5996 70.7422V70.7412L50.2314 70.5283C49.3587 70.0622 48.3833 69.8164 47.3955 69.8164H23.7754V104.35ZM4.81641 106.225H19.5586V67.1084H4.81641V106.225ZM74.4795 14.1416C94.3251 14.1418 110.441 30.2562 110.441 50.1045C110.441 65.0172 101.344 77.8248 88.4043 83.2695L87.7852 83.5225C86.6978 83.9539 85.4762 83.4265 85.0439 82.3447H85.043C84.6107 81.2638 85.14 80.0356 86.2129 79.6064L86.2119 79.6055C97.9283 74.9338 106.224 63.4817 106.225 50.1045C106.225 32.5834 91.995 18.3586 74.4795 18.3584C56.9638 18.3584 42.7334 32.5833 42.7334 50.1045C42.7334 53.1884 43.1751 56.1705 43.9893 58.9912V58.9932C44.3159 60.1099 43.6732 61.2817 42.5557 61.6074C41.4375 61.9331 40.2717 61.2884 39.957 60.1777L39.9551 60.1738L39.7852 59.5723C38.9613 56.5555 38.5166 53.381 38.5166 50.1045C38.5166 30.2561 54.6338 14.1416 74.4795 14.1416ZM74.4795 0.599609C101.8 0.599787 123.983 22.7825 123.983 50.1045C123.983 58.0985 122.087 65.6516 118.722 72.3369L118.391 72.9814C117.838 74.0172 116.562 74.4094 115.547 73.875L115.545 73.874L115.358 73.7646C114.464 73.1756 114.144 71.9941 114.647 71.0283C117.914 64.7675 119.767 57.6501 119.767 50.1045C119.767 25.1098 99.47 4.81658 74.4795 4.81641C49.4888 4.81641 29.1914 25.1097 29.1914 50.1045C29.1914 53.2056 29.5067 56.2354 30.0967 59.1631L30.0977 59.1641C30.3294 60.3032 29.5909 61.4176 28.4531 61.6494C27.3863 61.8667 26.3367 61.2314 26.0186 60.2119L25.9648 60.0029C25.3225 56.8044 24.9746 53.4929 24.9746 50.1045C24.9746 22.7824 47.1588 0.599609 74.4795 0.599609ZM76.5879 66.708L77.4287 66.3389C80.0209 65.2018 81.8496 62.6056 81.8496 59.583C81.8495 56.5606 80.0207 53.9652 77.4287 52.8281L76.5879 52.459V66.708ZM71.5303 33.8691C68.938 35.0062 67.1084 37.6023 67.1084 40.625C67.1084 43.6477 68.938 46.2438 71.5303 47.3809L72.3711 47.75V33.501L71.5303 33.8691ZM72.3711 52.0312L71.9033 51.9258C66.7405 50.7527 62.8916 46.1345 62.8916 40.625C62.8916 35.1155 66.7405 30.4973 71.9033 29.3242L72.3711 29.2188V27.083C72.3713 25.9203 73.3206 24.9746 74.4795 24.9746C75.6382 24.9748 76.5877 25.9204 76.5879 27.083V29.2188L77.0547 29.3242C81.1342 30.2521 84.4048 33.3368 85.5898 37.3115V37.3125C85.9171 38.4302 85.2828 39.6046 84.166 39.9375C83.1193 40.2482 82.0248 39.7101 81.6133 38.7197L81.54 38.5166C80.92 36.4292 79.4021 34.7312 77.4277 33.8691L76.5879 33.502V48.1768L77.0547 48.2832C82.2175 49.4562 86.0663 54.0736 86.0664 59.583C86.0664 65.0926 82.2176 69.7108 77.0547 70.8838L76.5879 70.9902V73.125C76.5879 74.2877 75.6383 75.2332 74.4795 75.2334C73.3205 75.2334 72.3711 74.2878 72.3711 73.125V70.9883L71.9033 70.8828C67.9505 69.9849 64.7577 67.0605 63.4854 63.2637L63.3682 62.8936C63.0627 61.8463 63.6008 60.7498 64.5889 60.3428L64.792 60.2705C65.8388 59.9596 66.9342 60.4979 67.3457 61.4883L67.418 61.6924C68.0381 63.7796 69.5569 65.4779 71.5312 66.3398L72.3711 66.7061V52.0312Z" fill="#00AA72" stroke="#E7F3EC" stroke-width="1.2"/>
</g>
<defs>
<clipPath id="clip0_926_1407">
<rect width="130" height="130" fill="white"/>
</clipPath>
</defs>
</svg>
