<svg width="130" height="130" viewBox="0 0 130 130" fill="none" xmlns="http://www.w3.org/2000/svg">
<path d="M115.846 51.8088C115.73 38.9471 103.988 29.221 91.3283 31.5663C86.6866 21.9679 75.8735 15.6099 63.9478 15.6099C52.0343 15.6099 41.4687 21.7046 36.6983 31.2297C25.5808 31.4249 16.5651 40.3873 16.2909 51.4784C8.04299 52.1094 1.52344 59.0228 1.52344 67.4301C1.52344 76.2511 8.7001 83.4277 17.5211 83.4277H27.4668C28.375 83.4277 29.1114 82.6917 29.1114 81.7832C29.1114 80.8747 28.3753 80.1386 27.4668 80.1386H17.5211C10.5135 80.1386 4.81228 74.4369 4.81228 67.4299C4.81228 60.4228 10.5132 54.7211 17.5211 54.7211C18.0022 54.7211 18.4773 54.8399 19.0821 54.2932C19.4566 53.954 19.6526 53.4325 19.6171 52.9288C18.9579 43.2996 26.8229 34.5145 37.0703 34.5145C37.78 34.5145 38.7311 34.6777 39.2293 33.5676C43.1549 24.7929 53.0885 18.8985 63.9478 18.8985C75.0763 18.8985 85.087 25.0049 88.8591 34.0932C89.1731 34.8511 90.0011 35.2675 90.7938 35.053C101.604 32.2273 112.558 40.4884 112.558 51.9987C112.558 52.3674 112.533 52.7246 112.509 53.0869C112.451 53.9632 113.091 54.7302 113.963 54.8303C120.362 55.5625 125.187 60.9791 125.187 67.4299C125.187 74.4369 119.492 80.1386 112.492 80.1386H102.533C101.625 80.1386 100.889 80.8747 100.889 81.7832C100.889 82.6917 101.625 83.4277 102.533 83.4277H112.492C121.307 83.4277 128.477 76.2511 128.477 67.4301C128.477 59.8218 123.145 53.3558 115.846 51.8088Z" fill="#00AA72"/>
<path d="M93.6621 72.6063H90.9469C90.6264 71.7006 90.2583 70.8101 89.8452 69.9443L91.7647 68.0248C93.3008 66.4889 93.3026 64.0024 91.7647 62.4632L84.3319 55.0309C82.846 53.5458 80.2546 53.5445 78.7703 55.0309L76.8508 56.9489C75.9837 56.5365 75.094 56.1679 74.1888 55.848V53.1319C74.1888 50.9646 72.4249 49.2007 70.2568 49.2007H59.7438C57.5757 49.2007 55.8118 50.9646 55.8118 53.1319V55.848C54.9067 56.1679 54.017 56.5365 53.1499 56.9489L51.2311 55.0309C49.7435 53.5445 47.1521 53.5458 45.6696 55.0309L38.2354 62.4632C36.7003 64.0009 36.698 66.4869 38.2362 68.0248L40.1557 69.9443C39.7426 70.8101 39.3747 71.7006 39.054 72.6063H36.3387C34.1701 72.6063 32.4062 74.3702 32.4062 76.5388V87.0505C32.4062 89.2191 34.1701 90.983 36.3387 90.983H39.054C39.3745 91.8887 39.7426 92.7791 40.1557 93.6449L38.2357 95.5645C36.7036 97.0986 36.7036 99.5922 38.2364 101.126L45.6701 108.56C47.2034 110.094 49.6978 110.09 51.2311 108.56L53.1504 106.64C54.0175 107.052 54.9072 107.421 55.8123 107.741V110.457C55.8123 112.626 57.5762 114.39 59.7443 114.39H70.2573C72.4254 114.39 74.1893 112.626 74.1893 110.457V107.741C75.0945 107.421 75.9842 107.052 76.8513 106.64L78.7708 108.56C80.3049 110.094 82.799 110.09 84.3319 108.56L91.766 101.126C93.298 99.5919 93.298 97.0983 91.766 95.5645H91.7652L89.8457 93.6449C90.2588 92.7791 90.6267 91.8887 90.9474 90.983H93.6627C95.8313 90.983 97.5952 89.2191 97.5952 87.0505V76.5388C97.5946 74.3702 95.8308 72.6063 93.6621 72.6063ZM94.3058 87.0507C94.3058 87.4055 94.0174 87.6944 93.6621 87.6944H89.7566C89.0327 87.6944 88.3933 88.1684 88.1834 88.8608C87.7279 90.3589 87.1248 91.8171 86.3905 93.1943C86.05 93.8328 86.1671 94.6189 86.679 95.1303L89.4387 97.89C89.6898 98.1406 89.6898 98.5504 89.4394 98.8008L82.0056 106.234C81.7557 106.484 81.3464 106.484 81.0953 106.234L78.3351 103.473C77.8237 102.962 77.0374 102.844 76.3991 103.184C75.0186 103.921 73.5611 104.523 72.0669 104.977C71.3737 105.188 70.8997 105.826 70.8997 106.55V110.457C70.8997 110.812 70.6113 111.101 70.2566 111.101H59.7436C59.3889 111.101 59.1007 110.812 59.1007 110.457V106.55C59.1007 105.826 58.6266 105.187 57.9335 104.977C56.4392 104.523 54.9818 103.921 53.6013 103.184C53.3573 103.055 53.092 102.992 52.8284 102.992C52.4019 102.992 51.9812 103.158 51.665 103.473L48.9048 106.234C48.655 106.484 48.2457 106.484 47.9946 106.234L40.5617 98.8008C40.3106 98.5502 40.3106 98.1404 40.561 97.89L43.3212 95.1303C43.833 94.6189 43.9501 93.8326 43.6096 93.1943C42.8753 91.8171 42.2723 90.3589 41.8168 88.8608C41.6068 88.1684 40.9675 87.6944 40.2436 87.6944H36.338C35.9828 87.6944 35.6943 87.4055 35.6943 87.0507V76.539C35.6943 76.1843 35.9828 75.8954 36.338 75.8954H40.2436C40.9675 75.8954 41.6068 75.4213 41.8168 74.7289C42.2723 73.2309 42.8753 71.7727 43.6096 70.3955C43.9501 69.7569 43.833 68.9708 43.3212 68.4595L40.561 65.6998C40.3104 65.4481 40.3098 65.0411 40.561 64.789L47.9951 57.3567C48.2454 57.1053 48.6524 57.1045 48.9046 57.3567L51.6648 60.1164C52.1767 60.6265 52.961 60.7445 53.6008 60.4053C54.9813 59.6692 56.4387 59.0667 57.933 58.613C58.6261 58.4022 59.1002 57.7637 59.1002 57.0393V53.1324C59.1002 52.7777 59.3886 52.49 59.7431 52.49H70.2561C70.6108 52.49 70.8992 52.7777 70.8992 53.1324V57.0393C70.8992 57.7639 71.3732 58.4025 72.0664 58.613C73.5606 59.0665 75.0181 59.669 76.3986 60.4053C77.0371 60.7445 77.8232 60.6262 78.3346 60.1164L81.0956 57.3567C81.3459 57.1053 81.7529 57.1045 82.0051 57.3567L89.4379 64.789C89.6895 65.0406 89.6898 65.4476 89.4387 65.6998L86.6785 68.4595C86.1666 68.9708 86.0495 69.7572 86.39 70.3955C87.1243 71.7727 87.7273 73.2309 88.1828 74.7289C88.3928 75.4213 89.0322 75.8954 89.7561 75.8954H93.6616C94.0168 75.8954 94.3053 76.1843 94.3053 76.539V87.0507H94.3058Z" fill="#00AA72"/>
<path d="M65.0038 68.7095C61.5093 68.7095 58.2235 70.0714 55.7517 72.5432C53.2799 75.015 51.918 78.3 51.918 81.7945C51.918 85.289 53.2797 88.5754 55.7517 91.0471C58.3024 93.5974 61.6532 94.873 65.0038 94.873C68.3543 94.873 71.7049 93.5971 74.2559 91.0471C76.7277 88.5754 78.0896 85.289 78.0896 81.7945C78.0896 78.3 76.7277 75.015 74.2559 72.5432C71.7841 70.0714 68.4983 68.7095 65.0038 68.7095ZM71.9303 88.7221C68.1108 92.5404 61.8965 92.5404 58.077 88.7221C56.2262 86.8709 55.2068 84.4105 55.2068 81.7948C55.2068 79.179 56.2262 76.72 58.077 74.8687C59.9282 73.0175 62.388 71.9986 65.0038 71.9986C67.6195 71.9986 70.0791 73.0175 71.9303 74.8687C73.7811 76.72 74.8005 79.179 74.8005 81.7948C74.8005 84.4105 73.7811 86.8706 71.9303 88.7221Z" fill="#00AA72"/>
</svg>
