<svg width="70" height="70" viewBox="0 0 70 70" fill="none" xmlns="http://www.w3.org/2000/svg">
<path d="M6.23828 33.1771L6.36433 31.9694C7.07445 25.422 10.0004 19.3138 14.6573 14.6571C19.3142 10.0003 25.4225 7.07449 31.9699 6.36455L33.1776 6.23779V14.2885L32.2262 14.4125C27.7126 15.0121 23.5221 17.0817 20.3025 20.3016C17.0829 23.5214 15.0136 27.712 14.4144 32.2258L14.289 33.1771H6.23828Z" fill="#00AA72"/>
<path d="M36.8223 55.7113L37.7736 55.5873C42.2874 54.988 46.478 52.9184 49.6976 49.6985C52.9172 46.4787 54.9865 42.2879 55.5855 37.7741L55.7094 36.8228H63.763L63.6363 38.0304C62.9258 44.5778 59.9996 50.6859 55.3426 55.3426C50.6856 59.9993 44.5773 62.9251 38.03 63.6353L36.8223 63.7621V55.7113Z" fill="#00AA72"/>
<path d="M54.4318 34.6355L54.1413 32.4167C53.5845 28.221 51.6609 24.3255 48.6681 21.3327C45.6752 18.3398 41.7798 16.4163 37.5841 15.8595L35.3652 15.569V4.62012L38.1836 4.91349C45.063 5.66019 51.4808 8.73484 56.3738 13.628C61.2667 18.5212 64.341 24.9391 65.0873 31.8186L65.3836 34.6355H54.4318Z" fill="#00AA72"/>
<path d="M31.8178 65.0868C24.9383 64.3403 18.5203 61.2657 13.6273 56.3725C8.73423 51.4793 5.65981 45.0613 4.91343 38.1817L4.61719 35.3647H15.5682L15.8602 37.5836C16.4167 41.7793 18.3401 45.6748 21.3328 48.6677C24.3256 51.6605 28.221 53.5841 32.4167 54.1408L34.6355 54.4313V65.3802L31.8178 65.0868Z" fill="#00AA72"/>
<path d="M51.0407 17.5C50.7854 17.4997 50.5346 17.4324 50.3135 17.3048C50.0924 17.1772 49.9086 16.9938 49.7806 16.7729C49.6526 16.5521 49.5848 16.3015 49.584 16.0462C49.5832 15.7909 49.6494 15.5399 49.776 15.3182L55.6094 5.10987C55.7369 4.88667 55.9212 4.70115 56.1435 4.5721C56.3659 4.44304 56.6184 4.37505 56.8755 4.375H64.1671C64.5539 4.375 64.9248 4.52865 65.1983 4.80214C65.4718 5.07563 65.6255 5.44656 65.6255 5.83333C65.6255 6.22011 65.4718 6.59104 65.1983 6.86453C64.9248 7.13802 64.5539 7.29167 64.1671 7.29167H57.7214L52.3082 16.7651C52.1807 16.9887 51.9963 17.1745 51.7736 17.3036C51.5509 17.4327 51.298 17.5005 51.0407 17.5Z" fill="#00AA72"/>
<path d="M64.1673 11.6667H59.7923C59.4055 11.6667 59.0346 11.513 58.7611 11.2395C58.4876 10.966 58.334 10.5951 58.334 10.2083C58.334 9.82156 58.4876 9.45063 58.7611 9.17714C59.0346 8.90365 59.4055 8.75 59.7923 8.75H64.1673C64.5541 8.75 64.925 8.90365 65.1985 9.17714C65.472 9.45063 65.6257 9.82156 65.6257 10.2083C65.6257 10.5951 65.472 10.966 65.1985 11.2395C64.925 11.513 64.5541 11.6667 64.1673 11.6667Z" fill="#00AA72"/>
<path d="M13.125 65.6249H5.83333C5.44656 65.6249 5.07563 65.4712 4.80214 65.1977C4.52865 64.9242 4.375 64.5533 4.375 64.1665C4.375 63.7798 4.52865 63.4088 4.80214 63.1353C5.07563 62.8618 5.44656 62.7082 5.83333 62.7082H12.2791L17.6923 53.2347C17.7873 53.0685 17.9141 52.9225 18.0655 52.8053C18.2169 52.688 18.3899 52.6018 18.5747 52.5514C18.7594 52.501 18.9523 52.4875 19.1422 52.5116C19.3322 52.5358 19.5155 52.5971 19.6818 52.6921C19.8481 52.7871 19.994 52.914 20.1112 53.0654C20.2285 53.2168 20.3148 53.3898 20.3651 53.5745C20.4155 53.7593 20.429 53.9521 20.4049 54.1421C20.3807 54.3321 20.3194 54.5154 20.2244 54.6817L14.3911 64.89C14.2636 65.1132 14.0793 65.2988 13.857 65.4279C13.6346 65.5569 13.3821 65.6249 13.125 65.6249Z" fill="#00AA72"/>
<path d="M10.2083 61.2502H5.83333C5.44656 61.2502 5.07563 61.0965 4.80214 60.823C4.52865 60.5495 4.375 60.1786 4.375 59.7918C4.375 59.4051 4.52865 59.0341 4.80214 58.7606C5.07563 58.4871 5.44656 58.3335 5.83333 58.3335H10.2083C10.5951 58.3335 10.966 58.4871 11.2395 58.7606C11.513 59.0341 11.6667 59.4051 11.6667 59.7918C11.6667 60.1786 11.513 60.5495 11.2395 60.823C10.966 61.0965 10.5951 61.2502 10.2083 61.2502Z" fill="#00AA72"/>
<path d="M40.4001 48.8543H29.6011C29.0227 48.854 28.4501 48.7392 27.9164 48.5165C27.3826 48.2938 26.8981 47.9677 26.4909 47.557C26.0838 47.1462 25.7619 46.6589 25.5439 46.1232C25.3259 45.5875 25.2161 45.0139 25.2208 44.4356C25.2279 43.019 25.4413 41.6111 25.8543 40.2561C26.9136 36.8884 29.1174 33.9973 32.0839 32.0835H37.9172C40.8838 33.9973 43.0876 36.8884 44.1469 40.256C44.5599 41.611 44.7732 43.019 44.7803 44.4356C44.785 45.0139 44.6752 45.5875 44.4572 46.1232C44.2393 46.6589 43.9174 47.1462 43.5102 47.557C43.103 47.9677 42.6186 48.2938 42.0848 48.5165C41.551 48.7392 40.9784 48.854 40.4001 48.8543Z" fill="#00AA72"/>
<path d="M38.6452 28.1479H31.3535C30.1454 28.1479 29.166 29.1273 29.166 30.3354C29.166 31.5436 30.1454 32.5229 31.3535 32.5229H38.6452C39.8533 32.5229 40.8327 31.5436 40.8327 30.3354C40.8327 29.1273 39.8533 28.1479 38.6452 28.1479Z" fill="#00AA72"/>
<path d="M39.6993 22.1241C39.3281 21.9646 38.9283 21.8823 38.5243 21.8823C38.1203 21.8823 37.7206 21.9646 37.3494 22.1241C36.6756 22.4442 36.1013 22.9411 35.6875 23.5618C35.2737 24.1825 35.0359 24.9038 34.9995 25.6489C34.9632 24.9038 34.7254 24.1825 34.3116 23.5618C33.8978 22.9411 33.3235 22.4443 32.6497 22.1241C32.2785 21.9646 31.8787 21.8823 31.4747 21.8823C31.0707 21.8823 30.671 21.9646 30.2998 22.1241C29.7824 22.3657 29.3665 22.7817 29.1249 23.299C28.4754 24.8262 29.8047 27.2894 32.6497 29.1667H37.3494C40.1944 27.2894 41.5236 24.8262 40.8742 23.299C40.6326 22.7817 40.2167 22.3657 39.6993 22.1241Z" fill="#00AA72"/>
</svg>
