<svg width="149" height="152" viewBox="0 0 149 152" fill="none" xmlns="http://www.w3.org/2000/svg">
<path d="M123.778 87.4163C123.778 87.4163 123.778 42.3617 123.778 42.3552C123.778 39.1732 122.471 35.8898 120.23 33.5956L91.0089 3.65602C88.7413 1.33416 85.5957 0 82.3832 0H18.5573C11.8724 0 6.43359 5.5483 6.43359 12.3681V124.542C6.43359 131.362 11.8724 136.91 18.5576 136.91H81.5549C87.542 146.003 97.7162 152 109.238 152C127.615 152 142.565 136.749 142.565 118.003C142.564 104.572 134.889 92.9352 123.778 87.4163ZM112.87 35.3109H89.3119V11.1741L112.87 35.3109ZM18.5573 130.379C15.4024 130.379 12.8356 127.76 12.8356 124.542V12.3681C12.8359 9.14969 15.4027 6.53125 18.5573 6.53125H82.3832C82.5601 6.53125 82.7353 6.54372 82.9096 6.55975V38.5765C82.9096 40.38 84.3428 41.8422 86.1108 41.8422H117.351C117.366 42.0129 117.375 42.1842 117.375 42.3552V85.0327C114.77 84.3633 112.044 84.0058 109.238 84.0058C90.8619 84.0058 75.9118 99.2569 75.9118 118.003C75.9118 122.367 76.7229 126.542 78.1981 130.379H18.5573ZM109.238 145.469C94.3925 145.469 82.3145 133.148 82.3145 118.003C82.3145 102.858 94.3925 90.5368 109.238 90.5368C124.084 90.5368 136.162 102.858 136.162 118.003C136.162 133.148 124.084 145.469 109.238 145.469Z" fill="black"/>
<path d="M65.4035 24.9238H30.3457C28.5778 24.9238 27.1445 23.4617 27.1445 21.6582C27.1445 19.8547 28.5778 18.3926 30.3457 18.3926H65.4035C67.1714 18.3926 68.6047 19.8547 68.6047 21.6582C68.6047 23.4617 67.1714 24.9238 65.4035 24.9238Z" fill="#00AA72"/>
<path d="M65.4035 43.032H30.3457C28.5778 43.032 27.1445 41.5699 27.1445 39.7664C27.1445 37.9628 28.5778 36.5007 30.3457 36.5007H65.4035C67.1714 36.5007 68.6047 37.9628 68.6047 39.7664C68.6047 41.5699 67.1714 43.032 65.4035 43.032Z" fill="#00AA72"/>
<path d="M99.8693 61.1401H30.3457C28.5778 61.1401 27.1445 59.678 27.1445 57.8745C27.1445 56.071 28.5778 54.6089 30.3457 54.6089H99.8693C101.637 54.6089 103.071 56.071 103.071 57.8745C103.071 59.678 101.638 61.1401 99.8693 61.1401Z" fill="#00AA72"/>
<path d="M82.1185 79.2481H30.3457C28.5778 79.2481 27.1445 77.7859 27.1445 75.9824C27.1445 74.1789 28.5778 72.7168 30.3457 72.7168H82.1185C83.8865 72.7168 85.3197 74.1789 85.3197 75.9824C85.3197 77.7862 83.8865 79.2481 82.1185 79.2481Z" fill="#00AA72"/>
<path d="M105.478 128.75C104.629 128.75 103.815 128.405 103.214 127.793L94.4648 118.867C93.2149 117.592 93.2149 115.524 94.4648 114.248C95.715 112.973 97.7416 112.973 98.9921 114.248L105.478 120.865L117.881 108.213C119.132 106.937 121.158 106.937 122.409 108.213C123.659 109.488 123.659 111.556 122.409 112.831L107.742 127.793C107.141 128.405 106.327 128.75 105.478 128.75Z" fill="#00AA72"/>
</svg>
