<svg width="70" height="70" viewBox="0 0 70 70" fill="none" xmlns="http://www.w3.org/2000/svg">
<path fill-rule="evenodd" clip-rule="evenodd" d="M34.8235 50.9004C25.9708 50.9004 18.7467 43.6762 18.7467 34.8235C18.7467 25.9708 25.9708 18.7467 34.8235 18.7467C43.6762 18.7467 50.9004 25.9708 50.9004 34.8235C50.9004 43.6762 43.6762 50.9004 34.8235 50.9004ZM33.6627 25.8679C33.2247 25.9453 32.7981 26.0647 32.3931 26.2241C30.3869 27.0141 28.9299 28.7401 29.0437 31.0964V31.0971C29.196 34.2118 32.0304 35.4814 34.6503 35.9128L34.6514 35.9129C35.6178 36.0711 36.6684 36.3128 37.5074 36.8188C38.1747 37.2213 38.6902 37.8123 38.8021 38.7261C38.9128 39.6459 38.4888 40.3029 37.8552 40.7396C37.0579 41.2894 35.9776 41.5381 35.0055 41.5612C33.1565 41.6047 31.2647 40.7599 30.7934 38.8674C30.6388 38.2457 30.0083 37.8667 29.3867 38.0213C28.765 38.1762 28.386 38.8065 28.5406 39.4282C29.1649 41.9355 31.2752 43.4188 33.6627 43.7912V44.9985C33.6627 45.6393 34.1829 46.1593 34.8235 46.1593C35.4641 46.1593 35.9843 45.6393 35.9843 44.9985V43.8077C38.7322 43.4318 41.4957 41.6677 41.1068 38.4471L41.1067 38.4455C40.7157 35.2426 37.7201 34.0625 35.0262 33.6218C34.2928 33.5011 33.5147 33.3139 32.8413 32.9847C32.0548 32.6 31.4126 32.0043 31.3625 30.9841C31.301 29.7053 32.1546 28.813 33.2436 28.3844C35.0444 27.6754 37.5451 28.1489 38.4861 30.3874C38.7344 30.9781 39.4154 31.256 40.006 31.0077C40.5967 30.7595 40.8745 30.0784 40.6263 29.4878C39.7184 27.3282 37.9056 26.1712 35.9843 25.8537V24.6485C35.9843 24.0078 35.4641 23.4877 34.8235 23.4877C34.1829 23.4877 33.6627 24.0078 33.6627 24.6485V25.8679ZM55.8819 34.8235H69.6471V39.5394L63.878 41.7598C63.1472 44.8341 61.9232 47.7661 60.2723 50.4609L62.7772 56.1162L56.1162 62.7772L50.4609 60.2723C47.7756 61.9328 44.8341 63.1472 41.7598 63.878L39.5394 69.6471H30.1171L27.8968 63.878C24.8129 63.1472 21.8809 61.9232 19.1862 60.2723L13.5308 62.7772L6.86981 56.1162L9.38436 50.4609C7.72386 47.7756 6.50924 44.8341 5.7691 41.7598L0 39.5394V30.1171L5.7691 27.8968C6.50924 24.8129 7.72386 21.8809 9.38436 19.1862L6.86981 13.5308L13.5308 6.86981L19.1862 9.38436C21.8809 7.72386 24.8129 6.50924 27.8873 5.77867L30.1171 0H34.8247V13.7652H34.8235C23.2271 13.7652 13.7652 23.2271 13.7652 34.8235C13.7652 46.4199 23.2271 55.8819 34.8235 55.8819C46.4199 55.8819 55.8819 46.4199 55.8819 34.8235ZM40.7686 14.6223L44.1561 6.44438C45.401 6.85574 46.6101 7.34718 47.7774 7.91234L44.3961 16.0754C43.2439 15.4837 42.0305 14.9952 40.7686 14.6223ZM62.882 24.5715L54.7265 27.9497C54.2952 26.7073 53.7505 25.5174 53.105 24.3918L61.2956 20.9992C61.8991 22.1483 62.43 23.3412 62.882 24.5715ZM47.8453 18.2945L54.1056 12.0343C55.1004 12.8776 56.0395 13.7847 56.9167 14.7491L50.6769 20.9889C49.8182 20.0064 48.87 19.104 47.8453 18.2945Z" fill="#00AA72"/>
</svg>
