<svg width="49" height="49" viewBox="0 0 49 49" fill="none" xmlns="http://www.w3.org/2000/svg">
<path d="M15.625 26.875C15.625 17.925 22.925 10.625 31.875 10.625C34.325 10.625 36.65 11.175 38.75 12.175V6.875C38.75 3.075 35.675 0 31.875 0H6.875C3.075 0 0 3.075 0 6.875V41.875C0 45.675 3.075 48.75 6.875 48.75H31.875C35.675 48.75 38.75 45.675 38.75 41.875V41.575C36.65 42.575 34.325 43.125 31.875 43.125C22.925 43.125 15.625 35.825 15.625 26.875ZM9.375 7.5H21.875C22.9 7.5 23.75 8.35 23.75 9.375C23.75 10.4 22.9 11.25 21.875 11.25H9.375C8.35 11.25 7.5 10.4 7.5 9.375C7.5 8.35 8.35 7.5 9.375 7.5ZM11.875 26.25H9.375C8.35 26.25 7.5 25.4 7.5 24.375C7.5 23.35 8.35 22.5 9.375 22.5H11.875C12.9 22.5 13.75 23.35 13.75 24.375C13.75 25.4 12.9 26.25 11.875 26.25ZM9.375 18.75C8.35 18.75 7.5 17.9 7.5 16.875C7.5 15.85 8.35 15 9.375 15H14.375C15.4 15 16.25 15.85 16.25 16.875C16.25 17.9 15.4 18.75 14.375 18.75H9.375ZM48.2 38.05L42.865 32.715C43.7975 30.965 44.375 28.9975 44.375 26.8775C44.375 19.975 38.7775 14.3775 31.875 14.3775C24.9725 14.3775 19.375 19.975 19.375 26.8775C19.375 33.78 24.9725 39.3775 31.875 39.3775C35.2875 39.3775 38.375 38.0025 40.63 35.785L45.5475 40.7025C45.9125 41.0675 46.3925 41.2525 46.8725 41.2525C47.3525 41.2525 47.8325 41.07 48.1975 40.7025C48.93 39.97 48.93 38.7825 48.1975 38.05H48.2ZM38.0025 25.8725L31.335 30.895C31 31.1475 30.6025 31.2725 30.205 31.2725C29.805 31.2725 29.4075 31.145 29.0725 30.8925L25.74 28.3675C24.9125 27.7425 24.75 26.5675 25.375 25.7425C26.0025 24.9175 27.18 24.755 28.0025 25.3775L30.2075 27.045L35.7425 22.875C36.57 22.2525 37.745 22.4175 38.37 23.2425C38.9925 24.07 38.8275 25.245 38.0025 25.87V25.8725Z" fill="#00AA72"/>
</svg>
