<svg width="57" height="68" viewBox="0 0 57 68" fill="none" xmlns="http://www.w3.org/2000/svg">
<path d="M48.875 0H7.79167C3.4935 0 0 3.4935 0 7.79167V60.2083C0 64.5065 3.4935 68 7.79167 68H48.875C53.1732 68 56.6667 64.5065 56.6667 60.2083V7.79167C56.6667 3.4935 53.1732 0 48.875 0ZM22.0433 53.04C22.8735 53.8702 22.8735 55.216 22.0433 56.0462C21.6297 56.4598 21.0857 56.6667 20.5417 56.6667C19.9977 56.6667 19.4537 56.4598 19.04 56.0433L17 54.0062L14.96 56.0462C14.5463 56.4598 14.0023 56.6667 13.4583 56.6667C12.9143 56.6667 12.3703 56.4598 11.9567 56.0433C11.1265 55.2132 11.1265 53.8673 11.9567 53.0372L13.9938 51L11.9538 48.96C11.1237 48.1298 11.1237 46.784 11.9538 45.9538C12.784 45.1237 14.1298 45.1237 14.96 45.9538L17 47.9938L19.04 45.9538C19.8702 45.1237 21.216 45.1237 22.0462 45.9538C22.8763 46.784 22.8763 48.1298 22.0462 48.96L20.0062 51L22.0433 53.04ZM20.5417 36.125H19.125V37.5417C19.125 38.7147 18.173 39.6667 17 39.6667C15.827 39.6667 14.875 38.7147 14.875 37.5417V36.125H13.4583C12.2853 36.125 11.3333 35.173 11.3333 34C11.3333 32.827 12.2853 31.875 13.4583 31.875H14.875V30.4583C14.875 29.2853 15.827 28.3333 17 28.3333C18.173 28.3333 19.125 29.2853 19.125 30.4583V31.875H20.5417C21.7147 31.875 22.6667 32.827 22.6667 34C22.6667 35.173 21.7147 36.125 20.5417 36.125ZM43.2083 56.6667H36.125C34.952 56.6667 34 55.7147 34 54.5417C34 53.3687 34.952 52.4167 36.125 52.4167H43.2083C44.3813 52.4167 45.3333 53.3687 45.3333 54.5417C45.3333 55.7147 44.3813 56.6667 43.2083 56.6667ZM43.2083 49.5833H36.125C34.952 49.5833 34 48.6313 34 47.4583C34 46.2853 34.952 45.3333 36.125 45.3333H43.2083C44.3813 45.3333 45.3333 46.2853 45.3333 47.4583C45.3333 48.6313 44.3813 49.5833 43.2083 49.5833ZM43.2083 36.8333H36.125C34.952 36.8333 34 35.8813 34 34.7083C34 33.5353 34.952 32.5833 36.125 32.5833H43.2083C44.3813 32.5833 45.3333 33.5353 45.3333 34.7083C45.3333 35.8813 44.3813 36.8333 43.2083 36.8333ZM48.1667 17.7083C48.1667 20.4425 45.9425 22.6667 43.2083 22.6667H13.4583C10.7242 22.6667 8.5 20.4425 8.5 17.7083V13.4583C8.5 10.7242 10.7242 8.5 13.4583 8.5H43.2083C45.9425 8.5 48.1667 10.7242 48.1667 13.4583V17.7083Z" fill="#00AA72"/>
</svg>
