<svg width="145" height="146" viewBox="0 0 145 146" fill="none" xmlns="http://www.w3.org/2000/svg">
<path d="M113.496 54.0288V64.2003H31.5V54.0288H25.2695V67.3371C25.2695 69.0694 26.6643 70.4738 28.3848 70.4738H69.3829V77.5077H67.0273C65.5727 77.5077 64.3119 78.5212 63.9893 79.9492L63.2706 83.1336C61.7781 83.6212 60.3261 84.2274 58.926 84.9475L56.1797 83.2063C54.9484 82.4258 53.3452 82.6069 52.3168 83.6426L44.5797 91.4333C43.5511 92.469 43.3713 94.0833 44.1464 95.3226L45.8754 98.088C45.1603 99.4978 44.5582 100.96 44.0739 102.463L40.9114 103.186C39.4928 103.511 38.4863 104.781 38.4863 106.245V117.263C38.4863 118.728 39.4928 119.997 40.9114 120.322L44.0739 121.046C44.5582 122.548 45.1603 124.01 45.8754 125.42L44.1464 128.185C43.3716 129.425 43.5511 131.039 44.5797 132.075L52.3168 139.865C53.3454 140.901 54.9487 141.082 56.1797 140.302L58.926 138.561C60.3258 139.281 61.7781 139.887 63.2706 140.375L63.9893 143.559C64.3119 144.987 65.5727 146.001 67.0273 146.001H77.9694C79.4239 146.001 80.6847 144.987 81.0073 143.559L81.7261 140.375C83.2186 139.887 84.6705 139.281 86.0707 138.561L88.8169 140.302C90.048 141.082 91.6512 140.901 92.6798 139.865L100.417 132.075C101.446 131.039 101.625 129.425 100.85 128.185L99.1213 125.42C99.8363 124.01 100.438 122.548 100.923 121.046L104.085 120.322C105.504 119.997 106.51 118.728 106.51 117.263V106.245C106.51 104.781 105.504 103.511 104.085 103.186L100.923 102.463C100.438 100.96 99.8363 99.4981 99.1213 98.088L100.85 95.3226C101.625 94.0833 101.446 92.469 100.417 91.4333L92.6798 83.6426C91.6515 82.6075 90.0486 82.4255 88.8169 83.2063L86.0707 84.9475C84.6708 84.2274 83.2186 83.6212 81.7261 83.1336L81.0073 79.9492C80.6847 78.5212 79.4239 77.5077 77.9694 77.5077H75.6134V70.4738H116.611C118.331 70.4738 119.726 69.0694 119.726 67.3371V54.0288H113.496ZM78.3296 88.6722C80.5242 89.2325 82.6275 90.1105 84.5808 91.2822C85.587 91.8856 86.8436 91.8702 87.835 91.2417L90.0321 89.8487L94.2527 94.0984L92.8693 96.3106C92.2454 97.3084 92.2298 98.5742 92.829 99.5871C93.993 101.555 94.865 103.672 95.4209 105.881C95.7087 107.024 96.6084 107.908 97.7505 108.169L100.279 108.748V114.758L97.7505 115.337C96.6087 115.598 95.7087 116.482 95.4209 117.625C94.865 119.834 93.9927 121.951 92.829 123.919C92.2298 124.931 92.2451 126.197 92.8693 127.195L94.2527 129.408L90.0321 133.657L87.835 132.264C86.8438 131.636 85.5867 131.621 84.5808 132.224C82.6275 133.396 80.5242 134.274 78.3296 134.834C77.1945 135.124 76.3172 136.03 76.0575 137.18L75.4826 139.727H69.5138L68.9392 137.181C68.6795 136.031 67.8018 135.125 66.667 134.835C64.4725 134.275 62.3691 133.397 60.4159 132.225C59.4097 131.622 58.1531 131.637 57.1616 132.265L54.9645 133.658L50.7439 129.409L52.1274 127.196C52.7513 126.198 52.7669 124.933 52.1676 123.92C51.0039 121.952 50.1316 119.835 49.5757 117.626C49.288 116.483 48.3883 115.599 47.2461 115.338L44.7174 114.759V108.749L47.2461 108.171C48.388 107.909 49.288 107.025 49.5757 105.882C50.1316 103.673 51.0036 101.556 52.1676 99.5882C52.7669 98.5753 52.7516 97.3095 52.1274 96.3118L50.7439 94.0995L54.9645 89.8499L57.1616 91.2428C58.1528 91.871 59.4097 91.8864 60.4159 91.2833C62.3691 90.1116 64.4725 89.2336 66.667 88.6733C67.8021 88.3836 68.6795 87.4776 68.9392 86.3279L69.5138 83.782H75.4826L76.0572 86.3279C76.3169 87.4765 77.1945 88.3824 78.3296 88.6722Z" fill="black"/>
<path d="M59.332 111.754C59.332 119.064 65.2382 125.011 72.4984 125.011C79.7586 125.011 85.6648 119.064 85.6648 111.754C85.6648 104.444 79.7586 98.4966 72.4984 98.4966C65.2382 98.4966 59.332 104.444 59.332 111.754ZM79.4344 111.754C79.4344 115.605 76.3231 118.738 72.4984 118.738C68.6738 118.738 65.5625 115.605 65.5625 111.754C65.5625 107.903 68.6738 104.77 72.4984 104.77C76.3231 104.77 79.4344 107.903 79.4344 111.754Z" fill="black"/>
<path d="M116.613 0C100.961 0 88.2266 12.8221 88.2266 28.5826C88.2266 44.3432 100.961 57.1653 116.613 57.1653C132.266 57.1653 145 44.3432 145 28.5826C145 12.8221 132.266 0 116.613 0ZM116.613 50.8921C104.396 50.8921 94.457 40.8843 94.457 28.5829C94.457 16.2816 104.396 6.27344 116.613 6.27344C128.831 6.27344 138.77 16.2813 138.77 28.5826C138.77 40.884 128.83 50.8921 116.613 50.8921Z" fill="#00AA72"/>
<path d="M127.002 18.1226C125.786 16.8979 123.813 16.8976 122.597 18.1226L116.614 24.1468L110.631 18.1226C109.414 16.8976 107.442 16.8976 106.225 18.1226C105.008 19.3477 105.008 21.3338 106.225 22.5588L112.208 28.583L106.225 34.6072C105.008 35.8323 105.008 37.8184 106.225 39.0434C106.833 39.6559 107.631 39.9622 108.428 39.9622C109.225 39.9622 110.022 39.6559 110.63 39.0434L116.613 33.0192L122.596 39.0434C123.205 39.6559 124.002 39.9622 124.799 39.9622C125.596 39.9622 126.394 39.6559 127.002 39.0434C128.219 37.8184 128.219 35.8323 127.002 34.6072L121.019 28.583L127.002 22.5588C128.219 21.3338 128.219 19.3477 127.002 18.1226Z" fill="#00AA72"/>
<path d="M28.3869 0C12.7345 0 0 12.8221 0 28.5826C0 44.3432 12.7345 57.1653 28.3869 57.1653C44.0392 57.1653 56.7737 44.3432 56.7737 28.5826C56.7737 12.8221 44.0395 0 28.3869 0ZM28.3869 50.8921C16.17 50.8921 6.23047 40.8843 6.23047 28.5826C6.23047 16.281 16.17 6.27344 28.3869 6.27344C40.6037 6.27344 50.5433 16.2813 50.5433 28.5826C50.5433 40.884 40.604 50.8921 28.3869 50.8921Z" fill="#00AA72"/>
<path d="M36.2709 20.1551L26.1396 30.3563L20.5019 24.6797C19.2849 23.4546 17.313 23.4546 16.0961 24.6797C14.8794 25.9047 14.8794 27.8908 16.0961 29.1158L23.9368 37.0107C24.5452 37.6232 25.3424 37.9295 26.1396 37.9295C26.9365 37.9295 27.7343 37.6232 28.3423 37.0107L40.6767 24.5916C41.8933 23.3665 41.8933 21.3804 40.6767 20.1554C39.46 18.9304 37.4875 18.9304 36.2709 20.1551Z" fill="#00AA72"/>
</svg>
