<svg width="149" height="150" viewBox="0 0 149 150" fill="none" xmlns="http://www.w3.org/2000/svg">
<path d="M81.0469 109.863H67.9512C66.1833 109.863 64.75 111.306 64.75 113.086V126.269C64.75 128.049 66.1833 129.492 67.9512 129.492H81.0469C82.8148 129.492 84.248 128.049 84.248 126.269V113.086C84.248 111.306 82.8148 109.863 81.0469 109.863ZM77.8457 123.047H71.1523V116.308H77.8457V123.047Z" fill="#00AA72"/>
<path d="M72.2342 80.2082C72.8346 80.8123 73.6489 81.1521 74.4978 81.1521C75.3466 81.1521 76.1609 80.8126 76.7613 80.2082L82.5816 74.3488C83.8318 73.0902 83.8318 71.0497 82.5816 69.7911C81.3311 68.5328 79.3042 68.5328 78.0543 69.7911L77.6989 70.1488V51.5623C77.6989 49.7825 76.2654 48.3396 74.4978 48.3396C72.7298 48.3396 71.2966 49.7825 71.2966 51.5623V70.1491L70.9413 69.7914C69.6911 68.5331 67.6641 68.5331 66.4142 69.7914C65.164 71.05 65.164 73.0905 66.4142 74.3491L72.2342 80.2082Z" fill="#00AA72"/>
<path d="M136.338 48.3396C134.57 48.3396 133.137 49.7825 133.137 51.5623V116.455H123.696L124.051 116.097C125.301 114.839 125.301 112.798 124.051 111.539C122.801 110.281 120.774 110.281 119.524 111.539L113.703 117.398C113.103 118.003 112.766 118.822 112.766 119.677C112.766 120.532 113.103 121.352 113.703 121.956L119.524 127.815C120.149 128.444 120.968 128.759 121.787 128.759C122.606 128.759 123.426 128.445 124.051 127.815C125.301 126.557 125.301 124.516 124.051 123.258L123.695 122.9H136.338C138.106 122.9 139.539 121.457 139.539 119.677V51.5617C139.539 49.7825 138.106 48.3396 136.338 48.3396Z" fill="#00AA72"/>
<path d="M29.4725 111.54C28.2223 110.281 26.1954 110.281 24.9452 111.54C23.6953 112.798 23.6953 114.839 24.9452 116.097L25.3008 116.455H15.8594V51.5623C15.8594 49.7825 14.4261 48.3396 12.6582 48.3396C10.8903 48.3396 9.45703 49.7825 9.45703 51.5623V119.678C9.45703 121.458 10.8903 122.9 12.6582 122.9H25.3005L24.9452 123.258C23.695 124.517 23.695 126.557 24.9452 127.816C25.5703 128.445 26.3895 128.76 27.2087 128.76C28.0279 128.76 28.8471 128.445 29.4722 127.816L35.2925 121.957C35.8929 121.353 36.2302 120.533 36.2302 119.678C36.2302 118.823 35.8929 118.004 35.2925 117.399L29.4725 111.54Z" fill="#00AA72"/>
<path d="M101.418 109.717C103.186 109.717 104.619 108.274 104.619 106.494C104.619 104.714 103.186 103.272 101.418 103.272H97.3438V99.9021C97.3438 98.1223 95.9105 96.6794 94.1426 96.6794H90.7956V92.5779C90.7956 90.7981 89.3624 89.3552 87.5944 89.3552C85.8265 89.3552 84.3933 90.7981 84.3933 92.5779V96.6794H77.7002V92.5779C77.7002 90.7981 76.2667 89.3552 74.499 89.3552C72.7311 89.3552 71.2979 90.7981 71.2979 92.5779V96.6794H64.6045V92.5779C64.6045 90.7981 63.1712 89.3552 61.4033 89.3552C59.6354 89.3552 58.2021 90.7981 58.2021 92.5779V96.6794H54.8555C53.0875 96.6794 51.6543 98.1223 51.6543 99.9021V103.272H47.5801C45.8122 103.272 44.3789 104.714 44.3789 106.494C44.3789 108.274 45.8122 109.717 47.5801 109.717H51.6543V116.455H47.5801C45.8122 116.455 44.3789 117.898 44.3789 119.678C44.3789 121.458 45.8122 122.9 47.5801 122.9H51.6543V129.638H47.5801C45.8122 129.638 44.3789 131.081 44.3789 132.861C44.3789 134.641 45.8122 136.084 47.5801 136.084H51.6543V139.453C51.6543 141.233 53.0875 142.676 54.8555 142.676H58.2021V146.777C58.2021 148.557 59.6354 150 61.4033 150C63.1712 150 64.6045 148.557 64.6045 146.777V142.676H71.2979V146.777C71.2979 148.557 72.7311 150 74.499 150C76.2669 150 77.7002 148.557 77.7002 146.777V142.676H84.3933V146.777C84.3933 148.557 85.8265 150 87.5944 150C89.3624 150 90.7956 148.557 90.7956 146.777V142.676H94.1426C95.9105 142.676 97.3438 141.233 97.3438 139.453V136.084H101.418C103.186 136.084 104.619 134.641 104.619 132.861C104.619 131.081 103.186 129.638 101.418 129.638H97.3438V122.9H101.418C103.186 122.9 104.619 121.457 104.619 119.677C104.619 117.898 103.186 116.455 101.418 116.455H97.3438V109.717H101.418ZM90.9414 136.23H58.0566V103.125H90.9414V136.23Z" fill="black"/>
<path d="M23.6535 0.943945C23.0531 0.339551 22.2388 0 21.3899 0H3.20117C1.43325 0 0 1.44287 0 3.22266V50.0974C0 51.8771 1.43325 53.32 3.20117 53.32H39.5781C41.346 53.32 42.7793 51.8771 42.7793 50.0974V21.5329C42.7793 20.6783 42.442 19.8586 41.8416 19.2542L23.6535 0.943945ZM24.5911 11.0027L31.8499 18.3103H24.5911V11.0027ZM6.40234 46.8747V6.44531H18.1885V21.5329C18.1885 23.3127 19.6217 24.7556 21.3896 24.7556H36.377V46.8747H6.40234Z" fill="black"/>
<path d="M56.3103 53.32H92.6872C94.4551 53.32 95.8884 51.8771 95.8884 50.0974V21.5329C95.8884 20.6783 95.5511 19.8586 94.9507 19.2542L76.7625 0.943945C76.1622 0.339551 75.3479 0 74.499 0H56.3105C54.5426 0 53.1094 1.44287 53.1094 3.22266V50.0974C53.1091 51.8771 54.5423 53.32 56.3103 53.32ZM77.7002 11.0027L84.959 18.3103H77.7002V11.0027ZM59.5114 6.44531H71.2976V21.5329C71.2976 23.3127 72.7308 24.7556 74.4987 24.7556H89.486V46.8747H59.5114V6.44531Z" fill="black"/>
<path d="M148.06 19.2542L129.872 0.943945C129.272 0.339551 128.458 0 127.609 0H109.42C107.652 0 106.219 1.44287 106.219 3.22266V50.0974C106.219 51.8771 107.652 53.32 109.42 53.32H145.797C147.565 53.32 148.998 51.8771 148.998 50.0974V21.5329C148.998 20.6783 148.661 19.8586 148.06 19.2542ZM130.81 11.003L138.068 18.3103H130.81V11.003ZM112.621 46.8747V6.44531H124.408V21.5329C124.408 23.3127 125.841 24.7556 127.609 24.7556H142.596V46.8747H112.621Z" fill="black"/>
</svg>
