<svg width="38" height="38" viewBox="0 0 38 38" fill="none" xmlns="http://www.w3.org/2000/svg">
<g clip-path="url(#clip0_11725_4272)">
<path d="M5.81314 4.48438C5.81211 4.48438 5.81096 4.48438 5.80994 4.48438C5.45054 4.48438 5.1125 4.62448 4.85725 4.87909C4.59918 5.13652 4.45703 5.47929 4.45703 5.84419V26.2344C4.45703 26.9821 5.06772 27.5919 5.81851 27.5938C8.98365 27.6014 14.2865 28.2611 17.9448 32.0894V10.7504C17.9448 10.497 17.88 10.2589 17.7578 10.0618C14.7553 5.22646 8.98544 4.4918 5.81314 4.48438Z" fill="#00AA72"/>
<path d="M33.5443 26.2345V5.84419C33.5443 5.47929 33.4021 5.13652 33.144 4.87909C32.8888 4.62448 32.5505 4.48438 32.1915 4.48438C32.1903 4.48438 32.1892 4.48438 32.1881 4.48438C29.016 4.49192 23.2461 5.22659 20.2434 10.0619C20.1213 10.259 20.0566 10.4971 20.0566 10.7506V32.0894C23.7149 28.2611 29.0178 27.6014 32.1829 27.5938C32.9336 27.5919 33.5443 26.9821 33.5443 26.2345Z" fill="#00AA72"/>
<path d="M36.6413 9.18701H35.6554V26.2347C35.6554 28.1438 34.0999 29.7006 32.1879 29.7053C29.5032 29.7117 25.0765 30.2367 21.9414 33.2039C27.3635 31.8763 33.0794 32.7393 36.3369 33.4816C36.7437 33.5743 37.164 33.4786 37.4899 33.2188C37.8146 32.9597 38.0009 32.5724 38.0009 32.1567V10.5466C38.001 9.79693 37.391 9.18701 36.6413 9.18701Z" fill="#00AA72"/>
<path d="M2.34552 26.2347V9.18701H1.35956C0.610049 9.18701 0 9.79693 0 10.5466V32.1564C0 32.5722 0.18629 32.9594 0.511019 33.2184C0.836643 33.4781 1.25656 33.5741 1.66395 33.4812C4.92146 32.7388 10.6375 31.8759 16.0593 33.2035C12.9244 30.2364 8.4977 29.7116 5.813 29.7052C3.90109 29.7006 2.34552 28.1438 2.34552 26.2347Z" fill="#00AA72"/>
</g>
<defs>
<clipPath id="clip0_11725_4272">
<rect width="38" height="38" fill="white"/>
</clipPath>
</defs>
</svg>
