<svg width="55" height="55" viewBox="0 0 55 55" fill="none" xmlns="http://www.w3.org/2000/svg">
<g clip-path="url(#clip0_10922_4262)">
<path d="M19.5508 21.7735C19.5508 22.3258 19.9985 22.7735 20.5508 22.7735H25.8606C26.7515 22.7735 27.1977 21.6963 26.5678 21.0664L21.2579 15.7565C20.6279 15.1265 19.5508 15.5726 19.5508 16.4636V21.7735Z" fill="#00AA72"/>
<path d="M48.6619 16.3282C46.8228 16.3282 45.3319 14.8373 45.3319 12.9981V11.2146C45.3319 10.3605 46.0243 9.66807 46.8784 9.66807C49.5195 9.66807 51.7164 7.54983 51.7759 4.94604C51.8061 3.61218 51.3037 2.35847 50.3612 1.41585C49.4186 0.47333 48.1647 -0.0304766 46.8312 0.00142761C44.2276 0.0608317 42.1092 2.25782 42.1092 4.89888C42.1092 5.75301 41.4168 6.44543 40.5627 6.44543H8.05661C5.39116 6.44543 3.22264 8.61394 3.22264 11.2794V11.4942C3.22264 12.3841 2.50123 13.1056 1.61132 13.1056C0.721413 13.1056 0 13.827 0 14.7169V47.7773C0 49.9864 1.79086 51.7773 4 51.7773H25.2186C27.4278 51.7773 29.2186 49.9864 29.2186 47.7773V29.9961C29.2186 27.787 27.4278 25.9961 25.2186 25.9961H20.3281C18.1189 25.9961 16.3281 24.2053 16.3281 21.9961V17.1056C16.3281 14.8964 14.5372 13.1056 12.3281 13.1056H8.27145C7.26289 13.1056 6.44529 12.288 6.44529 11.2794C6.44529 10.3909 7.16813 9.66807 8.05661 9.66807H38.7791C40.6183 9.66807 42.1092 11.159 42.1092 12.9981C42.1092 14.8373 40.6183 16.3282 38.7791 16.3282H36.4413C34.2321 16.3282 32.4413 18.1191 32.4413 20.3282V50.9999C32.4413 53.2091 34.2321 54.9999 36.4413 54.9999H50.9998C53.2089 54.9999 54.9998 53.2091 54.9998 50.9999V20.3282C54.9998 18.1191 53.2089 16.3282 50.9998 16.3282H48.6619ZM45.3319 4.89877C45.3319 4.89877 45.3319 4.89875 45.3319 4.89872C45.3319 3.99458 46.0374 3.24287 46.9047 3.2231C47.3519 3.21408 47.7685 3.38048 48.0826 3.69458C48.3968 4.00878 48.5643 4.42719 48.5542 4.87245C48.5343 5.73967 47.7827 6.44532 46.8785 6.44532H46.1052C45.6782 6.44532 45.332 6.09911 45.332 5.67204V4.89883C45.332 4.8988 45.3319 4.89877 45.3319 4.89877ZM21.162 42.1093C22.0519 42.1093 22.7733 42.8308 22.7733 43.7207C22.7733 44.6106 22.0519 45.332 21.162 45.332H8.05661C7.1667 45.332 6.44529 44.6106 6.44529 43.7207C6.44529 42.8308 7.1667 42.1093 8.05661 42.1093H21.162ZM8.05661 38.8867C7.1667 38.8867 6.44529 38.1653 6.44529 37.2754C6.44529 36.3855 7.1667 35.6641 8.05661 35.6641C8.94652 35.6641 9.66793 36.3855 9.66793 37.2754C9.66793 38.1653 8.94652 38.8867 8.05661 38.8867ZM14.5019 38.8867C13.612 38.8867 12.8906 38.1653 12.8906 37.2754C12.8906 36.3855 13.612 35.6641 14.5019 35.6641H21.162C22.0519 35.6641 22.7733 36.3855 22.7733 37.2754C22.7733 38.1653 22.0519 38.8867 21.162 38.8867H14.5019ZM21.162 29.2188C22.0519 29.2188 22.7733 29.9402 22.7733 30.8301C22.7733 31.72 22.0519 32.4414 21.162 32.4414H8.05661C7.1667 32.4414 6.44529 31.72 6.44529 30.8301C6.44529 29.9402 7.1667 29.2188 8.05661 29.2188H21.162ZM8.05661 25.9961C7.1667 25.9961 6.44529 25.2747 6.44529 24.3848C6.44529 23.4949 7.1667 22.7735 8.05661 22.7735H11.4941C12.384 22.7735 13.1054 23.4949 13.1054 24.3848C13.1054 25.2747 12.384 25.9961 11.4941 25.9961H8.05661ZM46.9432 29.2188C47.8331 29.2188 48.5545 29.9402 48.5545 30.8301C48.5545 31.72 47.8331 32.4414 46.9432 32.4414C46.0533 32.4414 45.3319 33.1628 45.3319 34.0527V40.498C45.3319 41.3879 44.6104 42.1093 43.7205 42.1093C42.8306 42.1093 42.1092 41.3879 42.1092 40.498V34.0527C42.1092 33.1628 41.3878 32.4414 40.4979 32.4414C39.608 32.4414 38.8866 31.72 38.8866 30.8301C38.8866 29.9402 39.608 29.2188 40.4979 29.2188H46.9432ZM43.7205 22.7735C42.8306 22.7735 42.1092 22.0521 42.1092 21.1622C42.1092 20.2723 42.8306 19.5508 43.7205 19.5508C44.6104 19.5508 45.3319 20.2723 45.3319 21.1622C45.3319 22.0521 44.6104 22.7735 43.7205 22.7735ZM45.3319 48.5546C46.2218 48.5546 46.9432 49.2761 46.9432 50.166C46.9432 51.0559 46.2218 51.7773 45.3319 51.7773H42.1092C41.2193 51.7773 40.4979 51.0559 40.4979 50.166C40.4979 49.2761 41.2193 48.5546 42.1092 48.5546H45.3319Z" fill="#00AA72"/>
</g>
<defs>
<clipPath id="clip0_10922_4262">
<rect width="55" height="55" fill="white"/>
</clipPath>
</defs>
</svg>
