<svg width="30" height="30" viewBox="0 0 30 30" fill="none" xmlns="http://www.w3.org/2000/svg">
<path fill-rule="evenodd" clip-rule="evenodd" d="M19.3488 28.4375H5C4.08875 28.4375 3.21375 28.075 2.56875 27.4312C1.925 26.7862 1.5625 25.9112 1.5625 25V5C1.5625 4.08875 1.925 3.21375 2.56875 2.56875C3.21375 1.925 4.08875 1.5625 5 1.5625H15.7325C16.3125 1.5625 16.8687 1.7925 17.2787 2.20375L22.7962 7.72125C23.2075 8.13125 23.4375 8.6875 23.4375 9.2675V14.4562C22.5788 14.33 21.705 14.3512 20.8525 14.5187C20.1337 14.6587 19.5338 15.15 19.2525 15.8263L19.04 16.3387C18.76 16.3025 18.4888 16.2675 18.4888 16.2675C17.7625 16.1725 17.0375 16.4462 16.5562 16.9987C15.905 17.7463 15.4038 18.6125 15.0825 19.5513C14.845 20.2437 14.97 21.0087 15.415 21.59L15.7537 22.0312C15.5825 22.255 15.415 22.4725 15.415 22.4725C14.97 23.0538 14.845 23.8187 15.0825 24.5112C15.4038 25.45 15.905 26.3162 16.5562 27.0637C17.0375 27.6162 17.7625 27.89 18.4888 27.795L19.04 27.7238C19.1475 27.9838 19.2525 28.2363 19.2525 28.2363C19.2812 28.305 19.3137 28.3725 19.3488 28.4375ZM6.875 18.4375H12.5C13.0175 18.4375 13.4375 18.0175 13.4375 17.5C13.4375 16.9825 13.0175 16.5625 12.5 16.5625H6.875C6.3575 16.5625 5.9375 16.9825 5.9375 17.5C5.9375 18.0175 6.3575 18.4375 6.875 18.4375ZM15.625 3.75V8.125C15.625 8.815 16.185 9.375 16.875 9.375H21.25L15.625 3.75ZM6.875 14.0625H16.875C17.3925 14.0625 17.8125 13.6425 17.8125 13.125C17.8125 12.6075 17.3925 12.1875 16.875 12.1875H6.875C6.3575 12.1875 5.9375 12.6075 5.9375 13.125C5.9375 13.6425 6.3575 14.0625 6.875 14.0625ZM6.875 22.8125H12.5C13.0175 22.8125 13.4375 22.3925 13.4375 21.875C13.4375 21.3575 13.0175 20.9375 12.5 20.9375H6.875C6.3575 20.9375 5.9375 21.3575 5.9375 21.875C5.9375 22.3925 6.3575 22.8125 6.875 22.8125Z" fill="white"/>
<path fill-rule="evenodd" clip-rule="evenodd" d="M24.2451 16.305C24.2451 16.305 24.6889 17.3738 24.6876 17.3738C24.8564 17.4588 25.0201 17.5538 25.1789 17.6563L26.3264 17.5063C26.6364 17.4663 26.9476 17.5837 27.1539 17.82C27.6989 18.445 28.1176 19.1713 28.3876 19.9563C28.4889 20.2525 28.4351 20.5813 28.2439 20.83C28.2439 20.83 27.5414 21.7488 27.5414 21.7475C27.5514 21.9363 27.5514 22.1263 27.5414 22.3138L28.2439 23.2325C28.4351 23.4813 28.4889 23.81 28.3876 24.1063C28.1176 24.8913 27.6989 25.6175 27.1539 26.2425C26.9476 26.4787 26.6364 26.5963 26.3264 26.5563C26.3264 26.5563 25.1789 26.4063 25.1801 26.405C25.0214 26.5088 24.8564 26.6038 24.6889 26.6887L24.2451 27.7575C24.1251 28.0475 23.8676 28.2575 23.5601 28.3175C22.7451 28.4775 21.9076 28.4775 21.0926 28.3175C20.7851 28.2575 20.5276 28.0475 20.4076 27.7575C20.4076 27.7575 19.9639 26.6887 19.9651 26.6887C19.7964 26.6038 19.6314 26.5087 19.4739 26.4062L18.3264 26.5563C18.0151 26.5963 17.7051 26.4787 17.4989 26.2425C16.9526 25.6175 16.5339 24.8913 16.2651 24.1063C16.1639 23.81 16.2176 23.4813 16.4076 23.2325C16.4076 23.2325 17.1114 22.3137 17.1114 22.315C17.1014 22.1262 17.1014 21.9363 17.1114 21.7488L16.4076 20.83C16.2176 20.5813 16.1639 20.2525 16.2651 19.9563C16.5339 19.1713 16.9526 18.445 17.4989 17.82C17.7051 17.5837 18.0151 17.4663 18.3264 17.5063C18.3264 17.5063 19.4739 17.6563 19.4726 17.6575C19.6314 17.5538 19.7951 17.4588 19.9639 17.3738L20.4076 16.305C20.5276 16.015 20.7851 15.805 21.0926 15.745C21.9076 15.585 22.7451 15.585 23.5601 15.745C23.8676 15.805 24.1251 16.015 24.2451 16.305ZM22.3264 20.1563C21.2914 20.1563 20.4514 20.9963 20.4514 22.0313C20.4514 23.0663 21.2914 23.9063 22.3264 23.9063C23.3614 23.9063 24.2014 23.0663 24.2014 22.0313C24.2014 20.9963 23.3614 20.1563 22.3264 20.1563Z" fill="white"/>
</svg>
