<svg width="34" height="34" viewBox="0 0 34 34" fill="none" xmlns="http://www.w3.org/2000/svg">
<path d="M22.666 25.1472C22.666 27.4125 21.1757 29.3363 19.1244 29.9894V30.9372C19.1244 32.1116 18.1724 33.0622 16.9994 33.0622C15.8264 33.0622 14.8744 32.1116 14.8744 30.9372V30.1183C13.52 29.8265 12.3258 28.9751 11.6175 27.7525C11.031 26.7367 11.378 25.4362 12.3938 24.8497C13.4081 24.2618 14.7086 24.6089 15.298 25.6247C15.4269 25.8471 15.6564 25.9788 15.9128 25.9788H17.5859C18.0435 25.9788 18.4175 25.6062 18.4175 25.1472C18.4175 24.8044 18.212 24.5012 17.8947 24.3752L14.5287 23.0293C12.5879 22.253 11.3341 20.4014 11.3341 18.3104C11.3341 16.0452 12.8245 14.1213 14.8758 13.4682V12.5205C14.8758 11.3461 15.8278 10.3955 17.0008 10.3955C18.1738 10.3955 19.1258 11.3461 19.1258 12.5205V13.3408C20.4787 13.6326 21.6744 14.484 22.3827 15.7066C22.9692 16.7223 22.6221 18.0228 21.6064 18.6093C20.592 19.1973 19.2901 18.8502 18.7022 17.8344C18.5733 17.612 18.3438 17.4788 18.0874 17.4788H16.4143C15.9567 17.4788 15.5827 17.8514 15.5827 18.3104C15.5827 18.6532 15.7881 18.9564 16.1055 19.0825L19.4715 20.4283C21.4123 21.2047 22.666 23.0562 22.666 25.1472ZM5.7992 7.43183C5.33454 6.96717 4.58087 6.96717 4.1162 7.43183L0.350702 11.1973C-0.398714 11.9467 0.132536 13.2288 1.1922 13.2288H2.8327V30.9372C2.8327 32.1116 3.7847 33.0622 4.9577 33.0622C6.1307 33.0622 7.0827 32.1116 7.0827 30.9372V13.2288H8.7232C9.78429 13.2288 10.3141 11.9467 9.5647 11.1973L5.7992 7.43183ZM13.1857 6.1455H14.8645L14.8744 6.88217C14.89 8.04525 15.8391 8.97883 16.9994 8.97883H17.0277C18.2021 8.96325 19.14 7.99992 19.1244 6.8255L19.1159 6.1455H20.7181C21.7792 6.1455 22.309 4.86342 21.5596 4.114L17.7941 0.3485C17.3295 -0.116167 16.5758 -0.116167 16.1111 0.3485L12.3456 4.114C11.5962 4.86342 12.1275 6.1455 13.1871 6.1455H13.1857ZM33.648 15.4473L29.8825 11.6818C29.4179 11.2172 28.6642 11.2172 28.1995 11.6818L24.434 15.4473C23.6846 16.1968 24.2159 17.4788 25.2755 17.4788H26.916V30.9372C26.916 32.1116 27.868 33.0622 29.041 33.0622C30.214 33.0622 31.166 32.1116 31.166 30.9372V17.4788H32.8065C33.8676 17.4788 34.3975 16.1968 33.648 15.4473Z" fill="#00AA72"/>
</svg>
