<svg width="24" height="24" viewBox="0 0 24 24" fill="none" xmlns="http://www.w3.org/2000/svg">
<path d="M20.7825 14.0325C20.639 14.1554 20.4545 14.2196 20.2657 14.2123C20.077 14.205 19.8979 14.1268 19.7643 13.9932C19.6308 13.8596 19.5525 13.6806 19.5452 13.4918C19.5379 13.3031 19.6021 13.1185 19.725 12.975L19.9425 12.7575H12C11.8011 12.7575 11.6103 12.6785 11.4697 12.5379C11.329 12.3972 11.25 12.2065 11.25 12.0075V3.00005H2.25C2.05109 3.00005 1.86032 2.92103 1.71967 2.78038C1.57902 2.63973 1.5 2.44896 1.5 2.25005C1.5 2.05114 1.57902 1.86037 1.71967 1.71972C1.86032 1.57907 2.05109 1.50005 2.25 1.50005H12C12.1989 1.50005 12.3897 1.57907 12.5303 1.71972C12.671 1.86037 12.75 2.05114 12.75 2.25005V11.25H19.9425L19.725 11.0325C19.6465 10.9653 19.5827 10.8826 19.5377 10.7895C19.4927 10.6965 19.4674 10.5951 19.4634 10.4918C19.4594 10.3885 19.4768 10.2855 19.5145 10.1893C19.5522 10.0931 19.6094 10.0057 19.6825 9.93256C19.7556 9.85947 19.843 9.80228 19.9393 9.76457C20.0355 9.72686 20.1385 9.70946 20.2418 9.71345C20.3451 9.71744 20.4464 9.74274 20.5395 9.78775C20.6325 9.83277 20.7153 9.89654 20.7825 9.97505L22.2825 11.475C22.4222 11.6156 22.5006 11.8057 22.5006 12.0038C22.5006 12.2019 22.4222 12.392 22.2825 12.5325L20.7825 14.0325Z" fill="#FAFAFA"/>
<path d="M21.75 8.25H15C14.5858 8.25 14.25 7.91421 14.25 7.5V2.25C14.25 1.83579 14.5858 1.5 15 1.5H21.75C22.1642 1.5 22.5 1.83579 22.5 2.25V7.5C22.5 7.91421 22.1642 8.25 21.75 8.25Z" fill="#FAFAFA"/>
<path d="M9 10.5H2.25C1.83579 10.5 1.5 10.1642 1.5 9.75V5.25C1.5 4.83579 1.83579 4.5 2.25 4.5H9C9.41421 4.5 9.75 4.83579 9.75 5.25V9.75C9.75 10.1642 9.41421 10.5 9 10.5Z" fill="#FAFAFA"/>
<path d="M9 22.5H2.25C1.83579 22.5 1.5 22.1642 1.5 21.75V13.5C1.5 13.0858 1.83579 12.75 2.25 12.75H9C9.41421 12.75 9.75 13.0858 9.75 13.5V21.75C9.75 22.1642 9.41421 22.5 9 22.5Z" fill="#FAFAFA"/>
<path d="M21.75 22.5H12.75C12.3358 22.5 12 22.1642 12 21.75V16.5C12 16.0858 12.3358 15.75 12.75 15.75H21.75C22.1642 15.75 22.5 16.0858 22.5 16.5V21.75C22.5 22.1642 22.1642 22.5 21.75 22.5Z" fill="#FAFAFA"/>
</svg>
