<svg width="20" height="25" viewBox="0 0 20 25" fill="none" xmlns="http://www.w3.org/2000/svg">
<path fill-rule="evenodd" clip-rule="evenodd" d="M9.83238 13.0554C13.4276 13.0554 16.36 10.1231 16.36 6.52778C16.36 2.93245 13.4276 0 9.83238 0C6.23705 0 3.30469 2.93245 3.30469 6.52778C3.30469 10.1231 6.23705 13.0554 9.83238 13.0554Z" fill="#FAFAFA"/>
<path fill-rule="evenodd" clip-rule="evenodd" d="M16.7471 15.6404C14.9736 14.43 12.5287 13.6813 9.83295 13.6813C7.13729 13.6813 4.69246 14.43 2.91891 15.6404C1.11547 16.8713 0 18.5809 0 20.4775V22.738C0 23.2797 0.219743 23.7703 0.574795 24.1254C0.929826 24.4804 1.42036 24.7 1.96217 24.7H17.7038C18.2457 24.7 18.7362 24.4804 19.0912 24.1254C19.456 23.7606 19.6715 23.2508 19.6658 22.7333V20.4775C19.6658 18.5809 18.5505 16.8713 16.7471 15.6404Z" fill="#FAFAFA"/>
</svg>
