<svg width="32" height="32" viewBox="0 0 32 32" fill="none" xmlns="http://www.w3.org/2000/svg">
<path d="M30.657 9.42745L27.3901 7.47282L26.654 4.42595C26.3272 3.07463 25.0756 2.17376 23.7033 2.28176L19.9651 2.57107L17.8238 0.67507C16.7691 -0.224867 15.2346 -0.224867 14.1763 0.674133L12.0349 2.57101L8.29677 2.2817C6.93995 2.18651 5.67195 3.07545 5.37989 4.31507C5.31945 4.50294 4.22777 7.89638 4.29864 7.67595L1.34352 9.42645C0.159767 10.1534 -0.314483 11.6127 0.215579 12.8963L1.49089 15.9871L0.216517 19.0771C-0.314483 20.3616 0.160642 21.82 1.34352 22.546L4.60714 24.4869L5.34595 27.5476C5.67095 28.8979 6.91702 29.7943 8.2967 29.6918L11.9945 29.4061L14.1762 31.3244C14.7045 31.7748 15.3518 32 16 32C16.6473 32 17.2955 31.7748 17.8238 31.3243L20.0055 29.4061L23.7033 29.6917C25.1004 29.8024 26.329 28.8988 26.654 27.5475L27.3901 24.5006L30.657 22.546C31.839 21.82 32.3132 20.3616 31.784 19.0771L30.5087 15.9872L31.785 12.8954C32.3141 11.6128 31.8399 10.1534 30.657 9.42745ZM16 26.3125C10.3137 26.3125 5.68752 21.6863 5.68752 16C5.68752 10.3137 10.3137 5.68751 16 5.68751C21.6863 5.68751 26.3125 10.3137 26.3125 16C26.3125 21.6863 21.6863 26.3125 16 26.3125Z" fill="#FAFAFA"/>
<path d="M16 7.5625C11.3473 7.5625 7.5625 11.3473 7.5625 16C7.5625 20.6527 11.3473 24.4375 16 24.4375C20.6527 24.4375 24.4375 20.6527 24.4375 16C24.4375 11.3473 20.6527 7.5625 16 7.5625ZM21.3503 13.8503L15.7253 19.4753C15.5422 19.6584 15.3023 19.75 15.0625 19.75C14.8227 19.75 14.5828 19.6584 14.3997 19.4753L10.6497 15.7253C10.2835 15.3591 10.2835 14.7658 10.6497 14.3996C11.0159 14.0334 11.6092 14.0334 11.9754 14.3996L15.0625 17.4868L20.0247 12.5246C20.3909 12.1584 20.9842 12.1584 21.3504 12.5246C21.7166 12.8908 21.7166 13.4841 21.3503 13.8503Z" fill="#FAFAFA"/>
</svg>
