<svg width="26" height="26" viewBox="0 0 26 26" fill="none" xmlns="http://www.w3.org/2000/svg">
<path d="M22.2358 23.4805H21.3934C21.5 21.3485 21.0242 19.4583 20.1376 17.7917C19.2406 16.1095 17.9198 14.6561 16.3546 13.4211C16.2116 13.3041 16.1362 13.1507 16.1362 12.9635C16.1362 12.7815 16.2168 12.6203 16.3598 12.5085C17.808 11.3827 19.0326 10.1061 19.901 8.6241C20.9332 6.8899 21.4662 4.88009 21.3128 2.5193H22.2358C22.748 2.5193 23.1692 2.0981 23.1692 1.5859C23.1692 1.0711 22.748 0.649902 22.2358 0.649902H3.76539C3.2532 0.649902 2.83203 1.0711 2.83203 1.5859C2.83203 2.0981 3.2532 2.5193 3.76539 2.5193H4.6182C4.49601 4.39389 4.83142 6.06569 5.49957 7.56329C5.67381 7.9559 5.86881 8.3355 6.08717 8.7047C6.98683 10.2075 8.23478 11.5153 9.69861 12.6541C9.84416 12.7659 9.91703 12.9245 9.91703 13.1065C9.91703 13.2937 9.84416 13.4549 9.69861 13.5667C8.25299 14.6977 7.0284 16.0029 6.14703 17.4979C5.1382 19.2217 4.58703 21.2003 4.69361 23.4805H3.76799C3.2532 23.4805 2.83203 23.8965 2.83203 24.4139C2.83203 24.9287 3.2532 25.3499 3.76799 25.3499H22.2358C22.748 25.3499 23.1692 24.9287 23.1692 24.4139C23.1692 23.8965 22.748 23.4805 22.2358 23.4805ZM20.6342 23.4805C19.938 23.4805 19.2681 23.2152 18.7607 22.7386L14.3702 18.6149C13.848 18.1244 13.5518 17.4398 13.5518 16.7234V12.0873C13.583 12.0639 13.609 12.0483 13.648 12.0275C15.0893 11.1696 16.2122 10.2355 17.0136 9.22393C17.219 8.96476 17.0631 8.57819 16.7335 8.55161C14.2129 8.34837 11.6334 6.791 9.06131 6.62435C8.38761 6.58069 7.91673 7.30609 8.25872 7.88818C9.094 9.30987 10.5979 10.6983 12.7666 12.0535V16.7439C12.7666 17.4604 12.4704 18.145 11.9482 18.6354L7.57964 22.7386C7.07224 23.2152 6.4023 23.4805 5.70618 23.4805H5.44758C5.34101 21.3433 5.8532 19.4895 6.79957 17.8775C7.77717 16.2109 9.22279 14.7939 10.9388 13.5823C11.0948 13.4705 11.178 13.3041 11.178 13.1065C11.178 12.9141 11.0948 12.7477 10.9388 12.6359C9.21238 11.4191 7.7382 9.9917 6.73978 8.3147C6.52142 7.9481 6.32642 7.5711 6.15478 7.1811C5.55416 5.80569 5.26039 4.2691 5.37217 2.5453H20.5588C20.707 4.7267 20.226 6.5753 19.29 8.17949C19.2796 8.2003 19.2666 8.2185 19.2562 8.2393C18.2838 9.88509 16.8408 11.2735 15.1222 12.4929C14.961 12.6047 14.8752 12.7711 14.8752 12.9635C14.8752 13.1533 14.961 13.3249 15.1222 13.4367C16.9474 14.7367 18.4866 16.2967 19.4694 18.1427C20.3014 19.7027 20.7408 21.4759 20.6342 23.4805Z" fill="#FAFAFA"/>
</svg>
