<svg width="36" height="36" viewBox="0 0 36 36" fill="none" xmlns="http://www.w3.org/2000/svg">
<path d="M6 9.1215C6 6.624 8.3745 3.909 10.71 2.7855C10.4355 2.511 10.1715 2.211 9.945 1.8885C9.387 1.0965 10.0185 0 10.9875 0H14.508C15.5325 0 16.092 1.164 15.4845 1.989C15.2745 2.274 15.0375 2.541 14.7915 2.7855C17.127 3.9105 19.4985 6.624 19.4985 9.12C19.4985 11.535 17.649 13.4985 15.3735 13.4985H10.1235C7.848 13.4985 5.9985 11.5335 5.9985 9.12L6 9.1215ZM34.722 13.0215C33.9495 12.318 32.943 11.9535 31.905 12.0045C30.8595 12.0525 29.8965 12.5055 29.214 13.257L23.9025 18.8625C23.9505 19.1775 24 19.4925 24 19.8195C24 22.944 21.6675 25.6335 18.5745 26.0745L12.1965 26.9685C11.376 27.0855 10.617 26.5155 10.5 25.6965C10.383 24.876 10.953 24.117 11.772 24L18.015 23.1255C19.419 22.9245 20.637 21.9165 20.925 20.5275C21.369 18.39 19.74 16.5 17.679 16.5H5.9985C2.6865 16.5 0 19.1865 0 22.5V30C0 33.3135 2.6865 36 6 36H12.393C16.6005 36 20.613 34.233 23.454 31.131L35.007 18.5175C36.429 16.9245 36.3 14.457 34.7235 13.02L34.722 13.0215Z" fill="#00AA72"/>
</svg>
