<svg width="30" height="28" viewBox="0 0 30 28" fill="none" xmlns="http://www.w3.org/2000/svg">
<path d="M23.125 13.75C22.295 13.75 21.5038 13.905 20.7663 14.1762L19.51 12.0512C20.9562 10.79 21.875 8.94 21.875 6.875C21.875 3.08375 18.79 0 15 0C11.21 0 8.125 3.08375 8.125 6.875C8.125 8.94 9.04375 10.79 10.49 12.0512L9.23375 14.1762C8.49625 13.9062 7.705 13.75 6.875 13.75C3.085 13.75 0 16.8337 0 20.625C0 24.4163 3.085 27.5 6.875 27.5C10.2375 27.5 13.04 25.07 13.63 21.875H16.3687C16.9587 25.07 19.7613 27.5 23.1238 27.5C26.9138 27.5 29.9988 24.4163 29.9988 20.625C29.9988 16.8337 26.915 13.75 23.125 13.75ZM23.1487 16.25C24.1837 16.25 25.0237 17.09 25.0237 18.125C25.0237 19.16 24.1837 20 23.1487 20C22.1137 20 21.2737 19.16 21.2737 18.125C21.2737 17.09 22.1137 16.25 23.1487 16.25ZM15.0238 2.5C16.0588 2.5 16.8988 3.34 16.8988 4.375C16.8988 5.41 16.0588 6.25 15.0238 6.25C13.9888 6.25 13.1488 5.41 13.1488 4.375C13.1488 3.34 13.9888 2.5 15.0238 2.5ZM15 7.5C16.435 7.5 17.8813 8.58375 18.0837 9.97625C17.2925 10.7625 16.2038 11.25 15 11.25C13.7963 11.25 12.7063 10.7625 11.9163 9.97625C12.1187 8.58375 13.565 7.5 15 7.5ZM12.6412 13.3238C13.3787 13.5938 14.17 13.75 15 13.75C15.83 13.75 16.6213 13.595 17.3587 13.3238L18.615 15.4488C17.4688 16.4487 16.6562 17.82 16.37 19.375H13.6312C13.3438 17.82 12.5325 16.4487 11.3863 15.4488L12.6425 13.3238H12.6412ZM6.89875 16.25C7.93375 16.25 8.77375 17.09 8.77375 18.125C8.77375 19.16 7.93375 20 6.89875 20C5.86375 20 5.02375 19.16 5.02375 18.125C5.02375 17.09 5.86375 16.25 6.89875 16.25ZM6.875 25C5.67125 25 4.58125 24.5125 3.79125 23.7263C3.99375 22.3338 5.44 21.25 6.875 21.25C8.31 21.25 9.75625 22.3338 9.95875 23.7263C9.1675 24.5125 8.07875 25 6.875 25ZM23.125 25C21.9212 25 20.8313 24.5125 20.0413 23.7263C20.2438 22.3338 21.69 21.25 23.125 21.25C24.56 21.25 26.0062 22.3338 26.2087 23.7263C25.4175 24.5125 24.3288 25 23.125 25Z" fill="#00AA72"/>
</svg>
