<svg width="28" height="28" viewBox="0 0 28 28" fill="none" xmlns="http://www.w3.org/2000/svg">
<path d="M13.9779 27.5H1.25042C0.912923 27.5 0.590422 27.3638 0.354172 27.1213C0.119172 26.88 -0.0083276 26.5525 0.000422402 26.215C0.186672 19.3225 3.45917 16.2487 10.6079 16.2487C10.9717 16.2487 11.3192 16.2625 11.6642 16.2787C11.3717 17.36 11.2179 18.5925 11.2179 19.9988C11.2179 23.5025 12.1179 25.975 13.9779 27.5ZM10.6079 13.75C15.2979 13.75 17.4829 11.565 17.4829 6.875C17.4829 2.185 15.2979 0 10.6079 0C5.91792 0 3.73292 2.185 3.73292 6.875C3.73292 11.565 5.91792 13.75 10.6079 13.75ZM27.0604 23.7963C26.5367 24.6888 25.3867 24.9887 24.4942 24.4637L23.9079 24.12C23.5042 24.4112 23.0204 24.625 22.4667 24.77V25.625C22.4667 26.66 21.6267 27.5 20.5917 27.5C19.5567 27.5 18.7167 26.66 18.7167 25.625V24.77C18.1629 24.625 17.6792 24.4125 17.2754 24.12L16.6892 24.4637C15.7967 24.9875 14.6467 24.6888 14.1229 23.7963C13.5992 22.9038 13.8979 21.7537 14.7904 21.23L15.6267 20.7388C15.6042 20.5037 15.5904 20.2588 15.5904 19.9988C15.5904 19.7388 15.6042 19.495 15.6267 19.2587L14.7904 18.7675C13.8979 18.2437 13.5979 17.0938 14.1229 16.2013C14.6467 15.3088 15.7967 15.0087 16.6892 15.5338L17.2754 15.8775C17.6792 15.5862 18.1629 15.3725 18.7167 15.2275V14.3725C18.7167 13.3375 19.5567 12.4975 20.5917 12.4975C21.6267 12.4975 22.4667 13.3375 22.4667 14.3725V15.2275C23.0204 15.3725 23.5042 15.585 23.9079 15.8775L24.4942 15.5338C25.3867 15.01 26.5367 15.3088 27.0604 16.2013C27.5842 17.0938 27.2854 18.2437 26.3929 18.7675L25.5567 19.2587C25.5792 19.4937 25.5929 19.7388 25.5929 19.9988C25.5929 20.2588 25.5792 20.5025 25.5567 20.7388L26.3929 21.23C27.2854 21.7537 27.5854 22.9038 27.0604 23.7963ZM22.4679 20C22.4679 18.51 22.0829 18.125 20.5929 18.125C19.1029 18.125 18.7179 18.51 18.7179 20C18.7179 21.49 19.1029 21.875 20.5929 21.875C22.0829 21.875 22.4679 21.49 22.4679 20Z" fill="#00AA72"/>
</svg>
