<svg width="53" height="61" viewBox="0 0 53 61" fill="none" xmlns="http://www.w3.org/2000/svg">
<path fill-rule="evenodd" clip-rule="evenodd" d="M44.625 60.9167H7.79167C5.72617 60.9167 3.74283 60.095 2.28083 58.6358C0.821667 57.1738 0 55.1905 0 53.125V7.79167C0 5.72617 0.821667 3.74283 2.28083 2.28083C3.74283 0.821667 5.72617 0 7.79167 0H34.8727C36.2695 0 37.6012 0.589333 38.5418 1.6235L51.1275 15.4672C51.9577 16.3823 52.4167 17.5695 52.4167 18.8048V53.125C52.4167 55.1905 51.595 57.1738 50.1358 58.6358C48.6738 60.095 46.6905 60.9167 44.625 60.9167ZM12.0417 35.4167H30.2572C31.4302 35.4167 32.3822 34.4647 32.3822 33.2917C32.3822 32.1187 31.4302 31.1667 30.2572 31.1667H12.0417C10.8687 31.1667 9.91667 32.1187 9.91667 33.2917C9.91667 34.4647 10.8687 35.4167 12.0417 35.4167ZM11.9567 18.2665L15.7335 22.0433C16.5637 22.8735 17.9095 22.8735 18.7397 22.0433L26.2933 14.4897C27.1235 13.6595 27.1235 12.3137 26.2933 11.4835C25.466 10.6533 24.1173 10.6533 23.29 11.4835L17.2352 17.5355L14.96 15.2603C14.1327 14.433 12.784 14.433 11.9567 15.2603C11.1265 16.0905 11.1265 17.4363 11.9567 18.2665ZM34.7083 3.8335V16.2917C34.7083 17.8557 35.9777 19.125 37.5417 19.125H48.654C48.5322 18.8303 48.3565 18.5555 48.1383 18.3147L35.5527 4.46817C35.309 4.20467 35.0228 3.98933 34.7083 3.8335ZM12.0417 46.75H37.5417C38.7147 46.75 39.6667 45.798 39.6667 44.625C39.6667 43.452 38.7147 42.5 37.5417 42.5H12.0417C10.8687 42.5 9.91667 43.452 9.91667 44.625C9.91667 45.798 10.8687 46.75 12.0417 46.75Z" fill="#00AA72"/>
</svg>
