<svg width="28" height="28" viewBox="0 0 28 28" fill="none" xmlns="http://www.w3.org/2000/svg">
<path fill-rule="evenodd" clip-rule="evenodd" d="M9.6875 12.5938V15.1771C9.6875 15.9482 9.99363 16.687 10.5387 17.2321C11.0838 17.7772 11.8226 18.0833 12.5938 18.0833H15.1771C15.9482 18.0833 16.687 17.7772 17.2321 17.2321C17.7772 16.687 18.0833 15.9482 18.0833 15.1771V12.5938C18.0833 11.8226 17.7772 11.0838 17.2321 10.5387C16.687 9.99363 15.9482 9.6875 15.1771 9.6875H12.5938C11.8226 9.6875 11.0838 9.99363 10.5387 10.5387C9.99363 11.0838 9.6875 11.8226 9.6875 12.5938Z" fill="white"/>
<path fill-rule="evenodd" clip-rule="evenodd" d="M0 2.90625V5.48958C0 6.26071 0.306125 6.99954 0.851208 7.54463C1.39629 8.08971 2.13513 8.39583 2.90625 8.39583H5.48958C6.26071 8.39583 6.99954 8.08971 7.54463 7.54463C8.08971 6.99954 8.39583 6.26071 8.39583 5.48958V2.90625C8.39583 2.13513 8.08971 1.39629 7.54463 0.851208C6.99954 0.306125 6.26071 0 5.48958 0H2.90625C2.13513 0 1.39629 0.306125 0.851208 0.851208C0.306125 1.39629 0 2.13513 0 2.90625Z" fill="white"/>
<path fill-rule="evenodd" clip-rule="evenodd" d="M19.375 22.2813V24.8646C19.375 25.6357 19.6811 26.3745 20.2262 26.9196C20.7713 27.4647 21.5101 27.7708 22.2813 27.7708H24.8646C25.6357 27.7708 26.3745 27.4647 26.9196 26.9196C27.4647 26.3745 27.7708 25.6357 27.7708 24.8646V22.2813C27.7708 21.5101 27.4647 20.7713 26.9196 20.2262C26.3745 19.6811 25.6357 19.375 24.8646 19.375H22.2813C21.5101 19.375 20.7713 19.6811 20.2262 20.2262C19.6811 20.7713 19.375 21.5101 19.375 22.2813Z" fill="white"/>
<path fill-rule="evenodd" clip-rule="evenodd" d="M7.42578 5.1665H24.2174C24.6463 5.1665 25.0557 5.337 25.3593 5.63925C25.6615 5.9428 25.832 6.35225 25.832 6.78109V11.3019C25.832 11.7308 25.6615 12.1402 25.3593 12.4438C25.0557 12.746 24.6463 12.9165 24.2174 12.9165H20.3424C19.8077 12.9165 19.3737 13.3505 19.3737 13.8853C19.3737 14.42 19.8077 14.854 20.3424 14.854H24.2174C25.1591 14.854 26.0632 14.4794 26.7297 13.8142C27.3949 13.1477 27.7695 12.2435 27.7695 11.3019C27.7695 9.90305 27.7695 8.17996 27.7695 6.78109C27.7695 5.83946 27.3949 4.9353 26.7297 4.2688C26.0632 3.60359 25.1591 3.229 24.2174 3.229C18.9423 3.229 7.42578 3.229 7.42578 3.229C6.89103 3.229 6.45703 3.663 6.45703 4.19775C6.45703 4.7325 6.89103 5.1665 7.42578 5.1665Z" fill="white"/>
<path fill-rule="evenodd" clip-rule="evenodd" d="M15.1771 22.604H3.55208C3.12325 22.604 2.71379 22.4335 2.41025 22.1313C2.108 21.8277 1.9375 21.4183 1.9375 20.9894C1.9375 19.5905 1.9375 17.8675 1.9375 16.4686C1.9375 16.0398 2.108 15.6303 2.41025 15.3268C2.71379 15.0245 3.12325 14.854 3.55208 14.854H10.6563C11.191 14.854 11.625 14.42 11.625 13.8853C11.625 13.3505 11.191 12.9165 10.6563 12.9165H3.55208C2.61046 12.9165 1.70629 13.2911 1.03979 13.9563C0.374583 14.6228 0 15.527 0 16.4686V20.9894C0 21.931 0.374583 22.8352 1.03979 23.5017C1.70629 24.1669 2.61046 24.5415 3.55208 24.5415H15.1771C15.7118 24.5415 16.1458 24.1075 16.1458 23.5728C16.1458 23.038 15.7118 22.604 15.1771 22.604Z" fill="white"/>
<path fill-rule="evenodd" clip-rule="evenodd" d="M23.6113 15.784L21.7139 13.8853L23.6113 11.9865C23.9898 11.6093 23.9898 10.9945 23.6113 10.6173C23.2342 10.2389 22.6193 10.2389 22.2422 10.6173L19.6588 13.2007C19.2804 13.5791 19.2804 14.1914 19.6588 14.5698L22.2422 17.1532C22.6193 17.5316 23.2342 17.5316 23.6113 17.1532C23.9898 16.776 23.9898 16.1612 23.6113 15.784Z" fill="white"/>
<path fill-rule="evenodd" clip-rule="evenodd" d="M14.571 26.8407L17.1543 24.2573C17.5328 23.8789 17.5328 23.2666 17.1543 22.8882L14.571 20.3048C14.1938 19.9264 13.579 19.9264 13.2018 20.3048C12.8234 20.682 12.8234 21.2968 13.2018 21.674L15.0993 23.5728L13.2018 25.4715C12.8234 25.8487 12.8234 26.4635 13.2018 26.8407C13.579 27.2191 14.1938 27.2191 14.571 26.8407Z" fill="white"/>
</svg>
