<svg width="26" height="26" viewBox="0 0 26 26" fill="none" xmlns="http://www.w3.org/2000/svg">
<g clip-path="url(#clip0_11923_8838)">
<path d="M16.2498 14.0836C15.6508 14.0836 15.1666 14.569 15.1666 15.1669V19.5003C15.1666 20.0972 14.6812 20.5835 14.0831 20.5835H10.8332V4.33371C10.8332 3.40855 10.2438 2.58197 9.35773 2.27431L9.03698 2.167H14.0831C14.6812 2.167 15.1666 2.65338 15.1666 3.25045V6.50042C15.1666 7.09828 15.6508 7.58368 16.2498 7.58368C16.8489 7.58368 17.3331 7.09828 17.3331 6.50042V3.25045C17.3331 1.45865 15.8749 0.000488281 14.0831 0.000488281H2.43747C2.39621 0.000488281 2.3617 0.018936 2.32163 0.0242917C2.26946 0.0199278 2.21967 0.000488281 2.16671 0.000488281C0.971776 0.000488281 0 0.972066 0 2.167V21.6668C0 22.592 0.589334 23.4185 1.47542 23.7262L7.99499 25.8995C8.21596 25.9677 8.43575 26.0002 8.66664 26.0002C9.86158 26.0002 10.8332 25.0284 10.8332 23.8335V22.7503H14.0831C15.8749 22.7503 17.3331 21.2921 17.3331 19.5003V15.1669C17.3331 14.569 16.8489 14.0836 16.2498 14.0836Z" fill="white"/>
<path d="M25.6813 10.0674L21.3478 5.73421C21.0382 5.42437 20.5722 5.33114 20.1672 5.49895C19.7631 5.66697 19.4987 6.0623 19.4987 6.50009V9.75005H15.1655C14.5674 9.75005 14.082 10.2352 14.082 10.8333C14.082 11.4314 14.5674 11.9166 15.1655 11.9166H19.4987V15.1665C19.4987 15.6043 19.7631 15.9997 20.1672 16.1677C20.5722 16.3355 21.0382 16.2422 21.3478 15.9326L25.6813 11.5992C26.1048 11.1757 26.1048 10.4909 25.6813 10.0674Z" fill="white"/>
</g>
<defs>
<clipPath id="clip0_11923_8838">
<rect width="26" height="26" fill="white"/>
</clipPath>
</defs>
</svg>
