<svg width="21" height="25" viewBox="0 0 21 25" fill="none" xmlns="http://www.w3.org/2000/svg">
<path d="M19.4038 22.8306H18.5614C18.668 20.6986 18.1921 18.8084 17.3056 17.1418C16.4086 15.4596 15.0877 14.0062 13.5225 12.7712C13.3796 12.6542 13.3042 12.5008 13.3042 12.3136C13.3042 12.1316 13.3848 11.9704 13.5277 11.8586C14.976 10.7328 16.2006 9.4562 17.069 7.9742C18.1012 6.24 18.6342 4.23019 18.4808 1.8694H19.4038C19.916 1.8694 20.3371 1.4482 20.3371 0.935994C20.3371 0.421199 19.916 0 19.4038 0H0.933359C0.421167 0 0 0.421199 0 0.935994C0 1.4482 0.421167 1.8694 0.933359 1.8694H1.78617C1.66398 3.74399 1.99939 5.41579 2.66754 6.91339C2.84178 7.30599 3.03678 7.6856 3.25514 8.0548C4.1548 9.5576 5.40274 10.8654 6.86658 12.0042C7.01213 12.116 7.085 12.2746 7.085 12.4566C7.085 12.6438 7.01213 12.805 6.86658 12.9168C5.42096 14.0478 4.19637 15.353 3.315 16.848C2.30617 18.5718 1.755 20.5504 1.86158 22.8306H0.935962C0.421167 22.8306 0 23.2466 0 23.764C0 24.2788 0.421167 24.7 0.935962 24.7H19.4038C19.916 24.7 20.3371 24.2788 20.3371 23.764C20.3371 23.2466 19.916 22.8306 19.4038 22.8306ZM17.8021 22.8306C17.106 22.8306 16.4361 22.5653 15.9287 22.0887L11.5382 17.965C11.016 17.4745 10.7198 16.7899 10.7198 16.0735V11.4374C10.751 11.414 10.777 11.3984 10.816 11.3776C12.2573 10.5197 13.3802 9.58561 14.1816 8.57403C14.3869 8.31486 14.231 7.92828 13.9014 7.90171C11.3809 7.69847 8.80133 6.1411 6.22928 5.97444C5.55558 5.93079 5.0847 6.65619 5.42669 7.23827C6.26197 8.65997 7.76584 10.0484 9.93459 11.4036V16.094C9.93459 16.8105 9.63839 17.495 9.11618 17.9855L4.74761 22.0887C4.24021 22.5653 3.57026 22.8306 2.87415 22.8306H2.61555C2.50898 20.6934 3.02117 18.8396 3.96754 17.2276C4.94514 15.561 6.39076 14.144 8.10678 12.9324C8.26274 12.8206 8.34596 12.6542 8.34596 12.4566C8.34596 12.2642 8.26274 12.0978 8.10678 11.986C6.38035 10.7692 4.90617 9.3418 3.90774 7.6648C3.68939 7.2982 3.49439 6.9212 3.32274 6.5312C2.72213 5.15579 2.42836 3.6192 2.54014 1.89539H17.7268C17.875 4.0768 17.394 5.92539 16.458 7.52959C16.4475 7.5504 16.4346 7.5686 16.4242 7.5894C15.4518 9.23519 14.0088 10.6236 12.2901 11.843C12.129 11.9548 12.0432 12.1212 12.0432 12.3136C12.0432 12.5034 12.129 12.675 12.2901 12.7868C14.1153 14.0868 15.6546 15.6468 16.6373 17.4928C17.4694 19.0528 17.9088 20.826 17.8021 22.8306Z" fill="#FAFAFA"/>
</svg>
