<svg width="50" height="50" viewBox="0 0 50 50" fill="none" xmlns="http://www.w3.org/2000/svg">
<g clip-path="url(#clip0_10922_4270)">
<path d="M12.0703 27.5621L12.0704 27.5625C12.1026 27.53 12.1005 27.532 12.0703 27.5621Z" fill="black"/>
<path d="M48.8932 20.6502L46.4068 20.0523C45.8662 17.6923 44.9351 15.4495 43.6335 13.3642L44.8936 11.2487C45.2369 10.6724 45.1438 9.93711 44.6704 9.46367L40.541 5.33428C40.0676 4.8623 39.3339 4.76787 38.756 5.11113L36.6405 6.37119C34.5552 5.06963 32.3124 4.13848 29.9523 3.59785L29.3545 1.11152C29.1914 0.460742 28.6064 0.00292969 27.9342 0.00292969H22.0756C21.4033 0.00292969 20.8184 0.460645 20.6553 1.11152L20.0574 3.59785C17.6974 4.13848 15.4546 5.06963 13.3692 6.37119L11.2538 5.11113C10.6774 4.76777 9.94219 4.86084 9.46875 5.33428L5.33916 9.46357C4.86572 9.93701 4.77275 10.6722 5.11602 11.2486L6.37607 13.3641C5.07451 15.4494 4.14336 17.6922 3.60273 20.0522L1.11641 20.6501C0.465625 20.8132 0.0078125 21.3981 0.0078125 22.0704V27.929C0.0078125 28.6013 0.465527 29.1877 1.11777 29.3493L3.6041 29.9472C3.96455 31.511 4.50703 33.0135 5.20371 34.4545C6.27939 33.3744 11.6819 27.9487 12.0702 27.5609C12.0511 27.4623 11.8418 25.5862 11.8362 25.2208C11.7116 17.7572 17.7232 11.8191 25.0105 11.8191C32.3476 11.8191 38.1982 17.7354 38.1706 25.0454C38.1392 31.8059 33.0934 37.5611 26.0461 38.0875C25.7412 38.1109 24.3629 38.3143 22.4417 37.9355L15.5676 44.8097C17.0031 45.5021 18.4999 46.0411 20.0573 46.4002L20.6552 48.888C20.8183 49.5388 21.4032 49.9966 22.0755 49.9966H27.9341C28.6063 49.9966 29.1913 49.5389 29.3544 48.888L29.9522 46.4017C32.3123 45.861 34.5551 44.9299 36.6404 43.6283L38.7559 44.8884C39.3294 45.2317 40.066 45.1373 40.5409 44.6652L44.6703 40.5358C45.1437 40.0624 45.2367 39.3272 44.8935 38.7508L43.6334 36.6354C44.9364 34.55 45.8661 32.3072 46.4067 29.9457L48.8916 29.3493C49.5438 29.1877 50.0016 28.6013 50.0016 27.929V22.0704C50.0016 21.3982 49.5439 20.8132 48.8932 20.6502Z" fill="#00AA72"/>
<path d="M34.9139 22.3222C34.7853 21.8179 34.396 21.4212 33.8939 21.2837C33.3921 21.146 32.8558 21.2895 32.4878 21.6574L29.1455 24.9999C28.003 26.1424 26.1458 26.1424 25.0032 24.9999C23.8618 23.8585 23.8618 21.9991 25.0032 20.8576L28.3469 17.5139C28.7149 17.1459 28.857 16.6088 28.7194 16.1071C28.5817 15.6055 28.1855 15.2155 27.6813 15.0874C21.501 13.5168 15.9393 17.5425 14.9193 23.1018C14.5918 24.9326 14.7377 26.7563 15.3369 28.4355C14.5035 29.2689 1.63103 42.1412 1.28503 42.4874C-0.432841 44.2053 -0.432841 47.0001 1.31218 48.7451C3.04089 50.3838 5.68845 50.4527 7.5155 48.718L21.5675 34.666C23.8177 35.4691 26.3274 35.4528 28.7834 34.5862C33.2087 33.0247 36.3058 27.7842 34.9139 22.3222Z" fill="#00AA72"/>
</g>
<defs>
<clipPath id="clip0_10922_4270">
<rect width="50" height="50" fill="white"/>
</clipPath>
</defs>
</svg>
