<svg width="45" height="45" viewBox="0 0 45 45" fill="none" xmlns="http://www.w3.org/2000/svg">
<g clip-path="url(#clip0_10922_4251)">
<path d="M10.447 10.4464C11.3346 10.4464 12.0541 9.18721 12.0541 7.63391C12.0541 6.08061 11.3346 4.82141 10.447 4.82141C9.55939 4.82141 8.83984 6.08061 8.83984 7.63391C8.83984 9.18721 9.55939 10.4464 10.447 10.4464Z" fill="#FAFAFA"/>
<path d="M17.6775 6.55713L16.9141 8.83927H18.4408L17.6775 6.55713Z" fill="#FAFAFA"/>
<path d="M29.7321 38.5714V33.2116C28.4894 33.946 27.3284 34.8107 26.2688 35.7911C26.018 36.031 25.6836 36.1636 25.3366 36.1607H20.8929C20.4491 36.1607 20.0893 35.8009 20.0893 35.3571C20.0893 34.9133 20.4491 34.5536 20.8929 34.5536H23.9625C24.2679 32.5688 24.7018 27.5384 22.1304 23.5286C21.9809 23.2988 21.9001 23.0312 21.8973 22.7571C21.8969 22.3252 22.103 21.919 22.4518 21.6643C22.6688 21.5036 27.3938 17.9438 29.7321 14.4241V1.60714C29.7295 0.720641 29.0115 0.00264761 28.125 0H1.60714C0.720641 0.00264761 0.00264761 0.720641 0 1.60714V38.5714C0.00264761 39.4579 0.720641 40.1759 1.60714 40.1786H28.125C29.0115 40.1759 29.7295 39.4579 29.7321 38.5714ZM22.3955 28.9286C22.3955 29.3724 22.0358 29.7321 21.592 29.7321H16.875C16.4312 29.7321 16.0714 29.3724 16.0714 28.9286C16.0714 28.4848 16.4312 28.125 16.875 28.125H21.592C22.0358 28.125 22.3955 28.4848 22.3955 28.9286ZM16.875 24.1071H20.1455C20.5893 24.1071 20.9491 24.4669 20.9491 24.9107C20.9491 25.3545 20.5893 25.7143 20.1455 25.7143H16.875C16.4312 25.7143 16.0714 25.3545 16.0714 24.9107C16.0714 24.4669 16.4312 24.1071 16.875 24.1071ZM16.0714 20.8929C16.0714 20.4491 16.4312 20.0893 16.875 20.0893H19.9929C20.4367 20.0893 20.7964 20.4491 20.7964 20.8929C20.7964 21.3367 20.4367 21.6964 19.9929 21.6964H16.875C16.4312 21.6964 16.0714 21.3367 16.0714 20.8929ZM24.3804 17.6786H16.875C16.4312 17.6786 16.0714 17.3188 16.0714 16.875C16.0714 16.4312 16.4312 16.0714 16.875 16.0714H24.3804C24.8242 16.0714 25.1839 16.4312 25.1839 16.875C25.1839 17.3188 24.8242 17.6786 24.3804 17.6786ZM22.5 4.01786C22.5 3.65173 22.7474 3.33187 23.1019 3.23996C23.4563 3.14805 23.828 3.30732 24.0059 3.62732L26.5179 8.14902V4.01786C26.5179 3.57406 26.8776 3.21429 27.3214 3.21429C27.7652 3.21429 28.125 3.57406 28.125 4.01786V11.25C28.125 11.6161 27.8775 11.936 27.5231 12.0279C27.4573 12.045 27.3895 12.0537 27.3214 12.0536C27.0297 12.0536 26.7609 11.8955 26.6191 11.6405L24.1071 7.11884V11.25C24.1071 11.6938 23.7474 12.0536 23.3036 12.0536C22.8598 12.0536 22.5 11.6938 22.5 11.25V4.01786ZM14.5045 10.9929L14.6893 10.4384L14.8821 9.85982L16.9152 3.76071C17.0236 3.43095 17.3315 3.20806 17.6786 3.20806C18.0257 3.20806 18.3336 3.43095 18.442 3.76071L20.8527 10.9929C20.8784 11.0762 20.8919 11.1628 20.8929 11.25C20.8938 11.5955 20.6737 11.9028 20.3464 12.0134C20.2628 12.0379 20.1764 12.0514 20.0893 12.0536C19.7438 12.0545 19.4364 11.8344 19.3259 11.5071L18.9723 10.4464H16.3848L16.0313 11.5071C15.8892 11.9288 15.4323 12.1554 15.0107 12.0134C14.5891 11.8714 14.3624 11.4145 14.5045 10.9929ZM10.4464 3.21429C12.2464 3.21429 13.6607 5.15893 13.6607 7.63393C13.6631 8.22158 13.5792 8.8064 13.4116 9.36964C13.3566 9.56486 13.2867 9.7556 13.2027 9.94018C12.7918 11.1343 11.7063 11.9667 10.4464 12.0536C9.52096 12.025 8.66829 11.5446 8.16429 10.7679C7.53278 9.84674 7.2067 8.75045 7.23214 7.63393C7.23214 5.15893 8.64643 3.21429 10.4464 3.21429ZM1.60714 4.01786C1.60714 3.57406 1.96691 3.21429 2.41071 3.21429C2.85451 3.21429 3.21429 3.57406 3.21429 4.01786V10.4464H5.625C6.0688 10.4464 6.42857 10.8062 6.42857 11.25C6.42857 11.6938 6.0688 12.0536 5.625 12.0536H2.41071C1.96691 12.0536 1.60714 11.6938 1.60714 11.25V4.01786ZM2.41071 16.0714H12.8571C13.3009 16.0714 13.6607 16.4312 13.6607 16.875C13.6607 17.3188 13.3009 17.6786 12.8571 17.6786H2.41071C1.96691 17.6786 1.60714 17.3188 1.60714 16.875C1.60714 16.4312 1.96691 16.0714 2.41071 16.0714ZM2.41071 20.0893H12.8571C13.3009 20.0893 13.6607 20.4491 13.6607 20.8929C13.6607 21.3367 13.3009 21.6964 12.8571 21.6964H2.41071C1.96691 21.6964 1.60714 21.3367 1.60714 20.8929C1.60714 20.4491 1.96691 20.0893 2.41071 20.0893ZM2.41071 24.1071H12.8571C13.3009 24.1071 13.6607 24.4669 13.6607 24.9107C13.6607 25.3545 13.3009 25.7143 12.8571 25.7143H2.41071C1.96691 25.7143 1.60714 25.3545 1.60714 24.9107C1.60714 24.4669 1.96691 24.1071 2.41071 24.1071ZM1.60714 28.9286C1.60714 28.4848 1.96691 28.125 2.41071 28.125H12.8571C13.3009 28.125 13.6607 28.4848 13.6607 28.9286C13.6607 29.3724 13.3009 29.7321 12.8571 29.7321H2.41071C1.96691 29.7321 1.60714 29.3724 1.60714 28.9286ZM17.6786 36.1607H15.067C14.4212 36.1615 13.8179 35.839 13.4598 35.3017L13.1255 34.7987C13.0662 34.7077 12.9649 34.6529 12.8563 34.6529C12.7477 34.6529 12.6465 34.7077 12.5871 34.7987L11.6622 36.1856C11.3089 36.7229 10.7086 37.0458 10.0655 37.0446C9.96301 37.0446 9.86065 37.0365 9.75938 37.0205C9.01342 36.9098 8.40273 36.3699 8.20125 35.6432L8.05902 35.1474C8.02671 35.0163 7.91256 34.9218 7.77777 34.9144C7.64287 34.8945 7.51131 34.9672 7.45634 35.092C7.13194 35.7475 6.46332 36.1619 5.73188 36.1607H3.21429C2.77049 36.1607 2.41071 35.8009 2.41071 35.3571C2.41071 34.9133 2.77049 34.5536 3.21429 34.5536H5.73188C5.8549 34.5543 5.96753 34.4847 6.02197 34.3744C6.37687 33.6609 7.13402 33.2392 7.92745 33.3131C8.72087 33.3869 9.38717 33.9412 9.60429 34.7079L9.74572 35.2037C9.77881 35.3262 9.88092 35.4178 10.0063 35.4374C10.1317 35.457 10.2569 35.401 10.3259 35.2945L11.25 33.9107C11.6073 33.372 12.2107 33.0482 12.8571 33.0482C13.5036 33.0482 14.107 33.372 14.4643 33.9107L14.7994 34.4129C14.8596 34.5015 14.9599 34.5542 15.067 34.5536H17.6786C18.1224 34.5536 18.4821 34.9133 18.4821 35.3571C18.4821 35.8009 18.1224 36.1607 17.6786 36.1607Z" fill="#FAFAFA"/>
<path d="M29.779 26.3331C30.1543 26.5338 30.5948 26.5744 31.0004 26.4456C31.4097 26.3224 31.7535 26.0422 31.9567 25.6661C32.3666 24.8823 32.0691 23.9146 31.2897 23.4965C30.9161 23.2912 30.4748 23.2477 30.0683 23.3759C29.66 23.4972 29.318 23.7783 29.1201 24.1554C28.9129 24.5284 28.8693 24.9705 28.9995 25.3768C29.1227 25.7861 29.4029 26.1299 29.779 26.3331Z" fill="#FAFAFA"/>
<path d="M31.3163 14.9464C29.0984 18.4982 24.5422 22.0902 23.5859 22.8214C25.2244 25.649 25.993 28.8969 25.7958 32.1589L28.3752 27.2732C27.2473 26.2279 27.0238 24.5275 27.8433 23.2262C28.6628 21.9249 30.2929 21.3918 31.723 21.9574C33.153 22.523 33.9774 24.0269 33.6851 25.5367C33.3928 27.0465 32.0666 28.134 30.5288 28.125C30.2798 28.1238 30.0318 28.0942 29.7895 28.0366L27.1859 32.9705C29.7947 30.9633 32.9415 29.7773 36.2261 29.5634C36.3065 28.358 36.7404 22.5723 38.46 18.7473L36.0011 17.4375L31.3163 14.9464Z" fill="#FAFAFA"/>
<path d="M31.3388 38.5714C31.3388 40.3466 29.8997 41.7857 28.1245 41.7857H4.82089V43.3929C4.8093 43.8139 4.97214 44.221 5.27089 44.5179C5.57475 44.8296 5.99272 45.0038 6.42803 45H32.9459C33.8324 44.9974 34.5504 44.2794 34.553 43.3929V31.3634C33.4436 31.5696 32.3639 31.9123 31.3388 32.3839V38.5714Z" fill="#FAFAFA"/>
<path d="M37.959 2.53853L32.0938 13.5402L36.1357 15.6938L39.1893 17.317L44.2807 7.75451C44.6043 7.14648 44.5044 6.39988 44.0324 5.89826L40.5473 2.19299C40.1924 1.81604 39.6777 1.63314 39.1645 1.70165C38.6513 1.77016 38.2026 2.08168 37.959 2.53853Z" fill="#FAFAFA"/>
</g>
<defs>
<clipPath id="clip0_10922_4251">
<rect width="45" height="45" fill="white"/>
</clipPath>
</defs>
</svg>
