<svg width="143" height="144" viewBox="0 0 143 144" fill="none" xmlns="http://www.w3.org/2000/svg">
<g clip-path="url(#clip0_10922_4344)">
<path d="M22.9017 93.3749V79.4305C23.4505 79.8538 24.1086 80.0656 24.7669 80.0656C25.5531 80.0656 26.3393 79.7635 26.9392 79.1594C28.1391 77.9515 28.1388 75.9926 26.9392 74.7843L22.0018 69.8127C20.8023 68.6044 18.857 68.6044 17.6571 69.8127L12.72 74.7843C11.5204 75.9926 11.5204 77.9515 12.72 79.1597C13.8221 80.2695 15.5529 80.3598 16.7575 79.4308V93.3749C16.7575 95.0835 18.133 96.4686 19.8297 96.4686C21.5265 96.4686 22.9017 95.0837 22.9017 93.3749Z" fill="#00AA72"/>
<path d="M84.0683 28.9917H121.773C123.47 28.9917 124.846 27.6065 124.846 25.8979C124.846 24.1894 123.47 22.8042 121.773 22.8042H84.0683C82.3716 22.8042 80.9961 24.1894 80.9961 25.8979C80.9961 27.6065 82.3716 28.9917 84.0683 28.9917Z" fill="#00AA72"/>
<path d="M19.8301 63.8442C21.5268 63.8442 22.9023 62.4591 22.9023 60.7505V50.4106C22.9023 48.702 21.5268 47.3169 19.8301 47.3169C18.1333 47.3169 16.7578 48.702 16.7578 50.4106V60.7505C16.7578 62.4591 18.1333 63.8442 19.8301 63.8442Z" fill="#00AA72"/>
<path d="M73.6705 28.0856C74.2467 27.5054 74.5704 26.7184 74.5704 25.898C74.5704 25.0776 74.2467 24.2907 73.6705 23.7105L68.7331 18.7388C67.5335 17.5306 65.5882 17.5309 64.3884 18.7388C63.2863 19.8484 63.1969 21.5913 64.1191 22.8043H21.2246C19.5279 22.8043 18.1523 24.1894 18.1523 25.898C18.1523 27.6066 19.5279 28.9918 21.2246 28.9918H64.1188C63.1966 30.2048 63.286 31.9477 64.3881 33.0575C64.988 33.6616 65.7742 33.9637 66.5604 33.9637C67.3467 33.9637 68.1329 33.6616 68.7328 33.0575L73.6705 28.0856Z" fill="#00AA72"/>
<path d="M58.9295 114.706H21.2246C19.5279 114.706 18.1523 116.091 18.1523 117.799C18.1523 119.508 19.5279 120.893 21.2246 120.893H58.9295C60.6262 120.893 62.0018 119.508 62.0018 117.799C62.0018 116.091 60.6262 114.706 58.9295 114.706Z" fill="#00AA72"/>
<path d="M130.279 64.5377C129.177 63.4279 127.446 63.3379 126.242 64.2666V50.1074C126.242 48.3988 124.866 47.0137 123.17 47.0137C121.473 47.0137 120.097 48.3988 120.097 50.1074V64.2669C118.893 63.3379 117.162 63.4282 116.06 64.538C114.86 65.7463 114.86 67.7052 116.06 68.9131L120.997 73.885C121.573 74.4653 122.355 74.7912 123.17 74.7912C123.984 74.7912 124.766 74.4653 125.342 73.885L130.279 68.9131C131.479 67.7049 131.479 65.746 130.279 64.5377Z" fill="#00AA72"/>
<path d="M123.17 79.8533C121.473 79.8533 120.098 81.2384 120.098 82.947V94.6934C120.098 96.402 121.473 97.7871 123.17 97.7871C124.867 97.7871 126.242 96.402 126.242 94.6934V82.947C126.242 81.2384 124.867 79.8533 123.17 79.8533Z" fill="#00AA72"/>
<path d="M121.771 114.706H78.8768C79.799 113.493 79.7094 111.75 78.6076 110.64C77.4077 109.432 75.4624 109.432 74.2626 110.64L69.3255 115.612C68.1259 116.82 68.1259 118.779 69.3255 119.987L74.2626 124.959C74.8625 125.563 75.6487 125.865 76.4349 125.865C77.2212 125.865 78.0074 125.563 78.6073 124.959C79.7094 123.849 79.7991 122.106 78.8765 120.893H121.771C123.468 120.893 124.843 119.508 124.843 117.8C124.843 116.091 123.468 114.706 121.771 114.706Z" fill="#00AA72"/>
<path d="M95.2395 68.9062H91.0919C89.7675 60.3677 83.051 53.6042 74.5719 52.2706V48.0937C74.5719 46.3852 73.1963 45 71.4996 45C69.8029 45 68.4274 46.3852 68.4274 48.0937V52.2706C59.9482 53.6042 53.2317 60.3677 51.9073 68.9062H47.7598C46.063 68.9062 44.6875 70.2913 44.6875 71.9999C44.6875 73.7085 46.063 75.0936 47.7598 75.0936H51.9073C53.2317 83.6321 59.9482 90.3955 68.4274 91.7292V95.9058C68.4274 97.6144 69.8029 98.9995 71.4996 98.9995C73.1963 98.9995 74.5719 97.6144 74.5719 95.9058V91.7292C83.051 90.3955 89.7675 83.6321 91.0919 75.0936H95.2395C96.9362 75.0936 98.3117 73.7085 98.3117 71.9999C98.3117 70.2913 96.9365 68.9062 95.2395 68.9062ZM74.5719 85.4309V81.8439C74.5719 80.1353 73.1963 78.7502 71.4996 78.7502C69.8029 78.7502 68.4274 80.1353 68.4274 81.8439V85.4309C63.3433 84.2522 59.3324 80.2132 58.1618 75.0936H61.7243C63.421 75.0936 64.7965 73.7085 64.7965 71.9999C64.7965 70.2913 63.421 68.9062 61.7243 68.9062H58.1618C59.3324 63.7866 63.3433 59.7476 68.4274 58.5689V62.1562C68.4274 63.8648 69.8029 65.2499 71.4996 65.2499C73.1963 65.2499 74.5719 63.8648 74.5719 62.1562V58.5689C79.6559 59.7476 83.6669 63.7866 84.8374 68.9062H81.275C79.5783 68.9062 78.2027 70.2913 78.2027 71.9999C78.2027 73.7085 79.5783 75.0936 81.275 75.0936H84.8374C83.6669 80.2132 79.6559 84.2522 74.5719 85.4309Z" fill="black"/>
<path d="M29.3599 25.3507C32.3419 22.6928 34.2249 18.8113 34.2249 14.4953C34.2249 6.50276 27.7673 0 19.83 0C11.8927 0 5.4351 6.50276 5.4351 14.4956C5.4351 18.8116 7.31811 22.6931 10.3001 25.3509C4.16598 28.8699 0 35.6745 0 43.4743V49.0034C0 50.712 1.37553 52.0971 3.07225 52.0971H36.5877C38.2845 52.0971 39.66 50.712 39.66 49.0034V43.4743C39.66 35.6745 35.4943 28.8696 29.3599 25.3507ZM19.83 6.18748C24.3792 6.18748 28.0804 9.91431 28.0804 14.4956C28.0804 19.0768 24.3794 22.8037 19.83 22.8037C15.2806 22.8037 11.5796 19.0768 11.5796 14.4956C11.5796 9.91431 15.2808 6.18748 19.83 6.18748ZM33.5155 45.9097H6.14451V43.4743C6.14451 35.488 12.2837 28.9909 19.83 28.9909C27.3763 28.9909 33.5155 35.488 33.5155 43.4743V45.9097Z" fill="black"/>
<path d="M132.7 25.3514C135.682 22.6936 137.565 18.8121 137.565 14.4963C137.565 6.50349 131.107 0.000732422 123.17 0.000732422C115.233 0.000732422 108.775 6.50349 108.775 14.4963C108.775 18.8123 110.658 22.6939 113.64 25.3517C107.506 28.8707 103.34 35.6752 103.34 43.4751V49.0041C103.34 50.7127 104.715 52.0979 106.412 52.0979H139.928C141.624 52.0979 143 50.7127 143 49.0041V43.4751C143 35.6749 138.834 28.8701 132.7 25.3514ZM123.17 6.18793C127.719 6.18793 131.42 9.91476 131.42 14.496C131.42 19.077 127.719 22.8041 123.17 22.8041C118.62 22.8041 114.919 19.0773 114.919 14.496C114.919 9.91504 118.62 6.18793 123.17 6.18793ZM136.855 45.9104H109.484V43.4751C109.484 35.4887 115.624 28.9916 123.17 28.9916C130.716 28.9916 136.855 35.4887 136.855 43.4751V45.9104Z" fill="black"/>
<path d="M29.3599 117.253C32.3419 114.595 34.2249 110.713 34.2249 106.397C34.2249 98.4046 27.7673 91.9019 19.83 91.9019C11.8927 91.9019 5.4351 98.4046 5.4351 106.397C5.4351 110.713 7.31811 114.595 10.3001 117.253C4.16598 120.772 0 127.576 0 135.376V140.906C0 142.614 1.37553 143.999 3.07225 143.999H36.5877C38.2845 143.999 39.66 142.614 39.66 140.906V135.376C39.66 127.576 35.4943 120.772 29.3599 117.253ZM19.83 98.0893C24.3792 98.0893 28.0804 101.816 28.0804 106.397C28.0804 110.979 24.3794 114.706 19.83 114.706C15.2806 114.706 11.5796 110.979 11.5796 106.397C11.5796 101.816 15.2808 98.0893 19.83 98.0893ZM33.5155 137.812H6.14451V135.376C6.14451 127.39 12.2837 120.893 19.83 120.893C27.3763 120.893 33.5155 127.39 33.5155 135.376V137.812Z" fill="black"/>
<path d="M132.7 117.254C135.682 114.596 137.565 110.714 137.565 106.398C137.565 98.4056 131.107 91.9028 123.17 91.9028C115.233 91.9028 108.775 98.4056 108.775 106.398C108.775 110.714 110.658 114.596 113.64 117.254C107.506 120.773 103.34 127.577 103.34 135.377V140.906C103.34 142.615 104.715 144 106.412 144H139.928C141.624 144 143 142.615 143 140.906V135.377C143 127.577 138.834 120.772 132.7 117.254ZM123.17 98.0903C127.719 98.0903 131.42 101.817 131.42 106.398C131.42 110.98 127.719 114.706 123.17 114.706C118.62 114.706 114.919 110.98 114.919 106.398C114.919 101.817 118.62 98.0903 123.17 98.0903ZM136.855 137.812H109.484V135.377C109.484 127.391 115.624 120.894 123.17 120.894C130.716 120.894 136.855 127.391 136.855 135.377V137.812Z" fill="black"/>
</g>
<defs>
<clipPath id="clip0_10922_4344">
<rect width="143" height="144" fill="white"/>
</clipPath>
</defs>
</svg>
