<svg width="22" height="20" viewBox="0 0 22 20" fill="none" xmlns="http://www.w3.org/2000/svg">
<path fill-rule="evenodd" clip-rule="evenodd" d="M4.33333 2.16667C4.33333 0.970049 5.30338 0 6.5 0H15.1667C16.3633 0 17.3333 0.970049 17.3333 2.16667V3.25H4.33333V2.16667ZM2.16667 7.04167C2.16667 5.84505 3.13672 4.875 4.33333 4.875H17.3333C18.53 4.875 19.5 5.84505 19.5 7.04167V8.125H2.16667V7.04167ZM0 11.9167C0 10.72 0.970049 9.75 2.16667 9.75H19.5C20.6967 9.75 21.6667 10.72 21.6667 11.9167V15.1667C21.6667 17.5599 19.7265 19.5 17.3333 19.5H4.33333C1.9401 19.5 0 17.5599 0 15.1667V11.9167ZM7.85417 13C7.85417 12.5513 8.21794 12.1875 8.66667 12.1875H13C13.4487 12.1875 13.8125 12.5513 13.8125 13C13.8125 13.4487 13.4487 13.8125 13 13.8125H8.66667C8.21794 13.8125 7.85417 13.4487 7.85417 13Z" fill="white"/>
</svg>
