<svg width="46" height="46" viewBox="0 0 46 46" fill="none" xmlns="http://www.w3.org/2000/svg">
<path d="M28.7513 2.06252V15.0077C28.7513 18.1204 26.4206 20.9129 23.3099 21.0759C19.9941 21.2503 17.2513 18.6129 17.2513 15.3335V2.06252C17.2513 0.521525 15.6336 -0.436808 14.2479 0.235942C6.98755 3.76069 1.91797 11.136 1.91797 19.3068C1.91797 27.2533 6.31672 34.4446 13.395 38.0748C14.5718 38.6785 15.3346 39.9857 15.3346 41.4021V44.0816C15.3346 45.1396 16.1933 45.9983 17.2513 45.9983H28.7513C29.8093 45.9983 30.668 45.1396 30.668 44.0816V41.4021C30.668 39.9857 31.4289 38.6785 32.6076 38.0748C39.6859 34.4446 44.0846 27.2533 44.0846 19.3068C44.0846 11.136 39.0151 3.76069 31.7547 0.235942C30.369 -0.436808 28.7513 0.523442 28.7513 2.06252Z" fill="#FAFAFA"/>
</svg>
