<svg width="61" height="61" viewBox="0 0 61 61" fill="none" xmlns="http://www.w3.org/2000/svg">
<path d="M57.7912 41.5696H41.569C41.3001 41.5696 41.0422 41.6764 40.8521 41.8665C40.6619 42.0567 40.5551 42.3146 40.5551 42.5835C40.5551 43.3902 40.2347 44.1638 39.6642 44.7343C39.0938 45.3047 38.3202 45.6251 37.5135 45.6251H23.319C22.5123 45.6251 21.7387 45.3047 21.1682 44.7343C20.5978 44.1638 20.2773 43.3902 20.2773 42.5835C20.2773 42.3146 20.1705 42.0567 19.9804 41.8665C19.7902 41.6764 19.5324 41.5696 19.2635 41.5696H3.04123C2.77233 41.5696 2.51445 41.6764 2.3243 41.8665C2.13416 42.0567 2.02734 42.3146 2.02734 42.5835V57.7918C2.02734 58.0607 2.13416 58.3186 2.3243 58.5087C2.51445 58.6989 2.77233 58.8057 3.04123 58.8057H57.7912C58.0601 58.8057 58.318 58.6989 58.5082 58.5087C58.6983 58.3186 58.8051 58.0607 58.8051 57.7918V42.5835C58.8051 42.3146 58.6983 42.0567 58.5082 41.8665C58.318 41.6764 58.0601 41.5696 57.7912 41.5696ZM39.5412 55.764H21.2912C20.4845 55.764 19.7109 55.4436 19.1404 54.8731C18.57 54.3027 18.2496 53.5291 18.2496 52.7224C18.2496 51.9157 18.57 51.142 19.1404 50.5716C19.7109 50.0012 20.4845 49.6807 21.2912 49.6807H39.5412C40.3479 49.6807 41.1216 50.0012 41.692 50.5716C42.2624 51.142 42.5829 51.9157 42.5829 52.7224C42.5829 53.5291 42.2624 54.3027 41.692 54.8731C41.1216 55.4436 40.3479 55.764 39.5412 55.764Z" fill="#00AA72"/>
<path d="M39.5412 51.7083H21.2912C21.0223 51.7083 20.7644 51.8151 20.5743 52.0052C20.3842 52.1954 20.2773 52.4532 20.2773 52.7221C20.2773 52.991 20.3842 53.2489 20.5743 53.4391C20.7644 53.6292 21.0223 53.736 21.2912 53.736H39.5412C39.8101 53.736 40.068 53.6292 40.2582 53.4391C40.4483 53.2489 40.5551 52.991 40.5551 52.7221C40.5551 52.4532 40.4483 52.1954 40.2582 52.0052C40.068 51.8151 39.8101 51.7083 39.5412 51.7083Z" fill="#00AA72"/>
<path d="M57.7912 22.3054H41.569C41.3001 22.3054 41.0422 22.4122 40.8521 22.6024C40.6619 22.7925 40.5551 23.0504 40.5551 23.3193C40.5551 24.126 40.2347 24.8997 39.6642 25.4701C39.0938 26.0405 38.3202 26.361 37.5135 26.361H23.319C22.5123 26.361 21.7387 26.0405 21.1682 25.4701C20.5978 24.8997 20.2773 24.126 20.2773 23.3193C20.2773 23.0504 20.1705 22.7925 19.9804 22.6024C19.7902 22.4122 19.5324 22.3054 19.2635 22.3054H3.04123C2.77233 22.3054 2.51445 22.4122 2.3243 22.6024C2.13416 22.7925 2.02734 23.0504 2.02734 23.3193V38.5276C2.02734 38.7965 2.13416 39.0544 2.3243 39.2446C2.51445 39.4347 2.77233 39.5415 3.04123 39.5415H57.7912C58.0601 39.5415 58.318 39.4347 58.5082 39.2446C58.6983 39.0544 58.8051 38.7965 58.8051 38.5276V23.3193C58.8051 23.0504 58.6983 22.7925 58.5082 22.6024C58.318 22.4122 58.0601 22.3054 57.7912 22.3054ZM39.5412 36.4999H21.2912C20.4845 36.4999 19.7109 36.1794 19.1404 35.609C18.57 35.0386 18.2496 34.2649 18.2496 33.4582C18.2496 32.6515 18.57 31.8778 19.1404 31.3074C19.7109 30.737 20.4845 30.4165 21.2912 30.4165H39.5412C40.3479 30.4165 41.1216 30.737 41.692 31.3074C42.2624 31.8778 42.5829 32.6515 42.5829 33.4582C42.5829 34.2649 42.2624 35.0386 41.692 35.609C41.1216 36.1794 40.3479 36.4999 39.5412 36.4999Z" fill="#00AA72"/>
<path d="M39.5412 32.4446H21.2912C21.0223 32.4446 20.7644 32.5514 20.5743 32.7415C20.3842 32.9317 20.2773 33.1896 20.2773 33.4585C20.2773 33.7274 20.3842 33.9853 20.5743 34.1754C20.7644 34.3655 21.0223 34.4724 21.2912 34.4724H39.5412C39.8101 34.4724 40.068 34.3655 40.2582 34.1754C40.4483 33.9853 40.5551 33.7274 40.5551 33.4585C40.5551 33.1896 40.4483 32.9317 40.2582 32.7415C40.068 32.5514 39.8101 32.4446 39.5412 32.4446Z" fill="#00AA72"/>
<path d="M52.722 6.08333C52.9909 6.08333 53.2488 5.97651 53.4389 5.78637C53.6291 5.59623 53.7359 5.33835 53.7359 5.06944V1.01389C53.7359 0.744989 53.6291 0.487102 53.4389 0.296961C53.2488 0.10682 52.9909 0 52.722 0L48.6665 0C48.3976 0 48.1397 0.10682 47.9495 0.296961C47.7594 0.487102 47.6526 0.744989 47.6526 1.01389C47.6526 1.28279 47.7594 1.54068 47.9495 1.73082C48.1397 1.92096 48.3976 2.02778 48.6665 2.02778H50.2745L34.2997 18.0026C34.1989 18.0997 34.0799 18.1758 33.9496 18.2267C33.8193 18.2775 33.6801 18.302 33.5403 18.2987C33.4 18.2935 33.2624 18.259 33.1363 18.1973C33.0102 18.1357 32.8984 18.0483 32.8082 17.9408L24.2865 7.86778C23.7907 7.2886 23.0963 6.91555 22.3397 6.82176C21.5831 6.72798 20.8187 6.92024 20.1965 7.36083L7.52285 16.4138C7.4089 16.4889 7.31126 16.5861 7.23578 16.6997C7.16029 16.8133 7.10851 16.941 7.08354 17.0751C7.05857 17.2093 7.06092 17.347 7.09045 17.4802C7.11998 17.6134 7.17608 17.7393 7.2554 17.8502C7.33471 17.9612 7.43561 18.0551 7.55205 18.1262C7.66849 18.1972 7.79808 18.2441 7.93305 18.2639C8.06802 18.2837 8.20561 18.2761 8.33756 18.2414C8.46951 18.2068 8.59312 18.1459 8.70099 18.0624L21.3746 9.01043C21.5821 8.86395 21.8367 8.80013 22.0887 8.83144C22.3407 8.86275 22.572 8.98696 22.7373 9.17975L31.259 19.2517C31.5313 19.573 31.8674 19.8343 32.246 20.0189C32.6245 20.2036 33.0373 20.3076 33.4581 20.3244H33.5839C34.391 20.3237 35.1649 20.0032 35.7363 19.4332L51.7081 3.46142V5.06944C51.7081 5.33835 51.815 5.59623 52.0051 5.78637C52.1952 5.97651 52.4531 6.08333 52.722 6.08333Z" fill="#00AA72"/>
</svg>
