<svg width="60" height="62" viewBox="0 0 60 62" fill="none" xmlns="http://www.w3.org/2000/svg">
<path d="M56.623 31.803C56.3735 31.2926 56.3735 30.7072 56.623 30.197L58.9354 25.4665C60.2228 22.8326 59.2027 19.6932 56.6131 18.3192L51.9619 15.8513C51.4601 15.5851 51.116 15.1114 51.0178 14.5521L50.1082 9.3658C49.6016 6.47822 46.9306 4.53782 44.0283 4.94845L38.8149 5.68591C38.2522 5.76534 37.6958 5.58443 37.2876 5.18955L33.5033 1.52866C31.3962 -0.509819 28.0952 -0.50994 25.9881 1.52866L22.2037 5.18991C21.7954 5.58492 21.239 5.76547 20.6764 5.68627L15.463 4.94881C12.5598 4.53794 9.88967 6.47858 9.38314 9.36617L8.47349 14.5522C8.37528 15.1117 8.03125 15.5853 7.52957 15.8515L2.87838 18.3194C0.288687 19.6933 -0.731401 22.8329 0.55606 25.4668L2.86833 30.1972C3.11778 30.7076 3.11778 31.293 2.86833 31.8033L0.555939 36.5336C-0.731522 39.1675 0.288565 42.3069 2.87826 43.6809L7.52944 46.1488C8.03125 46.4149 8.37528 46.8887 8.47349 47.448L9.38314 52.6343C9.84426 55.263 12.0983 57.1065 14.6888 57.1062C14.944 57.1062 15.2029 57.0883 15.4631 57.0515L20.6765 56.3141C21.2388 56.2343 21.7955 56.4155 22.2039 56.8104L25.9881 60.4713C27.0419 61.4907 28.3935 62.0002 29.7457 62.0001C31.0974 62 32.4499 61.4904 33.5032 60.4713L37.2876 56.8104C37.6959 56.4155 38.2524 56.2351 38.8149 56.3141L44.0283 57.0515C46.9319 57.4623 49.6016 55.5217 50.1082 52.6342L51.0179 47.4481C51.1162 46.8887 51.4602 46.4151 51.9619 46.1488L56.6131 43.6809C59.2027 42.307 60.2228 39.1674 58.9354 36.5335L56.623 31.803ZM22.5938 14.9085C26.2087 14.9085 29.1496 17.8495 29.1496 21.4643C29.1496 25.0792 26.2087 28.0202 22.5938 28.0202C18.9789 28.0202 16.0379 25.0792 16.0379 21.4643C16.0379 17.8495 18.9789 14.9085 22.5938 14.9085ZM19.21 44.064C18.8608 44.4132 18.4032 44.5878 17.9457 44.5878C17.4883 44.5878 17.0305 44.4133 16.6815 44.064C15.9833 43.3658 15.9833 42.2337 16.6815 41.5355L40.2812 17.9358C40.9793 17.2376 42.1116 17.2376 42.8098 17.9358C43.508 18.634 43.508 19.7661 42.8098 20.4643L19.21 44.064ZM36.8973 47.0916C33.2824 47.0916 30.3414 44.1506 30.3414 40.5358C30.3414 36.9209 33.2824 33.9799 36.8973 33.9799C40.5122 33.9799 43.4531 36.9209 43.4531 40.5358C43.4531 44.1506 40.5122 47.0916 36.8973 47.0916Z" fill="#00AA72"/>
</svg>
