<svg width="60" height="60" viewBox="0 0 60 60" fill="none" xmlns="http://www.w3.org/2000/svg">
<path d="M48.0742 40.1249C50.9429 38.0249 53.4743 35.4374 55.4992 32.4187C56.493 30.9563 56.493 29.0437 55.4992 27.5812C49.8367 19.125 40.2929 14.0625 29.9992 14.0625C27.5617 14.0625 25.1805 14.3437 22.8555 14.9063L28.0305 20.0812C28.6493 19.95 29.2867 19.8937 29.9429 19.8937C30.9743 19.8937 31.8179 20.7187 31.8179 21.7687C31.8179 22.35 31.5555 22.8563 31.1429 23.1937L36.8992 28.95C37.2367 28.4813 37.7805 28.1812 38.3992 28.1812C39.4305 28.1812 40.2742 29.025 40.2742 30.0562C40.2742 30.7687 40.1992 31.4437 40.068 32.1188L48.0742 40.1249Z" fill="#00AA72"/>
<path d="M55.7007 53.0493L6.95068 4.29932C6.21826 3.56689 5.03174 3.56689 4.29932 4.29932C3.56689 5.03174 3.56689 6.21826 4.29932 6.95068L15.1964 17.8477C14.0699 18.4672 12.9691 19.1293 11.925 19.875C9.05628 21.9749 6.52496 24.5625 4.50005 27.5812C3.50624 29.0437 3.50624 30.9563 4.50005 32.4187C10.1625 40.875 19.7063 45.9375 30 45.9375C32.4375 45.9375 34.8188 45.6562 37.1437 45.0937C38.5213 44.7778 39.859 44.3282 41.1738 43.8251L53.0493 55.7007C53.4155 56.0669 53.8953 56.25 54.375 56.25C54.8547 56.25 55.3345 56.0669 55.7007 55.7007C56.4331 54.9683 56.4331 53.7817 55.7007 53.0493ZM32.0625 40.0124C31.3875 40.1437 30.675 40.2188 29.9437 40.2188C24.2437 40.2188 19.6125 35.6624 19.6125 30.0562C19.6125 29.2875 19.7063 28.5374 19.875 27.8249C20.168 26.4874 20.7557 25.2664 21.538 24.1894L24.2524 26.9038C23.7043 27.8424 23.3625 28.9073 23.3625 30.0562C23.3625 30.5437 23.4187 31.0312 23.5312 31.4812C24.0751 33.825 25.9501 35.6812 28.3125 36.2624C28.8375 36.3937 29.3812 36.4688 29.9437 36.4688C31.0683 36.4688 32.1117 36.1705 33.0365 35.6878L35.7675 38.4188C34.6667 39.1687 33.4227 39.7327 32.0625 40.0124Z" fill="#00AA72"/>
</svg>
