<svg width="60" height="60" viewBox="0 0 60 60" fill="none" xmlns="http://www.w3.org/2000/svg">
<path d="M30.0016 21.0676C29.4244 21.0676 28.9254 21.3762 28.6672 21.8925L22.8806 33.4657C22.644 33.9386 22.6678 34.4677 22.9456 34.9173C23.2235 35.3672 23.6863 35.625 24.215 35.625H35.7881C36.8815 35.625 37.6136 34.4467 37.1226 33.4657L31.336 21.8925C31.0778 21.3762 30.5788 21.0676 30.0016 21.0676ZM30.0016 33.75C29.4838 33.75 29.0641 33.3302 29.0641 32.8125C29.0641 32.2947 29.4838 31.875 30.0016 31.875C30.5194 31.875 30.9391 32.2947 30.9391 32.8125C30.9391 33.3302 30.5194 33.75 30.0016 33.75ZM30.9391 30C30.9391 30.5177 30.5193 30.9375 30.0016 30.9375C29.4839 30.9375 29.0641 30.5177 29.0641 30V24.375C29.0641 23.8572 29.4839 23.4375 30.0016 23.4375C30.5193 23.4375 30.9391 23.8572 30.9391 24.375V30Z" fill="#00AA72"/>
<path d="M52.5 24.375H50.8145C50.332 22.5819 49.6216 20.8667 48.696 19.259L49.8871 18.0675C50.2533 17.7013 50.2533 17.108 49.8871 16.7418L43.2582 10.1129C42.892 9.74671 42.2987 9.74671 41.9325 10.1129L40.741 11.304C39.1333 10.3784 37.4181 9.66797 35.625 9.18548V7.5C35.625 6.98227 35.2052 6.5625 34.6875 6.5625H25.3125C24.7948 6.5625 24.375 6.98227 24.375 7.5V9.18548C22.5819 9.66797 20.8667 10.3784 19.259 11.304L18.0675 10.1129C17.7013 9.74671 17.108 9.74671 16.7418 10.1129L10.1129 16.7418C9.74671 17.108 9.74671 17.7013 10.1129 18.0675L11.304 19.259C10.3784 20.8667 9.66797 22.5819 9.18548 24.375H7.5C6.98227 24.375 6.5625 24.7948 6.5625 25.3125V34.6875C6.5625 35.2052 6.98227 35.625 7.5 35.625H9.18548C9.66797 37.4181 10.3784 39.1333 11.304 40.741L10.1129 41.9325C9.74671 42.2987 9.74671 42.892 10.1129 43.2582L16.7418 49.8871C17.108 50.2533 17.7013 50.2533 18.0675 49.8871L19.259 48.696C20.8667 49.6216 22.5819 50.332 24.375 50.8145V52.5C24.375 53.0177 24.7948 53.4375 25.3125 53.4375H34.6875C35.2052 53.4375 35.625 53.0177 35.625 52.5V50.8145C37.4181 50.332 39.1333 49.6216 40.741 48.696L41.9325 49.8871C42.2987 50.2533 42.892 50.2533 43.2582 49.8871L49.8871 43.2582C50.2533 42.892 50.2533 42.2987 49.8871 41.9325L48.696 40.741C49.6216 39.1333 50.332 37.4181 50.8145 35.625H52.5C53.0177 35.625 53.4375 35.2052 53.4375 34.6875V25.3125C53.4375 24.7948 53.0177 24.375 52.5 24.375ZM17.0526 35.4913C17.2563 35.9674 17.0348 36.5181 16.5583 36.7215C16.0873 36.9226 15.5308 36.7006 15.3287 36.2274C14.4882 34.2604 14.0625 32.1652 14.0625 30C14.0625 21.2119 21.2119 14.0625 30 14.0625C32.8491 14.0625 35.6488 14.8238 38.0969 16.2639C39.0225 16.8142 39.8744 17.4579 40.6636 18.1697V16.4104C40.6636 15.8926 41.0834 15.4729 41.6011 15.4729C42.1188 15.4729 42.5386 15.8926 42.5386 16.4104V20.3879C42.5386 20.9056 42.1188 21.3254 41.6011 21.3254H37.6236C37.1059 21.3254 36.6861 20.9056 36.6861 20.3879C36.6861 19.8701 37.1059 19.4504 37.6236 19.4504H39.2898C38.6258 18.8651 37.9119 18.3351 37.1425 17.8775C34.986 16.609 32.515 15.9375 30 15.9375C22.2459 15.9375 15.9375 22.2459 15.9375 30C15.9375 31.9107 16.3129 33.7582 17.0526 35.4913ZM38.6508 35.9029C38.0328 36.9031 36.9621 37.5 35.7866 37.5H24.2134C23.0379 37.5 21.9672 36.9031 21.3492 35.9029C20.7312 34.9031 20.6763 33.6786 21.2018 32.6271L26.9884 21.0539C27.5624 19.9059 28.7164 19.1927 30 19.1927C31.2836 19.1927 32.4376 19.9059 33.0116 21.0539L38.7982 32.6271C39.3237 33.6786 39.2688 34.9031 38.6508 35.9029ZM30 45.9375C27.1509 45.9375 24.3512 45.1762 21.9031 43.7361C20.9775 43.1858 20.1256 42.5421 19.3364 41.8303V43.5896C19.3364 44.1074 18.9166 44.5271 18.3989 44.5271C17.8812 44.5271 17.4614 44.1074 17.4614 43.5896V39.6121C17.4614 39.0944 17.8812 38.6746 18.3989 38.6746H22.3764C22.8941 38.6746 23.3139 39.0944 23.3139 39.6121C23.3139 40.1299 22.8941 40.5496 22.3764 40.5496H20.7102C21.3743 41.1349 22.0881 41.6649 22.8575 42.1225C25.014 43.391 27.485 44.0625 30 44.0625C37.7541 44.0625 44.0625 37.7541 44.0625 30C44.0625 28.0893 43.6871 26.2418 42.9474 24.5087C42.7437 24.0326 42.9652 23.4819 43.4413 23.2787C43.9179 23.0749 44.4681 23.2965 44.6713 23.7726C45.5118 25.7396 45.9375 27.8348 45.9375 30C45.9375 38.7881 38.7881 45.9375 30 45.9375Z" fill="#00AA72"/>
</svg>
