<svg width="60" height="60" viewBox="0 0 60 60" fill="none" xmlns="http://www.w3.org/2000/svg">
<path d="M49.7083 18.2624L48.7145 12.5742C48.6712 12.3245 48.5294 12.1019 48.322 11.9554C48.1134 11.8089 47.8567 11.7515 47.6071 11.796L37.3309 13.5913L36.1474 10.4484C35.354 8.34251 33.1696 7.09564 30.9536 7.48236L25.5524 8.42572C23.3165 8.81595 21.6841 10.7472 21.6712 13.0183L21.6524 16.3312L11.0739 18.1792C10.5536 18.2706 10.2044 18.7663 10.2958 19.2867L11.2895 24.9749C11.3704 25.4402 11.7747 25.7683 12.2317 25.7683C12.2868 25.7683 12.3419 25.7636 12.3981 25.7542C12.9184 25.6628 13.2677 25.1671 13.1763 24.6468L12.3477 19.9019L46.9931 13.8468L47.8216 18.5917C47.913 19.112 48.4075 19.4613 48.929 19.3699C49.4505 19.2796 49.7985 18.7827 49.7083 18.2624Z" fill="#00AA72"/>
<path d="M46.0613 23.666H14.6879C14.1594 23.666 13.7305 24.0949 13.7305 24.6234C13.7305 25.152 14.1594 25.5809 14.6879 25.5809H16.7234V51.6234C16.7234 52.0594 17.0762 52.4121 17.5121 52.4121H42.9254C43.3613 52.4121 43.7141 52.0594 43.7141 51.6234V25.5809H46.0613C46.5898 25.5809 47.0187 25.152 47.0187 24.6234C47.0187 24.0949 46.5898 23.666 46.0613 23.666ZM27.9641 34.4473L29.0211 32.8969C26.5426 33.4453 24.6816 35.6602 24.6816 38.3016C24.6816 39.968 25.4211 41.5289 26.7113 42.5871C27.0477 42.8637 27.0969 43.3594 26.8215 43.6969C26.6656 43.8867 26.4395 43.9852 26.2109 43.9852C26.0352 43.9852 25.8582 43.9266 25.7117 43.807C24.0547 42.4488 23.1043 40.4426 23.1043 38.3016C23.1043 35.0039 25.3602 32.223 28.4105 31.4215L27.241 30.6246C26.8813 30.3797 26.7887 29.8887 27.0336 29.5289C27.2797 29.1691 27.7695 29.0766 28.1293 29.3215L31.0543 31.316C31.4141 31.5609 31.5066 32.052 31.2617 32.4117L29.2672 35.3367C29.1148 35.5605 28.8664 35.6813 28.6145 35.6813C28.4609 35.6813 28.3074 35.6367 28.1715 35.5441C27.8117 35.298 27.718 34.807 27.9641 34.4473ZM30.8047 45.3902L32.0504 46.5527C32.3691 46.8504 32.3855 47.3484 32.0891 47.6672C31.9344 47.8336 31.7234 47.918 31.5125 47.918C31.3203 47.918 31.127 47.8477 30.9746 47.7059L28.3871 45.2906C28.2348 45.1477 28.1445 44.9508 28.1375 44.741C28.1305 44.5324 28.2066 44.3285 28.3496 44.1762L30.7648 41.5887C31.0613 41.2699 31.5605 41.2535 31.8793 41.55C32.198 41.8477 32.2145 42.3457 31.918 42.6645L30.8563 43.8012C33.6102 43.4848 35.757 41.1398 35.757 38.3016C35.757 36.3 34.6707 34.4473 32.9223 33.4676C32.5426 33.2543 32.4066 32.7738 32.6199 32.3941C32.8332 32.0145 33.3137 31.8785 33.6934 32.0918C35.9387 33.3504 37.3344 35.7293 37.3344 38.3016C37.332 42.0281 34.4539 45.0914 30.8047 45.3902Z" fill="#00AA72"/>
</svg>
