<svg width="512" height="512" viewBox="0 0 512 512" fill="none" xmlns="http://www.w3.org/2000/svg">
<g clip-path="url(#clip0_8488_7304)">
<mask id="path-1-inside-1_8488_7304" fill="white">
<path d="M417.827 361.155L413.877 357.841L451.439 326.323L437.299 309.47L396.766 343.482L319.485 278.635C321.649 276.661 323.71 274.525 325.643 272.22C329.547 267.566 328.941 260.628 324.287 256.723C319.633 252.817 312.694 253.425 308.79 258.078C293.024 276.868 264.913 279.327 246.122 263.56C242.848 260.813 238.277 260.225 234.403 262.032C232.793 262.783 231.424 263.896 230.373 265.247L208.602 291.382C203.68 297.291 194.867 298.096 188.956 293.173C186.082 290.779 184.318 287.41 183.987 283.685C183.657 279.961 184.8 276.334 187.209 273.472L220.928 233.389C227.231 225.896 236.461 221.598 246.253 221.598H276.515C290.118 221.598 303.416 216.866 313.961 208.273L330.861 194.502L316.965 177.446L300.065 191.217C293.432 196.621 285.069 199.597 276.515 199.597H246.253C240.209 199.597 234.294 200.586 228.707 202.459L191.025 170.84L176.884 187.693L208.701 214.391C207.082 215.902 205.536 217.508 204.091 219.226L170.373 259.309C164.169 266.683 161.222 276.029 162.072 285.628C162.924 295.227 167.47 303.909 174.875 310.077C181.582 315.663 189.739 318.388 197.854 318.388C208.165 318.388 218.406 313.986 225.506 305.463L241.04 286.815C259.201 297.495 281.096 298.677 299.961 290.968L403.688 378.007C408.459 382.011 409.084 389.151 405.082 393.922C401.077 398.694 393.939 399.318 389.169 395.318C389.169 395.318 389.167 395.316 389.165 395.315L340.737 354.679C336.084 350.773 329.145 351.381 325.24 356.034C321.336 360.688 321.942 367.626 326.596 371.531L375.025 412.168C377.337 414.107 378.754 416.831 379.017 419.837C379.28 422.843 378.357 425.772 376.416 428.084C374.477 430.395 371.753 431.813 368.747 432.076C365.742 432.34 362.812 431.415 360.501 429.476L320.401 395.829C315.748 391.923 308.809 392.531 304.904 397.184C301 401.838 301.606 408.776 306.26 412.681L340.754 441.626C345.525 445.63 346.15 452.77 342.147 457.542C340.208 459.854 337.484 461.271 334.478 461.534C331.468 461.795 328.543 460.873 326.232 458.934L291.736 429.989C287.083 426.084 280.144 426.692 276.239 431.345C272.335 435.999 272.941 442.937 277.595 446.843L305.251 470.049C307.563 471.988 308.98 474.712 309.243 477.718C309.506 480.724 308.583 483.653 306.642 485.965C304.703 488.276 301.979 489.694 298.973 489.957C295.965 490.219 293.039 489.296 290.727 487.357L267.775 468.097C268.647 459.464 266.182 450.502 260.178 443.346C254.827 436.969 247.452 432.9 239.264 431.77C239.55 423.821 237.016 415.744 231.513 409.185C226.01 402.627 218.495 398.729 210.617 397.63C210.926 389.371 208.2 381.401 202.849 375.025C197.502 368.652 190.133 364.586 181.953 363.452C182.257 355.199 179.531 347.236 174.184 340.865C168.467 334.052 160.44 329.872 151.58 329.097C142.717 328.323 134.088 331.043 127.275 336.76L119.264 343.482L76.3656 307.487L62.2246 324.34L103.549 359.015C96.4076 370.866 97.1616 386.447 106.541 397.624C112.045 404.183 119.559 408.072 127.437 409.17C127.126 417.432 129.852 425.405 135.204 431.784C140.709 438.343 148.223 442.232 156.101 443.331C155.79 451.593 158.517 459.566 163.869 465.945C169.22 472.322 176.595 476.39 184.782 477.521C184.496 485.47 187.029 493.547 192.533 500.106C198.25 506.919 206.278 511.098 215.137 511.874C216.127 511.961 217.115 512.004 218.097 512.004C225.904 512.004 233.391 509.289 239.442 504.212C239.442 504.212 257.336 489.143 257.933 488.56L276.586 504.211C282.638 509.29 290.123 512.004 297.931 512.004C298.912 512.004 299.901 511.961 300.891 511.874C309.75 511.099 317.779 506.92 323.495 500.107C327.539 495.288 330.076 489.558 330.945 483.483C331.771 483.545 332.601 483.582 333.435 483.582C334.417 483.582 335.405 483.539 336.394 483.453C345.255 482.678 353.283 478.498 358.999 471.685C363.349 466.501 365.839 460.368 366.553 454.099C366.936 454.112 367.319 454.124 367.703 454.124C368.685 454.124 369.673 454.081 370.662 453.995C379.522 453.22 387.551 449.041 393.266 442.228C398.62 435.849 401.346 427.876 401.035 419.613C408.913 418.514 416.428 414.625 421.932 408.067C433.734 394 431.892 372.956 417.827 361.155ZM123.394 383.482C119.39 378.71 120.015 371.57 124.786 367.566L141.417 353.612C143.47 351.889 146.009 350.968 148.658 350.968C148.991 350.968 149.326 350.982 149.662 351.012C152.668 351.275 155.391 352.693 157.332 355.005C159.271 357.317 160.194 360.245 159.932 363.251C159.67 366.257 158.251 368.98 155.94 370.92L139.311 384.873C134.536 388.877 127.399 388.253 123.394 383.482ZM152.058 417.643C150.119 415.331 149.195 412.403 149.458 409.397C149.721 406.391 151.139 403.668 153.45 401.728L170.079 387.775C172.133 386.052 174.673 385.13 177.322 385.13C177.655 385.13 177.99 385.145 178.325 385.174C181.331 385.437 184.054 386.855 185.995 389.167C187.934 391.478 188.857 394.407 188.595 397.413C188.333 400.419 186.914 403.142 184.603 405.082L167.974 419.035C163.2 423.04 156.062 422.414 152.058 417.643ZM180.723 451.803C178.783 449.491 177.86 446.563 178.122 443.557C178.384 440.551 179.803 437.828 182.114 435.888L198.743 421.935C200.856 420.162 203.432 419.297 205.996 419.297C209.223 419.297 212.428 420.668 214.659 423.327C218.663 428.099 218.039 435.239 213.267 439.243L196.637 453.197H196.636C194.325 455.137 191.397 456.062 188.391 455.797C185.386 455.533 182.662 454.115 180.723 451.803ZM241.932 473.403L225.302 487.357C222.99 489.296 220.066 490.218 217.056 489.957C214.05 489.694 211.327 488.276 209.387 485.965C205.383 481.193 206.008 474.053 210.78 470.049H210.779L227.409 456.095C229.721 454.156 232.65 453.236 235.655 453.495C238.661 453.758 241.384 455.176 243.324 457.487C247.327 462.259 246.703 469.399 241.932 473.403Z"/>
</mask>
<path d="M417.827 361.155L413.877 357.841L451.439 326.323L437.299 309.47L396.766 343.482L319.485 278.635C321.649 276.661 323.71 274.525 325.643 272.22C329.547 267.566 328.941 260.628 324.287 256.723C319.633 252.817 312.694 253.425 308.79 258.078C293.024 276.868 264.913 279.327 246.122 263.56C242.848 260.813 238.277 260.225 234.403 262.032C232.793 262.783 231.424 263.896 230.373 265.247L208.602 291.382C203.68 297.291 194.867 298.096 188.956 293.173C186.082 290.779 184.318 287.41 183.987 283.685C183.657 279.961 184.8 276.334 187.209 273.472L220.928 233.389C227.231 225.896 236.461 221.598 246.253 221.598H276.515C290.118 221.598 303.416 216.866 313.961 208.273L330.861 194.502L316.965 177.446L300.065 191.217C293.432 196.621 285.069 199.597 276.515 199.597H246.253C240.209 199.597 234.294 200.586 228.707 202.459L191.025 170.84L176.884 187.693L208.701 214.391C207.082 215.902 205.536 217.508 204.091 219.226L170.373 259.309C164.169 266.683 161.222 276.029 162.072 285.628C162.924 295.227 167.47 303.909 174.875 310.077C181.582 315.663 189.739 318.388 197.854 318.388C208.165 318.388 218.406 313.986 225.506 305.463L241.04 286.815C259.201 297.495 281.096 298.677 299.961 290.968L403.688 378.007C408.459 382.011 409.084 389.151 405.082 393.922C401.077 398.694 393.939 399.318 389.169 395.318C389.169 395.318 389.167 395.316 389.165 395.315L340.737 354.679C336.084 350.773 329.145 351.381 325.24 356.034C321.336 360.688 321.942 367.626 326.596 371.531L375.025 412.168C377.337 414.107 378.754 416.831 379.017 419.837C379.28 422.843 378.357 425.772 376.416 428.084C374.477 430.395 371.753 431.813 368.747 432.076C365.742 432.34 362.812 431.415 360.501 429.476L320.401 395.829C315.748 391.923 308.809 392.531 304.904 397.184C301 401.838 301.606 408.776 306.26 412.681L340.754 441.626C345.525 445.63 346.15 452.77 342.147 457.542C340.208 459.854 337.484 461.271 334.478 461.534C331.468 461.795 328.543 460.873 326.232 458.934L291.736 429.989C287.083 426.084 280.144 426.692 276.239 431.345C272.335 435.999 272.941 442.937 277.595 446.843L305.251 470.049C307.563 471.988 308.98 474.712 309.243 477.718C309.506 480.724 308.583 483.653 306.642 485.965C304.703 488.276 301.979 489.694 298.973 489.957C295.965 490.219 293.039 489.296 290.727 487.357L267.775 468.097C268.647 459.464 266.182 450.502 260.178 443.346C254.827 436.969 247.452 432.9 239.264 431.77C239.55 423.821 237.016 415.744 231.513 409.185C226.01 402.627 218.495 398.729 210.617 397.63C210.926 389.371 208.2 381.401 202.849 375.025C197.502 368.652 190.133 364.586 181.953 363.452C182.257 355.199 179.531 347.236 174.184 340.865C168.467 334.052 160.44 329.872 151.58 329.097C142.717 328.323 134.088 331.043 127.275 336.76L119.264 343.482L76.3656 307.487L62.2246 324.34L103.549 359.015C96.4076 370.866 97.1616 386.447 106.541 397.624C112.045 404.183 119.559 408.072 127.437 409.17C127.126 417.432 129.852 425.405 135.204 431.784C140.709 438.343 148.223 442.232 156.101 443.331C155.79 451.593 158.517 459.566 163.869 465.945C169.22 472.322 176.595 476.39 184.782 477.521C184.496 485.47 187.029 493.547 192.533 500.106C198.25 506.919 206.278 511.098 215.137 511.874C216.127 511.961 217.115 512.004 218.097 512.004C225.904 512.004 233.391 509.289 239.442 504.212C239.442 504.212 257.336 489.143 257.933 488.56L276.586 504.211C282.638 509.29 290.123 512.004 297.931 512.004C298.912 512.004 299.901 511.961 300.891 511.874C309.75 511.099 317.779 506.92 323.495 500.107C327.539 495.288 330.076 489.558 330.945 483.483C331.771 483.545 332.601 483.582 333.435 483.582C334.417 483.582 335.405 483.539 336.394 483.453C345.255 482.678 353.283 478.498 358.999 471.685C363.349 466.501 365.839 460.368 366.553 454.099C366.936 454.112 367.319 454.124 367.703 454.124C368.685 454.124 369.673 454.081 370.662 453.995C379.522 453.22 387.551 449.041 393.266 442.228C398.62 435.849 401.346 427.876 401.035 419.613C408.913 418.514 416.428 414.625 421.932 408.067C433.734 394 431.892 372.956 417.827 361.155ZM123.394 383.482C119.39 378.71 120.015 371.57 124.786 367.566L141.417 353.612C143.47 351.889 146.009 350.968 148.658 350.968C148.991 350.968 149.326 350.982 149.662 351.012C152.668 351.275 155.391 352.693 157.332 355.005C159.271 357.317 160.194 360.245 159.932 363.251C159.67 366.257 158.251 368.98 155.94 370.92L139.311 384.873C134.536 388.877 127.399 388.253 123.394 383.482ZM152.058 417.643C150.119 415.331 149.195 412.403 149.458 409.397C149.721 406.391 151.139 403.668 153.45 401.728L170.079 387.775C172.133 386.052 174.673 385.13 177.322 385.13C177.655 385.13 177.99 385.145 178.325 385.174C181.331 385.437 184.054 386.855 185.995 389.167C187.934 391.478 188.857 394.407 188.595 397.413C188.333 400.419 186.914 403.142 184.603 405.082L167.974 419.035C163.2 423.04 156.062 422.414 152.058 417.643ZM180.723 451.803C178.783 449.491 177.86 446.563 178.122 443.557C178.384 440.551 179.803 437.828 182.114 435.888L198.743 421.935C200.856 420.162 203.432 419.297 205.996 419.297C209.223 419.297 212.428 420.668 214.659 423.327C218.663 428.099 218.039 435.239 213.267 439.243L196.637 453.197H196.636C194.325 455.137 191.397 456.062 188.391 455.797C185.386 455.533 182.662 454.115 180.723 451.803ZM241.932 473.403L225.302 487.357C222.99 489.296 220.066 490.218 217.056 489.957C214.05 489.694 211.327 488.276 209.387 485.965C205.383 481.193 206.008 474.053 210.78 470.049H210.779L227.409 456.095C229.721 454.156 232.65 453.236 235.655 453.495C238.661 453.758 241.384 455.176 243.324 457.487C247.327 462.259 246.703 469.399 241.932 473.403Z" fill="#ABFF9D" stroke="white" stroke-width="4" mask="url(#path-1-inside-1_8488_7304)"/>
<path d="M369.261 120.814C373.358 117.376 379.406 117.786 383.008 121.661L383.349 122.047L508.66 271.388C512.209 275.619 511.658 281.926 507.426 285.475L454.458 329.921C452.651 331.438 450.372 332.261 448.03 332.261C447.742 332.261 447.45 332.248 447.159 332.223H447.158C444.517 331.992 442.076 330.721 440.37 328.689L315.058 179.349C313.353 177.317 312.526 174.691 312.757 172.049C312.988 169.407 314.259 166.964 316.291 165.26L369.261 120.814ZM373.689 143.206L337.574 173.511L336.808 174.153L337.45 174.92L448.621 307.408L449.265 308.174L450.03 307.531L486.146 277.226L486.911 276.583L486.269 275.817L375.099 143.329L374.456 142.563L373.689 143.206Z" fill="#93278F" stroke="white" stroke-width="2"/>
<path d="M128.651 122.048C132.202 117.817 138.51 117.266 142.739 120.814V120.815L195.709 165.261C197.74 166.965 199.01 169.408 199.241 172.05C199.472 174.692 198.645 177.318 196.94 179.35L71.6279 328.69C69.9224 330.722 67.4804 331.993 64.8389 332.224C64.548 332.249 64.2563 332.262 63.9678 332.262C61.6259 332.262 59.3471 331.439 57.54 329.922L4.57227 285.476C0.473732 282.037 -0.171905 276.01 3.01855 271.79L3.33984 271.388L128.651 122.048ZM136.901 143.329L25.7314 275.817L25.0889 276.583L25.8545 277.226L61.9707 307.531L62.7363 308.174L63.3789 307.408L174.55 174.92L175.192 174.153L174.426 173.511L138.311 143.206L137.544 142.563L136.901 143.329Z" fill="#93278F" stroke="white" stroke-width="2"/>
<path d="M294.306 1C296.957 1 299.501 2.05331 301.377 3.92871L338.279 40.8311C340.155 42.7065 341.208 45.2507 341.208 47.9023C341.208 50.3891 340.282 52.7797 338.622 54.6123L338.28 54.9717L269.574 123.678C262.756 130.496 253.694 134.249 244.052 134.249C234.408 134.249 225.348 130.495 218.529 123.677L173.724 78.873C171.848 76.9976 170.795 74.4535 170.795 71.8018C170.795 69.1506 171.849 66.607 173.724 64.7314L210.626 27.8291C212.5 25.9539 215.045 24.9004 217.697 24.9004C220.183 24.9005 222.574 25.8271 224.408 27.4873L224.768 27.8291L243.344 46.4062L244.051 47.1133L287.235 3.92871C289.111 2.0535 291.654 1.00007 294.306 1ZM293.599 25.8486L251.122 68.3271C249.247 70.2026 246.703 71.2559 244.051 71.2559C241.399 71.2558 238.855 70.2014 236.98 68.3271L218.404 49.75L217.697 49.043L216.99 49.75L195.644 71.0957L194.937 71.8027L232.671 109.537C235.709 112.576 239.754 114.251 244.051 114.251C248.213 114.251 252.139 112.679 255.144 109.818L255.432 109.537L317.066 47.9023L294.306 25.1416L293.599 25.8486Z" fill="#93278F" stroke="white" stroke-width="2"/>
</g>
<defs>
<clipPath id="clip0_8488_7304">
<rect width="512.002" height="512.002" fill="white"/>
</clipPath>
</defs>
</svg>
