<svg width="482" height="483" viewBox="0 0 482 483" fill="none" xmlns="http://www.w3.org/2000/svg">
<g clip-path="url(#clip0_8489_7330)">
<path d="M25.252 81.2354H76.3135C81.4784 81.2354 85.6697 85.4317 85.6699 90.6123C85.6699 95.7931 81.4785 99.9902 76.3135 99.9902H25.252C20.0871 99.99 15.8965 95.793 15.8965 90.6123C15.8967 85.4318 20.0873 81.2356 25.252 81.2354Z" fill="#93278F" stroke="white" stroke-width="2"/>
<path d="M62.4775 12.9189C66.1314 9.25838 72.0544 9.25772 75.708 12.9189L97.0068 34.2607C100.661 37.9233 100.661 43.862 97.0068 47.5244C95.1796 49.3554 92.7867 50.2704 90.3916 50.2705C87.9965 50.2705 85.6037 49.3556 83.7764 47.5244L62.4775 26.1826C58.8234 22.52 58.8228 16.5813 62.4775 12.9189Z" fill="#93278F" stroke="white" stroke-width="2"/>
<path d="M83.7754 133.7C87.4292 130.039 93.3522 130.038 97.0059 133.699C100.66 137.361 100.661 143.301 97.0059 146.963L75.708 168.306C73.8796 170.137 71.4869 171.052 69.0918 171.052C66.6967 171.052 64.3049 170.137 62.4775 168.306C58.8234 164.644 58.8228 158.705 62.4775 155.042L83.7754 133.7Z" fill="#93278F" stroke="white" stroke-width="2"/>
<path d="M405.688 81.2354H456.749C461.914 81.2354 466.105 85.4317 466.105 90.6123C466.105 95.7931 461.914 99.9902 456.749 99.9902H405.688C400.523 99.99 396.332 95.793 396.332 90.6123C396.332 85.4318 400.523 81.2356 405.688 81.2354Z" fill="#93278F" stroke="white" stroke-width="2"/>
<path d="M406.295 12.9175C409.949 9.25654 415.871 9.25688 419.525 12.9175V12.9185C423.18 16.581 423.18 22.5196 419.525 26.1821L398.228 47.5249C396.399 49.3561 394.006 50.271 391.611 50.271C389.216 50.2709 386.824 49.3558 384.997 47.5249C381.342 43.8624 381.342 37.9237 384.997 34.2612L406.295 12.9175Z" fill="#93278F" stroke="white" stroke-width="2"/>
<path d="M241.001 1.06592C251.941 1.06603 261.741 7.16983 266.584 17.0024L279.471 43.1694L279.703 43.6411L280.224 43.7173L309.041 47.9136C319.867 49.4897 328.69 56.9416 332.07 67.3706C335.453 77.8 332.687 89.0262 324.852 96.6802L303.998 117.048L303.623 117.416L303.712 117.932L308.635 146.693C310.456 157.332 306.271 167.877 297.695 174.351L297.284 174.657C292.281 178.301 286.431 180.149 280.544 180.149C276.014 180.149 271.457 179.055 267.242 176.834L241.467 163.254L241.001 163.009L240.534 163.254L214.76 176.833C205.076 181.935 193.569 181.102 184.717 174.657C175.864 168.212 171.516 157.501 173.366 146.693L178.289 117.932L178.377 117.416L178.002 117.048L157.149 96.6802C149.314 89.0262 146.548 77.8 149.93 67.3706C153.311 56.9416 162.133 49.4898 172.96 47.9136L201.778 43.7173L202.299 43.6411L202.531 43.1694L215.418 17.0024C220.261 7.16975 230.061 1.06592 241.001 1.06592ZM241.001 19.8198C239.258 19.8198 234.919 20.3173 232.432 24.8521L232.197 25.3032L216.9 56.3628C215.579 59.0448 213.066 60.9281 210.141 61.4468L209.856 61.4927L175.651 66.4741C170.194 67.2681 168.281 71.4558 167.726 73.1685C167.17 74.8816 166.262 79.3939 170.209 83.2495L194.961 107.426C197.166 109.58 198.172 112.685 197.652 115.727L191.809 149.865C190.877 155.308 194.259 158.424 195.714 159.484C197.169 160.543 201.172 162.803 206.054 160.233L236.648 144.115C238.011 143.397 239.506 143.038 241.001 143.038C242.403 143.038 243.805 143.353 245.097 143.984L245.354 144.115L275.948 160.233C280.828 162.804 284.832 160.543 286.287 159.484C287.742 158.424 291.124 155.308 290.192 149.865L284.35 115.727C283.845 112.78 284.774 109.775 286.838 107.631L287.041 107.426L311.793 83.2495C315.739 79.3946 314.831 74.8814 314.275 73.1685C313.72 71.4559 311.808 67.2682 306.351 66.4741L272.145 61.4927C269.098 61.0486 266.464 59.1309 265.101 56.3628L249.804 25.3032C247.365 20.3504 242.8 19.8199 241.001 19.8198Z" fill="#93278F" stroke="white" stroke-width="2"/>
<path d="M384.997 133.699C388.537 130.153 394.206 130.042 397.879 133.367L398.228 133.699L419.525 155.043C423.18 158.705 423.18 164.644 419.525 168.307C417.698 170.138 415.304 171.053 412.91 171.053C410.515 171.053 408.123 170.138 406.296 168.307L384.997 146.963C381.342 143.3 381.342 137.362 384.997 133.699Z" fill="#93278F" stroke="white" stroke-width="2"/>
<path d="M385.786 296.761L372.469 312.656L409.796 344.059L423.113 328.164L385.786 296.761Z" fill="#93278F"/>
<path d="M96.2456 296.746L58.918 328.149L72.2357 344.045L109.563 312.642L96.2456 296.746Z" fill="#93278F"/>
<path d="M437.248 212.202C445.844 209.328 455.008 210.046 463.058 214.228C479.295 222.665 485.692 242.756 477.319 259.012C456.405 299.617 424.42 344.655 389.569 382.557L380.4 392.53L380.134 392.82L380.137 393.214L380.764 472.483C380.782 474.827 379.924 477.086 378.369 478.822L378.049 479.162C376.291 480.936 373.902 481.934 371.408 481.934H110.596C108.102 481.934 105.712 480.936 103.955 479.162C102.199 477.387 101.221 474.983 101.24 472.483L101.867 393.214L101.87 392.82L101.603 392.53L92.4346 382.557C57.5853 344.656 25.5982 299.618 4.68262 259.012C-3.69005 242.756 2.70804 222.665 18.9453 214.229C26.9934 210.047 36.1566 209.329 44.7559 212.203C53.3468 215.074 60.2366 221.152 64.1631 229.326C66.059 233.272 68.1262 237.521 70.332 242.004L72.583 246.562C82.5848 266.755 95.8565 284.921 112.029 300.551C114.409 302.852 116.943 304.933 119.609 306.787L121.839 308.336L121.147 305.71C120.002 301.364 119.386 296.805 119.386 292.102V277.189C119.386 247.76 143.281 223.819 172.644 223.819C202.007 223.819 225.901 247.76 225.901 277.189V292.102C225.901 302.085 223.146 311.431 218.366 319.43L217.763 320.441L218.857 320.874C225.117 323.346 230.868 327.092 235.772 332.004L235.773 332.005C237.377 333.611 238.849 335.316 240.206 337.096L241.001 338.139L241.797 337.096C243.154 335.316 244.626 333.61 246.229 332.004C251.134 327.091 256.885 323.346 263.146 320.874L264.24 320.441L263.637 319.43C258.857 311.431 256.102 302.085 256.102 292.102V277.189C256.102 247.76 279.996 223.819 309.36 223.819C338.723 223.819 362.617 247.76 362.617 277.189V292.102C362.617 296.804 362.001 301.364 360.856 305.71L360.164 308.336L362.394 306.787C365.06 304.933 367.594 302.851 369.975 300.551C386.147 284.921 399.419 266.755 409.421 246.562C412.466 240.415 415.3 234.615 417.841 229.325C421.646 221.406 428.23 215.454 436.447 212.48L437.248 212.202ZM454.445 230.88C451.041 229.111 447.169 228.76 443.518 229.881L443.165 229.995C439.42 231.246 436.409 233.902 434.698 237.463C432.124 242.82 429.258 248.688 426.179 254.904C415.221 277.027 400.68 296.927 382.962 314.052C371.286 325.337 356.807 332.598 340.937 335.172L340.701 335.21L340.509 335.35C331.741 341.711 320.983 345.473 309.358 345.473C298.398 345.473 288.205 342.136 279.728 336.426L279.44 336.233L279.096 336.258C271.676 336.8 264.769 339.948 259.455 345.271C253.589 351.147 250.356 358.965 250.356 367.277V463.179H361.976L361.968 462.171L361.392 389.263C361.373 386.882 362.258 384.584 363.867 382.834V382.833L375.809 369.847C409.035 333.711 439.532 290.97 459.738 252.249L460.692 250.408C464.287 243.431 461.624 234.837 454.774 231.056L454.445 230.88ZM38.835 229.994C35.0777 228.738 31.0692 229.054 27.5547 230.879C20.4644 234.563 17.6581 243.321 21.3086 250.408C41.5015 289.611 72.4387 333.138 106.192 369.847L118.134 382.833C119.743 384.584 120.628 386.883 120.609 389.262L120.033 462.17L120.025 463.178H231.646V367.276C231.646 358.964 228.413 351.146 222.547 345.27C217.233 339.948 210.325 336.8 202.905 336.257L202.561 336.232L202.273 336.425C193.796 342.135 183.603 345.472 172.644 345.472C161.019 345.472 150.261 341.71 141.493 335.349L141.301 335.209L141.065 335.171C125.195 332.596 110.716 325.337 99.04 314.052V314.051C81.3199 296.925 66.7798 277.026 55.8223 254.903C52.7293 248.659 49.8623 242.791 47.3027 237.462V237.461C45.5919 233.901 42.5816 231.245 38.835 229.994ZM172.643 242.573C153.591 242.573 138.097 258.104 138.097 277.189V292.102C138.097 311.188 153.592 326.717 172.643 326.717C191.694 326.717 207.188 311.188 207.188 292.102V277.189C207.188 258.103 191.693 242.573 172.643 242.573ZM309.359 242.573C290.307 242.573 274.812 258.104 274.812 277.189V292.102C274.813 311.188 290.308 326.717 309.359 326.717C328.411 326.717 343.904 311.188 343.904 292.102V277.189C343.904 258.103 328.41 242.573 309.359 242.573Z" fill="#89F6F6" stroke="white" stroke-width="2"/>
</g>
<defs>
<clipPath id="clip0_8489_7330">
<rect width="482" height="483" fill="white"/>
</clipPath>
</defs>
</svg>
