<svg width="24" height="24" viewBox="0 0 24 24" fill="none" xmlns="http://www.w3.org/2000/svg">
<g clip-path="url(#clip0_8019_2967)">
<path d="M23.9916 4.60353C23.9916 8.24977 22.402 10.8988 22.3351 11.0093C22.2005 11.2293 21.9674 11.35 21.7269 11.35C21.6007 11.35 21.4735 11.3166 21.3583 11.247C21.0222 11.0427 20.9145 10.6054 21.1178 10.2693C21.1327 10.2451 22.5672 7.8338 22.5672 4.60353C22.5672 2.76137 21.3695 1.42433 19.7186 1.42433C18.1476 1.42433 16.8699 2.70195 16.8699 4.27391C16.8699 4.94336 17.194 6.64438 17.3184 7.24327C17.3992 7.6286 17.1513 8.00557 16.7659 8.08635C16.3806 8.16527 16.0036 7.91922 15.9238 7.53482C15.8746 7.29991 15.4437 5.2117 15.4437 4.27391C15.4437 1.91736 17.3611 0 19.7186 0C22.1541 0 23.9916 1.97864 23.9916 4.60353ZM19.8393 5.72423C20.1225 8.09099 20.5329 12.7029 20.0612 13.1727L9.71208 23.5227C9.07606 24.1597 8.04263 24.1597 7.40568 23.5218L0.485528 16.6026C-0.151426 15.9666 -0.151426 14.9331 0.485528 14.2962L10.8356 3.94707C10.9999 3.78273 12.7901 3.7753 14.8031 3.88022C14.7919 4.013 14.7632 4.13835 14.7632 4.27391C14.7632 4.79016 14.8774 5.59053 14.9971 6.29434C14.7864 6.60724 14.6629 6.98329 14.6629 7.38904C14.6629 8.46982 15.5394 9.34633 16.6202 9.34633C17.7009 9.34633 18.5775 8.46982 18.5775 7.38904C18.5775 6.72331 18.2441 6.13649 17.7362 5.78366C17.6322 5.16435 17.5487 4.56639 17.5487 4.27391C17.5487 4.21077 17.5617 4.15227 17.5672 4.09007C17.8151 4.11606 18.0593 4.14299 18.2905 4.17177C19.6582 4.33983 19.6722 4.33705 19.8393 5.72423ZM14.323 13.4698C14.1624 13.0232 13.895 12.4875 13.3147 11.8709L14.1002 11.0845L13.2255 10.2108L12.3778 11.0594C11.2432 10.2823 10.0733 10.3454 9.2794 11.1393C8.41403 12.0046 8.6183 13.1031 9.2534 14.3798C9.6898 15.2637 9.76965 15.7725 9.43075 16.1114C9.08256 16.4596 8.52081 16.3083 8.01106 15.7994C7.43168 15.2201 7.09184 14.5042 6.92285 13.9239L5.60995 14.7019C5.76222 15.2275 6.17262 15.9768 6.75201 16.5933L5.89593 17.4503L6.76965 18.325L7.6898 17.4058C8.90336 18.2618 10.1271 18.1467 10.921 17.3528C11.7334 16.5385 11.8049 15.6286 11.1086 14.1829C10.6257 13.1467 10.5097 12.6379 10.7956 12.3528C11.0463 12.1021 11.492 12.0306 12.0723 12.611C12.7158 13.2544 12.9294 13.8793 13.0454 14.2098L14.323 13.4698Z" fill="#00AA72"/>
</g>
<defs>
<clipPath id="clip0_8019_2967">
<rect width="24" height="24" fill="white"/>
</clipPath>
</defs>
</svg>
