<svg width="19" height="24" viewBox="0 0 19 24" fill="none" xmlns="http://www.w3.org/2000/svg">
<path d="M9.18 0C4.11811 0 0 4.11816 0 9.18C0 14.2418 4.11816 18.36 9.18 18.36C14.2418 18.36 18.36 14.2418 18.36 9.18C18.36 4.11816 14.2419 0 9.18 0ZM13.4878 15.1091L9.18 13.0706L4.87223 15.1091L5.47983 10.3823L2.20992 6.91538L6.89316 6.03258L9.18 1.85123L11.4668 6.03248L16.1501 6.91528L12.8802 10.3823L13.4878 15.1091Z" fill="#00AA72"/>
<path d="M10.5533 7.29096L9.18094 4.78174L7.80858 7.29096L4.99805 7.82074L6.96042 9.90133L6.59578 12.738L9.18094 11.5146L11.7661 12.738L11.4015 9.90133L13.3638 7.82074L10.5533 7.29096Z" fill="#00AA72"/>
<path d="M2.76758 20.787C3.38844 20.6968 3.983 20.4867 4.52394 20.1662V18.6926C3.90758 18.3903 3.31963 18.0266 2.76758 17.6045V20.787Z" fill="#00AA72"/>
<path d="M13.8359 20.1662C14.3769 20.4867 14.9714 20.6968 15.5923 20.787V17.6045C15.0402 18.0266 14.4523 18.3903 13.8359 18.6926V20.1662Z" fill="#00AA72"/>
<path d="M5.92969 19.2598V24C6.97073 23.8497 7.92797 23.3662 8.67769 22.6013L9.17981 22.089L9.68194 22.6013C10.4317 23.3661 11.3889 23.8497 12.4299 24V19.2598C11.3933 19.5928 10.3 19.7662 9.17981 19.7662C8.05964 19.7662 6.96628 19.5928 5.92969 19.2598Z" fill="#00AA72"/>
</svg>
