<svg width="60" height="39" viewBox="0 0 60 39" fill="none" xmlns="http://www.w3.org/2000/svg">
<path d="M59.5012 2.125V19.125C59.5012 19.6886 59.2773 20.2291 58.8788 20.6276C58.4803 21.0261 57.9398 21.25 57.3762 21.25C56.8126 21.25 56.2721 21.0261 55.8736 20.6276C55.4751 20.2291 55.2512 19.6886 55.2512 19.125V7.25422L33.3796 29.1284C33.1823 29.326 32.9479 29.4828 32.6899 29.5897C32.432 29.6966 32.1554 29.7517 31.8762 29.7517C31.5969 29.7517 31.3204 29.6966 31.0624 29.5897C30.8045 29.4828 30.5701 29.326 30.3727 29.1284L21.2512 20.0042L3.62962 37.6284C3.23088 38.0272 2.69008 38.2512 2.12618 38.2512C1.56228 38.2512 1.02148 38.0272 0.622744 37.6284C0.224008 37.2297 0 36.6889 0 36.125C0 35.5611 0.224008 35.0203 0.622744 34.6216L19.7477 15.4966C19.9451 15.299 20.1795 15.1423 20.4374 15.0353C20.6954 14.9284 20.9719 14.8733 21.2512 14.8733C21.5304 14.8733 21.807 14.9284 22.0649 15.0353C22.3229 15.1423 22.5573 15.299 22.7546 15.4966L31.8762 24.6208L52.247 4.25H40.3762C39.8126 4.25 39.2721 4.02612 38.8736 3.6276C38.4751 3.22909 38.2512 2.68859 38.2512 2.125C38.2512 1.56141 38.4751 1.02091 38.8736 0.622398C39.2721 0.223884 39.8126 0 40.3762 0H57.3762C57.9398 0 58.4803 0.223884 58.8788 0.622398C59.2773 1.02091 59.5012 1.56141 59.5012 2.125Z" fill="#2A2A2A"/>
</svg>
