<svg width="24" height="24" viewBox="0 0 24 24" fill="none" xmlns="http://www.w3.org/2000/svg">
<path fill-rule="evenodd" clip-rule="evenodd" d="M21.75 18.7505H16.999C15.48 18.7505 14.249 17.5195 14.249 16.0005V14.0005C14.249 12.4815 15.48 11.2505 16.999 11.2505H21.75V10.0005C21.75 9.27149 21.46 8.57149 20.945 8.05549C20.429 7.54049 19.729 7.25049 19 7.25049C15.537 7.25049 8.463 7.25049 5 7.25049C4.271 7.25049 3.571 7.54049 3.055 8.05549C2.54 8.57149 2.25 9.27149 2.25 10.0005V20.0005C2.25 20.7295 2.54 21.4295 3.055 21.9455C3.571 22.4605 4.271 22.7505 5 22.7505H19C19.729 22.7505 20.429 22.4605 20.945 21.9455C21.46 21.4295 21.75 20.7295 21.75 20.0005V18.7505ZM21.75 12.7505V17.2505H16.999C16.309 17.2505 15.749 16.6905 15.749 16.0005V14.0005C15.749 13.3105 16.309 12.7505 16.999 12.7505H21.75ZM17.5 14.0005C18.052 14.0005 18.5 14.4485 18.5 15.0005C18.5 15.5525 18.052 16.0005 17.5 16.0005C16.948 16.0005 16.5 15.5525 16.5 15.0005C16.5 14.4485 16.948 14.0005 17.5 14.0005Z" fill="#00AA72"/>
<path fill-rule="evenodd" clip-rule="evenodd" d="M16.0887 6.25032H19.0007C19.1917 6.25032 19.3817 6.26532 19.5687 6.29332L20.0427 5.27532C20.2177 4.90032 20.0557 4.45432 19.6807 4.27932L13.3357 1.32032C12.9607 1.14532 12.5147 1.30832 12.3397 1.68332L11.8027 2.83432L15.1027 4.37232C15.8327 4.71332 16.2177 5.49332 16.0887 6.25032Z" fill="#00AA72"/>
<path fill-rule="evenodd" clip-rule="evenodd" d="M5.67578 6.25032H15.0548C15.2108 5.88032 15.0478 5.45032 14.6808 5.27932L8.33578 2.32032C7.96078 2.14532 7.51478 2.30832 7.33978 2.68332L5.67578 6.25032Z" fill="#00AA72"/>
</svg>
