<svg width="90" height="90" viewBox="0 0 90 90" fill="none" xmlns="http://www.w3.org/2000/svg">
<path d="M32.3824 -0.000976562H8.09564C3.63068 -0.000976562 0 3.6297 0 8.09467V32.3814C0 36.8462 3.63068 40.4771 8.09564 40.4771H32.3824C36.8472 40.4771 40.478 36.8464 40.478 32.3814V8.09467C40.4778 3.6297 36.8472 -0.000976562 32.3824 -0.000976562Z" fill="#00AA72"/>
<path d="M80.9586 -0.000732422H56.6718C52.2068 -0.000732422 48.5762 3.62995 48.5762 8.09491V32.3817C48.5762 36.8464 52.2068 40.4773 56.6718 40.4773H80.9586C85.4233 40.4773 89.0542 36.8466 89.0542 32.3817V8.09491C89.054 3.62995 85.4233 -0.000732422 80.9586 -0.000732422Z" fill="#00AA72"/>
<path d="M32.3824 48.5725H8.09564C3.63068 48.5725 0 52.2032 0 56.6682V80.9549C0 85.4197 3.63068 89.0505 8.09564 89.0505H32.3824C36.8472 89.0505 40.478 85.4199 40.478 80.9549V56.6682C40.4778 52.2032 36.8472 48.5725 32.3824 48.5725Z" fill="#00AA72"/>
<path d="M78.9349 64.7629H72.8632V58.6912C72.8632 57.5725 71.9579 56.6672 70.8392 56.6672H66.7915C65.6728 56.6672 64.7675 57.5725 64.7675 58.6912V64.7629H58.6958C57.5771 64.7629 56.6719 65.6681 56.6719 66.7868V70.8346C56.6719 71.9533 57.5771 72.8585 58.6958 72.8585H64.7675V78.9302C64.7675 80.0489 65.6728 80.9542 66.7915 80.9542H70.8392C71.9579 80.9542 72.8632 80.0489 72.8632 78.9302V72.8585H78.9349C80.0536 72.8585 80.9588 71.9533 80.9588 70.8346V66.7868C80.9588 65.6681 80.0536 64.7629 78.9349 64.7629Z" fill="#00AA72"/>
</svg>
