<svg width="40" height="40" viewBox="0 0 40 40" fill="none" xmlns="http://www.w3.org/2000/svg">
<path d="M0 16.667V30.0003C0 34.5953 3.73833 38.3337 8.33333 38.3337H31.6667C36.2617 38.3337 40 34.5953 40 30.0003V16.667H0ZM15 31.667C15 32.5887 14.2533 33.3337 13.3333 33.3337C12.4133 33.3337 11.6667 32.5887 11.6667 31.667V28.3337C11.6667 27.412 12.4133 26.667 13.3333 26.667C14.2533 26.667 15 27.412 15 28.3337V31.667ZM21.6667 31.667C21.6667 32.5887 20.92 33.3337 20 33.3337C19.08 33.3337 18.3333 32.5887 18.3333 31.667V21.667C18.3333 20.7453 19.08 20.0003 20 20.0003C20.92 20.0003 21.6667 20.7453 21.6667 21.667V31.667ZM28.3333 31.667C28.3333 32.5887 27.5867 33.3337 26.6667 33.3337C25.7467 33.3337 25 32.5887 25 31.667V25.0003C25 24.0787 25.7467 23.3337 26.6667 23.3337C27.5867 23.3337 28.3333 24.0787 28.3333 25.0003V31.667ZM31.6667 1.66699H8.33333C3.73833 1.66699 0 5.40533 0 10.0003V13.3337H40V10.0003C40 5.40533 36.2617 1.66699 31.6667 1.66699ZM7.5 10.0003C6.12 10.0003 5 8.88032 5 7.50033C5 6.12033 6.12 5.00033 7.5 5.00033C8.88 5.00033 10 6.12033 10 7.50033C10 8.88032 8.88 10.0003 7.5 10.0003ZM14.1667 10.0003C12.7867 10.0003 11.6667 8.88032 11.6667 7.50033C11.6667 6.12033 12.7867 5.00033 14.1667 5.00033C15.5467 5.00033 16.6667 6.12033 16.6667 7.50033C16.6667 8.88032 15.5467 10.0003 14.1667 10.0003Z" fill="#00AA72"/>
</svg>
