<svg width="32" height="32" viewBox="0 0 32 32" fill="none" xmlns="http://www.w3.org/2000/svg">
<g clip-path="url(#clip0_488_3024)">
<path d="M16 32C24.8227 32 32 24.8227 32 16C32 7.17733 24.8227 0 16 0C7.17733 0 0 7.17733 0 16C0 24.8227 7.17733 32 16 32ZM9.44933 14.2L15.264 8.30933C15.6707 7.89733 16.3293 7.89733 16.736 8.30933L22.5507 14.2C23.2067 14.864 22.7413 16 21.8147 16L17.3333 16V22.6667C17.3333 23.4027 16.736 24 16 24C15.264 24 14.6667 23.4027 14.6667 22.6667L14.6667 16H10.1853C9.25867 16 8.79333 14.864 9.44933 14.2Z" fill="#00AA72"/>
</g>
<defs>
<clipPath id="clip0_488_3024">
<rect width="32" height="32" fill="white" transform="matrix(-1 0 0 -1 32 32)"/>
</clipPath>
</defs>
</svg>
