<svg width="32" height="32" viewBox="0 0 32 32" fill="none" xmlns="http://www.w3.org/2000/svg">
<path d="M16 0C7.17733 0 0 7.17733 0 16C0 24.8227 7.17733 32 16 32C24.8227 32 32 24.8227 32 16C32 7.17733 24.8227 0 16 0ZM22.5507 17.8L16.736 23.6907C16.3293 24.1027 15.6707 24.1027 15.264 23.6907L9.44933 17.8C8.79333 17.136 9.25867 16 10.1853 16H14.6667V9.33333C14.6667 8.59733 15.264 8 16 8C16.736 8 17.3333 8.59733 17.3333 9.33333V16H21.8147C22.7413 16 23.2067 17.136 22.5507 17.8Z" fill="#00AA72"/>
</svg>
