<svg width="87" height="87" viewBox="0 0 87 87" fill="none" xmlns="http://www.w3.org/2000/svg">
<g clip-path="url(#clip0_7975_11084)">
<path d="M86.7752 38.6208L75.6429 8.40637C74.1095 4.234 69.7196 1.95025 65.4059 3.09575L47.125 7.97137V3.625C47.125 1.624 45.501 0 43.5 0C41.499 0 39.875 1.624 39.875 3.625V9.9035L20.8292 14.9821C16.2799 16.1965 12.5896 19.5605 10.9584 23.9794L0.22475 53.1208C0.076125 53.5231 0 55.4661 0 55.4661C0 64.5504 7.25 72.4964 16.3234 72.4964C20.5211 72.4964 24.476 70.9231 27.5391 68.0159C30.769 64.9491 32.6214 60.6354 32.6214 56.1839C32.6214 56.1839 32.5452 53.5304 32.4039 53.1316L21.2787 22.533C21.7283 22.3046 22.2031 22.1197 22.6998 21.9893L39.875 17.4072V79.75H18.125C16.124 79.75 14.5 81.374 14.5 83.375C14.5 85.376 16.124 87 18.125 87H68.875C70.876 87 72.5 85.376 72.5 83.375C72.5 81.374 70.876 79.75 68.875 79.75H47.125V15.4715L64.873 10.7372L54.5998 38.6171C54.4511 39.0195 54.375 40.9625 54.375 40.9625C54.375 50.0467 61.1574 57.5179 69.8175 57.971C74.3451 58.2102 78.6407 56.6261 81.9177 53.5159C85.1476 50.4491 87 46.1354 87 41.6839C87 41.6839 86.9239 39.0195 86.7752 38.6171V38.6208ZM15.8195 65.2391C11.9009 65.0325 8.62025 61.9694 7.60525 58H25.1937C24.8312 59.8089 23.925 61.4582 22.5511 62.7596C20.7314 64.4924 18.328 65.3877 15.8231 65.2355L15.8195 65.2391ZM23.8235 50.75H8.82325L16.3741 30.2579L23.8235 50.75ZM70.6875 15.9246L78.1768 36.25H63.1982L70.6875 15.9246ZM70.1945 50.7391C66.2759 50.5325 62.9952 47.4694 61.9802 43.5H79.5651C79.2026 45.3089 78.2964 46.9582 76.9225 48.2596C75.1027 49.9924 72.6994 50.8696 70.1945 50.7391Z" fill="#00AA72"/>
</g>
<defs>
<clipPath id="clip0_7975_11084">
<rect width="87" height="87" fill="white"/>
</clipPath>
</defs>
</svg>
