<svg width="93" height="93" viewBox="0 0 93 93" fill="none" xmlns="http://www.w3.org/2000/svg">
<g clip-path="url(#clip0_7975_11082)">
<path d="M85.064 50.1815C84.01 61.3105 78.2246 71.0793 69.75 77.4615V73.6213C69.75 67.2121 64.5342 61.9963 58.125 61.9963H34.875C28.4657 61.9963 23.25 67.2121 23.25 73.6213V77.4227C13.8609 70.3431 7.75 59.1366 7.75 46.4963C7.75 26.3773 23.1725 9.80009 42.8188 7.93621C44.4928 4.99896 46.6395 2.37171 49.1466 0.131963C48.267 0.0815879 47.3951 -0.00366211 46.5 -0.00366211C20.8591 0.000212891 0 20.8593 0 46.5002C0 72.1411 20.8591 93.0002 46.5 93.0002C72.1409 93.0002 93 72.1411 93 46.5002C93 45.609 92.9147 44.7371 92.8644 43.8536C90.6285 46.3607 88.0051 48.5075 85.064 50.1815ZM31 81.9913V73.6252C31 71.4862 32.736 69.7502 34.875 69.7502H58.125C60.264 69.7502 62 71.4862 62 73.6252V81.972C57.2454 84.0606 52.0141 85.2502 46.5 85.2502C40.9859 85.2502 35.7508 84.0761 31 81.9913ZM69.75 46.5002C82.5724 46.5002 93 36.0726 93 23.2502C93 10.4278 82.5724 0.000212891 69.75 0.000212891C56.9276 0.000212891 46.5 10.4278 46.5 23.2502C46.5 36.0726 56.9276 46.5002 69.75 46.5002ZM54.25 23.2502C54.25 20.3827 55.0831 17.7322 56.4471 15.4266L77.5775 36.557C75.2719 37.9171 72.6175 38.7541 69.7539 38.7541C61.2056 38.7541 54.2539 31.8023 54.2539 23.2541L54.25 23.2502ZM85.25 23.2502C85.25 26.1177 84.4169 28.7682 83.0529 31.0738L61.9225 9.94346C64.2281 8.58334 66.8825 7.74634 69.7461 7.74634C78.2944 7.74634 85.2461 14.6981 85.2461 23.2463L85.25 23.2502ZM40.6178 33.7631C39.4708 35.1155 38.75 36.8398 38.75 38.7502C38.75 43.0243 42.2259 46.5002 46.5 46.5002C47.3254 46.5002 48.1042 46.3375 48.8483 46.0972C50.9601 48.0308 53.3355 49.6738 55.9279 50.9681C53.3084 52.9947 50.065 54.2502 46.5 54.2502C37.9517 54.2502 31 47.2985 31 38.7502C31 32.9958 34.1891 28.0203 38.8546 25.3466C39.0522 28.2838 39.6567 31.1048 40.6178 33.7631Z" fill="#00AA72"/>
</g>
<defs>
<clipPath id="clip0_7975_11082">
<rect width="93" height="93" fill="white"/>
</clipPath>
</defs>
</svg>
