<svg width="66" height="66" viewBox="0 0 66 66" fill="none" xmlns="http://www.w3.org/2000/svg">
<path fill-rule="evenodd" clip-rule="evenodd" d="M6.12117 12.2434H11.8304C13.3116 12.2434 14.5168 11.0382 14.5168 9.55704V5.17681L6.12117 12.2434ZM49.0508 42.8432C48.6461 43.2506 48.2232 43.6631 47.7811 44.0962C44.6886 47.1216 41.185 50.5518 41.185 54.3429C41.185 59.2968 45.8965 63.3264 51.687 63.3264C57.48 63.3264 62.1915 59.2968 62.1915 54.3429C62.1915 50.5518 58.6853 47.1216 55.5954 44.0962C55.1507 43.6631 54.7291 43.2506 54.3244 42.8432H49.0508ZM48.1201 50.6343C48.1201 49.0965 49.3177 47.8074 50.9135 47.4864V45.6843C50.9135 45.2576 51.2603 44.9109 51.687 44.9109C52.1149 44.9109 52.4604 45.2576 52.4604 45.6843V47.4864C54.0575 47.8074 55.2551 49.0965 55.2551 50.6343C55.2551 51.061 54.9083 51.4077 54.4816 51.4077C54.0537 51.4077 53.7082 51.061 53.7082 50.6343C53.7082 49.71 52.802 48.9572 51.687 48.9572C50.5732 48.9572 49.667 49.71 49.667 50.6343C49.667 51.3549 50.5848 51.7893 51.9834 52.3707C53.4414 52.9752 55.2551 53.7281 55.2551 55.5353C55.2551 57.0732 54.0575 58.3622 52.4604 58.6819V60.4853C52.4604 60.912 52.1149 61.2588 51.687 61.2588C51.2603 61.2588 50.9135 60.912 50.9135 60.4853V58.6819C49.3177 58.3622 48.1201 57.0732 48.1201 55.5353C48.1201 55.1074 48.4669 54.7619 48.8936 54.7619C49.3202 54.7619 49.667 55.1074 49.667 55.5353C49.667 56.4596 50.5732 57.2124 51.687 57.2124C52.802 57.2124 53.7082 56.4596 53.7082 55.5353C53.7082 54.8147 52.7904 54.3803 51.3905 53.799C49.9338 53.1944 48.1201 52.4416 48.1201 50.6343ZM47.7734 37.977L49.2326 41.2963H54.0137L55.4729 37.977H47.7734ZM17.5938 51.7223H9.94324V59.3729H17.5938V51.7223ZM11.262 54.9449C11.5636 54.6433 12.0534 54.6433 12.3551 54.9449L13.153 55.7416L15.182 53.7126C15.4836 53.4109 15.9735 53.4109 16.2764 53.7126C16.578 54.0155 16.578 54.5041 16.2764 54.807L13.6996 57.3825C13.5487 57.5334 13.3515 57.6094 13.153 57.6094C12.9545 57.6094 12.7573 57.5334 12.6064 57.3825L11.262 56.0381C10.9603 55.7364 10.9603 55.2466 11.262 54.9449ZM17.5938 36.7485H9.94324V44.3991H17.5938V36.7485ZM11.262 39.9712C11.5636 39.6695 12.0534 39.6695 12.3551 39.9712L13.153 40.7678L15.182 38.7388C15.4836 38.4372 15.9735 38.4372 16.2764 38.7388C16.578 39.0405 16.578 39.5303 16.2764 39.8333L13.6996 42.4088C13.5487 42.5596 13.3515 42.6357 13.153 42.6357C12.9545 42.6357 12.7573 42.5596 12.6064 42.4088L11.262 41.0643C10.9603 40.7627 10.9603 40.2728 11.262 39.9712ZM35.4783 11.684L34.933 12.8906L36.0829 12.9112L35.4783 11.684ZM22.8429 12.0217H23.2954C23.7865 12.0217 24.1861 11.6221 24.1861 11.131C24.1861 10.6411 23.7865 10.2415 23.2954 10.2415H22.8429V12.0217ZM16.2764 24.8595L13.6996 27.435C13.5487 27.5859 13.3515 27.6619 13.153 27.6619C12.9545 27.6619 12.7573 27.5859 12.6064 27.435L11.262 26.0906C10.9603 25.7889 10.9603 25.2991 11.262 24.9974C11.5636 24.6945 12.0534 24.6945 12.3551 24.9974L13.153 25.7941L15.182 23.7651C15.4836 23.4634 15.9735 23.4634 16.2764 23.7651C16.578 24.0667 16.578 24.5566 16.2764 24.8595ZM17.5938 21.7748H9.94324V29.4254H17.5938V21.7748ZM16.0637 9.55704V4.28735H50.9135V36.4301H46.5887C46.327 36.4301 46.0834 36.5616 45.9403 36.7808C45.7972 36.9986 45.7753 37.2757 45.8797 37.5142L47.8082 41.8983C47.4537 42.2515 47.085 42.6138 46.6996 42.9902C43.3893 46.2296 39.6381 49.9008 39.6381 54.3429C39.6381 58.1405 41.9494 61.474 45.4066 63.3264H4.77539V13.7903H11.8304C14.1636 13.7903 16.0637 11.8915 16.0637 9.55704ZM21.296 15.2096V9.4681C21.296 9.04013 21.6415 8.69466 22.0695 8.69466H23.2954C24.6398 8.69466 25.733 9.78778 25.733 11.131C25.733 12.4755 24.6398 13.5686 23.2954 13.5686H22.8429V15.2096C22.8429 15.6363 22.4961 15.983 22.0695 15.983C21.6415 15.983 21.296 15.6363 21.296 15.2096ZM26.5747 15.2096C26.5747 15.6363 26.9215 15.983 27.3482 15.983H30.625C31.0529 15.983 31.3984 15.6363 31.3984 15.2096C31.3984 14.7816 31.0529 14.4361 30.625 14.4361H28.1216V9.59442C28.1216 9.16774 27.7748 8.82099 27.3482 8.82099C26.9215 8.82099 26.5747 9.16774 26.5747 9.59442V15.2096ZM32.3304 14.8899L33.0304 13.3417C33.0342 13.3327 33.0394 13.3237 33.0432 13.3134L34.7435 9.55575C34.8673 9.28247 35.1367 9.10587 35.4357 9.10071C35.7387 9.09942 36.0094 9.26442 36.1421 9.53255L38.7332 14.7906C38.9227 15.1748 38.7641 15.6375 38.3812 15.827C37.9984 16.0152 37.5343 15.858 37.3461 15.4751L36.8511 14.4709L34.2382 14.4258L33.7393 15.528C33.6104 15.8141 33.3294 15.983 33.0342 15.983C32.9272 15.983 32.8189 15.9611 32.7158 15.9134C32.3265 15.7381 32.1538 15.2792 32.3304 14.8899ZM39.8946 15.2096C39.8946 15.6363 40.2401 15.983 40.668 15.983C41.0947 15.983 41.4415 15.6363 41.4415 15.2096V11.7845L44.2864 15.6247C44.485 15.8928 44.8343 16.0036 45.1501 15.8979C45.4672 15.7935 45.6812 15.497 45.6812 15.1632V9.30567C45.6812 8.87899 45.3357 8.53224 44.9078 8.53224C44.4811 8.53224 44.1343 8.87899 44.1343 9.30567V12.8209L41.2894 8.98212C41.0896 8.71399 40.7415 8.60314 40.4244 8.70755C40.1086 8.81196 39.8946 9.10845 39.8946 9.44231V15.2096ZM9.77309 20.2279C9.01383 20.2279 8.39637 20.8454 8.39637 21.6046V29.5955C8.39637 30.3548 9.01383 30.9722 9.77309 30.9722H17.764C18.5232 30.9722 19.1407 30.3548 19.1407 29.5955V21.6046C19.1407 20.8454 18.5232 20.2279 17.764 20.2279H9.77309ZM9.77309 35.2016H17.764C18.5232 35.2016 19.1407 35.8191 19.1407 36.5784V44.5693C19.1407 45.3285 18.5232 45.946 17.764 45.946H9.77309C9.01383 45.946 8.39637 45.3285 8.39637 44.5693V36.5784C8.39637 35.8191 9.01383 35.2016 9.77309 35.2016ZM23.5403 28.0525C23.1136 28.0525 22.7668 28.398 22.7668 28.8259C22.7668 29.2526 23.1136 29.5994 23.5403 29.5994H41.0651C41.4918 29.5994 41.8385 29.2526 41.8385 28.8259C41.8385 28.398 41.4918 28.0525 41.0651 28.0525H23.5403ZM23.5403 37.4395C23.1136 37.4395 22.7668 37.7849 22.7668 38.2129C22.7668 38.6396 23.1136 38.9863 23.5403 38.9863H41.97C42.398 38.9863 42.7434 38.6396 42.7434 38.2129C42.7434 37.7849 42.398 37.4395 41.97 37.4395H23.5403ZM23.5403 42.45H41.0651C41.4918 42.45 41.8385 42.7955 41.8385 43.2235C41.8385 43.6502 41.4918 43.9969 41.0651 43.9969H23.5403C23.1136 43.9969 22.7668 43.6502 22.7668 43.2235C22.7668 42.7955 23.1136 42.45 23.5403 42.45ZM23.5403 52.0097C23.1136 52.0097 22.7668 52.3565 22.7668 52.7832C22.7668 53.2099 23.1136 53.5566 23.5403 53.5566H35.8869C36.3136 53.5566 36.6604 53.2099 36.6604 52.7832C36.6604 52.3565 36.3136 52.0097 35.8869 52.0097H23.5403ZM36.2298 57.0203H23.5403C23.1136 57.0203 22.7668 57.3671 22.7668 57.7938C22.7668 58.2204 23.1136 58.5672 23.5403 58.5672H36.2298C36.6578 58.5672 37.0032 58.2204 37.0032 57.7938C37.0032 57.3671 36.6578 57.0203 36.2298 57.0203ZM23.5403 23.0419C23.1136 23.0419 22.7668 23.3874 22.7668 23.8154C22.7668 24.242 23.1136 24.5888 23.5403 24.5888H46.5191C46.9471 24.5888 47.2925 24.242 47.2925 23.8154C47.2925 23.3874 46.9471 23.0419 46.5191 23.0419H23.5403ZM9.77437 50.1754H17.764C18.5232 50.1754 19.1407 50.7929 19.1407 51.5521V59.543C19.1407 60.3023 18.5232 60.9197 17.764 60.9197H9.77437C9.01512 60.9197 8.39637 60.3023 8.39637 59.543V51.5521C8.39637 50.7929 9.01512 50.1754 9.77437 50.1754Z" fill="#00AA72"/>
</svg>
