<svg width="90" height="90" viewBox="0 0 90 90" fill="none" xmlns="http://www.w3.org/2000/svg">
<g clip-path="url(#clip0_7975_11086)">
<path d="M76.875 7.5H67.5V0H56.25V7.5H33.75V0H22.5V7.5H13.125C5.8875 7.5 0 13.3875 0 20.625V90H90V20.625C90 13.3875 84.1125 7.5 76.875 7.5ZM11.25 78.75V33.75H78.75V78.75H11.25ZM50.3138 50.6512H61.1325V55.38L53.4862 59.805L56.655 69.435L52.89 72.0637L45.06 66.0075L37.1588 72.1163L33.5213 69.3787L36.6188 59.6962L28.9163 55.4137V50.655H39.795L42.6375 39.7537H47.4713L50.3138 50.655V50.6512Z" fill="#00AA72"/>
</g>
<defs>
<clipPath id="clip0_7975_11086">
<rect width="90" height="90" fill="white"/>
</clipPath>
</defs>
</svg>
