<svg width="122" height="122" viewBox="0 0 122 122" fill="none" xmlns="http://www.w3.org/2000/svg">
<path d="M80.6286 26.9176C80.6397 26.1971 80.4251 25.4911 80.0149 24.8986C79.6047 24.3061 79.0195 23.8568 78.3411 23.6134C75.9794 22.7756 73.8422 21.4054 72.095 19.6089C70.3479 17.8124 69.0377 15.6378 68.266 13.2536C68.0442 12.5696 67.614 11.9722 67.0356 11.5451C66.4571 11.118 65.7595 10.8827 65.0406 10.8721H64.9847C64.2737 10.8727 63.5801 11.0927 62.9988 11.5021C62.4174 11.9115 61.9766 12.4903 61.7364 13.1596C60.8986 15.5213 59.5283 17.6586 57.7318 19.4057C55.9353 21.1528 53.7608 22.463 51.3766 23.2347C50.8644 23.4009 50.3984 23.6851 50.0161 24.0643C49.6338 24.4435 49.3458 24.9072 49.1755 25.418H21.6035C18.5711 25.4214 15.6639 26.6275 13.5197 28.7717C11.3755 30.9159 10.1694 33.8231 10.166 36.8555V85.1472C10.1694 88.1796 11.3755 91.0868 13.5197 93.231C15.6639 95.3752 18.5711 96.5813 21.6035 96.5847H30.2986L34.9549 101.907C35.3596 102.37 35.5827 102.964 35.5827 103.579V105.562C35.5847 107.225 36.2462 108.819 37.4222 109.995C38.5981 111.171 40.1925 111.833 41.8555 111.835H61.0807C62.7437 111.833 64.3381 111.171 65.514 109.995C66.69 108.819 67.3515 107.225 67.3535 105.562V104.418C67.3537 103.936 67.4912 103.463 67.75 103.056L71.2855 97.5022C71.4761 97.2023 71.6439 96.8897 71.8243 96.5847H74.9785C78.0109 96.5813 80.9181 95.3752 83.0623 93.231C85.2066 91.0868 86.4127 88.1796 86.416 85.1472V36.8555C86.4177 34.8349 85.8828 32.8502 84.866 31.1041C83.8492 29.358 82.3869 27.9133 80.6286 26.9176ZM64.9288 18.3369C66.8198 21.8803 69.6748 24.8163 73.1638 26.8058C69.6205 28.6968 66.6845 31.5518 64.6949 35.0408C62.8039 31.4975 59.9489 28.5615 56.4599 26.5719C60.0032 24.6809 62.9393 21.8259 64.9288 18.3369ZM66.9951 94.7725L63.4622 100.326C62.6823 101.548 62.2686 102.968 62.2702 104.418V105.562C62.2695 105.877 62.144 106.179 61.921 106.402C61.6981 106.625 61.396 106.751 61.0807 106.751H41.8555C41.5402 106.751 41.2381 106.625 41.0152 106.402C40.7922 106.179 40.6667 105.877 40.666 105.562V103.579C40.6665 101.732 39.9964 99.9474 38.7801 98.557L23.4208 81.0043C23.069 80.6036 22.8748 80.0887 22.8743 79.5555C22.87 79.1648 22.9718 78.7803 23.1687 78.4428C23.3656 78.1053 23.6504 77.8276 23.9927 77.6391C24.328 77.45 24.7057 77.3486 25.0907 77.3443C25.487 77.3457 25.8751 77.4575 26.2116 77.6671L31.7321 80.9712C32.1177 81.2029 32.5579 81.3281 33.0077 81.334C33.4575 81.3399 33.9009 81.2263 34.2924 81.0048C34.684 80.7833 35.0097 80.4618 35.2364 80.0733C35.4631 79.6847 35.5826 79.2429 35.5827 78.793V58.7317C35.5593 58.0983 35.7551 57.4764 36.1371 56.9707C36.5192 56.465 37.064 56.1067 37.6796 55.9562C38.0454 55.8911 38.421 55.9071 38.7799 56.0029C39.1389 56.0988 39.4725 56.2721 39.7572 56.5108C40.0419 56.7495 40.2708 57.0477 40.4279 57.3844C40.5849 57.7211 40.6662 58.0882 40.666 58.4597V73.7097C40.666 74.3838 40.9338 75.0303 41.4105 75.5069C41.8871 75.9836 42.5336 76.2514 43.2077 76.2514C43.8818 76.2514 44.5283 75.9836 45.0049 75.5069C45.4816 75.0303 45.7494 74.3838 45.7494 73.7097V51.1067C45.7259 50.4733 45.9218 49.8514 46.3038 49.3457C46.6858 48.84 47.2306 48.4817 47.8462 48.3312C48.212 48.2661 48.5876 48.2821 48.9466 48.3779C49.3055 48.4738 49.6391 48.6471 49.9239 48.8858C50.2086 49.1245 50.4375 49.4227 50.5945 49.7594C50.7515 50.0961 50.8328 50.4632 50.8327 50.8347V73.7097C50.8327 74.3838 51.1005 75.0303 51.5771 75.5069C52.0538 75.9836 52.7003 76.2514 53.3744 76.2514C54.0484 76.2514 54.6949 75.9836 55.1716 75.5069C55.6482 75.0303 55.916 74.3838 55.916 73.7097V58.4597C55.9158 58.0907 55.996 57.7261 56.1509 57.3912C56.3059 57.0563 56.5319 56.7591 56.8132 56.5204C57.0976 56.2768 57.4327 56.0998 57.7941 56.0022C58.1555 55.9046 58.5342 55.8889 58.9025 55.9562C59.5181 56.1067 60.0629 56.465 60.4449 56.9707C60.8269 57.4764 61.0228 58.0983 60.9994 58.7317V73.7097C60.9994 74.3838 61.2671 75.0303 61.7438 75.5069C62.2204 75.9836 62.8669 76.2514 63.541 76.2514C64.2151 76.2514 64.8616 75.9836 65.3382 75.5069C65.8149 75.0303 66.0827 74.3838 66.0827 73.7097V66.0847C66.0825 65.7157 66.1627 65.3511 66.3176 65.0162C66.4725 64.6813 66.6985 64.3841 66.9799 64.1454C67.2643 63.902 67.5994 63.7251 67.9608 63.6275C68.3222 63.5299 68.7009 63.514 69.0691 63.5812C69.6847 63.7317 70.2295 64.09 70.6116 64.5957C70.9936 65.1014 71.1894 65.7233 71.166 66.3567V80.4502C71.1695 85.5243 69.7223 90.4936 66.9951 94.7725Z" fill="#00AA72"/>
<path d="M93.7856 38.2041H93.811L101.436 38.1279C102.11 38.1215 102.754 37.8476 103.226 37.3664C103.698 36.8852 103.96 36.2362 103.953 35.5621C103.947 34.888 103.673 34.244 103.192 33.7719C102.711 33.2998 102.062 33.0381 101.388 33.0445L93.7627 33.1208C93.4289 33.1223 93.0987 33.1895 92.7909 33.3186C92.4831 33.4478 92.2037 33.6362 91.9688 33.8733C91.7338 34.1104 91.5479 34.3914 91.4215 34.7004C91.2952 35.0093 91.2309 35.3401 91.2324 35.6739C91.2339 36.0077 91.3012 36.3379 91.4303 36.6457C91.5594 36.9535 91.7479 37.2328 91.985 37.4678C92.222 37.7027 92.5031 37.8887 92.812 38.015C93.121 38.1414 93.4518 38.2056 93.7856 38.2041Z" fill="#00AA72"/>
<path d="M94.0388 63.6186H94.0642L101.689 63.5423C102.023 63.5407 102.353 63.4733 102.661 63.344C102.969 63.2147 103.248 63.0261 103.483 62.7889C103.718 62.5517 103.903 62.2706 104.03 61.9616C104.156 61.6526 104.22 61.3218 104.218 60.988C104.216 60.6542 104.149 60.324 104.02 60.0163C103.891 59.7086 103.702 59.4293 103.465 59.1945C103.228 58.9596 102.946 58.7738 102.637 58.6476C102.328 58.5214 101.998 58.4573 101.664 58.459H101.638L94.0134 58.5353C93.3393 58.5386 92.6941 58.8097 92.2199 59.2887C91.7456 59.7677 91.481 60.4155 91.4844 61.0896C91.4878 61.7637 91.7588 62.4089 92.2378 62.8831C92.7169 63.3574 93.3647 63.622 94.0388 63.6186Z" fill="#00AA72"/>
<path d="M101.997 84.0248L94.3717 83.8062C93.7026 83.8033 93.058 84.058 92.5716 84.5174C92.0852 84.9769 91.7942 85.6059 91.7589 86.2741C91.7491 86.6079 91.8051 86.9404 91.9239 87.2526C92.0426 87.5647 92.2217 87.8504 92.4509 88.0933C92.6801 88.3362 92.9549 88.5315 93.2596 88.6681C93.5644 88.8047 93.8931 88.88 94.2269 88.8895L101.852 89.1081H101.928C102.602 89.1172 103.252 88.8581 103.735 88.3879C104.218 87.9177 104.495 87.2748 104.504 86.6007C104.513 85.9266 104.254 85.2765 103.784 84.7935C103.314 84.3104 102.671 84.0339 101.997 84.0248Z" fill="#00AA72"/>
<path d="M93.9145 50.9142H93.9424L109.192 50.7592C109.867 50.7554 110.512 50.4841 110.986 50.0048C111.46 49.5256 111.724 48.8776 111.72 48.2035C111.716 47.5294 111.445 46.8844 110.966 46.4104C110.487 45.9363 109.839 45.6721 109.164 45.6758H109.139L93.8891 45.8309C93.215 45.8346 92.57 46.1059 92.0959 46.5852C91.6219 47.0645 91.3577 47.7124 91.3614 48.3865C91.3651 49.0606 91.6364 49.7056 92.1157 50.1796C92.595 50.6537 93.2404 50.9179 93.9145 50.9142Z" fill="#00AA72"/>
<path d="M109.398 71.0903L94.1481 71.2454C93.474 71.2487 92.8289 71.5198 92.3546 71.9988C91.8803 72.4778 91.6158 73.1257 91.6192 73.7997C91.6225 74.4738 91.8936 75.119 92.3726 75.5933C92.8516 76.0675 93.4994 76.3321 94.1735 76.3287H94.199L109.449 76.1737C109.783 76.1703 110.113 76.1013 110.42 75.9705C110.727 75.8397 111.005 75.6497 111.239 75.4113C111.472 75.1729 111.657 74.8908 111.782 74.5812C111.906 74.2715 111.969 73.9404 111.965 73.6066C111.941 72.9383 111.661 72.305 111.183 71.8369C110.706 71.3688 110.067 71.1016 109.398 71.0903Z" fill="#00AA72"/>
</svg>
