<svg width="93" height="93" viewBox="0 0 93 93" fill="none" xmlns="http://www.w3.org/2000/svg">
<g clip-path="url(#clip0_7978_11180)">
<path d="M72.5566 80.2122H57.5482H53.5067H52.6339V60.0808H59.2179C60.8876 60.0808 61.8743 58.1834 60.8876 56.8173L48.0802 39.0955C47.2643 37.9571 45.5756 37.9571 44.7597 39.0955L31.9522 56.8173C30.9656 58.1834 31.9333 60.0808 33.622 60.0808H40.2059V80.2122H39.3331H35.2917H17.8925C7.93114 79.662 0 70.3457 0 60.2516C0 53.2881 3.77583 47.2164 9.37317 43.9339C8.86087 42.5488 8.59523 41.0688 8.59523 39.513C8.59523 32.3977 14.3444 26.6486 21.4596 26.6486C22.9965 26.6486 24.4765 26.9142 25.8616 27.4265C29.9789 18.6985 38.8588 12.6458 49.1807 12.6458C62.5384 12.6647 73.5433 22.8917 74.7956 35.9269C85.0605 37.6915 92.8588 47.1974 92.8588 57.9557C92.8588 69.454 83.9031 79.4153 72.5566 80.2122Z" fill="#00AA72"/>
</g>
<defs>
<clipPath id="clip0_7978_11180">
<rect width="92.8588" height="92.8588" fill="white"/>
</clipPath>
</defs>
</svg>
