<svg width="113" height="100" viewBox="0 0 113 100" fill="none" xmlns="http://www.w3.org/2000/svg">
<path d="M111.628 94.4439L59.1231 1.80534C58.1764 0.1081 56.0331 -0.500325 54.3358 0.446385C53.7655 0.764499 53.295 1.23503 52.9769 1.80534L0.471983 94.4439C-0.165172 95.5743 -0.156713 96.9574 0.494221 98.0798C1.11944 99.1745 2.28446 99.849 3.54509 99.8461H108.555C109.816 99.849 110.981 99.1745 111.606 98.0799C112.257 96.9574 112.265 95.5743 111.628 94.4439ZM56.05 89.336C53.1477 89.336 50.795 86.9833 50.795 84.081C50.795 81.1787 53.1477 78.826 56.05 78.826C58.9523 78.826 61.305 81.1787 61.305 84.081C61.305 86.9833 58.9523 89.336 56.05 89.336ZM63.747 38.6015L57.4172 70.6034C57.3284 71.3585 56.6444 71.8986 55.8893 71.8099C55.2564 71.7355 54.7572 71.2364 54.6828 70.6034L48.353 38.6015C47.2772 33.1681 51.0163 28.0274 56.05 28.0274C61.0837 28.0274 64.8227 33.1681 63.747 38.6015Z" fill="#00AA72"/>
</svg>
