<svg width="47" height="47" viewBox="0 0 47 47" fill="none" xmlns="http://www.w3.org/2000/svg">
<path d="M23.4371 14.5051C22.8599 14.5051 22.3609 14.8137 22.1028 15.33L16.3162 26.9032C16.0795 27.3761 16.1033 27.9052 16.3812 28.3548C16.659 28.8047 17.1218 29.0625 17.6506 29.0625H29.2237C30.317 29.0625 31.0491 27.8842 30.5581 26.9032L24.7715 15.33C24.5134 14.8137 24.0144 14.5051 23.4371 14.5051ZM23.4371 27.1875C22.9194 27.1875 22.4996 26.7677 22.4996 26.25C22.4996 25.7322 22.9194 25.3125 23.4371 25.3125C23.9549 25.3125 24.3746 25.7322 24.3746 26.25C24.3746 26.7677 23.9549 27.1875 23.4371 27.1875ZM24.3746 23.4375C24.3746 23.9552 23.9549 24.375 23.4371 24.375C22.9194 24.375 22.4996 23.9552 22.4996 23.4375V17.8125C22.4996 17.2947 22.9194 16.875 23.4371 16.875C23.9549 16.875 24.3746 17.2947 24.3746 17.8125V23.4375Z" fill="#00AA72"/>
<path d="M45.9375 17.8125H44.252C43.7695 16.0194 43.0591 14.3042 42.1335 12.6965L43.3246 11.505C43.6908 11.1388 43.6908 10.5455 43.3246 10.1793L36.6957 3.55042C36.3295 3.18421 35.7362 3.18421 35.37 3.55042L34.1785 4.74152C32.5708 3.81592 30.8556 3.10547 29.0625 2.62298V0.9375C29.0625 0.419766 28.6427 0 28.125 0H18.75C18.2323 0 17.8125 0.419766 17.8125 0.9375V2.62298C16.0194 3.10547 14.3042 3.81592 12.6965 4.74152L11.505 3.55042C11.1388 3.18421 10.5455 3.18421 10.1793 3.55042L3.55042 10.1793C3.18421 10.5455 3.18421 11.1388 3.55042 11.505L4.74152 12.6965C3.81592 14.3042 3.10547 16.0194 2.62298 17.8125H0.9375C0.419766 17.8125 0 18.2323 0 18.75V28.125C0 28.6427 0.419766 29.0625 0.9375 29.0625H2.62298C3.10547 30.8556 3.81592 32.5708 4.74152 34.1785L3.55042 35.37C3.18421 35.7362 3.18421 36.3295 3.55042 36.6957L10.1793 43.3246C10.5455 43.6908 11.1388 43.6908 11.505 43.3246L12.6965 42.1335C14.3042 43.0591 16.0194 43.7695 17.8125 44.252V45.9375C17.8125 46.4552 18.2323 46.875 18.75 46.875H28.125C28.6427 46.875 29.0625 46.4552 29.0625 45.9375V44.252C30.8556 43.7695 32.5708 43.0591 34.1785 42.1335L35.37 43.3246C35.7362 43.6908 36.3295 43.6908 36.6957 43.3246L43.3246 36.6957C43.6908 36.3295 43.6908 35.7362 43.3246 35.37L42.1335 34.1785C43.0591 32.5708 43.7695 30.8556 44.252 29.0625H45.9375C46.4552 29.0625 46.875 28.6427 46.875 28.125V18.75C46.875 18.2323 46.4552 17.8125 45.9375 17.8125ZM10.4901 28.9288C10.6938 29.4049 10.4723 29.9556 9.99585 30.159C9.52483 30.3601 8.96833 30.1381 8.76617 29.6649C7.92572 27.6979 7.5 25.6027 7.5 23.4375C7.5 14.6494 14.6494 7.5 23.4375 7.5C26.2866 7.5 29.0863 8.26126 31.5344 9.70138C32.46 10.2517 33.3119 10.8954 34.1011 11.6072V9.84787C34.1011 9.33013 34.5209 8.91037 35.0386 8.91037C35.5563 8.91037 35.9761 9.33013 35.9761 9.84787V13.8254C35.9761 14.3431 35.5563 14.7629 35.0386 14.7629H31.0611C30.5434 14.7629 30.1236 14.3431 30.1236 13.8254C30.1236 13.3076 30.5434 12.8879 31.0611 12.8879H32.7273C32.0633 12.3026 31.3494 11.7726 30.58 11.315C28.4235 10.0465 25.9525 9.375 23.4375 9.375C15.6834 9.375 9.375 15.6834 9.375 23.4375C9.375 25.3482 9.75037 27.1957 10.4901 28.9288ZM32.0883 29.3404C31.4703 30.3406 30.3996 30.9375 29.2241 30.9375H17.6509C16.4754 30.9375 15.4047 30.3406 14.7867 29.3404C14.1687 28.3406 14.1138 27.1161 14.6393 26.0646L20.4259 14.4914C20.9999 13.3434 22.1539 12.6302 23.4375 12.6302C24.7211 12.6302 25.8751 13.3434 26.4491 14.4914L32.2357 26.0646C32.7612 27.1161 32.7063 28.3406 32.0883 29.3404ZM23.4375 39.375C20.5884 39.375 17.7887 38.6137 15.3406 37.1736C14.415 36.6233 13.5631 35.9796 12.7739 35.2678V37.0271C12.7739 37.5449 12.3541 37.9646 11.8364 37.9646C11.3187 37.9646 10.8989 37.5449 10.8989 37.0271V33.0496C10.8989 32.5319 11.3187 32.1121 11.8364 32.1121H15.8139C16.3316 32.1121 16.7514 32.5319 16.7514 33.0496C16.7514 33.5674 16.3316 33.9871 15.8139 33.9871H14.1477C14.8118 34.5724 15.5256 35.1024 16.295 35.56C18.4515 36.8285 20.9225 37.5 23.4375 37.5C31.1916 37.5 37.5 31.1916 37.5 23.4375C37.5 21.5268 37.1246 19.6793 36.3849 17.9462C36.1812 17.4701 36.4027 16.9194 36.8788 16.7162C37.3554 16.5124 37.9056 16.734 38.1088 17.2101C38.9493 19.1771 39.375 21.2723 39.375 23.4375C39.375 32.2256 32.2256 39.375 23.4375 39.375Z" fill="#00AA72"/>
</svg>
