<svg width="82" height="98" viewBox="0 0 82 98" fill="none" xmlns="http://www.w3.org/2000/svg">
<path d="M0 42.3455V60.4341C6.18249 66.5544 20.2882 69.9468 40.8017 69.9468C61.3153 69.9468 75.421 66.5544 81.6034 60.4341V42.3455C74.8848 46.9191 62.6869 50.5174 40.8017 50.5174C18.9165 50.5174 6.7187 46.9191 0 42.3455Z" fill="#00AA72"/>
<path d="M0 65.6609V83.5475C0 92.4772 20.5251 97.1481 40.8017 97.1481C61.0783 97.1481 81.6034 92.4772 81.6034 83.5475V65.6609C74.8848 70.2346 62.6869 73.8328 40.8017 73.8328C18.9165 73.8328 6.7187 70.2346 0 65.6609Z" fill="#00AA72"/>
<path d="M40.8017 0.000732422C20.5251 0.000732422 0 4.67157 0 13.6013V13.8034C6.18249 19.9236 20.2882 23.316 40.8017 23.316C61.3153 23.316 75.421 19.9236 81.6034 13.8034V13.6013C81.6034 4.67157 61.0783 0.000732422 40.8017 0.000732422Z" fill="#00AA72"/>
<path d="M0 19.0298V37.1185C6.18249 43.2387 20.2882 46.6311 40.8017 46.6311C61.3153 46.6311 75.421 43.2387 81.6034 37.1185V19.0298C74.8848 23.6035 62.6869 27.2017 40.8017 27.2017C18.9165 27.2017 6.7187 23.6035 0 19.0298Z" fill="#00AA72"/>
</svg>
