<svg width="40" height="40" viewBox="0 0 40 40" fill="none" xmlns="http://www.w3.org/2000/svg">
<path d="M38.66 31.89L37.0367 30.9533C37.3133 30.125 37.5 29.255 37.5 28.3333C37.5 27.4117 37.315 26.5417 37.0367 25.7133L38.66 24.7767C39.4567 24.3167 39.73 23.2967 39.27 22.5C38.81 21.7033 37.7917 21.4283 36.9933 21.89L35.3717 22.8267C34.1967 21.5033 32.6317 20.535 30.8333 20.17V18.335C30.8333 17.415 30.0867 16.6683 29.1667 16.6683C28.2467 16.6683 27.5 17.415 27.5 18.335V20.17C25.7017 20.5367 24.1367 21.505 22.9617 22.8267L21.34 21.89C20.54 21.4283 19.5233 21.705 19.0633 22.5C18.6033 23.2983 18.8767 24.3167 19.6733 24.7767L21.2967 25.7133C21.02 26.5417 20.8333 27.4117 20.8333 28.3333C20.8333 29.255 21.0183 30.125 21.2967 30.9533L19.6733 31.89C18.8767 32.35 18.6033 33.37 19.0633 34.1667C19.5267 34.97 20.5567 35.2317 21.34 34.7767L22.9617 33.84C24.1367 35.1633 25.7017 36.1317 27.5 36.4967V38.3317C27.5 39.2533 28.2467 39.9983 29.1667 39.9983C30.0867 39.9983 30.8333 39.2533 30.8333 38.3317V36.4967C32.6317 36.13 34.1967 35.1617 35.3717 33.84L36.9933 34.7767C37.7767 35.2317 38.8067 34.97 39.27 34.1667C39.73 33.3683 39.4567 32.35 38.66 31.89ZM29.1667 30.8333C27.7883 30.8333 26.6667 29.7117 26.6667 28.3333C26.6667 26.955 27.7883 25.8333 29.1667 25.8333C30.545 25.8333 31.6667 26.955 31.6667 28.3333C31.6667 29.7117 30.545 30.8333 29.1667 30.8333ZM0 7.5C0 3.35833 6.34333 0 14.1667 0C21.99 0 28.3333 3.35833 28.3333 7.5C28.3333 11.6417 21.99 15 14.1667 15C6.34333 15 0 11.6417 0 7.5ZM19.2367 39.555C17.6083 39.8417 15.89 40 14.1667 40C7.12667 40 0 37.5883 0 32.9767V31.3767C3.12667 33.6 8.2 35 14.1667 35C14.695 35 15.2083 34.9767 15.7217 34.955C16.5883 36.7117 17.785 38.2683 19.2367 39.555ZM0 17.6117V14C3.12667 16.66 8.2 18.3333 14.1667 18.3333C15.6 18.3333 16.97 18.2217 18.28 18.0333C16.8633 19.53 15.7567 21.3183 15.05 23.3C14.755 23.31 14.4683 23.3333 14.1667 23.3333C6.05833 23.3333 0 20.3133 0 17.6117ZM0 25.945V23.045C3.12667 25.2683 8.2 26.6683 14.1667 26.6683C14.2 26.6683 14.2317 26.665 14.265 26.665C14.205 27.2133 14.1667 27.77 14.1667 28.335C14.1667 29.4783 14.3067 30.5883 14.5483 31.66C14.42 31.6633 14.295 31.6683 14.1667 31.6683C6.05833 31.6683 0 28.6483 0 25.945Z" fill="#00AA72"/>
</svg>
