<svg width="34" height="40" viewBox="0 0 34 40" fill="none" xmlns="http://www.w3.org/2000/svg">
<path d="M20 11.6667V0.766667C21.5217 1.34333 22.9217 2.23167 24.1083 3.41667L29.915 9.22667C31.1017 10.4117 31.99 11.8117 32.5667 13.3333H21.6667C20.7467 13.3333 20 12.585 20 11.6667ZM22.5 25H10.8333C10.3733 25 10 25.3733 10 25.8333V29.1667C10 29.6267 10.3733 30 10.8333 30H22.5C22.96 30 23.3333 29.6267 23.3333 29.1667V25.8333C23.3333 25.3733 22.96 25 22.5 25ZM33.3333 17.475V31.6667C33.3333 36.2617 29.595 40 25 40H8.33333C3.73833 40 0 36.2617 0 31.6667V8.33333C0 3.73833 3.73833 0 8.33333 0H15.8583C16.13 0 16.3983 0.0216667 16.6667 0.04V11.6667C16.6667 14.4233 18.91 16.6667 21.6667 16.6667H33.2933C33.3117 16.935 33.3333 17.2033 33.3333 17.475ZM6.66667 10C6.66667 10.92 7.41333 11.6667 8.33333 11.6667H11.6667C12.5867 11.6667 13.3333 10.92 13.3333 10C13.3333 9.08 12.5867 8.33333 11.6667 8.33333H8.33333C7.41333 8.33333 6.66667 9.08 6.66667 10ZM6.66667 16.6667C6.66667 17.5867 7.41333 18.3333 8.33333 18.3333H11.6667C12.5867 18.3333 13.3333 17.5867 13.3333 16.6667C13.3333 15.7467 12.5867 15 11.6667 15H8.33333C7.41333 15 6.66667 15.7467 6.66667 16.6667ZM26.6667 25.8333C26.6667 23.5367 24.7967 21.6667 22.5 21.6667H10.8333C8.53667 21.6667 6.66667 23.5367 6.66667 25.8333V29.1667C6.66667 31.4633 8.53667 33.3333 10.8333 33.3333H22.5C24.7967 33.3333 26.6667 31.4633 26.6667 29.1667V25.8333Z" fill="#00AA72"/>
</svg>
