<svg width="40" height="40" viewBox="0 0 40 40" fill="none" xmlns="http://www.w3.org/2000/svg">
<path d="M25.7617 3.22L21.635 0.435C20.7767 -0.145 19.6517 -0.145 18.7933 0.435L14.6667 3.22C13.9667 3.69167 13.5483 4.48167 13.5483 5.325V10.7933C13.5483 12.1967 14.685 13.3333 16.0883 13.3333H24.3417C25.745 13.3333 26.8817 12.1967 26.8817 10.7933V5.325C26.8817 4.48167 26.4617 3.69167 25.7633 3.22H25.7617ZM21.0467 10H19.38C18.92 10 18.5467 9.62667 18.5467 9.16667V7.5C18.5467 7.04 18.92 6.66667 19.38 6.66667H21.0467C21.5067 6.66667 21.88 7.04 21.88 7.5V9.16667C21.88 9.62667 21.5067 10 21.0467 10ZM20.1833 24.68C22.1933 26.57 23.3333 29.2067 23.3333 31.965V38.3317C23.3333 39.2517 22.5867 39.9983 21.6667 39.9983H9.20167C8.36167 39.9983 7.55167 39.6817 6.935 39.11L3.94833 36.1517C1.42167 33.6483 0 30.2383 0 26.68V9.10333C0 6.66 2.10167 4.70833 4.59667 4.95833C6.765 5.175 8.33333 7.16167 8.33333 9.34167V19.0817C8.08167 19.3767 7.845 19.6867 7.63833 20.0283C6.12833 22.5333 6.39833 25.8033 8.26833 28.1083L11.2483 31.9483C11.8133 32.675 12.86 32.8067 13.5867 32.2433C14.3133 31.6783 14.445 30.6317 13.8817 29.905L10.9017 26.065C9.91 24.8417 9.68 23.0983 10.4933 21.75C11.7467 19.6733 14.5017 19.3633 16.18 20.92L20.1833 24.6833V24.68ZM40 9.10333V26.6833C40 30.2417 38.5767 33.6533 36.0483 36.1583L33.065 39.1117C32.4483 39.6833 31.64 40 30.7983 40H26.3583C26.545 39.4767 26.665 38.92 26.665 38.3333V33.1467L31.7283 28.1067C33.5983 25.8017 33.87 22.5317 32.3583 20.0267C32.1533 19.6867 31.915 19.375 31.6633 19.08V9.34C31.6633 7.16 33.2317 5.175 35.4 4.95667C37.8933 4.70667 39.9967 6.65833 39.9967 9.10167L40 9.10333ZM29.0967 26.0633L26.2717 28.8667C25.6683 26.36 24.3667 24.0417 22.4667 22.2533L22.4333 22.2217L23.82 20.9183C25.4983 19.3617 28.2533 19.6717 29.5067 21.7483C30.32 23.0983 30.0883 24.84 29.0967 26.0633Z" fill="#00AA72"/>
</svg>
