<svg width="100" height="100" viewBox="0 0 100 100" fill="none" xmlns="http://www.w3.org/2000/svg">
<path d="M27.8125 92.1875C39.0281 92.1875 47.8125 87.0406 47.8125 80.4688V19.5312C47.8125 12.9594 39.0281 7.8125 27.8125 7.8125C16.5969 7.8125 7.8125 12.9594 7.8125 19.5312V80.4688C7.8125 87.0406 16.5969 92.1875 27.8125 92.1875ZM27.8125 89.0625C18.6656 89.0625 10.9375 85.125 10.9375 80.4688V74.6344C14.4563 77.8812 20.6281 80 27.8125 80C34.9969 80 41.1688 77.8813 44.6875 74.6375V80.4719C44.6875 85.125 36.9594 89.0625 27.8125 89.0625ZM44.6875 31.7187C44.6875 36.375 36.9594 40.3125 27.8125 40.3125C18.6656 40.3125 10.9375 36.375 10.9375 31.7187V25.8875C14.4563 29.1313 20.6281 31.25 27.8125 31.25C34.9969 31.25 41.1688 29.1313 44.6875 25.8875V31.7187ZM27.8125 43.4375C34.9969 43.4375 41.1688 41.3187 44.6875 38.075V43.9062C44.6875 48.5625 36.9594 52.5 27.8125 52.5C18.6656 52.5 10.9375 48.5625 10.9375 43.9062V38.075C14.4563 41.3219 20.6281 43.4375 27.8125 43.4375ZM27.8125 55.625C34.9969 55.625 41.1688 53.5062 44.6875 50.2625V56.0969C44.6875 60.7531 36.9594 64.6906 27.8125 64.6906C18.6656 64.6906 10.9375 60.7531 10.9375 56.0969V50.2625C14.4563 53.5062 20.6281 55.625 27.8125 55.625ZM27.8125 67.8125C34.9969 67.8125 41.1688 65.6937 44.6875 62.45V68.2812C44.6875 72.9375 36.9594 76.875 27.8125 76.875C18.6656 76.875 10.9375 72.9375 10.9375 68.2812V62.45C14.4563 65.6937 20.6281 67.8125 27.8125 67.8125ZM27.8125 10.9375C36.9594 10.9375 44.6875 14.875 44.6875 19.5312C44.6875 24.1875 36.9594 28.125 27.8125 28.125C18.6656 28.125 10.9375 24.1875 10.9375 19.5312C10.9375 14.875 18.6656 10.9375 27.8125 10.9375Z" fill="#00AA72"/>
<path d="M84.1539 46.6688L87.0789 43.7438C87.9883 42.8344 88.4914 41.625 88.4914 40.3375C88.4914 39.0531 87.9883 37.8438 87.0789 36.9344C85.2602 35.1156 82.0883 35.1156 80.2695 36.9344L77.0039 40.2V12.6281C77.0039 9.97187 74.8445 7.8125 72.1883 7.8125C69.532 7.8125 67.3758 9.97187 67.3758 12.6281V40.2031L64.107 36.9344C62.2289 35.0563 59.1758 35.05 57.2977 36.9344C56.3883 37.8438 55.8852 39.0531 55.8852 40.3375C55.8852 41.625 56.3883 42.8344 57.2977 43.7438L60.2289 46.675C55.2164 48.8438 52.1914 52.3312 52.1914 56.0969V80.4719C52.1914 87.0437 60.9758 92.1906 72.1914 92.1906C83.407 92.1906 92.1914 87.0437 92.1914 80.4719V56.0969C92.1883 52.3281 89.1664 48.8438 84.1539 46.6688ZM59.507 39.1437C60.1664 38.4844 61.2383 38.4844 61.8977 39.1437L67.832 45.0781C68.282 45.5281 68.9508 45.6594 69.5352 45.4156C70.1195 45.1719 70.5008 44.6031 70.5008 43.9719V12.6281C70.5008 11.6969 71.2602 10.9375 72.1914 10.9375C73.1227 10.9375 73.882 11.6969 73.882 12.6281V43.9719C73.882 44.6031 74.2633 45.175 74.8477 45.4156C75.4352 45.6531 76.1008 45.5219 76.5508 45.0781L82.482 39.1469C83.1195 38.5125 84.2352 38.5125 84.8727 39.1469C85.5258 39.7969 85.5258 40.8875 84.8727 41.5375L73.3883 53.025C72.7289 53.6844 71.657 53.6844 70.9977 53.025L59.5102 41.5375C58.8539 40.8875 58.8539 39.7969 59.507 39.1437ZM62.6445 49.0906L68.7852 55.2313C69.7227 56.1688 70.957 56.6375 72.1883 56.6375C73.4195 56.6375 74.6539 56.1688 75.5914 55.2313L81.7289 49.0938C86.1977 50.7156 89.0602 53.4031 89.0602 56.0969C89.0602 60.7531 81.332 64.6906 72.1852 64.6906C63.0383 64.6906 55.3102 60.7531 55.3102 56.0969C55.3133 53.4031 58.1789 50.7125 62.6445 49.0906ZM89.0633 68.2812C89.0633 72.9375 81.3352 76.875 72.1883 76.875C63.0414 76.875 55.3133 72.9375 55.3133 68.2812V62.45C58.832 65.6937 65.0039 67.8125 72.1883 67.8125C79.3727 67.8125 85.5445 65.6937 89.0633 62.45V68.2812ZM72.1883 89.0625C63.0414 89.0625 55.3133 85.125 55.3133 80.4688V74.6344C58.832 77.8781 65.0039 79.9969 72.1883 79.9969C79.3727 79.9969 85.5445 77.8781 89.0633 74.6344V80.4688C89.0633 85.125 81.3352 89.0625 72.1883 89.0625Z" fill="#00AA72"/>
</svg>
