<svg width="125" height="125" viewBox="0 0 125 125" fill="none" xmlns="http://www.w3.org/2000/svg">
<path d="M93.4243 36.189C83.7743 30.5141 73.2993 27.5391 62.4993 27.5391C25.716 27.5391 5.20155 61.7426 4.44922 62.464C5.28487 63.2653 24.6349 97.4141 62.4993 97.4141C99.2826 97.4141 119.907 63.0801 120.549 62.464C119.393 61.0986 111.196 46.6133 93.4243 36.189ZM62.4993 87.6891C48.5993 87.6891 37.2993 76.389 37.2993 62.489C37.2993 48.589 48.5993 37.289 62.4993 37.289C76.3993 37.289 87.6992 48.589 87.6992 62.489C87.6992 76.389 76.3993 87.6891 62.4993 87.6891Z" fill="#00AA72"/>
<path d="M67.9175 57.0349C64.1045 53.2219 65.1724 48.755 65 47.4768H62.5C54.2285 47.4768 47.5 54.2053 47.5 62.4768C47.5 70.6067 54.3701 77.4768 62.5 77.4768C70.7715 77.4768 77.5 70.7483 77.5 62.4768V59.9768C76.1952 59.7994 71.7451 60.8576 67.9175 57.0349Z" fill="#00AA72"/>
<path d="M59.9922 10.04H64.9922V20.1125H59.9922V10.04Z" fill="#00AA72"/>
<path d="M95.6758 25.8184L102.8 18.6943L106.335 22.2298L99.2113 29.3539L95.6758 25.8184Z" fill="#00AA72"/>
<path d="M18.6367 22.2203L22.1723 18.6848L29.2946 25.8071L25.7591 29.3427L18.6367 22.2203Z" fill="#00AA72"/>
<path d="M59.9922 104.885H64.9922V114.96H59.9922V104.885Z" fill="#00AA72"/>
<path d="M18.6172 102.786L25.7395 95.6637L29.2751 99.1992L22.1527 106.322L18.6172 102.786Z" fill="#00AA72"/>
<path d="M95.666 99.1904L99.2015 95.6549L106.326 102.779L102.79 106.315L95.666 99.1904Z" fill="#00AA72"/>
</svg>
