<svg width="114" height="114" viewBox="0 0 114 114" fill="none" xmlns="http://www.w3.org/2000/svg">
<path fill-rule="evenodd" clip-rule="evenodd" d="M106.135 64.8656C95.7785 64.8656 90.5824 77.4122 97.9048 84.7347C99.2541 86.0836 99.2541 88.2716 97.9048 89.6203L90.4677 97.0576C89.1186 98.4067 86.931 98.4067 85.5822 97.0576C81.512 92.9875 75.8289 92.7864 71.5826 95.188V81.2898C80.1727 76.2464 85.9409 66.9138 85.9409 56.2325C85.9409 40.1952 72.9402 27.1948 56.9029 27.1948C40.8659 27.1948 27.8652 40.1955 27.8652 56.2325C27.8652 66.9941 33.7197 76.3882 42.4171 81.4042V95.178C38.1726 92.7782 32.4916 92.9833 28.4174 97.0576C27.0685 98.4067 24.8807 98.4067 23.5319 97.0576L16.0947 89.6203C14.7456 88.2716 14.7456 86.0836 16.0947 84.7347C23.4174 77.412 18.2209 64.8656 7.86467 64.8656C5.95606 64.8656 4.41016 63.3185 4.41016 61.4108V50.8937C4.41016 48.9859 5.95606 47.4389 7.86467 47.4389C18.2209 47.4389 23.4174 34.8925 16.0947 27.57C14.7456 26.2211 14.7456 24.0333 16.0947 22.6844L23.5319 15.2471C24.881 13.898 27.0688 13.898 28.4174 15.2471C35.7401 22.5698 48.2868 17.3736 48.2868 7.01701C48.2868 5.10862 49.8338 3.5625 51.7413 3.5625H62.2587C64.1662 3.5625 65.7132 5.10862 65.7132 7.01701C65.7132 17.3736 78.2597 22.5698 85.5824 15.2471C86.9312 13.898 89.1188 13.898 90.4679 15.2471L97.9051 22.6844C99.2544 24.0333 99.2544 26.2211 97.9051 27.57C90.5826 34.8925 95.7785 47.4389 106.135 47.4389C108.044 47.4389 109.59 48.9859 109.59 50.8937V61.4108C109.59 63.3185 108.044 64.8656 106.135 64.8656ZM45.8572 37.15C39.3057 40.9839 34.9045 48.0935 34.9045 56.2325C34.9045 65.688 40.8445 73.7551 49.1959 76.9088V110.438H64.8039V76.9086C73.1553 73.7549 79.0953 65.688 79.0953 56.2325C79.0953 48.0938 74.6941 40.9839 68.1426 37.15V58.3878L56.9998 64.8213L45.8572 58.388V37.15Z" fill="#00AA72"/>
</svg>
