<svg width="127" height="127" viewBox="0 0 127 127" fill="none" xmlns="http://www.w3.org/2000/svg">
<path fill-rule="evenodd" clip-rule="evenodd" d="M124.768 65.4665V73.7061H114.507C113.181 80.3555 110.56 86.6792 106.793 92.3173L114.052 99.5754L99.5928 114.034L92.3352 106.776C86.6971 110.543 80.3734 113.164 73.724 114.491V124.75H53.276V114.491C46.6265 113.164 40.3028 110.543 34.6646 106.777L27.4067 114.035L12.948 99.5754L20.2054 92.3178C16.439 86.6795 13.8179 80.3556 12.4911 73.7061H2.23242V65.4665H22.6318C23.1413 75.9622 27.6694 85.8596 35.2777 93.1076C42.8861 100.356 52.9914 104.398 63.4995 104.398C74.0076 104.398 84.1129 100.356 91.7213 93.1076C99.3296 85.8596 103.858 75.9622 104.367 65.4665H124.768ZM63.5 56.5864C62.1362 56.5864 60.8029 56.9908 59.669 57.7485C58.535 58.5063 57.6511 59.5832 57.1292 60.8432C56.6073 62.1033 56.4707 63.4898 56.7368 64.8274C57.0029 66.165 57.6596 67.3937 58.624 68.3581C59.5884 69.3225 60.8171 69.9792 62.1547 70.2453C63.4924 70.5114 64.8788 70.3748 66.1389 69.8529C67.3989 69.331 68.4759 68.4471 69.2336 67.3131C69.9913 66.1792 70.3957 64.846 70.3957 63.4821C70.3957 61.6533 69.6692 59.8993 68.376 58.6061C67.0828 57.3129 65.3289 56.5864 63.5 56.5864ZM79.5432 42.2354C79.8838 41.8892 80.2895 41.6139 80.737 41.4253C81.1846 41.2367 81.665 41.1386 82.1506 41.1367C82.6363 41.1347 83.1175 41.2289 83.5665 41.4138C84.0156 41.5988 84.4236 41.8708 84.7669 42.2142C85.1103 42.5576 85.3823 42.9656 85.5672 43.4146C85.7522 43.8637 85.8463 44.3449 85.8443 44.8305C85.8423 45.3162 85.7442 45.7966 85.5556 46.2441C85.367 46.6916 85.0917 47.0974 84.7455 47.4379L73.3303 58.8531C72.2507 56.5692 70.4117 54.7309 68.1273 53.6523L79.5427 42.2371L79.5432 42.2354ZM65.4844 22.6144C71.3225 22.8877 77.0331 24.4158 82.2275 27.0946L92.4118 9.45477C84.1134 5.00444 74.8964 2.53822 65.4844 2.24976V22.6144ZM85.6471 29.0735C90.559 32.2429 94.739 36.4227 97.9086 41.3345L115.547 31.1509C110.568 23.1581 103.823 16.4132 95.8304 11.4347L85.6466 29.0735H85.6471ZM99.8875 44.7548L117.527 34.5705C121.978 42.8688 124.445 52.0856 124.735 61.4977H104.368C104.094 55.6596 102.566 49.949 99.887 44.7546L99.8875 44.7548ZM61.5156 2.24976C52.1039 2.53893 42.8871 5.0051 34.5886 9.45477L44.7725 27.0944C49.967 24.4159 55.6776 22.8879 61.5156 22.6144V2.24976ZM31.1688 11.4347L41.3524 29.0733C36.4405 32.2427 32.2606 36.4227 29.0912 41.3345L11.4526 31.1507C16.431 23.1578 23.1759 16.413 31.1688 11.4347ZM9.47241 34.5705C5.02107 42.8686 2.55359 52.0855 2.26368 61.4977H22.6308C22.9046 55.6596 24.4331 49.9489 27.1123 44.7546L9.47241 34.5705ZM91.3075 63.4826H74.363C74.3221 66.3368 73.1595 69.0602 71.1267 71.0641C69.0939 73.068 66.3541 74.1913 63.4996 74.1913C60.6452 74.1913 57.9054 73.068 55.8726 71.0641C53.8397 69.0602 52.6772 66.3368 52.6363 63.4826H35.6925C35.6925 70.8576 38.6222 77.9306 43.8371 83.1455C49.052 88.3604 56.125 91.2901 63.5 91.2901C70.875 91.2901 77.948 88.3604 83.1629 83.1455C88.3778 77.9306 91.3075 70.8576 91.3075 63.4826Z" fill="#00AA72"/>
</svg>
