<svg width="89" height="89" viewBox="0 0 89 89" fill="none" xmlns="http://www.w3.org/2000/svg">
<g clip-path="url(#clip0_7978_11199)">
<path fill-rule="evenodd" clip-rule="evenodd" d="M31.7212 6.60344C24.5772 6.60344 17.4333 6.60344 10.2893 6.60344C8.52955 6.60344 7.08984 8.03707 7.08984 9.79858V13.1109H81.8252V9.79858C81.8252 8.03707 80.3943 6.60344 78.6346 6.60344H57.1941V4.7023C57.1941 2.11048 55.0892 0.000244141 52.4963 0.000244141H36.4187C33.8258 0.000244141 31.721 2.11048 31.721 4.7023V6.60344H31.7212ZM72.751 85.9186C72.6533 87.6009 71.2492 88.9182 69.5693 88.9182H19.3548C17.666 88.9182 16.2708 87.6009 16.1642 85.9186L11.907 16.1246H77.0082L72.751 85.9186ZM36.2117 45.4222L26.7101 47.7261L29.7516 49.482L23.7727 59.838C23.4593 60.3811 23.4591 61.0028 23.7727 61.5459L26.5914 66.4278C26.9048 66.9711 27.4434 67.2819 28.0705 67.2818H29.9831C29.4791 67.2816 29.0741 67.0878 28.8164 66.6413C28.5812 66.234 28.5812 65.7677 28.8164 65.3605L31.8231 60.1527L35.9256 53.0466L38.9671 54.8025L36.2117 45.4222ZM42.141 63.7172L48.887 70.7939V67.2819L60.8449 67.2818C61.472 67.2818 62.0104 66.9711 62.3239 66.4278L65.1425 61.5457C65.4561 61.0026 65.4561 60.3809 65.1425 59.8378L64.1861 58.1814C64.4381 58.6178 64.4726 59.0657 64.2148 59.512C63.9796 59.9193 63.5758 60.1525 63.1055 60.1525H57.0921H48.8867V56.6404L42.141 63.7172ZM53.4458 53.8366L55.6604 57.6724H61.7365C62.9062 57.6724 62.8687 56.6837 62.7945 55.7711L59.6197 50.2722L53.4458 53.8366ZM55.0203 49.4348L57.7758 40.0543L54.7344 41.8103L48.7554 31.4544C48.4419 30.9114 47.9035 30.6005 47.2764 30.6005H41.6391C41.012 30.6003 40.4737 30.9112 40.1602 31.4544L39.2038 33.1107C39.456 32.6743 39.8264 32.4204 40.3419 32.4204C40.8121 32.4204 41.2159 32.6534 41.4511 33.0609L44.4576 38.2688L48.5603 45.375L45.5187 47.1309L55.0203 49.4348ZM40.8109 44.5849L43.0255 40.7491L39.9874 35.487C39.4027 34.4742 38.5652 35.0009 37.8117 35.5214L34.637 41.0204L40.8109 44.5849ZM39.1161 60.1527H34.6869L31.6489 65.4148C31.0642 66.4277 31.9391 66.8896 32.7665 67.2819L39.1161 67.2818V60.1527Z" fill="#00AA72"/>
</g>
<defs>
<clipPath id="clip0_7978_11199">
<rect width="88.9179" height="88.9179" fill="white"/>
</clipPath>
</defs>
</svg>
