<svg width="40" height="45" viewBox="0 0 40 45" fill="none" xmlns="http://www.w3.org/2000/svg">
<path d="M39.427 10.8501L38.4333 5.1618C38.3899 4.91219 38.2481 4.68953 38.0407 4.54305C37.8321 4.39656 37.5755 4.33914 37.3259 4.38368L27.0497 6.17899L25.8661 3.03602C25.0727 0.93016 22.8884 -0.316716 20.6723 0.0700024L15.2712 1.01336C13.0352 1.4036 11.4028 3.33485 11.3899 5.60594L11.3712 8.91883L0.792662 10.7669C0.27235 10.8583 -0.0768687 11.354 0.0145375 11.8743L1.00829 17.5626C1.08915 18.0278 1.49344 18.3559 1.95048 18.3559C2.00555 18.3559 2.06063 18.3513 2.11688 18.3419C2.63719 18.2505 2.98641 17.7548 2.89501 17.2345L2.06649 12.4895L36.7118 6.43446L37.5403 11.1794C37.6317 11.6997 38.1263 12.0489 38.6477 11.9575C39.1692 11.8673 39.5173 11.3704 39.427 10.8501Z" fill="#00AA72"/>
<path d="M35.782 16.2535H4.40859C3.88008 16.2535 3.45117 16.6824 3.45117 17.211C3.45117 17.7395 3.88008 18.1684 4.40859 18.1684H6.44414V44.211C6.44414 44.6469 6.79688 44.9996 7.23281 44.9996H32.6461C33.082 44.9996 33.4348 44.6469 33.4348 44.211V18.1684H35.782C36.3105 18.1684 36.7395 17.7395 36.7395 17.211C36.7395 16.6824 36.3105 16.2535 35.782 16.2535ZM17.6848 27.0348L18.7418 25.4844C16.2633 26.0328 14.4023 28.2477 14.4023 30.8891C14.4023 32.5555 15.1418 34.1164 16.432 35.1746C16.7684 35.4512 16.8176 35.9469 16.5422 36.2844C16.3863 36.4742 16.1602 36.5727 15.9316 36.5727C15.7559 36.5727 15.5789 36.5141 15.4324 36.3946C13.7754 35.0364 12.825 33.0301 12.825 30.8891C12.825 27.5914 15.0809 24.8106 18.1313 24.009L16.9617 23.2121C16.602 22.9672 16.5094 22.4762 16.7543 22.1164C17.0004 21.7567 17.4902 21.6641 17.85 21.909L20.775 23.9035C21.1348 24.1485 21.2273 24.6395 20.9824 24.9992L18.9879 27.9242C18.8355 28.1481 18.5871 28.2688 18.3352 28.2688C18.1816 28.2688 18.0281 28.2242 17.8922 28.1317C17.5324 27.8856 17.4387 27.3946 17.6848 27.0348ZM20.5254 37.9778L21.7711 39.1403C22.0898 39.4379 22.1062 39.936 21.8098 40.2547C21.6551 40.4211 21.4441 40.5055 21.2332 40.5055C21.041 40.5055 20.8477 40.4352 20.6953 40.2934L18.1078 37.8782C17.9555 37.7352 17.8652 37.5383 17.8582 37.3285C17.8512 37.1199 17.9273 36.916 18.0703 36.7637L20.4855 34.1762C20.782 33.8574 21.2813 33.841 21.6 34.1375C21.9188 34.4352 21.9352 34.9332 21.6387 35.252L20.577 36.3887C23.3309 36.0723 25.4777 33.7274 25.4777 30.8891C25.4777 28.8875 24.3914 27.0348 22.643 26.0551C22.2633 25.8418 22.1273 25.3614 22.3406 24.9817C22.5539 24.602 23.0344 24.466 23.4141 24.6793C25.6594 25.9379 27.0551 28.3168 27.0551 30.8891C27.0527 34.6157 24.1746 37.6789 20.5254 37.9778Z" fill="#00AA72"/>
</svg>
