<svg width="32" height="32" viewBox="0 0 32 32" fill="none" xmlns="http://www.w3.org/2000/svg">
<path d="M25.3333 0H6.66667C2.98533 0 0 2.98533 0 6.66667V25.3333C0 29.0147 2.98533 32 6.66667 32H25.3333C29.0147 32 32 29.0147 32 25.3333V6.66667C32 2.98533 29.0147 0 25.3333 0ZM16 26.6667C11.9707 26.6667 8.48 24.404 6.66667 21.0973V24C6.66667 24.736 6.06933 25.3333 5.33333 25.3333C4.59733 25.3333 4 24.736 4 24V20C4 18.5267 5.19333 17.3333 6.66667 17.3333H10.6667C11.4027 17.3333 12 17.9307 12 18.6667C12 19.4027 11.4027 20 10.6667 20H9.108C10.4933 22.3827 13.0507 24 16 24C19.6293 24 22.6933 21.5693 23.668 18.2507C23.8307 17.6987 24.3547 17.3333 24.9307 17.3333C25.8013 17.3333 26.472 18.1627 26.2267 18.9987C24.9293 23.424 20.8387 26.6667 15.9987 26.6667H16ZM28 12C28 13.4733 26.8067 14.6667 25.3333 14.6667H21.3333C20.5973 14.6667 20 14.0693 20 13.3333C20 12.5973 20.5973 12 21.3333 12H22.9133C21.5307 9.612 18.9533 8 16 8C12.3707 8 9.30667 10.4307 8.332 13.7493C8.16933 14.3013 7.64533 14.6667 7.06933 14.6667C6.19867 14.6667 5.528 13.8373 5.77333 13.0013C7.07067 8.576 11.1613 5.33333 16.0013 5.33333C20.0213 5.33333 23.52 7.572 25.3347 10.8667V8C25.3347 7.264 25.932 6.66667 26.668 6.66667C27.404 6.66667 28.0013 7.264 28.0013 8L28 12Z" fill="#00AA72"/>
</svg>
