<svg width="73" height="73" viewBox="0 0 73 73" fill="none" xmlns="http://www.w3.org/2000/svg">
<path fill-rule="evenodd" clip-rule="evenodd" d="M10.8571 2.28125H62.1422C63.3092 2.28125 64.2611 3.23324 64.2611 4.40025V33.3918C64.2611 34.5588 63.3091 35.5107 62.1422 35.5107H38.6463L37.259 32.2155H54.9477C55.4989 32.2155 55.9458 31.7687 55.9458 31.2175V30.4903C55.9458 28.6702 57.4207 27.1952 59.2409 27.1952H59.9679C60.5191 27.1952 60.9659 26.7484 60.9659 26.1972V11.5947C60.9659 11.0435 60.5191 10.5967 59.9679 10.5967H59.2409C57.4207 10.5967 55.9458 9.12172 55.9458 7.30157V6.57442C55.9458 6.02321 55.4989 5.57637 54.9477 5.57637H18.0516C17.5004 5.57637 17.0536 6.02321 17.0536 6.57442V7.30157C17.0536 9.12186 15.5788 10.5967 13.7585 10.5967H13.0313C12.4801 10.5967 12.0333 11.0435 12.0333 11.5947V26.1972C12.0333 26.7484 12.4801 27.1952 13.0313 27.1952H13.7585C15.5788 27.1952 17.0536 28.67 17.0536 30.4903V31.2175C17.0536 31.7687 17.5004 32.2155 18.0516 32.2155H24.267L25.4822 35.5107H10.8571C9.69013 35.5107 8.73828 34.5588 8.73828 33.3918V4.4001C8.73814 3.2331 9.69013 2.28125 10.8571 2.28125ZM25.7223 11.9881C22.4293 13.8036 21.0917 17.8361 22.4278 21.459L32.2861 48.1916L36.9601 50.8843L42.1258 64.7258C44.1476 69.5348 49.6852 71.7944 54.4942 69.7725C59.3032 67.7506 61.5628 62.2131 59.5409 57.4041C57.5191 52.5951 51.9817 50.3356 47.1726 52.3574C46.1347 52.7938 44.3463 54.1964 44.3473 54.1955L26.7235 12.3359C26.5583 11.9433 26.0953 11.7825 25.7223 11.9881ZM36.4002 43.9745C37.2215 44.0783 37.8034 44.8283 37.6996 45.6497C37.5959 46.4711 36.8458 47.0529 36.0245 46.9491C35.2031 46.8453 34.6212 46.0954 34.725 45.274C34.8288 44.4526 35.5788 43.8709 36.4002 43.9745ZM49.0719 56.8751C51.386 55.9023 54.0506 56.9895 55.0234 59.3037C55.9964 61.6177 54.9091 64.2823 52.595 65.2552C50.281 66.2281 47.6163 65.1408 46.6435 62.8266C45.6707 60.5126 46.7579 57.8481 49.0719 56.8751ZM44.3922 37.5066L42.1419 43.8133L39.4867 37.5066H44.3922ZM35.3414 52.2553L30.6635 49.5604L30.5998 49.3876L28.579 54.3328C28.5799 54.3337 26.777 52.9501 25.7344 52.5248C20.9043 50.5539 15.391 52.8718 13.4201 57.7019C11.4493 62.5321 13.7672 68.0454 18.5973 70.0163C23.4274 71.9871 28.9407 69.6692 30.9116 64.8391L35.4001 52.4129L35.3414 52.2553ZM26.3742 62.9876C25.4259 65.3118 22.7728 66.4271 20.4487 65.4787C18.1243 64.5303 17.0091 61.8773 17.9575 59.5532C18.9058 57.2289 21.5589 56.1135 23.8831 57.0619C26.2072 58.0103 27.3226 60.6634 26.3742 62.9876ZM36.4997 11.0005C33.8004 11.0005 31.3088 12.3698 29.855 14.6295L34.9076 26.6307C35.4218 26.736 35.9543 26.7913 36.4995 26.7913C40.8603 26.7913 44.3949 23.2565 44.3949 18.8959C44.3951 14.5353 40.8604 11.0005 36.4997 11.0005ZM37.5133 23.6084L37.5192 23.8552C37.5321 24.4042 37.0975 24.8598 36.5484 24.8728C35.9994 24.8857 35.5438 24.451 35.5309 23.9021L35.5243 23.6286C34.923 23.4438 34.4736 23.0954 34.0204 22.6678C33.6199 22.2909 33.6008 21.6609 33.9775 21.2604C34.3543 20.8599 34.9843 20.8406 35.3849 21.2175C35.7528 21.5645 35.9744 21.7688 36.4995 21.7688C37.0282 21.7688 37.6491 21.4389 37.6491 20.8492C37.6491 20.2594 37.0282 19.9294 36.4995 19.9294C34.8707 19.9294 33.3538 18.7117 33.3538 17.0136C33.3538 15.7054 34.2737 14.6391 35.4875 14.2538L35.48 13.937C35.4671 13.3879 35.9017 12.9324 36.4508 12.9194C36.9998 12.9066 37.4554 13.3412 37.4683 13.8902L37.4768 14.2426C37.9225 14.3777 38.3334 14.6064 38.6811 14.917C39.0902 15.2829 39.1251 15.9114 38.7591 16.3205C38.3931 16.7295 37.7646 16.7645 37.3556 16.3985C37.1249 16.1926 36.8055 16.0941 36.4997 16.0941C35.9773 16.0941 35.3462 16.4243 35.3462 17.0138C35.3462 17.6037 35.971 17.9336 36.4997 17.9336C38.1309 17.9336 39.6454 19.1535 39.6454 20.8495C39.6454 22.1545 38.7242 23.2233 37.5133 23.6084ZM36.4997 9.00438C41.9624 9.00438 46.3912 13.4333 46.3912 18.896C46.3912 24.3588 41.9624 28.7877 36.4997 28.7877C36.2663 28.7877 36.0349 28.7794 35.8056 28.7634L36.4185 30.2194H53.9564C54.093 27.5129 56.2633 25.3425 58.9698 25.2061V12.5859C56.2633 12.4495 54.093 10.279 53.9564 7.57247H19.0428C18.9062 10.279 16.7359 12.4494 14.0294 12.5859V25.2058C16.7359 25.3424 18.9062 27.5126 19.0428 30.2191H23.5309L20.555 22.1497C18.9149 17.7022 20.5437 12.5637 24.7586 10.2401C26.1689 9.46263 27.9383 10.0771 28.5632 11.5614L28.957 12.4967C30.8415 10.2777 33.5832 9.00438 36.4997 9.00438Z" fill="#00AA72"/>
</svg>
