<svg width="65" height="65" viewBox="0 0 65 65" fill="none" xmlns="http://www.w3.org/2000/svg">
<g clip-path="url(#clip0_7726_4676)">
<path d="M32.9372 65.0001C30.4324 65.0623 25.5117 64.6726 23.9032 64.2904C22.7717 64.031 21.7535 63.4151 20.9985 62.5334C20.2318 61.6678 19.75 60.5872 19.6185 59.4383V59.404C19.5342 58.5753 19.5084 57.7417 19.5411 56.9094C19.5083 56.2195 19.5342 55.5281 19.6185 54.8426V54.8083C19.7354 53.7142 20.2248 52.6936 21.0048 51.9176C21.7894 51.1356 22.8162 50.6432 23.9171 50.5211C25.5307 50.351 30.4413 50.257 32.9308 50.2583C35.4204 50.2596 39.4321 50.351 41.0457 50.5211C42.148 50.6451 43.1754 51.1403 43.9592 51.9252C44.7387 52.7016 45.2281 53.722 45.3456 54.8159V54.8502C45.426 55.5353 45.4663 56.2246 45.4662 56.9145C45.4705 57.7488 45.4307 58.5828 45.3468 59.4129V59.4472C45.2146 60.5965 44.7324 61.6774 43.9656 62.5436C43.2111 63.4252 42.1932 64.0412 41.0622 64.3006C39.4562 64.6523 35.4419 65.0103 32.9372 65.0001Z" fill="#00AA72"/>
<path d="M32.5005 48.3704C36.809 48.3704 40.3018 44.8776 40.3018 40.5691C40.3018 36.2606 36.809 32.7678 32.5005 32.7678C28.192 32.7678 24.6992 36.2606 24.6992 40.5691C24.6992 44.8776 28.192 48.3704 32.5005 48.3704Z" fill="#00AA72"/>
<path d="M52.7486 47.4995C56.8167 47.4995 60.1145 44.2017 60.1145 40.1336C60.1145 36.0656 56.8167 32.7678 52.7486 32.7678C48.6806 32.7678 45.3828 36.0656 45.3828 40.1336C45.3828 44.2017 48.6806 47.4995 52.7486 47.4995Z" fill="#00AA72"/>
<path d="M12.2525 47.4995C16.3206 47.4995 19.6184 44.2017 19.6184 40.1336C19.6184 36.0656 16.3206 32.7678 12.2525 32.7678C8.18451 32.7678 4.88672 36.0656 4.88672 40.1336C4.88672 44.2017 8.18451 47.4995 12.2525 47.4995Z" fill="#00AA72"/>
<path d="M43.6915 8.59477C42.819 8.45772 42.0321 7.99153 41.4928 7.29209C40.9534 6.59265 40.7026 5.71313 40.7919 4.83442C40.8192 4.59238 40.8741 4.35427 40.9557 4.12475C41.0528 3.81429 41.0545 3.48183 40.9606 3.17039C40.8666 2.85895 40.6814 2.58287 40.4288 2.37788C39.3265 1.42652 38.0766 0.661116 36.7281 0.111765C36.4342 -0.0122757 36.1072 -0.0346778 35.7991 0.0481077C35.4909 0.130893 35.2192 0.314132 35.027 0.568796C34.7711 0.906229 34.4503 1.18904 34.0834 1.40058C33.7165 1.61211 33.311 1.74809 32.8908 1.8005C32.4706 1.85291 32.0441 1.82069 31.6365 1.70574C31.229 1.5908 30.8485 1.39545 30.5176 1.1312C30.3133 0.96758 30.1307 0.778589 29.9742 0.568796C29.782 0.314132 29.5103 0.130893 29.2021 0.0481077C28.894 -0.0346778 28.567 -0.0122757 28.2731 0.111765C27.0293 0.617518 25.8687 1.30739 24.8301 2.15825C24.5652 2.36605 24.3703 2.64987 24.2713 2.97164C24.1724 3.29341 24.1742 3.63774 24.2766 3.95844C24.8974 5.60884 24.0595 7.53725 22.3558 8.24057C22.0522 8.36729 21.7319 8.4498 21.4049 8.48559C21.0724 8.52509 20.76 8.66589 20.5102 8.8889C20.2604 9.11191 20.0852 9.40634 20.0084 9.73227C19.6964 11.1173 19.6688 12.5511 19.9272 13.9471C19.9937 14.2834 20.1653 14.5898 20.4172 14.8223C20.669 15.0548 20.9882 15.2013 21.3287 15.2408C22.2032 15.3332 23.0087 15.7582 23.5786 16.4279C24.1486 17.0975 24.4393 17.9606 24.3908 18.8386C24.3691 19.1994 24.2854 19.5537 24.1433 19.886C23.8729 20.5093 24.0823 21.2647 24.6397 21.7243C25.7363 22.6594 26.9759 23.4125 28.3111 23.9548C28.4767 24.0189 28.6517 24.0549 28.8291 24.0615C29.0687 24.0667 29.3058 24.0113 29.5182 23.9003C29.7306 23.7893 29.9115 23.6264 30.044 23.4267C30.3304 22.9917 30.7206 22.635 31.1794 22.3887C31.6383 22.1425 32.1512 22.0145 32.672 22.0163C33.1759 22.0155 33.6728 22.1349 34.1212 22.3648C34.5697 22.5947 34.9568 22.9283 35.2504 23.3378C35.4417 23.6101 35.7221 23.807 36.0432 23.8944C36.3643 23.9818 36.7058 23.9542 37.0087 23.8165C38.2271 23.2749 39.3601 22.5586 40.3717 21.69C40.6287 21.4817 40.8162 21.2 40.909 20.8824C41.0017 20.5649 40.9954 20.2265 40.8909 19.9126C40.2562 18.275 41.0661 16.3364 42.7622 15.6153C43.0488 15.49 43.3513 15.4046 43.661 15.3614C43.9895 15.3136 44.2955 15.1663 44.5377 14.9393C44.7799 14.7123 44.9467 14.4165 45.0156 14.0918C45.1617 13.411 45.2408 12.7175 45.2518 12.0212C45.2513 11.2869 45.1743 10.5547 45.022 9.83638C44.9524 9.51868 44.7882 9.22956 44.5508 9.0072C44.3135 8.78483 44.0143 8.6397 43.6928 8.59096L43.6915 8.59477ZM36.751 12.0225C36.7515 12.8633 36.5026 13.6853 36.0359 14.3846C35.5692 15.0839 34.9055 15.6291 34.1289 15.9512C33.3523 16.2733 32.4976 16.3578 31.6729 16.1941C30.8483 16.0304 30.0907 15.6258 29.496 15.0314C28.9013 14.4371 28.4963 13.6798 28.3321 12.8552C28.1679 12.0306 28.2519 11.1759 28.5735 10.3991C28.8951 9.62227 29.4399 8.9583 30.1389 8.49115C30.838 8.024 31.6598 7.77466 32.5006 7.77466C33.6261 7.78033 34.7039 8.22996 35.4998 9.02583C36.2957 9.82171 36.7453 10.8995 36.751 12.025V12.0225Z" fill="#00AA72"/>
<path d="M65.0006 55.5559C65.0007 54.9043 64.9629 54.2532 64.8876 53.6059V53.5742C64.7771 52.5412 64.315 51.5776 63.5787 50.8447C62.8394 50.1032 61.8695 49.6357 60.8289 49.5193C59.3055 49.3581 55.5223 49.2654 53.166 49.2654C50.8098 49.2654 46.2001 49.353 44.6602 49.5129C44.9889 49.7467 45.2976 50.0074 45.5831 50.2924C46.7316 51.4405 47.4525 52.9472 47.6258 54.5619V54.5898V54.6063C47.7135 55.3861 47.7559 56.1703 47.7527 56.9549C47.7572 57.8524 47.7148 58.7495 47.6258 59.6425V59.654V59.6743C47.5047 60.7913 47.1431 61.8689 46.5657 62.8329C48.6135 63.0677 51.4725 63.2442 53.1673 63.2023C55.5324 63.2188 59.322 62.8798 60.8429 62.5358C61.9109 62.2912 62.8719 61.7094 63.5838 60.8765C64.3077 60.0601 64.7629 59.0406 64.8876 57.9566V57.9249C64.9672 57.1378 65.0049 56.347 65.0006 55.5559Z" fill="#00AA72"/>
<path d="M17.3457 59.668V59.6604V59.6324C17.2553 58.7324 17.2248 57.8273 17.2543 56.9232C17.2272 56.1489 17.2577 55.3736 17.3457 54.6038V54.567C17.4533 53.563 17.7735 52.5934 18.2851 51.7229C18.7967 50.8523 19.4878 50.1007 20.3126 49.5181C18.7802 49.3568 15.0148 49.2705 12.6662 49.2705C10.3175 49.2705 5.67359 49.3581 4.15016 49.5244C3.10907 49.6384 2.13786 50.1037 1.39654 50.8435C0.660355 51.5768 0.198678 52.5409 0.0889251 53.5742V53.606C0.00848561 54.2526 -0.0169962 54.905 0.0127532 55.556C-0.0178936 56.3417 0.00671122 57.1286 0.086386 57.9109V57.9439C0.211379 59.0279 0.666535 60.0472 1.39019 60.8639C2.10259 61.6968 3.06399 62.2785 4.13238 62.5231C5.65582 62.885 10.2985 63.2519 12.6636 63.1935C14.5838 63.1816 16.5017 63.0612 18.4083 62.8329C17.8296 61.8671 17.4671 60.7873 17.3457 59.668Z" fill="#00AA72"/>
<path d="M12.1168 31.3575C12.028 31.3575 11.9404 31.3575 11.8502 31.3436C11.5349 31.309 11.2295 31.2125 10.9515 31.0597C10.6735 30.907 10.4284 30.7009 10.2302 30.4532C10.0319 30.2056 9.88451 29.9213 9.79631 29.6166C9.7081 29.3119 9.68086 28.9928 9.71614 28.6776C10.2912 23.4293 13.9335 18.8158 18.9926 16.9255C19.5919 16.7016 20.2557 16.7249 20.8378 16.9904C21.4199 17.2559 21.8727 17.7417 22.0966 18.341C22.3205 18.9404 22.2972 19.6041 22.0317 20.1862C21.7662 20.7683 21.2804 21.2211 20.6811 21.445C17.3117 22.7031 14.8907 25.7487 14.5112 29.2031C14.4476 29.7942 14.1681 30.3409 13.7263 30.7385C13.2844 31.1361 12.7112 31.3566 12.1168 31.3575Z" fill="#00AA72"/>
<path d="M52.8823 31.3574C52.2873 31.3564 51.7137 31.1354 51.2717 30.737C50.8298 30.3386 50.5506 29.7909 50.488 29.1992C50.1071 25.7448 47.6874 22.6992 44.3181 21.4411C43.7188 21.2172 43.2329 20.7644 42.9675 20.1823C42.702 19.6002 42.6786 18.9365 42.9026 18.3371C43.1265 17.7378 43.5793 17.252 44.1614 16.9865C44.7435 16.721 45.4072 16.6977 46.0066 16.9216C51.0656 18.8119 54.7079 23.4254 55.283 28.6736C55.3183 28.9889 55.2911 29.308 55.2029 29.6127C55.1147 29.9174 54.9672 30.2017 54.769 30.4493C54.5708 30.697 54.3256 30.9031 54.0476 31.0558C53.7696 31.2086 53.4643 31.3051 53.1489 31.3397C53.0664 31.346 52.9712 31.3574 52.8823 31.3574Z" fill="#00AA72"/>
</g>
<defs>
<clipPath id="clip0_7726_4676">
<rect width="65" height="65" fill="white"/>
</clipPath>
</defs>
</svg>
