<svg width="40" height="40" viewBox="0 0 40 40" fill="none" xmlns="http://www.w3.org/2000/svg">
<g clip-path="url(#clip0_488_3063)">
<path d="M40 28.3333H38.3333V40H35V28.3333H33.3333V40H30V28.3333H28.3333V14.1667C28.3333 11.865 30.1983 10 32.5 10H35.8333C38.135 10 40 11.865 40 14.1667V28.3333ZM34.1667 8.33333C36.4683 8.33333 38.3333 6.46833 38.3333 4.16667C38.3333 1.865 36.4683 0 34.1667 0C31.865 0 30 1.865 30 4.16667C30 6.46833 31.865 8.33333 34.1667 8.33333ZM21.6667 10H18.3333C16.0317 10 14.1667 11.865 14.1667 14.1667V28.3333H15.8333V40H19.1667V28.3333H20.8333V40H24.1667V28.3333H25.8333V14.1667C25.8333 11.865 23.9683 10 21.6667 10ZM20 8.33333C22.3017 8.33333 24.1667 6.46833 24.1667 4.16667C24.1667 1.865 22.3017 0 20 0C17.6983 0 15.8333 1.865 15.8333 4.16667C15.8333 6.46833 17.6983 8.33333 20 8.33333ZM7.5 10H4.16667C1.865 10 0 11.865 0 14.1667V28.3333H1.66667V40H5V28.3333H6.66667V40H10V28.3333H11.6667V14.1667C11.6667 11.865 9.80167 10 7.5 10ZM5.83333 8.33333C8.135 8.33333 10 6.46833 10 4.16667C10 1.865 8.135 0 5.83333 0C3.53167 0 1.66667 1.865 1.66667 4.16667C1.66667 6.46833 3.53167 8.33333 5.83333 8.33333Z" fill="#00AA72"/>
</g>
<defs>
<clipPath id="clip0_488_3063">
<rect width="40" height="40" fill="white"/>
</clipPath>
</defs>
</svg>
