<svg width="27" height="32" viewBox="0 0 27 32" fill="none" xmlns="http://www.w3.org/2000/svg">
<path d="M26.6667 30.6667C26.6667 31.404 26.0707 32 25.3333 32H1.33333C0.596 32 0 31.404 0 30.6667C0 25.9667 2.72267 21.9013 6.66667 19.9333V24.3707C5.87333 24.832 5.33333 25.6827 5.33333 26.668C5.33333 28.1413 6.52667 29.3347 8 29.3347C9.47333 29.3347 10.6667 28.1413 10.6667 26.668C10.6667 25.684 10.1267 24.8333 9.33333 24.3707V18.976C10.192 18.78 11.0827 18.6667 12 18.6667H14.6667C15.1173 18.6667 15.5613 18.696 16 18.7453V24.2453C14.452 24.7973 13.3333 26.264 13.3333 28V29.3333C13.3333 30.0707 13.9293 30.6667 14.6667 30.6667C15.404 30.6667 16 30.0707 16 29.3333V28C16 27.264 16.5973 26.6667 17.3333 26.6667C18.0693 26.6667 18.6667 27.264 18.6667 28V29.3333C18.6667 30.0707 19.2627 30.6667 20 30.6667C20.7373 30.6667 21.3333 30.0707 21.3333 29.3333V28C21.3333 26.264 20.2147 24.7973 18.6667 24.2453V19.3667C23.32 21.0187 26.6667 25.4533 26.6667 30.6667ZM21.3333 8C21.3333 3.588 17.7453 0 13.3333 0C8.92133 0 5.33333 3.588 5.33333 8C5.33333 12.412 8.92133 16 13.3333 16C17.7453 16 21.3333 12.412 21.3333 8Z" fill="#00AA72"/>
</svg>
