<svg width="99" height="99" viewBox="0 0 99 99" fill="none" xmlns="http://www.w3.org/2000/svg">
<path d="M59.6871 69.1512L67.174 81.3734L75.1598 69.1009L71.3119 69.1125C70.4631 69.1183 69.767 68.4319 69.767 67.5772V53.8197H65.1747V67.5985C65.1747 68.4532 64.4844 69.1396 63.6336 69.1396L59.6871 69.1512ZM65.8147 85.0685L55.6749 68.5112C54.9131 67.3665 55.7677 66.0671 56.9356 66.0671H62.0925L62.0867 52.2767C62.0867 51.4221 62.777 50.7318 63.6317 50.7318H71.3061V50.7376C72.1549 50.7376 72.8472 51.4279 72.8472 52.2786V66.0304L77.9441 66.0149C79.2532 65.982 79.9551 67.3858 79.2976 68.3932L68.4618 85.055C67.816 86.0933 66.3967 86.0218 65.8147 85.0685ZM67.4698 42.0538C81.9505 42.0538 93.6855 53.7888 93.6855 68.2695C93.6855 82.7501 81.9505 94.4909 67.4698 94.4909C55.5821 94.4909 45.3534 86.5265 42.2248 75.3677H20.3559C16.4268 75.3677 13.5593 72.1831 13.2422 68.3797L9.73854 26.6566H8.7582C6.86135 26.6566 5.31641 25.1116 5.31641 23.2206V18.1662C5.31641 16.2751 6.86135 14.7302 8.7582 14.7302H23.9408V11.1008C23.9408 7.40187 26.9611 4.38159 30.66 4.38159H42.279C45.9779 4.38159 48.9982 7.40187 48.9982 11.1008V14.7302H64.1866C66.0835 14.7302 67.6226 16.2751 67.6226 18.1662V23.2206C67.6226 25.1116 66.0815 26.6566 64.1866 26.6566H63.2005L61.8586 42.6551C63.6665 42.2607 65.5459 42.0538 67.4698 42.0538ZM41.5558 72.2759C41.3586 70.9707 41.2542 69.6346 41.2542 68.2695C41.2542 61.5232 43.7969 55.3724 47.985 50.7298L48.8455 37.7516C48.8996 36.9027 49.6286 36.2549 50.4852 36.3052C51.334 36.3594 51.9818 37.0941 51.9276 37.9449L51.2857 47.6458C53.4938 45.9133 55.9882 44.5211 58.6797 43.562L60.099 26.6585H12.84L16.3205 68.1225C16.5061 70.3307 18.0685 72.2778 20.354 72.2778H41.5558V72.2759ZM83.8203 51.919C74.7924 42.8872 60.1473 42.8872 51.1213 51.919C42.0895 60.9527 42.0895 75.592 51.1213 84.6199C60.1493 93.6517 74.7943 93.6517 83.8203 84.6199C92.8541 75.592 92.8541 60.9527 83.8203 51.919ZM45.9083 14.7302V11.1008C45.9083 9.11116 44.2745 7.47728 42.279 7.47728H30.66C28.6704 7.47728 27.0365 9.11116 27.0365 11.1008V14.7302H45.9083ZM34.9236 36.6552C34.9236 35.8006 35.6139 35.1045 36.4685 35.1045C37.3232 35.1045 38.0135 35.8006 38.0135 36.6552V59.6534C38.0135 60.508 37.3232 61.2041 36.4685 61.2041C35.6139 61.2041 34.9236 60.508 34.9236 59.6534V36.6552ZM21.0133 37.943C20.963 37.0941 21.6108 36.3594 22.4597 36.3033C23.3085 36.253 24.0433 36.9008 24.0993 37.7496L25.5302 59.4001C25.5843 60.2489 24.9385 60.9837 24.0877 61.034C23.2331 61.0881 22.5041 60.4423 22.448 59.5915L21.0133 37.943ZM8.7582 23.5648H64.1885C64.3742 23.5648 64.5347 23.4062 64.5347 23.2187V18.1662C64.5347 17.9806 64.3761 17.8201 64.1885 17.8201H8.7582C8.56678 17.8201 8.40822 17.9786 8.40822 18.1662V23.2206C8.40629 23.4062 8.56484 23.5648 8.7582 23.5648Z" fill="#00AA72"/>
</svg>
