<svg width="93" height="93" viewBox="0 0 93 93" fill="none" xmlns="http://www.w3.org/2000/svg">
<path d="M83.2757 2.90625H9.72431C5.96508 2.90625 2.90625 5.96508 2.90625 9.72431V83.2757C2.90625 87.0349 5.96508 90.0938 9.72431 90.0938H83.2757C87.0349 90.0938 90.0938 87.0349 90.0938 83.2757V9.72431C90.0938 5.96508 87.0349 2.90625 83.2757 2.90625ZM5.8125 9.72431C5.8125 7.56787 7.56787 5.8125 9.72431 5.8125H83.2757C85.4321 5.8125 87.1875 7.56787 87.1875 9.72431V18.8558H5.8125V9.72431ZM83.2757 87.1875H9.72431C7.56787 87.1875 5.8125 85.4321 5.8125 83.2757V21.762H87.1875V83.2757C87.1875 85.4321 85.4321 87.1875 83.2757 87.1875Z" fill="#00AA72"/>
<path d="M14.9187 10.8811H12.043C11.2408 10.8811 10.5898 11.5321 10.5898 12.3342C10.5898 13.1364 11.2408 13.7874 12.043 13.7874H14.9187C15.7208 13.7874 16.3718 13.1364 16.3718 12.3342C16.3718 11.5321 15.7208 10.8811 14.9187 10.8811Z" fill="#00AA72"/>
<path d="M22.95 10.8811H20.0742C19.2721 10.8811 18.6211 11.5321 18.6211 12.3342C18.6211 13.1364 19.2721 13.7874 20.0742 13.7874H22.95C23.7521 13.7874 24.4031 13.1364 24.4031 12.3342C24.4031 11.5321 23.7521 10.8811 22.95 10.8811Z" fill="#00AA72"/>
<path d="M30.9807 10.8811H28.1035C27.3014 10.8811 26.6504 11.5321 26.6504 12.3342C26.6504 13.1364 27.3014 13.7874 28.1035 13.7874H30.9807C31.7828 13.7874 32.4338 13.1364 32.4338 12.3342C32.4338 11.5321 31.7828 10.8811 30.9807 10.8811Z" fill="#00AA72"/>
<path d="M80.9584 10.8811H53.3926C52.5905 10.8811 51.9395 11.5321 51.9395 12.3342C51.9395 13.1364 52.5905 13.7874 53.3926 13.7874H80.9584C81.7605 13.7874 82.4115 13.1364 82.4115 12.3342C82.4115 11.5321 81.7605 10.8811 80.9584 10.8811Z" fill="#00AA72"/>
<path d="M46.5006 27.8433C32.5171 27.8433 21.1406 39.2198 21.1406 53.2032C21.1406 67.1866 32.5171 78.5617 46.5006 78.5617C60.484 78.5617 71.8605 67.1866 71.8605 53.2032C71.8605 39.2198 60.484 27.8433 46.5006 27.8433ZM46.5006 75.6554C34.1199 75.6554 24.0469 65.5824 24.0469 53.2032C24.0469 40.824 34.1199 30.7495 46.5006 30.7495C58.8812 30.7495 68.9543 40.8226 68.9543 53.2032C68.9543 65.5838 58.8812 75.6554 46.5006 75.6554Z" fill="#00AA72"/>
<path d="M46.4294 35.1555C43.8065 35.1555 41.6719 37.2902 41.6719 39.913V54.8686C41.6719 57.4915 43.8065 59.6247 46.4294 59.6247H46.5718C49.1947 59.6247 51.3293 57.49 51.3293 54.8686V39.913C51.3293 37.2902 49.1947 35.1555 46.4294 35.1555ZM48.4231 54.8672C48.4231 55.8873 47.5934 56.717 46.5718 56.717H46.4294C45.4079 56.717 44.5781 55.8873 44.5781 54.8672V39.9116C44.5781 38.89 45.4079 38.0603 46.5718 38.0603C47.5934 38.0603 48.4231 38.89 48.4231 39.9116V54.8672Z" fill="#00AA72"/>
<path d="M46.5006 61.4062C43.8385 61.4062 41.6719 63.5729 41.6719 66.235C41.6719 68.8971 43.8385 71.0623 46.5006 71.0623C49.1627 71.0623 51.3293 68.8971 51.3293 66.235C51.3293 63.5729 49.1627 61.4062 46.5006 61.4062ZM46.5006 68.1575C45.4413 68.1575 44.5781 67.2958 44.5781 66.2364C44.5781 65.1771 45.4398 64.314 46.5006 64.314C47.5614 64.314 48.4231 65.1771 48.4231 66.2364C48.4231 67.2958 47.5614 68.1575 46.5006 68.1575Z" fill="#00AA72"/>
</svg>
