<svg width="56" height="56" viewBox="0 0 56 56" fill="none" xmlns="http://www.w3.org/2000/svg">
<path d="M50.7234 36.0643C50.7224 35.8853 50.6663 35.7109 50.5626 35.5649C50.459 35.4189 50.3129 35.3083 50.1443 35.2483L42.08 32.37C41.8902 32.2998 41.6817 32.2998 41.492 32.37L33.4277 35.2483C33.26 35.3098 33.1149 35.4207 33.0115 35.5664C32.9081 35.7121 32.8513 35.8857 32.8485 36.0643L32.7695 43.4969C32.7695 48.4547 37.3238 51.3505 41.7903 52.5C46.2568 51.3505 50.8024 48.4547 50.8024 43.4881L50.7234 36.0643ZM45.0986 41.2329L41.5096 44.8218C41.3438 44.9827 41.1219 45.0727 40.8909 45.0727C40.6599 45.0727 40.438 44.9827 40.2723 44.8218L38.4822 43.023C38.3187 42.8588 38.2271 42.6364 38.2274 42.4047C38.2276 42.1731 38.3198 41.9509 38.4836 41.7871C38.6475 41.6233 38.8696 41.5312 39.1013 41.5309C39.3329 41.5306 39.5553 41.6223 39.7195 41.7857L40.8865 42.9615L43.8525 39.9956C44.0177 39.8358 44.239 39.7472 44.4688 39.7488C44.6986 39.7503 44.9186 39.8418 45.0817 40.0038C45.2448 40.1657 45.3379 40.3851 45.341 40.6149C45.3442 40.8447 45.2572 41.0665 45.0986 41.2329Z" fill="#00AA72"/>
<path d="M31.0932 36.0467C31.1025 35.5099 31.2743 34.9885 31.5861 34.5514C31.8979 34.1142 32.3349 33.782 32.8395 33.5985C33.124 33.5491 41.8384 30.2417 41.7901 30.5622C42.3985 30.4722 46.6115 32.1753 47.2745 32.3612V17.1803L27.1094 29.2812V51.8243L32.5236 48.5775C31.5319 47.0692 31.0069 45.3019 31.0142 43.4968L31.0932 36.0467Z" fill="#00AA72"/>
<path d="M5.19922 39.732L25.3548 51.8245V29.281L5.19922 17.1807V39.732Z" fill="#00AA72"/>
<path d="M26.2324 3.5L6.02344 15.6275L26.2324 27.7541L46.4502 15.6275L26.2324 3.5Z" fill="#00AA72"/>
</svg>
