<svg width="41" height="41" viewBox="0 0 41 41" fill="none" xmlns="http://www.w3.org/2000/svg">
<path fill-rule="evenodd" clip-rule="evenodd" d="M26.4446 38.8644H6.83464C5.58926 38.8644 4.39343 38.369 3.51193 37.4892C2.63214 36.6077 2.13672 35.4119 2.13672 34.1665V6.83317C2.13672 5.5878 2.63214 4.39196 3.51193 3.51046C4.39343 2.63067 5.58926 2.13525 6.83464 2.13525H21.5024C22.2951 2.13525 23.0553 2.44959 23.6156 3.01163L31.1562 10.5522C31.7182 11.1125 32.0326 11.8728 32.0326 12.6654V19.7567C30.8589 19.5842 29.6648 19.6132 28.4997 19.8421C27.5174 20.0335 26.6974 20.7048 26.3131 21.629L26.0226 22.3295C25.64 22.2799 25.2693 22.2321 25.2693 22.2321C24.2767 22.1023 23.2859 22.4764 22.6282 23.2315C21.7381 24.253 21.0531 25.4369 20.6141 26.7199C20.2895 27.6663 20.4603 28.7118 21.0685 29.5062L21.5314 30.1092C21.2974 30.415 21.0685 30.7123 21.0685 30.7123C20.4603 31.5066 20.2895 32.5521 20.6141 33.4985C21.0531 34.7815 21.7381 35.9654 22.6282 36.987C23.2859 37.742 24.2767 38.1162 25.2693 37.9863L26.0226 37.889C26.1696 38.2443 26.3131 38.5894 26.3131 38.5894C26.3523 38.6833 26.3968 38.7756 26.4446 38.8644ZM9.39714 25.1978H17.0846C17.7919 25.1978 18.3659 24.6238 18.3659 23.9165C18.3659 23.2093 17.7919 22.6353 17.0846 22.6353H9.39714C8.68989 22.6353 8.11589 23.2093 8.11589 23.9165C8.11589 24.6238 8.68989 25.1978 9.39714 25.1978ZM21.3555 5.12484V11.104C21.3555 12.047 22.1208 12.8123 23.0638 12.8123H29.043L21.3555 5.12484ZM9.39714 19.2186H23.0638C23.7711 19.2186 24.3451 18.6446 24.3451 17.9373C24.3451 17.2301 23.7711 16.6561 23.0638 16.6561H9.39714C8.68989 16.6561 8.11589 17.2301 8.11589 17.9373C8.11589 18.6446 8.68989 19.2186 9.39714 19.2186ZM9.39714 31.1769H17.0846C17.7919 31.1769 18.3659 30.6029 18.3659 29.8957C18.3659 29.1884 17.7919 28.6144 17.0846 28.6144H9.39714C8.68989 28.6144 8.11589 29.1884 8.11589 29.8957C8.11589 30.6029 8.68989 31.1769 9.39714 31.1769Z" fill="#00AA72"/>
<path fill-rule="evenodd" clip-rule="evenodd" d="M33.1349 22.2833C33.1349 22.2833 33.7413 23.744 33.7396 23.744C33.9702 23.8601 34.194 23.99 34.411 24.13L35.9792 23.925C36.4029 23.8704 36.8283 24.031 37.1102 24.3538C37.855 25.208 38.4273 26.2005 38.7963 27.2734C38.9347 27.6783 38.8612 28.1275 38.5998 28.4675C38.5998 28.4675 37.6397 29.7231 37.6397 29.7214C37.6534 29.9794 37.6534 30.239 37.6397 30.4953L38.5998 31.7509C38.8612 32.0909 38.9347 32.5402 38.7963 32.945C38.4273 34.0179 37.855 35.0104 37.1102 35.8646C36.8283 36.1875 36.4029 36.348 35.9792 36.2934C35.9792 36.2934 34.411 36.0884 34.4127 36.0867C34.1957 36.2285 33.9702 36.3583 33.7413 36.4745L33.1349 37.9351C32.9709 38.3314 32.619 38.6184 32.1987 38.7004C31.0849 38.9191 29.9403 38.9191 28.8265 38.7004C28.4062 38.6184 28.0543 38.3314 27.8903 37.9351C27.8903 37.9351 27.2838 36.4745 27.2855 36.4745C27.0549 36.3583 26.8294 36.2285 26.6142 36.0884L25.0459 36.2934C24.6205 36.348 24.1969 36.1875 23.915 35.8646C23.1685 35.0104 22.5962 34.0179 22.2289 32.945C22.0905 32.5402 22.164 32.0909 22.4236 31.7509C22.4236 31.7509 23.3854 30.4953 23.3854 30.497C23.3717 30.239 23.3717 29.9794 23.3854 29.7231L22.4236 28.4675C22.164 28.1275 22.0905 27.6783 22.2289 27.2734C22.5962 26.2005 23.1685 25.208 23.915 24.3538C24.1969 24.031 24.6205 23.8704 25.0459 23.925C25.0459 23.925 26.6142 24.13 26.6125 24.1318C26.8294 23.99 27.0532 23.8601 27.2838 23.744L27.8903 22.2833C28.0543 21.887 28.4062 21.6 28.8265 21.518C29.9403 21.2993 31.0849 21.2993 32.1987 21.518C32.619 21.6 32.9709 21.887 33.1349 22.2833ZM30.5126 27.5467C29.0981 27.5467 27.9501 28.6947 27.9501 30.1092C27.9501 31.5237 29.0981 32.6717 30.5126 32.6717C31.9271 32.6717 33.0751 31.5237 33.0751 30.1092C33.0751 28.6947 31.9271 27.5467 30.5126 27.5467Z" fill="#00AA72"/>
</svg>
