<svg width="46" height="46" viewBox="0 0 46 46" fill="none" xmlns="http://www.w3.org/2000/svg">
<path d="M14.5454 11.8078C14.5454 11.0773 15.1627 10.4602 15.8932 10.4602H30.4559C31.1864 10.4602 31.8036 11.0773 31.8036 11.8078C31.8036 12.5383 31.1864 13.1555 30.4559 13.1555H15.8932C15.1627 13.1555 14.5454 12.5383 14.5454 11.8078ZM18.9833 27.6862V26.614C18.9833 26.3492 18.7596 26.1254 18.4948 26.1254C18.2299 26.1254 18.0062 26.3491 18.0062 26.614V27.6862C18.0062 27.9509 18.2299 28.1747 18.4948 28.1747C18.7596 28.1747 18.9833 27.951 18.9833 27.6862ZM17.0124 8.09709H29.3365L31.1108 3.46879C31.2915 2.99738 31.3399 2.71428 31.3503 2.56559C30.9723 2.49596 30.1612 2.58023 29.744 2.62354C29.3608 2.66334 28.9989 2.70089 28.6595 2.70566C26.7586 2.73207 25.5667 1.94396 24.6962 1.36914C24.0396 0.935374 23.6724 0.709507 23.2004 0.71921L23.1731 0.719749L23.1458 0.71921C22.6731 0.707081 22.3089 0.935194 21.6533 1.36851C20.7829 1.94369 19.5876 2.73279 17.69 2.70574C17.3501 2.70098 16.9882 2.66343 16.605 2.62363C16.1878 2.58032 15.3768 2.49596 14.9986 2.56568C15.009 2.71428 15.0574 2.99747 15.2382 3.46897L17.0124 8.09718L17.0124 8.09709ZM27.5026 32.0848C27.2378 32.0848 27.014 32.3085 27.014 32.5734V33.6456C27.014 33.909 27.2377 34.1317 27.5026 34.1317C27.7675 34.1317 27.9912 33.909 27.9912 33.6456V32.5734C27.9912 32.3085 27.7675 32.0848 27.5026 32.0848ZM36.9291 21.1128C39.505 24.9601 41.0429 29.5034 41.0429 33.2658C41.0429 36.7609 39.7998 39.5478 37.3482 41.5489C34.314 44.0255 29.4867 45.2814 23.0006 45.2814C16.5145 45.2814 11.6864 44.0254 8.65195 41.5484C6.2002 39.5472 4.95703 36.7599 4.95703 33.2644C4.95703 29.502 6.49462 24.9591 9.07008 21.1121C11.6431 17.2689 14.2638 15.5184 15.6097 15.5184H30.3885C31.7346 15.5184 34.3556 17.2691 36.9291 21.1128ZM18.4948 30.87C20.2503 30.87 21.6787 29.4417 21.6787 27.6861V26.6139C21.6787 24.8582 20.2504 23.43 18.4948 23.43C16.7391 23.43 15.3109 24.8582 15.3109 26.6139V27.6861C15.3109 29.4417 16.7391 30.87 18.4948 30.87ZM28.0043 25.5738C28.444 24.9732 28.3134 24.1299 27.7129 23.6903C27.1125 23.2507 26.2691 23.381 25.8294 23.9816L17.9957 34.6831C17.556 35.2837 17.6865 36.127 18.2871 36.5666C18.527 36.7423 18.8057 36.8269 19.0821 36.8269C19.4971 36.8269 19.9067 36.6358 20.1705 36.2751L28.0043 25.5737V25.5738ZM30.6865 32.5733C30.6865 30.8177 29.2582 29.3894 27.5026 29.3894C25.747 29.3894 24.3187 30.8177 24.3187 32.5733V33.6455C24.3187 35.3997 25.747 36.8269 27.5026 36.8269C29.2582 36.8269 30.6865 35.3997 30.6865 33.6455V32.5733Z" fill="#00AA72"/>
</svg>
