<svg width="162" height="141" viewBox="0 0 162 141" fill="none" xmlns="http://www.w3.org/2000/svg">
<path fill-rule="evenodd" clip-rule="evenodd" d="M110.11 108.697C110.239 108.641 110.202 108.631 110.11 108.697ZM109.646 108.805V108.803C109.047 108.435 109.533 108.923 109.59 108.805C109.596 108.805 109.596 108.803 109.646 108.805ZM103.703 108.117H103.707C103.707 108.117 103.707 108.117 103.703 108.117ZM118 110.968C117.762 111.555 117.998 111.399 117.792 111.555C117.484 111.789 117.767 111.939 117.366 112.183C116.859 112.49 116.332 113.017 116.054 113.053C114.872 113.208 113.159 112.701 112.369 111.822C112.094 111.517 111.835 111.237 111.625 110.958C111.131 110.297 111.128 110.529 110.925 110.199C110.846 110.071 110.788 109.928 110.639 109.855C110.62 109.849 110.608 109.837 110.602 109.822C110.425 109.373 110.097 109.44 109.856 109.049C108.576 110.894 107.377 113.593 104.165 113.579C101.069 113.566 99.5666 111.293 98.9497 108.452C98.8834 108.141 98.7757 107.839 98.7797 107.545C98.7819 107.043 98.5602 106.618 98.5165 106.183C98.4499 105.494 97.7627 103.431 97.3808 102.73C97.0121 102.054 96.5469 101.948 95.808 101.752C93.9374 101.257 92.2357 103.994 91.4334 105.374L91.1535 105.859C91.0425 106.271 90.8092 106.149 90.7204 106.301C90.6228 106.469 90.542 106.641 90.4157 106.796C90.415 106.797 89.6204 108.352 89.2946 108.75C88.9797 109.136 89.1501 109.928 88.8243 109.967C88.3664 110.022 88.5891 111.44 87.4899 111.793C87.3869 111.674 87.4083 111.397 87.4051 111.25C87.2638 111.31 87.3341 111.359 87.1979 111.221C86.8973 110.916 86.8303 111.519 86.7276 111.171C86.5671 110.627 86.7273 107.416 86.8168 106.703C87.0476 104.861 87.4353 103.945 88.3151 102.328L88.9266 101.294C89.1639 100.785 89.2454 100.944 89.3121 100.774C89.4555 100.408 90.261 99.5074 90.5762 99.1929C92.1778 97.5953 93.9723 96.7053 96.3121 96.9485C98.3294 97.1582 100.028 97.8614 101.358 99.5078C102.388 100.782 102.824 101.634 103.296 103.188L104.255 107.324C105.502 105.322 107.025 103.197 109.759 103.31C110.838 103.355 111.156 103.557 111.991 104.005C113.542 104.837 114.151 106.116 114.762 107.368C115.81 109.519 115.103 109.14 115.574 109.95C115.816 110.367 116.794 110.446 116.913 110.555C117.108 110.736 117.724 110.976 118 110.968ZM128.832 98.0267L128.695 101.345L128.676 104.25L128.496 111.806L128.525 118.404C128.539 120.084 128.554 121.304 127.01 122.588C125.77 123.618 124.72 123.523 123.251 123.53L114.856 123.653L112.664 123.76C108.476 123.884 104.486 123.842 100.296 123.879C99.436 123.891 98.5762 123.924 97.7121 123.943L89.371 124.162C89.1071 124.207 89.0318 124.066 88.2251 124.158L86.0597 124.208C82.2395 124.294 81.208 124.284 77.3459 124.801L71.5165 125.746C77.964 117.977 81.1803 108.188 80.5411 98.0809C80.4017 95.8761 79.8652 91.8514 79.1321 89.8458C79.0698 89.6758 79.0098 89.4788 78.9788 89.3048C78.8008 88.3421 78.4201 87.4364 78.0754 86.5239C76.3569 81.9764 73.7638 77.6736 70.5053 74.0736C65.7216 68.788 58.8158 64.9431 51.8794 63.4263C49.4814 62.9017 45.0711 62.2535 42.49 62.5538C41.5261 62.6659 42.9712 62.7434 43.1841 62.8894C43.0931 62.9392 43.004 62.9931 42.917 63.0408C42.6745 63.1292 42.3979 63.0746 43.0702 63.2607C42.6185 63.2483 41.1621 63.3072 40.7887 63.4263C41.7125 63.7783 46.3659 64.4382 47.4116 64.5721L49.8071 65.1484C50.7368 65.4097 50.1966 65.492 51.376 65.8196C52.7846 66.2109 54.8958 66.8839 56.1589 67.585C59.0811 69.2073 60.8553 70.394 63.3952 72.4881C64.2368 73.1818 66.4823 75.2421 66.9617 76.0378C67.5328 76.986 67.6639 77.0348 68.3336 77.8323C69.1625 78.8195 69.2254 78.9978 69.9356 80.0123C72.2259 83.2847 74.1329 87.4783 75.048 91.36C75.6242 93.8039 75.776 94.9792 75.9846 97.5251C76.3089 101.483 75.8597 104.723 75.0189 108.595C74.795 109.626 74.439 110.621 74.0987 111.617C72.3023 116.876 68.655 122.187 64.5994 125.814C58.3407 131.41 50.9235 134.325 42.652 134.998C39.6253 135.245 34.89 134.826 32.3009 134.051C28.6449 132.956 26.6458 132.355 23.0608 130.238C17.1549 126.751 12.4775 121.814 9.4064 115.67C7.34252 111.528 6.12385 106.975 5.83593 102.352C5.62299 99.8168 5.81991 97.2018 6.18828 94.6844C6.86495 90.0602 9.1607 83.7429 11.9741 79.8802C12.994 78.4799 13.6248 77.1574 14.9643 75.8394C15.0098 75.7939 15.0553 75.7378 15.0906 75.6862C15.5169 75.071 15.8634 74.8005 16.3774 74.2957C17.8949 72.8055 17.4963 73.002 19.2249 71.6246C21.3292 69.9477 24.342 68.1896 26.6975 67.0015C27.8809 66.4045 30.5785 65.5047 31.8659 65.184C32.7985 64.9518 33.5909 64.4032 35.3061 64.0589C35.8827 63.9432 37.0773 63.8052 37.5731 63.5824C38.2363 63.2843 39.1397 63.3491 39.2974 63.2654C39.6537 63.0725 40.2175 63.0186 40.7894 62.9232C40.0246 62.8155 40.0268 62.8155 39.3429 62.5563C38.787 62.3583 38.0739 62.3594 37.6852 62.0984L36.5124 61.9761C36.5663 61.8021 36.6303 61.655 36.7777 61.3336C37.0092 60.8506 36.986 60.3519 37.3416 59.9268L37.7562 57.9208L38.3531 52.7774C38.6611 50.299 38.676 47.5362 39.0036 45.2718C39.3494 42.8825 39.558 32.2657 39.5984 28.8903C39.6191 27.0812 39.6068 25.2722 39.6089 23.4631C39.6089 23.3055 39.6068 23.1482 39.6151 22.9946C39.7462 20.8033 39.6726 18.2313 39.7061 15.9883L39.7847 9.65546C39.7625 7.59668 41.5137 5.8149 43.6723 5.79888C50.1336 5.75047 56.7508 5.77304 63.1805 5.65183L77.8584 5.47347C78.6086 5.47347 79.3545 5.42797 80.1007 5.42178L88.5265 5.37628C89.5876 5.34316 90.6425 5.31404 91.7053 5.35553C92.041 5.3741 92.3849 5.35335 92.7289 5.34716L103.538 5.17317L123.852 5.10474C124.609 5.09527 125.127 5.04868 125.875 5.23541C127.641 5.67622 128.99 7.1748 129.284 9.06069L129.375 14.1461C129.408 15.3604 129.339 16.5809 129.441 17.789C129.453 17.9361 129.457 18.1061 129.441 18.2531C129.352 19.0281 129.453 20.3119 129.459 21.231C129.526 28.2868 129.553 35.1595 130.079 42.1796L131.13 55.3946L123.524 72.1615L115.621 89.2703C115.474 89.5935 115.382 89.9626 115.381 90.3437L115.331 97.75L115.372 102.255C115.381 104.724 118.335 106.091 120.217 104.404L128.908 96.5048C128.871 97.0115 128.846 97.5192 128.832 98.0267ZM161.489 21.3544C160.478 24.1183 159.444 26.2611 158.376 28.9202C158.009 29.8342 158.003 30.1829 157.574 31.158C157.344 31.676 157.095 32.1878 156.963 32.7247C156.948 32.7807 156.925 32.8408 156.903 32.8925C156.37 33.9576 156.068 35.0539 155.689 36.1379C155.381 37.029 154.823 38.0464 154.52 38.8443C154.089 39.9901 153.604 41.1196 153.152 42.2553C152.07 44.9864 150.793 47.637 149.645 50.3412C149.042 51.7484 148.408 53.1345 147.756 54.5188C147.426 55.2235 147.144 55.953 146.829 56.6657L138.783 74.8602C138.217 76.1823 137.651 77.5065 137.086 78.8307L132.916 88.2369L133.061 88.7672L133.171 91.5711C133.411 93.3107 133.275 94.2767 133.395 95.7549C133.445 96.373 133.561 96.2722 133.571 96.9714C133.575 97.2593 133.554 97.5538 133.65 97.8334C133.66 97.8625 133.666 97.8934 133.662 97.9244C133.61 98.5315 133.776 99.1077 133.871 99.6985L133.905 101.209C134.154 103.472 134.05 105.446 134.114 107.613C134.136 108.396 134.118 109.181 134.085 109.963C134.068 110.363 134.108 110.762 134.112 111.16L134.13 119.501C134.081 124.724 129.949 128.942 124.67 128.93C124.117 128.93 123.558 128.976 123.014 128.918C122.09 128.82 121.178 128.97 120.258 128.936C119.141 128.893 118.026 129.003 116.941 129.011L110.162 128.953L99.8859 128.659L83.8338 128.429L82.5966 128.406C81.7059 128.495 81.7183 128.233 81.3099 128.214C80.8953 128.193 80.4829 128.197 80.0664 128.141C79.8157 128.108 79.5463 128.147 79.2893 128.139L75.3355 127.857C74.4084 127.708 72.9084 128.125 72.6125 127.834C72.4472 127.672 71.2478 127.659 71.1765 127.67C70.6731 127.755 70.2159 127.666 69.8151 127.666C65.6338 132.119 59.9969 135.862 54.2585 137.972C51.2053 139.095 50.5439 139.173 47.2748 139.85C44.9925 140.322 40.7311 140.526 38.4139 140.345C37.2928 140.257 35.293 140.133 34.2465 139.941C24.2551 138.21 15.1121 133.241 8.82364 125.168C0.85859 114.941 -1.64318 102.641 1.47957 90.2145C2.36992 86.6713 4.36464 82.1421 6.17554 79.217C9.39039 74.023 14.0885 69.3493 19.4299 66.3688C21.2797 65.3365 25.2815 63.7491 27.1638 63.1879C29.6481 62.4471 33.5935 61.856 36.2798 61.9612C36.1298 61.0887 36.0363 61.5531 36.025 60.7425C36.0086 59.5661 35.7382 59.9413 35.6934 58.5086C35.6581 57.3504 35.5503 56.2355 35.3203 55.193C35.1729 54.517 35.1914 52.2245 35.2064 51.5002C35.2511 49.3417 34.9537 47.1271 34.9639 44.8048C34.9661 44.3319 34.9308 39.9024 34.8314 39.3175C34.6258 38.1057 34.8081 36.9933 34.6407 36.0123C34.6305 35.9523 34.6283 35.8879 34.6283 35.8256C34.68 34.5884 34.5122 33.4196 34.419 32.2282C34.344 31.2727 34.4343 30.0744 34.3859 29.1633C34.0488 22.8115 34.2567 16.4932 34.1995 10.1916C34.1544 8.05932 34.4867 6.33687 35.7247 4.43898C37.5709 1.60888 40.5255 0.181271 43.879 0.163799L54.4063 0.147056C55.9027 0.126308 57.3965 0.107743 58.8969 0.0869954L71.8033 0.0768035C72.92 0.0808075 74.0579 0.0353078 75.1605 0.0913638C77.0318 0.188916 78.8864 0.0374913 80.7493 0.0746193C82.973 0.119391 85.2578 0.008008 87.476 0C99.6533 0.00364 111.725 0.210027 123.892 0.375283C125.14 0.391663 126.403 0.456091 127.589 0.878695C131.586 2.30339 133.857 5.73664 133.843 9.85785L133.708 29.0159L133.685 31.5253C133.773 33.2758 133.513 33.2565 133.493 34.1363C133.472 34.9775 133.476 35.8147 133.42 36.6563C133.387 37.1702 133.428 37.7089 133.418 38.2375C133.368 40.5445 133.313 44.0313 133.136 46.2509C133.052 47.3127 133.181 49.639 133.217 50.8057L136.437 43.6523L137.438 41.46C138.072 39.8387 138.268 40.0109 138.638 39.2447L141.968 32.1867C142.54 31.0365 143.075 29.8658 143.688 28.7425C144.146 27.9072 145.039 25.5976 145.431 24.6148C145.797 23.6975 145.82 24.1936 146.229 23.3466L147.155 21.4068C147.859 19.4598 148.651 18.133 149.812 16.4976C149.858 16.4353 149.91 16.4 149.994 16.3152C149.985 16.6854 149.573 17.769 149.429 18.1927C149.822 17.749 149.593 17.812 149.744 18.4184C149.902 18.323 150.46 17.1783 150.254 17.9914C149.798 19.7896 148.393 23.4445 147.734 25.437C146.425 29.3941 144.832 33.721 143.388 37.6573C142.091 41.1939 140.029 45.8607 138.535 49.3326L136.137 54.845C136.065 54.9651 136.003 55.1143 135.957 55.249C135.578 56.3516 135.041 57.3999 134.594 58.4755L131.782 65.0013L124.985 80.6759L120.484 90.8861L120.606 96.8043L124.962 92.8484L130.334 80.3359L139.417 59.47C141.461 54.8104 143.671 50.125 145.774 45.4778C146.282 44.3589 146.767 43.2272 147.339 42.1436C147.409 42.0129 147.467 41.872 147.525 41.7333C148.969 38.3984 154.94 25.4105 156.589 22.8177L158.299 19.7506C158.6 18.968 158.257 17.9969 157.63 17.6431L154.662 15.8795C153.9 15.3608 152.995 15.4798 152.92 15.4423C152.561 15.2632 152.009 15.4678 151.544 15.6538C151.001 15.8704 150.829 15.9949 150.456 16.518C150.615 15.9603 150.949 15.4944 151.111 15.0984C151.232 14.8002 152.375 14.1687 152.66 13.9772C153.718 13.2678 155.167 13.7832 156.192 14.1159C157.656 14.5913 157.789 14.3733 159.188 15.0714C161.478 16.2147 162.369 19.0565 161.489 21.3544ZM87.7337 65.9604C88.682 65.9848 91.3679 65.939 92.2306 65.805L94.4852 65.639C94.6035 65.639 94.7214 65.5892 94.8376 65.5873L96.1658 65.5375C96.6783 65.4468 96.5207 65.5571 96.829 65.5084C97.0074 65.4792 97.1875 65.4297 97.3677 65.413C98.281 65.3413 104.27 65.176 104.809 65.0111C104.907 64.958 104.883 65.1236 105.176 65.0173C105.429 64.926 107.144 64.9875 107.941 64.661C108.606 64.3883 109.445 64.0418 110.059 63.6683C110.431 63.4416 111.447 63.0801 111.383 62.8249C111.356 62.7194 111.176 62.7958 111.279 62.4872C111.309 62.3987 111.362 62.4267 111.257 62.2779L111.578 62.0332C111.424 61.7111 111.017 61.3267 110.624 61.5047C110.624 61.5051 110.215 61.5029 110.166 61.3431C110.074 61.0406 109.603 61.472 109.296 61.3162C108.738 61.0333 107.403 61.0552 107.302 60.9038C107.126 60.6373 107.015 60.8029 106.815 60.7836L100.86 60.4728L96.9284 60.1557L94.0604 60.2551L91.4971 60.2529C91.2631 60.2591 91.0268 60.3046 90.7906 60.3112L84.951 60.4127L84.2029 60.5536C84.089 60.566 83.9769 60.5245 83.8673 60.5805C83.681 60.6759 83.4942 60.8415 83.2995 60.7898C83.2911 60.7898 83.2809 60.792 83.2704 60.8022C83.1073 60.974 82.9541 60.7764 82.7502 60.9929C82.605 61.1476 81.8395 61.0315 81.2684 61.279C80.8068 61.4792 80.4093 61.2579 80.2466 61.484C79.8743 62.0023 79.6533 61.7231 79.5339 62.0289C79.4356 62.28 79.3221 62.1268 79.2915 62.2382C79.2398 62.4184 79.1608 62.458 79.0822 62.5367C79.3785 62.9028 79.388 63.5318 79.8178 63.9188L81.1898 64.8284C81.9931 65.1363 81.8369 65.4796 83.4505 65.6347C84.4752 65.7329 84.0217 65.7646 85.2473 65.7693L85.925 65.8523L87.7337 65.9604ZM82.7211 44.0979C82.9202 44.1001 83.1211 44.0524 83.3159 44.044L85.5581 43.9985C86.2716 43.9162 86.2723 44.0145 86.6771 43.9694C88.4403 43.7754 90.6508 43.8165 92.492 43.7663L100.153 43.4718C100.332 43.4154 100.251 43.585 100.77 43.4762C101.221 43.3815 104.031 43.4547 105.437 43.1176C106.466 42.8708 108.043 42.4839 109.014 42.1312C109.459 41.9696 111.36 41.5386 111.25 41.2816C111.207 41.1808 110.899 41.2667 111.076 40.946C111.196 40.728 111.159 40.8801 111.037 40.7389C111.225 40.6788 111.488 40.6257 111.578 40.4943C110.807 39.5297 109.426 40.2165 109.194 39.8001C109.031 39.5053 108.251 39.929 107.725 39.7772C106.88 39.5337 104.489 39.4896 104.362 39.3626C104.108 39.1093 103.853 39.2556 103.537 39.2443C103.406 39.2381 103.272 39.2072 103.141 39.205L91.943 38.8381C89.5366 38.7198 87.6875 38.5687 85.2807 38.6226C84.6838 38.6361 84.0872 38.7412 83.4902 38.6972C82.993 38.6619 82.5016 38.8111 82.0044 38.7136L77.6753 38.7096C77.2797 38.7198 76.8796 38.7635 76.4836 38.7696L70.9774 38.8028C70.7597 38.8028 70.5442 38.8421 70.3331 38.8257C69.2618 38.7445 66.637 38.7969 65.6062 39.0081L64.7916 39.0372C64.4745 39.1325 64.1637 39.3025 63.8361 39.2508C63.8193 39.2468 63.8007 39.2549 63.7862 39.2632C63.5085 39.4318 63.222 39.2443 62.9053 39.4496C62.6589 39.6094 61.327 39.5024 60.4061 39.7419C59.6635 39.9348 58.9526 39.7197 58.6818 39.945C58.0736 40.4513 57.6848 40.1794 57.4777 40.4899C57.3146 40.7345 57.1155 40.5933 57.0653 40.697C56.9805 40.8794 56.8476 40.9187 56.7108 40.9973C57.03 41.2248 56.9918 41.3682 57.1002 41.4865C57.6419 42.0755 57.1614 42.0529 58.6978 42.7154L60.2747 43.2894C62.1311 43.7182 60.7937 43.8096 64.0854 44.0975L67.2478 44.2384L72.5196 44.4437L78.9126 44.2675C80.4537 44.1925 81.0609 44.0979 82.7211 44.0979ZM57.0496 19.8584C57.1716 20.0717 57.3357 20.1146 57.4267 20.4222C57.5389 20.8015 59.8943 21.6347 60.2761 21.7483C62.1671 22.1909 60.7559 22.2568 64.0868 22.5545L67.2493 22.6954L72.5211 22.9025L78.914 22.7242L82.7207 22.5582C82.9198 22.5582 83.1208 22.5083 83.3155 22.5065L85.5577 22.4566C86.2308 22.3864 86.2413 22.4679 86.6767 22.4275L89.549 22.2535C91.7203 22.2156 94.0364 22.2586 96.1989 22.1436L100.153 21.9303C100.322 21.8764 100.267 22.0442 100.77 21.9365C101.215 21.8411 104.088 21.9077 105.437 21.5801C106.494 21.3238 108.009 20.9497 109.014 20.5875C109.441 20.4335 111.354 19.9982 111.25 19.7441C111.202 19.628 110.902 19.7372 111.076 19.4063C111.192 19.1843 111.167 19.3481 111.036 19.197C111.222 19.1377 111.487 19.0831 111.577 18.9524C110.847 17.9936 109.422 18.6739 109.194 18.2604C109.028 17.9598 108.244 18.3929 107.725 18.2357C106.905 17.9874 104.5 17.955 104.362 17.8233C104.09 17.5645 103.863 17.717 103.537 17.7031C103.406 17.6948 103.271 17.666 103.141 17.6616L94.483 17.4338C90.8678 17.2864 88.0151 16.9446 84.3868 17.1397C84.0883 17.156 83.788 17.179 83.4895 17.1582C82.9923 17.1229 82.5009 17.27 82.0037 17.175L77.6746 17.1728C77.2789 17.179 76.8789 17.2245 76.4829 17.2307L70.9766 17.2598C70.759 17.2638 70.5435 17.3035 70.3324 17.2867L66.6228 17.3322L65.3608 17.4731C65.1701 17.4855 64.9816 17.444 64.7908 17.5C64.4738 17.5954 64.1629 17.761 63.8353 17.7093C63.7589 17.7031 63.8157 17.7901 63.3214 17.8003C62.8059 17.8109 63.2449 17.9357 62.3659 17.9932C61.7005 18.0366 61.0565 18.0333 60.4053 18.1985C59.6264 18.3966 58.9537 18.176 58.6811 18.4017C58.047 18.9265 57.6815 18.639 57.477 18.9487C57.3121 19.1984 57.1166 19.0459 57.0646 19.158C56.9797 19.3382 56.8469 19.3775 56.71 19.4565C56.892 19.5868 56.892 19.5868 57.0496 19.8584ZM36.9215 73.86C35.2839 74.153 33.7525 74.5905 32.1968 75.1904C31.7611 75.3586 30.4835 75.8576 30.166 76.0938C29.9859 76.2278 30.0037 76.0447 29.4926 76.4087L28.266 77.0883C25.9371 78.4922 24.8972 79.3596 23.3607 81.7198C23.1543 82.0369 21.1461 85.5156 21.568 85.6197C21.6903 85.6197 21.7151 85.4829 21.8603 85.5182C22.0438 85.8232 21.924 85.833 22.1442 85.7668C22.0707 85.955 21.9367 86.2167 21.9848 86.3717C23.1718 86.327 23.6537 84.773 24.1109 84.8775C24.4341 84.9514 24.7326 84.0345 25.1905 83.8063C25.5109 83.6188 27.8743 81.9171 28.1185 81.9473C28.4935 81.9943 28.6023 81.7362 28.8811 81.5848C30.7677 80.559 30.6363 80.5696 32.8101 79.7218L36.4327 78.7416C37.9131 78.4711 40.559 78.4212 42.0361 78.6236C43.2748 78.7933 47.0953 79.4732 48.1036 79.8962C48.5801 80.096 49.1279 80.1765 49.4671 80.4265L50.9654 81.1724C53.7103 82.5796 56.0883 84.6038 57.984 87.0244C58.6574 87.858 58.5631 87.8863 59.068 88.5787C59.5168 89.1942 60.3016 90.7372 60.8585 91.5089L61.1923 92.2529C61.4016 92.5121 61.6608 92.7501 61.7165 93.0839C61.7187 93.1003 61.7332 93.117 61.7456 93.1254C61.9713 93.2961 61.9174 93.6728 62.1911 93.9211L62.411 94.3936L61.9054 94.1741C61.8475 94.137 61.8206 94.062 61.7336 94.0602C61.5865 94.0602 61.3896 94.114 61.3314 94.0001C61.3314 93.9939 61.319 93.9939 61.3106 93.9979C61.1377 94.0729 61.1683 93.8498 60.9437 93.9357C60.7708 94.0019 60.4956 93.6033 60.0672 93.5709C59.7247 93.5447 59.677 93.2149 59.4579 93.3263C58.9632 93.5775 59.0316 93.2717 58.7699 93.4632C58.5631 93.6142 58.6112 93.4523 58.5253 93.5254C58.3801 93.6437 58.3222 93.6437 58.233 93.6707C58.0623 94.3652 57.6903 94.3029 57.6735 95.4506C57.6612 96.2893 57.8504 96.3854 57.8144 96.7563C57.7758 97.1538 58.3637 97.9291 58.6392 98.2298L59.0618 98.6091L60.3901 99.9955L62.2759 101.353C62.8001 101.659 62.9515 101.694 63.4364 102.115L63.741 102.296C65.1938 103.404 66.9031 102.928 67.5871 101.549L67.8688 100.932C67.942 100.581 67.9882 100.758 68.0304 100.561C68.2856 99.3796 69.0092 98.502 69.3961 97.3784L69.881 96.0126C69.8584 95.9428 70.0022 96.0243 69.9887 95.8201C69.98 95.6858 70.5213 94.7314 70.4652 94.1624C70.3491 92.9842 70.2341 92.927 70.0757 91.9657C69.9476 91.1875 69.7955 91.5999 69.4995 91.3378L69.311 91.253C69.2283 90.9065 69.2422 90.9465 68.8094 90.9421C68.4148 90.9381 68.4676 91.226 68.4239 91.2715C68.104 91.6046 68.0646 91.2406 68.0344 91.4248C67.9118 92.1713 68.0559 91.5111 67.2886 92.4134C67.2886 92.4134 67.0786 92.7614 66.961 92.745C66.6771 92.705 66.874 92.7792 66.6046 93.0788C66.4197 91.6395 65.8406 89.8468 65.2451 88.5466L64.781 87.6079C64.6176 87.044 64.0202 86.0991 63.7014 85.5644C63.5914 85.378 63.5023 85.1789 63.3905 84.9925C61.3871 81.8032 58.3728 78.9756 55.0826 77.1283C53.1985 76.0705 49.6703 74.5869 47.4732 74.165L46.1282 73.8851L42.6283 73.5972C41.1654 73.4803 38.3262 73.584 36.9215 73.86ZM60.0854 114.817C60.1305 114.517 59.8699 114.815 59.7414 114.783C59.5478 114.435 59.6559 114.483 59.4575 114.533C59.5307 114.35 59.6628 114.078 59.6151 113.929C58.4878 113.929 57.9174 115.525 57.4912 115.425C57.1636 115.349 56.8647 116.268 56.4115 116.495C55.8575 116.767 53.7816 118.392 53.4792 118.354C53.1159 118.308 53.0111 118.55 52.7206 118.716C51.2031 119.589 50.4572 119.934 48.7894 120.579C48.5739 120.664 48.3417 120.706 48.1222 120.789C47.0651 121.187 46.3979 121.25 45.4551 121.495C43.7433 121.94 40.5157 121.844 38.7139 121.557L34.3393 120.67C33.9618 120.567 32.3977 120.072 32.1324 119.875C31.894 119.698 31.5998 119.63 31.3407 119.495C28.0123 117.685 26.1122 116.401 23.613 113.279C22.9661 112.47 23.0255 112.403 22.5333 111.724C22.0798 111.099 21.287 109.538 20.7428 108.792L20.4072 108.046C20.1979 107.791 19.9387 107.549 19.8831 107.215C19.8809 107.201 19.8685 107.184 19.8539 107.171C19.7149 107.061 19.6818 106.9 19.6279 106.753C19.4663 106.262 19.4029 106.552 19.2238 106.013L19.7935 106.26L20.0545 106.44C20.2099 106.446 20.4108 106.396 20.4753 106.517C20.4793 106.525 20.4877 106.525 20.4982 106.521C20.606 106.486 20.6391 106.54 20.6868 106.577C20.7854 106.656 20.9812 106.482 21.4038 106.859C21.6303 107.061 21.9491 106.939 22.0896 107.12C22.3968 107.515 22.64 107.07 22.9559 107.217C23.0975 107.283 23.2359 107.044 23.3476 107.114C23.4164 107.157 23.4098 107.06 23.7207 106.968L24.1579 105.984C24.4181 104.883 24.021 104.139 24.0439 103.802C24.0716 103.398 23.4182 102.56 23.1299 102.256L22.6742 101.852L21.5778 100.689L19.2592 98.9217C18.7816 98.6411 18.5472 98.5494 18.1089 98.1821C16.84 97.117 14.9374 97.4996 14.1737 98.9447L14.035 99.3178L13.5294 100.408L13.2124 101.396C12.5481 102.662 12.3574 103.051 11.8842 104.299L11.4757 105.373C11.4939 105.457 11.3563 105.354 11.3596 105.582L10.9556 106.647C10.6076 107.574 11.0266 108.716 11.1525 109.662C11.2526 110.414 11.4539 110.149 11.5773 110.209C11.7546 110.296 11.7091 110.392 11.9067 110.392L12.0247 110.692C12.076 110.72 12.5586 110.736 12.6547 110.636C12.7934 110.492 12.8382 110.128 13.0712 110.199C13.3584 110.285 13.1334 109.812 13.3613 109.703C13.6881 109.548 14.0139 109.035 14.2607 108.762C14.3211 108.696 14.5421 108.826 14.5592 108.615L15.0772 107.753C15.2209 108.603 15.6839 110.189 15.9952 110.934C17.6761 114.716 19.2129 117.432 22.4525 120.254C25.0977 122.557 26.6294 123.319 29.8195 124.74C30.8314 125.191 33.1894 125.99 34.1256 126.139C34.4718 126.186 34.8136 126.236 35.1412 126.354L36.5834 126.518C40.2751 126.875 43.3691 126.894 46.9799 125.932C47.7261 125.733 50.8802 124.623 51.4331 124.207C51.5969 124.084 51.6151 124.244 52.1087 123.892L53.3354 123.211C55.6617 121.799 56.7064 120.958 58.2385 118.581C58.6854 117.889 59.9726 115.574 60.0854 114.817Z" fill="black"/>
<mask id="path-2-inside-1_10828_4620" fill="white">
<circle cx="40.5" cy="99.7051" r="40.5"/>
</mask>
<circle cx="40.5" cy="99.7051" r="40.5" fill="white"/>
<path d="M81 99.7051C80.7681 103.953 79.8848 108.117 78.3954 112.019C72.5444 127.802 56.4511 138.284 40.5 137.58C20.3374 137.41 3.04917 119.353 3.5 99.7051C3.5 99.7051 3.5 99.7051 3.5 99.7051C3.04917 80.0569 20.3374 61.9998 40.5 61.8301C56.4511 61.1264 72.5444 71.6085 78.3954 87.3909C79.8848 91.2935 80.7681 95.4572 81 99.7051C81.235 95.4579 80.794 91.1466 79.6603 86.9801C75.3424 70.1481 58.7514 56.7783 40.5 56.5801C17.517 55.3613 -4.09824 76.2077 -3.5 99.7051C-4.09824 123.202 17.517 144.049 40.5 142.83C58.7514 142.632 75.3424 129.262 79.6603 112.43C80.794 108.264 81.235 103.952 81 99.7051ZM81 99.7051" fill="#00AA72" mask="url(#path-2-inside-1_10828_4620)"/>
<path d="M24.12 112.484C25.154 114.064 26.9775 115.155 28.8962 115.67C31.6136 116.4 33.5261 116.223 45.3328 115.837C45.4047 116.786 45.4476 117.748 45.5645 118.676C45.914 118.902 46.2634 119.128 46.6128 119.353L46.6441 119.263C46.8217 119.434 47.0894 119.452 47.2867 119.318C56.2034 113.201 56.1647 113.521 56.1995 113.055C56.2112 112.899 56.1503 112.745 56.0346 112.639C53.4329 110.251 50.5681 107.232 47.9422 104.821C47.7178 104.616 47.3916 104.662 47.212 104.87C46.7538 105.025 46.1642 105.328 45.8897 105.52C45.8677 106.705 45.9661 107.832 45.9611 109.01C42.191 109.105 38.2358 109.041 34.2429 109.134C33.2455 109.157 32.2199 109.109 31.2719 108.773C30.0579 107.792 29.8277 106.225 29.7084 104.667C29.4392 101.149 29.625 97.3444 29.761 93.8186C29.3828 93.4191 29.0045 93.0197 28.6263 92.6202C28.6134 92.2297 28.5728 92.2108 28.4718 92.1119C28.0768 91.7236 27.6809 92.2851 21.8405 91.5831C21.5208 91.5476 21.2502 91.8026 21.2663 92.1199C21.5147 96.9041 21.8593 101.634 22.1054 106.38C22.205 108.298 22.5446 110.634 24.12 112.484ZM27.5979 92.9982C27.5839 102.086 27.5796 99.1585 27.9688 104.701C28.0718 106.163 28.2002 107.983 29.3604 108.893C30.863 110.073 32.6075 110.194 34.267 110.161C38.7203 110.057 43.3256 110.159 47.5322 109.995C47.8134 109.984 48.0335 109.749 48.0255 109.467C47.9958 108.492 47.9497 107.197 47.9877 106.267C50.2346 108.386 52.6161 110.854 54.8634 112.954L47.5081 117.928C47.4393 114.418 47.6144 114.244 47.3325 113.974C47.2365 113.882 47.1091 113.831 46.977 113.831C46.971 113.831 46.965 113.831 46.9586 113.831C41.7673 114.016 36.4718 114.84 31.3202 114.551C29.6079 114.456 27.132 113.759 25.7127 112.613C24.085 111.298 23.289 109.359 23.1315 106.327C22.8934 101.742 22.5659 97.1875 22.3245 92.6734C24.299 92.8931 26.0826 93.0199 27.5979 92.9982Z" fill="#00AA72"/>
<path d="M32.2719 91.2057C32.4565 91.3851 32.7796 91.4258 33.0044 91.177C33.4667 91.0345 34.0636 90.7493 34.3431 90.5659C34.3991 89.3792 34.3324 88.2484 34.3714 87.0694C36.2681 87.0747 38.1605 87.1226 40.1382 87.1737C46.8372 87.3476 47.5578 87.1547 49.0479 87.7312C50.2337 88.7467 50.4188 90.3209 50.4934 91.8804C50.6621 95.4048 50.3678 99.2022 50.1311 102.723C50.498 103.133 50.8649 103.543 51.2318 103.954C51.2267 104.126 51.2069 104.295 51.371 104.466C51.7555 104.865 52.14 104.312 57.9849 105.183C58.01 105.187 58.0354 105.189 58.0605 105.189C58.3489 105.189 58.5806 104.952 58.5742 104.663C58.4611 99.8311 58.252 95.1149 58.1424 90.3846C58.0975 88.4647 57.8248 86.1184 56.3014 84.2237C55.3127 82.6162 53.5218 81.4744 51.6195 80.9047C48.872 80.0821 46.8443 80.2282 35.1943 80.2693C35.1496 79.3184 35.1342 78.3548 35.0438 77.4236C34.701 77.1882 34.3581 76.9527 34.0152 76.7173L33.9815 76.8062C33.8069 76.6292 33.5396 76.6056 33.3404 76.7331C24.2823 82.5738 24.3006 82.2716 24.2527 82.739C24.2366 82.8952 24.2928 83.0504 24.4055 83.1597C26.9424 85.6263 29.72 88.7255 32.2719 91.2057ZM33.0796 78.1161C33.0479 81.6267 32.8677 81.7956 33.1421 82.0738C33.2397 82.1728 33.3755 82.232 33.5116 82.227C38.6898 82.1907 44.0296 81.519 49.1647 81.9537C50.8731 82.0982 53.3278 82.8651 54.7144 84.0517C56.304 85.4125 57.0445 87.373 57.115 90.4087C57.2234 95.0366 57.4181 99.5105 57.5324 104.08C55.5646 103.804 53.7994 103.644 52.2697 103.604C52.5438 94.5992 52.4701 97.533 52.2332 91.8963C52.172 90.4318 52.0954 88.6091 50.962 87.666C49.4938 86.4443 47.7544 86.2677 46.0936 86.2586C41.4621 86.2335 37.0971 85.9993 32.8291 86.0449C32.5475 86.048 32.3207 86.277 32.3207 86.5586C32.3226 87.5366 32.3318 88.8323 32.2675 89.7589C30.0796 87.5745 27.7768 85.047 25.5854 82.8781L33.0796 78.1161Z" fill="#00AA72"/>
<path d="M53.4128 80.022C53.6385 80.022 53.8456 79.8722 53.9081 79.6437L54.9977 75.6532C55.0723 75.3793 54.9111 75.097 54.6375 75.0221C54.3633 74.9469 54.0813 75.1084 54.0064 75.3823L52.9168 79.3729C52.8277 79.7002 53.0741 80.022 53.4128 80.022Z" fill="#00AA72"/>
<path d="M56.4264 80.6076C57.1672 79.6079 58.0197 78.6896 58.9604 77.8775C59.1751 77.6919 59.1989 77.3675 59.0136 77.1528C58.828 76.9388 58.5046 76.915 58.2889 77.0996C57.2909 77.9612 56.3866 78.9357 55.601 79.9962C55.4321 80.224 55.4799 80.5457 55.708 80.7146C55.9375 80.8848 56.259 80.8339 56.4264 80.6076Z" fill="#00AA72"/>
<path d="M57.4882 82.5178C57.5199 82.7783 57.7417 82.9693 57.9975 82.9693C58.4612 82.9693 59.5926 82.6674 60.4961 82.0861C60.7349 81.9322 60.8038 81.6145 60.6503 81.376C60.4964 81.1376 60.1784 81.0694 59.9403 81.2219C59.3389 81.6088 58.646 81.8593 57.936 81.9456C57.6544 81.98 57.454 82.2362 57.4882 82.5178Z" fill="#00AA72"/>
</svg>
