<svg width="156" height="156" viewBox="0 0 156 156" fill="none" xmlns="http://www.w3.org/2000/svg">
<path d="M58.3175 64.7301C57.898 68.6284 60.8155 72.4328 64.6888 73.0401C67.9643 73.5484 71.2217 71.6827 72.661 68.811C73.2509 69.0215 71.6577 68.8686 96.2073 68.9185C97.0921 68.9185 97.81 68.2006 97.81 67.3158C97.81 66.4309 97.0921 65.713 96.2073 65.713H73.432C73.4641 62.3187 71.099 59.0516 67.7482 58.1918C67.504 58.1313 67.2557 58.1292 67.0178 58.1751C66.9144 58.1162 66.7858 58.1068 66.6693 58.0718V27.7273C66.6693 26.8424 65.9514 26.1245 65.0665 26.1245C64.1817 26.1245 63.4638 26.8424 63.4638 27.7273V58.3802C60.7759 59.3394 58.6329 61.8136 58.3175 64.7301Z" fill="black"/>
<path d="M102.525 111.483C101.899 110.857 100.885 110.857 100.259 111.483C99.6325 112.109 99.6325 113.123 100.259 113.749C110.481 123.728 110.039 124.069 111.242 124.069C112.504 124.069 111.525 124.196 133.933 102.042C134.559 101.416 134.559 100.402 133.933 99.7755C133.307 99.1494 132.293 99.1494 131.666 99.7755L111.242 120.2L102.525 111.483Z" fill="black"/>
<path d="M27.4889 109.683C41.6566 122.424 62.7518 126.967 80.8728 121.08C82.4143 120.579 83.9529 119.959 85.3047 119.086C86.6742 129.531 95.2804 139.161 103.879 142.185C113.192 145.46 124.037 144.823 132.375 139.538C139.307 135.143 144.971 127.035 145.881 118.811C150.496 99.7132 135.865 82.0835 117.011 82.0712C128.414 47.8739 102.304 12.2277 65.8749 11.8125C50.3033 11.6552 36.403 17.7596 26.5717 28.3051C18.3546 36.2491 12.4481 46.6247 10.2468 57.8209C6.57126 76.5159 13.3213 96.944 27.4889 109.683ZM64.3577 20.8676C65.2425 20.8676 65.9604 20.1497 65.9604 19.2649V15.0225C79.836 15.2126 92.4167 20.9307 101.552 30.0275C101.08 30.396 100.057 31.4932 98.1321 33.3953C97.1174 34.41 97.8528 36.1312 99.2653 36.1312C100.394 36.1312 100.544 35.3182 103.656 32.4019C103.679 32.3784 103.687 32.3471 103.709 32.3229C111.583 41.1849 116.394 52.7513 116.463 65.3582H114.166C113.281 65.3582 112.563 66.0761 112.563 66.961C112.563 67.8458 113.281 68.5637 114.166 68.5637H116.347C115.905 76.2351 114.015 80.7167 113.591 82.2538C105.148 83.0707 97.0151 87.6078 92.5182 93.0577C88.1777 98.3182 85.6872 104.962 85.1307 111.764C79.4772 114.109 74.2321 115.522 67.9678 115.934C68.1725 115.389 68.0382 115.382 68.0807 111.842C68.0807 110.957 67.3628 110.239 66.478 110.239C65.5931 110.239 64.8752 110.957 64.8752 111.842C64.928 115.351 64.7596 115.456 65.0295 116.041C52.9719 116.124 42.0162 111.717 34.0435 105.197L35.8318 103.409C36.4579 102.783 36.4579 101.768 35.8318 101.142C35.2058 100.516 34.1915 100.516 33.5655 101.142L31.6223 103.085C22.6238 94.7586 17.0758 83.6419 15.6355 71.7442H23.0183C23.9031 71.7442 24.621 71.0263 24.621 70.1414C24.621 69.2566 23.9031 68.5387 23.0183 68.5387H15.3629C14.5642 54.7651 19.3485 41.696 27.3108 32.1825C30.3455 35.0281 30.6315 35.9809 31.7728 35.9809C33.1851 35.9809 33.9209 34.2599 32.906 33.245L29.4481 29.787C37.9674 20.889 49.5742 15.6895 62.7549 15.0944V19.2649C62.7549 20.1497 63.4728 20.8676 64.3577 20.8676ZM143.537 111.823C143.537 126.473 131.629 138.394 116.991 138.394C106.457 138.394 96.6253 131.87 92.5267 122.157C88.8704 113.497 89.7323 103.286 94.72 96.1421C99.5407 89.2366 107.657 85.2756 116.991 85.2756C131.629 85.2756 143.537 97.1856 143.537 111.823Z" fill="#00AA72"/>
<path d="M121.042 20.5691C120.241 20.1788 119.287 20.5252 118.905 21.3204L114.237 31.0432C113.853 31.8425 114.189 32.8004 114.986 33.1823C115.778 33.5634 116.74 33.2361 117.125 32.4331L121.794 22.7061C122.178 21.9089 121.842 20.951 121.042 20.5691Z" fill="black"/>
<path d="M130.484 28.7915C129.714 28.3491 128.735 28.6183 128.297 29.3883C126.358 32.7816 123.862 35.7784 120.876 38.2931C119.73 39.259 120.428 41.1209 121.909 41.1209C122.274 41.1209 122.642 40.9978 122.942 40.7432C126.216 37.9864 128.954 34.6995 131.081 30.9785C131.519 30.2106 131.252 29.2318 130.484 28.7915Z" fill="black"/>
<path d="M126.992 48.2623C127.312 48.2623 126.791 48.3284 136.657 46.2359C137.523 46.0522 138.076 45.2008 137.89 44.3347C137.707 43.4687 136.853 42.9115 135.989 43.1014L126.661 45.0923C124.786 45.4898 125.085 48.2623 126.992 48.2623Z" fill="black"/>
</svg>
