<svg width="146" height="146" viewBox="0 0 146 146" fill="none" xmlns="http://www.w3.org/2000/svg">
<path d="M6.73738 119.888C9.54507 124.942 14.5989 128.592 20.2143 129.435C21.6181 129.715 23.022 129.715 24.4258 129.715H26.9528H30.0412L42.3951 129.435L67.1028 128.873L91.8105 128.311C96.022 128.311 99.9528 128.031 104.164 128.031C107.534 127.75 110.622 126.346 113.43 124.381C115.957 126.346 118.764 128.031 121.572 129.715L125.784 132.523C126.626 133.085 127.187 133.365 128.03 133.927C128.872 134.208 129.714 134.769 130.837 134.769C134.487 135.331 138.418 133.365 140.103 130.558C137.857 133.085 134.207 133.646 131.399 132.523C129.995 131.961 129.153 131.119 127.749 129.996L123.818 126.627C121.291 124.661 118.764 122.415 115.957 120.169C113.991 118.765 112.026 117.081 110.341 115.677C111.745 113.711 113.71 111.185 113.991 110.904L117.36 106.411L123.257 110.623C126.064 112.588 128.872 114.273 131.68 116.238L135.891 119.046C137.295 119.888 138.418 120.731 139.541 121.854C141.226 124.1 141.787 127.75 140.103 130.558C142.63 128.311 143.191 123.819 141.507 120.45C140.945 119.608 140.384 118.765 139.822 118.204C138.98 117.361 138.418 117.081 137.857 116.519L133.926 113.15C131.399 111.185 128.872 108.938 126.064 106.692C124.099 105.288 122.414 103.604 120.449 102.2C120.73 90.6884 121.01 79.1769 121.291 67.6653C121.572 55.0307 121.853 42.6769 122.134 29.7615C121.853 22.7423 117.36 16.2846 110.622 13.4769C108.937 12.9153 107.253 12.3538 105.568 12.073C104.726 11.7923 103.884 11.7923 103.041 11.7923C102.76 11.7923 90.4066 11.5115 91.2489 11.5115H53.3451H34.5335L25.2682 11.2307C23.8643 11.2307 21.6182 11.2307 19.9335 11.7923C18.2489 12.073 16.5643 12.6346 14.8797 13.4769C8.422 16.8461 3.92969 23.8653 3.92969 31.1653V49.9769V55.3115V73.2807C3.92969 97.9884 3.92969 107.254 4.21046 111.465C4.21046 114.554 5.05276 117.361 6.73738 119.888ZM65.1374 28.3576C64.2951 27.5153 62.8912 27.5153 61.7682 28.3576C60.0835 29.4807 54.4682 33.6922 54.7489 33.4115C53.6258 34.2538 52.7835 35.0961 51.6605 35.6576C51.3797 29.1999 51.0989 23.023 50.8182 16.5653H53.6258L73.8412 16.2846C73.5605 19.9346 73.5605 23.5846 73.5605 27.2346C73.5605 29.7615 73.5605 32.2884 73.2797 34.8153C72.1566 33.6922 70.7528 32.8499 69.6297 31.7269C67.9451 30.6038 66.5412 29.4807 65.1374 28.3576ZM107.534 103.042L110.341 105.85C109.499 106.973 109.218 107.254 108.937 107.535L108.095 109.5C106.972 108.938 105.849 108.096 104.445 107.535C105.849 105.85 106.41 105.288 107.534 103.042ZM103.041 16.2846H105.007C106.41 16.2846 107.814 16.8461 108.937 17.4076C113.991 19.373 117.922 24.7076 118.484 30.323C119.045 53.9076 119.607 78.0538 120.168 102.2C119.607 101.638 118.764 101.077 118.203 100.515C117.08 99.673 115.395 99.9538 114.553 101.077L113.71 102.2C112.307 101.358 110.903 100.796 109.78 99.9538C112.868 93.4961 114.272 85.9153 112.868 78.6153C111.464 69.3499 106.13 60.6461 98.5489 55.5923C90.9681 50.2576 81.1412 48.2922 72.4374 49.9769C63.4528 51.6615 55.5912 56.9961 50.8182 64.5769C56.4335 57.8384 64.5758 53.6269 72.7182 52.7846C81.1412 51.9422 89.5643 54.1884 96.022 59.2423C102.48 64.2961 106.691 71.5961 107.814 79.7384C108.937 87.5999 106.972 96.023 102.199 102.481C97.4258 108.938 90.1258 113.431 82.2643 114.554C74.4028 115.958 65.9797 113.992 59.2412 109.219C52.5028 104.446 47.7297 97.1461 46.0451 89.0038C44.3605 80.8615 46.0451 71.8769 50.8182 64.5769C45.2028 71.3153 42.3951 80.5807 43.2374 89.5653C44.3605 98.5499 49.1335 107.254 56.4335 112.869C63.7335 118.765 73.5605 121.011 82.8259 119.888C90.1258 118.765 96.8643 115.396 102.199 110.623C103.322 111.746 104.445 112.869 105.568 113.711L104.726 114.835C103.884 115.958 104.164 117.642 105.287 118.485L113.71 124.381C110.903 126.346 107.814 127.469 104.726 127.469L92.372 127.188L67.1028 126.346L42.1143 125.785L32.0066 125.504H28.0758H24.1451C23.022 125.504 21.8989 125.504 20.7758 125.223C16.5643 124.381 12.6335 121.292 10.6681 117.642C9.54507 115.677 8.98353 113.711 8.98353 111.465C8.98353 109.219 8.98353 106.411 8.98353 104.165L9.2643 73.8422V57.5576V50.5384V31.7269C9.2643 26.3923 12.3528 21.3384 17.1258 18.8115C18.5297 17.6884 19.6528 17.4076 21.0566 17.1269C22.4605 16.8461 23.5835 16.8461 25.2682 16.8461H34.8143H47.7297C47.1682 24.9884 46.8874 32.8499 46.6066 40.9923C46.6066 41.5538 46.6066 42.1153 47.1682 42.3961C48.0105 43.5192 49.4143 43.7999 50.8182 43.2384C51.6605 42.6769 52.222 42.3961 58.1182 38.1846L63.4528 34.2538C64.5758 35.0961 65.4182 35.9384 66.5412 36.7807C72.4374 41.5538 73.8412 42.6769 74.4028 43.2384C74.9643 43.5192 75.5258 43.7999 76.0874 43.7999C77.4912 43.7999 78.8951 42.3961 78.8951 40.9923C78.8951 36.4999 78.8951 32.0076 78.6143 27.5153C78.6143 23.8653 78.3335 20.2153 78.3335 16.5653H91.2489C91.5297 16.2846 103.322 16.2846 103.041 16.2846Z" fill="#00AA72"/>
<mask id="path-2-inside-1_10819_4570" fill="white">
<circle cx="77.5" cy="84.5" r="36.5"/>
</mask>
<circle cx="77.5" cy="84.5" r="36.5" fill="white"/>
<path d="M114 84.5C113.468 88.3288 112.366 91.9791 110.777 95.3136C104.443 108.811 90.2834 116.258 77.5 115C61.2811 113.886 48.6957 99.543 49 84.5C48.6957 69.457 61.2811 55.1142 77.5 54C90.2834 52.7415 104.443 60.1893 110.777 73.6864C112.366 77.0209 113.468 80.6712 114 84.5C114.535 80.6728 114.444 76.6851 113.668 72.7475C110.838 56.8513 95.5411 42.803 77.5 42C54.8346 39.9403 32.3588 60.6587 33 84.5C33 84.5 33 84.5 33 84.5C32.3588 108.341 54.8346 129.06 77.5 127C95.5411 126.197 110.838 112.149 113.668 96.2525C114.444 92.3149 114.535 88.3272 114 84.5ZM114 84.5" fill="#060606" mask="url(#path-2-inside-1_10819_4570)"/>
<circle cx="84" cy="85" r="11" fill="#060606"/>
</svg>
