<svg width="47" height="47" viewBox="0 0 47 47" fill="none" xmlns="http://www.w3.org/2000/svg">
<path d="M4.83253 32.052C3.47486 29.2818 2.7865 26.3093 2.7865 23.217C2.7865 11.9153 12.2033 2.72075 23.7781 2.72075C28.3768 2.72075 32.7491 4.15576 36.3605 6.80722L32.8859 7.25388C32.1231 7.35191 31.586 8.03528 31.6864 8.78012C31.7868 9.52507 32.4867 10.0494 33.2495 9.95132L39.7884 9.11079C40.5513 9.01275 41.0883 8.32939 40.9879 7.58454L40.127 1.20003C40.0266 0.455181 39.3267 -0.0691977 38.5639 0.0288399H38.5638C37.8009 0.126878 37.2639 0.810239 37.3643 1.55509L37.7516 4.42756C33.7156 1.55318 28.8694 0 23.7781 0C17.4268 0 11.4556 2.41494 6.96439 6.80006C2.47339 11.1853 0 17.0156 0 23.217C0 26.719 0.78022 30.0867 2.31911 33.2265C2.65126 33.9042 3.48313 34.1907 4.17724 33.8664C4.87127 33.5421 5.16469 32.7298 4.83253 32.052Z" fill="#00AA72"/>
<path d="M36.5852 21.4073L37.2924 21.0024C37.969 20.6149 38.2009 19.7567 37.8102 19.0855L34.5093 13.4145C34.1187 12.7433 33.2535 12.5133 32.5769 12.9009L31.8696 13.3059C30.2456 14.236 28.2156 13.0734 28.2156 11.2133V10.4032C28.2156 9.62827 27.5822 9 26.8009 9H20.1991C19.4178 9 18.7844 9.62827 18.7844 10.4032V11.2133C18.7844 13.0734 16.7544 14.2359 15.1304 13.3059L14.4231 12.9009C13.7465 12.5134 12.8813 12.7433 12.4907 13.4145L9.1898 19.0855C8.79917 19.7567 9.03098 20.6149 9.70757 21.0024L10.4148 21.4073C12.0388 22.3374 12.0388 24.6625 10.4148 25.5926L9.70757 25.9976C9.03098 26.385 8.79907 27.2432 9.1898 27.9144L12.4907 33.5855C12.8813 34.2566 13.7465 34.4866 14.4231 34.099L15.1304 33.694C16.7544 32.7639 18.7844 33.9265 18.7844 35.7866V36.5968C18.7844 37.3717 19.4178 38 20.1991 38H26.8009C27.5822 38 28.2156 37.3717 28.2156 36.5968V35.7867C28.2156 33.9266 30.2456 32.7641 31.8696 33.6941L32.5769 34.0991C33.2535 34.4866 34.1187 34.2567 34.5093 33.5855L37.8102 27.9145C38.2008 27.2433 37.969 26.3851 37.2924 25.9976L36.5852 25.5927C34.9612 24.6626 34.9612 22.3374 36.5852 21.4073ZM23.5 28.879C20.5051 28.879 18.0771 26.4707 18.0771 23.5C18.0771 20.5293 20.5051 18.121 23.5 18.121C26.4949 18.121 28.9229 20.5293 28.9229 23.5C28.9229 26.4707 26.4949 28.879 23.5 28.879Z" fill="#00AA72"/>
<path d="M44.6809 13.7735C44.3487 13.0958 43.5169 12.8093 42.8228 13.1336C42.1287 13.4579 41.8353 14.2701 42.1674 14.9479C43.5251 17.7182 44.2135 20.6907 44.2135 23.783C44.2135 35.0847 34.7967 44.2793 23.2219 44.2793C18.6232 44.2793 14.2509 42.8442 10.6395 40.1928L14.1141 39.7461C14.8769 39.6481 15.414 38.9647 15.3136 38.2199C15.2132 37.4749 14.5133 36.9506 13.7505 37.0487L7.21157 37.8892C6.44871 37.9872 5.91166 38.6706 6.01207 39.4155L6.87301 45.8C6.97341 46.5448 7.67329 47.0692 8.43614 46.9712C9.19899 46.8731 9.73613 46.1898 9.63573 45.4449L9.2484 42.5724C13.2844 45.4468 18.1306 47 23.2219 47C29.5732 47 35.5444 44.5851 40.0356 40.1999C44.5266 35.8147 47 29.9844 47 23.783C47 20.281 46.2198 16.9133 44.6809 13.7735Z" fill="#00AA72"/>
</svg>
