<svg width="160" height="160" viewBox="0 0 160 160" fill="none" xmlns="http://www.w3.org/2000/svg">
<path fill-rule="evenodd" clip-rule="evenodd" d="M102.195 48.3862C102.126 48.7347 102.059 48.8394 102.047 49.2195C102.028 49.8022 101.784 49.7901 101.75 50.0694C101.684 50.3363 101.635 50.6195 101.553 50.8861C101.327 51.7504 101.126 53.1738 100.794 54.0362C100.583 54.5984 100.738 55.727 100.481 55.8698C100.325 55.9558 100.184 56.8189 100.184 56.8198C100.184 57.4822 99.9033 58.3034 99.4415 58.7699C99.3596 58.6538 99.3589 58.2096 99.3589 58.0531C99.2578 58.1555 99.3612 58.2714 99.0786 57.9866C98.9225 58.0458 98.7622 58.9827 98.7324 56.9866C98.6892 54.1085 98.5129 52.032 98.7654 49.1027C98.782 48.9027 98.8313 48.7194 98.8479 48.5194L99.3426 44.8691C99.3426 44.3184 99.478 44.2637 99.4745 44.0858L100.2 38.6522C100.324 37.88 99.8326 37.0912 99.2271 36.5686C98.271 35.7434 97.381 35.5498 96.2258 35.352L94.6428 35.3686C93.5164 35.3936 91.7446 35.9242 90.949 36.7021C90.8335 36.8189 90.7346 36.9686 90.6358 37.0854C90.1622 37.6166 90.0565 37.961 90.1906 38.5523C90.6351 40.5168 91.0418 42.8902 91.3945 44.8694L92.1366 49.303L92.8457 54.4202L93.159 56.3869L93.3734 58.287C93.3734 58.287 93.3567 58.287 93.3567 58.3037C93.2287 58.433 94.1612 59.2525 94.6594 59.4371C95.1638 59.624 96.2054 59.705 96.6879 59.6538L97.941 59.287C98.0201 59.2246 98.2268 59.3648 98.5346 59.1037C98.6425 59.0122 98.774 59.1312 99.0457 58.7037C99.0809 58.9171 99.0326 59.0707 99.1282 59.3037C99.1654 59.3946 98.9468 59.6672 98.9468 59.9872C98.9468 60.4435 98.0937 61.1357 97.6937 61.6208C97.293 62.1062 95.5244 62.3555 94.8575 62.4374C93.9071 62.5542 92.7122 62.231 91.8892 61.7709L91.0316 61.2208C90.4063 60.9226 90.1497 60.1805 89.8444 59.8042C89.727 59.6595 89.597 58.9664 89.5145 58.7539C89.1132 57.7952 89.3081 58.1152 89.0857 57.1706C88.9702 56.7539 88.8879 56.3373 88.7724 55.9203L87.9644 51.2867C87.9477 51.0202 87.8655 50.7533 87.8159 50.4867L86.6617 43.6029C86.4262 42.3149 85.8569 39.7722 85.8207 38.5693C85.7874 37.4611 86.0236 36.1434 86.6783 35.2355C87.6626 33.8707 88.2473 33.2467 89.6959 32.4019C91.2018 31.5238 93.0137 31.0784 94.742 31.1517C96.429 31.223 97.5334 31.2496 99.2274 31.985C101.278 32.8752 103.061 34.4064 103.713 36.6522C104.231 38.4362 103.664 40.0458 103.383 41.8358L102.195 48.3862ZM91.5922 74.5882C91.5756 74.6714 91.6252 74.7549 91.6252 74.8547C91.6469 75.4544 92.0005 76.3952 92.4002 76.8048C92.7129 77.1251 93.5884 77.7485 94.0329 77.8214C94.1999 77.849 94.2428 77.9731 94.4617 77.9549C95.0102 77.9091 94.6092 78.0746 95.4182 77.8717C95.8927 77.7629 96.2098 77.7114 96.7046 77.4717C96.8742 77.3722 97.2156 77.2525 97.4796 76.9715C98.1881 76.2179 98.3154 76.0688 98.5516 75.0714C98.6658 74.5882 98.5689 73.5466 98.3535 73.0714L97.8918 72.2714C97.7103 72.1709 97.8338 72.0435 97.8092 71.9379C97.7711 71.775 96.8505 70.9424 96.7705 70.8378C96.5961 70.6102 96.1494 70.7962 96.1273 70.5712C96.1154 70.4512 95.8431 70.3456 95.781 70.3546C95.4642 70.3994 95.2012 70.1946 95.0389 69.9213C95.0223 69.9213 95.006 69.888 94.9893 69.8547L95.3026 69.6714C95.286 69.6547 95.286 69.6547 95.286 69.6381C95.189 69.5402 95.333 69.4826 95.3356 69.3715C95.3375 69.2781 94.5372 69.0278 96.7372 68.8048C97.7193 68.7053 99.0066 69.0611 99.8374 69.6547C100.501 70.1296 101.438 71.4854 101.602 72.055C101.694 72.3763 101.831 72.3933 101.816 72.6717L101.981 73.1552L102.162 74.2554C102.247 76.0442 102.045 77.3187 100.975 78.9056C100.494 79.6192 99.639 80.4874 98.8975 80.9222C98.4873 81.1629 98.7362 81.1251 97.8422 81.5555C96.4313 82.2349 95.7817 82.2566 94.2802 82.2221C93.5017 82.2042 93.0729 82.0749 92.3343 81.8387C90.4828 81.2467 89.1673 80.1821 88.1788 78.4883C87.2498 76.897 87.0777 75.6771 87.2223 73.9213L87.6015 72.271L88.4262 70.6211C89.0822 69.6506 89.9762 68.783 91.0975 68.3875L92.2354 68.1875C92.8358 68.0592 93.9935 68.2224 94.478 68.6374C94.5199 68.6733 94.5353 68.8422 94.7417 69.0707C94.8658 69.208 94.7903 69.2531 94.989 69.4541C94.7065 69.7398 94.8332 69.7238 94.725 69.7373C94.5436 69.76 94.6191 69.9466 94.4284 70.0374C93.7641 70.3533 94.3916 70.3936 93.6038 70.6208C93.303 70.7078 93.3785 70.8416 92.9276 71.1542C92.838 71.2163 92.4495 71.537 92.4495 71.6378C92.4495 71.9158 92.2674 71.8131 92.2847 72.0211C92.2847 72.0378 92.2847 72.0378 92.2681 72.0378C92.1525 72.121 92.1526 72.3043 92.1362 72.4544C92.1318 72.5354 91.9135 72.752 91.8726 73.1712L91.6581 74.088C91.6415 74.2547 91.6252 74.4214 91.5922 74.5882ZM68.4396 99.64C68.4546 99.6362 69.5785 99.6374 69.726 99.7734C69.9554 99.9853 71.39 99.6746 72.15 99.7901C72.9222 99.9075 74.7954 99.9632 75.6626 100.007C76.0268 100.025 77.4991 100.029 77.6911 100.124C78.1269 100.337 78.5782 100.19 79.0434 100.207L83.7762 100.29L83.7433 104.624L83.5948 110.958C83.5266 113.759 83.3964 116.669 83.4134 119.458L83.463 123.558C83.4796 124.059 83.4959 124.558 83.4796 125.059C83.4466 125.875 83.5622 126.708 83.4962 127.525V134.743L83.5458 140.176L81.1548 140.21C80.4457 140.176 79.7532 140.16 79.0607 140.176C77.7084 140.226 76.3727 140.143 75.037 140.243L72.9593 140.36C72.646 140.36 72.3327 140.326 72.0194 140.376C71.4917 140.46 70.9807 140.593 70.4364 140.543C70.4198 140.543 70.3868 140.543 70.3538 140.56C70.0934 140.66 69.389 140.569 68.9026 140.71L68.0617 140.776L67.8636 133.692C67.8306 132.859 67.8306 132.026 67.8306 131.192C67.8306 130.892 67.7977 130.609 67.7977 130.309L67.7647 126.992C67.7318 126.575 67.7151 126.158 67.7481 125.742L67.6655 123.992C67.5199 119.818 67.5769 115.433 67.5007 111.241L67.4181 108.107L67.3356 105.39C67.3049 105.039 67.4268 105.227 67.3356 104.474L67.2201 99.6234L68.4396 99.64ZM87.9311 114.658C87.9618 114.647 88.8917 114.651 89.0031 114.774C89.2316 115.027 90.319 114.678 91.0313 114.808C91.6914 114.928 93.2262 114.978 93.9666 115.024C94.1481 115.041 94.3458 115.008 94.5439 115.024C94.9004 115.068 95.5218 115.063 95.6652 115.141C96.0671 115.359 96.3833 115.205 96.8031 115.224L103.663 115.358L103.465 122.375C103.404 124.896 103.283 127.359 103.333 129.892C103.349 130.668 103.434 131.6 103.399 132.392C103.366 133.076 103.498 133.759 103.416 134.459V140.176L98.271 140.193C97.9743 140.193 97.6774 140.226 97.3804 140.21L92.2684 140.243L90.5369 140.36C90.2729 140.36 90.0092 140.326 89.7452 140.376C89.3164 140.46 88.8876 140.593 88.4258 140.543L88.0137 140.61L87.8981 132.676C87.8485 131.509 87.7993 130.326 87.7826 129.159C87.766 128.209 87.766 127.276 87.766 126.342C87.766 126.009 87.7164 125.675 87.7164 125.342L87.6505 119.742L87.5186 114.675C87.6508 114.674 87.7993 114.674 87.9311 114.658ZM108.281 129.759C108.459 129.984 109.314 129.636 109.913 129.775C110.59 129.932 113.458 129.994 113.64 130.109C113.964 130.314 114.246 130.175 114.547 130.192L116.641 130.242L123.435 130.375C123.35 132.747 123.255 135.333 123.27 137.692L123.32 140.109L114.349 140.193C114.118 140.193 113.871 140.226 113.64 140.209L109.534 140.243L107.852 140.359C107.799 138.016 107.687 135.82 107.687 133.459C107.687 133.176 107.654 132.909 107.637 132.626C107.612 131.765 107.671 130.468 107.604 129.625C107.832 129.641 108.199 129.622 108.281 129.759ZM56.8469 140.176C55.6597 140.226 54.4725 140.143 53.285 140.243L51.438 140.36C51.1577 140.36 50.8773 140.326 50.597 140.376C50.1353 140.46 49.6735 140.593 49.1954 140.543C49.1788 140.543 49.1461 140.543 49.1295 140.56C48.9922 140.641 48.1852 140.578 47.695 140.743C47.5977 128.258 47.6431 115.735 47.5302 103.24L47.3983 92.8397C47.3983 91.4061 47.3817 89.9728 47.3654 88.5562C47.3324 86.9728 47.3653 85.3392 47.2994 83.7891C47.2828 83.6058 47.2828 83.3891 47.2828 83.1891C47.3273 81.6899 47.2799 80.7242 47.2498 79.289L47.2169 75.0054L47.085 64.1712C47.085 63.7379 47.0684 63.2877 47.0684 62.8544C47.31 63.0986 48.0412 63.0701 48.2063 63.2045C48.3676 63.4576 48.3317 63.2714 48.4703 63.3043L51.719 63.5542C52.4492 63.6259 53.6962 63.8746 54.374 63.8042C54.6348 63.777 55.1993 63.6826 55.4293 63.7373H56.8309C56.9628 63.7206 57.0783 63.6874 57.2102 63.6874L59.2054 63.6374C59.5222 63.7174 59.5983 63.6541 59.6838 63.6541C58.1007 66.471 56.501 69.271 54.918 72.088C53.6706 74.2864 52.9468 76.2691 53.038 78.9552C53.1996 83.7098 56.2156 88.1145 60.6565 89.856C61.7938 90.3018 63.3237 90.6227 64.5317 90.6227C64.5423 90.8874 64.5727 91.8768 64.4329 92.0061C64.1769 92.2422 64.5413 93.3405 64.3999 94.1728C64.2844 94.8522 64.229 96.5709 64.1855 97.3398C64.1689 97.5398 64.2021 97.7565 64.1855 97.9565C64.1417 98.335 64.1497 99.0093 64.07 99.1565C63.8738 99.5194 64.0025 100.01 63.9874 100.373L63.9378 103.173L63.839 108.74C63.839 109.791 63.7894 110.857 63.806 111.908C63.8207 113.791 63.6946 115.648 63.6575 117.541L63.4761 124.492L63.4927 127.409C63.4959 128.306 63.5881 129.097 63.5423 130.059C63.5257 130.792 63.6412 131.509 63.559 132.259L63.5423 135.959L63.6082 140.176L59.6505 140.193C59.3372 140.193 59.0239 140.226 58.7106 140.209C58.0838 140.176 57.4735 140.16 56.8469 140.176ZM136.133 76.3715C135.694 74.3014 134.938 73.1488 133.972 71.471C133.329 70.3542 132.686 69.2374 132.043 68.1376C131.301 66.9043 130.642 65.6374 129.866 64.4374C129.768 64.2874 129.669 64.1206 129.586 63.9709C128.974 62.7683 128.471 62.0336 127.838 60.9206L125.909 57.5872L120.978 49.1366L115.174 39.7526L106.434 26.185C106.129 25.7066 104.012 22.3408 103.993 22.6512C104.076 22.968 104.372 23.368 104.389 23.6346C104.306 23.568 104.224 23.5178 104.142 23.4678C104.096 23.4259 103.716 22.9414 104.092 23.7011C103.817 23.2733 103.013 21.9942 102.74 21.7178C102.879 22.3478 103.985 24.7331 104.323 25.3514C104.834 26.2848 105.329 27.2182 105.906 28.1184C106.229 28.6621 107.383 30.7078 107.489 31.1686C107.618 31.7325 109.09 34.016 109.451 34.6189C109.88 35.3523 110.325 36.0858 110.704 36.8192C112.1 39.5776 113.71 42.4 115.19 45.1197C115.737 46.1293 117.574 49.2387 117.795 49.92C118.088 50.8214 119.008 52.2058 119.527 53.137L128.943 69.8214L131.779 74.8717C134.489 79.6621 131.126 86.056 125.612 86.3725L122.396 86.3558C111.523 86.287 100.593 86.0864 89.7452 86.1558C87.1401 86.1725 84.4831 86.2589 81.8793 86.2224C79.7026 86.1891 77.5423 86.3056 75.349 86.2224C74.0626 86.1891 72.7436 86.2224 71.4409 86.2224L64.8447 86.2058C59.79 86.2058 55.8101 80.5187 58.1826 75.4384C58.5484 74.655 59.3468 73.3411 59.749 72.6381L67.3346 59.3203C67.8127 58.487 68.2582 57.6368 68.7362 56.8202C69.6927 55.2035 70.6325 53.5866 71.5394 51.953C73.2873 48.8195 75.1343 45.7194 76.8495 42.5523L79.5209 37.6352C79.933 36.9018 80.3785 36.1853 80.7577 35.4352C81.3842 34.185 81.9449 32.9184 82.7036 31.6848C82.7366 31.6182 82.7862 31.5514 82.8025 31.4848C82.9692 30.9875 84.1599 29.0874 84.5999 28.0346C84.8764 27.3734 87.581 22.5898 87.8649 22.1174C88.5586 20.9635 89.0601 20.224 90.19 19.3171C91.6668 18.1171 93.6937 17.6275 95.566 17.7338C96.5759 17.8144 96.903 17.663 98.0396 17.967C99.4809 18.3526 100.049 19.0131 100.777 19.3338C101.45 19.6301 101.868 20.3302 102.063 20.4339C102.393 20.6173 102.739 21.0675 103.086 21.5174L102.442 19.9174C102.179 19.4173 101.832 18.9507 101.733 18.6006C101.645 18.3114 100.345 17.1997 99.903 16.9005C97.565 15.3184 94.054 14.8886 91.3279 15.6672C88.3337 16.5222 86.0191 18.8358 84.4514 21.4342C82.687 24.2346 80.9554 27.0678 79.2735 29.9514L75.2335 36.7853C74.1782 38.6189 73.1228 40.4688 72.0674 42.319C71.9685 42.4858 71.886 42.6525 71.7871 42.8026C70.9791 44.0694 70.2534 45.3862 69.495 46.6861L61.9753 59.6704C61.2053 59.2816 60.1948 59.304 60.1941 59.3037C59.8466 59.1846 59.9212 59.2931 59.4191 59.1869C58.9138 59.08 56.4345 59.2525 56.4345 59.287L54.0105 59.5037L53.1529 59.6538C52.1916 59.6538 51.4501 59.6659 50.5145 59.8038C50.2181 59.8474 49.8229 59.8237 49.558 59.9206C49.5413 59.9206 49.525 59.9206 49.525 59.9206C49.4738 59.8518 49.446 59.8931 49.261 59.9373C49.0492 59.9878 48.3602 59.92 47.8594 60.2042L47.0185 60.7542L46.2271 40.8528C46.1445 38.8694 46.0623 36.8525 45.9964 34.8358C45.9669 33.9632 45.8447 29.9875 45.7324 30.4022C45.6828 30.7856 45.7157 31.3024 45.6335 31.6355C45.6005 31.5686 45.5676 31.5021 45.5346 31.4355C45.518 31.3523 45.518 31.2355 45.5017 31.2189L45.4191 31.7357L45.2873 29.2522C45.2706 29.4355 45.2377 29.5354 45.2377 29.6355C45.1881 30.2688 45.1388 30.919 45.0892 31.5523C44.8514 34.4496 45.0002 37.368 44.9077 40.2698C44.8777 41.2173 44.7513 41.312 44.7593 42.3699C44.773 44.1318 44.846 46.6182 44.7759 48.3203L44.5285 58.7709C44.5177 59.9075 44.4991 64.0576 44.3967 64.7882C44.2297 65.9795 44.3138 67.5414 44.2978 68.8051L43.7535 124.709L43.605 139.177V140.044L28.1865 140.077C28.1865 137.45 28.0834 134.449 28.1698 131.926C28.2194 130.492 28.1865 129.009 28.1865 127.559L28.1698 110.808C28.1532 108.875 28.1369 106.924 28.1202 104.991C28.1202 101.657 28.1202 98.3401 28.1202 95.0234L28.1036 78.1222C28.1036 77.072 28.0706 76.0221 28.0869 74.9722C28.1036 72.9053 28.1199 70.855 28.1036 68.7885C28.0706 64.8214 28.1365 60.8547 28.0377 56.8877L27.9388 50.7206C27.9221 49.8038 27.9554 48.8704 27.9058 47.9539C27.8399 46.4038 27.7081 44.887 27.741 43.2867C27.741 43.2035 27.741 43.12 27.741 43.0368C27.6585 42.3034 27.6751 41.5366 27.6751 40.7699C27.6751 39.5082 27.5516 38.7725 27.5266 37.5696L27.477 31.6192C27.477 31.119 27.477 30.6192 27.4604 30.119C27.6255 30.119 27.7737 30.1024 27.9221 30.1024C29.0434 30.0525 30.2143 30.0022 31.3356 30.0022C32.1951 30.0022 35.0047 29.9661 35.854 29.8355C37.2063 29.6355 38.6409 29.5354 40.0921 29.4854C41.373 29.4445 41.7087 29.2669 43.0437 29.2189C43.2745 29.2022 43.6044 29.2022 43.7362 29.169C44.2309 29.0522 44.8905 29.0189 45.5666 28.969C44.5295 28.8797 44.1753 28.7181 43.9669 28.7024C43.4229 28.6192 42.8623 28.5523 42.6476 28.4022L40.2236 28.0854L33.5778 27.552C31.1359 27.3462 28.4511 27.2483 25.9429 27.152C25.1109 27.12 24.445 27.7459 24.4258 28.6688C24.3989 29.9709 24.2229 31.2464 24.1785 32.5523C23.9538 39.1485 23.8642 45.6742 23.7993 52.287C23.7826 54.6371 23.7993 56.9709 23.7993 59.321C23.7993 59.5376 23.7993 59.7376 23.7826 59.9376C23.7167 61.5878 23.733 63.2547 23.733 64.9046L23.7164 69.0218C23.6997 69.8717 23.6834 70.7219 23.6668 71.5718C23.6668 74.3219 23.6501 77.0723 23.6501 79.8224L23.6172 85.6563L23.6831 103.741C23.717 114.305 23.8975 124.858 23.8975 135.426C23.8975 136.393 23.9305 137.36 23.9305 138.326L23.9471 142.377C23.9471 143.493 24.8377 144.393 25.9423 144.377L32.7692 144.36C34.1215 144.327 35.4735 144.31 36.8425 144.343C37.2713 144.36 37.7164 144.343 38.1618 144.327L45.8793 144.244C46.0277 144.244 46.1759 144.227 46.3081 144.194C47.2809 144.31 48.2869 144.394 49.2764 144.427L51.8985 144.527L54.1906 144.543L56.9282 144.627C57.1756 144.627 57.423 144.66 57.6866 144.66L61.9081 144.71L65.8162 144.66C66.3276 144.66 66.8057 144.476 67.1849 144.193C68.2898 144.31 69.4111 144.393 70.5324 144.427L73.4841 144.526L76.0565 144.543L79.1404 144.626C79.4207 144.626 79.701 144.66 79.998 144.66L85.7202 144.693C86.5718 144.685 86.8786 144.35 86.9737 144.326C87.485 144.376 87.9961 144.409 88.5071 144.426L90.9807 144.526L93.141 144.542L95.6969 144.626C95.9442 144.626 96.1749 144.659 96.4223 144.659L100.396 144.709L105.739 144.642C106.325 144.642 106.542 144.421 106.712 144.426C107.306 144.459 107.883 144.509 108.477 144.525L110.225 144.542C111.323 144.642 115.036 144.719 116.062 144.709L118.684 144.659L123.153 144.576C123.928 144.526 124.703 144.476 125.495 144.459C126.737 144.446 127.657 143.585 127.622 142.359C127.605 141.759 127.605 141.159 127.605 140.542C127.605 140.325 127.572 140.108 127.572 139.875L127.506 136.125C127.49 135.775 127.441 135.441 127.424 135.092C127.407 134.642 127.441 134.175 127.374 133.708V132.892L127.341 128.341C127.341 127.358 126.533 126.558 125.56 126.574L120.333 126.724L118.305 126.808C118.012 126.843 118.188 126.706 117.612 126.808L113.869 126.924C112.22 126.982 109.271 127.712 107.586 128.091C107.304 123.251 107.502 118.188 107.306 113.274C107.256 112.39 106.53 111.69 105.64 111.724L101.451 111.84C101.252 111.892 101.298 111.747 100.61 111.84L96.6031 111.957L94.1791 112.124C92.1801 112.324 89.485 112.883 87.517 113.224L87.4345 103.873L87.3685 102.173L87.319 98.8896C87.3023 98.7229 87.3023 98.5562 87.3023 98.3894C87.3106 97.4813 86.5826 96.7728 85.7193 96.7728L84.4166 96.8227C84.0914 96.7405 83.5788 96.8368 83.1138 96.8393C78.9695 96.8633 76.4415 96.9293 72.3126 97.5562L67.1369 98.3232C67.0674 97.2723 66.4831 93.2848 66.2793 92.2729C66.1637 91.7229 66.0815 91.1728 65.9989 90.6227L78.5151 90.5562C79.389 90.5562 80.2466 90.5062 81.1206 90.5062L86.5954 90.4896L94.6758 90.4563L99.8866 90.3731C108.178 90.2688 116.513 90.2816 124.803 90.2729C129.149 90.2729 132.765 88.1945 134.929 84.2726C136.274 81.8339 136.713 79.1158 136.133 76.3715Z" fill="black"/>
<mask id="path-2-inside-1_10828_4618" fill="white">
<path d="M85.8398 18C89.6888 11.3333 99.3113 11.3333 103.16 18L137.368 77.25C141.217 83.9167 136.406 92.25 128.708 92.25H60.292C52.594 92.25 47.7827 83.9167 51.6317 77.25L85.8398 18Z"/>
</mask>
<path d="M85.8398 18C89.6888 11.3333 99.3113 11.3333 103.16 18L137.368 77.25C141.217 83.9167 136.406 92.25 128.708 92.25H60.292C52.594 92.25 47.7827 83.9167 51.6317 77.25L85.8398 18Z" fill="white"/>
<path d="M104.784 17.0625C103.702 17.6875 102.619 18.3125 101.536 18.9375C103.41 23.0158 105.319 27.0732 107.265 31.1099C115.048 47.2564 123.408 63.0695 132.345 78.5494C132.576 78.9496 132.807 79.3498 133.038 79.7499C135.046 82.8051 132.389 87.4693 128.708 87.2886C105.903 87.3673 83.0973 87.5667 60.292 87.8866C56.1862 88.2341 52.862 83.0133 55.1266 79.2677C66.1882 59.3209 77.1455 39.3137 87.9983 19.2462C88.8948 17.5377 90.4075 16.2238 92.2609 15.6019C95.5595 14.4404 99.6279 15.7626 101.536 18.9375C102.619 18.3125 103.702 17.6875 104.784 17.0625C102.346 12.2972 96.2589 9.70768 90.9642 11.2347C87.9749 12.0235 85.2791 14.0775 83.6813 16.7538C71.7287 36.1863 59.8806 55.6791 48.1369 75.2323C42.456 83.8442 49.7231 96.9682 60.292 96.6134C83.0973 96.9333 105.903 97.1327 128.708 97.2114C139.701 97.7329 147.636 84.0525 141.698 74.7501C141.467 74.3498 141.236 73.9496 141.005 73.5494C132.068 58.0695 122.553 42.923 112.461 28.1099C109.938 24.4066 107.379 20.7241 104.784 17.0625ZM101.536 18.9375L104.784 17.0625L101.536 18.9375Z" fill="#00AA72" mask="url(#path-2-inside-1_10828_4618)"/>
<path d="M92.0676 64.1253L90.5884 42.4933H97.2907L95.8116 64.1253H92.0676ZM94.0089 73.5547C92.7455 73.5547 91.7902 73.2773 91.1431 72.7227C90.496 72.168 90.1724 71.3206 90.1724 70.1804C90.1724 68.9787 90.496 68.1004 91.1431 67.5458C91.7902 66.9911 92.7455 66.7138 94.0089 66.7138C95.3031 66.7138 96.2738 66.9911 96.9209 67.5458C97.5988 68.1004 97.9378 68.9787 97.9378 70.1804C97.9378 72.4299 96.6281 73.5547 94.0089 73.5547Z" fill="#00AA72"/>
</svg>
