<svg width="93" height="93" viewBox="0 0 93 93" fill="none" xmlns="http://www.w3.org/2000/svg">
<g clip-path="url(#clip0_967_2045)">
<path d="M85.064 50.1816C84.01 61.3106 78.2246 71.0795 69.75 77.4616V73.6215C69.75 67.2122 64.5342 61.9965 58.125 61.9965H34.875C28.4657 61.9965 23.25 67.2122 23.25 73.6215V77.4228C13.8609 70.3432 7.75 59.1367 7.75 46.4965C7.75 26.3775 23.1725 9.80021 42.8188 7.93634C44.4928 4.99908 46.6395 2.37183 49.1466 0.132085C48.267 0.08171 47.3951 -0.00354004 46.5 -0.00354004C20.8591 0.000334961 0 20.8595 0 46.5003C0 72.1412 20.8591 93.0003 46.5 93.0003C72.1409 93.0003 93 72.1412 93 46.5003C93 45.6091 92.9147 44.7372 92.8644 43.8537C90.6285 46.3608 88.0051 48.5076 85.064 50.1816ZM31 81.9915V73.6253C31 71.4863 32.736 69.7503 34.875 69.7503H58.125C60.264 69.7503 62 71.4863 62 73.6253V81.9721C57.2454 84.0607 52.0141 85.2503 46.5 85.2503C40.9859 85.2503 35.7508 84.0762 31 81.9915ZM69.75 46.5003C82.5724 46.5003 93 36.0727 93 23.2503C93 10.428 82.5724 0.000334961 69.75 0.000334961C56.9276 0.000334961 46.5 10.428 46.5 23.2503C46.5 36.0727 56.9276 46.5003 69.75 46.5003ZM54.25 23.2503C54.25 20.3828 55.0831 17.7323 56.4471 15.4267L77.5775 36.5571C75.2719 37.9172 72.6175 38.7542 69.7539 38.7542C61.2056 38.7542 54.2539 31.8025 54.2539 23.2542L54.25 23.2503ZM85.25 23.2503C85.25 26.1178 84.4169 28.7683 83.0529 31.074L61.9225 9.94358C64.2281 8.58346 66.8825 7.74646 69.7461 7.74646C78.2944 7.74646 85.2461 14.6982 85.2461 23.2465L85.25 23.2503ZM40.6178 33.7632C39.4708 35.1156 38.75 36.84 38.75 38.7503C38.75 43.0245 42.2259 46.5003 46.5 46.5003C47.3254 46.5003 48.1042 46.3376 48.8483 46.0973C50.9601 48.031 53.3355 49.674 55.9279 50.9682C53.3084 52.9948 50.065 54.2503 46.5 54.2503C37.9517 54.2503 31 47.2986 31 38.7503C31 32.996 34.1891 28.0205 38.8546 25.3467C39.0522 28.284 39.6567 31.105 40.6178 33.7632Z" fill="#00AA72"/>
</g>
<defs>
<clipPath id="clip0_967_2045">
<rect width="93" height="93" fill="white"/>
</clipPath>
</defs>
</svg>
