<svg width="96" height="96" viewBox="0 0 96 96" fill="none" xmlns="http://www.w3.org/2000/svg">
<g clip-path="url(#clip0_7975_11100)">
<path d="M12 54C12 49.0371 16.0371 45 21 45C25.9629 45 30 49.0371 30 54H36C36 54 36 44.2192 36 44.1915C36 41.95 38.5827 40.4758 40.5161 41.6016C42.4652 42.7365 45 41.2579 45 39C45 36.8211 42.431 35.2716 40.5164 36.3982C38.5607 37.5491 36 36.0673 36 33.8086V18H9C4.0371 18 0 22.0371 0 27V54H12Z" fill="#00AA72"/>
<path d="M36 84C31.0371 84 27 79.9629 27 75C27 70.0371 31.0371 66 36 66V60H26.1899C23.9521 60 22.4363 57.474 23.6014 55.4826C24.7266 53.5596 23.271 51.0002 21.0002 51C18.8275 50.9999 17.2775 53.5732 18.3983 55.4822C19.5504 57.4444 18.0801 60 15.8101 60H0V87C0 91.9629 4.0371 96 9 96H36V84Z" fill="#00AA72"/>
<path d="M66 60C66 64.9629 61.9629 69 57 69C52.0371 69 48 64.9629 48 60H42V69.8086C42 72.0564 39.4229 73.53 37.4839 72.3985C35.5462 71.2677 33.0001 72.7392 33 74.9999C32.9999 77.1869 35.5654 78.7307 37.4838 77.6016C39.4293 76.4565 42 77.9548 42 80.1914V96H69C73.9629 96 78 91.9629 78 87V60H66Z" fill="#00AA72"/>
<path d="M87 0H57C55.3418 0 54 1.34181 54 3V15.8085C54 18.0829 56.557 19.5425 58.5175 18.3985C60.4805 17.253 62.9999 18.7656 63 20.9999C63.0001 23.1899 60.4391 24.7362 58.5178 23.6017C56.5695 22.4513 54 23.9549 54 26.1914V39C54 40.6582 55.3418 42 57 42H66C66 46.9629 70.0371 51 75 51C79.9629 51 84 46.9629 84 42H93C94.6582 42 96 40.6582 96 39V9C96 4.0371 91.9629 0 87 0Z" fill="#00AA72"/>
</g>
<defs>
<clipPath id="clip0_7975_11100">
<rect width="96" height="96" fill="white"/>
</clipPath>
</defs>
</svg>
