<svg width="110" height="110" viewBox="0 0 110 110" fill="none" xmlns="http://www.w3.org/2000/svg">
<path d="M51.7773 7.55273C39.3546 8.2658 27.7049 13.0931 18.4062 21.3803L32.787 35.7611C38.1989 31.2556 44.7702 28.5329 51.7773 27.8926V7.55273Z" fill="#00AA72"/>
<path d="M28.2277 40.3171L13.8471 25.9365C5.55287 35.2326 0.719531 46.8831 0.00195312 59.3088H20.3427C20.9872 52.3004 23.7158 45.7286 28.2277 40.3171Z" fill="#00AA72"/>
<path d="M89.6565 59.3088H109.997C109.28 46.8831 104.447 35.2326 96.1521 25.9365L81.7715 40.3171C86.2834 45.7284 89.0119 52.3004 89.6565 59.3088Z" fill="#00AA72"/>
<path d="M89.6516 65.7539C89.1998 70.7174 87.7833 74.8575 86.108 78.1783C87.7423 80.6987 89.1048 82.8286 90.005 84.2431C92.4564 88.0957 91.9137 93.041 88.685 96.2699C87.9011 97.0538 87.0056 97.6855 86.0352 98.1523L89.3844 101.502C90.0147 102.132 90.841 102.447 91.6671 102.447C92.4934 102.447 93.3194 102.132 93.9496 101.502C103.601 91.8512 109.229 79.2581 109.999 65.7539H89.6516Z" fill="#00AA72"/>
<path d="M20.3479 65.7539H0C0.770215 79.2581 6.39805 91.8512 16.0495 101.502C16.6798 102.132 17.5059 102.447 18.332 102.447C19.158 102.447 19.9843 102.132 20.6147 101.502L30.3927 91.7234C31.6531 90.4627 31.6531 88.4186 30.3927 87.1579C27.841 84.6062 21.4135 77.4622 20.3479 65.7539Z" fill="#00AA72"/>
<path d="M91.5937 21.3803C82.295 13.0929 70.6454 8.2658 58.2227 7.55273V27.8926C65.2296 28.5329 71.801 31.2556 77.2129 35.7611L91.5937 21.3803Z" fill="#00AA72"/>
<path d="M62.1607 55.425C58.2125 51.4768 51.7882 51.4768 47.84 55.425C43.8919 59.3732 43.8919 65.7974 47.84 69.7456C52.8279 74.7334 77.3405 90.3848 80.1192 92.153C81.3935 92.964 83.06 92.781 84.1282 91.713C85.1962 90.645 85.3793 88.9784 84.5682 87.704C82.7999 84.9254 67.1485 60.4126 62.1607 55.425Z" fill="#00AA72"/>
</svg>
