<svg width="81" height="81" viewBox="0 0 81 81" fill="none" xmlns="http://www.w3.org/2000/svg">
<path d="M81 33.75V77.625H0V33.75H81ZM0 27V13.5C0 7.93125 4.55625 3.375 10.125 3.375H70.875C76.4437 3.375 81 7.93125 81 13.5V27H0ZM64.125 15.1875C64.125 17.9887 66.3863 20.25 69.1875 20.25C71.9887 20.25 74.25 17.9887 74.25 15.1875C74.25 12.3863 71.9887 10.125 69.1875 10.125C66.3863 10.125 64.125 12.3863 64.125 15.1875ZM50.625 15.1875C50.625 17.9887 52.8862 20.25 55.6875 20.25C58.4888 20.25 60.75 17.9887 60.75 15.1875C60.75 12.3863 58.4888 10.125 55.6875 10.125C52.8862 10.125 50.625 12.3863 50.625 15.1875ZM37.125 15.1875C37.125 17.9887 39.3862 20.25 42.1875 20.25C44.9888 20.25 47.25 17.9887 47.25 15.1875C47.25 12.3863 44.9888 10.125 42.1875 10.125C39.3862 10.125 37.125 12.3863 37.125 15.1875Z" fill="#00AA72"/>
</svg>
