<svg width="629" height="1044" viewBox="0 0 629 1044" fill="none" xmlns="http://www.w3.org/2000/svg">
<path d="M726.619 110.191L132.102 457.825" stroke="#089768" stroke-width="0.5"/>
<path d="M1077.4 277L309.398 735.681" stroke="#089768" stroke-width="0.5"/>
<path d="M787.536 166.911L67.75 584.576" stroke="#089768" stroke-width="0.5"/>
<path d="M993.983 236.689L248.477 678.961" stroke="#089768" stroke-width="0.5"/>
<path d="M898.972 200.522L153.305 649.813" stroke="#089768" stroke-width="0.5"/>
<path d="M519.509 235.453L519.448 235.696L1023.54 362.26L1023.6 362.018L1023.66 361.775L519.57 235.21L519.509 235.453Z" fill="#089768"/>
<path d="M616.606 176.859L616.552 177.103L1116.69 288.999L1116.74 288.755L1116.8 288.511L616.661 176.615L616.606 176.859Z" fill="#089768"/>
<path d="M409.018 300.745L408.938 300.959L954.859 445.758L954.939 445.544L955.019 445.33L409.098 300.531L409.018 300.745Z" fill="#089768"/>
<path d="M119.929 506.34L805.852 682.175" stroke="#089768" stroke-width="0.5"/>
<path d="M302.098 359.659L302.02 359.873L955.266 529.033L955.344 528.818L955.422 528.604L302.176 359.444L302.098 359.659Z" fill="#089768"/>
<path d="M61.723 577.04L809.501 765.332" stroke="#089768" stroke-width="0.5"/>
<path d="M95.9681 418.772L836.614 613.01" stroke="#089768" stroke-width="0.5"/>
</svg>
