<svg width="505" height="269" viewBox="0 0 505 269" fill="none" xmlns="http://www.w3.org/2000/svg">
<path d="M93.4653 101.953H97.5465L98.2667 103.634C100.987 102.314 103.648 101.653 106.249 101.653C108.69 101.653 110.51 102.193 111.711 103.274C112.951 104.354 113.731 105.614 114.051 107.055C114.411 108.495 114.591 110.116 114.591 111.916V125H108.89V111.196C108.89 109.996 108.59 108.915 107.989 107.955C107.389 106.995 106.309 106.515 104.749 106.515C103.348 106.515 101.488 106.935 99.167 107.775V125H93.4653V101.953ZM131.295 120.859C132.455 120.859 133.936 120.619 135.736 120.139L136.516 124.22C135.116 124.62 133.916 124.94 132.915 125.18C131.955 125.42 130.995 125.54 130.035 125.54C126.714 125.54 124.493 124.84 123.373 123.44C122.292 122.039 121.752 120.099 121.752 117.618V106.455H117.911V101.953H121.752V95.3515H127.514V101.953H135.496V106.455H127.514V117.498C127.514 119.738 128.774 120.859 131.295 120.859ZM144.441 103.094C146.081 102.093 147.842 101.593 149.722 101.593C153.203 101.593 155.864 102.674 157.704 104.834C159.585 106.955 160.525 109.876 160.525 113.597V115.817H144.861C145.021 117.778 145.701 119.138 146.901 119.899C148.102 120.659 149.802 121.039 152.003 121.039C154.323 121.039 156.444 120.799 158.365 120.319L159.385 124.22C156.784 125.14 154.063 125.6 151.222 125.6C147.261 125.6 144.24 124.5 142.16 122.299C140.079 120.099 139.039 117.198 139.039 113.597C139.039 111.196 139.539 109.095 140.539 107.295C141.54 105.454 142.84 104.054 144.441 103.094ZM153.443 107.595C152.523 106.595 151.323 106.095 149.842 106.095C148.642 106.095 147.541 106.595 146.541 107.595C145.581 108.595 145.061 109.996 144.981 111.796H154.824C154.824 109.956 154.363 108.555 153.443 107.595ZM165.064 101.953H169.145L169.865 103.634C171.986 102.273 174.247 101.593 176.647 101.593C178.128 101.593 179.528 101.893 180.848 102.494L179.708 107.715L179.468 107.775C178.108 106.975 176.467 106.575 174.547 106.575C173.226 106.575 171.966 106.795 170.766 107.235V125H165.064V101.953ZM184.194 101.953H188.276L188.996 103.634C191.717 102.314 194.377 101.653 196.978 101.653C199.419 101.653 201.239 102.193 202.44 103.274C203.68 104.354 204.46 105.614 204.78 107.055C205.14 108.495 205.32 110.116 205.32 111.916V125H199.619V111.196C199.619 109.996 199.319 108.915 198.719 107.955C198.118 106.995 197.038 106.515 195.478 106.515C194.077 106.515 192.217 106.935 189.896 107.775V125H184.194V101.953ZM215.242 103.094C216.883 102.093 218.643 101.593 220.524 101.593C224.005 101.593 226.665 102.674 228.506 104.834C230.386 106.955 231.327 109.876 231.327 113.597V115.817H215.662C215.822 117.778 216.502 119.138 217.703 119.899C218.903 120.659 220.604 121.039 222.804 121.039C225.125 121.039 227.245 120.799 229.166 120.319L230.186 124.22C227.586 125.14 224.865 125.6 222.024 125.6C218.063 125.6 215.042 124.5 212.961 122.299C210.881 120.099 209.841 117.198 209.841 113.597C209.841 111.196 210.341 109.095 211.341 107.295C212.341 105.454 213.642 104.054 215.242 103.094ZM224.245 107.595C223.324 106.595 222.124 106.095 220.644 106.095C219.443 106.095 218.343 106.595 217.343 107.595C216.382 108.595 215.862 109.996 215.782 111.796H225.625C225.625 109.956 225.165 108.555 224.245 107.595ZM246.969 120.859C248.129 120.859 249.609 120.619 251.41 120.139L252.19 124.22C250.79 124.62 249.589 124.94 248.589 125.18C247.629 125.42 246.669 125.54 245.708 125.54C242.387 125.54 240.167 124.84 239.046 123.44C237.966 122.039 237.426 120.099 237.426 117.618V106.455H233.585V101.953H237.426V95.3515H243.188V101.953H251.17V106.455H243.188V117.498C243.188 119.738 244.448 120.859 246.969 120.859ZM269.976 125V91.9906H281.199C285.48 91.9906 288.441 92.8908 290.082 94.6913C291.762 96.4518 292.602 98.4124 292.602 100.573C292.602 103.694 291.162 106.135 288.281 107.895C290.482 108.335 292.182 109.336 293.383 110.896C294.623 112.456 295.243 114.157 295.243 115.997C295.243 118.438 294.143 120.559 291.942 122.359C289.782 124.12 285.94 125 280.419 125H269.976ZM285.4 98.1723C284.4 97.4521 282.639 97.092 280.119 97.092H275.858V105.554H280.119C282.519 105.554 284.24 105.214 285.28 104.534C286.361 103.854 286.901 102.794 286.901 101.353C286.901 99.9528 286.401 98.8925 285.4 98.1723ZM287.081 111.736C285.56 110.896 283.1 110.476 279.699 110.476L275.858 110.536V119.839H279.699C283.02 119.839 285.46 119.518 287.021 118.878C288.621 118.238 289.421 117.058 289.421 115.337C289.421 113.737 288.641 112.536 287.081 111.736ZM300.815 103.154C303.936 102.113 306.497 101.593 308.497 101.593C312.379 101.593 315.079 102.394 316.6 103.994C318.16 105.594 318.94 107.875 318.94 110.836V125H314.379L313.719 123.38C311.918 124.82 309.678 125.54 306.997 125.54C304.516 125.54 302.536 124.9 301.055 123.62C299.575 122.339 298.835 120.699 298.835 118.698C298.835 116.458 299.655 114.717 301.295 113.477C302.976 112.196 305.357 111.476 308.437 111.316L312.939 111.076C312.939 109.075 312.579 107.715 311.858 106.995C311.138 106.275 309.718 105.915 307.597 105.915C305.797 105.915 303.836 106.315 301.716 107.115L300.815 103.154ZM312.099 120.499C312.619 120.219 312.979 120.019 313.179 119.899V114.977L309.098 115.277C306.097 115.437 304.596 116.438 304.596 118.278C304.596 119.198 304.936 119.919 305.617 120.439C306.297 120.959 307.237 121.219 308.437 121.219C309.238 121.219 309.918 121.159 310.478 121.039C311.038 120.919 311.578 120.739 312.099 120.499ZM324.391 101.953H328.472L329.192 103.634C331.913 102.314 334.574 101.653 337.174 101.653C339.615 101.653 341.436 102.193 342.636 103.274C343.876 104.354 344.657 105.614 344.977 107.055C345.337 108.495 345.517 110.116 345.517 111.916V125H339.815V111.196C339.815 109.996 339.515 108.915 338.915 107.955C338.315 106.995 337.234 106.515 335.674 106.515C334.274 106.515 332.413 106.935 330.092 107.775V125H324.391V101.953ZM351.477 91.9906H357.239V125H351.477V91.9906ZM357.839 112.336L366.542 101.653H373.504L364.621 112.336L373.924 125H366.962L357.839 112.336ZM377.354 125V101.953H383.116V125H377.354ZM377.654 96.972C378.374 97.6922 379.235 98.0523 380.235 98.0523C381.275 98.0523 382.135 97.6922 382.816 96.972C383.536 96.2518 383.896 95.3915 383.896 94.3912C383.896 93.3509 383.536 92.4907 382.816 91.8105C382.135 91.0903 381.275 90.7302 380.235 90.7302C379.235 90.7302 378.374 91.0903 377.654 91.8105C376.934 92.4907 376.574 93.3509 376.574 94.3912C376.574 95.3915 376.934 96.2518 377.654 96.972ZM388.862 101.953H392.944L393.664 103.634C396.384 102.314 399.045 101.653 401.646 101.653C404.087 101.653 405.907 102.193 407.108 103.274C408.348 104.354 409.128 105.614 409.448 107.055C409.808 108.495 409.988 110.116 409.988 111.916V125H404.287V111.196C404.287 109.996 403.987 108.915 403.386 107.955C402.786 106.995 401.706 106.515 400.146 106.515C398.745 106.515 396.885 106.935 394.564 107.775V125H388.862V101.953ZM430.713 129.141C431.113 127.941 431.313 126.38 431.313 124.46V124.34C430.393 124.74 429.553 125.04 428.793 125.24C428.072 125.44 427.232 125.54 426.272 125.54C422.631 125.54 419.75 124.46 417.629 122.299C415.549 120.139 414.508 117.218 414.508 113.537C414.508 110.656 415.089 108.335 416.249 106.575C417.409 104.774 418.81 103.494 420.45 102.734C422.131 101.973 423.811 101.593 425.492 101.593C427.892 101.593 430.213 102.213 432.454 103.454L432.994 101.953H437.015V125.54C437.015 128.781 436.055 131.582 434.134 133.943C432.214 136.343 429.013 137.544 424.531 137.544C421.771 137.544 419.11 137.043 416.549 136.043L415.649 135.683L417.209 131.482L418.169 131.782C420.41 132.582 422.331 132.982 423.931 132.982C425.972 132.982 427.512 132.642 428.552 131.962C429.633 131.282 430.353 130.342 430.713 129.141ZM431.253 106.995C429.973 106.435 428.592 106.155 427.112 106.155C422.671 106.155 420.45 108.715 420.45 113.837C420.45 116.398 421.07 118.238 422.311 119.358C423.551 120.479 425.212 121.039 427.292 121.039C428.773 121.039 430.093 120.659 431.253 119.899V106.995Z" fill="url(#paint0_linear_11056_4367)"/>
<path d="M110.93 146.692C109.65 146.372 108.31 146.212 106.909 146.212C104.869 146.212 103.268 146.572 102.108 147.292C100.947 148.013 100.367 148.993 100.367 150.233C100.367 151.273 100.887 152.094 101.928 152.694C103.008 153.294 104.689 153.954 106.969 154.674C109.29 155.395 111.19 156.095 112.671 156.775C114.191 157.455 115.492 158.456 116.572 159.776C117.652 161.096 118.192 162.777 118.192 164.817C118.192 166.498 117.732 168.078 116.812 169.559C115.892 170.999 114.391 172.199 112.311 173.16C110.27 174.08 107.649 174.54 104.448 174.54C102.568 174.54 100.847 174.36 99.287 174C97.7266 173.6 95.906 173 93.8254 172.199L93.0452 171.839L95.0258 166.498L95.926 166.858C99.5671 168.218 102.568 168.899 104.929 168.899C107.089 168.899 108.83 168.538 110.15 167.818C111.47 167.058 112.131 166.058 112.131 164.817C112.171 163.617 111.651 162.717 110.57 162.117C109.49 161.476 107.749 160.796 105.349 160.076C103.068 159.356 101.188 158.656 99.7071 157.975C98.2267 157.295 96.9663 156.315 95.926 155.035C94.8857 153.714 94.3656 152.034 94.3656 149.993C94.3656 148.193 94.8657 146.592 95.866 145.192C96.8663 143.791 98.3067 142.691 100.187 141.891C102.068 141.091 104.248 140.69 106.729 140.69C108.85 140.69 110.65 140.871 112.131 141.231C113.611 141.551 115.052 141.951 116.452 142.431L117.112 142.671L115.192 148.013C113.671 147.412 112.251 146.972 110.93 146.692ZM140.472 173.04C138.671 174.04 136.591 174.54 134.23 174.54C131.869 174.54 129.789 174.04 127.988 173.04C126.228 171.999 124.847 170.579 123.847 168.779C122.887 166.978 122.407 164.917 122.407 162.597C122.407 158.876 123.487 155.955 125.648 153.834C127.808 151.674 130.689 150.593 134.29 150.593C137.891 150.593 140.752 151.674 142.873 153.834C145.033 155.995 146.114 158.896 146.114 162.537C146.114 164.897 145.613 166.978 144.613 168.779C143.653 170.579 142.272 171.999 140.472 173.04ZM138.431 157.075C137.311 155.755 135.911 155.095 134.23 155.095C132.59 155.095 131.189 155.755 130.029 157.075C128.909 158.396 128.348 160.236 128.348 162.597C128.348 164.917 128.909 166.738 130.029 168.058C131.149 169.339 132.55 169.979 134.23 169.979C135.991 169.979 137.411 169.339 138.491 168.058C139.612 166.778 140.172 164.957 140.172 162.597C140.172 160.196 139.592 158.356 138.431 157.075ZM157.258 169.139C157.658 169.739 158.358 170.039 159.359 170.039C160.159 170.039 161.079 169.899 162.119 169.619V173.4C160.479 174.16 158.758 174.54 156.958 174.54C153.037 174.54 151.076 172.38 151.076 168.058V140.991H156.718V166.378C156.718 167.578 156.898 168.498 157.258 169.139ZM185.931 174.06H181.97L181.25 172.38C179.729 173.1 178.429 173.64 177.349 174C176.308 174.36 175.108 174.54 173.748 174.54C170.267 174.54 167.986 173.54 166.906 171.539C165.865 169.499 165.345 167.018 165.345 164.097V150.953H171.047V164.877C171.047 166.118 171.347 167.218 171.947 168.178C172.547 169.139 173.648 169.619 175.248 169.619C177.009 169.619 178.689 169.159 180.29 168.238V150.953H185.931V174.06ZM202.8 169.859C203.96 169.859 205.441 169.619 207.241 169.139L208.021 173.22C206.621 173.62 205.42 173.94 204.42 174.18C203.46 174.42 202.5 174.54 201.539 174.54C198.218 174.54 195.998 173.84 194.877 172.44C193.797 171.039 193.257 169.099 193.257 166.618V155.455H189.416V150.953H193.257V144.352H199.019V150.953H207.001V155.455H199.019V166.498C199.019 168.738 200.279 169.859 202.8 169.859ZM211.744 174V150.953H217.506V174H211.744ZM212.044 145.972C212.764 146.692 213.625 147.052 214.625 147.052C215.665 147.052 216.526 146.692 217.206 145.972C217.926 145.252 218.286 144.392 218.286 143.391C218.286 142.351 217.926 141.491 217.206 140.811C216.526 140.09 215.665 139.73 214.625 139.73C213.625 139.73 212.764 140.09 212.044 140.811C211.324 141.491 210.964 142.351 210.964 143.391C210.964 144.392 211.324 145.252 212.044 145.972ZM240.297 173.04C238.497 174.04 236.416 174.54 234.056 174.54C231.695 174.54 229.614 174.04 227.814 173.04C226.053 171.999 224.673 170.579 223.673 168.779C222.712 166.978 222.232 164.917 222.232 162.597C222.232 158.876 223.312 155.955 225.473 153.834C227.634 151.674 230.515 150.593 234.116 150.593C237.717 150.593 240.577 151.674 242.698 153.834C244.859 155.995 245.939 158.896 245.939 162.537C245.939 164.897 245.439 166.978 244.439 168.779C243.478 170.579 242.098 171.999 240.297 173.04ZM238.257 157.075C237.136 155.755 235.736 155.095 234.056 155.095C232.415 155.095 231.015 155.755 229.854 157.075C228.734 158.396 228.174 160.236 228.174 162.597C228.174 164.917 228.734 166.738 229.854 168.058C230.975 169.339 232.375 169.979 234.056 169.979C235.816 169.979 237.236 169.339 238.317 168.058C239.437 166.778 239.997 164.957 239.997 162.597C239.997 160.196 239.417 158.356 238.257 157.075ZM250.542 150.953H254.623L255.343 152.634C258.064 151.314 260.724 150.653 263.325 150.653C265.766 150.653 267.586 151.193 268.787 152.274C270.027 153.354 270.807 154.614 271.127 156.055C271.488 157.495 271.668 159.116 271.668 160.916V174H265.966V160.196C265.966 158.996 265.666 157.915 265.066 156.955C264.466 155.995 263.385 155.515 261.825 155.515C260.424 155.515 258.564 155.935 256.243 156.775V174H250.542V150.953Z" fill="#181818"/>
<path d="M75.6966 83H62.4912V143.656L75.6966 83Z" fill="#00AA72"/>
<path d="M63.0924 186H76.2979V125.344L63.0924 186Z" fill="#00AA72"/>
<path d="M63.0918 178.561V150.522L75.697 94.4443V117.905L63.0918 178.561Z" fill="#181818" stroke="#181818" stroke-width="1.20049"/>
<rect x="49.6445" y="83" width="36" height="13" fill="url(#paint1_linear_11056_4367)"/>
<rect x="49.6445" y="173" width="36" height="13" fill="url(#paint2_linear_11056_4367)"/>
<defs>
<linearGradient id="paint0_linear_11056_4367" x1="272.145" y1="92" x2="272.145" y2="129" gradientUnits="userSpaceOnUse">
<stop stop-color="#00AA72"/>
<stop offset="1" stop-color="#15325D"/>
</linearGradient>
<linearGradient id="paint1_linear_11056_4367" x1="67.6445" y1="83" x2="67.6445" y2="96" gradientUnits="userSpaceOnUse">
<stop stop-color="#00AA72"/>
<stop offset="1" stop-color="#15325D"/>
</linearGradient>
<linearGradient id="paint2_linear_11056_4367" x1="67.6445" y1="173" x2="67.6445" y2="186" gradientUnits="userSpaceOnUse">
<stop stop-color="#00AA72"/>
<stop offset="1" stop-color="#15325D"/>
</linearGradient>
</defs>
</svg>
