<svg width="33" height="33" viewBox="0 0 33 33" fill="none" xmlns="http://www.w3.org/2000/svg">
<g clip-path="url(#clip0_9755_4546)">
<path d="M24.75 13.75C25.234 13.75 25.707 13.7926 26.1745 13.8531C25.4581 12.8714 24.4998 12.0766 23.375 11.583V9.625C23.375 4.3175 19.0561 0 13.75 0C8.44388 0 4.125 4.3175 4.125 9.625V11.583C1.70088 12.6472 0 15.0631 0 17.875V26.125C0 29.9159 3.08413 33 6.875 33H17.4914C15.202 30.9842 13.75 28.0404 13.75 24.75C12.9896 24.75 12.375 24.134 12.375 23.375V20.625C12.375 19.866 12.9896 19.25 13.75 19.25C14.2367 19.25 14.6438 19.5181 14.8885 19.899C16.6829 16.2594 20.4188 13.75 24.75 13.75ZM6.875 11V9.625C6.875 5.83413 9.95913 2.75 13.75 2.75C17.5409 2.75 20.625 5.83413 20.625 9.625V11H6.875ZM24.75 16.5C20.2001 16.5 16.5 20.2001 16.5 24.75C16.5 29.2999 20.2001 33 24.75 33C29.2999 33 33 29.2999 33 24.75C33 20.2001 29.2999 16.5 24.75 16.5ZM24.75 19.25C26.2694 19.25 27.5 20.4806 27.5 22C27.5 23.5194 26.2694 24.75 24.75 24.75C23.2306 24.75 22 23.5194 22 22C22 20.4806 23.2306 19.25 24.75 19.25ZM24.75 30.25C23.265 30.25 21.9216 29.6532 20.9303 28.6935C21.5421 27.1879 23.0134 26.125 24.7376 26.125H24.7596C26.4825 26.125 27.9537 27.1906 28.5656 28.6963C27.5756 29.6546 26.2336 30.25 24.75 30.25Z" fill="#00AA72"/>
</g>
<defs>
<clipPath id="clip0_9755_4546">
<rect width="33" height="33" fill="white"/>
</clipPath>
</defs>
</svg>
