<svg width="45" height="45" viewBox="0 0 45 45" fill="none" xmlns="http://www.w3.org/2000/svg">
<g clip-path="url(#clip0_9597_4324)">
<path d="M44.8875 27.4838L39.2531 11.9869C38.3887 9.6113 36.405 7.84317 33.9488 7.2563L24.3769 4.96692V1.87505C24.3656 -0.577451 20.6381 -0.575576 20.6269 1.87505V4.0688L12.2456 2.0663C9.40688 1.3088 6.50625 2.8238 5.51437 5.57067L0.118125 19.9669C0.039375 20.1769 0 21.1913 0 21.1913C0 25.89 3.50813 29.7544 7.9875 29.9888C10.3331 30.1069 12.5513 29.2913 14.2463 27.6844C15.9169 26.0982 16.875 23.8669 16.875 21.5644C16.875 21.5644 16.8337 20.1675 16.7494 19.9538L11.2613 5.68505C11.2838 5.6888 20.625 7.9238 20.625 7.9238V41.25H9.375C6.9225 41.2613 6.92438 44.9888 9.375 45H35.625C38.0775 44.9888 38.0756 41.2613 35.625 41.25H24.375V8.82192L33.0769 10.9032C33.4481 10.9913 33.7969 11.1357 34.1156 11.3232L28.2375 27.4838C28.1625 27.6882 28.125 28.6913 28.125 28.6913C27.9788 36.0469 37.0294 40.4438 42.3694 35.1825C44.0419 33.5963 45 31.365 45 29.0625C45 29.0625 45 28.0538 44.8875 27.4838ZM12.27 18.75H4.58063L8.37562 8.62317L12.27 18.75ZM36.5625 15.5644L40.4475 26.25H32.6756L36.5625 15.5644Z" fill="#00AA72"/>
</g>
<defs>
<clipPath id="clip0_9597_4324">
<rect width="45" height="45" fill="white"/>
</clipPath>
</defs>
</svg>
