<svg width="40" height="40" viewBox="0 0 40 40" fill="none" xmlns="http://www.w3.org/2000/svg">
<path d="M20 11.6667V0.766667C21.5217 1.34333 22.9217 2.23167 24.1083 3.41667L29.915 9.22667C31.1017 10.4117 31.99 11.8117 32.5667 13.3333H21.6667C20.7467 13.3333 20 12.585 20 11.6667ZM32.5 30C37.5733 30 39.6317 28.6483 40 28.2017V24.1667C40 22.695 36.9167 21.6667 32.5 21.6667C28.0833 21.6667 25 22.695 25 24.1667V28.2017C25.3683 28.6483 27.4267 30 32.5 30ZM32.5 40C37.265 40 40 38.6833 40 36.3883V32.0383C38.2017 32.815 35.7167 33.3333 32.5 33.3333C29.2833 33.3333 26.7983 32.815 25 32.0383V36.3883C25 38.6833 27.735 40 32.5 40ZM21.6667 36.3883V24.1667C21.6667 22.4133 22.7233 18.3333 32.5 18.3333C32.7917 18.3333 33.05 18.3483 33.3267 18.355C33.3183 17.6867 33.3067 16.8367 33.295 16.6667H21.6683C18.9117 16.6667 16.6683 14.4233 16.6683 11.6667V0.04C16.4 0.0216667 16.1317 0 15.86 0H8.33333C3.73833 0 0 3.73833 0 8.33333V31.6667C0 36.2617 3.73833 40 8.33333 40H22.9183C21.8333 38.5967 21.6667 37.1217 21.6667 36.3883ZM10 31.6667C10 32.5867 9.255 33.3333 8.33333 33.3333C7.41167 33.3333 6.66667 32.5867 6.66667 31.6667V26.6667C6.66667 25.7467 7.41167 25 8.33333 25C9.255 25 10 25.7467 10 26.6667V31.6667ZM16.6667 31.6667C16.6667 32.5867 15.9217 33.3333 15 33.3333C14.0783 33.3333 13.3333 32.5867 13.3333 31.6667V20C13.3333 19.08 14.0783 18.3333 15 18.3333C15.9217 18.3333 16.6667 19.08 16.6667 20V31.6667Z" fill="#00AA72"/>
</svg>
