<svg width="24" height="24" viewBox="0 0 24 24" fill="none" xmlns="http://www.w3.org/2000/svg">
<path d="M7.5 1C2.857 1 1 2.857 1 7.5C1 12.143 2.857 14 7.5 14C12.143 14 14 12.143 14 7.5C14 2.857 12.143 1 7.5 1ZM8.5 11.837V12C8.5 12.552 8.052 13 7.5 13C6.948 13 6.5 12.552 6.5 12V11.923C5.662 11.652 4.974 11.004 4.67 10.144C4.486 9.623 4.759 9.052 5.28 8.868C5.801 8.689 6.372 8.957 6.556 9.478C6.68 9.828 7.012 10.062 7.383 10.062C7.866 10.062 8.259 9.668 8.259 9.185C8.259 8.758 7.925 8.341 7.495 8.331C6.042 8.331 4.861 7.149 4.861 5.696C4.861 4.596 5.54 3.653 6.5 3.26V2.999C6.5 2.447 6.948 1.999 7.5 1.999C8.052 1.999 8.5 2.447 8.5 2.999V3.268C8.862 3.418 9.193 3.642 9.459 3.94C9.827 4.351 9.792 4.984 9.38 5.352C8.967 5.719 8.335 5.685 7.968 5.272C7.846 5.136 7.678 5.061 7.495 5.061C7.145 5.061 6.861 5.346 6.861 5.696C6.859 6.072 7.19 6.37 7.555 6.313C9.071 6.403 10.259 7.665 10.259 9.184C10.259 10.374 9.532 11.398 8.5 11.835V11.837ZM22.8 20.1C22.031 21.125 21.123 22.033 20.1 22.8C19.745 23.067 19.256 23.067 18.901 22.8C17.877 22.032 16.968 21.124 16.2 20.099C15.973 19.796 15.936 19.391 16.106 19.052C16.276 18.713 16.622 18.499 17.001 18.499H18.001V2.5C18.001 1.672 18.672 1 19.501 1C20.33 1 21.001 1.672 21.001 2.5V18.5H22.001C22.38 18.5 22.726 18.714 22.896 19.053C23.065 19.392 23.029 19.797 22.801 20.1H22.8ZM14 20.012C13.91 22.271 11.162 22.99 7.5 23C3.852 22.99 1.09 22.266 1 20.012C1.047 18.812 1.029 18.598 1.029 18.598C2.449 19.503 4.606 19.967 7.505 19.974C10.409 19.966 12.569 19.499 13.988 18.587C13.988 18.587 13.978 19.426 14 20.012ZM14 15.037C13.91 17.296 11.162 18.015 7.5 18.025C3.852 18.015 1.09 17.291 1 15.037C1.045 13.873 1.043 15.827 1.03 13.81C2.439 15.274 4.586 16 7.5 16C10.414 16 12.578 15.267 13.987 13.79C13.981 16.129 13.978 14.466 14 15.037Z" fill="#00AA72"/>
</svg>
