<svg width="41" height="40" viewBox="0 0 41 40" fill="none" xmlns="http://www.w3.org/2000/svg">
<g clip-path="url(#clip0_9597_3966)">
<path d="M27.2323 29.3133L26.1407 34.64C25.5018 37.7567 22.6967 40 19.4406 40H8.54313V28.3333C8.54313 27.4117 7.7778 26.6667 6.8348 26.6667C5.8918 26.6667 5.12646 27.4117 5.12646 28.3333V40C2.29576 40 0.00146484 37.7617 0.00146484 35V28.3333C0.00146484 25.5717 2.29576 23.3333 5.12646 23.3333H7.6138L11.3602 16.4183C11.6677 15.8317 12.0913 15.395 12.5253 15.22C12.8874 15.0733 13.2547 15 13.6186 15C14.7837 15 15.7438 15.7433 16.0649 16.8933C16.1025 17.0267 16.1503 17.335 16.053 17.8917L15.0621 23.3333H22.2081C25.442 23.3333 27.8678 26.22 27.234 29.3133H27.2323ZM38.4373 15.8333C38.4373 13.9483 38.0068 12.16 37.238 10.555L38.7738 9.595C39.5682 9.09833 39.8005 8.06833 39.2914 7.29333C38.7823 6.51833 37.7266 6.29333 36.9322 6.78833L35.3913 7.75C33.3874 5.44833 30.5465 3.86167 27.3331 3.44167V1.66667C27.3331 0.746667 26.5678 0 25.6248 0C24.6818 0 23.9164 0.746667 23.9164 1.66667V3.445C20.7645 3.85333 17.8997 5.38333 15.8463 7.755L14.319 6.79667C13.5263 6.29833 12.4689 6.52167 11.9598 7.29667L11.9495 7.31167C11.4422 8.08 11.6643 9.10167 12.4467 9.605L18.9947 13.8117C19.7532 14.2983 20.7543 14.0467 21.2173 13.285C22.2491 11.5917 24.2752 10.5433 26.5097 10.9083C28.5665 11.2433 30.2714 12.865 30.6575 14.8633C31.0983 17.145 29.9485 19.2183 28.1018 20.2133C27.3673 20.6083 27.2989 21.59 27.9225 22.1383C28.2402 22.4183 28.5392 22.7233 28.8142 23.0517C29.8375 24.2683 30.4713 25.7167 30.678 27.2333C30.7258 27.2583 30.7515 27.2717 30.7515 27.2717C32.5452 26.5 34.1237 25.3383 35.3759 23.9033L36.9339 24.8767C37.7283 25.3733 38.784 25.1467 39.2931 24.3717C39.8022 23.5967 39.5699 22.5667 38.7755 22.07L37.2278 21.1033C38.005 19.495 38.4373 17.7083 38.4373 15.8333Z" fill="#00AA72"/>
</g>
<defs>
<clipPath id="clip0_9597_3966">
<rect width="41" height="40" fill="white"/>
</clipPath>
</defs>
</svg>
