<svg width="40" height="40" viewBox="0 0 40 40" fill="none" xmlns="http://www.w3.org/2000/svg">
<path d="M37.9779 30.0075C37.9779 29.2414 37.8277 28.5169 37.6099 27.8208L40 26.4618L38.3155 23.5757L35.9338 24.9296C34.9127 23.8438 33.5826 23.056 32.0702 22.7146V20.015H28.6944V22.7146C27.182 23.056 25.8503 23.8438 24.8308 24.9296L22.4492 23.5757L20.7646 26.4618L23.1547 27.8208C22.937 28.5169 22.7867 29.2414 22.7867 30.0075C22.7867 30.7736 22.937 31.498 23.1547 32.1942L20.7646 33.5532L22.4492 36.4393L24.8308 35.0854C25.852 36.1712 27.182 36.9589 28.6944 37.3004V40H32.0702V37.3004C33.5826 36.9589 34.9143 36.1712 35.9338 35.0854L38.3155 36.4393L40 33.5532L37.6099 32.1942C37.8277 31.498 37.9779 30.7736 37.9779 30.0075ZM30.3823 32.5056C28.9864 32.5056 27.8505 31.3848 27.8505 30.0075C27.8505 28.6302 28.9864 27.5094 30.3823 27.5094C31.7782 27.5094 32.9142 28.6302 32.9142 30.0075C32.9142 31.3848 31.7782 32.5056 30.3823 32.5056ZM27.0065 11.3848V17.1205C21.1849 18.601 16.8791 23.8005 16.8791 30.0075C16.8791 30.209 16.901 30.4039 16.9094 30.602L15.181 31.603L15.1675 18.0931L27.0065 11.3848ZM0 7.77917V7.61595L13.5032 0L26.9424 7.57932L13.3564 15.2769L0 7.77917ZM11.8052 31.6163L6.75669 28.7701L0 24.9596V11.6113L11.7917 18.2313L11.8052 31.6163Z" fill="#00AA72"/>
</svg>
