<svg width="50" height="50" viewBox="0 0 50 50" fill="none" xmlns="http://www.w3.org/2000/svg">
<g clip-path="url(#clip0_9597_4322)">
<path d="M21.875 5.20825C21.875 3.48325 23.275 2.08325 25 2.08325C26.725 2.08325 28.125 3.48325 28.125 5.20825C28.125 6.93325 26.725 8.33325 25 8.33325C23.275 8.33325 21.875 6.93325 21.875 5.20825ZM6.25 27.0833C6.25 25.3583 4.85 23.9583 3.125 23.9583C1.4 23.9583 0 25.3583 0 27.0833C0 28.8083 1.4 30.2083 3.125 30.2083C4.85 30.2083 6.25 28.8083 6.25 27.0833ZM50 27.0833C50 25.3583 48.6 23.9583 46.875 23.9583C45.15 23.9583 43.75 25.3583 43.75 27.0833C43.75 28.8083 45.15 30.2083 46.875 30.2083C48.6 30.2083 50 28.8083 50 27.0833ZM12.5 11.4583C12.5 9.73325 11.1 8.33325 9.375 8.33325C7.65 8.33325 6.25 9.73325 6.25 11.4583C6.25 13.1833 7.65 14.5833 9.375 14.5833C11.1 14.5833 12.5 13.1833 12.5 11.4583ZM43.75 42.7083C43.75 40.9832 42.35 39.5833 40.625 39.5833C38.9 39.5833 37.5 40.9832 37.5 42.7083C37.5 44.4333 38.9 45.8333 40.625 45.8333C42.35 45.8333 43.75 44.4333 43.75 42.7083ZM9.375 39.5833C7.65 39.5833 6.25 40.9832 6.25 42.7083C6.25 44.4333 7.65 45.8333 9.375 45.8333C11.1 45.8333 12.5 44.4333 12.5 42.7083C12.5 40.9832 11.1 39.5833 9.375 39.5833ZM40.625 8.33325C38.9 8.33325 37.5 9.73325 37.5 11.4583C37.5 13.1833 38.9 14.5833 40.625 14.5833C42.35 14.5833 43.75 13.1833 43.75 11.4583C43.75 9.73325 42.35 8.33325 40.625 8.33325ZM27.0833 12.6666V27.0833C27.0833 28.2333 26.1521 29.1666 25 29.1666C23.8479 29.1666 22.9167 28.2333 22.9167 27.0833V12.6666C15.8625 13.6833 10.4167 19.752 10.4167 27.0833C10.4167 35.1249 16.9604 41.6666 25 41.6666C33.0396 41.6666 39.5833 35.1249 39.5833 27.0833C39.5833 19.752 34.1375 13.6833 27.0833 12.6666Z" fill="#00AA72"/>
</g>
<defs>
<clipPath id="clip0_9597_4322">
<rect width="50" height="50" fill="white"/>
</clipPath>
</defs>
</svg>
