<svg width="40" height="40" viewBox="0 0 40 40" fill="none" xmlns="http://www.w3.org/2000/svg">
<g clip-path="url(#clip0_9597_4328)">
<path d="M25.8333 15H23.3333V10H25.8333V15ZM24.0667 24.8C25.4717 23.1483 25.27 20.67 23.6167 19.265C22.1267 18 19.9333 18.0217 18.47 19.3183L11.5767 25.4867C10.89 26.1017 9.83667 26.0433 9.22333 25.3567C8.60833 24.67 8.66667 23.6167 9.35333 23.0033L11.6667 20.9333V10.625L5.69167 15.8533C2.075 19.0183 0 23.59 0 28.3967V38.075C0 39.14 0.863333 40 1.92667 40H14.74C15.805 40 16.6667 39.1383 16.6667 38.075C16.6667 36.3767 17.185 34.7183 18.1533 33.3233L24.065 24.8033L24.0667 24.8ZM29.1683 10V15H31.6683V10H29.1683ZM26.8267 26.6667H40.0017V29.1667C40.0017 33.3083 36.6433 36.6667 32.5017 36.6667H20.0017C20.0017 36.6667 26.79 26.715 26.8267 26.6667ZM28.335 30H26.6683C25.7483 30 25.0017 30.7467 25.0017 31.6667C25.0017 32.5867 25.7483 33.3333 26.6683 33.3333H28.335C29.255 33.3333 30.0017 32.5867 30.0017 31.6667C30.0017 30.7467 29.255 30 28.335 30ZM33.3333 0H21.6667C17.985 0 15 2.985 15 6.66667V17.9517L16.26 16.825C17.3067 15.8667 18.6267 15.3067 20 15.11V10C19.08 10 18.3333 9.25333 18.3333 8.33333C18.3333 7.72333 18.6667 6.93833 19.2017 6.64667L26.19 2.835C27.0067 2.39 27.995 2.39 28.8117 2.835L35.7983 6.64667C36.3333 6.93833 36.6667 7.72333 36.6667 8.33333C36.6667 9.25333 35.92 10 35 10V15C35.92 15 36.6667 15.7467 36.6667 16.6667C36.6667 17.5867 35.92 18.3333 35 18.3333H27.1667C28.11 19.8 28.5267 21.59 28.235 23.3333H40V6.66667C40 2.985 37.015 0 33.3333 0Z" fill="#00AA72"/>
</g>
<defs>
<clipPath id="clip0_9597_4328">
<rect width="40" height="40" fill="white"/>
</clipPath>
</defs>
</svg>
