<svg width="28" height="28" viewBox="0 0 28 28" fill="none" xmlns="http://www.w3.org/2000/svg">
<path d="M17.5 19.3025V1.57383C15.7826 0.578666 13.7946 0 11.6666 0C5.22316 0 0 5.22316 0 11.6666C0 18.1101 5.22316 23.3333 11.6666 23.3333C11.7693 23.3333 11.8685 23.3205 11.9711 23.3181C11.4088 22.036 11.6433 20.4843 12.6921 19.4366C13.9673 18.1603 16.1676 18.1066 17.5 19.3025ZM11.6666 18.6666C11.0226 18.6666 10.5 18.144 10.5 17.5H10.1873C8.94132 17.5 7.78049 16.8303 7.15632 15.7511C6.83432 15.1935 7.02449 14.4806 7.58215 14.1575C8.13865 13.8343 8.85382 14.0245 9.17582 14.5833C9.38348 14.9426 9.77198 15.1666 10.1873 15.1666H12.8333C13.4761 15.1666 14 14.644 14 14C14 13.559 13.6838 13.1856 13.2486 13.1133L9.69965 12.5218C8.13515 12.2616 6.99882 10.92 6.99882 9.33332C6.99882 7.40365 8.56915 5.83332 10.4988 5.83332C10.4988 5.18932 11.0215 4.66666 11.6655 4.66666C12.3095 4.66666 12.8321 5.18932 12.8321 5.83332H13.1448C14.3908 5.83332 15.5516 6.50299 16.1758 7.58215C16.499 8.13982 16.3076 8.85265 15.7511 9.17582C15.1911 9.49898 14.4795 9.30765 14.1563 8.74999C13.9486 8.39065 13.5601 8.16665 13.1448 8.16665H10.4988C9.85598 8.16665 9.33215 8.68932 9.33215 9.33332C9.33215 9.77432 9.64832 10.1476 10.0835 10.22L13.6325 10.8115C15.197 11.0716 16.3333 12.4133 16.3333 14C16.3333 15.9296 14.763 17.5 12.8333 17.5C12.8333 18.144 12.3106 18.6666 11.6666 18.6666ZM27.6581 22.8526L23.534 26.978C22.8515 27.6593 21.9543 28.0011 21.0583 28.0011C20.1623 28.0011 19.2663 27.6605 18.5838 26.9791L14.3418 22.7371C13.8856 22.281 13.8856 21.5436 14.3418 21.0875C14.798 20.6313 15.5353 20.6313 15.9915 21.0875L19.8333 24.9293V1.16666C19.8333 0.522666 20.3548 0 21 0C21.6451 0 22.1666 0.522666 22.1666 1.16666V25.0448L26.0085 21.203C26.4646 20.7468 27.202 20.7468 27.6581 21.203C28.1143 21.658 28.1143 22.3965 27.6581 22.8526Z" fill="#00AA72"/>
</svg>
