<svg width="24" height="24" viewBox="0 0 24 24" fill="none" xmlns="http://www.w3.org/2000/svg">
<g clip-path="url(#clip0_9597_4507)">
<path d="M2.70168 10.115L3.15268 10.374C3.05068 10.917 2.99968 11.462 2.99968 12C2.99968 12.538 3.05168 13.083 3.15268 13.626L2.70267 13.885C2.00768 14.284 1.50968 14.931 1.30168 15.704C1.09268 16.477 1.19768 17.287 1.59668 17.98C1.99568 18.675 2.64268 19.173 3.41568 19.381C4.19068 19.59 4.99867 19.485 5.69168 19.086L6.14168 18.827C6.98368 19.547 7.95267 20.106 8.99867 20.476V20.998C8.99867 22.652 10.3447 23.998 11.9987 23.998C13.6527 23.998 14.9987 22.652 14.9987 20.998V20.476C16.0457 20.106 17.0147 19.547 17.8557 18.827L18.3057 19.086C18.9987 19.483 19.8077 19.589 20.5827 19.381C21.3557 19.173 22.0017 18.675 22.4007 17.981C22.8007 17.287 22.9057 16.478 22.6967 15.704C22.4887 14.931 21.9907 14.285 21.2957 13.885L20.8447 13.625C20.9467 13.081 20.9977 12.537 20.9977 12C20.9977 11.463 20.9467 10.919 20.8447 10.375L21.2957 10.115C21.9907 9.71505 22.4877 9.06905 22.6967 8.29605C22.9057 7.52205 22.8007 6.71305 22.4017 6.02005C22.0027 5.32505 21.3567 4.82705 20.5827 4.61905C19.8117 4.41105 19.0007 4.51505 18.3057 4.91405L17.8557 5.17305C17.0147 4.45205 16.0457 3.89405 14.9987 3.52405V3.00205C14.9987 1.34805 13.6527 0.00204849 11.9987 0.00204849C10.3447 0.00204849 8.99867 1.34805 8.99867 3.00205V3.52405C7.95167 3.89405 6.98268 4.45405 6.14168 5.17305L5.69268 4.91405C4.99768 4.51605 4.18768 4.41105 3.41568 4.61905C2.64268 4.82705 1.99568 5.32505 1.59668 6.01905C1.19768 6.71305 1.09268 7.52305 1.30168 8.29605C1.50968 9.06905 2.00768 9.71605 2.70168 10.115ZM8.29268 12.707C8.48767 12.512 8.74368 12.414 8.99967 12.414C9.25567 12.414 9.51167 12.512 9.70667 12.707L10.9997 14L10.9997 8.00005C10.9997 7.44705 11.4477 7.00005 11.9997 7.00005C12.5517 7.00005 12.9997 7.44705 12.9997 8.00005L12.9997 14L14.2927 12.707C14.6837 12.316 15.3157 12.316 15.7067 12.707C16.0977 13.098 16.0977 13.73 15.7067 14.121L13.3617 16.466C12.6347 17.195 11.3647 17.195 10.6357 16.466L8.29167 14.121C7.90067 13.73 7.90067 13.098 8.29167 12.707H8.29268Z" fill="#00AA72"/>
</g>
<defs>
<clipPath id="clip0_9597_4507">
<rect width="24" height="24" fill="white" transform="matrix(-1 0 0 -1 24 24)"/>
</clipPath>
</defs>
</svg>
