<svg width="40" height="40" viewBox="0 0 40 40" fill="none" xmlns="http://www.w3.org/2000/svg">
<path d="M20 40C31.0457 40 40 31.0457 40 20C40 8.9543 31.0457 0 20 0C8.9543 0 0 8.9543 0 20C0.0119531 31.0408 8.95922 39.988 20 40ZM18.3334 10C18.3334 9.07953 19.0795 8.33336 20 8.33336C20.9205 8.33336 21.6666 9.07953 21.6666 10V23.3334C21.6666 24.2538 20.9205 25 20 25C19.0795 25 18.3334 24.2538 18.3334 23.3334V10ZM20 30C20.9205 30 21.6666 30.7462 21.6666 31.6666C21.6666 32.5871 20.9205 33.3333 20 33.3333C19.0795 33.3333 18.3334 32.5871 18.3334 31.6666C18.3334 30.7462 19.0795 30 20 30Z" fill="#00AA72"/>
</svg>
