<svg width="40" height="40" viewBox="0 0 40 40" fill="none" xmlns="http://www.w3.org/2000/svg">
<g clip-path="url(#clip0_9597_4673)">
<path d="M20 20C25.5233 20 30 15.5233 30 10C30 4.47667 25.5233 0 20 0C14.4767 0 10 4.47667 10 10C10 15.5233 14.4767 20 20 20ZM14.5367 6.77667C14.79 4.97667 16.3833 3.66667 18.2017 3.66667H18.6683V3C18.6683 2.26333 19.265 1.66667 20.0017 1.66667C20.7383 1.66667 21.335 2.26333 21.335 3V3.66667H22.01C23.195 3.66667 24.2567 4.20667 24.96 5.055C25.6567 5.895 25.065 7.165 23.9733 7.165C23.595 7.165 23.1233 6.98667 22.8667 6.70833C22.6533 6.47667 22.3467 6.33167 22.0083 6.33167H18.1633C17.7 6.33167 17.2767 6.64167 17.185 7.095C17.0783 7.625 17.4283 8.12333 17.9333 8.225L22.5867 9.15667C24.44 9.52667 25.735 11.2933 25.4617 13.2217C25.2067 15.0217 23.615 16.33 21.7967 16.33H21.33V16.9967C21.33 17.7333 20.7333 18.33 19.9967 18.33C19.26 18.33 18.6633 17.7333 18.6633 16.9967V16.33H17.945C16.76 16.33 15.6983 15.7883 14.995 14.9417C14.2983 14.1017 14.89 12.8317 15.9817 12.8317C16.36 12.8317 16.8317 13.01 17.0883 13.2883C17.3017 13.52 17.6083 13.665 17.9467 13.665H21.8367C22.3 13.665 22.7233 13.3533 22.8133 12.8983C22.9183 12.3683 22.57 11.8733 22.0617 11.77L17.41 10.8383C15.5567 10.4667 14.2633 8.70333 14.535 6.77333L14.5367 6.77667ZM21.6783 27.0917L29.6417 34.2233L24.0067 38.6217C22.8617 39.515 21.4517 40 20 40C18.5483 40 17.1383 39.515 15.9933 38.6217L11.0267 34.745C9.855 33.83 8.41167 33.3333 6.925 33.3333H1.66667C0.746667 33.3333 0 32.5867 0 31.6667V20C0 19.08 0.746667 18.3333 1.66667 18.3333H7.535C8.18333 18.3333 8.82667 18.2667 9.45833 18.1417C10.4733 19.4533 11.725 20.5667 13.1517 21.4233C11.4333 23.2067 11.175 25.975 12.5633 27.8967C13.43 29.1033 14.5017 30 16.4517 30C17.7717 30 19.23 29.48 20.1217 28.5833L21.68 27.0917H21.6783ZM20 23.3333C20.315 23.3333 20.6217 23.3083 20.9317 23.2867L17.8167 26.1767C17.4717 26.5233 16.995 26.7017 16.5033 26.66C16.0067 26.62 15.57 26.3683 15.2717 25.9517C14.815 25.3183 14.955 24.3267 15.5733 23.7067L16.4567 22.84C17.5867 23.1517 18.7717 23.3317 20.0017 23.3317L20 23.3333ZM40 20V31.6667C40 32.5867 39.2533 33.3333 38.3333 33.3333H33.6433L22.2483 23.13C25.6267 22.555 28.5667 20.715 30.57 18.1067C31.2417 18.2467 31.925 18.335 32.615 18.335H38.3333C39.2533 18.335 40 19.0817 40 20.0017V20Z" fill="#00AA72"/>
</g>
<defs>
<clipPath id="clip0_9597_4673">
<rect width="40" height="40" fill="white"/>
</clipPath>
</defs>
</svg>
