<svg width="34" height="41" viewBox="0 0 34 41" fill="none" xmlns="http://www.w3.org/2000/svg">
<path d="M23.7649 34.2024C23.7038 34.7748 23.6464 35.351 23.5648 35.9049C23.2147 38.3133 21.351 40.1899 18.9278 40.5771C18.1905 40.6938 17.4309 40.755 16.6732 40.755C15.9007 40.755 15.1226 40.692 14.3575 40.566C11.9399 40.1695 10.078 38.2855 9.7242 35.8771C9.64639 35.3491 9.58897 34.7674 9.53154 34.1894C11.2804 34.6377 13.9796 35.1954 16.6732 35.1954C19.3335 35.1954 22.005 34.6488 23.7649 34.1987V34.2024ZM33.3465 15.7469C33.3465 24.7246 28.5909 28.5149 24.6023 30.1119C24.5634 30.1248 20.4766 31.4939 16.6732 31.4939C12.7532 31.468 8.88869 30.1637 8.71084 30.0971C4.73705 28.4946 0 24.7042 0 15.7469C0 5.7393 6.07647 0 16.6732 0C27.27 0 33.3465 5.7393 33.3465 15.7469ZM22.4681 20.1413C22.4681 16.9474 19.8708 14.3501 16.588 14.3501H16.5843L16.5009 14.3538C15.6858 14.2649 15.0578 13.5702 15.0578 12.7384C15.0578 11.8436 15.7877 11.1155 16.6825 11.1155C17.3698 11.1155 17.9849 11.5509 18.2146 12.1974C18.5573 13.1626 19.6133 13.6702 20.5785 13.3275C21.5437 12.9866 22.0494 11.9288 21.7086 10.9636C21.1732 9.44446 19.982 8.29401 18.5277 7.75306V7.41033C18.5277 6.3877 17.6977 5.55775 16.6751 5.55775C15.6525 5.55775 14.8225 6.3877 14.8225 7.41033V7.76417C12.8032 8.52188 11.3545 10.4578 11.3545 12.7384C11.3545 15.5543 13.5553 17.8904 16.3639 18.059C17.6162 17.9145 18.7741 18.8556 18.7648 20.1413C18.7648 21.2936 17.8385 22.231 16.6992 22.231C15.7155 22.231 14.741 21.5696 14.4353 20.6933C14.0982 19.7281 13.044 19.2205 12.0751 19.5559C11.1099 19.893 10.6005 20.949 10.9376 21.916C11.5842 23.7649 13.1737 25.1655 15.0596 25.6953V25.9362C15.0596 26.9588 15.8896 27.7887 16.9122 27.7887C17.9348 27.7887 18.7648 26.9588 18.7648 25.9362V25.536C20.9268 24.6986 22.4681 22.6034 22.4681 20.1413Z" fill="#00AA72"/>
</svg>
