<svg width="33" height="33" viewBox="0 0 33 33" fill="none" xmlns="http://www.w3.org/2000/svg">
<g clip-path="url(#clip0_9755_4556)">
<path d="M0.138875 5.5C0.77825 2.36637 3.55575 0 6.875 0H26.125C29.4443 0 32.2217 2.36637 32.8611 5.5H0.138875ZM33 8.25V26.125C33 29.9159 29.9159 33 26.125 33H6.875C3.08413 33 0 29.9159 0 26.125V8.25H33ZM4.125 13.75C4.125 14.509 4.73962 15.125 5.5 15.125H12.375C13.1354 15.125 13.75 14.509 13.75 13.75C13.75 12.991 13.1354 12.375 12.375 12.375H5.5C4.73962 12.375 4.125 12.991 4.125 13.75ZM20.625 27.5C20.625 26.7396 20.0104 26.125 19.25 26.125H5.5C4.73962 26.125 4.125 26.7396 4.125 27.5C4.125 28.2604 4.73962 28.875 5.5 28.875H19.25C20.0104 28.875 20.625 28.2604 20.625 27.5ZM20.625 20.625C20.625 19.8646 20.0104 19.25 19.25 19.25H9.625C8.86462 19.25 8.25 19.8646 8.25 20.625C8.25 21.3854 8.86462 22 9.625 22H19.25C20.0104 22 20.625 21.3854 20.625 20.625ZM28.875 27.5C28.875 26.4853 28.3181 25.608 27.5 25.1309V16.5C27.5 14.2257 25.6493 12.375 23.375 12.375H21.6191C21.1434 11.5569 20.2661 11 19.25 11C17.7306 11 16.5 12.2306 16.5 13.75C16.5 15.2694 17.7306 16.5 19.25 16.5C20.2647 16.5 21.142 15.9431 21.6191 15.125H23.375C24.134 15.125 24.75 15.7424 24.75 16.5V25.1309C23.9319 25.6066 23.375 26.4839 23.375 27.5C23.375 29.0194 24.6056 30.25 26.125 30.25C27.6444 30.25 28.875 29.0194 28.875 27.5Z" fill="#00AA72"/>
</g>
<defs>
<clipPath id="clip0_9755_4556">
<rect width="33" height="33" fill="white"/>
</clipPath>
</defs>
</svg>
