<svg width="40" height="40" viewBox="0 0 40 40" fill="none" xmlns="http://www.w3.org/2000/svg">
<g clip-path="url(#clip0_9597_4675)">
<path d="M24.1717 20.565L23.3083 21.4383V5C23.3083 2.23833 25.5467 0 28.3083 0H34.975C37.7367 0 39.975 2.23833 39.975 5V18.3333C39.975 20.6667 38.37 22.61 36.2083 23.1617C35.7217 21.75 34.8417 20.5133 33.5883 19.6233C30.7167 17.5817 26.7633 17.9767 24.1733 20.5633L24.1717 20.565ZM36.64 26.6667H36.51C36.3233 27.81 35.9 28.9117 35.1983 29.8483L31.1233 33.875C30.475 34.5233 29.4217 34.51 28.79 33.845C28.1817 33.205 28.1933 32.1967 28.8167 31.5717L32.53 27.8483C33.8217 26.1267 33.4833 23.6383 31.655 22.3383C30.085 21.2233 27.9017 21.5467 26.54 22.9083L21.1183 28.3867C19.8683 29.6367 19.165 31.3333 19.165 33.1V39.96L19.14 39.9967H36.035L36.5833 39.4483C38.7717 37.26 40 34.2933 40 31.1983V25.7217C39.01 26.305 37.8717 26.6633 36.64 26.6633V26.6667ZM15.8333 40H8.33333C3.73833 40 0 36.2617 0 31.6667V8.33333C0 3.73833 3.73833 0 8.33333 0H21.6833C20.625 1.39667 19.9733 3.11667 19.9733 5V6.66667H8.33333C7.41333 6.66667 6.66667 7.41167 6.66667 8.33333V11.6667C6.66667 12.5883 7.41333 13.3333 8.33333 13.3333H19.9733V24.8083L18.7617 26.0317C17.63 27.1633 16.81 28.52 16.3283 30H14.9983C14.0783 30 13.3317 30.745 13.3317 31.6667C13.3317 32.5883 14.0783 33.3333 14.9983 33.3333H15.8317V40H15.8333ZM13.3333 18.3333C13.3333 19.255 14.08 20 15 20H16.6667C17.5867 20 18.3333 19.255 18.3333 18.3333C18.3333 17.4117 17.5867 16.6667 16.6667 16.6667H15C14.08 16.6667 13.3333 17.4117 13.3333 18.3333ZM13.3333 25C13.3333 25.9217 14.08 26.6667 15 26.6667H16.6667C17.5867 26.6667 18.3333 25.9217 18.3333 25C18.3333 24.0783 17.5867 23.3333 16.6667 23.3333H15C14.08 23.3333 13.3333 24.0783 13.3333 25ZM11.6667 31.6667C11.6667 30.745 10.92 30 10 30H8.33333C7.41333 30 6.66667 30.745 6.66667 31.6667C6.66667 32.5883 7.41333 33.3333 8.33333 33.3333H10C10.92 33.3333 11.6667 32.5883 11.6667 31.6667ZM11.6667 25C11.6667 24.0783 10.92 23.3333 10 23.3333H8.33333C7.41333 23.3333 6.66667 24.0783 6.66667 25C6.66667 25.9217 7.41333 26.6667 8.33333 26.6667H10C10.92 26.6667 11.6667 25.9217 11.6667 25ZM11.6667 18.3333C11.6667 17.4117 10.92 16.6667 10 16.6667H8.33333C7.41333 16.6667 6.66667 17.4117 6.66667 18.3333C6.66667 19.255 7.41333 20 8.33333 20H10C10.92 20 11.6667 19.255 11.6667 18.3333Z" fill="#00AA72"/>
</g>
<defs>
<clipPath id="clip0_9597_4675">
<rect width="40" height="40" fill="white"/>
</clipPath>
</defs>
</svg>
