<svg width="40" height="40" viewBox="0 0 40 40" fill="none" xmlns="http://www.w3.org/2000/svg">
<g clip-path="url(#clip0_9755_4563)">
<path d="M39.4122 30.6346L33.5955 24.818C33.7205 24.003 33.6939 23.1896 33.5122 22.388C35.2072 21.038 36.7589 19.0447 36.6472 16.6797C36.6522 15.5697 36.3772 14.4813 35.8505 13.533C35.3422 12.4047 34.2672 11.743 33.5139 10.943C33.7605 9.85632 33.7239 8.74465 33.4072 7.64132C32.8005 5.52799 31.1105 3.84132 28.9972 3.23799C27.8905 2.92132 26.7789 2.88632 25.6972 3.13299C24.8888 2.38965 24.2322 1.30632 23.0972 0.797988C21.1755 -0.265345 18.7872 -0.265345 16.8638 0.797988C15.7322 1.30632 15.0772 2.38299 14.2655 3.13132C13.1972 2.88965 12.0555 2.92632 10.9672 3.23632C8.85218 3.83965 7.16218 5.52799 6.55552 7.63965C6.23718 8.74632 6.20218 9.85799 6.44885 10.943C4.75718 12.2947 3.20218 14.2863 3.31385 16.653C3.20385 19.048 4.74218 21.023 6.44885 22.3863C6.26385 23.1996 6.23718 24.028 6.36885 24.8563L0.58885 30.6346C0.267184 30.958 0.0621837 31.3863 0.0121837 31.843C-0.109483 32.9547 0.69385 33.958 1.80552 34.0796L5.50718 34.4896L5.91552 38.1763C5.99385 38.958 6.52218 39.6263 7.25885 39.8813C7.99885 40.1463 8.82718 39.9546 9.36385 39.4046L16.4955 32.273C17.4822 33.0213 18.7672 33.3196 19.9755 33.3346C21.1938 33.3196 22.4922 33.018 23.4822 32.2563L30.6322 39.4063C31.1705 39.9563 31.9989 40.148 32.7372 39.883C33.4739 39.6263 34.0038 38.9596 34.0805 38.178L34.4889 34.4913L38.1905 34.0813C39.3022 33.958 40.1055 32.9563 39.9838 31.8446C39.9338 31.3896 39.7288 30.9596 39.4072 30.6363L39.4122 30.6346ZM20.6755 28.1613C20.2588 28.3913 19.7022 28.3913 19.2872 28.1613C19.0305 28.0196 18.8288 27.838 18.6905 27.623C17.7038 26.0946 16.0205 25.1996 14.2772 25.1996C13.6155 25.153 13.0089 25.4913 12.3389 25.2863C11.8839 25.1563 11.4905 24.7647 11.3605 24.3097C11.2789 24.0247 11.2672 23.7513 11.3255 23.4963C11.8055 21.3846 10.8789 19.163 9.02052 17.9663C8.60218 17.688 8.30052 17.208 8.31385 16.653C8.30052 16.1263 8.61218 15.6297 9.02052 15.3647C10.8789 14.168 11.8039 11.9463 11.3239 9.83299C11.2655 9.57965 11.2789 9.30632 11.3605 9.01965C11.4905 8.56632 11.8839 8.17465 12.3405 8.04299C12.6288 7.96132 12.9005 7.94799 13.1589 8.00632C15.2705 8.48299 17.4922 7.56132 18.6889 5.70965C18.8288 5.49299 19.0305 5.31132 19.2838 5.16965C19.6988 4.93799 20.2555 4.93799 20.6722 5.16965C20.9288 5.31132 21.1305 5.49299 21.2688 5.70799C22.4655 7.56132 24.6889 8.48632 26.7989 8.00632C27.0555 7.94799 27.3305 7.96132 27.6205 8.04299C28.0755 8.17299 28.4689 8.56465 28.5989 9.01965C28.6805 9.30465 28.6922 9.57799 28.6355 9.83132C28.1539 11.943 29.0805 14.1663 30.9389 15.363C31.3572 15.6413 31.6588 16.1213 31.6455 16.6763C31.6588 17.203 31.3472 17.6997 30.9389 17.9647C29.0805 19.1613 28.1539 21.3846 28.6355 23.493C28.6938 23.7496 28.6805 24.023 28.5989 24.3097C28.4689 24.763 28.0755 25.1563 27.6205 25.2846C27.3339 25.3663 27.0572 25.3796 26.8005 25.3213C24.6889 24.8463 22.4672 25.7663 21.2705 27.618C21.1305 27.8346 20.9288 28.0163 20.6755 28.158V28.1613ZM22.4872 21.6663H15.8355C14.4555 21.6663 13.3355 20.5463 13.3355 19.1663V15.833C13.3355 14.453 14.4555 13.333 15.8355 13.333H16.4622L19.1688 9.92299C19.4322 9.39299 19.8288 9.17132 20.3438 9.16632C20.9505 9.16632 21.4488 9.56299 21.6155 10.1763C21.6355 10.248 21.6605 10.4113 21.6089 10.7097L20.7655 13.3347H24.5022C25.7205 13.3347 26.7005 14.3363 26.6739 15.5547C26.6705 15.7397 26.6422 15.9247 26.5905 16.103L25.6922 19.2497C25.2838 20.6813 23.9755 21.668 22.4872 21.668V21.6663Z" fill="#00AA72"/>
</g>
<defs>
<clipPath id="clip0_9755_4563">
<rect width="40" height="40" fill="white"/>
</clipPath>
</defs>
</svg>
