<svg width="40" height="40" viewBox="0 0 40 40" fill="none" xmlns="http://www.w3.org/2000/svg">
<path d="M10.0013 21.6665C4.04964 21.6665 1.66797 24.0482 1.66797 29.9998C1.66797 35.9515 4.04964 38.3332 10.0013 38.3332C15.953 38.3332 18.3346 35.9515 18.3346 29.9998C18.3346 24.0482 15.953 21.6665 10.0013 21.6665ZM13.1513 35.8332C12.3296 35.8315 11.768 35.1382 11.808 34.3332H8.19464C8.23297 35.1382 7.66464 35.8298 6.8463 35.8298C6.11297 35.8265 5.51964 35.2382 5.51797 34.5048C5.51797 34.3098 5.54464 32.5165 6.64297 29.3848C7.68797 26.4048 8.74297 24.9498 8.94464 24.6882C9.44964 24.0298 10.5546 24.0298 11.0596 24.6882C11.2613 24.9498 12.3146 26.4048 13.3613 29.3832C14.4596 32.5148 14.4863 34.3098 14.4863 34.5048C14.4863 35.2398 13.8863 35.8332 13.1513 35.8332ZM10.843 30.2665C11.023 30.7815 11.163 31.2398 11.2813 31.6665H8.71797C8.83797 31.2398 8.9763 30.7815 9.1563 30.2665C9.44797 29.4332 9.73797 28.7432 9.99797 28.1848C10.2596 28.7432 10.548 29.4332 10.8396 30.2648L10.843 30.2665ZM29.5896 28.3332H28.1246C28.168 27.7898 28.1713 27.2082 28.228 26.8348H29.3963C31.4096 26.8415 31.4096 27.2198 31.4096 27.4698C31.4096 27.7682 31.463 28.3332 29.5896 28.3332ZM29.8713 30.9998C29.6896 30.9998 28.2813 30.9998 28.0713 30.9998C28.1063 31.9348 28.143 32.5998 28.2263 33.1665H29.6946C32.5346 33.1582 32.5346 32.4898 32.5346 32.0015C32.5346 31.4265 32.588 30.9998 29.8713 30.9998ZM38.3346 29.9998C38.3346 35.9515 35.953 38.3332 30.0013 38.3332C24.0496 38.3332 21.668 35.9515 21.668 29.9998C21.668 24.0482 24.0496 21.6665 30.0013 21.6665C35.953 21.6665 38.3346 24.0482 38.3346 29.9998ZM35.2013 32.0015C35.2013 30.4915 34.5796 29.5848 33.738 29.0398C33.9896 28.5365 34.0763 27.9865 34.0763 27.4698C34.0763 24.1832 30.5596 24.1732 29.3996 24.1698H27.1196C26.508 24.1698 25.9746 24.5865 25.8263 25.1782C25.8063 25.2582 25.3363 27.1698 25.3363 30.0015C25.3363 32.8332 25.8063 34.7448 25.8263 34.8248C25.9746 35.4182 26.508 35.8332 27.1196 35.8332H29.6996C31.0613 35.8298 35.2013 35.8182 35.2013 32.0015ZM30.398 3.5415C30.1863 3.02984 29.7346 2.6565 29.193 2.5465C29.018 2.5115 24.8463 1.6665 20.008 1.6665C15.1696 1.6665 10.9996 2.5115 10.823 2.5465C10.2813 2.6565 9.82964 3.02984 9.61797 3.5415C9.5663 3.6665 8.33964 6.67317 8.33964 10.6915C8.33964 14.8632 9.57964 17.7498 9.6313 17.8715C9.8513 18.3782 10.3096 18.7415 10.8513 18.8432C10.9496 18.8615 13.128 19.2665 15.5346 19.5032C16.8113 20.6715 18.8863 22.4948 20.1396 22.4948C20.8313 22.4948 23.3413 20.5982 24.4763 19.5032C26.883 19.2665 29.0596 18.8615 29.1596 18.8432C29.703 18.7415 30.1596 18.3782 30.3796 17.8715C30.433 17.7515 31.6713 14.8632 31.6713 10.6915C31.6713 6.67317 30.4463 3.6665 30.393 3.5415H30.398ZM25.2996 9.2315C24.1563 11.0182 22.5246 13.2615 20.0246 14.7632C19.7596 14.9215 19.4646 15.0015 19.1663 15.0015C18.8563 15.0015 18.5463 14.9148 18.2746 14.7432C16.9213 13.8865 15.8996 12.9615 15.058 11.8298C14.508 11.0915 14.6596 10.0482 15.3996 9.49817C16.1363 8.94817 17.1813 9.09984 17.7313 9.83984C18.1346 10.3798 18.6063 10.8598 19.183 11.3115C20.3213 10.4348 21.3513 9.22317 22.4913 7.43817C22.9863 6.66484 24.018 6.4365 24.793 6.9315C25.568 7.42817 25.7963 8.4565 25.2996 9.2315Z" fill="#00AA72"/>
</svg>
