<svg width="40" height="40" viewBox="0 0 40 40" fill="none" xmlns="http://www.w3.org/2000/svg">
<g clip-path="url(#clip0_9597_3970)">
<path d="M18.3333 20C18.3333 20.92 17.5867 21.6667 16.6667 21.6667C15.7467 21.6667 15 20.92 15 20C15 19.08 15.7467 18.3333 16.6667 18.3333C17.5867 18.3333 18.3333 19.08 18.3333 20ZM16.6667 10C15.7467 10 15 10.7467 15 11.6667V15C15 15.92 15.7467 16.6667 16.6667 16.6667C17.5867 16.6667 18.3333 15.92 18.3333 15V11.6667C18.3333 10.7467 17.5867 10 16.6667 10ZM39.5117 39.5117C39.1867 39.8367 38.76 40 38.3333 40C37.9067 40 37.48 39.8367 37.155 39.5117L27.2067 29.5633C24.3317 31.9167 20.6617 33.3333 16.6667 33.3333C7.47667 33.3333 0 25.8567 0 16.6667C0 7.47667 7.47667 0 16.6667 0C25.8567 0 33.3333 7.47667 33.3333 16.6667C33.3333 20.6633 31.9167 24.3333 29.5633 27.2067L39.5117 37.155C40.1633 37.8067 40.1633 38.86 39.5117 39.5117ZM25.6733 19.7833L18.705 7.83833C17.7933 6.27667 15.5383 6.27667 14.6267 7.83833L7.65833 19.7833C6.74 21.3567 7.875 23.3333 9.69833 23.3333H23.6333C25.455 23.3333 26.59 21.3567 25.6733 19.7833Z" fill="#00AA72"/>
</g>
<defs>
<clipPath id="clip0_9597_3970">
<rect width="40" height="40" fill="white"/>
</clipPath>
</defs>
</svg>
