<svg width="30" height="30" viewBox="0 0 30 30" fill="none" xmlns="http://www.w3.org/2000/svg">
<g clip-path="url(#clip0_9597_3987)">
<path d="M21.7551 17.3375L16.5288 8.37878C15.8451 7.20753 14.1538 7.20753 13.4701 8.37878L8.24384 17.3375C7.55509 18.5175 8.40634 20 9.77384 20H20.2251C21.5913 20 22.4426 18.5175 21.7551 17.3375ZM15.0001 18.75C14.3101 18.75 13.7501 18.19 13.7501 17.5C13.7501 16.81 14.3101 16.25 15.0001 16.25C15.6901 16.25 16.2501 16.81 16.2501 17.5C16.2501 18.19 15.6901 18.75 15.0001 18.75ZM16.2501 13.75C16.2501 14.44 15.6901 15 15.0001 15C14.3101 15 13.7501 14.44 13.7501 13.75V11.25C13.7501 10.56 14.3101 10 15.0001 10C15.6901 10 16.2501 10.56 16.2501 11.25V13.75ZM27.3351 19.8613L26.6576 19.475C27.1938 18.0838 27.5001 16.5788 27.5001 15C27.5001 13.4213 27.1938 11.9163 26.6576 10.525L27.3351 10.1388C28.2351 9.62628 28.5501 8.48253 28.0376 7.58128C27.5263 6.68253 26.3813 6.36878 25.4813 6.87878L24.8013 7.26503C22.8788 4.83378 20.0751 3.14003 16.8751 2.65503V1.87378C16.8751 0.838779 16.0363 -0.0012207 15.0001 -0.0012207C13.9638 -0.0012207 13.1251 0.838779 13.1251 1.87378V2.65503C9.92509 3.14003 7.12134 4.83378 5.19884 7.26503L4.51884 6.87878C3.62134 6.36878 2.47509 6.68253 1.96259 7.58128C1.45009 8.48253 1.76509 9.62628 2.66509 10.1388L3.34259 10.525C2.80634 11.9163 2.50009 13.4213 2.50009 15C2.50009 16.5788 2.80634 18.0838 3.34259 19.475L2.66509 19.8613C1.76509 20.3738 1.45009 21.5175 1.96259 22.4188C2.30759 23.025 2.94134 23.3663 3.59384 23.3663C3.90759 23.3663 4.22634 23.2875 4.51884 23.1213L5.19884 22.735C7.12134 25.1663 9.92509 26.86 13.1251 27.345V28.1263C13.1251 29.1613 13.9638 30.0013 15.0001 30.0013C16.0363 30.0013 16.8751 29.1613 16.8751 28.1263V27.345C20.0751 26.86 22.8788 25.1663 24.8013 22.735L25.4813 23.1213C25.7738 23.2875 26.0926 23.3663 26.4063 23.3663C27.0588 23.3663 27.6926 23.0263 28.0376 22.4188C28.5501 21.5175 28.2351 20.3738 27.3351 19.8613ZM15.0001 23.75C10.1751 23.75 6.25009 19.8238 6.25009 15C6.25009 10.1763 10.1751 6.25003 15.0001 6.25003C19.8251 6.25003 23.7501 10.1763 23.7501 15C23.7501 19.8238 19.8251 23.75 15.0001 23.75Z" fill="#00AA72"/>
</g>
<defs>
<clipPath id="clip0_9597_3987">
<rect width="30" height="30" fill="white"/>
</clipPath>
</defs>
</svg>
