<svg width="40" height="41" viewBox="0 0 40 41" fill="none" xmlns="http://www.w3.org/2000/svg">
<g clip-path="url(#clip0_9597_3961)">
<path d="M16.6667 38.579C16.6667 39.0238 16.4911 39.4505 16.1785 39.765C15.8659 40.0796 15.442 40.2563 15 40.2563H1.66667C1.22464 40.2563 0.800716 40.0796 0.488155 39.765C0.175595 39.4505 0 39.0238 0 38.579C0 38.1341 0.175595 37.7075 0.488155 37.3929C0.800716 37.0783 1.22464 36.9016 1.66667 36.9016H15C15.442 36.9016 15.8659 37.0783 16.1785 37.3929C16.4911 37.7075 16.6667 38.1341 16.6667 38.579Z" fill="#00AA72"/>
<path d="M1.66667 33.5471H11.6667C12.1087 33.5471 12.5326 33.3704 12.8452 33.0558C13.1577 32.7412 13.3333 32.3146 13.3333 31.8697C13.3333 31.4249 13.1577 30.9982 12.8452 30.6837C12.5326 30.3691 12.1087 30.1924 11.6667 30.1924H1.66667C1.22464 30.1924 0.800716 30.3691 0.488155 30.6837C0.175595 30.9982 0 31.4249 0 31.8697C0 32.3146 0.175595 32.7412 0.488155 33.0558C0.800716 33.3704 1.22464 33.5471 1.66667 33.5471Z" fill="#00AA72"/>
<path d="M1.66667 26.8376H8.33333C8.77536 26.8376 9.19928 26.6609 9.51184 26.3463C9.8244 26.0318 10 25.6051 10 25.1603C10 24.7154 9.8244 24.2888 9.51184 23.9742C9.19928 23.6596 8.77536 23.4829 8.33333 23.4829H1.66667C1.22464 23.4829 0.800716 23.6596 0.488155 23.9742C0.175595 24.2888 0 24.7154 0 25.1603C0 25.6051 0.175595 26.0318 0.488155 26.3463C0.800716 26.6609 1.22464 26.8376 1.66667 26.8376Z" fill="#00AA72"/>
<path d="M20 0C14.6957 0 9.60859 2.12064 5.85786 5.89541C2.10714 9.67019 0 14.7899 0 20.1282C0 20.2305 0.0133333 20.3295 0.015 20.4318C0.544326 20.2366 1.10294 20.1339 1.66667 20.1282H8.33333C9.1515 20.1254 9.95776 20.3254 10.6809 20.7105C11.4041 21.0956 12.0219 21.654 12.4799 22.3364C12.9378 23.0187 13.2217 23.804 13.3066 24.623C13.3915 25.442 13.2748 26.2694 12.9667 27.0322C13.6491 27.2124 14.2854 27.5371 14.8332 27.9846C15.3809 28.4321 15.8275 28.9921 16.143 29.6272C16.4585 30.2623 16.6357 30.9578 16.6628 31.6673C16.6899 32.3769 16.5662 33.084 16.3 33.7416C16.9665 33.9127 17.5899 34.2227 18.1299 34.6516C18.6699 35.0804 19.1144 35.6186 19.4348 36.2312C19.7551 36.8438 19.944 37.5173 19.9894 38.2081C20.0348 38.8989 19.9357 39.5915 19.6983 40.2413C19.8 40.2413 19.8983 40.2564 20 40.2564C25.3043 40.2564 30.3914 38.1358 34.1421 34.361C37.8929 30.5862 40 25.4665 40 20.1282C40 14.7899 37.8929 9.67019 34.1421 5.89541C30.3914 2.12064 25.3043 0 20 0ZM26.1783 26.3461C25.8658 26.6606 25.4419 26.8372 25 26.8372C24.5581 26.8372 24.1342 26.6606 23.8217 26.3461L18.8217 21.3141C18.5091 20.9996 18.3334 20.573 18.3333 20.1282V11.7415C18.3333 11.2966 18.5089 10.87 18.8215 10.5554C19.134 10.2408 19.558 10.0641 20 10.0641C20.442 10.0641 20.8659 10.2408 21.1785 10.5554C21.4911 10.87 21.6667 11.2966 21.6667 11.7415V19.4338L26.1783 23.9744C26.4908 24.2889 26.6663 24.7155 26.6663 25.1603C26.6663 25.605 26.4908 26.0316 26.1783 26.3461Z" fill="#00AA72"/>
</g>
<defs>
<clipPath id="clip0_9597_3961">
<rect width="40" height="40.2564" fill="white"/>
</clipPath>
</defs>
</svg>
