<svg width="44" height="44" viewBox="0 0 44 44" fill="none" xmlns="http://www.w3.org/2000/svg">
<g clip-path="url(#clip0_9597_4318)">
<path d="M38.4999 14.6667H9.16655C7.59171 14.6667 6.10121 13.9828 5.06905 12.8333C5.21205 12.672 5.36605 12.5198 5.52921 12.375C6.28821 11.704 6.36155 10.5453 5.69055 9.78633C5.01955 9.0255 3.86088 8.954 3.10188 9.625C2.32271 10.3125 1.67555 11.1155 1.17688 12.0047C0.41238 13.3632 -0.00195312 14.9087 -0.00195312 16.5V34.8333C-0.00195312 39.8878 4.11021 44 9.16471 44H38.498C41.5304 44 43.998 41.5323 43.998 38.5V20.1667C43.998 17.1343 41.5322 14.6667 38.4999 14.6667ZM33.9165 32.0833C32.3985 32.0833 31.1665 30.8513 31.1665 29.3333C31.1665 27.8153 32.3985 26.5833 33.9165 26.5833C35.4345 26.5833 36.6665 27.8153 36.6665 29.3333C36.6665 30.8513 35.4345 32.0833 33.9165 32.0833ZM27.4999 5.5C30.5377 5.5 32.9999 7.96217 32.9999 11H38.4999C40.5349 11.0055 42.4434 11.6985 43.9999 12.8938V5.5C43.9999 2.46217 41.5377 0 38.4999 0H16.4999C13.462 0 10.9999 2.46217 10.9999 5.5V11H21.9999C21.9999 7.96217 24.462 5.5 27.4999 5.5ZM38.4999 2.75C40.0179 2.75 41.2499 3.982 41.2499 5.5C41.2499 7.018 40.0179 8.25 38.4999 8.25C36.9819 8.25 35.7499 7.018 35.7499 5.5C35.7499 3.982 36.9819 2.75 38.4999 2.75ZM16.4999 8.25C14.9819 8.25 13.7499 7.018 13.7499 5.5C13.7499 3.982 14.9819 2.75 16.4999 2.75C18.0179 2.75 19.2499 3.982 19.2499 5.5C19.2499 7.018 18.0179 8.25 16.4999 8.25Z" fill="#00AA72"/>
</g>
<defs>
<clipPath id="clip0_9597_4318">
<rect width="44" height="44" fill="white"/>
</clipPath>
</defs>
</svg>
