<svg width="167" height="167" viewBox="0 0 167 167" fill="none" xmlns="http://www.w3.org/2000/svg">
<path d="M149.779 109.229C145.867 105.981 141.437 110.44 139.256 111.505C126.033 119.488 127.736 119.449 108.077 125.667C107.829 125.708 89.8302 129.709 82.7227 128.773C93.3377 122.03 95.6419 119.196 98.9884 115.07C108.784 114.825 118.552 112.454 127.285 108.155C128.801 107.419 130.503 107.469 132.36 108.706C134.609 110.211 137.908 110.718 139.745 108.5C142.205 105.531 140.424 99.5039 140.037 98.312C139.767 97.5037 139.675 96.6235 139.754 95.6234C140.656 84.3201 140.916 72.53 136.75 62.8983C132.399 52.7585 125.044 43.7092 115.28 37.4437C115.421 37.2868 115.577 37.1511 115.71 36.9821C116.427 36.0652 116.165 34.5946 114.873 34.1319C117.483 30.1333 119.839 26.0166 121.862 21.8486C122.795 19.9012 123.676 17.8099 123.323 15.5099C122.852 12.5408 119.652 8.63868 116.225 8.05109C113.892 7.67456 111.855 8.67466 110.058 9.56683C106.574 11.292 106.053 11.4608 101.886 7.84004C99.6851 5.92858 97.1693 3.76049 94.1582 4.00992C90.0918 4.3241 86.6394 6.01252 83.8946 9.02481C83.7409 9.19284 83.6373 9.38666 83.5574 9.58632C75.5761 7.08722 69.1399 11.5226 68.3738 16.2318C67.9181 18.9059 69.1856 21.6832 70.4064 24.0695C72.2554 27.7148 76.1181 31.8794 79.0065 35.0469C78.3128 35.7769 78.3308 36.9318 79.0559 37.6344C79.3686 37.9379 79.708 38.1952 80.0446 38.4573C73.2096 42.6851 67.192 46.6623 61.3275 54.0893C53.7464 63.6874 50.0674 78.1708 52.172 90.1361C52.5956 92.4519 51.7563 92.9354 48.8599 102.535C48.2447 104.432 48.7639 106.466 50.2173 107.848C53.2807 110.756 56.78 108.962 60.1752 106.55C61.1765 105.831 62.5507 105.752 63.6072 106.356C66.0632 107.749 68.6223 108.967 71.243 110.038C62.8412 111.02 63.4265 110.177 53.5006 114.666C50.4 116.067 47.2271 117.47 44.3395 118.25C44.1071 117.432 43.9069 116.603 43.6519 115.793C42.4276 111.894 39.7798 109.287 36.5697 108.819C33.66 108.396 31.2324 109.344 22.1665 111.798C20.1412 112.328 17.6205 112.987 16.0184 115.369C14.8289 117.134 15.0567 118.46 15.3253 120.026C17.0028 129.927 17.0457 139.025 18.8832 147.372C19.1027 148.367 20.0836 148.993 21.0777 148.775C22.0706 148.557 22.699 147.573 22.4807 146.581C20.6882 138.428 20.7353 129.896 18.9288 119.245C18.7177 118.014 18.7237 117.947 19.0751 117.427C20.0166 116.025 20.6297 116.003 31.3821 113.119C32.9542 112.692 34.5803 112.251 36.0384 112.464C38.6706 112.848 39.8422 115.954 40.1384 116.899C44.0031 129.182 45.1818 142.44 43.0499 155.404C36.8795 155.555 30.5773 156.04 24.584 156.124C22.1696 156.158 22.1309 159.842 24.7302 159.805C25.9385 161.195 27.6497 162.88 28.4659 162.887C31.0636 162.91 30.7984 163.051 31.8346 162.998C35.9229 162.787 40.0496 162.596 44.1239 162.149C46.405 161.898 48.1155 159.89 48.089 157.498C48.0638 155.229 47.9717 151.023 47.9692 148.317C48.1603 148.417 48.3525 148.517 48.5806 148.616C84.0982 163.944 122.876 157.695 146.958 128.939C148.744 126.807 150.457 124.516 151.316 121.682C151.842 119.946 152.186 117.328 151.531 115.224C152.201 112.588 151.459 110.623 149.779 109.229ZM73.6897 22.3979C72.9522 20.9565 71.7171 18.5438 72.0073 16.8361C72.3622 14.6585 74.9656 13.1619 77.2476 12.6918C79.574 12.1978 82.3344 12.711 85.0098 14.1404C87.7687 15.6069 88.3057 15.8144 90.3341 17.6156C91.0955 18.2919 92.2611 18.2224 92.9338 17.4621C93.6102 16.7018 93.5406 15.5387 92.7803 14.8623C90.5042 12.8388 89.6849 12.4529 87.0866 11.0736C89.1024 9.07173 91.5611 7.90465 94.4496 7.68175C97.1727 7.55062 100.629 12.5794 104.427 14.0084C102.842 16.9427 101.961 20.199 101.952 23.5467C101.947 25.3432 104.039 25.5039 103.793 25.3934C104.808 25.3934 105.633 24.5731 105.635 23.5562C105.65 18.1814 108.198 15.0552 108.397 14.2157C111.03 13.5462 113.66 11.3842 115.612 11.6846C117.168 11.9508 119.414 14.3779 119.684 16.0759C119.875 17.3302 119.253 18.7692 118.544 20.249C112.561 32.5679 109.386 34.1031 109.714 36.8573C105.159 38.6666 91.2358 39.0321 85.757 37.3091C84.8328 35.3992 76.2878 27.5214 73.6897 22.3979ZM58.0311 103.555C57.0512 104.251 55.7225 105.123 54.5823 105.521C53.255 106.027 51.9693 104.891 52.365 103.67C55.0124 94.5694 56.4695 93.1585 55.7982 89.4861C53.8664 78.5042 57.2504 65.1959 64.2187 56.3725C70.0773 48.9498 75.8546 45.3569 83.7369 40.5055C89.9375 42.8293 104.205 42.3759 109.694 40.7546C111.079 45.4685 111.114 50.5793 109.741 55.2932C109.457 56.2718 110.018 57.2934 110.996 57.5764C111.973 57.8618 112.993 57.3006 113.279 56.3245C114.35 52.6455 114.681 48.753 114.278 44.9397C122.01 54.6708 119.596 62.5089 126.609 66.4023C127.488 66.894 128.617 66.5833 129.113 65.6876C129.608 64.8002 129.288 63.6778 128.398 63.1837C123.524 60.4713 124.924 53.5078 118.346 44.2482C124.836 49.6564 130.021 56.5609 133.367 64.3565C137.215 73.2519 136.945 84.5 136.082 95.3308C135.962 96.8346 136.113 98.1896 136.538 99.4632C137.44 102.243 137.61 105.303 136.909 106.15C136.518 106.6 135.066 106.087 134.401 105.639C131.419 103.661 128.352 103.538 125.666 104.845C118.375 108.434 110.326 110.604 102.172 111.227C104.346 108.59 105.877 106.928 106.815 104.663C107.709 102.48 108.07 99.4464 106.388 97.4582C104.292 95.0281 101.64 94.2004 98.5233 94.3015C99.2498 94.0546 99.7811 93.3873 99.7811 92.5776V89.5828C103.812 88.6494 106.705 84.8381 106.705 80.8809C106.704 76.882 103.757 73.0954 99.7811 72.1696V62.0078C100.597 62.2643 101.471 62.679 102.582 63.306C103.472 63.8073 104.594 63.4979 105.092 62.6057C105.592 61.7207 105.279 60.5959 104.393 60.0971C102.869 59.2377 101.397 58.5034 99.7811 58.197V55.9576C99.7811 54.9407 98.956 54.1157 97.9391 54.1157C96.9222 54.1157 96.0972 54.9407 96.0972 55.9576V58.3268C92.1023 59.3187 89.2958 62.5014 88.6948 65.8698C88.0089 69.7072 90.2249 73.686 93.7409 74.9283C94.5416 75.2122 95.3335 75.3258 96.0972 75.4071V85.8204C94.8098 85.3824 93.6658 84.4982 93.043 83.308C92.5729 82.4087 91.4601 82.0633 90.5571 82.5286C89.6565 83.0011 89.3076 84.1139 89.7788 85.0157C91.041 87.4299 93.4568 89.0894 96.0972 89.6164V92.5776C96.0972 93.4585 96.7289 94.1606 97.5557 94.342C88.0646 95.3479 83.0059 105.265 77.3038 108.331C73.1775 107.014 69.1822 105.283 65.4347 103.157C63.1191 101.825 60.2123 101.981 58.0311 103.555ZM99.7811 76.0366C101.649 76.862 103.02 78.8434 103.021 80.8809C103.021 82.9203 102.241 84.9984 100.372 85.8204C98.5038 86.6425 99.7811 76.0366 99.7811 76.0366ZM96.0972 71.7098C95.6934 71.6539 95.3124 71.5771 94.9676 71.4555C93.1689 70.82 91.9565 68.5584 92.3211 66.5174C92.6546 64.6509 94.1532 63.0199 96.0972 62.2251V71.7098ZM66.6194 114.21C74.5765 113.235 77.9909 113.944 84.4558 107.25C88.8341 103.084 93.722 97.0135 100.372 98.0625C101.701 98.2808 102.726 98.854 103.588 99.8517C104.04 100.386 103.959 101.919 103.41 103.26C102.684 105.012 100.922 107.061 96.6572 112.105C95.8778 113.071 95.0971 114.035 94.2853 114.985C89.7791 120.352 80.6139 125.926 73.5206 130.039C72.6404 130.548 72.3406 131.675 72.8503 132.555C73.3682 133.449 74.5073 133.729 75.3673 133.224C76.4942 132.572 77.5416 131.946 78.5818 131.322C84.8013 134.612 101.894 130.59 108.679 129.305C108.863 129.284 108.948 129.258 109.042 129.229C123.506 126.196 135.129 118.339 140.997 114.748C142.603 113.985 144.632 112.141 146.237 111.807C147.302 111.591 148.054 112.462 148.111 113.335C148.319 116.62 142.225 122.289 140.371 124.257C112.905 152.421 86.9572 149.831 48.2883 142.103C48.124 141.98 47.9373 141.898 47.7385 141.841C47.6886 134.48 46.8432 128.201 45.3046 121.805C53.2897 119.638 59.3179 114.929 66.6194 114.21Z" fill="#F5F5F5"/>
<path d="M33.0875 124.151C37.1887 124.151 38.4486 119.158 35.3779 116.956C35.1153 116.767 34.8191 116.659 34.5193 116.623C31.7277 115.268 27.4006 119.131 29.1986 122.091C30.0006 123.405 31.5484 124.151 33.0875 124.151Z" fill="#FAFAFA"/>
<circle cx="97.5" cy="72.5" r="21.5" fill="#0079FF"/>
<path d="M96.5709 63.6419L95.9732 59.7995H99.4171L98.8194 63.6419H96.5709ZM95.9732 85.5008L96.5709 81.6585H98.8194L99.4171 85.5008H95.9732ZM97.9086 82C96.7132 82 95.6412 81.8767 94.6924 81.63C93.7437 81.3833 92.9373 81.0228 92.2731 80.5484C91.609 80.0551 91.1062 79.4574 90.7647 78.7553C90.4231 78.0343 90.2523 77.1899 90.2523 76.2222L93.3832 75.3683C93.3832 76.2601 93.5729 76.9907 93.9524 77.5599C94.3509 78.1292 94.9106 78.5561 95.6317 78.8407C96.3527 79.1064 97.1686 79.2392 98.0794 79.2392C98.9523 79.2392 99.6923 79.1348 100.299 78.9261C100.926 78.7174 101.4 78.4327 101.723 78.0722C102.045 77.6927 102.206 77.2658 102.206 76.7914C102.206 76.2412 102.007 75.8047 101.609 75.4822C101.21 75.1596 100.669 74.894 99.9864 74.6852C99.3223 74.4765 98.5822 74.2773 97.7663 74.0875C96.8745 73.8978 96.0017 73.6796 95.1478 73.4329C94.294 73.1862 93.516 72.8731 92.8139 72.4937C92.1308 72.0952 91.5806 71.5829 91.1631 70.9567C90.7457 70.3305 90.537 69.5336 90.537 68.5659C90.537 67.4843 90.8216 66.5451 91.3908 65.7481C91.9601 64.9322 92.7665 64.306 93.8101 63.8696C94.8727 63.4142 96.144 63.1865 97.624 63.1865C99.0851 63.1865 100.356 63.4047 101.438 63.8412C102.52 64.2776 103.364 64.9132 103.971 65.7481C104.597 66.583 104.92 67.5792 104.939 68.7367L101.723 69.5336C101.723 68.9454 101.628 68.4236 101.438 67.9682C101.248 67.5128 100.973 67.1333 100.613 66.8297C100.252 66.5261 99.8156 66.2984 99.3033 66.1466C98.791 65.9948 98.2122 65.9189 97.5671 65.9189C96.8081 65.9189 96.1535 66.0233 95.6032 66.232C95.0719 66.4217 94.6545 66.6969 94.3509 67.0574C94.0473 67.4179 93.8955 67.8259 93.8955 68.2813C93.8955 68.8505 94.1137 69.3154 94.5501 69.6759C94.9865 70.0174 95.5653 70.2926 96.2863 70.5013C97.0263 70.71 97.8233 70.9093 98.6771 71.099C99.4741 71.2698 100.271 71.4785 101.068 71.7252C101.884 71.9529 102.633 72.266 103.316 72.6644C104 73.0629 104.55 73.5847 104.967 74.2298C105.385 74.875 105.593 75.6909 105.593 76.6776C105.593 77.7781 105.299 78.7269 104.711 79.5238C104.123 80.3207 103.26 80.9374 102.121 81.3738C100.983 81.7913 99.5784 82 97.9086 82Z" fill="#FFE9C5"/>
</svg>
