<svg width="160" height="160" viewBox="0 0 160 160" fill="none" xmlns="http://www.w3.org/2000/svg">
<g clip-path="url(#clip0_7908_7209)">
<path d="M139.876 100.588C139.379 100.425 138.876 100.328 138.366 100.247C136.826 100 134.944 99.7377 133.088 99.4815C132.869 98.3034 132.623 97.1315 132.341 95.9627C128.188 78.294 116.223 62.1096 99.5257 54.6815C102.998 51.794 105.829 48.1377 107.71 44.0127C116.763 23.9284 102.007 1.18148 80.0007 1.12523C62.2007 0.965854 47.7632 16.6377 49.4913 34.3752C50.1351 42.1659 54.0257 49.5033 59.8913 54.5877C42.157 62.6471 30.1538 80.419 26.7195 99.5002C24.9226 99.7502 23.1163 100.003 21.6351 100.244C21.1257 100.325 20.6195 100.422 20.1257 100.585C15.2351 102.147 13.2476 108.253 16.3226 112.375C16.6288 112.794 16.982 113.166 17.3507 113.525C19.3195 115.419 23.8288 119.653 26.6288 122.278C26.0538 126.278 25.4695 130.519 24.9413 134.46C24.9163 134.647 24.8757 134.925 24.8601 135.11C24.2851 139.147 27.607 142.916 31.682 142.791C32.8445 142.772 33.9601 142.416 34.9476 141.831C38.8945 139.503 42.8132 137.135 46.7101 134.725C50.4601 136.356 54.2257 137.953 58.0257 139.469C57.8445 140.838 57.6632 142.206 57.482 143.575L56.7882 148.972C56.5976 150.185 56.582 151.453 57.032 152.616C58.107 155.735 61.7757 157.5 64.8445 156.338C65.2476 156.191 65.6288 155.991 65.9945 155.775C70.3757 153.144 75.6476 149.891 80.0038 147.188C84.682 150.172 89.0382 152.969 93.6476 155.778C95.7976 157.25 98.5788 157.288 100.754 155.828C102.769 154.513 103.916 151.925 103.554 149.519L103.544 149.435L103.523 149.266L103.482 148.928C103.204 146.603 102.641 142.228 102.273 139.356C104.023 138.656 105.766 137.944 107.504 137.216C109.444 136.4 111.373 135.569 113.301 134.728C117.113 137.085 120.948 139.406 124.807 141.685C125.863 142.347 127.063 142.778 128.329 142.797C132.401 142.928 135.726 139.144 135.151 135.116L135.138 134.985L135.129 134.91L135.11 134.763L135.069 134.469C134.548 130.541 133.957 126.288 133.385 122.288C136.182 119.666 140.716 115.403 142.663 113.535C143.032 113.175 143.382 112.803 143.691 112.385C146.757 108.253 144.76 102.147 139.876 100.588ZM137.423 107.878C137.441 107.866 137.441 107.844 137.454 107.85C137.463 107.853 137.438 107.85 137.451 107.866L137.454 107.872C137.454 107.872 137.423 107.903 137.41 107.916C137.407 107.913 137.407 107.9 137.423 107.878ZM30.607 96.794C36.3663 79.244 49.932 63.5284 68.157 58.7533C68.9945 58.5284 69.757 57.9815 70.2257 57.169C71.1913 55.5002 70.5601 53.3596 68.857 52.4627C66.6195 51.1721 64.5945 49.5284 62.8757 47.619C56.8538 40.9502 55.2101 30.7971 58.9601 22.619C64.8851 9.02835 82.4507 4.54085 94.1632 13.6534C99.7882 17.9096 103.229 24.7971 103.294 31.8502C103.379 37.6815 101.223 43.444 97.3538 47.8221C95.6132 49.7596 93.5632 51.419 91.2976 52.7346C90.5445 53.1377 89.9538 53.8159 89.7257 54.7034C89.3007 56.3502 90.2882 58.0284 91.9351 58.4565C100.804 60.7409 108.96 65.894 115.313 72.5502C122.454 79.9846 127.435 89.2159 130.285 99.0909C129.719 99.0096 129.176 98.9315 128.666 98.8565C127.741 98.7252 126.813 98.6034 125.885 98.4846C124.748 96.2784 123.588 94.0846 122.435 91.8846L120.188 87.694C119.588 86.494 118.779 85.3752 117.644 84.6252C114.123 82.1534 108.979 83.5159 107.269 87.469C105.448 91.6971 103.676 95.9409 101.969 100.222C98.4382 101.041 94.9163 101.903 91.4163 102.853C89.9476 99.8627 88.457 96.8377 87.6632 95.2596C84.6695 88.4534 75.3413 88.4502 72.3945 95.2784C71.7538 96.6002 71.0413 98.0721 70.3007 99.6002L67.4445 96.0252C65.0663 93.0471 63.9757 89.3221 64.3788 85.5315L64.9132 80.4877C65.3632 76.2627 64.1413 72.1127 61.4757 68.8034L59.6538 66.5408C59.382 66.2034 58.8913 66.1502 58.5538 66.4221C58.2163 66.694 58.1663 67.1846 58.4351 67.5221L60.257 69.7846C62.6601 72.769 63.7632 76.5127 63.357 80.3221L62.8226 85.3659C62.3757 89.569 63.582 93.7002 66.2226 97.0002L69.5476 101.16C69.2726 101.731 68.9945 102.306 68.7163 102.885C65.1788 101.922 61.6195 101.05 58.0476 100.222C56.3601 95.9877 54.6101 91.7877 52.807 87.6065C51.1632 83.5565 45.9382 82.1221 42.3726 84.6252C41.2351 85.3752 40.4288 86.4971 39.8288 87.694L37.582 91.8846C36.4288 94.0846 35.2695 96.2784 34.132 98.4846C33.2038 98.6034 32.2757 98.7252 31.3507 98.8565C30.8913 98.9221 30.4038 98.994 29.8976 99.0627C30.1163 98.3034 30.3507 97.544 30.607 96.794ZM64.0538 132.119L77.6038 118.569V123.194C77.6038 123.231 77.607 123.269 77.607 123.31L63.4726 137.444C63.732 136.2 63.9945 134.953 64.2476 133.706C64.357 133.178 64.2851 132.616 64.0538 132.119ZM62.0163 144.35C62.307 142.978 62.5976 141.606 62.8882 140.235L77.7538 125.369C77.932 126.656 78.2757 127.91 78.7601 129.103L61.607 146.256L62.0163 144.35ZM77.6038 116.2V116.36L63.0695 130.894C62.307 130.097 61.532 129.291 60.7445 128.475L77.0195 112.2C77.4038 113.491 77.6038 114.841 77.6038 116.2ZM59.6601 127.35C58.8851 126.547 58.1101 125.744 57.3288 124.938L66.6945 115.572C67.5132 115.463 68.332 115.356 69.1507 115.247C70.2757 115.091 71.3288 114.403 71.8851 113.316C72.6007 111.916 73.7038 109.75 74.7507 107.685C75.4257 108.581 75.9913 109.55 76.432 110.575L59.6601 127.35ZM51.7132 119.166C51.2757 118.688 51.3945 117.863 51.9413 117.547C52.0945 117.45 52.2882 117.428 52.4663 117.397L52.6351 117.375L52.9726 117.331C52.9726 117.331 54.632 117.122 56.1757 116.925L52.8132 120.291C52.4476 119.916 52.0788 119.538 51.7132 119.166ZM58.7101 116.606C60.5257 116.378 62.3382 116.147 64.1507 115.91L56.2413 123.819C55.457 123.013 54.6788 122.21 53.9038 121.413L58.7101 116.606ZM22.5788 107.878C22.5945 107.9 22.5945 107.913 22.5945 107.916C22.5851 107.906 22.5507 107.872 22.5507 107.872L22.5538 107.866C22.5632 107.85 22.5382 107.853 22.5507 107.85C22.5601 107.847 22.5601 107.866 22.5788 107.878ZM53.6913 134.944C51.6101 133.61 49.5195 132.297 47.4195 130.994C46.9882 130.731 46.4288 130.669 45.932 130.888C41.3976 132.875 36.8882 134.91 32.3976 136.994C31.7132 137.406 30.7476 136.831 31.032 136.047C32.0195 131.353 33.0632 126.228 33.9945 121.544C34.2195 120.425 33.8538 119.188 32.9601 118.363C30.6101 115.978 24.9976 110.297 22.6445 107.969C25.5757 107.56 29.5226 106.975 32.4538 106.522C34.0195 106.288 35.5851 106.025 37.1476 105.778C38.3538 105.613 39.4507 104.872 40.0163 103.694C42.0632 99.4096 44.2257 94.694 46.1851 90.3409L46.2163 90.2752L46.2226 90.2659C46.2413 90.2471 46.2351 90.2034 46.2476 90.1877C46.3663 89.744 47.0695 89.8065 47.257 90.1721C49.6538 94.4596 52.1007 98.7159 54.6288 102.931C54.9351 103.541 55.4601 104.041 56.2038 104.075C58.6726 104.235 61.1413 104.369 63.6132 104.475C65.0288 104.538 66.4476 104.588 67.8663 104.622C67.2663 105.872 66.6757 107.1 66.1257 108.253C61.3726 109.003 56.3351 109.847 51.6538 110.606C51.132 110.697 50.607 110.797 50.1007 110.972C44.757 112.75 43.1195 119.7 47.1507 123.631C50.8726 127.1 54.9195 130.828 58.7163 134.288C58.5507 135.494 58.3851 136.7 58.2226 137.91C56.7226 136.91 55.2101 135.922 53.6913 134.944ZM60.8007 150L60.8726 149.669L61.0007 149.072L79.4663 130.606C80.0007 131.603 80.6476 132.547 81.3976 133.419L61.8913 152.925C61.332 152.594 60.8976 152.063 60.7413 151.388C60.6163 150.931 60.7007 150.453 60.8007 150ZM64.8663 152.825C64.7851 152.86 64.4476 153.022 64.382 153.047C64.1851 153.144 63.982 153.21 63.7757 153.25L82.4413 134.585L84.6945 137.075L72.3132 149.456C69.7413 150.603 67.1788 151.763 64.8663 152.825ZM76.282 147.697L85.7445 138.235L86.8226 139.425C87.2195 139.863 87.5851 140.325 87.9195 140.803L81.8695 146.853C81.2413 146.591 80.6195 146.328 80.0007 146.072C78.8132 146.585 77.5632 147.131 76.282 147.697ZM90.407 147.475L90.8195 150.691C89.9788 150.322 89.1351 149.953 88.2945 149.588L90.407 147.475ZM86.7507 148.922C85.6351 148.444 84.5257 147.972 83.4257 147.506L88.7663 142.166C89.3507 143.244 89.7945 144.391 90.082 145.591L86.7507 148.922ZM95.5476 152.8C94.5382 152.341 93.5195 151.881 92.4913 151.425L91.9101 146.9C91.5007 143.71 90.1413 140.76 87.982 138.375L82.8195 132.672C80.4632 130.069 79.1663 126.703 79.1663 123.194V116.2C79.1663 114.391 78.8476 112.6 78.2413 110.91C78.1038 110.513 77.982 110.156 77.8195 109.85C77.2757 108.622 76.5788 107.463 75.7351 106.406L75.532 106.15C76.032 105.16 76.4913 104.25 76.8445 103.538L79.2882 98.6815L79.4413 98.3784L79.5163 98.2252L79.5538 98.1502L79.5663 98.1409C79.5976 98.1221 79.5976 98.0752 79.6226 98.0596C79.6632 98.0252 79.682 97.9909 79.7195 97.9784C79.7788 97.9409 79.8788 97.9002 80.0007 97.894C80.1257 97.9065 80.2195 97.9471 80.2757 97.9909C80.3101 98.0065 80.3257 98.0409 80.3601 98.0752C80.382 98.0909 80.3788 98.1377 80.407 98.1565L80.4163 98.1659L80.4538 98.2409L80.5288 98.394L80.6788 98.7002L83.0726 103.581L87.9132 113.316L87.9445 113.378C88.4913 114.456 89.5413 115.26 90.8288 115.435C94.6726 115.96 103.841 117.21 107.579 117.675C107.857 117.716 108.048 117.81 108.194 118.106C108.279 118.369 108.301 118.575 108.176 118.806C108.16 118.853 108.094 118.894 108.082 118.95L108.023 119.01C104.207 122.897 100.063 127.169 96.3163 131.091C95.6101 131.76 95.232 132.738 95.4507 133.76L96.5632 139.085C97.207 142.197 98.4288 147.569 99.0632 150.669C99.2195 152.531 97.132 153.653 95.5476 152.8ZM126.904 118.5C126.148 119.278 125.776 120.4 126.007 121.544C126.904 126.05 127.904 130.994 128.86 135.522L128.966 136.047C128.994 136.156 129.035 136.269 129.016 136.385C128.982 136.906 128.31 137.272 127.826 137.091L127.801 137.088L127.735 137.056L127.601 136.994C123.11 134.906 118.598 132.872 114.057 130.885C113.591 130.685 113.041 130.706 112.579 130.994C110.482 132.297 108.388 133.61 106.307 134.944C104.882 135.86 103.466 136.788 102.054 137.722L101.61 134.416C105.285 131.081 109.16 127.466 112.769 124.128C113.157 123.756 113.529 123.369 113.854 122.938C117.551 117.816 114.276 110.935 108.048 110.291C105.182 109.813 98.1976 108.735 93.9726 108.081C93.4757 107.069 92.8913 105.875 92.2757 104.619C92.407 104.616 92.5382 104.613 92.6726 104.61C95.1476 104.538 97.6226 104.431 100.091 104.294C101.326 104.231 102.56 104.153 103.791 104.075C104.485 104.041 105.057 103.569 105.366 102.931C107.894 98.7159 110.338 94.4596 112.738 90.1721C112.923 89.7971 113.635 89.7534 113.748 90.1877C113.76 90.2065 113.754 90.2534 113.779 90.2752L113.81 90.3409C115.766 94.6846 117.935 99.4159 119.979 103.694C120.504 104.775 121.569 105.606 122.848 105.778C124.413 106.025 125.976 106.288 127.541 106.522C130.466 106.969 134.435 107.56 137.351 107.969C134.901 110.397 129.351 116.019 126.904 118.5Z" fill="white"/>
<path d="M74.8382 97.9055C76.4137 93.0565 83.2738 93.0565 84.8493 97.9055L88.5197 109.202C89.2243 111.37 91.2451 112.838 93.5252 112.838H105.403C110.501 112.838 112.621 119.363 108.496 122.36L98.8872 129.341C97.0426 130.681 96.2707 133.057 96.9753 135.225L100.646 146.522C102.221 151.371 96.6713 155.403 92.5465 152.406L82.9374 145.425C81.0927 144.084 78.5948 144.084 76.7501 145.425L67.141 152.406C63.0162 155.403 57.4663 151.371 59.0419 146.522L62.7122 135.225C63.4168 133.057 62.6449 130.681 60.8003 129.341L51.1911 122.36C47.0663 119.363 49.1862 112.838 54.2848 112.838H66.1623C68.4424 112.838 70.4632 111.37 71.1678 109.202L74.8382 97.9055Z" stroke="#0079FF" stroke-width="10.5263"/>
</g>
<defs>
<clipPath id="clip0_7908_7209">
<rect width="160" height="160" fill="white"/>
</clipPath>
</defs>
</svg>
