<svg width="161" height="161" viewBox="0 0 161 161" fill="none" xmlns="http://www.w3.org/2000/svg">
<path d="M68.1805 100.317C68.9395 101.088 70.0183 101.629 71.088 101.465C72.7536 101.211 73.705 99.4794 74.4277 97.9571C82.3436 81.2813 92.9822 65.9014 105.794 52.612C106.549 51.8294 106.195 50.2876 105.374 49.575C104.553 48.8624 103.325 48.7844 102.287 49.1091C94.9718 51.3997 76.3905 76.0468 72.539 80.5558C68.4025 77.9303 60.4866 77.1089 56.3085 74.5502C55.5424 74.081 54.762 73.6058 53.8924 73.3812C53.0228 73.1568 52.0347 73.2163 51.3131 73.751C50.5914 74.2858 50.1017 75.748 50.7369 76.383C62.7483 88.3893 66.1927 98.2977 68.1805 100.317Z" fill="#0079FF"/>
<path d="M76.4088 139.295C76.7494 139.411 77.1112 139.418 77.4465 139.321C90.2964 135.625 102.371 126.297 110.576 113.729C125.788 90.4301 126.731 60.1044 123.806 32.4372C123.72 31.6466 123.107 31.0143 122.319 30.9087C72.6185 24.3049 75.7835 24.639 75.3217 24.7117C65.9073 26.1428 31.7542 31.378 30.9097 31.4579C30 31.4579 29.2476 32.1632 29.1892 33.0695C28.2727 46.9447 27.3249 61.2928 28.8612 75.4521C32.1962 106.146 46.8606 129.133 76.4088 139.295ZM32.5358 34.7282L75.5979 28.1595L120.513 34.1487C123.191 60.6802 122.124 89.7306 107.688 111.842C100.042 123.557 88.8858 132.281 77.0152 135.852C49.1922 126.049 35.474 104.41 32.2933 75.0793C30.84 61.7015 31.6621 48.0093 32.5358 34.7282Z" fill="#0079FF"/>
<path d="M134.616 72.1593C136.442 56.65 136.339 40.4107 134.29 21.0516C134.205 20.2599 133.592 19.6287 132.803 19.5232C71.8345 11.4161 75.5508 11.824 75.09 11.8966C16.1155 20.8773 19.8679 20.245 19.4743 20.4967C19.4794 20.3867 19.4822 20.2773 19.4872 20.1672C19.3074 20.3549 18.0524 20.8911 17.8961 21.1032C17.432 21.7335 16.638 22.2 16.068 22.767C14.7611 24.0674 14.856 25.4311 14.4265 29.4428C13.4312 38.7642 12.6704 48.0989 12.6275 57.5101C12.4364 101.753 30.1923 141.526 72.8307 154.35C81.1911 156.864 88.8459 150.861 96.0845 145.96C104.682 140.139 112.192 132.718 118.123 124.197C128.715 108.976 132.388 91.0732 134.616 72.1593ZM22.0125 23.4819L75.3662 15.3443L131 22.7643C134.341 55.5677 133.074 91.5314 115.187 118.926C105.702 133.457 91.8458 144.27 77.1047 148.668C42.649 136.586 25.636 109.817 21.6936 73.5182C19.89 56.9195 20.9277 39.9424 22.0125 23.4819Z" fill="#FBFBFB"/>
<path d="M142.529 24.4588C143.468 24.2982 144.099 23.4076 143.94 22.4688C142.904 16.3931 138.845 10.8857 133.349 8.09489C132.496 7.66476 131.463 8.0028 131.029 8.85295C130.598 9.70197 130.937 10.7408 131.786 11.172C136.33 13.4777 139.683 18.0282 140.539 23.0483C140.699 23.9869 141.59 24.6188 142.529 24.4588Z" fill="#FFE9C5"/>
<path d="M148.348 16.6031C147.605 12.2255 144.68 8.25773 140.718 6.24636C139.86 5.81174 138.829 6.15651 138.398 7.00441C137.967 7.85344 138.306 8.89226 139.155 9.32351C142.163 10.8486 144.382 13.8606 144.948 17.1826C145.109 18.1284 146.004 18.7523 146.938 18.5931C147.877 18.4337 148.508 17.5431 148.348 16.6031Z" fill="#FFE9C5"/>
</svg>
