<svg width="156" height="149" viewBox="0 0 156 149" fill="none" xmlns="http://www.w3.org/2000/svg">
<path fill-rule="evenodd" clip-rule="evenodd" d="M143.745 103.936L142.481 103.254C139.641 101.899 136.049 102.966 134.371 105.703L133.307 107.635L131.729 110.376C130.176 113.136 130.965 116.798 133.427 118.591L134.831 119.43L140.352 122.606C136.314 123.972 132.105 123.369 128.525 121.095C127.867 120.677 126.76 119.659 126.188 119.088C124.265 117.167 122.341 113.254 122.315 110.335C122.305 109.135 122.089 108.977 122.245 107.473C122.361 106.364 121.622 105.471 120.611 105.038C119.925 104.829 119.244 104.226 118.285 103.918L114.513 101.906C112.91 100.977 111.258 100.358 109.874 99.5142C106.601 97.519 107.463 98.5563 104.917 97.2233C105.053 97.0569 105.193 96.8948 105.383 96.7779C105.556 96.6693 108.086 94.1643 108.547 93.52C109.268 92.5148 109.857 91.4061 110.138 90.2006C110.639 90.4712 112.514 91.4669 112.702 91.8264C112.933 92.2653 115.413 93.2731 116.418 93.9902C117.737 94.9317 120.237 96.4494 121.689 97.3362C122.265 97.688 124.373 98.8976 124.692 99.1919C125.542 99.9749 126.438 99.1824 127.172 98.9744C127.822 98.7905 128.394 98.1954 128.948 97.8946C137.51 93.2494 147.871 98.0963 149.409 107.319L143.745 103.936ZM101.151 93.4399C101.027 93.5612 100.94 93.717 100.823 93.8401L98.8242 95.938C98.0204 96.9545 97.0885 97.9605 96.1157 98.8138C95.3679 99.4129 93.7739 99.7072 92.7117 99.3456L91.7626 98.9249C91.6459 98.9082 91.7941 98.8218 91.4943 98.6951C90.8985 98.4431 90.0222 96.673 89.7737 96.0491L89.4911 95.1724C91.072 94.1468 93.5096 91.3504 94.7888 89.9646L97.2642 87.3022C97.3737 87.1197 97.4483 87.2774 97.811 86.7664L100.177 84.1758C100.658 84.2851 101.188 84.2705 101.49 84.5043C102.003 84.9035 102.42 84.6085 104.011 85.9433L104.483 86.7089L104.747 87.9057C104.755 89.6874 104.286 89.9096 103.359 91.0117L101.151 93.4399ZM90.4878 119.071C92.1912 125.891 93.8376 132.448 95.3833 139.309L91.7337 140.338C91.6056 140.354 91.4779 140.383 91.352 140.416C90.3978 137.292 89.5665 134.131 88.7115 130.979C88.631 130.679 88.5135 130.392 88.4473 130.09L87.0238 124.977L86.4173 123.267C86.335 123.008 86.3061 122.735 86.182 122.489C85.9737 122.072 85.6974 121.688 85.6231 121.218C85.6191 121.194 85.6066 121.171 85.592 121.157C85.3588 120.894 85.3888 120.345 85.0843 119.985C84.9262 119.798 84.4562 118.181 84.4097 118.004C84.1528 117.024 83.6649 116.341 83.5123 115.604C83.1854 114.024 82.9815 114.451 82.5324 113.563C83.6975 113.024 86.052 111.645 87.0194 110.934C87.3554 110.681 87.7536 110.515 88.0428 110.201C88.1713 110.063 88.1859 110.203 88.7463 109.737C88.792 109.99 88.9161 110.404 88.8063 110.548C88.5812 110.841 89.2843 111.831 89.3305 112.584L89.8564 115.604C89.9234 115.922 90.2535 117.14 90.1844 117.342C90.0361 117.777 90.2766 118.08 90.3762 118.513C90.4197 118.698 90.438 118.886 90.4878 119.071ZM79.7789 109.636L80.7979 109.256C81.4014 109.044 83.9533 107.645 84.6908 107.208L89.1449 104.334C89.4556 104.128 89.6046 103.821 90.0321 103.825C90.1953 103.826 90.5427 103.53 90.8037 103.383C89.4245 102.76 88.1409 101.567 87.3294 100.322C86.7654 99.4577 86.8979 99.41 86.5765 98.7952C86.3053 98.2762 86.5454 98.1972 86.5063 97.9514L86.3434 96.4734C84.9152 96.7804 83.0862 96.767 81.673 96.3525C80.7488 96.0815 79.2624 95.3258 78.5414 94.6669C77.8665 94.0499 76.958 93.1187 76.495 92.3123C75.1546 89.9784 74.7249 87.1485 75.5686 84.5549L75.2095 84.6595C74.6752 84.8583 74.6788 84.6883 74.4958 84.7724C74.184 84.9163 72.773 85.043 72.3502 85.0678C67.1513 85.3762 64.1365 83.6033 60.1334 81.2865L59.9994 84.5484C59.8398 86.0034 59.3702 87.9458 58.8523 89.352L57.6825 92.1375C57.2905 92.8703 56.3663 94.3719 55.8239 94.9845C54.4919 96.4883 54.8569 95.7952 53.6084 96.8547C53.1542 97.2401 52.5854 97.5096 52.0301 97.7805C50.5229 98.5163 50.6103 98.1105 49.961 98.1069C49.8014 98.1058 49.7411 97.9696 49.3461 98.0289C49.3915 97.8771 49.4636 97.754 49.4018 97.5631C49.3652 97.4524 49.6067 97.4142 49.5584 97.1279C49.4922 96.7345 49.9724 96.7243 50.0101 95.9085C50.0276 95.5294 50.6257 95.2839 50.9592 94.5271C51.2245 93.9246 52.1311 92.6812 52.1249 92.4456C52.1139 92.0355 52.3925 91.9572 52.3808 91.641C52.3808 91.6247 52.383 91.6083 52.3932 91.5959C52.6103 91.3409 52.5883 91.0033 52.6304 90.7232C52.6571 90.5408 52.775 90.4049 52.8387 90.2468L54.13 85.9011C54.1794 85.708 54.1753 85.5048 54.2105 85.31C54.7269 82.3369 54.6091 80.3235 54.227 77.3676L53.9938 75.7953C53.7138 73.122 56.5709 71.51 58.7282 73.3216L59.3307 73.9229C59.8651 74.5621 62.2259 76.2972 62.9389 76.8257C65.3264 78.5451 65.4011 78.6656 68.1169 79.8719C70.6149 80.9813 74.3296 80.6954 76.8288 79.8617C77.1381 79.7525 77.2453 79.5562 77.5861 79.6975C77.7259 79.7554 78.0001 79.5572 78.339 79.5044C78.4689 79.4859 78.5762 79.3853 78.6999 79.3402C79.877 78.8915 79.5179 79.0932 80.4081 78.1823L81.8974 76.7517C80.8594 76.0448 81.0632 76.5882 79.6343 75.0418C78.955 74.3068 77.9389 73.708 77.0411 72.8022C76.8702 72.6296 75.2414 71.0598 74.9555 70.9178C74.3538 70.6184 74.1865 70.1697 73.6251 69.8605C73.5983 69.8441 73.5694 69.8255 73.5508 69.8029C73.1401 69.3185 72.5999 69.0166 72.1006 68.6535C71.8034 68.436 71.5765 68.1487 71.3085 67.9021L69.4913 66.2865C68.04 65.0234 65.8443 62.7697 64.4102 61.2982L62.3309 59.2721C61.5751 58.528 60.9649 57.8127 59.7893 57.753C58.5705 57.6911 58.1657 58.2538 57.4808 58.9826L50.797 65.6706C50.0503 66.2763 49.483 67.048 48.7854 67.6967C47.8063 68.604 45.3858 71.258 44.4635 72.2701C43.1217 73.7761 41.5727 75.4169 40.8491 77.2955C40.2993 78.7221 39.34 84.1678 38.9696 85.8577C38.3404 88.7299 38.0941 90.8915 36.4137 93.4756C35.1451 95.4263 34.4083 95.8506 32.9003 97.3224L30.2866 99.8453C29.8854 100.223 29.6186 100.707 29.0816 100.88C28.8225 100.963 27.6289 102.158 27.3076 102.452C26.5441 103.151 24.9922 104.57 24.2089 105.143C23.4611 105.691 22.6013 107.11 22.1954 107.118C21.967 107.123 21.0838 107.973 21.0216 108.052C20.4653 108.764 19.8299 109.267 19.0228 109.641L21.709 111.647C25.9705 114.866 27.1374 115.962 30.8993 119.568L32.6983 121.287C33.3391 121.809 33.4248 122.072 33.6305 122.221L41.0965 129.319C41.3194 128.771 41.1693 128.761 41.994 128.036C42.5185 127.575 42.7549 126.927 43.4112 126.285C43.5217 126.177 44.5455 125.106 44.6139 124.898C44.7596 124.455 45.1574 124.33 45.2658 123.986C45.272 123.966 45.2844 123.947 45.2987 123.935C45.6307 123.678 45.7877 123.286 46.0022 122.937C46.1281 122.734 46.3324 122.594 46.4872 122.415L47.5146 121.2L54.5018 114.103C56.419 112.286 58.7121 110.939 61.3094 110.351C62.1483 110.161 64.1295 109.885 64.9856 109.963C65.6602 110.021 66.3223 109.885 66.995 109.92C67.3973 109.936 67.7955 109.94 68.1956 109.934L71.9048 110.088C75.0719 110.406 76.8358 110.584 79.7789 109.636ZM43.4913 61.5332C43.1799 61.3368 42.0467 60.6882 41.9153 60.4412C41.6752 59.9896 39.2196 59.0088 38.1936 58.2735C36.9389 57.3742 34.3062 55.7684 32.9105 54.9213C32.5577 54.7078 32.1781 54.529 31.844 54.3014C30.7814 53.57 29.926 53.0073 28.6424 53.9423C27.107 55.0604 28.1048 54.1684 26.3731 55.1904C24.9508 56.0296 22.7675 56.617 21.1973 56.7773C18.7044 57.0311 15.8396 56.5413 13.5871 55.3423C12.3997 54.7104 11.089 53.9055 10.1586 52.9261C8.45335 51.1313 7.59944 49.9552 6.77114 47.5726L6.2719 45.5217L12.7145 49.3791C15.8505 51.1422 19.701 50.0904 21.5648 46.8274C21.8854 46.2662 24.0687 42.4376 24.3849 41.6377C25.6155 38.5263 24.1448 35.3613 21.3485 33.718L15.374 30.294C19.3259 28.9665 23.3096 29.5 26.8976 31.6489C28.2892 32.4822 29.321 33.4801 30.355 34.7527C32.0094 36.789 33.3842 40.3841 33.4123 43.1405L33.3567 45.2405C33.3534 47.8985 34.3102 47.295 36.3006 48.5621C36.3397 48.5869 36.3892 48.6095 36.4305 48.6237C37.224 48.8907 37.8474 49.4563 38.7617 49.7487C39.2177 49.8944 42.2136 51.5727 42.5412 51.7625C44.1359 52.6876 45.832 53.3224 47.1932 54.1561C47.6829 54.4558 49.2074 55.3583 49.7473 55.4923C50.5642 55.7018 51.3728 56.0467 52.1714 56.4655L48.3136 60.5651L45.9411 62.9671L43.4913 61.5332ZM63.9908 39.121C63.5929 36.9988 63.6552 36.9005 62.9594 34.8656C62.8891 34.6726 62.813 34.4777 62.78 34.2705C62.7244 33.9296 62.4934 33.6342 62.4934 33.2747L61.7138 30.364C61.6355 30.1032 61.522 29.8468 61.4393 29.5798L60.2739 25.4577L59.5561 22.9799L59.1953 22.167C59.1499 22.0439 59.1561 21.9044 59.0671 21.7915C58.9185 21.6029 58.7 21.4364 58.6898 21.2044C58.6898 21.1902 58.6836 21.1818 58.6711 21.1756C58.472 21.0627 58.5891 20.7983 58.3307 20.6297C58.1279 20.4971 58.017 19.6077 57.6005 19.0242C57.2656 18.5551 57.3666 18.0627 57.1053 17.928C57.9728 18.031 57.3136 18.3435 59.9108 18.1414C60.9005 18.0645 61.6249 17.9859 62.6032 17.7473C62.7665 17.7072 63.168 17.7309 63.6204 17.5976C63.6306 17.5936 63.6409 17.5914 63.6493 17.5914L63.7463 18.6342C63.7536 18.6877 63.9084 19.3207 63.8166 19.4223C63.6116 19.6489 63.8063 19.7632 63.8393 19.9541L65.1884 26.1657L65.9742 30.2958L66.8673 33.2212C66.9449 33.8724 68.6773 39.3228 68.891 40.3116C68.9964 41.0146 69.4532 42.5352 69.8419 43.1463L70.0048 43.6351C70.1494 43.8033 70.3595 43.949 70.3657 44.1646C70.3657 44.177 70.3737 44.1872 70.3862 44.1934C70.5864 44.2976 70.4579 44.5391 70.7079 44.68C70.9085 44.7929 70.9923 45.5876 71.3887 46.1168C70.0996 46.5826 69.4232 46.8642 68.3643 47.7631C68.0613 48.0439 66.5423 49.6027 66.3487 49.9432C66.315 50.0372 66.2257 49.9301 66.1071 50.1465C66.1071 49.8125 65.8256 48.5807 65.9175 48.4674C66.1166 48.2212 65.9252 48.1047 65.8824 47.8803C65.4819 45.7373 64.822 43.245 64.3641 41.0466L63.9908 39.121ZM75.0917 50.8381C75.3797 50.8643 76.0957 50.9022 76.3069 51.0781C76.7018 51.4074 78.1615 51.847 78.873 53.4225C79.3942 54.5764 79.2313 54.4471 79.4528 55.6992L79.5538 56.2124C79.556 56.2881 79.5022 56.3581 79.5476 56.4422C79.6281 56.5839 79.7621 56.746 79.6735 56.8734C79.6713 56.8756 79.6735 56.8858 79.6819 56.896C79.8129 57.0483 79.6146 57.1087 79.7664 57.3065L79.7397 57.7067L78.0934 58.9775C77.5239 59.5438 76.9609 60.0683 76.5627 60.7818L76.1996 61.1821C76.1191 61.3995 76.0902 61.6624 75.8984 61.7794C75.8881 61.7856 75.8841 61.7998 75.8841 61.8121C75.8805 62.0496 75.6038 62.0627 75.6016 62.3563C75.5997 62.5843 74.9468 63.0534 74.6298 63.7315C74.6093 63.7727 74.5866 63.8095 74.5639 63.8484L66.349 55.3725C66.6063 55.2145 67.3351 54.5621 67.4632 54.5906C67.7604 54.6565 67.7472 54.4518 67.8966 54.328C68.6432 53.6833 71.1647 51.1866 71.9564 51.0515C72.4992 50.959 72.6072 50.806 73.3714 50.7601L75.0917 50.8381ZM85.1425 61.5845C85.6092 61.4865 86.5151 61.5058 87.0465 61.6563C88.0121 61.9298 88.374 62.2907 88.538 62.3479C88.8539 62.4583 88.7521 62.5544 88.9425 62.6516C90.7019 63.5523 91.2176 66.7574 90.7392 68.5063L90.4442 69.2781C89.624 70.9098 90.3451 69.6933 88.0183 71.1997C86.7702 72.0075 85.4327 73.5485 85.1795 73.7226L83.5437 75.2253C82.9215 74.203 81.9483 72.6955 81.2393 71.7952C80.8184 71.2594 80.3872 70.7299 80.053 70.1406C79.5911 69.3269 77.5641 67.0582 76.8885 66.3553C78.3324 65.6866 77.6168 66.418 79.4301 65.058C81.3641 63.5757 82.4343 61.952 85.1425 61.5845ZM154.398 107.865C153.754 102.142 150.637 97.3974 145.746 94.4375C143.364 92.9959 141.686 92.4926 139.052 91.9885C138.099 91.806 137.696 91.912 137.067 91.8202C135.737 91.6254 132.936 92.0409 131.673 92.3746C129.578 92.9274 127.291 93.9778 125.55 95.2773C123.252 94.0955 120.437 92.8269 118.063 91.759L110.375 88.3249C110.417 85.4797 108.811 82.1034 106.121 81.0826C105.613 80.8895 105.809 80.683 104.613 80.5836L103.984 80.4503C103.65 80.5337 103.357 80.2671 102.928 80.4277L101.607 80.4871C101.985 76.7371 98.6152 73.9116 98.4904 74.3636C98.4739 74.4867 98.6119 74.5442 98.55 74.6775C98.1862 74.8025 98.2407 74.6415 98.2407 74.895C98.0709 74.7904 97.8282 74.6076 97.6756 74.628C97.5929 75.0716 97.8868 75.9377 98.21 76.2229C98.21 76.2229 98.4995 76.7998 98.3502 76.9535C98.1353 77.1749 98.7404 77.7814 98.6163 78.2778C98.426 79.0382 98.3315 80.0934 97.6818 80.9587C97.5848 81.0877 97.366 80.9846 97.2013 81.3346C97.0043 81.7531 91.2605 86.9966 90.2697 88.0328C89.7345 88.5966 87.4879 90.6548 86.835 91.0503C85.2962 91.9827 83.1258 91.5591 81.7847 90.457C81.5424 90.2578 80.9384 89.4765 80.9037 89.1863C80.8612 88.8301 80.553 88.4236 80.6354 87.3984C80.7214 86.3268 81.0772 85.468 81.8132 84.7196L85.7329 80.7865C85.9184 80.5996 86.0817 80.3822 86.2837 80.2074L89.5039 76.9331C89.8074 76.5507 90.3264 75.87 90.7067 75.5618C90.9665 75.3513 90.9753 74.9267 91.3648 74.7879C91.4376 74.762 91.2707 74.738 91.703 74.5147C92.1616 74.2784 91.7776 74.0464 93.6732 73.8209C94.0868 73.7717 94.4027 73.6334 94.8386 73.7758C95.0169 73.834 95.5743 74.0198 95.7485 73.9666C96.4528 73.7514 96.7038 74.2237 97.0585 74.1123C97.3608 74.0172 97.4139 74.2733 97.531 74.2292C97.7206 74.1574 97.8568 74.2292 98.0263 74.2784C97.9161 73.8694 98.0391 73.7685 98.0138 73.6151C97.9219 73.0575 98.0339 73.0113 97.9787 72.8904C97.6101 72.0793 97.497 72.0366 96.8565 71.4535C96.1881 70.8449 95.5073 70.5332 94.6739 70.2567C96.6182 66.096 95.2218 59.7482 90.8988 57.5705C90.1727 57.2049 90.374 57.2205 89.5599 56.9219C88.8411 56.6582 88.9564 56.5901 88.1716 56.3963C87.0348 56.1159 85.962 55.9152 84.7761 56.0514L84.8112 54.4831C84.6718 52.8959 84.4105 51.6648 83.5448 50.2892C82.386 48.4481 81.1116 47.3358 79.1157 46.465C77.3021 45.6736 76.659 45.6277 74.8124 45.49C74.9508 44.1144 75.2527 44.6312 74.9859 42.7661L74.6144 40.8816C74.2392 38.7179 73.9732 37.5243 73.2591 35.2939C72.818 33.9161 72.2712 32.6738 71.9286 31.402C71.8956 31.2829 71.8173 31.1721 71.78 31.0549L71.153 29.0247C70.0615 26.5215 67.0975 15.1752 66.591 14.3831C65.5943 12.8851 64.6299 9.28486 63.489 7.85824C62.7112 6.92368 62.5059 6.72154 61.8035 5.69665C61.7211 5.57755 61.6014 5.48723 61.5169 5.37432L60.0894 3.42434C59.3728 2.65111 58.7615 1.78611 58.1503 0.928031C57.0262 -0.714197 54.2233 -0.0837488 54.0926 2.08586C53.9623 4.24417 53.9224 5.04398 53.9543 7.14402L54.0099 9.48226C54.0644 9.60027 53.906 9.58023 53.9956 9.98305C54.0659 10.2992 53.9755 12.5773 54.2452 13.5097L54.9238 15.585C55.1076 15.9874 55.2178 16.8492 55.3901 16.5847C55.4549 16.4853 55.4308 16.3141 55.6211 16.2089L55.7573 16.0264C55.8649 16.317 55.8023 16.3884 56.1328 15.6567C56.4575 14.9378 56.3184 14.4414 56.5662 14.0946C56.7876 13.7843 56.5834 13.5206 56.7393 13.1094L57.4365 10.7075C57.695 10.3859 57.5749 10.3545 57.6283 10.1349L57.8018 9.36936C60.1795 12.7838 63.3869 14.056 63.6314 14.4086C61.4419 14.8984 60.3563 14.9301 57.4325 15.314C56.6196 15.4207 56.6902 15.7431 56.37 16.0406L55.553 16.5971C55.6288 16.7162 55.4992 16.8208 55.5139 16.8969C55.5644 17.1617 55.3982 17.1591 55.3243 17.2498C54.903 17.7662 54.8356 17.3219 54.4312 18.6374L54.1651 19.8444C54.0981 21.0798 53.7541 20.3347 54.0765 22.6157L55.269 28.3695L56.5995 32.625L57.4475 35.1377C57.4827 35.2713 57.565 35.3901 57.6064 35.5237L58.2872 37.7611C59.0536 39.5617 59.2922 40.961 59.8654 42.8047L61.2043 46.6926C61.2903 46.7975 61.1154 46.7939 61.3116 47.1075C61.4627 47.3489 61.9521 49.3503 62.4978 50.1519L64.303 52.5455L63.9688 53.3664C60.7494 51.462 56.6558 51.8379 54.0293 54.5509L53.4909 55.107C52.2322 53.8898 48.8143 51.2857 47.3638 50.2954C46.5055 49.7105 45.6453 49.1314 44.8698 48.4765C43.8731 47.6352 39.6171 44.9248 38.5055 44.299C38.7968 41.1628 38.1358 38.1257 36.9891 35.2258C36.372 33.6648 34.5869 31.0476 33.4468 29.8865C29.0458 25.4041 23.2638 23.2578 16.9555 24.2124C13.6098 24.7187 10.5755 26.0262 7.92592 28.127C6.41464 29.3252 6.58338 31.7028 8.30329 32.6596L18.8947 38.4997C19.335 38.7496 19.5985 39.2376 19.4269 39.7417L16.8069 44.3606C16.6444 44.6957 16.3732 44.8337 16.0149 44.8982C15.5965 44.9736 15.4702 44.9277 14.9216 44.6232L4.6003 38.8107C3.25739 38.047 1.50564 38.9215 1.3574 40.4959C1.25894 41.5412 1.15719 42.4263 1.20697 43.4952C1.47892 49.3678 4.01138 54.1805 8.73079 57.6226C10.6656 59.0339 12.8789 60.0472 15.2104 60.6117C16.2081 60.8532 16.7594 60.8393 17.1825 60.9464C18.4383 61.2644 21.3174 61.0393 22.6226 60.8273C25.229 60.4037 28.0561 59.1661 30.1793 57.545L30.1856 57.541L44.7892 64.1901C43.5543 65.4652 41.8765 67.1475 40.7254 68.4703C38.1252 71.6255 36.3731 73.8796 35.5433 77.9726C34.8914 81.1882 34.4859 84.8667 33.8106 88.2142C33.5664 89.3236 33.218 90.1471 32.6862 91.1272L31.6877 92.5538L27.2131 97.1745C24.0921 100.444 22.0117 103.68 19.3324 107.235C17.5338 109.622 18.6191 108.642 18.7856 108.664C18.8672 109.11 18.6923 109.076 19.0228 108.96L18.7051 109.407C18.3929 109.177 15.3839 106.778 15.3385 107.085C15.3736 107.258 15.5881 107.381 15.5757 107.557C15.0947 107.626 15.1456 107.4 15.2766 107.789C15.0548 107.627 14.5296 107.193 14.2924 107.153C14.6097 108.782 17.3519 110.601 17.3973 111.216C17.4295 111.65 18.9844 112.628 19.6004 113.439C20.2274 114.264 21.8569 116.027 22.6185 116.836C22.9505 117.189 24.2762 118.498 24.3846 118.782C24.6042 119.359 25.1082 119.649 25.5459 120.102C29.9868 124.749 34.5682 129.261 39.0252 133.893L41.4596 136.469C41.6774 136.722 41.7377 137.287 41.3377 137.658L36.0026 142.755C35.8518 142.925 35.3347 143.002 35.0184 142.777L34.0177 141.796C33.2938 141.026 32.4457 140.388 31.7631 139.573L27.988 135.792L25.2337 133.072C24.6188 132.489 24.0021 131.904 23.3894 131.321L15.0592 123.072C14.7313 122.752 14.3784 122.455 14.0669 122.12C13.4502 121.461 12.825 120.817 12.1691 120.197C10.9108 119.006 9.74722 117.723 8.43542 116.584L6.52701 114.878C6.22578 114.505 5.88246 114.217 5.99482 113.898C6.01312 113.847 5.87843 113.788 6.03618 113.478C6.36962 112.82 5.74996 113.451 6.79127 112.353C7.74731 111.343 8.74177 110.356 9.60081 109.267C9.93645 108.842 10.9591 107.698 11.5297 107.293C11.7797 107.115 11.9613 106.557 12.8089 106.611C13.4213 106.651 13.3777 106.381 13.7599 106.576C14.2166 106.809 13.7456 106.411 14.6471 106.8C14.4172 106.343 14.4059 106.05 14.3436 105.956C14.183 105.705 13.9743 105.482 13.9 105.213C13.8579 105.065 13.0659 104.647 12.6746 104.552C9.6839 103.829 7.73706 106.582 5.48533 107.918C4.83126 108.307 3.05279 109.751 2.40933 110.552C0.590596 112.817 0.756767 116.142 2.76619 118.402L5.60282 121.278C6.2858 122.107 7.5427 123.319 8.3505 124.143C8.60818 124.408 8.84572 124.694 9.10157 124.96C13.6178 129.642 18.476 134.308 23.1957 138.827L29.0546 144.425C29.3536 144.722 29.69 144.987 29.993 145.281C31.3191 146.575 32.1584 147.64 34.1191 148.105C36.0817 148.571 38.4151 147.93 39.8151 146.451L44.7021 141.356C45.4546 140.604 45.9707 139.871 46.3009 138.814C46.9992 136.581 46.3221 134.455 44.7329 132.859L42.8947 131.043L44.9847 129.905C45.8203 129.331 46.2379 129.212 46.5296 129.011C48.3216 127.775 50.2454 125.983 51.7922 124.451C53.2691 122.985 55.2507 121.277 56.7825 119.781C58.5258 118.005 59.4152 116.776 61.9916 115.877C63.3096 115.416 64.6119 115.244 66.0145 115.269C66.2495 115.273 66.4848 115.224 66.722 115.222C71.243 115.266 76.013 115.848 80.3953 114.44L80.4139 117.332C80.4655 117.841 80.5274 118.35 80.4798 118.865C80.3418 120.26 81.6342 125.513 82.0559 127.042C82.0724 127.099 82.0929 127.159 82.095 127.216L83.8611 134.555C84.8252 137.976 85.7808 141.416 86.8792 144.794C87.3104 146.116 88.7338 146.841 90.0643 146.412L98.0358 144.078L99.8615 143.536C101.053 143.115 101.632 141.89 101.2 140.607C99.8124 136.543 98.8004 132.393 97.5881 128.272L95.7028 122.107C95.5985 121.905 95.7559 121.896 95.4781 121.249L94.0671 116.618C93.0876 113.795 91.6027 111.247 90.2982 108.589C92.4277 106.968 93.2688 106.278 94.9792 104.098C96.8601 103.966 98.5416 103.292 99.9694 102.047C101.041 101.112 102.712 99.7196 103.635 98.6168C104.665 99.6515 108.465 102.534 109.699 103.375C110.555 103.958 111.415 104.535 112.189 105.19C113.127 105.983 116.146 107.893 117.249 108.575C116.906 112.133 117.666 115.261 119.149 118.461C120.1 120.514 121.892 122.731 123.551 124.217C125.934 126.352 129.174 127.958 132.36 128.579C136.607 129.407 140.954 128.701 144.775 126.742C145.827 126.213 146.799 125.537 147.733 124.829C149.058 123.957 149.423 121.334 147.414 120.215L137.736 114.894L136.721 114.323C136.24 114.079 136.168 113.354 136.366 112.993L139.1 108.3C139.635 107.717 140.311 108.069 140.816 108.333C142.266 109.091 143.831 110.054 145.181 110.714L147.017 111.757L151.038 114.05C152.399 114.79 154.147 113.992 154.353 112.4C154.549 110.895 154.565 109.372 154.398 107.865Z" fill="#FAFAFA"/>
<path d="M52.5137 55.9238L44.2637 50.1738L36.0137 44.9238C35.0137 23.4238 15.5137 24.4238 9.51367 30.4238L23.0137 37.9238L22.4618 39.138C21.1658 41.9891 19.6099 44.7149 17.8139 47.2806L17.0137 48.4238L3.51367 41.4238C4.34701 50.0905 10.7137 65.0238 29.5137 55.4238L45.0137 63.4238" stroke="#0079FF" stroke-width="6"/>
<path d="M105.014 96.9243L111.014 101.424L119.491 106.25C118.674 127.758 139.514 128.924 146.014 122.424L131.854 114.321L135.514 109.424L138.718 104.365L151.58 112.478C154.514 104.365 145.056 88.9439 125.514 96.9243L111.014 87.9243" stroke="#0079FF" stroke-width="6"/>
</svg>
