<svg width="117" height="105" viewBox="0 0 117 105" fill="none" xmlns="http://www.w3.org/2000/svg">
<path d="M88.9751 26.1489C79.3251 20.474 68.8501 17.499 58.0501 17.499C21.2668 17.499 0.752335 51.7026 0 52.424C0.835654 53.2252 20.1857 87.3741 58.0501 87.3741C94.8333 87.3741 115.457 53.0401 116.1 52.424C114.943 51.0586 106.747 36.5733 88.9751 26.1489ZM58.0501 77.649C44.1501 77.649 32.85 66.349 32.85 52.449C32.85 38.549 44.1501 27.2489 58.0501 27.2489C71.9501 27.2489 83.25 38.549 83.25 52.449C83.25 66.349 71.9501 77.649 58.0501 77.649Z" fill="#00AA72"/>
<path d="M63.4683 46.9949C59.6553 43.1819 60.7232 38.7149 60.5508 37.4368H58.0508C49.7793 37.4368 43.0508 44.1653 43.0508 52.4368C43.0508 60.5667 49.9209 67.4368 58.0508 67.4368C66.3223 67.4368 73.0508 60.7083 73.0508 52.4368V49.9368C71.746 49.7593 67.2959 50.8176 63.4683 46.9949Z" fill="#00AA72"/>
<path d="M55.543 0H60.543V10.0725H55.543V0Z" fill="#00AA72"/>
<path d="M91.2266 15.7783L98.3507 8.65422L101.886 12.1897L94.7621 19.3139L91.2266 15.7783Z" fill="#00AA72"/>
<path d="M14.1875 12.1803L17.723 8.64476L24.8454 15.7671L21.3098 19.3026L14.1875 12.1803Z" fill="#00AA72"/>
<path d="M55.543 94.8451H60.543V104.92H55.543V94.8451Z" fill="#00AA72"/>
<path d="M14.168 92.746L21.2903 85.6236L24.8258 89.1592L17.7035 96.2815L14.168 92.746Z" fill="#00AA72"/>
<path d="M91.2188 89.1504L94.7543 85.6149L101.878 92.739L98.3428 96.2745L91.2188 89.1504Z" fill="#00AA72"/>
</svg>
