<svg width="97" height="98" viewBox="0 0 97 98" fill="none" xmlns="http://www.w3.org/2000/svg">
<path d="M10.563 57.6156C10.0255 56.1385 8.39221 55.377 6.91508 55.9146L1.87274 57.7499C0.748335 58.1592 0 59.2278 0 60.4243V94.3007C0 95.8725 1.27429 97.1468 2.8461 97.1468H15.1762C15.5082 97.1468 15.8376 97.0888 16.1495 96.9751L21.1921 95.1398C22.6692 94.6022 23.4306 92.9689 22.8931 91.4918L10.563 57.6156Z" fill="#00AA72"/>
<path d="M96.3339 66.831C94.8871 62.8564 90.3455 60.9749 86.5118 62.7623L73.0842 69.0224C73.0685 69.6544 73.0063 70.2929 72.8932 70.9338C71.6669 77.8883 65.0114 82.5487 58.0568 81.3224L38.8921 77.9432C37.3442 77.6703 36.3105 76.194 36.5836 74.6461C36.8566 73.0982 38.3326 72.0645 39.8807 72.3375L59.0454 75.7168C62.9151 76.3991 66.6054 73.8152 67.2877 69.9454C67.97 66.0757 65.3861 62.3854 61.5164 61.7033L52.3684 60.0903C49.6308 59.6076 47.0783 58.5694 44.7813 57.0044C38.1049 52.4559 29.5865 51.3898 21.9948 54.153L16.1387 56.2845L28.579 90.4636L52.6898 93.777C55.6409 94.1827 58.5951 93.666 61.2333 92.2834L92.9058 75.6839C96.1037 74.0076 97.5689 70.2242 96.3339 66.831Z" fill="#00AA72"/>
<path d="M46.3305 15.1795H65.6166L69.8668 3.84571C70.5645 1.98493 69.1889 0.000244141 67.2017 0.000244141H44.7452C42.7581 0.000244141 41.3825 1.98493 42.0803 3.84571L46.3305 15.1795Z" fill="#00AA72"/>
<path d="M47.0164 51.6674C46.04 50.5016 46.1485 48.7642 47.2852 47.7341C48.45 46.6785 50.2499 46.767 51.3054 47.9318C52.5306 49.2837 54.4612 50.0906 56.4698 50.0906C58.3624 50.0906 59.6912 48.9835 59.8823 47.913C60.1346 46.4994 57.9674 45.583 57.2971 45.3358C54.0527 44.1391 51.1715 42.8566 51.0506 42.8025C50.9134 42.7414 50.7816 42.6695 50.6558 42.5876C48.3768 41.1019 47.2027 38.4966 47.5915 35.7884C48.0049 32.9082 50.1072 30.563 53.0778 29.6682C58.7704 27.9529 63.4723 31.6866 63.8685 32.0132C63.8698 32.0143 63.8714 32.0154 63.8727 32.0168C63.8795 32.0223 63.8879 32.0293 63.8915 32.0323L63.8907 32.0333C64.5112 32.5552 64.9062 33.3368 64.9062 34.2111C64.9062 35.7829 63.6319 37.0572 62.0601 37.0572C61.3626 37.0572 60.7245 36.8054 60.2295 36.3889L60.2287 36.3899L60.2466 36.4047C60.2202 36.3832 57.5621 34.2627 54.7194 35.1186C53.5106 35.4827 53.2721 36.2741 53.2256 36.5975C53.1941 36.8168 53.1778 37.3371 53.6279 37.7183C54.3921 38.0524 56.7438 39.065 59.2666 39.9955C64.67 41.9886 66.0219 45.9091 65.4853 48.9137C64.9111 52.1298 62.325 54.6325 58.9723 55.4753L62.5016 56.0976C65.8705 56.6915 68.8065 58.562 70.7686 61.3643C71.2012 61.9822 71.575 62.6289 71.8888 63.2981L83.9595 57.6706V50.1483C83.9595 43.5048 82.1134 37.0062 78.6206 31.3549C76.0551 27.204 72.6812 23.6464 68.7171 20.8708H43.229C39.2649 23.6464 35.891 27.204 33.3255 31.3549C30.3784 36.1233 28.6038 41.4948 28.1211 47.0478C28.9385 46.9827 29.7603 46.9485 30.5856 46.9485C36.441 46.9485 42.097 48.5765 47.0164 51.6674Z" fill="#00AA72"/>
</svg>
