<svg width="125" height="125" viewBox="0 0 125 125" fill="none" xmlns="http://www.w3.org/2000/svg">
<path fill-rule="evenodd" clip-rule="evenodd" d="M122.801 64.4355V72.5454H112.702C111.396 79.0901 108.817 85.3142 105.109 90.8635L112.254 98.0073L98.0225 112.239L90.8792 105.095C85.3298 108.802 79.1057 111.382 72.561 112.688V122.786H52.4351V112.688C45.8903 111.382 39.6661 108.802 34.1167 105.095L26.9731 112.239L12.7422 98.0073L19.8853 90.864C16.1782 85.3145 13.5983 79.0902 12.2925 72.5454H2.19531V64.4355H22.2734C22.7749 74.766 27.2317 84.5075 34.7202 91.6414C42.2088 98.7752 52.1549 102.754 62.4976 102.754C72.8402 102.754 82.7863 98.7752 90.2749 91.6414C97.7634 84.5075 102.22 74.766 102.722 64.4355H122.801ZM62.498 55.6953C61.1557 55.6953 59.8435 56.0934 58.7273 56.8391C57.6112 57.5849 56.7413 58.6449 56.2276 59.8851C55.7139 61.1253 55.5795 62.49 55.8414 63.8065C56.1032 65.1231 56.7496 66.3324 57.6988 67.2816C58.648 68.2308 59.8574 68.8772 61.174 69.1391C62.4905 69.401 63.8552 69.2666 65.0954 68.7529C66.3355 68.2392 67.3955 67.3693 68.1413 66.2531C68.8871 65.137 69.2852 63.8248 69.2852 62.4824C69.2852 60.6824 68.5701 58.956 67.2973 57.6832C66.0244 56.4104 64.2981 55.6953 62.498 55.6953ZM78.2886 41.5703C78.6238 41.2296 79.0232 40.9586 79.4636 40.773C79.9041 40.5874 80.377 40.4908 80.855 40.4889C81.333 40.4869 81.8066 40.5796 82.2486 40.7617C82.6905 40.9437 83.0921 41.2114 83.4301 41.5494C83.7681 41.8874 84.0358 42.289 84.2178 42.731C84.3998 43.1729 84.4925 43.6466 84.4905 44.1246C84.4885 44.6026 84.392 45.0754 84.2063 45.5159C84.0207 45.9564 83.7497 46.3557 83.4089 46.6909L72.1736 57.9263C71.1109 55.6783 69.3009 53.8691 67.0525 52.8074L78.2881 41.572L78.2886 41.5703ZM64.4512 22.2583C70.1973 22.5273 75.818 24.0313 80.9307 26.668L90.9546 9.30591C82.7869 4.92566 73.715 2.49828 64.4512 2.21436V22.2583ZM84.2964 28.6157C89.131 31.7351 93.2451 35.8492 96.3647 40.6836L113.726 30.6604C108.825 22.7934 102.186 16.1547 94.3193 11.2546L84.2959 28.6157H84.2964ZM98.3125 44.05L115.674 34.0261C120.055 42.1937 122.484 51.2654 122.769 60.5293H102.723C102.453 54.7831 100.949 49.1625 98.312 44.0498L98.3125 44.05ZM60.5449 2.21436C51.2814 2.49897 42.2098 4.92631 34.042 9.30591L44.0654 26.6677C49.1782 24.0314 54.7988 22.5275 60.5449 22.2583V2.21436ZM30.676 11.2546L40.6992 28.6155C35.8647 31.735 31.7506 35.8491 28.6311 40.6836L11.2703 30.6602C16.1703 22.7932 22.809 16.1546 30.676 11.2546ZM9.32129 34.0261C4.94004 42.1936 2.51142 51.2653 2.22607 60.5293H22.2725C22.542 54.7831 24.0464 49.1624 26.6833 44.0498L9.32129 34.0261ZM89.8677 62.4829H73.1899C73.1497 65.2921 72.0054 67.9726 70.0046 69.945C68.0038 71.9173 65.3072 73.023 62.4977 73.023C59.6882 73.023 56.9915 71.9173 54.9907 69.945C52.9899 67.9726 51.8457 65.2921 51.8054 62.4829H35.1284C35.1284 69.7418 38.012 76.7034 43.1448 81.8362C48.2776 86.969 55.2392 89.8525 62.498 89.8525C69.7569 89.8525 76.7185 86.969 81.8513 81.8362C86.9841 76.7034 89.8677 69.7418 89.8677 62.4829Z" fill="#00AA72"/>
</svg>
