<svg width="125" height="125" viewBox="0 0 125 125" fill="none" xmlns="http://www.w3.org/2000/svg">
<path d="M121.375 109.662L65.7554 11.5279C64.7526 9.72999 62.4821 9.08547 60.6841 10.0883C60.08 10.4253 59.5815 10.9238 59.2446 11.5279L3.62498 109.662C2.95003 110.859 2.95899 112.325 3.64854 113.514C4.31084 114.673 5.54498 115.388 6.88039 115.385H118.12C119.455 115.388 120.689 114.673 121.351 113.514C122.041 112.325 122.05 110.859 121.375 109.662ZM62.5 104.251C59.4255 104.251 56.9332 101.759 56.9332 98.6843C56.9332 95.6099 59.4255 93.1176 62.5 93.1176C65.5744 93.1176 68.0667 95.6099 68.0667 98.6843C68.0667 101.759 65.5744 104.251 62.5 104.251ZM70.6536 50.5069L63.9483 84.4072C63.8543 85.2071 63.1296 85.7793 62.3298 85.6853C61.6593 85.6065 61.1306 85.0777 61.0518 84.4072L54.3464 50.5069C53.2068 44.7512 57.1677 39.3056 62.5 39.3056C67.8323 39.3056 71.7932 44.7512 70.6536 50.5069Z" fill="#00AA72"/>
</svg>
