<svg width="37" height="37" viewBox="0 0 37 37" fill="none" xmlns="http://www.w3.org/2000/svg">
<path d="M14.2513 12.3417C12.6579 12.74 11.3896 13.9067 10.8546 15.4717C10.6196 16.1517 10.4646 16.8183 10.3379 17.4683C10.1396 16.46 10.0079 15.3417 10.0079 14.1633C10.0079 11.7767 10.5712 10.2 10.6846 9.86833C10.8479 9.39167 11.2413 9.02833 11.7312 8.90833C11.9679 8.84833 14.1263 8.33167 16.6763 8.33167C19.2262 8.33167 21.3829 8.84833 21.6213 8.90833C22.1096 9.03 22.5046 9.39667 22.6679 9.87167C22.7396 10.0783 22.9879 10.7833 23.1613 11.8733C22.2512 11.7567 21.1679 11.665 20.0046 11.665C17.0046 11.665 14.5146 12.275 14.2513 12.3417ZM15.0596 26.09C15.2963 26.15 17.4546 26.6667 20.0046 26.6667C20.2179 26.6667 20.6513 26.6333 21.0279 26.5983C21.7929 27.2817 22.9379 28.3333 23.9112 28.3333C24.1846 28.3333 24.4479 28.2617 24.6779 28.1133C25.5112 27.575 26.6729 24.4183 26.6729 20.8317C26.6729 18.445 26.1096 16.8683 25.9962 16.5367C25.8329 16.06 25.4396 15.6967 24.9496 15.5767C24.7129 15.5167 22.5546 15 20.0046 15C17.4546 15 15.2979 15.5167 15.0596 15.5767C14.5712 15.6983 14.1762 16.065 14.0129 16.54C13.8996 16.8683 13.3413 18.4433 13.3413 20.8317C13.3413 23.0333 13.8129 24.5733 14.0096 25.1183C14.1696 25.6017 14.5662 25.9683 15.0596 26.0917V26.09ZM2.46125 20C3.83625 20.0283 4.98625 18.9333 5.01292 17.5517C5.20458 8.28333 8.69292 5 18.3396 5C22.6979 5 26.0112 5.84333 28.2646 7.49L27.1613 8.59333C26.7146 9.04 26.5596 9.7 26.7596 10.2983C26.9579 10.8967 27.4796 11.3317 28.1046 11.42C29.2513 11.585 30.4062 11.665 31.5596 11.665C32.7129 11.665 33.8679 11.5833 35.0129 11.42C35.7446 11.3167 36.3213 10.74 36.4279 10.0067C36.7562 7.71333 36.7562 5.38833 36.4279 3.09667C36.3379 2.47167 35.9029 1.95 35.3046 1.75167C34.7062 1.55 34.0446 1.71 33.5996 2.155L31.8462 3.90833C28.6962 1.31333 24.1763 0 18.3412 0C5.91458 0 0.262917 5.38167 0.0129167 17.4483C-0.0154166 18.8283 1.08125 19.9717 2.46125 20ZM34.2146 16.6667C32.7762 16.6667 31.6913 17.7367 31.6629 19.115C31.4713 28.3833 27.9829 31.6667 18.3363 31.6667C13.9779 31.6667 10.6663 30.8233 8.41125 29.1767L9.51458 28.0733C9.96125 27.6267 10.1163 26.9667 9.91625 26.3683C9.71792 25.77 9.19625 25.335 8.57125 25.2467C6.27625 24.9183 3.95292 24.9183 1.66125 25.2467C0.929583 25.35 0.352917 25.9267 0.24625 26.66C-0.0820833 28.9533 -0.0820833 31.2783 0.24625 33.57C0.33625 34.195 0.77125 34.7167 1.36958 34.915C1.96292 35.1133 2.62792 34.96 3.07458 34.5117L4.82792 32.7567C7.97792 35.3517 12.4979 36.6667 18.3329 36.6667C30.7563 36.6667 36.4079 31.285 36.6579 19.2183C36.6863 17.8383 35.5913 16.695 34.2113 16.6667H34.2146Z" fill="#00AA72"/>
</svg>
