<svg width="86" height="86" viewBox="0 0 86 86" fill="none" xmlns="http://www.w3.org/2000/svg">
<path d="M48.428 24.2141C48.428 10.8624 37.5656 0 24.2141 0C10.8624 0 0 10.8624 0 24.2141C0 37.5658 10.8624 48.4282 24.2141 48.4282C37.5656 48.428 48.428 37.5656 48.428 24.2141ZM36.8622 40.3602C33.3747 43.0983 28.9817 44.7327 24.2141 44.7327C19.4465 44.7327 15.0535 43.0981 11.5659 40.3602V39.2987C11.5659 33.9128 15.9476 29.5312 21.3333 29.5312H27.0946C32.4802 29.5312 36.862 33.9128 36.862 39.2987L36.8622 40.3602ZM18.4522 20.0742C18.4522 16.8971 21.037 14.3124 24.2141 14.3124C27.3912 14.3124 29.9759 16.8971 29.9759 20.0742C29.9759 23.2513 27.3912 25.836 24.2141 25.836C21.037 25.836 18.4522 23.2513 18.4522 20.0742ZM31.1736 26.4694C32.7231 24.7845 33.6711 22.5383 33.6711 20.0742C33.6711 14.8595 29.4288 10.6172 24.2141 10.6172C18.9994 10.6172 14.7569 14.8595 14.7569 20.0742C14.7569 22.5383 15.7051 24.7845 17.2546 26.4694C12.5637 27.9641 8.98421 31.9651 8.09062 36.891C5.33899 33.3987 3.69527 28.9948 3.69527 24.2141C3.69527 12.9 12.9 3.69527 24.2141 3.69527C35.528 3.69527 44.7327 12.8998 44.7327 24.2139C44.7327 28.9946 43.089 33.3987 40.3374 36.8909C39.444 31.9649 35.8643 27.9641 31.1736 26.4694Z" fill="#00AA72"/>
<path d="M61.7842 37.572C48.4327 37.572 37.5703 48.4344 37.5703 61.7861C37.5703 75.1378 48.4327 86 61.7842 86C75.1359 86 85.9983 75.1378 85.9983 61.7861C85.9983 48.4344 75.1359 37.572 61.7842 37.572ZM74.4323 77.9321C70.9446 80.6701 66.5518 82.3046 61.7841 82.3046C57.0165 82.3046 52.6237 80.6701 49.136 77.9321V76.8707C49.136 71.4849 53.5178 67.1031 58.9034 67.1031H64.6647C70.0504 67.1031 74.4321 71.4849 74.4321 76.8707V77.9321H74.4323ZM56.0225 57.6461C56.0225 54.469 58.6071 51.8843 61.7842 51.8843C64.9613 51.8843 67.5462 54.469 67.5462 57.6461C67.5462 60.8232 64.9613 63.4078 61.7842 63.4078C58.6071 63.4078 56.0225 60.8232 56.0225 57.6461ZM77.9077 74.4629C77.0141 69.5369 73.4344 65.5361 68.7438 64.0412C70.2933 62.3564 71.2414 60.1101 71.2414 57.6462C71.2414 52.4315 66.9989 48.1892 61.7842 48.1892C56.5695 48.1892 52.3272 52.4315 52.3272 57.6462C52.3272 60.1103 53.2754 62.3565 54.8247 64.0414C50.1339 65.5363 46.5544 69.5371 45.6608 74.4631C42.9091 70.9709 41.2654 66.567 41.2654 61.7861C41.2654 50.472 50.4702 41.2673 61.7841 41.2673C73.0981 41.2673 82.3029 50.472 82.3029 61.7861C82.3031 66.5668 80.6593 70.9707 77.9077 74.4629Z" fill="#00AA72"/>
<path d="M78.5454 33.5197C75.5666 22.3237 67.4503 13.2362 56.8684 8.92584L58.4962 8.13455C59.414 7.68843 59.7961 6.5827 59.35 5.6651C58.9038 4.7475 57.7984 4.36487 56.8805 4.81116L51.196 7.57455C50.7553 7.78887 50.4178 8.16932 50.2576 8.6324C50.0975 9.09548 50.1281 9.60325 50.3422 10.044L53.1058 15.7285C53.4254 16.3861 54.0835 16.7687 54.7687 16.7687C55.0396 16.7687 55.3151 16.7087 55.5752 16.5824C56.493 16.1363 56.8751 15.0306 56.429 14.1128L55.5952 12.3977C65.0553 16.294 72.3064 24.4411 74.9744 34.4697C75.1944 35.2966 75.9417 35.8429 76.7587 35.8429C76.9159 35.8429 77.0758 35.8225 77.2349 35.7802C78.221 35.518 78.8077 34.5058 78.5454 33.5197Z" fill="#010101"/>
<path d="M32.8929 70.2721C32.4468 69.3545 31.3416 68.9721 30.4235 69.4184C29.5057 69.8645 29.1236 70.9702 29.5697 71.888L30.4035 73.6031C20.9434 69.7069 13.6923 61.5595 11.0242 51.5311C10.7618 50.5449 9.75014 49.9581 8.76367 50.2206C7.77754 50.483 7.19083 51.4951 7.4532 52.4811C10.4321 63.6772 18.5484 72.7648 29.1305 77.0749L27.5027 77.8662C26.5849 78.3124 26.2028 79.4181 26.6489 80.3359C26.9686 80.9934 27.6267 81.3761 28.3118 81.3761C28.5829 81.3761 28.8582 81.3163 29.1184 81.1898L34.8029 78.4262C35.2436 78.2119 35.5811 77.8313 35.7413 77.3684C35.9014 76.9053 35.8708 76.3975 35.6567 75.9568L32.8929 70.2721Z" fill="#010101"/>
</svg>
