<svg width="37" height="37" viewBox="0 0 37 37" fill="none" xmlns="http://www.w3.org/2000/svg">
<path d="M36.67 18.325C36.6533 15.475 35.1933 13.7617 32.3317 13.24C32.1483 12.8933 31.9467 12.545 31.725 12.2C33.485 9.75333 33.3333 7.46833 31.275 5.40667C29.2083 3.34 26.925 3.18833 24.4967 4.955C24.1483 4.73667 23.7983 4.535 23.4567 4.36C22.9383 1.50833 21.1667 0 18.335 0C15.5033 0 13.7317 1.50667 13.215 4.35333C12.8717 4.53333 12.5217 4.735 12.1883 4.95167C9.74667 3.18667 7.46167 3.33833 5.395 5.40667C3.33667 7.46667 3.185 9.75167 4.94333 12.1917C4.72333 12.5433 4.52167 12.8917 4.34333 13.2367C1.47667 13.76 0.0166667 15.4733 0 18.3233V18.3417C0.0166667 21.1917 1.47667 22.905 4.33833 23.4267C4.52167 23.7733 4.72333 24.1217 4.945 24.4667C3.185 26.9133 3.33667 29.1983 5.395 31.26C7.46333 33.3283 9.74833 33.4817 12.1733 31.7117C12.5217 31.93 12.8717 32.1317 13.2133 32.3067C13.7317 35.1583 15.5033 36.6667 18.335 36.6667C21.1667 36.6667 22.9383 35.16 23.455 32.3133C23.7983 32.1333 24.1483 31.9317 24.4817 31.715C26.9217 33.48 29.2083 33.33 31.275 31.26C33.3333 29.2 33.485 26.915 31.7267 24.475C31.9467 24.1233 32.1483 23.775 32.3267 23.43C35.1933 22.9067 36.6533 21.1933 36.67 18.325ZM13.92 19.9183C14.6567 20.4717 14.805 21.515 14.2533 22.2517C13.6983 22.9917 12.65 23.135 11.92 22.585C10.6883 21.66 9.595 20.5683 8.67 19.335C8.225 18.7433 8.225 17.9267 8.67 17.335C9.595 16.1033 10.6867 15.01 11.92 14.085C12.6583 13.5317 13.7017 13.6833 14.2533 14.4183C14.8067 15.155 14.6567 16.1983 13.92 16.7517C13.2883 17.2267 12.7033 17.7567 12.1683 18.335C12.7017 18.915 13.2883 19.445 13.92 19.9183ZM21.62 12.0717L18.2867 25.405C18.0667 26.305 17.135 26.8417 16.265 26.6183C15.3717 26.395 14.83 25.49 15.0517 24.5967L18.385 11.2633C18.6083 10.37 19.515 9.83 20.4067 10.05C21.3 10.2733 21.8417 11.1783 21.62 12.0717ZM28.0033 19.3333C27.0783 20.565 25.9867 21.6583 24.7533 22.5833C24.025 23.1333 22.975 22.99 22.42 22.25C21.8667 21.5133 22.0167 20.47 22.7533 19.9167C23.385 19.4417 23.97 18.9117 24.505 18.3333C23.9717 17.7533 23.385 17.2233 22.7533 16.75C22.0167 16.1967 21.8683 15.1533 22.42 14.4167C22.9717 13.6817 24.0183 13.53 24.7533 14.0833C25.985 15.0083 27.0783 16.1 28.0033 17.3333C28.4483 17.925 28.4483 18.7417 28.0033 19.3333Z" fill="#00AA72"/>
</svg>
