<svg width="40" height="40" viewBox="0 0 40 40" fill="none" xmlns="http://www.w3.org/2000/svg">
<path d="M38.775 13.9655L37.1367 13.0205C37.3517 12.3239 37.5 11.5989 37.5 10.8322C37.5 10.0655 37.35 9.34053 37.1367 8.64386L38.775 7.69886C39.5733 7.24053 39.8467 6.22053 39.3867 5.42219C38.9267 4.62553 37.91 4.35053 37.11 4.81053L35.4817 5.74886C34.4733 4.66219 33.16 3.87219 31.6667 3.53219V1.66386C31.6667 0.743859 30.92 -0.00280762 30 -0.00280762C29.08 -0.00280762 28.3333 0.743859 28.3333 1.66386V3.53219C26.84 3.87386 25.525 4.66219 24.5183 5.74886L22.89 4.81053C22.09 4.35053 21.0733 4.62386 20.6133 5.42219C20.1533 6.22053 20.4267 7.23886 21.225 7.69886L22.8633 8.64386C22.6483 9.34053 22.5 10.0655 22.5 10.8322C22.5 11.5989 22.65 12.3239 22.8633 13.0205L21.225 13.9655C20.4267 14.4239 20.1533 15.4439 20.6133 16.2422C21.075 17.0455 22.105 17.3089 22.89 16.8539L24.5183 15.9155C25.5267 17.0022 26.84 17.7922 28.3333 18.1322V20.0005C28.3333 20.9205 29.08 21.6672 30 21.6672C30.92 21.6672 31.6667 20.9205 31.6667 20.0005V18.1322C33.16 17.7905 34.475 17.0022 35.4817 15.9155L37.11 16.8539C37.8933 17.3089 38.9233 17.0472 39.3867 16.2422C39.8467 15.4439 39.5733 14.4255 38.775 13.9655ZM30 13.3339C28.6217 13.3339 27.5 12.2122 27.5 10.8339C27.5 9.45553 28.6217 8.33386 30 8.33386C31.3783 8.33386 32.5 9.45553 32.5 10.8339C32.5 12.2122 31.3783 13.3339 30 13.3339ZM40 20.8672V25.0005C40 29.5955 36.2617 33.3339 31.6667 33.3339H21.6667V36.6672H28.3333C29.2533 36.6672 30 37.4139 30 38.3339C30 39.2539 29.2533 40.0005 28.3333 40.0005H11.6667C10.7467 40.0005 10 39.2539 10 38.3339C10 37.4139 10.7467 36.6672 11.6667 36.6672H18.3333V33.3339H8.33333C3.73833 33.3339 0 29.5955 0 25.0005V11.6672C0 7.07219 3.73833 3.33386 8.33333 3.33386H17.9967C16.6333 5.51053 15.8333 8.07553 15.8333 10.8339C15.8333 18.6572 22.1767 25.0005 30 25.0005C33.9033 25.0005 37.4383 23.4205 40 20.8672Z" fill="#00AA72"/>
</svg>
