<svg width="85" height="85" viewBox="0 0 85 85" fill="none" xmlns="http://www.w3.org/2000/svg">
<path d="M82.4435 70.1001L68.7786 56.4352C72.3111 50.6715 74.2012 44.0317 74.2012 37.1006C74.2012 27.1908 70.342 17.874 63.3347 10.8665C56.3272 3.85919 47.0106 0 37.1006 0C27.1907 0 17.8739 3.85919 10.8665 10.8665C3.85919 17.874 0 27.1908 0 37.1006C0 47.0106 3.85919 56.3273 10.8665 63.3348C17.8739 70.3422 27.1907 74.2014 37.1004 74.2014C44.0317 74.2014 50.6715 72.3111 56.4351 68.7786L70.1 82.4435C71.7485 84.0921 73.9402 85 76.2716 85C78.6031 85 80.7948 84.0921 82.4434 82.4437C84.0919 80.7952 84.9998 78.6033 84.9998 76.2721C85 73.9404 84.0919 71.7487 82.4435 70.1001ZM13.4492 60.7521C0.407734 47.7106 0.407734 26.4907 13.4492 13.4492C19.9698 6.92848 28.5352 3.66811 37.1006 3.66811C45.6662 3.66811 54.2314 6.92848 60.7521 13.4492C67.0697 19.7668 70.549 28.1663 70.549 37.1006C70.549 46.035 67.0697 54.4346 60.7521 60.7521C47.711 73.7935 26.4906 73.7938 13.4492 60.7521ZM79.8608 79.861C78.9023 80.8196 77.6276 81.3477 76.2718 81.3477C74.9161 81.3477 73.6414 80.8197 72.6828 79.861L59.5019 66.68C60.8421 65.6607 62.1236 64.5461 63.3348 63.3348C64.5459 62.1238 65.6607 60.8421 66.68 59.5019L79.861 72.6828C80.8197 73.6416 81.3478 74.9162 81.3478 76.2719C81.3477 77.6276 80.8196 78.9023 79.8608 79.861Z" fill="#00AA72"/>
<path d="M57.1874 17.0147C51.8223 11.6496 44.6889 8.69482 37.1014 8.69482C29.5138 8.69482 22.3805 11.6496 17.0152 17.0147C11.6501 22.3798 8.69531 29.5133 8.69531 37.1009C8.69531 44.6884 11.6501 51.8218 17.0152 57.1871C22.3805 62.5522 29.5138 65.5069 37.1014 65.5069C44.6889 65.5069 51.8223 62.5522 57.1874 57.1871C62.5525 51.8219 65.5074 44.6884 65.5074 37.1009C65.5074 29.5133 62.5525 22.3798 57.1874 17.0147ZM54.6047 54.6044C49.9294 59.2799 43.7133 61.8546 37.1012 61.8546C30.4891 61.8546 24.273 59.2797 19.5975 54.6044C14.922 49.929 12.3473 43.7129 12.3473 37.1009C12.3473 30.4888 14.9222 24.2727 19.5975 19.5974C24.2729 14.9221 30.4891 12.3472 37.1012 12.3472C43.7133 12.3472 49.9294 14.9219 54.6047 19.5974C59.28 24.2727 61.8551 30.4888 61.8551 37.1009C61.8551 43.7129 59.28 49.929 54.6047 54.6044Z" fill="#00AA72"/>
<path d="M37.0996 56.8084C28.6272 56.8084 21.7344 49.9156 21.7344 41.4434C21.7344 40.4348 22.552 39.6172 23.5605 39.6172C24.5691 39.6172 25.3867 40.4348 25.3867 41.4434C25.3867 47.9018 30.6409 53.1561 37.0996 53.1561C39.6288 53.1561 42.0366 52.3632 44.0619 50.8631C44.8726 50.2629 46.0161 50.4333 46.6164 51.2437C47.2166 52.0542 47.0462 53.1979 46.2357 53.798C43.5765 55.7675 40.4172 56.8084 37.0996 56.8084Z" fill="#010101"/>
<path d="M50.2507 46.5068C50.1066 46.5068 49.9601 46.4897 49.8139 46.4538C48.8345 46.2134 48.2352 45.2245 48.4756 44.245C48.6991 43.3344 48.8123 42.3916 48.8123 41.4433V32.7579C48.8123 26.2994 43.5581 21.0452 37.0996 21.0452C30.6411 21.0452 25.3867 26.2994 25.3867 32.7579C25.3867 33.7664 24.5691 34.584 23.5605 34.584C22.552 34.584 21.7344 33.7664 21.7344 32.7579C21.7344 24.2854 28.6272 17.3928 37.0996 17.3928C45.5718 17.3928 52.4646 24.2856 52.4646 32.7579V41.4433C52.4646 42.6848 52.3159 43.9202 52.0225 45.1156C51.8183 45.9488 51.0721 46.5068 50.2507 46.5068Z" fill="#010101"/>
<path d="M37.1023 49.1668C32.8436 49.1668 29.3789 45.7021 29.3789 41.4435V32.7582C29.3789 28.4994 32.8436 25.0347 37.1023 25.0347C38.1108 25.0347 38.9284 25.8523 38.9284 26.8608C38.9284 27.8694 38.1108 28.687 37.1023 28.687C34.8576 28.687 33.0312 30.5133 33.0312 32.7582V41.4435C33.0312 43.6881 34.8576 45.5145 37.1023 45.5145C39.347 45.5145 41.1733 43.6881 41.1733 41.4435V32.7582C41.1733 31.7497 41.9909 30.932 42.9995 30.932C44.008 30.932 44.8256 31.7497 44.8256 32.7582V41.4435C44.8256 45.7022 41.3609 49.1668 37.1023 49.1668Z" fill="#010101"/>
</svg>
