<svg width="96" height="96" viewBox="0 0 96 96" fill="none" xmlns="http://www.w3.org/2000/svg">
<path d="M80.5189 12.5665L67.5117 25.5737L70.4287 28.4907L83.4359 15.4835L80.5189 12.5665Z" fill="#010101"/>
<path d="M76.4328 37.3632L73.5156 34.4461L79.8904 28.0713C80.4638 27.4981 81.3202 27.314 82.0783 27.6005L86.687 29.3427L85.2283 33.2016L81.8656 31.9304L76.4328 37.3632Z" fill="#010101"/>
<path d="M61.5578 22.4885L58.6406 19.5714L64.0735 14.1385L62.8023 10.7758L66.6612 9.31714L68.4034 13.9259C68.6901 14.6844 68.5058 15.5404 67.9325 16.1138L61.5578 22.4885Z" fill="#010101"/>
<path d="M25.5697 67.4481L12.5625 80.4553L15.4795 83.3723L28.4867 70.3651L25.5697 67.4481Z" fill="#010101"/>
<path d="M14.6538 68.4715C14.4089 68.4715 14.1622 68.428 13.9248 68.3382L9.42969 66.6389L10.8884 62.7801L14.1374 64.0083L19.5703 58.5754L22.4874 61.4926L16.1127 67.8673C15.7187 68.2611 15.1913 68.4715 14.6538 68.4715Z" fill="#010101"/>
<path d="M29.3403 86.6216L27.5981 82.0128C27.3114 81.2544 27.4958 80.3984 28.069 79.8249L34.4437 73.4502L37.3609 76.3674L31.928 81.8002L33.1992 85.1629L29.3403 86.6216Z" fill="#010101"/>
<path d="M37.2223 9.70155C29.5806 11.8433 22.8224 16.1854 17.6787 22.2583C12.5946 28.261 9.42409 35.5386 8.50996 43.3043C8.38638 44.3538 7.49532 45.126 6.46399 45.126C6.38354 45.126 6.30216 45.1213 6.22022 45.1117C5.08895 44.9786 4.27963 43.9535 4.41277 42.822C5.42197 34.2483 8.9208 26.2154 14.5307 19.592C20.209 12.888 27.6707 8.09437 36.1091 5.72925L37.2223 9.70155Z" fill="#010101"/>
<path d="M58.7773 86.237C66.4191 84.0952 73.1773 79.7531 78.321 73.6803C83.4051 67.6775 86.5756 60.3999 87.4897 52.6342C87.6229 51.5028 88.6474 50.694 89.7795 50.8268C90.9107 50.9599 91.72 51.985 91.5869 53.1165C90.5777 61.6902 87.0789 69.7231 81.469 76.3465C75.7907 83.0505 68.3289 87.8442 59.8906 90.2093L58.7773 86.237Z" fill="#010101"/>
<path d="M89.2715 15.483C90.4402 14.3142 91.084 12.7602 91.084 11.1075C91.084 9.45475 90.4402 7.90063 89.2715 6.73185C86.8589 4.31929 82.9331 4.31911 80.5204 6.73185C78.1078 9.1446 78.1078 13.0702 80.5204 15.483C81.6891 16.6517 83.2431 17.2955 84.896 17.2955C86.5489 17.2955 88.1029 16.6517 89.2715 15.483ZM83.4375 9.64882C83.8397 9.24661 84.3678 9.04559 84.8962 9.04559C85.4242 9.04559 85.9526 9.24679 86.3547 9.64882C86.7443 10.0385 86.9588 10.5564 86.9588 11.1073C86.9588 11.6582 86.7443 12.1761 86.3547 12.5658C85.965 12.9555 85.4471 13.17 84.8962 13.17C84.3453 13.17 83.8272 12.9555 83.4377 12.5658C82.6333 11.7617 82.6333 10.4531 83.4375 9.64882Z" fill="#00AA72"/>
<path d="M94.1894 28.3551C91.7769 25.9426 87.8511 25.9424 85.4383 28.3551C83.0258 30.7679 83.0258 34.6935 85.4383 37.1062C86.6071 38.275 88.1612 38.9188 89.814 38.9188C91.4669 38.9188 93.0208 38.275 94.1894 37.1062C96.602 34.6935 96.602 30.7679 94.1894 28.3551ZM91.2723 34.1891C90.8826 34.5787 90.3647 34.7933 89.8138 34.7933C89.2629 34.7933 88.7448 34.5787 88.3553 34.1891C87.551 33.3848 87.551 32.0762 88.3553 31.2721C88.7575 30.8699 89.2856 30.6689 89.814 30.6689C90.342 30.6689 90.8704 30.8699 91.2725 31.2719C92.0765 32.0764 92.0765 33.385 91.2723 34.1891Z" fill="#00AA72"/>
<path d="M63.2739 12.3759C64.9268 12.3759 66.4808 11.7322 67.6494 10.5634C68.8181 9.39465 69.4619 7.84072 69.4619 6.18797C69.4619 4.53522 68.8181 2.9811 67.6494 1.81251C66.4806 0.643737 64.9267 0 63.2739 0C61.6212 0 60.067 0.643737 58.8984 1.81251C57.7297 2.98129 57.0859 4.53522 57.0859 6.18797C57.0859 7.84072 57.7297 9.39484 58.8984 10.5634C60.067 11.7322 61.621 12.3759 63.2739 12.3759ZM61.8152 4.72949C61.8154 4.72949 61.8154 4.72949 61.8152 4.72949C62.2049 4.33983 62.7228 4.12531 63.2737 4.12531C63.8246 4.12531 64.3426 4.33983 64.7322 4.72949C65.1219 5.11914 65.3364 5.63705 65.3364 6.18797C65.3364 6.73889 65.1219 7.2568 64.7322 7.64646C64.3426 8.03611 63.8246 8.25063 63.2737 8.25063C62.7228 8.25063 62.2049 8.03611 61.8152 7.64646C61.4256 7.2568 61.2111 6.73889 61.2111 6.18797C61.2111 5.63705 61.4258 5.11914 61.8152 4.72949Z" fill="#00AA72"/>
<path d="M11.1059 78.6431C9.453 78.6431 7.89907 79.2868 6.73048 80.4556C5.56171 81.6244 4.91797 83.1783 4.91797 84.831C4.91797 86.4838 5.56171 88.0379 6.73048 89.2067C7.93676 90.413 9.52144 91.016 11.1059 91.016C12.6904 91.016 14.2751 90.413 15.4816 89.2065C17.8941 86.7937 17.8941 82.8681 15.4816 80.4554C14.3128 79.2866 12.7589 78.6431 11.1059 78.6431ZM12.5646 86.2895C11.7602 87.0938 10.4517 87.0938 9.64745 86.2895C9.2578 85.8999 9.04328 85.382 9.04328 84.831C9.04328 84.2801 9.2578 83.7622 9.64745 83.3725C10.0371 82.9829 10.555 82.7684 11.1059 82.7684C11.6569 82.7684 12.175 82.9829 12.5644 83.3725C13.3687 84.1768 13.3687 85.4855 12.5646 86.2895Z" fill="#00AA72"/>
<path d="M10.5605 67.5834C12.9731 65.1706 12.9731 61.245 10.5605 58.8323C9.39175 57.6635 7.83763 57.0198 6.18488 57.0198C4.53194 57.0198 2.97801 57.6635 1.80942 58.8323C-0.60314 61.245 -0.60314 65.1706 1.80942 67.5834C3.0157 68.7897 4.60038 69.3927 6.18488 69.3927C7.76937 69.3927 9.35406 68.7899 10.5605 67.5834ZM4.72639 61.7494C5.11605 61.3598 5.63396 61.1453 6.18488 61.1453C6.7358 61.1453 7.2539 61.3598 7.64336 61.7494C8.44761 62.5537 8.44761 63.8624 7.64336 64.6664C6.83912 65.4705 5.53045 65.4709 4.7262 64.6664C3.92196 63.862 3.92214 62.5537 4.72639 61.7494Z" fill="#00AA72"/>
<path d="M32.727 83.5627C31.0741 83.5627 29.5202 84.2065 28.3516 85.3753C27.1828 86.544 26.5391 88.098 26.5391 89.7507C26.5391 91.4035 27.1828 92.9576 28.3516 94.1262C29.5204 95.2949 31.0743 95.9387 32.727 95.9387C34.3798 95.9387 35.9339 95.2949 37.1025 94.1262C38.2713 92.9574 38.915 91.4035 38.915 89.7507C38.915 88.098 38.2713 86.5438 37.1025 85.3753C35.9337 84.2063 34.38 83.5627 32.727 83.5627ZM34.1855 91.209C33.7959 91.5987 33.278 91.8132 32.727 91.8132C32.1761 91.8132 31.6582 91.5987 31.2685 91.209C30.8789 90.8194 30.6644 90.3014 30.6644 89.7505C30.6644 89.1996 30.8789 88.6817 31.2685 88.292C31.6582 87.9024 32.1761 87.6879 32.727 87.6879C33.278 87.6879 33.7959 87.9024 34.1855 88.292C34.5752 88.6817 34.7897 89.1996 34.7897 89.7505C34.7897 90.3014 34.5752 90.8195 34.1855 91.209Z" fill="#00AA72"/>
<path d="M47.9985 16.467C30.6279 16.467 16.4961 30.5989 16.4961 47.9694C16.4961 65.34 30.6279 79.4718 47.9985 79.4718C65.3691 79.4718 79.5009 65.34 79.5009 47.9694C79.5009 30.5989 65.3689 16.467 47.9985 16.467ZM74.5479 41.2819C73.2162 40.5133 71.5484 39.767 69.4676 39.0736C66.47 38.0743 62.9689 37.3093 59.1635 36.8043C58.6585 32.9989 57.8934 29.4978 56.8942 26.5002C56.2006 24.4195 55.4544 22.7516 54.6858 21.4199C64.4186 23.8724 72.0954 31.5494 74.5479 41.2819ZM47.9985 75.3465C46.8093 75.3465 44.7909 73.4577 43.0162 68.1342C42.1824 65.6323 41.5261 62.7332 41.0605 59.5779C43.311 59.7542 45.6349 59.8455 47.9983 59.8455C50.3617 59.8455 52.6858 59.7542 54.9361 59.5779C54.4707 62.7332 53.8144 65.6323 52.9804 68.1342C51.2061 73.4575 49.1877 75.3465 47.9985 75.3465ZM47.9985 55.72C45.4515 55.72 42.9609 55.6086 40.5707 55.3971C40.3593 53.0068 40.2478 50.5163 40.2478 47.9692C40.2478 45.4222 40.3592 42.9317 40.5707 40.5414C42.9609 40.3301 45.4515 40.2185 47.9985 40.2185C50.5455 40.2185 53.0361 40.3299 55.4263 40.5414C55.6376 42.9317 55.7492 45.4222 55.7492 47.9692C55.7492 50.5163 55.6378 53.0068 55.4263 55.3971C53.0359 55.6086 50.5453 55.72 47.9985 55.72ZM36.39 54.9073C33.2347 54.4419 30.3356 53.7856 27.8338 52.9515C22.5102 51.1771 20.6214 49.1585 20.6214 47.9692C20.6214 46.78 22.5102 44.7616 27.8338 42.987C30.3356 42.1531 33.2347 41.4968 36.39 41.0312C36.2138 43.2818 36.1225 45.6056 36.1225 47.9691C36.1225 50.3325 36.2138 52.6567 36.39 54.9073ZM47.9985 20.5924C49.1877 20.5924 51.2061 22.4812 52.9807 27.8047C53.8146 30.3065 54.4709 33.2057 54.9365 36.361C52.686 36.1847 50.3621 36.0934 47.9987 36.0934C45.6352 36.0934 43.3112 36.1847 41.0608 36.361C41.5262 33.2057 42.1825 30.3065 43.0166 27.8047C44.7907 22.4812 46.8091 20.5924 47.9985 20.5924ZM59.6069 41.0314C62.7622 41.4968 65.6614 42.1531 68.1632 42.9872C73.4867 44.7616 75.3756 46.7802 75.3756 47.9694C75.3756 49.1587 73.4867 51.1771 68.1632 52.9517C65.6614 53.7856 62.7622 54.4419 59.6069 54.9075C59.7832 52.6569 59.8745 50.3331 59.8745 47.9696C59.8745 45.6062 59.7832 43.282 59.6069 41.0314ZM41.311 21.4199C40.5424 22.7516 39.7961 24.4193 39.1026 26.5002C38.1034 29.4978 37.3383 32.9989 36.8333 36.8043C33.0279 37.3093 29.5268 38.0743 26.5292 39.0736C24.4486 39.7672 22.7806 40.5133 21.4489 41.2819C23.9014 31.5494 31.5784 23.8724 41.311 21.4199ZM21.4489 54.6568C22.7806 55.4254 24.4484 56.1717 26.5292 56.8651C29.5268 57.8644 33.0279 58.6294 36.8333 59.1344C37.3383 62.9398 38.1034 66.4409 39.1026 69.4385C39.7962 71.5192 40.5424 73.1869 41.311 74.5188C31.5784 72.0663 23.9014 64.3895 21.4489 54.6568ZM54.6858 74.5188C55.4544 73.1871 56.2007 71.5194 56.8942 69.4385C57.8934 66.4409 58.6585 62.9398 59.1635 59.1344C62.9689 58.6294 66.47 57.8644 69.4676 56.8651C71.5482 56.1715 73.216 55.4254 74.5479 54.6568C72.0954 64.3895 64.4186 72.0663 54.6858 74.5188Z" fill="#00AA72"/>
<path d="M37.191 11.8578C38.2431 12.5945 39.4691 12.9785 40.7271 12.9785C41.0881 12.9785 41.4519 12.947 41.8147 12.8829C43.4425 12.5958 44.8611 11.6922 45.8092 10.3381C46.7572 8.9841 47.1212 7.34204 46.8343 5.71423C46.2417 2.35397 43.0259 0.102861 39.6658 0.694844C38.038 0.981928 36.6195 1.88556 35.6716 3.2396C34.7235 4.59364 34.3593 6.2357 34.6464 7.86333C34.9335 9.49095 35.8371 10.9095 37.191 11.8578ZM40.3821 4.75753C40.5029 4.73615 40.6229 4.72603 40.7414 4.72603C41.723 4.72603 42.5955 5.43127 42.7718 6.43072C42.9693 7.55093 42.2188 8.62276 41.0986 8.82021C39.979 9.01841 38.9068 8.26723 38.7091 7.14702C38.5115 6.02681 39.2621 4.95498 40.3821 4.75753Z" fill="#00AA72"/>
<path d="M58.8094 84.0808C57.4553 83.1327 55.8133 82.7685 54.1855 83.0556C52.5576 83.3427 51.1391 84.2463 50.191 85.6004C49.243 86.9544 48.879 88.5965 49.1659 90.2243C49.6947 93.2226 52.3118 95.3382 55.2569 95.3382C55.6123 95.3382 55.9727 95.3072 56.3346 95.2437C57.9624 94.9566 59.3809 94.0529 60.3288 92.6989C61.2769 91.3449 61.641 89.7028 61.3539 88.0752C61.0669 86.4476 60.1632 85.0288 58.8094 84.0808ZM55.6183 91.181C54.4984 91.3796 53.4262 90.6278 53.2288 89.508C53.0313 88.3878 53.7817 87.3159 54.902 87.1185C56.0212 86.9201 57.094 87.6715 57.2914 88.7917C57.4887 89.9115 56.7383 90.9833 55.6183 91.181Z" fill="#00AA72"/>
</svg>
