<svg width="97" height="98" viewBox="0 0 97 98" fill="none" xmlns="http://www.w3.org/2000/svg">
<path d="M95.287 59.7379L87.5018 52.2966C86.5839 51.4192 85.241 51.1786 84.0804 51.6833C83.2135 52.0604 82.5758 52.7981 82.3085 53.6795H79.037V9.73052C79.0372 4.36521 74.7165 0 69.4058 0H27.5942C22.2835 0 17.963 4.36521 17.963 9.73052V12.6466H14.6917C14.4246 11.7654 13.7867 11.0275 12.9198 10.6504C11.759 10.1457 10.4161 10.3865 9.49823 11.2637L1.71304 18.7052C0.624438 19.7457 0 21.2109 0 22.7251C0 24.2393 0.624438 25.7043 1.71304 26.745L9.49842 34.1865C10.0975 34.7592 10.8775 35.0605 11.6697 35.0605C12.0915 35.0605 12.5166 34.9751 12.9198 34.7998C13.7867 34.4225 14.4246 33.6848 14.6919 32.8034H17.9632V88.2693C17.9632 93.6348 22.2839 98 27.5944 98H69.406C74.7167 98 79.0372 93.6348 79.0372 88.2693V73.8361H82.3085C82.5758 74.7173 83.2135 75.4554 84.0806 75.8325C84.4838 76.0078 84.9089 76.0932 85.3306 76.0932C86.1229 76.0932 86.9031 75.7917 87.5018 75.2192L95.287 67.7777C96.3758 66.737 97 65.272 97 63.7578C97 62.2436 96.3758 60.7784 95.287 59.7379ZM74.8692 88.2693C74.8692 91.3128 72.4183 93.7891 69.406 93.7891H27.5942C24.5817 93.7891 22.131 91.3128 22.131 88.2693V83.4374H74.8692V88.2693ZM92.4224 64.7188L85.8045 71.0446C85.2369 70.1892 84.2712 69.6252 83.1777 69.6252H51.0451C50.7909 69.6252 50.584 69.4162 50.584 69.1593V64.8928H46.416V69.1593C46.416 71.7381 48.4926 73.8361 51.0451 73.8361H74.869V79.2265H22.131V32.8034H37.3037L38.8536 28.5925H13.8221C12.7286 28.5925 11.763 29.1565 11.1955 30.0119L4.57738 23.6861C4.31328 23.4337 4.16778 23.0922 4.16778 22.7251C4.16778 22.358 4.31328 22.0165 4.57738 21.764L11.1955 15.4384C11.7631 16.2936 12.7286 16.8577 13.8221 16.8577H45.9549C46.2091 16.8577 46.416 17.0667 46.416 17.3238V26.7967H50.584V17.3236C50.584 14.7446 48.5074 12.6466 45.9549 12.6466H22.131V9.73052C22.131 6.68716 24.5819 4.21094 27.5942 4.21094H69.4058C72.4183 4.21094 74.869 6.68716 74.869 9.73052V53.6793H63.1184V57.8902H83.1779C84.2714 57.8902 85.237 57.3262 85.8045 56.471L92.4226 62.7966C92.6867 63.049 92.8322 63.3905 92.8322 63.7576C92.8322 64.1247 92.6867 64.4664 92.4224 64.7188Z" fill="black"/>
<path d="M50.0394 43.7726C49.1636 43.4598 48.1185 43.0611 47.4426 42.6427C47.2349 42.5143 47.1455 42.2463 47.2435 42.021C47.2442 42.0191 47.2452 42.0174 47.2459 42.0155C47.3211 41.8459 47.4308 41.7381 47.5714 41.6952C48.3097 41.4705 48.8273 41.6941 49.0878 41.8662L49.1956 41.9502C50.1036 42.6584 51.4308 42.5487 52.1488 41.6449C52.8803 40.724 52.7194 39.38 51.7987 38.6609C51.7987 38.6609 51.5283 38.4507 51.4988 38.4302C51.2125 38.2294 50.7209 37.9345 50.0676 37.7092C50.0074 36.4145 48.7932 35.4248 47.4388 35.7747C46.526 36.0105 45.9048 36.8683 45.9048 37.8204V37.8359C44.4562 38.4549 43.3955 39.7909 43.0897 41.4303C42.7743 43.121 43.3371 44.7723 44.5585 45.7404C45.6519 46.6065 47.1711 47.2146 48.6501 47.7429C48.9866 47.8631 49.4209 48.101 49.3083 48.778C49.238 49.2001 48.8783 49.9159 47.9749 49.9221C46.8886 49.9312 46.6607 49.8979 45.918 49.4122C44.9596 48.7851 43.6522 48.997 43.0065 49.9485C42.3436 50.9254 42.6081 52.2566 43.5842 52.9019C44.4577 53.4792 45.1669 53.795 45.9105 53.9621C45.9696 55.0985 46.9178 55.9967 48.0668 55.9544C49.1981 55.9127 50.0729 54.9277 50.0729 53.7841V53.7134C51.7953 52.9985 53.0938 51.4296 53.4189 49.4763C53.8412 46.9373 52.4832 44.6452 50.0394 43.7726Z" fill="#00AA72"/>
<path d="M47.5678 25.7957C36.6339 25.7957 27.7383 34.7828 27.7383 45.8296C27.7383 56.8762 36.6337 65.8633 47.5678 65.8633C58.5019 65.8633 67.3973 56.8762 67.3973 45.8296C67.3973 34.7828 58.5019 25.7957 47.5678 25.7957ZM47.5678 61.6524C38.9319 61.6524 31.9062 54.5543 31.9062 45.8296C31.9062 37.1047 38.9319 30.0066 47.5678 30.0066C56.2036 30.0066 63.2293 37.1047 63.2293 45.8296C63.2293 54.5543 56.2036 61.6524 47.5678 61.6524Z" fill="#00AA72"/>
</svg>
