<svg width="229" height="63" viewBox="0 0 229 63" fill="none" xmlns="http://www.w3.org/2000/svg">
<g clip-path="url(#clip0_7883_6417)">
<path d="M58.8306 62.7298L20.7605 33.3498V47.3498H17.0605V25.8198L61.0905 59.7998L58.8306 62.7298Z" fill="url(#paint0_linear_7883_6417)"/>
<path d="M45.2193 41.58L17.5293 20.15V15.48L41.5193 34.05V17.28H45.2193V41.58Z" fill="url(#paint1_linear_7883_6417)"/>
<path d="M31.27 62.54C14.03 62.54 0 48.51 0 31.27C0 14.03 14.03 0 31.27 0C48.51 0 62.54 14.03 62.54 31.27C62.54 48.51 48.51 62.54 31.27 62.54ZM31.27 3.7C16.07 3.7 3.7 16.07 3.7 31.27C3.7 46.47 16.07 58.84 31.27 58.84C46.47 58.84 58.84 46.47 58.84 31.27C58.84 16.07 46.47 3.7 31.27 3.7Z" fill="url(#paint2_linear_7883_6417)"/>
<path d="M76.8398 20.7599C76.8398 19.1399 77.1398 17.6299 77.7598 16.2399C78.3798 14.8499 79.1998 13.6499 80.2598 12.6399C81.3098 11.6299 82.5498 10.8299 83.9698 10.2499C85.3898 9.66988 86.9098 9.37988 88.5398 9.37988C90.1698 9.37988 91.6798 9.66988 93.1098 10.2499C94.5298 10.8299 95.7698 11.6199 96.8198 12.6399C97.8698 13.6499 98.6998 14.8499 99.3198 16.2399C99.9398 17.6299 100.24 19.1399 100.24 20.7599C100.24 22.3799 99.9698 23.7499 99.4198 25.0599C98.8698 26.3699 98.1098 27.5199 97.1498 28.5399L99.5198 31.3499L96.6398 33.7499L94.1798 30.7799C93.3398 31.1999 92.4498 31.5299 91.5098 31.7799C90.5698 32.0199 89.5898 32.1399 88.5598 32.1399C86.9398 32.1399 85.4198 31.8499 83.9898 31.2699C82.5698 30.6899 81.3298 29.8999 80.2798 28.8799C79.2298 27.8699 78.3998 26.6699 77.7798 25.2799C77.1698 23.8899 76.8598 22.3799 76.8598 20.7599H76.8398ZM80.5398 20.7599C80.5398 21.8599 80.7499 22.8699 81.1599 23.8099C81.5699 24.7499 82.1399 25.5599 82.8699 26.2399C83.5999 26.9299 84.4399 27.4599 85.4099 27.8399C86.3799 28.2199 87.4198 28.4099 88.5398 28.4099C89.6598 28.4099 90.6698 28.1999 91.6398 27.7799L88.3198 23.8599L91.1998 21.4599L94.7098 25.6599C95.2798 25.0099 95.7198 24.2699 96.0398 23.4499C96.3598 22.6299 96.5098 21.7299 96.5098 20.7599C96.5098 19.6399 96.2998 18.6199 95.8898 17.6799C95.4798 16.7399 94.9098 15.9399 94.1798 15.2599C93.4498 14.5899 92.6098 14.0499 91.6498 13.6599C90.6898 13.2699 89.6498 13.0799 88.5398 13.0799C87.4298 13.0799 86.3799 13.2699 85.4099 13.6599C84.4399 14.0499 83.5899 14.5799 82.8699 15.2599C82.1399 15.9299 81.5699 16.7399 81.1599 17.6799C80.7499 18.6199 80.5398 19.6399 80.5398 20.7599Z" fill="#92278F"/>
<path d="M102.369 16.0197H106.639V19.7197C106.909 19.0297 107.259 18.4297 107.679 17.9297C108.099 17.4397 108.559 17.0197 109.069 16.6797C109.579 16.3397 110.109 16.0997 110.679 15.9397C111.249 15.7797 111.829 15.6997 112.419 15.6997C113.319 15.6997 114.159 15.8697 114.919 16.2197C115.679 16.5697 116.339 17.0897 116.889 17.7797C117.449 18.4697 117.879 19.3297 118.179 20.3597C118.489 21.3797 118.639 22.5697 118.639 23.9097V31.8097H114.369V25.2097C114.369 24.6397 114.349 24.0197 114.309 23.3497C114.269 22.6797 114.159 22.0397 113.989 21.4497C113.819 20.8597 113.569 20.3697 113.229 19.9797C112.889 19.5897 112.429 19.3997 111.839 19.3997C111.079 19.3997 110.419 19.5197 109.869 19.7497C109.309 19.9797 108.829 20.2797 108.409 20.6297C107.999 20.9897 107.649 21.3797 107.369 21.7997C107.079 22.2197 106.839 22.6097 106.629 22.9697V31.8197H102.359V16.0197H102.369Z" fill="#92278F"/>
<path d="M135.04 29.9597C134.24 30.6997 133.31 31.2497 132.26 31.5997C131.21 31.9597 130.11 32.1397 128.97 32.1397C127.83 32.1397 126.82 31.9797 125.79 31.6497C124.77 31.3197 123.86 30.8197 123.07 30.1497C122.28 29.4797 121.64 28.6197 121.16 27.5897C120.67 26.5597 120.43 25.3397 120.43 23.9197C120.43 22.4997 120.67 21.2897 121.16 20.2497C121.64 19.2197 122.28 18.3697 123.07 17.6897C123.86 17.0097 124.77 16.5197 125.79 16.1897C126.81 15.8597 127.87 15.6997 128.97 15.6997C129.94 15.6997 130.93 15.8597 131.94 16.1697C132.95 16.4897 133.87 16.9597 134.69 17.5897C135.51 18.2197 136.18 19.0097 136.7 19.9597C137.22 20.9097 137.47 21.9997 137.47 23.2497V25.2697H124.89C124.97 25.7097 125.11 26.1197 125.3 26.4997C125.49 26.8797 125.75 27.2097 126.07 27.4997C126.4 27.7797 126.8 28.0097 127.27 28.1797C127.74 28.3497 128.31 28.4297 128.96 28.4297C129.74 28.4297 130.42 28.3397 131 28.1497C131.58 27.9597 132.06 27.6897 132.44 27.3297L135.03 29.9497L135.04 29.9597ZM133.08 22.6897C133 22.2497 132.87 21.8297 132.72 21.4297C132.56 21.0297 132.33 20.6797 132.02 20.3897C131.71 20.0997 131.31 19.8597 130.82 19.6797C130.32 19.4997 129.71 19.4097 128.97 19.4097C128.3 19.4097 127.72 19.4997 127.25 19.6797C126.78 19.8597 126.38 20.0997 126.05 20.3897C125.72 20.6897 125.47 21.0297 125.28 21.4297C125.09 21.8297 124.95 22.2497 124.87 22.6897H133.09H133.08Z" fill="#92278F"/>
<path d="M147.15 32.14C146.5 32.14 145.81 32.07 145.1 31.92C144.38 31.77 143.68 31.57 142.98 31.32C142.28 31.07 141.63 30.76 141.01 30.4C140.39 30.04 139.86 29.64 139.41 29.2L141.78 26.36C142.07 26.72 142.44 27.06 142.87 27.39C143.3 27.72 143.76 28.01 144.26 28.26C144.76 28.51 145.26 28.71 145.76 28.86C146.27 29.01 146.73 29.08 147.15 29.08C147.66 29.08 148.13 29.06 148.59 29.02C149.04 28.98 149.44 28.9 149.79 28.78C150.14 28.66 150.41 28.51 150.61 28.32C150.81 28.13 150.91 27.89 150.91 27.59C150.91 27.17 150.62 26.85 150.04 26.64C149.46 26.43 148.74 26.25 147.89 26.1C147.04 25.95 146.1 25.79 145.09 25.63C144.08 25.46 143.15 25.21 142.29 24.89C141.44 24.56 140.72 24.11 140.14 23.53C139.56 22.95 139.27 22.19 139.27 21.24C139.27 20.44 139.5 19.7 139.95 19.01C140.4 18.33 140.99 17.74 141.7 17.26C142.42 16.78 143.23 16.4 144.13 16.12C145.04 15.85 145.94 15.71 146.85 15.71C148.49 15.71 149.97 15.97 151.27 16.5C152.58 17.03 153.71 17.76 154.68 18.71L152.25 21.52C151.7 20.53 150.93 19.82 149.93 19.4C148.93 18.98 147.9 18.77 146.85 18.77C146.41 18.77 145.98 18.81 145.57 18.88C145.16 18.95 144.8 19.07 144.5 19.21C144.19 19.36 143.95 19.55 143.76 19.79C143.57 20.03 143.48 20.32 143.48 20.66C143.48 21.12 143.77 21.47 144.35 21.69C144.93 21.91 145.66 22.09 146.53 22.23C147.4 22.37 148.35 22.52 149.36 22.69C150.37 22.86 151.31 23.13 152.17 23.5C153.03 23.87 153.75 24.39 154.32 25.06C154.89 25.73 155.15 26.64 155.11 27.78C155.09 28.39 154.93 28.92 154.62 29.38C154.31 29.83 153.89 30.24 153.34 30.6C153 30.85 152.57 31.07 152.04 31.26C151.51 31.45 150.96 31.61 150.37 31.73C149.78 31.85 149.2 31.96 148.63 32.03C148.06 32.1 147.57 32.14 147.14 32.14H147.15Z" fill="#92278F"/>
<path d="M161.43 26.0999C161.43 26.5799 161.48 26.9599 161.57 27.2199C161.66 27.4799 161.8 27.6799 161.97 27.7999C162.14 27.9299 162.33 27.9999 162.54 28.0199C162.75 28.0399 162.98 28.0499 163.24 28.0499H166.59V31.7799H161.15C160.73 31.7799 160.31 31.7299 159.9 31.6199C159.49 31.5099 159.13 31.3199 158.81 31.0399C158.49 30.7599 158.24 30.3799 158.04 29.8999C157.84 29.4199 157.74 28.8199 157.74 28.0799V11.6899H161.44V16.0199H165.71V19.7199H161.44V26.0999H161.43Z" fill="#92278F"/>
<path d="M84.52 53.28C83.4933 53.28 82.5733 53.14 81.76 52.86C80.96 52.5667 80.2733 52.14 79.7 51.58C79.14 51.0067 78.7133 50.3 78.42 49.46C78.1267 48.62 77.98 47.6467 77.98 46.54C77.98 45.42 78.1267 44.4267 78.42 43.56C78.7267 42.6933 79.16 41.96 79.72 41.36C80.2933 40.7467 80.9667 40.2867 81.74 39.98C82.5133 39.6733 83.3733 39.52 84.32 39.52C85.0533 39.52 85.7333 39.62 86.36 39.82C86.9867 40.0067 87.5267 40.28 87.98 40.64C88.4333 41 88.7867 41.44 89.04 41.96C89.3067 42.48 89.4467 43.0667 89.46 43.72L86.8 44.42C86.8 43.86 86.6733 43.3933 86.42 43.02C86.18 42.6467 85.86 42.3667 85.46 42.18C85.0733 41.98 84.66 41.88 84.22 41.88C83.8333 41.88 83.4467 41.96 83.06 42.12C82.6867 42.2667 82.34 42.52 82.02 42.88C81.7133 43.2267 81.46 43.6867 81.26 44.26C81.0733 44.8333 80.98 45.5333 80.98 46.36C80.98 47.44 81.1333 48.3133 81.44 48.98C81.76 49.6467 82.1933 50.14 82.74 50.46C83.2867 50.7667 83.9 50.92 84.58 50.92C85.3133 50.92 85.88 50.7733 86.28 50.48C86.6933 50.1733 86.9867 49.7867 87.16 49.32C87.3467 48.84 87.4467 48.3333 87.46 47.8L89.98 48.22C89.9667 48.9267 89.86 49.5933 89.66 50.22C89.46 50.8333 89.1467 51.3733 88.72 51.84C88.2933 52.2933 87.7333 52.6467 87.04 52.9C86.3467 53.1533 85.5067 53.28 84.52 53.28ZM91.9137 53V38.7H94.7538V53H91.9137ZM102.162 53.28C101.109 53.28 100.182 53.0733 99.382 52.66C98.582 52.2333 97.9554 51.6133 97.502 50.8C97.0487 49.9733 96.822 48.9467 96.822 47.72C96.822 46.4933 97.0487 45.4733 97.502 44.66C97.9687 43.8467 98.602 43.24 99.402 42.84C100.215 42.4267 101.135 42.22 102.162 42.22C103.215 42.22 104.142 42.4267 104.942 42.84C105.755 43.2533 106.389 43.8733 106.842 44.7C107.309 45.5133 107.542 46.5333 107.542 47.76C107.542 49 107.302 50.0333 106.822 50.86C106.355 51.6733 105.715 52.28 104.902 52.68C104.102 53.08 103.189 53.28 102.162 53.28ZM102.262 51.14C102.782 51.14 103.215 51.02 103.562 50.78C103.922 50.54 104.189 50.18 104.362 49.7C104.549 49.2067 104.642 48.6133 104.642 47.92C104.642 47.1867 104.542 46.5667 104.342 46.06C104.155 45.54 103.875 45.1467 103.502 44.88C103.129 44.6 102.655 44.46 102.082 44.46C101.589 44.46 101.162 44.58 100.802 44.82C100.442 45.0467 100.169 45.4067 99.982 45.9C99.7954 46.38 99.702 46.9733 99.702 47.68C99.702 48.8133 99.9287 49.6733 100.382 50.26C100.835 50.8467 101.462 51.14 102.262 51.14ZM113.15 53.28C111.923 53.28 110.996 52.8667 110.37 52.04C109.756 51.2 109.45 49.9267 109.45 48.22V42.5H112.33V47.86C112.33 48.8867 112.483 49.6533 112.79 50.16C113.096 50.6533 113.563 50.9 114.19 50.9C114.563 50.9 114.89 50.8067 115.17 50.62C115.45 50.4333 115.69 50.1733 115.89 49.84C116.09 49.5067 116.236 49.1133 116.33 48.66C116.436 48.2067 116.496 47.72 116.51 47.2V42.5H119.39V48.72V53H117.07L117.05 49.72H116.69C116.49 50.5467 116.236 51.2267 115.93 51.76C115.636 52.28 115.256 52.6667 114.79 52.92C114.336 53.16 113.79 53.28 113.15 53.28ZM125.851 53.28C124.971 53.28 124.198 53.0533 123.531 52.6C122.878 52.1467 122.371 51.5067 122.011 50.68C121.651 49.8533 121.471 48.8733 121.471 47.74C121.471 46.6733 121.631 45.7267 121.951 44.9C122.271 44.0733 122.744 43.4267 123.371 42.96C123.998 42.4933 124.778 42.26 125.711 42.26C126.391 42.26 126.964 42.3867 127.431 42.64C127.898 42.8933 128.278 43.2667 128.571 43.76C128.878 44.24 129.118 44.82 129.291 45.5H129.751C129.658 45.0733 129.571 44.66 129.491 44.26C129.424 43.8467 129.371 43.4533 129.331 43.08C129.291 42.7067 129.271 42.38 129.271 42.1V38.7H132.151V47.84V53H129.751V49.96H129.351C129.204 50.7067 128.978 51.3267 128.671 51.82C128.364 52.3133 127.971 52.68 127.491 52.92C127.024 53.16 126.478 53.28 125.851 53.28ZM126.811 50.92C127.251 50.92 127.624 50.8267 127.931 50.64C128.238 50.4533 128.491 50.2133 128.691 49.92C128.891 49.6133 129.038 49.2867 129.131 48.94C129.224 48.58 129.271 48.2467 129.271 47.94V47.56C129.271 47.3067 129.231 47.0467 129.151 46.78C129.084 46.5 128.984 46.2267 128.851 45.96C128.718 45.6933 128.551 45.46 128.351 45.26C128.151 45.0467 127.918 44.88 127.651 44.76C127.384 44.64 127.091 44.58 126.771 44.58C126.291 44.58 125.884 44.7133 125.551 44.98C125.218 45.2467 124.958 45.62 124.771 46.1C124.584 46.5667 124.491 47.1133 124.491 47.74C124.491 48.38 124.584 48.94 124.771 49.42C124.971 49.9 125.244 50.2733 125.591 50.54C125.938 50.7933 126.344 50.92 126.811 50.92ZM139.554 53V39.8H142.434V53H139.554ZM140.934 48.06V45.7H148.634V48.06H140.934ZM140.934 42.26V39.8H149.374V42.26H140.934ZM151.289 53V42.5H154.169V53H151.289ZM152.749 40.92C152.189 40.92 151.755 40.8067 151.449 40.58C151.155 40.34 151.009 39.9933 151.009 39.54C151.009 39.0733 151.155 38.72 151.449 38.48C151.755 38.24 152.189 38.12 152.749 38.12C153.322 38.12 153.755 38.24 154.049 38.48C154.355 38.72 154.509 39.0733 154.509 39.54C154.509 39.98 154.355 40.32 154.049 40.56C153.755 40.8 153.322 40.92 152.749 40.92ZM156.836 53V46.64V42.5H159.196L159.176 45.64H159.576C159.749 44.88 159.996 44.2467 160.316 43.74C160.636 43.2333 161.036 42.8533 161.516 42.6C162.009 42.3467 162.589 42.22 163.256 42.22C164.469 42.22 165.389 42.6467 166.016 43.5C166.656 44.3533 166.976 45.6933 166.976 47.52V53H164.076V47.84C164.076 46.72 163.909 45.9067 163.576 45.4C163.256 44.88 162.782 44.62 162.156 44.62C161.622 44.62 161.176 44.7867 160.816 45.12C160.456 45.4533 160.182 45.8933 159.996 46.44C159.822 46.9733 159.729 47.5733 159.716 48.24V53H156.836ZM174.213 53.28C173.159 53.28 172.233 53.0733 171.433 52.66C170.633 52.2333 170.006 51.6133 169.553 50.8C169.099 49.9733 168.873 48.9467 168.873 47.72C168.873 46.4933 169.099 45.4733 169.553 44.66C170.019 43.8467 170.653 43.24 171.453 42.84C172.266 42.4267 173.186 42.22 174.213 42.22C175.266 42.22 176.193 42.4267 176.993 42.84C177.806 43.2533 178.439 43.8733 178.893 44.7C179.359 45.5133 179.593 46.5333 179.593 47.76C179.593 49 179.353 50.0333 178.873 50.86C178.406 51.6733 177.766 52.28 176.953 52.68C176.153 53.08 175.239 53.28 174.213 53.28ZM174.313 51.14C174.833 51.14 175.266 51.02 175.613 50.78C175.973 50.54 176.239 50.18 176.413 49.7C176.599 49.2067 176.693 48.6133 176.693 47.92C176.693 47.1867 176.593 46.5667 176.393 46.06C176.206 45.54 175.926 45.1467 175.553 44.88C175.179 44.6 174.706 44.46 174.133 44.46C173.639 44.46 173.213 44.58 172.853 44.82C172.493 45.0467 172.219 45.4067 172.033 45.9C171.846 46.38 171.753 46.9733 171.753 47.68C171.753 48.8133 171.979 49.6733 172.433 50.26C172.886 50.8467 173.513 51.14 174.313 51.14ZM181.64 56.36V47.84V42.5H184.02L184.04 45.42L184.4 45.44C184.52 44.7333 184.727 44.14 185.02 43.66C185.327 43.18 185.72 42.82 186.2 42.58C186.68 42.34 187.234 42.22 187.86 42.22C188.794 42.22 189.594 42.4533 190.26 42.92C190.927 43.3733 191.434 44.02 191.78 44.86C192.14 45.6867 192.32 46.6667 192.32 47.8C192.32 48.8533 192.16 49.7933 191.84 50.62C191.52 51.4333 191.04 52.08 190.4 52.56C189.774 53.04 188.987 53.28 188.04 53.28C187.374 53.28 186.807 53.1533 186.34 52.9C185.887 52.6467 185.507 52.2933 185.2 51.84C184.907 51.3733 184.66 50.82 184.46 50.18H184.08C184.16 50.54 184.234 50.9067 184.3 51.28C184.367 51.6533 184.42 52.02 184.46 52.38C184.5 52.7267 184.52 53.0667 184.52 53.4V56.36H181.64ZM187.04 50.98C187.52 50.98 187.927 50.8467 188.26 50.58C188.594 50.3133 188.847 49.94 189.02 49.46C189.207 48.98 189.3 48.4333 189.3 47.82C189.3 47.1533 189.207 46.5867 189.02 46.12C188.834 45.64 188.567 45.2667 188.22 45C187.874 44.7333 187.46 44.6 186.98 44.6C186.554 44.6 186.187 44.6933 185.88 44.88C185.574 45.0667 185.314 45.3133 185.1 45.62C184.9 45.9267 184.754 46.26 184.66 46.62C184.567 46.9667 184.52 47.3 184.52 47.62V48C184.52 48.2533 184.554 48.52 184.62 48.8C184.687 49.0667 184.794 49.3333 184.94 49.6C185.087 49.8533 185.26 50.0867 185.46 50.3C185.66 50.5 185.894 50.6667 186.16 50.8C186.427 50.92 186.72 50.98 187.04 50.98ZM198.731 53.28C198.024 53.28 197.384 53.2133 196.811 53.08C196.238 52.9467 195.744 52.7533 195.331 52.5C194.918 52.2467 194.584 51.9467 194.331 51.6C194.078 51.24 193.911 50.84 193.831 50.4L196.031 49.5C196.084 49.7933 196.231 50.0667 196.471 50.32C196.711 50.5733 197.031 50.78 197.431 50.94C197.844 51.0867 198.338 51.16 198.911 51.16C199.524 51.16 199.998 51.0733 200.331 50.9C200.664 50.7133 200.831 50.4533 200.831 50.12C200.831 49.8667 200.738 49.6667 200.551 49.52C200.364 49.3733 200.091 49.2467 199.731 49.14C199.371 49.0333 198.938 48.9333 198.431 48.84C197.938 48.72 197.431 48.5933 196.911 48.46C196.404 48.3267 195.931 48.14 195.491 47.9C195.064 47.66 194.711 47.3467 194.431 46.96C194.164 46.56 194.031 46.0533 194.031 45.44C194.031 44.8 194.204 44.24 194.551 43.76C194.898 43.28 195.404 42.9067 196.071 42.64C196.738 42.36 197.551 42.22 198.511 42.22C199.378 42.22 200.138 42.34 200.791 42.58C201.444 42.8067 201.978 43.14 202.391 43.58C202.818 44.0067 203.104 44.52 203.251 45.12L200.911 45.9C200.858 45.58 200.724 45.3 200.511 45.06C200.311 44.82 200.038 44.64 199.691 44.52C199.358 44.4 198.964 44.34 198.511 44.34C197.938 44.34 197.491 44.4333 197.171 44.62C196.864 44.8067 196.711 45.0533 196.711 45.36C196.711 45.6133 196.811 45.82 197.011 45.98C197.224 46.14 197.518 46.2733 197.891 46.38C198.264 46.4733 198.704 46.5733 199.211 46.68C199.744 46.7867 200.264 46.9133 200.771 47.06C201.278 47.1933 201.731 47.3733 202.131 47.6C202.544 47.8267 202.871 48.1267 203.111 48.5C203.351 48.8733 203.471 49.3533 203.471 49.94C203.471 50.6333 203.284 51.2333 202.911 51.74C202.538 52.2333 201.998 52.6133 201.291 52.88C200.584 53.1467 199.731 53.28 198.731 53.28ZM209.059 53L213.579 39.8H217.779L222.299 53H219.179L215.839 42.08H215.539L212.179 53H209.059ZM211.599 50.4V48.44H220.179V50.4H211.599ZM224.124 53V39.8H227.064V53H224.124Z" fill="white"/>
</g>
<defs>
<linearGradient id="paint0_linear_7883_6417" x1="39.0705" y1="62.7298" x2="39.0705" y2="25.8198" gradientUnits="userSpaceOnUse">
<stop stop-color="#F58220"/>
<stop offset="1" stop-color="#9A51A0"/>
</linearGradient>
<linearGradient id="paint1_linear_7883_6417" x1="31.3693" y1="41.58" x2="31.3693" y2="15.48" gradientUnits="userSpaceOnUse">
<stop stop-color="#F58220"/>
<stop offset="1" stop-color="#9A51A0"/>
</linearGradient>
<linearGradient id="paint2_linear_7883_6417" x1="31.27" y1="62.54" x2="31.27" y2="0" gradientUnits="userSpaceOnUse">
<stop stop-color="#F58220"/>
<stop offset="1" stop-color="#9A51A0"/>
</linearGradient>
<clipPath id="clip0_7883_6417">
<rect width="229" height="63" fill="white"/>
</clipPath>
</defs>
</svg>
