<svg width="19" height="15" viewBox="0 0 19 15" fill="none" xmlns="http://www.w3.org/2000/svg">
<path d="M11.072 14.6881C11.2214 13.9841 11.4347 13.2587 11.712 12.5121C12.0107 11.7654 12.384 11.0721 12.832 10.4321C13.28 9.79207 13.824 9.29074 14.464 8.92807V8.80007L1.95503e-05 9.15207V5.50407L14.464 5.88807V5.76007C13.8027 5.29074 13.2374 4.74674 12.768 4.12807C12.2987 3.48807 11.9147 2.81607 11.616 2.11207C11.3174 1.40807 11.0827 0.704069 10.912 6.96182e-05H15.04C15.168 0.874736 15.3814 1.7174 15.68 2.52807C16 3.33874 16.3947 4.06407 16.864 4.70407C17.3547 5.34407 17.9414 5.85607 18.624 6.24007V8.41607C17.6427 8.99207 16.8534 9.83474 16.256 10.9441C15.6587 12.0321 15.2534 13.2801 15.04 14.6881H11.072Z" fill="black"/>
</svg>
