<svg width="34" height="40" viewBox="0 0 34 40" fill="none" xmlns="http://www.w3.org/2000/svg">
<path d="M20 11.6667V0.766667C21.5418 1.34889 22.9421 2.25219 24.1083 3.41667L29.915 9.22667C31.0808 10.3915 31.9848 11.7915 32.5667 13.3333H21.6667C21.2246 13.3333 20.8007 13.1577 20.4882 12.8452C20.1756 12.5326 20 12.1087 20 11.6667ZM33.3333 17.475V31.6667C33.3307 33.876 32.4519 35.9941 30.8896 37.5563C29.3274 39.1185 27.2093 39.9974 25 40H8.33333C6.12401 39.9974 4.00593 39.1185 2.4437 37.5563C0.88147 35.9941 0.00264643 33.876 0 31.6667V8.33333C0.00264643 6.12401 0.88147 4.00593 2.4437 2.4437C4.00593 0.88147 6.12401 0.00264643 8.33333 0L15.8583 0C16.13 0 16.3983 0.0216667 16.6667 0.04V11.6667C16.6667 12.9927 17.1935 14.2645 18.1311 15.2022C19.0688 16.1399 20.3406 16.6667 21.6667 16.6667H33.2933C33.3117 16.935 33.3333 17.2033 33.3333 17.475ZM24.54 23.8517C24.2353 23.5319 23.8161 23.3461 23.3746 23.3351C22.933 23.3242 22.5051 23.489 22.185 23.7933L16.185 29.5117C16.0247 29.6729 15.833 29.7997 15.6219 29.8841C15.4108 29.9686 15.1846 30.0089 14.9573 30.0027C14.7299 29.9964 14.5063 29.9437 14.3001 29.8478C14.0939 29.7519 13.9096 29.6148 13.7583 29.445L11.11 27.0883C10.9465 26.9426 10.7559 26.8304 10.5491 26.7583C10.3422 26.6862 10.1232 26.6556 9.90454 26.6681C9.46289 26.6934 9.04939 26.8931 8.755 27.2233C8.60923 27.3868 8.4971 27.5774 8.42499 27.7843C8.35289 27.9911 8.32223 28.2101 8.33476 28.4288C8.36008 28.8704 8.55981 29.2839 8.89 29.5783L11.4633 31.8683C12.3961 32.8013 13.6599 33.3279 14.9792 33.3332C16.2985 33.3385 17.5664 32.8221 18.5067 31.8967L24.4817 26.2067C24.8015 25.902 24.9873 25.4828 24.9982 25.0412C25.0091 24.5997 24.8443 24.1718 24.54 23.8517Z" fill="#00AA72"/>
</svg>
