<svg width="45" height="45" viewBox="0 0 45 45" fill="none" xmlns="http://www.w3.org/2000/svg">
<path d="M44.8875 27.4474L39.2531 11.9505C38.3887 9.57492 36.405 7.8068 33.9488 7.21992L24.3769 4.93055V1.83867C24.3656 -0.613828 20.6381 -0.611953 20.6269 1.83867V4.03242L12.2456 2.02992C9.40688 1.27242 6.50625 2.78742 5.51437 5.5343L0.118125 19.9305C0.039375 20.1405 0 21.1549 0 21.1549C0 25.8537 3.50813 29.718 7.9875 29.9524C10.3331 30.0705 12.5513 29.2549 14.2463 27.648C15.9169 26.0618 16.875 23.8305 16.875 21.528C16.875 21.528 16.8337 20.1312 16.7494 19.9174L11.2613 5.64867C11.2838 5.65242 20.625 7.88742 20.625 7.88742V41.2137H9.375C6.9225 41.2249 6.92438 44.9524 9.375 44.9637H35.625C38.0775 44.9524 38.0756 41.2249 35.625 41.2137H24.375V8.78555L33.0769 10.8668C33.4481 10.9549 33.7969 11.0993 34.1156 11.2868L28.2375 27.4474C28.1625 27.6518 28.125 28.6549 28.125 28.6549C27.9788 36.0105 37.0294 40.4074 42.3694 35.1462C44.0419 33.5599 45 31.3287 45 29.0262C45 29.0262 45 28.0174 44.8875 27.4474ZM12.27 18.7137H4.58063L8.37562 8.5868L12.27 18.7137ZM36.5625 15.528L40.4475 26.2137H32.6756L36.5625 15.528Z" fill="#00AA72"/>
</svg>
