<svg width="37" height="37" viewBox="0 0 37 37" fill="none" xmlns="http://www.w3.org/2000/svg">
<path d="M37.0004 3.08333V9.25C37.0004 10.101 36.3113 10.7917 35.4587 10.7917C34.6062 10.7917 33.9171 10.101 33.9171 9.25V5.26325L27.6533 11.5255C25.5813 13.5975 22.2096 13.599 20.1376 11.5255L16.2233 7.61275C15.3523 6.74171 13.9371 6.74479 13.0676 7.61275L2.63201 18.0483C2.33139 18.3489 1.93672 18.5 1.54205 18.5C1.14739 18.5 0.752719 18.3489 0.452094 18.0483C-0.150698 17.4455 -0.150698 16.4712 0.452094 15.8684L10.8876 5.43283C12.9596 3.36083 16.3313 3.35929 18.4033 5.43283L22.3176 9.34558C23.1886 10.2182 24.6038 10.2135 25.4733 9.34558L31.7356 3.08333H27.7488C26.8963 3.08333 26.2072 2.39267 26.2072 1.54167C26.2072 0.690667 26.8963 0 27.7488 0H33.9155C35.616 0 37.0004 1.38287 37.0004 3.08333ZM33.4314 25.0783L28.7448 24.2982C28.1682 24.2026 27.7504 23.7093 27.7504 23.125C27.7504 22.274 28.4411 21.5833 29.2921 21.5833H32.7886C33.3374 21.5833 33.8492 21.8778 34.1252 22.3557C34.5476 23.0926 35.4896 23.347 36.2311 22.9169C36.968 22.4914 37.2208 21.5479 36.7923 20.811C35.969 19.3865 34.4335 18.5 32.787 18.5H32.3738V16.9583C32.3738 16.1073 31.6847 15.4167 30.8322 15.4167C29.9796 15.4167 29.2905 16.1073 29.2905 16.9583V18.5C26.7406 18.5 24.6655 20.5751 24.6655 23.125C24.6655 25.2201 26.1671 26.9946 28.2345 27.3384L32.9211 28.1185C33.4977 28.214 33.9155 28.7074 33.9155 29.2917C33.9155 30.1427 33.2248 30.8333 32.3738 30.8333H28.8773C28.3285 30.8333 27.8167 30.5389 27.5407 30.061C27.1168 29.3225 26.1717 29.0666 25.4348 29.4998C24.6979 29.9253 24.4451 30.8688 24.8736 31.6057C25.6969 33.0317 27.2324 33.9167 28.8789 33.9167H29.2921V35.4583C29.2921 36.3109 29.9812 37 30.8337 37C31.6863 37 32.3754 36.3109 32.3754 35.4583V33.9167C34.9253 33.9167 37.0004 31.8416 37.0004 29.2917C37.0004 27.1965 35.4988 25.4221 33.4314 25.0783ZM3.08372 21.5833C2.23118 21.5833 1.54205 22.2725 1.54205 23.125V35.4583C1.54205 36.3109 2.23118 37 3.08372 37C3.93626 37 4.62539 36.3109 4.62539 35.4583V23.125C4.62539 22.2725 3.93626 21.5833 3.08372 21.5833ZM10.7921 14.6458C9.93951 14.6458 9.25039 15.3365 9.25039 16.1875V35.4583C9.25039 36.3109 9.93951 37 10.7921 37C11.6446 37 12.3337 36.3109 12.3337 35.4583V16.1875C12.3337 15.3365 11.6446 14.6458 10.7921 14.6458ZM18.5004 14.6458C17.6478 14.6458 16.9587 15.3365 16.9587 16.1875V35.4583C16.9587 36.3109 17.6478 37 18.5004 37C19.3529 37 20.0421 36.3109 20.0421 35.4583V16.1875C20.0421 15.3365 19.3529 14.6458 18.5004 14.6458Z" fill="#00AA72"/>
</svg>
