<svg width="22" height="22" viewBox="0 0 22 22" fill="none" xmlns="http://www.w3.org/2000/svg">
<path d="M6.5 0C1.857 0 0 1.857 0 6.5C0 11.143 1.857 13 6.5 13C11.143 13 13 11.143 13 6.5C13 1.857 11.143 0 6.5 0ZM7.5 10.837V11C7.5 11.552 7.052 12 6.5 12C5.948 12 5.5 11.552 5.5 11V10.923C4.662 10.652 3.974 10.004 3.67 9.144C3.486 8.623 3.759 8.052 4.28 7.868C4.801 7.689 5.372 7.957 5.556 8.478C5.68 8.828 6.012 9.062 6.383 9.062C6.866 9.062 7.259 8.668 7.259 8.185C7.259 7.758 6.925 7.341 6.495 7.331C5.042 7.331 3.861 6.149 3.861 4.696C3.861 3.596 4.54 2.653 5.5 2.26V1.999C5.5 1.447 5.948 0.999 6.5 0.999C7.052 0.999 7.5 1.447 7.5 1.999V2.268C7.862 2.418 8.193 2.642 8.459 2.94C8.827 3.351 8.792 3.984 8.38 4.352C7.967 4.719 7.335 4.685 6.968 4.272C6.846 4.136 6.678 4.061 6.495 4.061C6.145 4.061 5.861 4.346 5.861 4.696C5.859 5.072 6.19 5.37 6.555 5.313C8.071 5.403 9.259 6.665 9.259 8.184C9.259 9.374 8.532 10.398 7.5 10.835V10.837ZM21.8 19.1C21.031 20.125 20.123 21.033 19.1 21.8C18.745 22.067 18.256 22.067 17.901 21.8C16.877 21.032 15.968 20.124 15.2 19.099C14.973 18.796 14.936 18.391 15.106 18.052C15.276 17.713 15.622 17.499 16.001 17.499H17.001V1.5C17.001 0.672 17.672 0 18.501 0C19.33 0 20.001 0.672 20.001 1.5V17.5H21.001C21.38 17.5 21.726 17.714 21.896 18.053C22.065 18.392 22.029 18.797 21.801 19.1H21.8ZM13 19.012C12.91 21.271 10.162 21.99 6.5 22C2.852 21.99 0.09 21.266 0 19.012C0.047 17.812 0.029 17.598 0.029 17.598C1.449 18.503 3.606 18.967 6.505 18.974C9.409 18.966 11.569 18.499 12.988 17.587C12.988 17.587 12.978 18.426 13 19.012ZM13 14.037C12.91 16.296 10.162 17.015 6.5 17.025C2.852 17.015 0.09 16.291 0 14.037C0.045 12.873 0.043 14.827 0.03 12.81C1.439 14.274 3.586 15 6.5 15C9.414 15 11.578 14.267 12.987 12.79C12.981 15.129 12.978 13.466 13 14.037Z" fill="#00AA72"/>
</svg>
