<?xml version="1.0" encoding="UTF-8" standalone="no" ?>
<!DOCTYPE svg PUBLIC "-//W3C//DTD SVG 1.1//EN" "http://www.w3.org/Graphics/SVG/1.1/DTD/svg11.dtd">
<svg xmlns="http://www.w3.org/2000/svg" xmlns:xlink="http://www.w3.org/1999/xlink" version="1.1" width="1280" height="1024" viewBox="0 0 1280 1024" xml:space="preserve">
<desc>Created with Fabric.js 4.4.0</desc>
<defs>
</defs>
<g transform="matrix(1 0 0 1 640 512)" id="background-logo"  >
<rect style="stroke: none; stroke-width: 0; stroke-dasharray: none; stroke-linecap: butt; stroke-dashoffset: 0; stroke-linejoin: miter; stroke-miterlimit: 4; fill: rgb(255,255,255); fill-opacity: 0; fill-rule: nonzero; opacity: 1;"  paint-order="stroke"  x="-640" y="-512" rx="0" ry="0" width="1280" height="1024" />
</g>
<g transform="matrix(4.731022905694002 0 0 4.731022905694002 640.1101514260511 512.4406057042047)" id="logo-logo"  >
<g style=""  paint-order="stroke"   >
		<g transform="matrix(1.0045276069522397 0 0 1.0045276069522397 0 0)"  >
<g style=""  paint-order="stroke"   >
		<g transform="matrix(1 0 0 1 11.086915000000005 -11.412369999999996)"  >
<linearGradient id="SVGID_1_8_913121" gradientUnits="userSpaceOnUse" gradientTransform="matrix(1 0 0 1 0 0)"  x1="115.43541" y1="133.06499" x2="171.35994" y2="85.06498">
<stop offset="0%" style="stop-color:rgb(0,106,194);stop-opacity: 1"/>
<stop offset="100%" style="stop-color:rgb(43,186,255);stop-opacity: 1"/>
</linearGradient>
<path style="stroke: none; stroke-width: 1; stroke-dasharray: none; stroke-linecap: butt; stroke-dashoffset: 0; stroke-linejoin: miter; stroke-miterlimit: 4; fill: url(#SVGID_1_8_913121); fill-rule: nonzero; opacity: 1;"  paint-order="stroke"  transform=" translate(-136.08887, -86.23599)" d="M 250.00391 119.26095 C 250.00391 124.67098 249.18384 129.89096 247.67382999999998 134.81100999999998 C 244.46387 145.31100999999998 238.06383999999997 154.41098999999997 229.61377 161.01095999999998 C 229.15381 161.38096 228.68383999999998 161.74094 228.20386 162.09104 L 65.93384 162.09104 L 65.93384 134.811 L 38.65381 134.811 L 38.65381 107.53096000000001 L 22.17383 107.53096000000001 C 25.90381 100.13094000000001 31.633789999999998 93.94087 38.65381 89.61104 C 45.45386 85.43086 53.433840000000004 82.9709 62.003910000000005 82.9709 C 63.29383000000001 82.9709 64.55384000000001 83.05098 65.81385 83.16096 L 65.81385 82.9709 C 65.81385 82.05098 65.84388 81.15095 65.88380000000001 80.25093 C 65.89381 79.79097 65.90382000000001 79.34102 65.93385 78.89094 L 65.93385 78.88093 C 66.44386 69.68086000000001 68.68385 60.940870000000004 72.30385000000001 52.97090000000001 C 77.08388000000001 42.460890000000006 84.29384000000002 33.29097000000001 93.21388000000002 26.180860000000006 C 93.42384000000001 26.010940000000005 93.63380000000002 25.851030000000005 93.84388000000001 25.680860000000006 C 101.62379000000001 19.630930000000006 110.65382000000001 15.111040000000006 120.49390000000001 12.611040000000006 C 126.22388000000001 11.160970000000006 132.21387000000001 10.380940000000006 138.3938 10.380940000000006 C 141.57385 10.380940000000006 144.70386 10.591020000000006 147.77393 10.990930000000006 C 157.62378 12.260950000000006 166.85376000000002 15.510950000000005 175.05384 20.32101000000001 L 175.05384 52.9609 L 202.33387000000002 52.9609 L 202.33387000000002 80.25094 L 232.82386000000002 80.25094 C 240.61378000000002 87.40096 246.23389000000003 96.85104 248.64381000000003 107.53097 C 249.50391 111.311 250.00391 115.22091 250.00391 119.26095 z" stroke-linecap="round" />
</g>
		<g transform="matrix(1 0 0 1 -18.148639999999972 23.518725000000003)"  >
<linearGradient id="SVGID_2_9_913122" gradientUnits="userSpaceOnUse" gradientTransform="matrix(1 0 0 1 0 0)"  x1="93.21297" y1="134.80742" x2="120.49351" y2="107.52689">
<stop offset="0%" style="stop-color:rgb(179,230,255);stop-opacity: 1"/>
<stop offset="100%" style="stop-color:rgb(78,194,255);stop-opacity: 1"/>
</linearGradient>
<path style="stroke: none; stroke-width: 1; stroke-dasharray: none; stroke-linecap: butt; stroke-dashoffset: 0; stroke-linejoin: miter; stroke-miterlimit: 4; fill: url(#SVGID_2_9_913122); fill-rule: nonzero; opacity: 1;"  paint-order="stroke"  transform=" translate(-106.85331500000001, -121.167085)" d="M 93.21305 107.52696 L 65.93252 107.52696 L 65.93252 80.24643 L 93.21305 80.24643 L 93.21305 107.52696 z M 120.49358 162.08774 L 147.77411 162.08774 L 147.77411 134.8075 L 120.49358000000001 134.8075 L 120.49358000000001 162.08774 z M 120.49358 107.52696 L 93.21305 107.52696 L 93.21305 134.80749 L 120.49358 134.80749 L 120.49358 107.52696 z" stroke-linecap="round" />
</g>
		<g transform="matrix(1 0 0 1 -45.429024999999996 23.518725000000003)"  >
<linearGradient id="SVGID_3_10_913123" gradientUnits="userSpaceOnUse" gradientTransform="matrix(1 0 0 1 0 0)"  x1="68.27443" y1="137.14941" x2="95.55496" y2="109.86887">
<stop offset="0%" style="stop-color:rgb(179,230,255);stop-opacity: 1"/>
<stop offset="100%" style="stop-color:rgb(78,194,255);stop-opacity: 1"/>
</linearGradient>
<path style="stroke: none; stroke-width: 1; stroke-dasharray: none; stroke-linecap: butt; stroke-dashoffset: 0; stroke-linejoin: miter; stroke-miterlimit: 4; fill: url(#SVGID_3_10_913123); fill-rule: nonzero; opacity: 1;"  paint-order="stroke"  transform=" translate(-79.57292999999999, -121.167085)" d="M 65.93252 134.8075 L 65.93252 107.52697 L 93.21305 107.52697 L 93.21305 134.8075 L 65.93252 134.8075 z M 120.49358 134.8075 L 93.21305 134.8075 L 93.21305 162.08774 L 120.49358 162.08774 L 120.49358 134.8075 z M 65.93252 107.52696 L 65.93252 80.24643 L 65.88027 80.24643 C 65.84682 81.15102 65.81159 82.05563000000001 65.81159 82.96844 C 65.81159 83.03302000000001 65.81629 83.09641 65.81658 83.16098 C 64.55596 83.05414999999999 63.28917 82.96844 62.00096 82.96844 C 53.4296 82.96844 45.45143 85.42629 38.65228 89.61409 L 38.65228 107.52697 L 65.93252 107.52697 z" stroke-linecap="round" />
</g>
		<g transform="matrix(1 0 0 1 -78.39538499999998 44.807050000000004)"  >
<linearGradient id="SVGID_4_11_913124" gradientUnits="userSpaceOnUse" gradientTransform="matrix(1 0 0 1 0 0)"  x1="8.70163" y1="182.22174" x2="74.66452" y2="116.25884">
<stop offset="0%" style="stop-color:rgb(179,230,255);stop-opacity: 1"/>
<stop offset="100%" style="stop-color:rgb(78,194,255);stop-opacity: 1"/>
</linearGradient>
<path style="stroke: none; stroke-width: 1; stroke-dasharray: none; stroke-linecap: butt; stroke-dashoffset: 0; stroke-linejoin: miter; stroke-miterlimit: 4; fill: url(#SVGID_4_11_913124); fill-rule: nonzero; opacity: 1;"  paint-order="stroke"  transform=" translate(-46.60657, -142.45541)" d="M 36.47461 140.92416 L 59.99732 140.92416 L 59.99732 164.44674 L 36.47461 164.44674 L 36.47461 140.92416 z M 0 173.52011 L 27.28027 173.52011 L 27.28027 146.23996 L 0 146.23996 L 0 173.52011 z M 38.65234 107.52694 L 38.65234 134.80759 L 65.93261000000001 134.80759 L 65.93261000000001 107.52694 L 38.65234 107.52694 z M 22.17175 107.52694 L 38.652339999999995 107.52694 L 38.652339999999995 89.6141 C 31.63123 93.93807 25.9082 100.13229 22.17175 107.52694 z M 65.93262 134.80759 L 65.93262 162.08774 L 93.21314 162.08774 L 93.21314 134.80759 L 65.93262 134.80759 z M 31.90674 195.29672 L 44.51904 195.29672 L 44.51904 182.6843 L 31.90674 182.6843 L 31.90674 195.29672 z M 13.64014 134.80759 L 30.032470000000004 134.80759 L 30.032470000000004 118.415 L 13.64014 118.415 L 13.64014 134.80759 z" stroke-linecap="round" />
</g>
		<g transform="matrix(1 0 0 1 73.20882500000002 -43.884879999999995)"  >
<linearGradient id="SVGID_5_12_913125" gradientUnits="userSpaceOnUse" gradientTransform="matrix(1 0 0 1 0 0)"  x1="189.77818" y1="67.68973" x2="247.34496" y2="10.12296">
<stop offset="0%" style="stop-color:rgb(0,77,141);stop-opacity: 1"/>
<stop offset="100%" style="stop-color:rgb(0,107,241);stop-opacity: 1"/>
</linearGradient>
<path style="stroke: none; stroke-width: 1; stroke-dasharray: none; stroke-linecap: butt; stroke-dashoffset: 0; stroke-linejoin: miter; stroke-miterlimit: 4; fill: url(#SVGID_5_12_913125); fill-rule: nonzero; opacity: 1;"  paint-order="stroke"  transform=" translate(-198.21078, -53.76348)" d="M 209.07959 17.23246 L 209.07959 40.75508 L 185.55698 40.75508 L 185.55698 17.23246 L 209.07959 17.23246 z M 229.61542 107.52696 L 248.64745 107.52696 C 246.22893 96.85085000000001 240.61643999999998 87.39661000000001 232.82612 80.24643 L 229.61543 80.24643 L 229.61543 107.52696 z M 175.05464 25.68537 L 175.05464 20.32295 C 166.85193 15.510569999999998 157.62576 12.258479999999999 147.77411 10.987289999999998 L 147.77411 25.685359999999996 L 175.05464 25.685359999999996 z M 209.07959 75.93656 L 236.35983 75.93656 L 236.35983 48.65603 L 209.07959 48.65603 L 209.07959 75.93656 z M 224.60968 12.61246 L 237.222 12.61246 L 237.222 0 L 224.60968 0 L 224.60968 12.61246 z M 218.1981 40.75507 L 234.59048 40.75507 L 234.59048 24.36253 L 218.1981 24.36253 L 218.1981 40.75507 z" stroke-linecap="round" />
</g>
		<g transform="matrix(1 0 0 1 45.75928000000002 -10.834185000000005)"  >
<linearGradient id="SVGID_6_13_913126" gradientUnits="userSpaceOnUse" gradientTransform="matrix(1 0 0 1 0 0)"  x1="161.44383" y1="93.91646" x2="188.72453" y2="66.63576">
<stop offset="0%" style="stop-color:rgb(0,77,141);stop-opacity: 1"/>
<stop offset="100%" style="stop-color:rgb(0,107,241);stop-opacity: 1"/>
</linearGradient>
<path style="stroke: none; stroke-width: 1; stroke-dasharray: none; stroke-linecap: butt; stroke-dashoffset: 0; stroke-linejoin: miter; stroke-miterlimit: 4; fill: url(#SVGID_6_13_913126); fill-rule: nonzero; opacity: 1;"  paint-order="stroke"  transform=" translate(-170.761235, -86.81417499999999)" d="M 147.77417 25.68539 L 147.77417 52.9659 L 120.49365 52.9659 L 120.49365 25.68539 L 147.77417 25.68539 z M 147.77417 52.9659 L 147.77417 80.24642 L 175.05469 80.24642 L 175.05469 52.9659 L 147.77417 52.9659 z M 93.84473 25.68539 L 120.49366 25.68539 L 120.49366 12.61251 C 110.65039 15.10995 101.62036 19.62887 93.84473 25.68539 z M 229.61548 134.80759 L 229.61548 161.01584 C 238.06261999999998 154.41037 244.45972 145.30759 247.67774 134.80759 L 229.61548 134.80759 z M 175.05469 80.24642 L 175.05469 107.52694 L 202.33496 107.52694 L 202.33496 80.24642 L 175.05469 80.24642 z M 202.33496 107.52694 L 202.33496 134.80759 L 229.61548 134.80759 L 229.61548 107.52694 L 202.33496 107.52694 z" stroke-linecap="round" />
</g>
		<g transform="matrix(1 0 0 1 60.244805000000014 -25.05372)"  >
<linearGradient id="SVGID_7_14_913127" gradientUnits="userSpaceOnUse" gradientTransform="matrix(1 0 0 1 0 0)"  x1="176.30177" y1="81.49384" x2="203.58244" y2="54.21317">
<stop offset="0%" style="stop-color:rgb(0,77,141);stop-opacity: 1"/>
<stop offset="100%" style="stop-color:rgb(0,107,241);stop-opacity: 1"/>
</linearGradient>
<path style="stroke: none; stroke-width: 1; stroke-dasharray: none; stroke-linecap: butt; stroke-dashoffset: 0; stroke-linejoin: miter; stroke-miterlimit: 4; fill: url(#SVGID_7_14_913127); fill-rule: nonzero; opacity: 1;"  paint-order="stroke"  transform=" translate(-185.24676, -72.59464)" d="M 147.77411 52.9659 L 147.77411 25.68537 L 175.05464 25.68537 L 175.05464 52.9659 L 147.77411 52.9659 z M 147.77411 25.68537 L 147.77411 10.98729 C 144.70430000000002 10.59135 141.57578 10.38178 138.39824000000002 10.38178 C 132.21871000000002 10.38178 126.22112000000001 11.159289999999999 120.49358000000001 12.612449999999999 L 120.49358000000001 25.68536 L 147.77411 25.68536 z M 229.61542 134.8075 L 247.67769 134.8075 C 249.18457 129.89063000000002 249.99994 124.67203 249.99994 119.26177 C 249.99994 115.22278 249.50362 111.3062 248.64745000000002 107.52697 L 229.61542000000003 107.52697 L 229.61542000000003 134.8075 z M 175.05464 80.24643 L 202.33488 80.24643 L 202.33488 52.9659 L 175.05464 52.9659 L 175.05464 80.24643 z M 229.61542 107.52696 L 229.61542 80.24643 L 202.33489 80.24643 L 202.33489 107.52696 L 229.61542 107.52696 z" stroke-linecap="round" />
</g>
</g>
</g>
</g>
</g>
</svg>