<svg width="40" height="40" viewBox="0 0 40 40" fill="none" xmlns="http://www.w3.org/2000/svg">
<path fill-rule="evenodd" clip-rule="evenodd" d="M10.0007 8.33333C10.0007 6.49238 11.493 5 13.334 5H26.6673C28.5083 5 30.0007 6.49238 30.0007 8.33333V10H10.0007V8.33333ZM6.66732 15.8333C6.66732 13.9924 8.1597 12.5 10.0007 12.5H30.0007C31.8417 12.5 33.334 13.9924 33.334 15.8333V17.5H6.66732V15.8333ZM3.33398 23.3333C3.33398 21.4923 4.82637 20 6.66732 20H33.334C35.175 20 36.6673 21.4923 36.6673 23.3333V28.3333C36.6673 32.0152 33.6825 35 30.0007 35H10.0007C6.31875 35 3.33398 32.0152 3.33398 28.3333V23.3333ZM15.4173 25C15.4173 24.3097 15.977 23.75 16.6673 23.75H23.334C24.0243 23.75 24.584 24.3097 24.584 25C24.584 25.6903 24.0243 26.25 23.334 26.25H16.6673C15.977 26.25 15.4173 25.6903 15.4173 25Z" fill="#00AA72"/>
</svg>
