<svg width="40" height="40" viewBox="0 0 40 40" fill="none" xmlns="http://www.w3.org/2000/svg">
<path d="M27.2308 29.3133L26.1392 34.64C25.5003 37.7567 22.6952 40 19.4391 40H8.54167V28.3333C8.54167 27.4117 7.77633 26.6667 6.83333 26.6667C5.89033 26.6667 5.125 27.4117 5.125 28.3333V40C2.29429 40 0 37.7617 0 35V28.3333C0 25.5717 2.29429 23.3333 5.125 23.3333H7.61233L11.3587 16.4183C11.6662 15.8317 12.0899 15.395 12.5238 15.22C12.886 15.0733 13.2533 15 13.6171 15C14.7822 15 15.7423 15.7433 16.0635 16.8933C16.101 17.0267 16.1489 17.335 16.0515 17.8917L15.0607 23.3333H22.2066C25.4405 23.3333 27.8663 26.22 27.2325 29.3133H27.2308ZM38.4358 15.8333C38.4358 13.9483 38.0053 12.16 37.2365 10.555L38.7723 9.595C39.5667 9.09833 39.799 8.06833 39.29 7.29333C38.7809 6.51833 37.7251 6.29333 36.9307 6.78833L35.3898 7.75C33.386 5.44833 30.545 3.86167 27.3316 3.44167V1.66667C27.3316 0.746667 26.5663 0 25.6233 0C24.6803 0 23.915 0.746667 23.915 1.66667V3.445C20.7631 3.85333 17.8982 5.38333 15.8448 7.755L14.3175 6.79667C13.5249 6.29833 12.4674 6.52167 11.9583 7.29667L11.9481 7.31167C11.4407 8.08 11.6628 9.10167 12.4452 9.605L18.9932 13.8117C19.7517 14.2983 20.7528 14.0467 21.2158 13.285C22.2476 11.5917 24.2737 10.5433 26.5082 10.9083C28.565 11.2433 30.27 12.865 30.656 14.8633C31.0968 17.145 29.9471 19.2183 28.1004 20.2133C27.3658 20.6083 27.2975 21.59 27.921 22.1383C28.2387 22.4183 28.5377 22.7233 28.8127 23.0517C29.836 24.2683 30.4698 25.7167 30.6765 27.2333C30.7244 27.2583 30.75 27.2717 30.75 27.2717C32.5437 26.5 34.1222 25.3383 35.3745 23.9033L36.9325 24.8767C37.7268 25.3733 38.7826 25.1467 39.2917 24.3717C39.8007 23.5967 39.5684 22.5667 38.774 22.07L37.2263 21.1033C38.0036 19.495 38.4358 17.7083 38.4358 15.8333Z" fill="#00AA72"/>
</svg>
