<svg width="40" height="40" viewBox="0 0 40 40" fill="none" xmlns="http://www.w3.org/2000/svg">
<path d="M40.0003 6.66667V30C40.0003 33.6817 37.0153 36.6667 33.3336 36.6667H29.9753C29.9753 36.6667 29.9753 36.6667 29.9736 36.6633C31.367 32.4767 33.3336 25.1767 33.3286 17.2733L33.3336 14.1967C33.7736 14.4183 34.2336 14.5967 34.7053 14.7283C35.687 15.0033 36.667 14.2867 36.667 13.2683C36.667 12.4717 36.1903 11.7167 35.432 11.475C34.8886 11.3017 34.387 11.015 33.952 10.6417C33.4536 10.215 32.8386 10.0017 32.2236 10.0017C31.6086 10.0017 30.9936 10.215 30.4953 10.6417C29.7436 11.285 28.802 11.6683 27.7786 11.6683C26.7553 11.6683 25.8136 11.285 25.062 10.6417C24.5636 10.215 23.9486 10.0017 23.3336 10.0017C22.7186 10.0017 22.1036 10.215 21.6053 10.6417C20.8536 11.285 19.912 11.6683 18.8886 11.6683C17.8653 11.6683 16.9236 11.285 16.172 10.6417C15.6736 10.215 15.0586 10.0017 14.4436 10.0017C13.8286 10.0017 13.2136 10.215 12.7153 10.6417L12.692 10.6617C11.6303 11.56 9.99862 10.775 9.99862 9.38333V6.66833C10.0003 2.99 12.9903 0 16.667 0H33.3336C37.0153 0 40.0003 2.985 40.0003 6.66667ZM29.9986 17.43C29.9986 24.3367 28.3686 30.8133 27.002 35.0417C26.0436 38.0067 23.297 40 20.1686 40H5.53696C3.66862 40 1.85695 39.03 0.808622 37.4667C-0.159712 36.0267 -0.349712 34.3083 0.285288 32.7583C1.65695 29.405 4.21196 23.1633 4.29529 17.475C4.30195 16.9933 4.51696 16.54 4.88362 16.2283C5.69029 15.5583 6.91695 15.0117 7.90529 14.9967C8.94029 14.98 9.97862 15.3233 10.822 16.0233C11.8353 16.8633 13.2886 16.8633 14.3003 16.0233C15.9503 14.655 18.347 14.655 19.997 16.0233C21.0086 16.8633 22.462 16.8633 23.4753 16.0233C24.327 15.3167 25.377 14.975 26.4203 14.9983C27.4003 15.02 28.5153 15.4717 29.3153 16.135C29.7253 16.435 29.9753 16.9033 29.997 17.4117V17.4317L29.9986 17.43ZM17.4636 21.8683C16.847 21.5333 16.0803 21.62 15.5536 22.0933L13.0536 24.3367C12.3686 24.95 12.312 26.005 12.927 26.69C13.3236 27.1333 13.902 27.3133 14.4536 27.2183C14.1703 29.2633 13.8153 31.4983 13.3786 32.8067C13.087 33.68 13.5586 34.625 14.432 34.915C14.607 34.9733 14.7853 35.0017 14.9586 35.0017C15.657 35.0017 16.307 34.56 16.5403 33.8617C17.2053 31.865 18.2136 24.2267 18.3136 23.595C18.4236 22.8983 18.0836 22.205 17.4636 21.8683Z" fill="#00AA72"/>
</svg>
