<svg width="50" height="44" viewBox="0 0 50 44" fill="none" xmlns="http://www.w3.org/2000/svg">
<path d="M21.875 3.125C21.875 1.4 23.275 0 25 0C26.725 0 28.125 1.4 28.125 3.125C28.125 4.85 26.725 6.25 25 6.25C23.275 6.25 21.875 4.85 21.875 3.125ZM6.25 25C6.25 23.275 4.85 21.875 3.125 21.875C1.4 21.875 0 23.275 0 25C0 26.725 1.4 28.125 3.125 28.125C4.85 28.125 6.25 26.725 6.25 25ZM50 25C50 23.275 48.6 21.875 46.875 21.875C45.15 21.875 43.75 23.275 43.75 25C43.75 26.725 45.15 28.125 46.875 28.125C48.6 28.125 50 26.725 50 25ZM12.5 9.375C12.5 7.65 11.1 6.25 9.375 6.25C7.65 6.25 6.25 7.65 6.25 9.375C6.25 11.1 7.65 12.5 9.375 12.5C11.1 12.5 12.5 11.1 12.5 9.375ZM43.75 40.625C43.75 38.9 42.35 37.5 40.625 37.5C38.9 37.5 37.5 38.9 37.5 40.625C37.5 42.35 38.9 43.75 40.625 43.75C42.35 43.75 43.75 42.35 43.75 40.625ZM9.375 37.5C7.65 37.5 6.25 38.9 6.25 40.625C6.25 42.35 7.65 43.75 9.375 43.75C11.1 43.75 12.5 42.35 12.5 40.625C12.5 38.9 11.1 37.5 9.375 37.5ZM40.625 6.25C38.9 6.25 37.5 7.65 37.5 9.375C37.5 11.1 38.9 12.5 40.625 12.5C42.35 12.5 43.75 11.1 43.75 9.375C43.75 7.65 42.35 6.25 40.625 6.25ZM27.0833 10.5833V25C27.0833 26.15 26.1521 27.0833 25 27.0833C23.8479 27.0833 22.9167 26.15 22.9167 25V10.5833C15.8625 11.6 10.4167 17.6687 10.4167 25C10.4167 33.0417 16.9604 39.5833 25 39.5833C33.0396 39.5833 39.5833 33.0417 39.5833 25C39.5833 17.6687 34.1375 11.6 27.0833 10.5833Z" fill="#00AA72"/>
</svg>
