<svg width="22" height="24" viewBox="0 0 22 24" fill="none" xmlns="http://www.w3.org/2000/svg">
<path d="M1.50539 10.1131L1.95639 10.3721C1.85439 10.9151 1.80339 11.4601 1.80339 11.9981C1.80339 12.5361 1.85539 13.0811 1.95639 13.6241L1.50639 13.8831C0.811386 14.2821 0.313387 14.9291 0.105387 15.7021C-0.103613 16.4751 0.00138664 17.2851 0.400387 17.9781C0.799387 18.6731 1.44639 19.1711 2.21939 19.3791C2.99439 19.5881 3.80239 19.4831 4.49539 19.0841L4.94539 18.8251C5.78739 19.5451 6.75639 20.1041 7.80239 20.4741V20.9961C7.80239 22.6501 9.14839 23.9961 10.8024 23.9961C12.4564 23.9961 13.8024 22.6501 13.8024 20.9961V20.4741C14.8494 20.1041 15.8184 19.5451 16.6594 18.8251L17.1094 19.0841C17.8024 19.4811 18.6114 19.5871 19.3864 19.3791C20.1594 19.1711 20.8054 18.6731 21.2044 17.9791C21.6044 17.2851 21.7094 16.4761 21.5004 15.7021C21.2924 14.9291 20.7944 14.2831 20.0994 13.8831L19.6484 13.6231C19.7504 13.0791 19.8014 12.5351 19.8014 11.9981C19.8014 11.4611 19.7504 10.9171 19.6484 10.3731L20.0994 10.1131C20.7944 9.71309 21.2914 9.06709 21.5004 8.29409C21.7094 7.52009 21.6044 6.7111 21.2054 6.0181C20.8064 5.3231 20.1604 4.82509 19.3864 4.61709C18.6154 4.40909 17.8044 4.51309 17.1094 4.91209L16.6594 5.17109C15.8184 4.45009 14.8494 3.8921 13.8024 3.52209V3.0001C13.8024 1.3461 12.4564 9.53674e-05 10.8024 9.53674e-05C9.14839 9.53674e-05 7.80239 1.3461 7.80239 3.0001V3.52209C6.75539 3.8921 5.78639 4.4521 4.94539 5.17109L4.49639 4.91209C3.80139 4.51409 2.99139 4.40909 2.21939 4.61709C1.44639 4.82509 0.799387 5.32309 0.400387 6.01709C0.00138664 6.71109 -0.103613 7.52109 0.105387 8.29409C0.313387 9.06709 0.811386 9.71409 1.50539 10.1131ZM7.09639 12.7051C7.29139 12.5101 7.54739 12.4121 7.80339 12.4121C8.05939 12.4121 8.31539 12.5101 8.51039 12.7051L9.80339 13.9981L9.80339 7.99809C9.80339 7.44509 10.2514 6.99809 10.8034 6.99809C11.3554 6.99809 11.8034 7.44509 11.8034 7.99809L11.8034 13.9981L13.0964 12.7051C13.4874 12.3141 14.1194 12.3141 14.5104 12.7051C14.9014 13.0961 14.9014 13.7281 14.5104 14.1191L12.1654 16.4641C11.4384 17.1931 10.1684 17.1931 9.43939 16.4641L7.09539 14.1191C6.70439 13.7281 6.70439 13.0961 7.09539 12.7051H7.09639Z" fill="#00AA72"/>
</svg>
