<svg width="40" height="40" viewBox="0 0 40 40" fill="none" xmlns="http://www.w3.org/2000/svg">
<path fill-rule="evenodd" clip-rule="evenodd" d="M26.1056 31.3541H36.5895C36.7892 31.3532 36.9805 31.2735 37.1218 31.1322C37.263 30.991 37.3428 30.7997 37.3438 30.5999V27.3688C37.3428 27.1691 37.263 26.9778 37.1218 26.8365C36.9805 26.6953 36.7892 26.6155 36.5895 26.6146H27.2245C27.1495 28.2503 26.7701 29.8576 26.1056 31.3541ZM28.3729 18.8541V25.3646H27.2245C27.2066 24.9822 27.1728 24.6042 27.1229 24.2307V18.8541L25.9573 16.8459C25.9166 16.775 25.8902 16.6968 25.8797 16.6158C25.8692 16.5347 25.8748 16.4524 25.8961 16.3735C25.9174 16.2947 25.954 16.2207 26.0039 16.156C26.0538 16.0913 26.1159 16.037 26.1868 15.9963C26.2576 15.9556 26.3358 15.9292 26.4168 15.9187C26.4979 15.9082 26.5802 15.9138 26.6591 15.9351C26.738 15.9564 26.8119 15.993 26.8766 16.0429C26.9413 16.0928 26.9956 16.1549 27.0363 16.2258L27.7479 17.4474L28.4594 16.2258C28.5416 16.0827 28.6773 15.9781 28.8366 15.9351C28.996 15.892 29.1659 15.914 29.309 15.9962C29.4521 16.0785 29.5567 16.2142 29.5997 16.3735C29.6428 16.5329 29.6207 16.7028 29.5385 16.8459L28.3729 18.8541ZM18.1288 2.03125C17.0976 4.25781 17.377 7.50328 19.0828 10.4579C20.6063 13.096 22.8984 14.8652 25.1117 15.3706L21.4766 9.07445C21.4358 9.0036 21.4095 8.92542 21.399 8.84438C21.3885 8.76334 21.394 8.68102 21.4153 8.60213C21.4584 8.44279 21.5629 8.30708 21.706 8.22484C21.8491 8.14261 22.019 8.12058 22.1783 8.16361C22.2572 8.18492 22.3312 8.22155 22.3959 8.27143C22.4606 8.32131 22.5149 8.38344 22.5556 8.4543L26.1895 14.7483C26.8584 12.5788 26.4726 9.70922 24.9495 7.0707C23.2438 4.11617 20.5727 2.25125 18.1288 2.03125ZM37.3672 2.03125C38.3984 4.25781 38.1191 7.50328 36.4133 10.4579C34.8898 13.096 32.5977 14.8652 30.3843 15.3706L34.0195 9.07445C34.1001 8.93145 34.1209 8.76239 34.0774 8.6041C34.0339 8.44581 33.9297 8.3111 33.7874 8.22931C33.6451 8.14751 33.4762 8.12527 33.3175 8.16741C33.1589 8.20955 33.0233 8.31266 32.9403 8.4543L29.3065 14.7484C28.6375 12.5788 29.0234 9.70883 30.5465 7.0707C32.252 4.11617 34.923 2.25125 37.3672 2.03125ZM14.0104 14.0105C11.6411 14.0105 9.3251 14.713 7.35514 16.0293C5.38518 17.3456 3.84979 19.2165 2.94311 21.4054C2.03644 23.5943 1.79921 26.0029 2.26143 28.3266C2.72365 30.6503 3.86455 32.7848 5.53986 34.4601C7.21518 36.1355 9.34966 37.2764 11.6734 37.7386C13.9971 38.2008 16.4057 37.9636 18.5946 37.0569C20.7835 36.1502 22.6544 34.6148 23.9707 32.6449C25.287 30.6749 25.9895 28.3589 25.9895 25.9896C25.9895 24.4165 25.6797 22.8588 25.0777 21.4054C24.4757 19.952 23.5933 18.6314 22.4809 17.5191C21.3686 16.4067 20.048 15.5243 18.5946 14.9223C17.1412 14.3203 15.5835 14.0105 14.0104 14.0105ZM17.0363 23.9402C17.0363 24.1059 16.9704 24.2649 16.8532 24.3821C16.736 24.4993 16.577 24.5652 16.4113 24.5652C16.2455 24.5652 16.0865 24.4993 15.9693 24.3821C15.8521 24.2649 15.7863 24.1059 15.7863 23.9402C15.7863 22.6659 13.8253 22.0198 12.7181 22.9647C11.6519 23.8748 12.4639 25.3644 14.0105 25.3644C15.5833 25.3644 17.0363 26.4774 17.0363 28.0386C17.0363 29.3884 15.9383 30.4126 14.6355 30.6558V31.7514C14.6355 31.9172 14.5696 32.0761 14.4524 32.1933C14.3352 32.3106 14.1762 32.3764 14.0105 32.3764C13.8447 32.3764 13.6857 32.3106 13.5685 32.1933C13.4513 32.0761 13.3855 31.9172 13.3855 31.7514V30.6556C12.0827 30.4128 10.9846 29.3887 10.9846 28.0384C10.9846 27.8727 11.0505 27.7137 11.1677 27.5965C11.2849 27.4793 11.4439 27.4134 11.6096 27.4134C11.7754 27.4134 11.9343 27.4793 12.0516 27.5965C12.1688 27.7137 12.2346 27.8727 12.2346 28.0384C12.2346 29.3126 14.1956 29.9587 15.3028 29.0138C16.3691 28.1038 15.557 26.6142 14.0105 26.6142C12.4376 26.6142 10.9846 25.5011 10.9846 23.94C10.9846 22.5902 12.0827 21.5659 13.3855 21.3228V20.2279C13.3855 20.0621 13.4513 19.9032 13.5685 19.7859C13.6857 19.6687 13.8447 19.6029 14.0105 19.6029C14.1762 19.6029 14.3352 19.6687 14.4524 19.7859C14.5696 19.9032 14.6355 20.0621 14.6355 20.2279V21.3236C15.9383 21.5663 17.0363 22.5905 17.0363 23.9408V23.9402ZM14.0105 16.6163C15.8643 16.6163 17.6765 17.166 19.2179 18.1959C20.7593 19.2258 21.9607 20.6897 22.6701 22.4024C23.3795 24.1151 23.5652 25.9997 23.2035 27.8179C22.8419 29.6361 21.9492 31.3062 20.6384 32.6171C19.3275 33.928 17.6574 34.8207 15.8392 35.1824C14.021 35.5441 12.1364 35.3585 10.4237 34.6491C8.71098 33.9397 7.24708 32.7383 6.21712 31.197C5.18716 29.6556 4.6374 27.8434 4.63735 25.9896C4.63739 23.5037 5.62493 21.1196 7.38272 19.3619C9.14051 17.6041 11.5246 16.6165 14.0105 16.6165V16.6163ZM19.7544 20.2454C20.8904 21.3814 21.6641 22.8289 21.9775 24.4046C22.291 25.9804 22.1301 27.6137 21.5153 29.098C20.9005 30.5823 19.8593 31.851 18.5235 32.7436C17.1876 33.6362 15.6171 34.1126 14.0104 34.1126C12.4038 34.1126 10.8333 33.6362 9.49742 32.7436C8.16156 31.851 7.12039 30.5823 6.50557 29.098C5.89074 27.6137 5.72988 25.9804 6.04332 24.4046C6.35676 22.8289 7.13043 21.3814 8.26649 20.2454C9.7899 18.722 11.8561 17.8663 14.0104 17.8663C16.1648 17.8663 18.231 18.722 19.7544 20.2454ZM36.5895 32.6041C36.7892 32.6051 36.9805 32.6848 37.1218 32.8261C37.2631 32.9673 37.3428 33.1587 37.3438 33.3584V36.5895C37.3428 36.7892 37.2631 36.9805 37.1218 37.1218C36.9805 37.2631 36.7892 37.3428 36.5895 37.3438H20.8018C22.7339 36.1848 24.3398 34.5539 25.4688 32.6041H36.5895Z" fill="#00AA72"/>
</svg>
