<svg width="24" height="24" viewBox="0 0 24 24" fill="none" xmlns="http://www.w3.org/2000/svg">
<path d="M4 6.081C4 4.416 5.583 2.606 7.14 1.857C6.957 1.674 6.781 1.474 6.63 1.259C6.258 0.731 6.679 0 7.325 0H9.672C10.355 0 10.728 0.776 10.323 1.326C10.183 1.516 10.025 1.694 9.861 1.857C11.418 2.607 12.999 4.416 12.999 6.08C12.999 7.69 11.766 8.999 10.249 8.999H6.749C5.232 8.999 3.999 7.689 3.999 6.08L4 6.081ZM23.148 8.681C22.633 8.212 21.962 7.969 21.27 8.003C20.573 8.035 19.931 8.337 19.476 8.838L15.935 12.575C15.967 12.785 16 12.995 16 13.213C16 15.296 14.445 17.089 12.383 17.383L8.131 17.979C7.584 18.057 7.078 17.677 7 17.131C6.922 16.584 7.302 16.078 7.848 16L12.01 15.417C12.946 15.283 13.758 14.611 13.95 13.685C14.246 12.26 13.16 11 11.786 11H3.999C1.791 11 0 12.791 0 15V20C0 22.209 1.791 24 4 24H8.262C11.067 24 13.742 22.822 15.636 20.754L23.338 12.345C24.286 11.283 24.2 9.638 23.149 8.68L23.148 8.681Z" fill="white"/>
</svg>
