<svg width="40" height="40" viewBox="0 0 40 40" fill="none" xmlns="http://www.w3.org/2000/svg">
<path d="M20 11.6667V0.766667C21.5217 1.34333 22.9217 2.23167 24.1083 3.41667L29.915 9.22667C31.1017 10.4117 31.99 11.8117 32.5667 13.3333H21.6667C20.7467 13.3333 20 12.585 20 11.6667ZM11.6667 25H8.33333V28.3333H11.6667V25ZM8.33333 21.6667H11.6667V18.3333H8.33333V21.6667ZM33.2933 16.6667H21.6667C18.91 16.6667 16.6667 14.4233 16.6667 11.6667V0.04C16.3983 0.0216667 16.13 0 15.8583 0H8.33333C3.73833 0 0 3.73833 0 8.33333V31.6667C0 36.2617 3.73833 40 8.33333 40H16.7517C16.6967 39.73 16.6667 39.4517 16.6667 39.1667V37.575C16.6667 35.4367 17.3017 33.3983 18.475 31.6667H8.33333C6.495 31.6667 5 30.1717 5 28.3333V18.3333C5 16.495 6.495 15 8.33333 15H11.6667C13.505 15 15 16.495 15 18.3333V21.6667H18.3333C20.1717 21.6667 21.6667 23.1617 21.6667 25V28.2033L31.105 18.765C31.745 18.125 32.5083 17.6417 33.3233 17.285C33.3167 17.0783 33.3067 16.8717 33.2933 16.6667ZM18.3333 25H15V28.3333H18.3333V25ZM33.4617 21.1217C35.05 19.5333 37.685 19.6317 39.1433 21.415C40.4117 22.965 40.14 25.2767 38.7233 26.6933L27.5317 37.885C26.1767 39.24 24.34 40 22.425 40H20.8333C20.3733 40 20 39.6267 20 39.1667V37.575C20 35.66 20.7617 33.8217 22.115 32.4683L33.4617 21.1217Z" fill="#00AA72"/>
</svg>
