<svg width="40" height="40" viewBox="0 0 40 40" fill="none" xmlns="http://www.w3.org/2000/svg">
<path d="M10 30.8333C10 32.215 8.88167 33.3333 7.5 33.3333C3.365 33.3333 0 29.9683 0 25.8333V10.8333C0 6.69833 3.365 3.33333 7.5 3.33333H8.33333V2.5C8.33333 1.11833 9.45167 0 10.8333 0C12.215 0 13.3333 1.11833 13.3333 2.5V3.33333H21.6667V2.5C21.6667 1.11833 22.7867 0 24.1667 0C25.5467 0 26.6667 1.11833 26.6667 2.5V3.33333H27.5C31.635 3.33333 35 6.69833 35 10.8333V22.5C35 23.8817 33.88 25 32.5 25C31.12 25 30 23.8817 30 22.5V13.3333H5V25.8333C5 27.2117 6.12167 28.3333 7.5 28.3333C8.87833 28.3333 10 29.4517 10 30.8333ZM33.9567 28.8883L25 26.33V19.3817C25 18.2083 24.255 17.1017 23.1183 16.81C21.45 16.3833 19.9783 17.63 19.9783 19.225L20 31.5383L18.08 30.1467C16.6367 28.9433 14.4917 29.14 13.29 30.5817C12.0867 32.025 12.2817 34.17 13.725 35.3717L19.1033 39.5C19.685 39.9467 20.4 40.19 21.1333 40.19H21.6683C23.51 40.19 25.0017 38.6983 25.0017 36.8567V31.5267L32.585 33.6933C34.0083 34.1 35.0017 35.4183 35.0017 36.8983V37.4983C35.0017 38.88 36.1217 39.9983 37.5017 39.9983C38.8817 39.9983 40.0017 38.88 40.0017 37.4983V36.8983C40.0017 33.1967 37.5167 29.9033 33.9583 28.885L33.9567 28.8883Z" fill="#00AA72"/>
</svg>
