<svg width="38" height="30" viewBox="0 0 38 30" fill="none" xmlns="http://www.w3.org/2000/svg">
<path d="M36.25 27.5H35V8.75C35 8.41848 34.8683 8.10054 34.6339 7.86612C34.3995 7.6317 34.0815 7.5 33.75 7.5H23.75C23.4185 7.5 23.1005 7.6317 22.8661 7.86612C22.6317 8.10054 22.5 8.41848 22.5 8.75V15H15V1.25C15 0.918479 14.8683 0.600537 14.6339 0.366117C14.3995 0.131696 14.0815 0 13.75 0H3.75C3.41848 0 3.10054 0.131696 2.86612 0.366117C2.6317 0.600537 2.5 0.918479 2.5 1.25V27.5H1.25C0.918479 27.5 0.600537 27.6317 0.366116 27.8661C0.131696 28.1005 0 28.4185 0 28.75C0 29.0815 0.131696 29.3995 0.366116 29.6339C0.600537 29.8683 0.918479 30 1.25 30H36.25C36.5815 30 36.8995 29.8683 37.1339 29.6339C37.3683 29.3995 37.5 29.0815 37.5 28.75C37.5 28.4185 37.3683 28.1005 37.1339 27.8661C36.8995 27.6317 36.5815 27.5 36.25 27.5ZM10 23.75C10 24.0815 9.8683 24.3995 9.63388 24.6339C9.39946 24.8683 9.08152 25 8.75 25C8.41848 25 8.10054 24.8683 7.86612 24.6339C7.6317 24.3995 7.5 24.0815 7.5 23.75V21.25C7.5 20.9185 7.6317 20.6005 7.86612 20.3661C8.10054 20.1317 8.41848 20 8.75 20C9.08152 20 9.39946 20.1317 9.63388 20.3661C9.8683 20.6005 10 20.9185 10 21.25V23.75ZM10 16.25C10 16.5815 9.8683 16.8995 9.63388 17.1339C9.39946 17.3683 9.08152 17.5 8.75 17.5C8.41848 17.5 8.10054 17.3683 7.86612 17.1339C7.6317 16.8995 7.5 16.5815 7.5 16.25V13.75C7.5 13.4185 7.6317 13.1005 7.86612 12.8661C8.10054 12.6317 8.41848 12.5 8.75 12.5C9.08152 12.5 9.39946 12.6317 9.63388 12.8661C9.8683 13.1005 10 13.4185 10 13.75V16.25ZM10 8.75C10 9.08152 9.8683 9.39946 9.63388 9.63388C9.39946 9.8683 9.08152 10 8.75 10C8.41848 10 8.10054 9.8683 7.86612 9.63388C7.6317 9.39946 7.5 9.08152 7.5 8.75V6.25C7.5 5.91848 7.6317 5.60054 7.86612 5.36612C8.10054 5.1317 8.41848 5 8.75 5C9.08152 5 9.39946 5.1317 9.63388 5.36612C9.8683 5.60054 10 5.91848 10 6.25V8.75ZM20 23.75C20 24.0815 19.8683 24.3995 19.6339 24.6339C19.3995 24.8683 19.0815 25 18.75 25C18.4185 25 18.1005 24.8683 17.8661 24.6339C17.6317 24.3995 17.5 24.0815 17.5 23.75V21.25C17.5 20.9185 17.6317 20.6005 17.8661 20.3661C18.1005 20.1317 18.4185 20 18.75 20C19.0815 20 19.3995 20.1317 19.6339 20.3661C19.8683 20.6005 20 20.9185 20 21.25V23.75ZM30 23.75C30 24.0815 29.8683 24.3995 29.6339 24.6339C29.3995 24.8683 29.0815 25 28.75 25C28.4185 25 28.1005 24.8683 27.8661 24.6339C27.6317 24.3995 27.5 24.0815 27.5 23.75V21.25C27.5 20.9185 27.6317 20.6005 27.8661 20.3661C28.1005 20.1317 28.4185 20 28.75 20C29.0815 20 29.3995 20.1317 29.6339 20.3661C29.8683 20.6005 30 20.9185 30 21.25V23.75ZM30 16.25C30 16.5815 29.8683 16.8995 29.6339 17.1339C29.3995 17.3683 29.0815 17.5 28.75 17.5C28.4185 17.5 28.1005 17.3683 27.8661 17.1339C27.6317 16.8995 27.5 16.5815 27.5 16.25V13.75C27.5 13.4185 27.6317 13.1005 27.8661 12.8661C28.1005 12.6317 28.4185 12.5 28.75 12.5C29.0815 12.5 29.3995 12.6317 29.6339 12.8661C29.8683 13.1005 30 13.4185 30 13.75V16.25Z" fill="#00AA72"/>
</svg>
