<svg width="33" height="25" viewBox="0 0 33 25" fill="none" xmlns="http://www.w3.org/2000/svg">
<path d="M28.75 0H3.75C2.75544 0 1.80161 0.395088 1.09835 1.09835C0.395088 1.80161 0 2.75544 0 3.75V21.25C0 22.2446 0.395088 23.1984 1.09835 23.9017C1.80161 24.6049 2.75544 25 3.75 25H28.75C29.7446 25 30.6984 24.6049 31.4017 23.9017C32.1049 23.1984 32.5 22.2446 32.5 21.25V3.75C32.5 2.75544 32.1049 1.80161 31.4017 1.09835C30.6984 0.395088 29.7446 0 28.75 0ZM20 11.25C20 12.2446 19.6049 13.1984 18.9017 13.9017C18.1984 14.6049 17.2446 15 16.25 15C15.2554 15 14.3016 14.6049 13.5983 13.9017C12.8951 13.1984 12.5 12.2446 12.5 11.25C12.5 10.9185 12.3683 10.6005 12.1339 10.3661C11.8995 10.1317 11.5815 10 11.25 10H2.5V7.5H30V10H21.25C20.9185 10 20.6005 10.1317 20.3661 10.3661C20.1317 10.6005 20 10.9185 20 11.25ZM3.75 2.5H28.75C29.0815 2.5 29.3995 2.6317 29.6339 2.86612C29.8683 3.10054 30 3.41848 30 3.75V5H2.5V3.75C2.5 3.41848 2.6317 3.10054 2.86612 2.86612C3.10054 2.6317 3.41848 2.5 3.75 2.5Z" fill="#00AA72"/>
</svg>
