<svg width="40" height="39" viewBox="0 0 40 39" fill="none" xmlns="http://www.w3.org/2000/svg">
<path d="M35.6933 30.4917C36.295 29.34 36.6667 28.0533 36.6667 26.6667C36.6667 22.0717 32.9283 18.3333 28.3333 18.3333C23.7383 18.3333 20 22.0717 20 26.6667C20 31.2617 23.7383 35 28.3333 35C29.7183 35 31.0067 34.6283 32.1583 34.0267L35.7333 37.6017C36.2217 38.09 36.8617 38.3333 37.5017 38.3333C38.1417 38.3333 38.7817 38.09 39.27 37.6017C40.2467 36.625 40.2467 35.0433 39.27 34.0667L35.6933 30.4917ZM28.3333 30C26.495 30 25 28.505 25 26.6667C25 24.8283 26.495 23.3333 28.3333 23.3333C30.1717 23.3333 31.6667 24.8283 31.6667 26.6667C31.6667 28.505 30.1717 30 28.3333 30ZM30.8333 0H9.16667C4.10333 0 0 4.10333 0 9.16667V27.5C0 32.5633 4.10333 36.6667 9.16667 36.6667H16.665C18.0467 36.6667 19.165 35.5467 19.165 34.165C19.165 32.785 18.045 31.6667 16.665 31.6667H9.16667C6.865 31.6667 5 29.8017 5 27.5V11.6667H35V15.8017C35 17.17 36.1 18.2833 37.4683 18.3017C38.8617 18.32 40 17.195 40 15.8017V9.16667C40 4.10333 35.8967 0 30.8333 0ZM7.5 8.33333C6.12 8.33333 5 7.21333 5 5.83333C5 4.45333 6.12 3.33333 7.5 3.33333C8.88 3.33333 10 4.45333 10 5.83333C10 7.21333 8.88 8.33333 7.5 8.33333ZM15.8333 8.33333C14.4533 8.33333 13.3333 7.21333 13.3333 5.83333C13.3333 4.45333 14.4533 3.33333 15.8333 3.33333C17.2133 3.33333 18.3333 4.45333 18.3333 5.83333C18.3333 7.21333 17.2133 8.33333 15.8333 8.33333Z" fill="#00AA72"/>
</svg>
