<svg width="14" height="14" viewBox="0 0 14 14" fill="none" xmlns="http://www.w3.org/2000/svg">
<path d="M7 0C5.61553 0 4.26216 0.410543 3.11101 1.17971C1.95987 1.94888 1.06266 3.04213 0.532846 4.32122C0.003033 5.6003 -0.13559 7.00777 0.134506 8.36563C0.404603 9.7235 1.07129 10.9708 2.05026 11.9497C3.02922 12.9287 4.2765 13.5954 5.63437 13.8655C6.99224 14.1356 8.3997 13.997 9.67879 13.4672C10.9579 12.9373 12.0511 12.0401 12.8203 10.889C13.5895 9.73785 14 8.38447 14 7C13.998 5.1441 13.2599 3.36479 11.9475 2.05247C10.6352 0.74015 8.8559 0.0020073 7 0ZM10.3291 8.47875L8.23725 10.5706C8.07475 10.7331 7.88182 10.862 7.66948 10.95C7.45714 11.038 7.22955 11.0833 6.99971 11.0833C6.76987 11.0833 6.54229 11.038 6.32995 10.95C6.11761 10.862 5.92468 10.7331 5.76217 10.5706L3.67092 8.47875L3.65692 8.46417C3.60132 8.40959 3.55721 8.34443 3.52721 8.27252C3.4972 8.20062 3.48191 8.12344 3.48222 8.04553C3.48253 7.96762 3.49845 7.89056 3.52903 7.8189C3.55961 7.74724 3.60424 7.68244 3.66028 7.62831C3.71632 7.57418 3.78263 7.53182 3.85531 7.50374C3.92798 7.47566 4.00555 7.46243 4.08342 7.46481C4.1613 7.4672 4.2379 7.48516 4.30872 7.51764C4.37954 7.55012 4.44314 7.59646 4.49575 7.65392L6.41667 9.57483L6.41259 3.5C6.41259 3.34529 6.47405 3.19692 6.58344 3.08752C6.69284 2.97813 6.84121 2.91667 6.99592 2.91667C7.15063 2.91667 7.299 2.97813 7.4084 3.08752C7.5178 3.19692 7.57925 3.34529 7.57925 3.5L7.58334 9.57425L9.50425 7.65392C9.55806 7.5982 9.62243 7.55376 9.6936 7.52319C9.76477 7.49262 9.84132 7.47653 9.91877 7.47585C9.99622 7.47518 10.073 7.48994 10.1447 7.51927C10.2164 7.5486 10.2815 7.59192 10.3363 7.64669C10.3911 7.70146 10.4344 7.76659 10.4637 7.83828C10.4931 7.90997 10.5078 7.98678 10.5072 8.06423C10.5065 8.14169 10.4904 8.21823 10.4598 8.2894C10.4292 8.36057 10.3848 8.42494 10.3291 8.47875Z" fill="#00AA72"/>
</svg>
