<svg width="15" height="15" viewBox="0 0 15 15" fill="none" xmlns="http://www.w3.org/2000/svg">
<path d="M9.16533 3.82067C9.084 3.224 8.97 2.02667 9.01067 0.27C9.102 0.324667 9.18933 0.386 9.266 0.461333C10.074 1.258 12.0567 3.18733 12.8587 3.99733C11.306 4.06333 9.87333 3.91467 9.16533 3.82067ZM7.444 14.1147C7.612 14.2953 7.81133 14.458 8.02133 14.6127C7.55333 14.6453 7.09933 14.6653 6.66667 14.6653C5.066 14.6653 3.20933 14.4387 1.20267 13.9933C0.936667 13.9347 0.723333 13.722 0.666667 13.456C0.226 11.394 0 9.312 0 7.33267C0 5.35333 0.225333 3.27133 0.666 1.20933C0.722667 0.943333 0.936 0.730667 1.202 0.672C3.20867 0.226667 5.066 0 6.66667 0C6.99467 0 7.336 0.012 7.68467 0.0313334C7.59867 2.96 7.92133 4.49 7.93533 4.554C7.99333 4.818 8.20467 5.02067 8.47133 5.068C8.554 5.082 10.11 5.35067 12.0587 5.35067C12.444 5.35067 12.8473 5.33467 13.2553 5.31C13.2773 5.624 13.294 5.938 13.3073 6.24867C12.772 6.11067 12.1027 6.00067 11.3087 6.00067C9.33867 6.00067 8.088 6.70933 7.956 6.788C7.46867 7.07533 7.12467 7.558 7.01133 8.116C6.67067 9.818 6.27467 12.86 7.444 14.1167V14.1147ZM5.33333 10.6653C5.33333 10.2967 5.03467 9.99867 4.66667 9.99867H2.66667C2.29867 9.99867 2 10.2967 2 10.6653C2 11.034 2.29867 11.332 2.66667 11.332H4.66667C5.03467 11.332 5.33333 11.034 5.33333 10.6653ZM5.33333 7.99867C5.33333 7.63 5.03467 7.332 4.66667 7.332H2.66667C2.29867 7.332 2 7.63 2 7.99867C2 8.36733 2.29867 8.66533 2.66667 8.66533H4.66667C5.03467 8.66533 5.33333 8.36733 5.33333 7.99867ZM14.348 8.37533C14.3107 8.19067 14.1967 8.03 14.034 7.93467C13.9927 7.91 12.9967 7.332 11.3633 7.332C9.78533 7.30333 8.63733 7.916 8.63267 7.93467C8.47 8.03067 8.356 8.19067 8.31867 8.37533C8.31067 8.41467 7.54133 12.262 8.42067 13.2067C9.182 14.026 10.9407 14.5767 11.1387 14.6367C11.2647 14.6747 11.402 14.6747 11.528 14.6367C11.726 14.5767 13.4847 14.026 14.2467 13.2067C15.1253 12.2613 14.356 8.41467 14.348 8.37533Z" fill="#00AA72"/>
</svg>
