<svg width="16" height="16" viewBox="0 0 16 16" fill="none" xmlns="http://www.w3.org/2000/svg">
<path d="M15.6292 15.1592L14.0092 10.3792C13.7985 9.76785 13.2712 9.37318 12.6639 9.37318C12.0565 9.37318 11.5292 9.76851 11.3185 10.3818L9.6992 15.1592C9.5812 15.5078 9.76787 15.8865 10.1165 16.0052C10.4659 16.1238 10.8432 15.9358 10.9619 15.5878L11.2745 14.6658H14.0532L14.3659 15.5878C14.4605 15.8652 14.7192 16.0405 14.9972 16.0405C15.0679 16.0405 15.1405 16.0292 15.2112 16.0052C15.5599 15.8865 15.7472 15.5085 15.6285 15.1592H15.6292ZM11.7265 13.3325L12.5805 10.8132C12.6305 10.6658 12.6985 10.6685 12.7472 10.8105L13.6019 13.3325H11.7265ZM10.3279 8.36318L6.04787 15.3345C5.75987 15.7678 5.3432 16.0012 4.9152 16.0012C4.74253 16.0012 4.56787 15.9632 4.39987 15.8852C3.7832 15.5998 3.48453 14.8712 3.69054 14.1518L4.4932 10.6678H1.93987C1.21987 10.6678 0.563868 10.2725 0.226535 9.63651C-0.110798 9.00051 -0.0687982 8.23451 0.335202 7.63918L4.61387 0.666515C5.01853 0.0585147 5.67587 -0.155485 6.26253 0.115848C6.8792 0.401181 7.17787 1.12985 6.97187 1.84918L6.16853 5.33385L8.72387 5.33585C9.4432 5.33585 10.0992 5.73118 10.4365 6.36718C10.7732 7.00251 10.7319 7.76851 10.3279 8.36385V8.36318Z" fill="#00AA72"/>
</svg>
