<svg width="38" height="30" viewBox="0 0 38 30" fill="none" xmlns="http://www.w3.org/2000/svg">
<path d="M37.5 28.7508C37.5 29.0823 37.3683 29.4002 37.1339 29.6347C36.8995 29.8691 36.5815 30.0008 36.25 30.0008H1.25C0.918479 30.0008 0.600537 29.8691 0.366116 29.6347C0.131696 29.4002 0 29.0823 0 28.7508C0 28.4193 0.131696 28.1013 0.366116 27.8669C0.600537 27.6325 0.918479 27.5008 1.25 27.5008H36.25C36.5815 27.5008 36.8995 27.6325 37.1339 27.8669C37.3683 28.1013 37.5 28.4193 37.5 28.7508ZM1.29687 11.5914C1.22253 11.3293 1.23587 11.05 1.33488 10.7962C1.43388 10.5423 1.61312 10.3278 1.84531 10.1852L18.0953 0.18516C18.2922 0.0640944 18.5188 0 18.75 0C18.9812 0 19.2078 0.0640944 19.4047 0.18516L35.6547 10.1852C35.887 10.3276 36.0663 10.542 36.1655 10.7957C36.2647 11.0495 36.2783 11.3287 36.2041 11.5909C36.13 11.853 35.9723 12.0838 35.7549 12.2481C35.5375 12.4123 35.2724 12.5011 35 12.5008H31.25V22.5008H33.75C34.0815 22.5008 34.3995 22.6325 34.6339 22.8669C34.8683 23.1013 35 23.4193 35 23.7508C35 24.0823 34.8683 24.4002 34.6339 24.6347C34.3995 24.8691 34.0815 25.0008 33.75 25.0008H3.75C3.41848 25.0008 3.10054 24.8691 2.86612 24.6347C2.6317 24.4002 2.5 24.0823 2.5 23.7508C2.5 23.4193 2.6317 23.1013 2.86612 22.8669C3.10054 22.6325 3.41848 22.5008 3.75 22.5008H6.25V12.5008H2.5C2.22779 12.5009 1.963 12.4121 1.74585 12.248C1.52869 12.0838 1.37105 11.8533 1.29687 11.5914ZM21.25 21.2508C21.25 21.5823 21.3817 21.9002 21.6161 22.1347C21.8505 22.3691 22.1685 22.5008 22.5 22.5008C22.8315 22.5008 23.1495 22.3691 23.3839 22.1347C23.6183 21.9002 23.75 21.5823 23.75 21.2508V13.7508C23.75 13.4193 23.6183 13.1013 23.3839 12.8669C23.1495 12.6325 22.8315 12.5008 22.5 12.5008C22.1685 12.5008 21.8505 12.6325 21.6161 12.8669C21.3817 13.1013 21.25 13.4193 21.25 13.7508V21.2508ZM13.75 21.2508C13.75 21.5823 13.8817 21.9002 14.1161 22.1347C14.3505 22.3691 14.6685 22.5008 15 22.5008C15.3315 22.5008 15.6495 22.3691 15.8839 22.1347C16.1183 21.9002 16.25 21.5823 16.25 21.2508V13.7508C16.25 13.4193 16.1183 13.1013 15.8839 12.8669C15.6495 12.6325 15.3315 12.5008 15 12.5008C14.6685 12.5008 14.3505 12.6325 14.1161 12.8669C13.8817 13.1013 13.75 13.4193 13.75 13.7508V21.2508Z" fill="#00AA72"/>
</svg>
