<svg width="416" height="296" viewBox="0 0 416 296" fill="none" xmlns="http://www.w3.org/2000/svg">
<path d="M0 103.179H399" stroke="#00AA72" stroke-width="0.623438"/>
<path d="M102.265 57.098C102.265 57.3473 102.17 57.56 101.979 57.736C101.803 57.912 101.59 58 101.341 58C101.062 58 100.842 57.912 100.681 57.736C100.52 57.56 100.439 57.3473 100.439 57.098V43.502C100.439 43.238 100.527 43.0253 100.703 42.864C100.879 42.688 101.099 42.6 101.363 42.6C101.612 42.6 101.825 42.688 102.001 42.864C102.177 43.0253 102.265 43.238 102.265 43.502V57.098ZM111.478 46.34C112.476 46.34 113.26 46.5453 113.832 46.956C114.404 47.3667 114.808 47.9167 115.042 48.606C115.292 49.2953 115.416 50.0653 115.416 50.916V57.098C115.416 57.3473 115.328 57.56 115.152 57.736C114.991 57.912 114.786 58 114.536 58C114.287 58 114.074 57.912 113.898 57.736C113.737 57.56 113.656 57.3473 113.656 57.098V50.96C113.656 50.4027 113.568 49.904 113.392 49.464C113.231 49.0093 112.952 48.65 112.556 48.386C112.175 48.1073 111.647 47.968 110.972 47.968C110.356 47.968 109.792 48.1073 109.278 48.386C108.765 48.65 108.354 49.0093 108.046 49.464C107.738 49.904 107.584 50.4027 107.584 50.96V57.098C107.584 57.3473 107.496 57.56 107.32 57.736C107.159 57.912 106.954 58 106.704 58C106.455 58 106.242 57.912 106.066 57.736C105.905 57.56 105.824 57.3473 105.824 57.098V47.506C105.824 47.2567 105.905 47.0513 106.066 46.89C106.242 46.714 106.455 46.626 106.704 46.626C106.968 46.626 107.181 46.714 107.342 46.89C107.504 47.0513 107.584 47.2567 107.584 47.506V49.068L107.144 49.552C107.218 49.1707 107.386 48.7893 107.65 48.408C107.914 48.012 108.244 47.66 108.64 47.352C109.036 47.044 109.476 46.802 109.96 46.626C110.444 46.4353 110.95 46.34 111.478 46.34ZM118.232 46.692H123.402C123.637 46.692 123.827 46.7727 123.974 46.934C124.135 47.0953 124.216 47.286 124.216 47.506C124.216 47.7407 124.135 47.9387 123.974 48.1C123.827 48.2467 123.637 48.32 123.402 48.32H118.232C118.012 48.32 117.821 48.2393 117.66 48.078C117.499 47.9167 117.418 47.7187 117.418 47.484C117.418 47.264 117.499 47.0807 117.66 46.934C117.821 46.7727 118.012 46.692 118.232 46.692ZM120.542 43.7C120.791 43.7 120.997 43.788 121.158 43.964C121.319 44.1253 121.4 44.3307 121.4 44.58V55.206C121.4 55.558 121.451 55.822 121.554 55.998C121.657 56.174 121.789 56.2987 121.95 56.372C122.126 56.4307 122.295 56.46 122.456 56.46C122.603 56.46 122.727 56.438 122.83 56.394C122.947 56.3353 123.079 56.306 123.226 56.306C123.373 56.306 123.505 56.3793 123.622 56.526C123.754 56.658 123.82 56.834 123.82 57.054C123.82 57.318 123.666 57.5453 123.358 57.736C123.05 57.912 122.705 58 122.324 58C122.119 58 121.862 57.9853 121.554 57.956C121.261 57.9267 120.967 57.8313 120.674 57.67C120.381 57.5087 120.131 57.2447 119.926 56.878C119.735 56.4967 119.64 55.9687 119.64 55.294V44.58C119.64 44.3307 119.728 44.1253 119.904 43.964C120.08 43.788 120.293 43.7 120.542 43.7ZM131.815 58.22C130.641 58.22 129.615 57.9707 128.735 57.472C127.855 56.9733 127.165 56.2913 126.667 55.426C126.183 54.546 125.941 53.534 125.941 52.39C125.941 51.114 126.19 50.0287 126.689 49.134C127.202 48.2247 127.862 47.5353 128.669 47.066C129.49 46.582 130.355 46.34 131.265 46.34C131.939 46.34 132.592 46.4647 133.223 46.714C133.853 46.9633 134.411 47.33 134.895 47.814C135.379 48.2833 135.767 48.8553 136.061 49.53C136.354 50.19 136.508 50.9307 136.523 51.752C136.523 51.9867 136.435 52.1847 136.259 52.346C136.083 52.5073 135.877 52.588 135.643 52.588H126.953L126.557 51.07H135.027L134.675 51.378V50.894C134.616 50.2927 134.411 49.7793 134.059 49.354C133.721 48.914 133.303 48.5767 132.805 48.342C132.321 48.1073 131.807 47.99 131.265 47.99C130.825 47.99 130.385 48.0707 129.945 48.232C129.519 48.3787 129.131 48.628 128.779 48.98C128.441 49.3173 128.163 49.7573 127.943 50.3C127.737 50.8427 127.635 51.4953 127.635 52.258C127.635 53.1087 127.803 53.8567 128.141 54.502C128.493 55.1473 128.977 55.6607 129.593 56.042C130.209 56.4087 130.927 56.592 131.749 56.592C132.262 56.592 132.709 56.526 133.091 56.394C133.472 56.262 133.802 56.1007 134.081 55.91C134.359 55.7047 134.594 55.4993 134.785 55.294C134.975 55.162 135.159 55.096 135.335 55.096C135.555 55.096 135.731 55.1693 135.863 55.316C136.009 55.4627 136.083 55.6387 136.083 55.844C136.083 56.0933 135.965 56.3133 135.731 56.504C135.32 56.9587 134.763 57.362 134.059 57.714C133.355 58.0513 132.607 58.22 131.815 58.22ZM143.835 46.34C144.465 46.34 145.052 46.45 145.595 46.67C146.137 46.8753 146.607 47.1467 147.003 47.484C147.413 47.8213 147.729 48.1733 147.949 48.54C148.183 48.9067 148.301 49.2513 148.301 49.574L147.883 49.31V47.396C147.883 47.1467 147.963 46.9413 148.125 46.78C148.286 46.604 148.499 46.516 148.763 46.516C149.012 46.516 149.217 46.604 149.379 46.78C149.555 46.9413 149.643 47.1467 149.643 47.396V57.032C149.643 58.2347 149.386 59.232 148.873 60.024C148.374 60.816 147.699 61.41 146.849 61.806C145.998 62.202 145.045 62.4 143.989 62.4C143.549 62.4 143.065 62.3413 142.537 62.224C142.009 62.1067 141.539 61.96 141.129 61.784C140.718 61.6227 140.454 61.454 140.337 61.278C140.117 61.1313 139.977 60.9627 139.919 60.772C139.875 60.596 139.911 60.4273 140.029 60.266C140.161 60.0607 140.329 59.958 140.535 59.958C140.755 59.958 141.026 60.024 141.349 60.156C141.481 60.2 141.686 60.2733 141.965 60.376C142.258 60.4787 142.581 60.5667 142.933 60.64C143.299 60.728 143.659 60.772 144.011 60.772C145.257 60.772 146.211 60.442 146.871 59.782C147.545 59.1367 147.883 58.2787 147.883 57.208V55.162L148.125 55.272C148.037 55.6827 147.853 56.064 147.575 56.416C147.311 56.768 146.981 57.0833 146.585 57.362C146.203 57.626 145.778 57.8387 145.309 58C144.839 58.1467 144.363 58.22 143.879 58.22C142.852 58.22 141.928 57.9633 141.107 57.45C140.285 56.9367 139.633 56.2327 139.149 55.338C138.679 54.4433 138.445 53.424 138.445 52.28C138.445 51.1213 138.679 50.0947 139.149 49.2C139.633 48.3053 140.278 47.6087 141.085 47.11C141.906 46.5967 142.823 46.34 143.835 46.34ZM144.055 47.968C143.307 47.968 142.632 48.1587 142.031 48.54C141.444 48.9067 140.982 49.4127 140.645 50.058C140.322 50.7033 140.161 51.444 140.161 52.28C140.161 53.0867 140.322 53.82 140.645 54.48C140.982 55.1253 141.444 55.6387 142.031 56.02C142.632 56.4013 143.307 56.592 144.055 56.592C144.817 56.592 145.492 56.4087 146.079 56.042C146.665 55.6607 147.127 55.1473 147.465 54.502C147.802 53.8567 147.971 53.116 147.971 52.28C147.971 51.4293 147.802 50.6813 147.465 50.036C147.127 49.3907 146.665 48.8847 146.079 48.518C145.492 48.1513 144.817 47.968 144.055 47.968ZM153.777 58C153.527 58 153.315 57.912 153.139 57.736C152.977 57.56 152.897 57.3473 152.897 57.098V47.506C152.897 47.2567 152.977 47.0513 153.139 46.89C153.315 46.714 153.527 46.626 153.777 46.626C154.041 46.626 154.253 46.714 154.415 46.89C154.576 47.0513 154.657 47.2567 154.657 47.506V50.41L154.393 49.948C154.481 49.4933 154.635 49.0533 154.855 48.628C155.089 48.188 155.383 47.7993 155.735 47.462C156.087 47.11 156.49 46.8387 156.945 46.648C157.399 46.4427 157.898 46.34 158.441 46.34C158.763 46.34 159.057 46.4207 159.321 46.582C159.599 46.7287 159.739 46.9413 159.739 47.22C159.739 47.528 159.658 47.7553 159.497 47.902C159.335 48.0487 159.152 48.122 158.947 48.122C158.756 48.122 158.573 48.0853 158.397 48.012C158.221 47.924 158.001 47.88 157.737 47.88C157.37 47.88 157.003 47.9827 156.637 48.188C156.285 48.3787 155.955 48.6573 155.647 49.024C155.353 49.3907 155.111 49.8087 154.921 50.278C154.745 50.7327 154.657 51.224 154.657 51.752V57.098C154.657 57.3473 154.569 57.56 154.393 57.736C154.231 57.912 154.026 58 153.777 58ZM170.841 46.516C171.09 46.516 171.295 46.604 171.457 46.78C171.633 46.9413 171.721 47.1467 171.721 47.396V57.098C171.721 57.3473 171.633 57.56 171.457 57.736C171.295 57.912 171.09 58 170.841 58C170.577 58 170.364 57.912 170.203 57.736C170.041 57.56 169.961 57.3473 169.961 57.098V55.008L170.379 54.964C170.379 55.2867 170.269 55.6387 170.049 56.02C169.829 56.4013 169.528 56.7607 169.147 57.098C168.765 57.4207 168.311 57.692 167.783 57.912C167.269 58.1173 166.712 58.22 166.111 58.22C165.113 58.22 164.219 57.9633 163.427 57.45C162.635 56.922 162.004 56.2107 161.535 55.316C161.08 54.4213 160.853 53.402 160.853 52.258C160.853 51.0993 161.08 50.08 161.535 49.2C162.004 48.3053 162.635 47.6087 163.427 47.11C164.219 46.5967 165.099 46.34 166.067 46.34C166.697 46.34 167.284 46.4427 167.827 46.648C168.369 46.8533 168.839 47.132 169.235 47.484C169.645 47.836 169.961 48.2247 170.181 48.65C170.415 49.0753 170.533 49.5007 170.533 49.926L169.961 49.794V47.396C169.961 47.1467 170.041 46.9413 170.203 46.78C170.364 46.604 170.577 46.516 170.841 46.516ZM166.309 56.592C167.042 56.592 167.687 56.4013 168.245 56.02C168.817 55.6387 169.257 55.1253 169.565 54.48C169.887 53.82 170.049 53.0793 170.049 52.258C170.049 51.4513 169.887 50.7253 169.565 50.08C169.257 49.42 168.817 48.9067 168.245 48.54C167.687 48.1587 167.042 47.968 166.309 47.968C165.59 47.968 164.945 48.1513 164.373 48.518C163.815 48.8847 163.375 49.3907 163.053 50.036C162.73 50.6813 162.569 51.422 162.569 52.258C162.569 53.0793 162.723 53.82 163.031 54.48C163.353 55.1253 163.793 55.6387 164.351 56.02C164.923 56.4013 165.575 56.592 166.309 56.592ZM174.542 46.692H179.712C179.947 46.692 180.138 46.7727 180.284 46.934C180.446 47.0953 180.526 47.286 180.526 47.506C180.526 47.7407 180.446 47.9387 180.284 48.1C180.138 48.2467 179.947 48.32 179.712 48.32H174.542C174.322 48.32 174.132 48.2393 173.97 48.078C173.809 47.9167 173.728 47.7187 173.728 47.484C173.728 47.264 173.809 47.0807 173.97 46.934C174.132 46.7727 174.322 46.692 174.542 46.692ZM176.852 43.7C177.102 43.7 177.307 43.788 177.468 43.964C177.63 44.1253 177.71 44.3307 177.71 44.58V55.206C177.71 55.558 177.762 55.822 177.864 55.998C177.967 56.174 178.099 56.2987 178.26 56.372C178.436 56.4307 178.605 56.46 178.766 56.46C178.913 56.46 179.038 56.438 179.14 56.394C179.258 56.3353 179.39 56.306 179.536 56.306C179.683 56.306 179.815 56.3793 179.932 56.526C180.064 56.658 180.13 56.834 180.13 57.054C180.13 57.318 179.976 57.5453 179.668 57.736C179.36 57.912 179.016 58 178.634 58C178.429 58 178.172 57.9853 177.864 57.956C177.571 57.9267 177.278 57.8313 176.984 57.67C176.691 57.5087 176.442 57.2447 176.236 56.878C176.046 56.4967 175.95 55.9687 175.95 55.294V44.58C175.95 44.3307 176.038 44.1253 176.214 43.964C176.39 43.788 176.603 43.7 176.852 43.7ZM188.125 58.22C186.952 58.22 185.925 57.9707 185.045 57.472C184.165 56.9733 183.476 56.2913 182.977 55.426C182.493 54.546 182.251 53.534 182.251 52.39C182.251 51.114 182.501 50.0287 182.999 49.134C183.513 48.2247 184.173 47.5353 184.979 47.066C185.801 46.582 186.666 46.34 187.575 46.34C188.25 46.34 188.903 46.4647 189.533 46.714C190.164 46.9633 190.721 47.33 191.205 47.814C191.689 48.2833 192.078 48.8553 192.371 49.53C192.665 50.19 192.819 50.9307 192.833 51.752C192.833 51.9867 192.745 52.1847 192.569 52.346C192.393 52.5073 192.188 52.588 191.953 52.588H183.263L182.867 51.07H191.337L190.985 51.378V50.894C190.927 50.2927 190.721 49.7793 190.369 49.354C190.032 48.914 189.614 48.5767 189.115 48.342C188.631 48.1073 188.118 47.99 187.575 47.99C187.135 47.99 186.695 48.0707 186.255 48.232C185.83 48.3787 185.441 48.628 185.089 48.98C184.752 49.3173 184.473 49.7573 184.253 50.3C184.048 50.8427 183.945 51.4953 183.945 52.258C183.945 53.1087 184.114 53.8567 184.451 54.502C184.803 55.1473 185.287 55.6607 185.903 56.042C186.519 56.4087 187.238 56.592 188.059 56.592C188.573 56.592 189.02 56.526 189.401 56.394C189.783 56.262 190.113 56.1007 190.391 55.91C190.67 55.7047 190.905 55.4993 191.095 55.294C191.286 55.162 191.469 55.096 191.645 55.096C191.865 55.096 192.041 55.1693 192.173 55.316C192.32 55.4627 192.393 55.6387 192.393 55.844C192.393 56.0933 192.276 56.3133 192.041 56.504C191.631 56.9587 191.073 57.362 190.369 57.714C189.665 58.0513 188.917 58.22 188.125 58.22ZM204.851 41.72C205.1 41.72 205.305 41.808 205.467 41.984C205.643 42.1453 205.731 42.3507 205.731 42.6V57.098C205.731 57.3473 205.643 57.56 205.467 57.736C205.305 57.912 205.1 58 204.851 58C204.587 58 204.374 57.912 204.213 57.736C204.051 57.56 203.971 57.3473 203.971 57.098V55.008L204.389 54.854C204.389 55.206 204.279 55.58 204.059 55.976C203.839 56.3573 203.538 56.7167 203.157 57.054C202.775 57.3913 202.321 57.67 201.793 57.89C201.279 58.11 200.722 58.22 200.121 58.22C199.138 58.22 198.243 57.9633 197.437 57.45C196.645 56.9367 196.014 56.2327 195.545 55.338C195.09 54.4433 194.863 53.424 194.863 52.28C194.863 51.1213 195.09 50.0947 195.545 49.2C196.014 48.3053 196.645 47.6087 197.437 47.11C198.229 46.5967 199.109 46.34 200.077 46.34C200.693 46.34 201.272 46.4427 201.815 46.648C202.357 46.8533 202.827 47.132 203.223 47.484C203.633 47.836 203.956 48.2247 204.191 48.65C204.425 49.0753 204.543 49.5007 204.543 49.926L203.971 49.794V42.6C203.971 42.3507 204.051 42.1453 204.213 41.984C204.374 41.808 204.587 41.72 204.851 41.72ZM200.319 56.592C201.052 56.592 201.697 56.4087 202.255 56.042C202.827 55.6607 203.267 55.1473 203.575 54.502C203.897 53.842 204.059 53.1013 204.059 52.28C204.059 51.444 203.897 50.7033 203.575 50.058C203.267 49.4127 202.827 48.9067 202.255 48.54C201.697 48.1587 201.052 47.968 200.319 47.968C199.6 47.968 198.955 48.1587 198.383 48.54C197.825 48.9067 197.385 49.4127 197.063 50.058C196.74 50.7033 196.579 51.444 196.579 52.28C196.579 53.0867 196.74 53.82 197.063 54.48C197.385 55.1253 197.825 55.6387 198.383 56.02C198.955 56.4013 199.6 56.592 200.319 56.592ZM221.981 42.6C223.272 42.6 224.262 42.9373 224.951 43.612C225.655 44.272 226.007 45.2107 226.007 46.428C226.007 47.0733 225.86 47.6673 225.567 48.21C225.274 48.7527 224.841 49.1853 224.269 49.508C223.712 49.8307 223.022 50.0067 222.201 50.036L222.157 49.42C222.67 49.42 223.198 49.4933 223.741 49.64C224.284 49.7867 224.782 50.0213 225.237 50.344C225.706 50.6667 226.08 51.092 226.359 51.62C226.652 52.148 226.799 52.8007 226.799 53.578C226.799 54.414 226.66 55.118 226.381 55.69C226.102 56.2473 225.728 56.702 225.259 57.054C224.804 57.3913 224.291 57.6333 223.719 57.78C223.162 57.9267 222.597 58 222.025 58H216.239C215.99 58 215.777 57.912 215.601 57.736C215.44 57.56 215.359 57.3473 215.359 57.098V43.48C215.359 43.2307 215.44 43.0253 215.601 42.864C215.777 42.688 215.99 42.6 216.239 42.6H221.981ZM221.717 44.338H216.987L217.251 43.942V49.42L217.009 49.134H221.761C222.406 49.134 222.956 48.9287 223.411 48.518C223.88 48.0927 224.115 47.4693 224.115 46.648C224.115 45.9147 223.902 45.35 223.477 44.954C223.052 44.5433 222.465 44.338 221.717 44.338ZM221.893 50.894H217.097L217.251 50.74V56.482L217.075 56.284H221.959C222.824 56.284 223.528 56.064 224.071 55.624C224.628 55.184 224.907 54.502 224.907 53.578C224.907 52.8593 224.76 52.3093 224.467 51.928C224.174 51.532 223.792 51.2607 223.323 51.114C222.868 50.9673 222.392 50.894 221.893 50.894ZM238.796 46.516C239.045 46.516 239.251 46.604 239.412 46.78C239.588 46.9413 239.676 47.1467 239.676 47.396V57.098C239.676 57.3473 239.588 57.56 239.412 57.736C239.251 57.912 239.045 58 238.796 58C238.532 58 238.319 57.912 238.158 57.736C237.997 57.56 237.916 57.3473 237.916 57.098V55.008L238.334 54.964C238.334 55.2867 238.224 55.6387 238.004 56.02C237.784 56.4013 237.483 56.7607 237.102 57.098C236.721 57.4207 236.266 57.692 235.738 57.912C235.225 58.1173 234.667 58.22 234.066 58.22C233.069 58.22 232.174 57.9633 231.382 57.45C230.59 56.922 229.959 56.2107 229.49 55.316C229.035 54.4213 228.808 53.402 228.808 52.258C228.808 51.0993 229.035 50.08 229.49 49.2C229.959 48.3053 230.59 47.6087 231.382 47.11C232.174 46.5967 233.054 46.34 234.022 46.34C234.653 46.34 235.239 46.4427 235.782 46.648C236.325 46.8533 236.794 47.132 237.19 47.484C237.601 47.836 237.916 48.2247 238.136 48.65C238.371 49.0753 238.488 49.5007 238.488 49.926L237.916 49.794V47.396C237.916 47.1467 237.997 46.9413 238.158 46.78C238.319 46.604 238.532 46.516 238.796 46.516ZM234.264 56.592C234.997 56.592 235.643 56.4013 236.2 56.02C236.772 55.6387 237.212 55.1253 237.52 54.48C237.843 53.82 238.004 53.0793 238.004 52.258C238.004 51.4513 237.843 50.7253 237.52 50.08C237.212 49.42 236.772 48.9067 236.2 48.54C235.643 48.1587 234.997 47.968 234.264 47.968C233.545 47.968 232.9 48.1513 232.328 48.518C231.771 48.8847 231.331 49.3907 231.008 50.036C230.685 50.6813 230.524 51.422 230.524 52.258C230.524 53.0793 230.678 53.82 230.986 54.48C231.309 55.1253 231.749 55.6387 232.306 56.02C232.878 56.4013 233.531 56.592 234.264 56.592ZM248.592 46.34C249.589 46.34 250.374 46.5453 250.946 46.956C251.518 47.3667 251.921 47.9167 252.156 48.606C252.405 49.2953 252.53 50.0653 252.53 50.916V57.098C252.53 57.3473 252.442 57.56 252.266 57.736C252.104 57.912 251.899 58 251.65 58C251.4 58 251.188 57.912 251.012 57.736C250.85 57.56 250.77 57.3473 250.77 57.098V50.96C250.77 50.4027 250.682 49.904 250.506 49.464C250.344 49.0093 250.066 48.65 249.67 48.386C249.288 48.1073 248.76 47.968 248.086 47.968C247.47 47.968 246.905 48.1073 246.392 48.386C245.878 48.65 245.468 49.0093 245.16 49.464C244.852 49.904 244.698 50.4027 244.698 50.96V57.098C244.698 57.3473 244.61 57.56 244.434 57.736C244.272 57.912 244.067 58 243.818 58C243.568 58 243.356 57.912 243.18 57.736C243.018 57.56 242.938 57.3473 242.938 57.098V47.506C242.938 47.2567 243.018 47.0513 243.18 46.89C243.356 46.714 243.568 46.626 243.818 46.626C244.082 46.626 244.294 46.714 244.456 46.89C244.617 47.0513 244.698 47.2567 244.698 47.506V49.068L244.258 49.552C244.331 49.1707 244.5 48.7893 244.764 48.408C245.028 48.012 245.358 47.66 245.754 47.352C246.15 47.044 246.59 46.802 247.074 46.626C247.558 46.4353 248.064 46.34 248.592 46.34ZM256.841 58C256.577 58 256.365 57.912 256.203 57.736C256.042 57.56 255.961 57.3473 255.961 57.098V42.6C255.961 42.3507 256.042 42.1453 256.203 41.984C256.365 41.808 256.577 41.72 256.841 41.72C257.091 41.72 257.296 41.808 257.457 41.984C257.633 42.1453 257.721 42.3507 257.721 42.6V57.098C257.721 57.3473 257.633 57.56 257.457 57.736C257.296 57.912 257.091 58 256.841 58ZM264.145 46.56C264.38 46.56 264.578 46.6553 264.739 46.846C264.915 47.022 265.003 47.2053 265.003 47.396C265.003 47.6453 264.886 47.8653 264.651 48.056L257.523 54.282L257.457 52.236L263.529 46.824C263.705 46.648 263.911 46.56 264.145 46.56ZM264.387 57.978C264.138 57.978 263.918 57.8827 263.727 57.692L259.041 52.698L260.361 51.488L265.003 56.46C265.179 56.6507 265.267 56.8707 265.267 57.12C265.267 57.384 265.165 57.5967 264.959 57.758C264.754 57.9047 264.563 57.978 264.387 57.978ZM269.51 57.098C269.51 57.3473 269.422 57.56 269.246 57.736C269.085 57.912 268.88 58 268.63 58C268.366 58 268.154 57.912 267.992 57.736C267.831 57.56 267.75 57.3473 267.75 57.098V47.33C267.75 47.0807 267.831 46.8753 267.992 46.714C268.168 46.538 268.381 46.45 268.63 46.45C268.88 46.45 269.085 46.538 269.246 46.714C269.422 46.8753 269.51 47.0807 269.51 47.33V57.098ZM268.63 44.976C268.264 44.976 267.992 44.9027 267.816 44.756C267.64 44.6093 267.552 44.382 267.552 44.074V43.766C267.552 43.458 267.648 43.2307 267.838 43.084C268.029 42.9373 268.3 42.864 268.652 42.864C269.004 42.864 269.268 42.9373 269.444 43.084C269.62 43.2307 269.708 43.458 269.708 43.766V44.074C269.708 44.382 269.613 44.6093 269.422 44.756C269.246 44.9027 268.982 44.976 268.63 44.976ZM278.326 46.34C279.323 46.34 280.108 46.5453 280.68 46.956C281.252 47.3667 281.655 47.9167 281.89 48.606C282.139 49.2953 282.264 50.0653 282.264 50.916V57.098C282.264 57.3473 282.176 57.56 282 57.736C281.839 57.912 281.633 58 281.384 58C281.135 58 280.922 57.912 280.746 57.736C280.585 57.56 280.504 57.3473 280.504 57.098V50.96C280.504 50.4027 280.416 49.904 280.24 49.464C280.079 49.0093 279.8 48.65 279.404 48.386C279.023 48.1073 278.495 47.968 277.82 47.968C277.204 47.968 276.639 48.1073 276.126 48.386C275.613 48.65 275.202 49.0093 274.894 49.464C274.586 49.904 274.432 50.4027 274.432 50.96V57.098C274.432 57.3473 274.344 57.56 274.168 57.736C274.007 57.912 273.801 58 273.552 58C273.303 58 273.09 57.912 272.914 57.736C272.753 57.56 272.672 57.3473 272.672 57.098V47.506C272.672 47.2567 272.753 47.0513 272.914 46.89C273.09 46.714 273.303 46.626 273.552 46.626C273.816 46.626 274.029 46.714 274.19 46.89C274.351 47.0513 274.432 47.2567 274.432 47.506V49.068L273.992 49.552C274.065 49.1707 274.234 48.7893 274.498 48.408C274.762 48.012 275.092 47.66 275.488 47.352C275.884 47.044 276.324 46.802 276.808 46.626C277.292 46.4353 277.798 46.34 278.326 46.34ZM290.294 46.34C290.924 46.34 291.511 46.45 292.054 46.67C292.596 46.8753 293.066 47.1467 293.462 47.484C293.872 47.8213 294.188 48.1733 294.408 48.54C294.642 48.9067 294.76 49.2513 294.76 49.574L294.342 49.31V47.396C294.342 47.1467 294.422 46.9413 294.584 46.78C294.745 46.604 294.958 46.516 295.222 46.516C295.471 46.516 295.676 46.604 295.838 46.78C296.014 46.9413 296.102 47.1467 296.102 47.396V57.032C296.102 58.2347 295.845 59.232 295.332 60.024C294.833 60.816 294.158 61.41 293.308 61.806C292.457 62.202 291.504 62.4 290.448 62.4C290.008 62.4 289.524 62.3413 288.996 62.224C288.468 62.1067 287.998 61.96 287.588 61.784C287.177 61.6227 286.913 61.454 286.796 61.278C286.576 61.1313 286.436 60.9627 286.378 60.772C286.334 60.596 286.37 60.4273 286.488 60.266C286.62 60.0607 286.788 59.958 286.994 59.958C287.214 59.958 287.485 60.024 287.808 60.156C287.94 60.2 288.145 60.2733 288.424 60.376C288.717 60.4787 289.04 60.5667 289.392 60.64C289.758 60.728 290.118 60.772 290.47 60.772C291.716 60.772 292.67 60.442 293.33 59.782C294.004 59.1367 294.342 58.2787 294.342 57.208V55.162L294.584 55.272C294.496 55.6827 294.312 56.064 294.034 56.416C293.77 56.768 293.44 57.0833 293.044 57.362C292.662 57.626 292.237 57.8387 291.768 58C291.298 58.1467 290.822 58.22 290.338 58.22C289.311 58.22 288.387 57.9633 287.566 57.45C286.744 56.9367 286.092 56.2327 285.608 55.338C285.138 54.4433 284.904 53.424 284.904 52.28C284.904 51.1213 285.138 50.0947 285.608 49.2C286.092 48.3053 286.737 47.6087 287.544 47.11C288.365 46.5967 289.282 46.34 290.294 46.34ZM290.514 47.968C289.766 47.968 289.091 48.1587 288.49 48.54C287.903 48.9067 287.441 49.4127 287.104 50.058C286.781 50.7033 286.62 51.444 286.62 52.28C286.62 53.0867 286.781 53.82 287.104 54.48C287.441 55.1253 287.903 55.6387 288.49 56.02C289.091 56.4013 289.766 56.592 290.514 56.592C291.276 56.592 291.951 56.4087 292.538 56.042C293.124 55.6607 293.586 55.1473 293.924 54.502C294.261 53.8567 294.43 53.116 294.43 52.28C294.43 51.4293 294.261 50.6813 293.924 50.036C293.586 49.3907 293.124 48.8847 292.538 48.518C291.951 48.1513 291.276 47.968 290.514 47.968ZM306.602 42.6H314.434C314.683 42.6 314.896 42.6807 315.072 42.842C315.248 43.0033 315.336 43.2087 315.336 43.458C315.336 43.7073 315.248 43.9127 315.072 44.074C314.896 44.2207 314.683 44.294 314.434 44.294H307.35L307.548 43.92V49.486L307.328 49.244H313.444C313.693 49.244 313.906 49.3247 314.082 49.486C314.258 49.6473 314.346 49.8527 314.346 50.102C314.346 50.3513 314.258 50.5567 314.082 50.718C313.906 50.8647 313.693 50.938 313.444 50.938H307.394L307.548 50.74V56.438L307.416 56.284H314.434C314.683 56.284 314.896 56.372 315.072 56.548C315.248 56.724 315.336 56.922 315.336 57.142C315.336 57.3913 315.248 57.5967 315.072 57.758C314.896 57.9193 314.683 58 314.434 58H306.602C306.353 58 306.14 57.912 305.964 57.736C305.803 57.56 305.722 57.3473 305.722 57.098V43.48C305.722 43.2307 305.803 43.0253 305.964 42.864C306.14 42.688 306.353 42.6 306.602 42.6ZM322.914 46.34C323.662 46.34 324.336 46.4207 324.938 46.582C325.539 46.7433 326.016 46.9633 326.368 47.242C326.72 47.5207 326.896 47.836 326.896 48.188C326.896 48.3787 326.83 48.562 326.698 48.738C326.566 48.914 326.39 49.002 326.17 49.002C325.964 49.002 325.796 48.9653 325.664 48.892C325.546 48.8187 325.429 48.7233 325.312 48.606C325.209 48.4887 325.062 48.386 324.872 48.298C324.696 48.1953 324.439 48.1147 324.102 48.056C323.764 47.9973 323.427 47.968 323.09 47.968C322.283 47.968 321.572 48.1587 320.956 48.54C320.354 48.9213 319.878 49.4347 319.526 50.08C319.174 50.7253 318.998 51.4587 318.998 52.28C318.998 53.1013 319.166 53.8347 319.504 54.48C319.841 55.1253 320.31 55.6387 320.912 56.02C321.513 56.4013 322.21 56.592 323.002 56.592C323.515 56.592 323.926 56.548 324.234 56.46C324.542 56.372 324.798 56.2693 325.004 56.152C325.268 56.0053 325.466 55.8587 325.598 55.712C325.744 55.5653 325.935 55.492 326.17 55.492C326.419 55.492 326.61 55.5727 326.742 55.734C326.888 55.8953 326.962 56.0933 326.962 56.328C326.962 56.592 326.778 56.8707 326.412 57.164C326.045 57.4573 325.546 57.7067 324.916 57.912C324.3 58.1173 323.596 58.22 322.804 58.22C321.689 58.22 320.714 57.9633 319.878 57.45C319.042 56.922 318.389 56.2107 317.92 55.316C317.465 54.4067 317.238 53.3947 317.238 52.28C317.238 51.1653 317.472 50.1607 317.942 49.266C318.426 48.3713 319.093 47.66 319.944 47.132C320.794 46.604 321.784 46.34 322.914 46.34ZM340.064 52.28C340.064 53.424 339.807 54.4433 339.294 55.338C338.795 56.2327 338.113 56.9367 337.248 57.45C336.397 57.9633 335.436 58.22 334.366 58.22C333.295 58.22 332.327 57.9633 331.462 57.45C330.596 56.9367 329.907 56.2327 329.394 55.338C328.895 54.4433 328.646 53.424 328.646 52.28C328.646 51.136 328.895 50.1167 329.394 49.222C329.907 48.3273 330.596 47.6233 331.462 47.11C332.327 46.5967 333.295 46.34 334.366 46.34C335.436 46.34 336.397 46.5967 337.248 47.11C338.113 47.6233 338.795 48.3273 339.294 49.222C339.807 50.1167 340.064 51.136 340.064 52.28ZM338.304 52.28C338.304 51.4293 338.128 50.6813 337.776 50.036C337.438 49.3907 336.969 48.8847 336.368 48.518C335.781 48.1513 335.114 47.968 334.366 47.968C333.618 47.968 332.943 48.1513 332.342 48.518C331.755 48.8847 331.286 49.3907 330.934 50.036C330.582 50.6813 330.406 51.4293 330.406 52.28C330.406 53.116 330.582 53.8567 330.934 54.502C331.286 55.1473 331.755 55.6607 332.342 56.042C332.943 56.4087 333.618 56.592 334.366 56.592C335.114 56.592 335.781 56.4087 336.368 56.042C336.969 55.6607 337.438 55.1473 337.776 54.502C338.128 53.8567 338.304 53.116 338.304 52.28ZM342.073 56.196C341.941 56.0053 341.882 55.8073 341.897 55.602C341.912 55.382 342.036 55.1913 342.271 55.03C342.418 54.9273 342.586 54.8833 342.777 54.898C342.982 54.9127 343.166 55.008 343.327 55.184C343.738 55.668 344.207 56.0567 344.735 56.35C345.263 56.6287 345.908 56.768 346.671 56.768C347.023 56.7533 347.375 56.6947 347.727 56.592C348.079 56.4893 348.372 56.3133 348.607 56.064C348.856 55.8 348.981 55.4553 348.981 55.03C348.981 54.6193 348.856 54.2967 348.607 54.062C348.358 53.8127 348.035 53.6147 347.639 53.468C347.243 53.3067 346.81 53.1673 346.341 53.05C345.857 52.918 345.38 52.7713 344.911 52.61C344.442 52.434 344.016 52.2213 343.635 51.972C343.268 51.708 342.968 51.3853 342.733 51.004C342.513 50.608 342.403 50.1313 342.403 49.574C342.403 48.914 342.579 48.342 342.931 47.858C343.298 47.374 343.782 47 344.383 46.736C344.999 46.472 345.666 46.34 346.385 46.34C346.796 46.34 347.221 46.3913 347.661 46.494C348.116 46.582 348.556 46.7433 348.981 46.978C349.406 47.198 349.78 47.506 350.103 47.902C350.235 48.0487 350.308 48.232 350.323 48.452C350.338 48.672 350.242 48.87 350.037 49.046C349.876 49.1633 349.692 49.2147 349.487 49.2C349.296 49.1853 349.135 49.112 349.003 48.98C348.695 48.6133 348.306 48.3347 347.837 48.144C347.382 47.9387 346.876 47.836 346.319 47.836C345.967 47.836 345.622 47.8873 345.285 47.99C344.948 48.0927 344.662 48.2687 344.427 48.518C344.207 48.7527 344.097 49.0827 344.097 49.508C344.112 49.904 344.244 50.2267 344.493 50.476C344.742 50.7253 345.08 50.9307 345.505 51.092C345.93 51.2387 346.4 51.3853 346.913 51.532C347.382 51.6493 347.83 51.7887 348.255 51.95C348.695 52.0967 349.091 52.2947 349.443 52.544C349.795 52.7933 350.074 53.116 350.279 53.512C350.484 53.8933 350.587 54.3773 350.587 54.964C350.587 55.6387 350.396 56.2253 350.015 56.724C349.634 57.208 349.128 57.582 348.497 57.846C347.881 58.0953 347.214 58.22 346.495 58.22C345.688 58.22 344.889 58.066 344.097 57.758C343.32 57.45 342.645 56.9293 342.073 56.196ZM361.645 46.45C361.894 46.45 362.1 46.538 362.261 46.714C362.437 46.8753 362.525 47.0807 362.525 47.33V56.922C362.525 58.154 362.283 59.1733 361.799 59.98C361.315 60.8013 360.662 61.41 359.841 61.806C359.034 62.202 358.118 62.4 357.091 62.4C356.519 62.4 355.969 62.3413 355.441 62.224C354.913 62.1067 354.48 61.9527 354.143 61.762C353.864 61.63 353.666 61.4613 353.549 61.256C353.446 61.0653 353.432 60.86 353.505 60.64C353.608 60.376 353.754 60.1927 353.945 60.09C354.15 59.9873 354.363 59.9873 354.583 60.09C354.818 60.1927 355.155 60.332 355.595 60.508C356.05 60.6987 356.556 60.794 357.113 60.794C357.876 60.794 358.528 60.6473 359.071 60.354C359.614 60.0607 360.032 59.628 360.325 59.056C360.618 58.4987 360.765 57.802 360.765 56.966V55.404L361.029 55.954C360.794 56.4087 360.479 56.8047 360.083 57.142C359.687 57.4793 359.232 57.7433 358.719 57.934C358.206 58.1247 357.641 58.22 357.025 58.22C356.189 58.22 355.478 58.044 354.891 57.692C354.319 57.3253 353.879 56.8267 353.571 56.196C353.278 55.5507 353.131 54.81 353.131 53.974V47.33C353.131 47.0807 353.212 46.8753 353.373 46.714C353.549 46.538 353.762 46.45 354.011 46.45C354.275 46.45 354.488 46.538 354.649 46.714C354.81 46.8753 354.891 47.0807 354.891 47.33V53.578C354.891 54.5753 355.111 55.3307 355.551 55.844C355.991 56.3427 356.673 56.592 357.597 56.592C358.184 56.592 358.712 56.46 359.181 56.196C359.665 55.932 360.046 55.5727 360.325 55.118C360.618 54.6487 360.765 54.1353 360.765 53.578V47.33C360.765 47.0807 360.846 46.8753 361.007 46.714C361.168 46.538 361.381 46.45 361.645 46.45ZM364.932 56.196C364.8 56.0053 364.742 55.8073 364.756 55.602C364.771 55.382 364.896 55.1913 365.13 55.03C365.277 54.9273 365.446 54.8833 365.636 54.898C365.842 54.9127 366.025 55.008 366.186 55.184C366.597 55.668 367.066 56.0567 367.594 56.35C368.122 56.6287 368.768 56.768 369.53 56.768C369.882 56.7533 370.234 56.6947 370.586 56.592C370.938 56.4893 371.232 56.3133 371.466 56.064C371.716 55.8 371.84 55.4553 371.84 55.03C371.84 54.6193 371.716 54.2967 371.466 54.062C371.217 53.8127 370.894 53.6147 370.498 53.468C370.102 53.3067 369.67 53.1673 369.2 53.05C368.716 52.918 368.24 52.7713 367.77 52.61C367.301 52.434 366.876 52.2213 366.494 51.972C366.128 51.708 365.827 51.3853 365.592 51.004C365.372 50.608 365.262 50.1313 365.262 49.574C365.262 48.914 365.438 48.342 365.79 47.858C366.157 47.374 366.641 47 367.242 46.736C367.858 46.472 368.526 46.34 369.244 46.34C369.655 46.34 370.08 46.3913 370.52 46.494C370.975 46.582 371.415 46.7433 371.84 46.978C372.266 47.198 372.64 47.506 372.962 47.902C373.094 48.0487 373.168 48.232 373.182 48.452C373.197 48.672 373.102 48.87 372.896 49.046C372.735 49.1633 372.552 49.2147 372.346 49.2C372.156 49.1853 371.994 49.112 371.862 48.98C371.554 48.6133 371.166 48.3347 370.696 48.144C370.242 47.9387 369.736 47.836 369.178 47.836C368.826 47.836 368.482 47.8873 368.144 47.99C367.807 48.0927 367.521 48.2687 367.286 48.518C367.066 48.7527 366.956 49.0827 366.956 49.508C366.971 49.904 367.103 50.2267 367.352 50.476C367.602 50.7253 367.939 50.9307 368.364 51.092C368.79 51.2387 369.259 51.3853 369.772 51.532C370.242 51.6493 370.689 51.7887 371.114 51.95C371.554 52.0967 371.95 52.2947 372.302 52.544C372.654 52.7933 372.933 53.116 373.138 53.512C373.344 53.8933 373.446 54.3773 373.446 54.964C373.446 55.6387 373.256 56.2253 372.874 56.724C372.493 57.208 371.987 57.582 371.356 57.846C370.74 58.0953 370.073 58.22 369.354 58.22C368.548 58.22 367.748 58.066 366.956 57.758C366.179 57.45 365.504 56.9293 364.932 56.196ZM375.55 46.692H380.72C380.955 46.692 381.146 46.7727 381.292 46.934C381.454 47.0953 381.534 47.286 381.534 47.506C381.534 47.7407 381.454 47.9387 381.292 48.1C381.146 48.2467 380.955 48.32 380.72 48.32H375.55C375.33 48.32 375.14 48.2393 374.978 48.078C374.817 47.9167 374.736 47.7187 374.736 47.484C374.736 47.264 374.817 47.0807 374.978 46.934C375.14 46.7727 375.33 46.692 375.55 46.692ZM377.86 43.7C378.11 43.7 378.315 43.788 378.476 43.964C378.638 44.1253 378.718 44.3307 378.718 44.58V55.206C378.718 55.558 378.77 55.822 378.872 55.998C378.975 56.174 379.107 56.2987 379.268 56.372C379.444 56.4307 379.613 56.46 379.774 56.46C379.921 56.46 380.046 56.438 380.148 56.394C380.266 56.3353 380.398 56.306 380.544 56.306C380.691 56.306 380.823 56.3793 380.94 56.526C381.072 56.658 381.138 56.834 381.138 57.054C381.138 57.318 380.984 57.5453 380.676 57.736C380.368 57.912 380.024 58 379.642 58C379.437 58 379.18 57.9853 378.872 57.956C378.579 57.9267 378.286 57.8313 377.992 57.67C377.699 57.5087 377.45 57.2447 377.244 56.878C377.054 56.4967 376.958 55.9687 376.958 55.294V44.58C376.958 44.3307 377.046 44.1253 377.222 43.964C377.398 43.788 377.611 43.7 377.86 43.7ZM389.133 58.22C387.96 58.22 386.933 57.9707 386.053 57.472C385.173 56.9733 384.484 56.2913 383.985 55.426C383.501 54.546 383.259 53.534 383.259 52.39C383.259 51.114 383.508 50.0287 384.007 49.134C384.52 48.2247 385.18 47.5353 385.987 47.066C386.808 46.582 387.674 46.34 388.583 46.34C389.258 46.34 389.91 46.4647 390.541 46.714C391.172 46.9633 391.729 47.33 392.213 47.814C392.697 48.2833 393.086 48.8553 393.379 49.53C393.672 50.19 393.826 50.9307 393.841 51.752C393.841 51.9867 393.753 52.1847 393.577 52.346C393.401 52.5073 393.196 52.588 392.961 52.588H384.271L383.875 51.07H392.345L391.993 51.378V50.894C391.934 50.2927 391.729 49.7793 391.377 49.354C391.04 48.914 390.622 48.5767 390.123 48.342C389.639 48.1073 389.126 47.99 388.583 47.99C388.143 47.99 387.703 48.0707 387.263 48.232C386.838 48.3787 386.449 48.628 386.097 48.98C385.76 49.3173 385.481 49.7573 385.261 50.3C385.056 50.8427 384.953 51.4953 384.953 52.258C384.953 53.1087 385.122 53.8567 385.459 54.502C385.811 55.1473 386.295 55.6607 386.911 56.042C387.527 56.4087 388.246 56.592 389.067 56.592C389.58 56.592 390.028 56.526 390.409 56.394C390.79 56.262 391.12 56.1007 391.399 55.91C391.678 55.7047 391.912 55.4993 392.103 55.294C392.294 55.162 392.477 55.096 392.653 55.096C392.873 55.096 393.049 55.1693 393.181 55.316C393.328 55.4627 393.401 55.6387 393.401 55.844C393.401 56.0933 393.284 56.3133 393.049 56.504C392.638 56.9587 392.081 57.362 391.377 57.714C390.673 58.0513 389.925 58.22 389.133 58.22ZM401.92 46.45C402.918 46.45 403.724 46.7067 404.34 47.22C404.971 47.7187 405.389 48.43 405.594 49.354H405.264L405.418 48.958C405.594 48.5473 405.895 48.1513 406.32 47.77C406.746 47.3887 407.237 47.0733 407.794 46.824C408.352 46.5747 408.931 46.45 409.532 46.45C410.5 46.45 411.263 46.6627 411.82 47.088C412.378 47.4987 412.774 48.056 413.008 48.76C413.258 49.4493 413.382 50.2267 413.382 51.092V57.098C413.382 57.3473 413.294 57.56 413.118 57.736C412.957 57.912 412.752 58 412.502 58C412.238 58 412.026 57.912 411.864 57.736C411.703 57.56 411.622 57.3473 411.622 57.098V51.136C411.622 50.564 411.534 50.0507 411.358 49.596C411.197 49.1267 410.926 48.76 410.544 48.496C410.178 48.2173 409.672 48.078 409.026 48.078C408.425 48.078 407.875 48.2173 407.376 48.496C406.878 48.76 406.482 49.1267 406.188 49.596C405.895 50.0507 405.748 50.564 405.748 51.136V57.098C405.748 57.3473 405.668 57.56 405.506 57.736C405.345 57.912 405.132 58 404.868 58C404.619 58 404.406 57.912 404.23 57.736C404.069 57.56 403.988 57.3473 403.988 57.098V51.07C403.988 50.5127 403.908 50.014 403.746 49.574C403.6 49.1193 403.343 48.76 402.976 48.496C402.61 48.2173 402.104 48.078 401.458 48.078C400.872 48.078 400.336 48.2173 399.852 48.496C399.368 48.76 398.98 49.1193 398.686 49.574C398.393 50.014 398.246 50.5127 398.246 51.07V57.098C398.246 57.3473 398.158 57.56 397.982 57.736C397.821 57.912 397.616 58 397.366 58C397.117 58 396.904 57.912 396.728 57.736C396.567 57.56 396.486 57.3473 396.486 57.098V47.506C396.486 47.2567 396.567 47.0513 396.728 46.89C396.904 46.714 397.117 46.626 397.366 46.626C397.63 46.626 397.843 46.714 398.004 46.89C398.166 47.0513 398.246 47.2567 398.246 47.506V49.178L397.762 49.706C397.821 49.3247 397.968 48.9433 398.202 48.562C398.452 48.1807 398.767 47.8287 399.148 47.506C399.53 47.1833 399.955 46.9267 400.424 46.736C400.894 46.5453 401.392 46.45 401.92 46.45ZM101.319 140.6H109.151C109.4 140.6 109.613 140.681 109.789 140.842C109.965 141.003 110.053 141.209 110.053 141.458C110.053 141.707 109.965 141.913 109.789 142.074C109.613 142.221 109.4 142.294 109.151 142.294H102.067L102.265 141.92V147.486L102.045 147.244H108.161C108.41 147.244 108.623 147.325 108.799 147.486C108.975 147.647 109.063 147.853 109.063 148.102C109.063 148.351 108.975 148.557 108.799 148.718C108.623 148.865 108.41 148.938 108.161 148.938H102.111L102.265 148.74V154.438L102.133 154.284H109.151C109.4 154.284 109.613 154.372 109.789 154.548C109.965 154.724 110.053 154.922 110.053 155.142C110.053 155.391 109.965 155.597 109.789 155.758C109.613 155.919 109.4 156 109.151 156H101.319C101.07 156 100.857 155.912 100.681 155.736C100.52 155.56 100.439 155.347 100.439 155.098V141.48C100.439 141.231 100.52 141.025 100.681 140.864C100.857 140.688 101.07 140.6 101.319 140.6ZM118.332 144.34C119.329 144.34 120.114 144.545 120.686 144.956C121.258 145.367 121.661 145.917 121.896 146.606C122.145 147.295 122.27 148.065 122.27 148.916V155.098C122.27 155.347 122.182 155.56 122.006 155.736C121.844 155.912 121.639 156 121.39 156C121.14 156 120.928 155.912 120.752 155.736C120.59 155.56 120.51 155.347 120.51 155.098V148.96C120.51 148.403 120.422 147.904 120.246 147.464C120.084 147.009 119.806 146.65 119.41 146.386C119.028 146.107 118.5 145.968 117.826 145.968C117.21 145.968 116.645 146.107 116.132 146.386C115.618 146.65 115.208 147.009 114.9 147.464C114.592 147.904 114.438 148.403 114.438 148.96V155.098C114.438 155.347 114.35 155.56 114.174 155.736C114.012 155.912 113.807 156 113.558 156C113.308 156 113.096 155.912 112.92 155.736C112.758 155.56 112.678 155.347 112.678 155.098V145.506C112.678 145.257 112.758 145.051 112.92 144.89C113.096 144.714 113.308 144.626 113.558 144.626C113.822 144.626 114.034 144.714 114.196 144.89C114.357 145.051 114.438 145.257 114.438 145.506V147.068L113.998 147.552C114.071 147.171 114.24 146.789 114.504 146.408C114.768 146.012 115.098 145.66 115.494 145.352C115.89 145.044 116.33 144.802 116.814 144.626C117.298 144.435 117.804 144.34 118.332 144.34ZM134.897 139.72C135.147 139.72 135.352 139.808 135.513 139.984C135.689 140.145 135.777 140.351 135.777 140.6V155.098C135.777 155.347 135.689 155.56 135.513 155.736C135.352 155.912 135.147 156 134.897 156C134.633 156 134.421 155.912 134.259 155.736C134.098 155.56 134.017 155.347 134.017 155.098V153.008L134.435 152.854C134.435 153.206 134.325 153.58 134.105 153.976C133.885 154.357 133.585 154.717 133.203 155.054C132.822 155.391 132.367 155.67 131.839 155.89C131.326 156.11 130.769 156.22 130.167 156.22C129.185 156.22 128.29 155.963 127.483 155.45C126.691 154.937 126.061 154.233 125.591 153.338C125.137 152.443 124.909 151.424 124.909 150.28C124.909 149.121 125.137 148.095 125.591 147.2C126.061 146.305 126.691 145.609 127.483 145.11C128.275 144.597 129.155 144.34 130.123 144.34C130.739 144.34 131.319 144.443 131.861 144.648C132.404 144.853 132.873 145.132 133.269 145.484C133.68 145.836 134.003 146.225 134.237 146.65C134.472 147.075 134.589 147.501 134.589 147.926L134.017 147.794V140.6C134.017 140.351 134.098 140.145 134.259 139.984C134.421 139.808 134.633 139.72 134.897 139.72ZM130.365 154.592C131.099 154.592 131.744 154.409 132.301 154.042C132.873 153.661 133.313 153.147 133.621 152.502C133.944 151.842 134.105 151.101 134.105 150.28C134.105 149.444 133.944 148.703 133.621 148.058C133.313 147.413 132.873 146.907 132.301 146.54C131.744 146.159 131.099 145.968 130.365 145.968C129.647 145.968 129.001 146.159 128.429 146.54C127.872 146.907 127.432 147.413 127.109 148.058C126.787 148.703 126.625 149.444 126.625 150.28C126.625 151.087 126.787 151.82 127.109 152.48C127.432 153.125 127.872 153.639 128.429 154.02C129.001 154.401 129.647 154.592 130.365 154.592ZM139.501 150.038C139.252 150.038 139.039 149.957 138.863 149.796C138.702 149.62 138.621 149.4 138.621 149.136C138.621 148.887 138.702 148.681 138.863 148.52C139.039 148.359 139.252 148.278 139.501 148.278H143.945C144.194 148.278 144.4 148.366 144.561 148.542C144.737 148.718 144.825 148.931 144.825 149.18C144.825 149.429 144.737 149.635 144.561 149.796C144.4 149.957 144.194 150.038 143.945 150.038H139.501ZM147.214 144.692H152.384C152.619 144.692 152.81 144.773 152.956 144.934C153.118 145.095 153.198 145.286 153.198 145.506C153.198 145.741 153.118 145.939 152.956 146.1C152.81 146.247 152.619 146.32 152.384 146.32H147.214C146.994 146.32 146.804 146.239 146.642 146.078C146.481 145.917 146.4 145.719 146.4 145.484C146.4 145.264 146.481 145.081 146.642 144.934C146.804 144.773 146.994 144.692 147.214 144.692ZM149.524 141.7C149.774 141.7 149.979 141.788 150.14 141.964C150.302 142.125 150.382 142.331 150.382 142.58V153.206C150.382 153.558 150.434 153.822 150.536 153.998C150.639 154.174 150.771 154.299 150.932 154.372C151.108 154.431 151.277 154.46 151.438 154.46C151.585 154.46 151.71 154.438 151.812 154.394C151.93 154.335 152.062 154.306 152.208 154.306C152.355 154.306 152.487 154.379 152.604 154.526C152.736 154.658 152.802 154.834 152.802 155.054C152.802 155.318 152.648 155.545 152.34 155.736C152.032 155.912 151.688 156 151.306 156C151.101 156 150.844 155.985 150.536 155.956C150.243 155.927 149.95 155.831 149.656 155.67C149.363 155.509 149.114 155.245 148.908 154.878C148.718 154.497 148.622 153.969 148.622 153.294V142.58C148.622 142.331 148.71 142.125 148.886 141.964C149.062 141.788 149.275 141.7 149.524 141.7ZM166.341 150.28C166.341 151.424 166.084 152.443 165.571 153.338C165.072 154.233 164.39 154.937 163.525 155.45C162.674 155.963 161.714 156.22 160.643 156.22C159.572 156.22 158.604 155.963 157.739 155.45C156.874 154.937 156.184 154.233 155.671 153.338C155.172 152.443 154.923 151.424 154.923 150.28C154.923 149.136 155.172 148.117 155.671 147.222C156.184 146.327 156.874 145.623 157.739 145.11C158.604 144.597 159.572 144.34 160.643 144.34C161.714 144.34 162.674 144.597 163.525 145.11C164.39 145.623 165.072 146.327 165.571 147.222C166.084 148.117 166.341 149.136 166.341 150.28ZM164.581 150.28C164.581 149.429 164.405 148.681 164.053 148.036C163.716 147.391 163.246 146.885 162.645 146.518C162.058 146.151 161.391 145.968 160.643 145.968C159.895 145.968 159.22 146.151 158.619 146.518C158.032 146.885 157.563 147.391 157.211 148.036C156.859 148.681 156.683 149.429 156.683 150.28C156.683 151.116 156.859 151.857 157.211 152.502C157.563 153.147 158.032 153.661 158.619 154.042C159.22 154.409 159.895 154.592 160.643 154.592C161.391 154.592 162.058 154.409 162.645 154.042C163.246 153.661 163.716 153.147 164.053 152.502C164.405 151.857 164.581 151.116 164.581 150.28ZM169.45 150.038C169.201 150.038 168.988 149.957 168.812 149.796C168.651 149.62 168.57 149.4 168.57 149.136C168.57 148.887 168.651 148.681 168.812 148.52C168.988 148.359 169.201 148.278 169.45 148.278H173.894C174.144 148.278 174.349 148.366 174.51 148.542C174.686 148.718 174.774 148.931 174.774 149.18C174.774 149.429 174.686 149.635 174.51 149.796C174.349 149.957 174.144 150.038 173.894 150.038H169.45ZM178.792 140.6H186.624C186.873 140.6 187.086 140.681 187.262 140.842C187.438 141.003 187.526 141.209 187.526 141.458C187.526 141.707 187.438 141.913 187.262 142.074C187.086 142.221 186.873 142.294 186.624 142.294H179.54L179.738 141.92V147.486L179.518 147.244H185.634C185.883 147.244 186.096 147.325 186.272 147.486C186.448 147.647 186.536 147.853 186.536 148.102C186.536 148.351 186.448 148.557 186.272 148.718C186.096 148.865 185.883 148.938 185.634 148.938H179.584L179.738 148.74V154.438L179.606 154.284H186.624C186.873 154.284 187.086 154.372 187.262 154.548C187.438 154.724 187.526 154.922 187.526 155.142C187.526 155.391 187.438 155.597 187.262 155.758C187.086 155.919 186.873 156 186.624 156H178.792C178.542 156 178.33 155.912 178.154 155.736C177.992 155.56 177.912 155.347 177.912 155.098V141.48C177.912 141.231 177.992 141.025 178.154 140.864C178.33 140.688 178.542 140.6 178.792 140.6ZM195.804 144.34C196.802 144.34 197.586 144.545 198.158 144.956C198.73 145.367 199.134 145.917 199.368 146.606C199.618 147.295 199.742 148.065 199.742 148.916V155.098C199.742 155.347 199.654 155.56 199.478 155.736C199.317 155.912 199.112 156 198.862 156C198.613 156 198.4 155.912 198.224 155.736C198.063 155.56 197.982 155.347 197.982 155.098V148.96C197.982 148.403 197.894 147.904 197.718 147.464C197.557 147.009 197.278 146.65 196.882 146.386C196.501 146.107 195.973 145.968 195.298 145.968C194.682 145.968 194.118 146.107 193.604 146.386C193.091 146.65 192.68 147.009 192.372 147.464C192.064 147.904 191.91 148.403 191.91 148.96V155.098C191.91 155.347 191.822 155.56 191.646 155.736C191.485 155.912 191.28 156 191.03 156C190.781 156 190.568 155.912 190.392 155.736C190.231 155.56 190.15 155.347 190.15 155.098V145.506C190.15 145.257 190.231 145.051 190.392 144.89C190.568 144.714 190.781 144.626 191.03 144.626C191.294 144.626 191.507 144.714 191.668 144.89C191.83 145.051 191.91 145.257 191.91 145.506V147.068L191.47 147.552C191.544 147.171 191.712 146.789 191.976 146.408C192.24 146.012 192.57 145.66 192.966 145.352C193.362 145.044 193.802 144.802 194.286 144.626C194.77 144.435 195.276 144.34 195.804 144.34ZM212.37 139.72C212.619 139.72 212.825 139.808 212.986 139.984C213.162 140.145 213.25 140.351 213.25 140.6V155.098C213.25 155.347 213.162 155.56 212.986 155.736C212.825 155.912 212.619 156 212.37 156C212.106 156 211.893 155.912 211.732 155.736C211.571 155.56 211.49 155.347 211.49 155.098V153.008L211.908 152.854C211.908 153.206 211.798 153.58 211.578 153.976C211.358 154.357 211.057 154.717 210.676 155.054C210.295 155.391 209.84 155.67 209.312 155.89C208.799 156.11 208.241 156.22 207.64 156.22C206.657 156.22 205.763 155.963 204.956 155.45C204.164 154.937 203.533 154.233 203.064 153.338C202.609 152.443 202.382 151.424 202.382 150.28C202.382 149.121 202.609 148.095 203.064 147.2C203.533 146.305 204.164 145.609 204.956 145.11C205.748 144.597 206.628 144.34 207.596 144.34C208.212 144.34 208.791 144.443 209.334 144.648C209.877 144.853 210.346 145.132 210.742 145.484C211.153 145.836 211.475 146.225 211.71 146.65C211.945 147.075 212.062 147.501 212.062 147.926L211.49 147.794V140.6C211.49 140.351 211.571 140.145 211.732 139.984C211.893 139.808 212.106 139.72 212.37 139.72ZM207.838 154.592C208.571 154.592 209.217 154.409 209.774 154.042C210.346 153.661 210.786 153.147 211.094 152.502C211.417 151.842 211.578 151.101 211.578 150.28C211.578 149.444 211.417 148.703 211.094 148.058C210.786 147.413 210.346 146.907 209.774 146.54C209.217 146.159 208.571 145.968 207.838 145.968C207.119 145.968 206.474 146.159 205.902 146.54C205.345 146.907 204.905 147.413 204.582 148.058C204.259 148.703 204.098 149.444 204.098 150.28C204.098 151.087 204.259 151.82 204.582 152.48C204.905 153.125 205.345 153.639 205.902 154.02C206.474 154.401 207.119 154.592 207.838 154.592ZM223.78 156C223.516 156 223.296 155.912 223.12 155.736C222.959 155.56 222.878 155.347 222.878 155.098V141.48C222.878 141.231 222.959 141.025 223.12 140.864C223.296 140.688 223.509 140.6 223.758 140.6H231.48C231.73 140.6 231.942 140.681 232.118 140.842C232.294 141.003 232.382 141.209 232.382 141.458C232.382 141.693 232.294 141.891 232.118 142.052C231.942 142.213 231.73 142.294 231.48 142.294H224.55L224.682 142.118V147.508L224.572 147.266H230.49C230.74 147.266 230.952 147.354 231.128 147.53C231.304 147.691 231.392 147.897 231.392 148.146C231.392 148.366 231.304 148.564 231.128 148.74C230.952 148.901 230.74 148.982 230.49 148.982H224.528L224.682 148.784V155.098C224.682 155.347 224.594 155.56 224.418 155.736C224.242 155.912 224.03 156 223.78 156ZM236.704 155.098C236.704 155.347 236.616 155.56 236.44 155.736C236.279 155.912 236.073 156 235.824 156C235.56 156 235.347 155.912 235.186 155.736C235.025 155.56 234.944 155.347 234.944 155.098V145.33C234.944 145.081 235.025 144.875 235.186 144.714C235.362 144.538 235.575 144.45 235.824 144.45C236.073 144.45 236.279 144.538 236.44 144.714C236.616 144.875 236.704 145.081 236.704 145.33V155.098ZM235.824 142.976C235.457 142.976 235.186 142.903 235.01 142.756C234.834 142.609 234.746 142.382 234.746 142.074V141.766C234.746 141.458 234.841 141.231 235.032 141.084C235.223 140.937 235.494 140.864 235.846 140.864C236.198 140.864 236.462 140.937 236.638 141.084C236.814 141.231 236.902 141.458 236.902 141.766V142.074C236.902 142.382 236.807 142.609 236.616 142.756C236.44 142.903 236.176 142.976 235.824 142.976ZM245.519 144.34C246.517 144.34 247.301 144.545 247.873 144.956C248.445 145.367 248.849 145.917 249.083 146.606C249.333 147.295 249.457 148.065 249.457 148.916V155.098C249.457 155.347 249.369 155.56 249.193 155.736C249.032 155.912 248.827 156 248.577 156C248.328 156 248.115 155.912 247.939 155.736C247.778 155.56 247.697 155.347 247.697 155.098V148.96C247.697 148.403 247.609 147.904 247.433 147.464C247.272 147.009 246.993 146.65 246.597 146.386C246.216 146.107 245.688 145.968 245.013 145.968C244.397 145.968 243.833 146.107 243.319 146.386C242.806 146.65 242.395 147.009 242.087 147.464C241.779 147.904 241.625 148.403 241.625 148.96V155.098C241.625 155.347 241.537 155.56 241.361 155.736C241.2 155.912 240.995 156 240.745 156C240.496 156 240.283 155.912 240.107 155.736C239.946 155.56 239.865 155.347 239.865 155.098V145.506C239.865 145.257 239.946 145.051 240.107 144.89C240.283 144.714 240.496 144.626 240.745 144.626C241.009 144.626 241.222 144.714 241.383 144.89C241.545 145.051 241.625 145.257 241.625 145.506V147.068L241.185 147.552C241.259 147.171 241.427 146.789 241.691 146.408C241.955 146.012 242.285 145.66 242.681 145.352C243.077 145.044 243.517 144.802 244.001 144.626C244.485 144.435 244.991 144.34 245.519 144.34ZM262.085 144.516C262.334 144.516 262.54 144.604 262.701 144.78C262.877 144.941 262.965 145.147 262.965 145.396V155.098C262.965 155.347 262.877 155.56 262.701 155.736C262.54 155.912 262.334 156 262.085 156C261.821 156 261.608 155.912 261.447 155.736C261.286 155.56 261.205 155.347 261.205 155.098V153.008L261.623 152.964C261.623 153.287 261.513 153.639 261.293 154.02C261.073 154.401 260.772 154.761 260.391 155.098C260.01 155.421 259.555 155.692 259.027 155.912C258.514 156.117 257.956 156.22 257.355 156.22C256.358 156.22 255.463 155.963 254.671 155.45C253.879 154.922 253.248 154.211 252.779 153.316C252.324 152.421 252.097 151.402 252.097 150.258C252.097 149.099 252.324 148.08 252.779 147.2C253.248 146.305 253.879 145.609 254.671 145.11C255.463 144.597 256.343 144.34 257.311 144.34C257.942 144.34 258.528 144.443 259.071 144.648C259.614 144.853 260.083 145.132 260.479 145.484C260.89 145.836 261.205 146.225 261.425 146.65C261.66 147.075 261.777 147.501 261.777 147.926L261.205 147.794V145.396C261.205 145.147 261.286 144.941 261.447 144.78C261.608 144.604 261.821 144.516 262.085 144.516ZM257.553 154.592C258.286 154.592 258.932 154.401 259.489 154.02C260.061 153.639 260.501 153.125 260.809 152.48C261.132 151.82 261.293 151.079 261.293 150.258C261.293 149.451 261.132 148.725 260.809 148.08C260.501 147.42 260.061 146.907 259.489 146.54C258.932 146.159 258.286 145.968 257.553 145.968C256.834 145.968 256.189 146.151 255.617 146.518C255.06 146.885 254.62 147.391 254.297 148.036C253.974 148.681 253.813 149.422 253.813 150.258C253.813 151.079 253.967 151.82 254.275 152.48C254.598 153.125 255.038 153.639 255.595 154.02C256.167 154.401 256.82 154.592 257.553 154.592ZM271.881 144.34C272.878 144.34 273.663 144.545 274.235 144.956C274.807 145.367 275.21 145.917 275.445 146.606C275.694 147.295 275.819 148.065 275.819 148.916V155.098C275.819 155.347 275.731 155.56 275.555 155.736C275.393 155.912 275.188 156 274.939 156C274.689 156 274.477 155.912 274.301 155.736C274.139 155.56 274.059 155.347 274.059 155.098V148.96C274.059 148.403 273.971 147.904 273.795 147.464C273.633 147.009 273.355 146.65 272.959 146.386C272.577 146.107 272.049 145.968 271.375 145.968C270.759 145.968 270.194 146.107 269.681 146.386C269.167 146.65 268.757 147.009 268.449 147.464C268.141 147.904 267.987 148.403 267.987 148.96V155.098C267.987 155.347 267.899 155.56 267.723 155.736C267.561 155.912 267.356 156 267.107 156C266.857 156 266.645 155.912 266.469 155.736C266.307 155.56 266.227 155.347 266.227 155.098V145.506C266.227 145.257 266.307 145.051 266.469 144.89C266.645 144.714 266.857 144.626 267.107 144.626C267.371 144.626 267.583 144.714 267.745 144.89C267.906 145.051 267.987 145.257 267.987 145.506V147.068L267.547 147.552C267.62 147.171 267.789 146.789 268.053 146.408C268.317 146.012 268.647 145.66 269.043 145.352C269.439 145.044 269.879 144.802 270.363 144.626C270.847 144.435 271.353 144.34 271.881 144.34ZM284.134 144.34C284.882 144.34 285.557 144.421 286.158 144.582C286.76 144.743 287.236 144.963 287.588 145.242C287.94 145.521 288.116 145.836 288.116 146.188C288.116 146.379 288.05 146.562 287.918 146.738C287.786 146.914 287.61 147.002 287.39 147.002C287.185 147.002 287.016 146.965 286.884 146.892C286.767 146.819 286.65 146.723 286.532 146.606C286.43 146.489 286.283 146.386 286.092 146.298C285.916 146.195 285.66 146.115 285.322 146.056C284.985 145.997 284.648 145.968 284.31 145.968C283.504 145.968 282.792 146.159 282.176 146.54C281.575 146.921 281.098 147.435 280.746 148.08C280.394 148.725 280.218 149.459 280.218 150.28C280.218 151.101 280.387 151.835 280.724 152.48C281.062 153.125 281.531 153.639 282.132 154.02C282.734 154.401 283.43 154.592 284.222 154.592C284.736 154.592 285.146 154.548 285.454 154.46C285.762 154.372 286.019 154.269 286.224 154.152C286.488 154.005 286.686 153.859 286.818 153.712C286.965 153.565 287.156 153.492 287.39 153.492C287.64 153.492 287.83 153.573 287.962 153.734C288.109 153.895 288.182 154.093 288.182 154.328C288.182 154.592 287.999 154.871 287.632 155.164C287.266 155.457 286.767 155.707 286.136 155.912C285.52 156.117 284.816 156.22 284.024 156.22C282.91 156.22 281.934 155.963 281.098 155.45C280.262 154.922 279.61 154.211 279.14 153.316C278.686 152.407 278.458 151.395 278.458 150.28C278.458 149.165 278.693 148.161 279.162 147.266C279.646 146.371 280.314 145.66 281.164 145.132C282.015 144.604 283.005 144.34 284.134 144.34ZM292.176 155.098C292.176 155.347 292.088 155.56 291.912 155.736C291.751 155.912 291.546 156 291.296 156C291.032 156 290.82 155.912 290.658 155.736C290.497 155.56 290.416 155.347 290.416 155.098V145.33C290.416 145.081 290.497 144.875 290.658 144.714C290.834 144.538 291.047 144.45 291.296 144.45C291.546 144.45 291.751 144.538 291.912 144.714C292.088 144.875 292.176 145.081 292.176 145.33V155.098ZM291.296 142.976C290.93 142.976 290.658 142.903 290.482 142.756C290.306 142.609 290.218 142.382 290.218 142.074V141.766C290.218 141.458 290.314 141.231 290.504 141.084C290.695 140.937 290.966 140.864 291.318 140.864C291.67 140.864 291.934 140.937 292.11 141.084C292.286 141.231 292.374 141.458 292.374 141.766V142.074C292.374 142.382 292.279 142.609 292.088 142.756C291.912 142.903 291.648 142.976 291.296 142.976ZM304.71 144.516C304.959 144.516 305.165 144.604 305.326 144.78C305.502 144.941 305.59 145.147 305.59 145.396V155.098C305.59 155.347 305.502 155.56 305.326 155.736C305.165 155.912 304.959 156 304.71 156C304.446 156 304.233 155.912 304.072 155.736C303.911 155.56 303.83 155.347 303.83 155.098V153.008L304.248 152.964C304.248 153.287 304.138 153.639 303.918 154.02C303.698 154.401 303.397 154.761 303.016 155.098C302.635 155.421 302.18 155.692 301.652 155.912C301.139 156.117 300.581 156.22 299.98 156.22C298.983 156.22 298.088 155.963 297.296 155.45C296.504 154.922 295.873 154.211 295.404 153.316C294.949 152.421 294.722 151.402 294.722 150.258C294.722 149.099 294.949 148.08 295.404 147.2C295.873 146.305 296.504 145.609 297.296 145.11C298.088 144.597 298.968 144.34 299.936 144.34C300.567 144.34 301.153 144.443 301.696 144.648C302.239 144.853 302.708 145.132 303.104 145.484C303.515 145.836 303.83 146.225 304.05 146.65C304.285 147.075 304.402 147.501 304.402 147.926L303.83 147.794V145.396C303.83 145.147 303.911 144.941 304.072 144.78C304.233 144.604 304.446 144.516 304.71 144.516ZM300.178 154.592C300.911 154.592 301.557 154.401 302.114 154.02C302.686 153.639 303.126 153.125 303.434 152.48C303.757 151.82 303.918 151.079 303.918 150.258C303.918 149.451 303.757 148.725 303.434 148.08C303.126 147.42 302.686 146.907 302.114 146.54C301.557 146.159 300.911 145.968 300.178 145.968C299.459 145.968 298.814 146.151 298.242 146.518C297.685 146.885 297.245 147.391 296.922 148.036C296.599 148.681 296.438 149.422 296.438 150.258C296.438 151.079 296.592 151.82 296.9 152.48C297.223 153.125 297.663 153.639 298.22 154.02C298.792 154.401 299.445 154.592 300.178 154.592ZM310.788 155.098C310.788 155.347 310.7 155.56 310.524 155.736C310.348 155.912 310.135 156 309.886 156C309.636 156 309.431 155.912 309.27 155.736C309.108 155.56 309.028 155.347 309.028 155.098V140.6C309.028 140.351 309.108 140.145 309.27 139.984C309.446 139.808 309.658 139.72 309.908 139.72C310.172 139.72 310.384 139.808 310.546 139.984C310.707 140.145 310.788 140.351 310.788 140.6V155.098ZM325.056 156.22C323.971 156.22 323.017 156.059 322.196 155.736C321.375 155.413 320.583 154.9 319.82 154.196C319.717 154.093 319.629 153.983 319.556 153.866C319.497 153.734 319.468 153.595 319.468 153.448C319.468 153.213 319.549 153.008 319.71 152.832C319.886 152.641 320.099 152.546 320.348 152.546C320.553 152.546 320.737 152.627 320.898 152.788C321.47 153.345 322.086 153.771 322.746 154.064C323.421 154.357 324.176 154.504 325.012 154.504C325.657 154.504 326.237 154.401 326.75 154.196C327.278 153.991 327.696 153.705 328.004 153.338C328.312 152.971 328.466 152.546 328.466 152.062C328.451 151.475 328.275 150.991 327.938 150.61C327.615 150.229 327.161 149.913 326.574 149.664C326.002 149.4 325.335 149.18 324.572 149.004C323.897 148.843 323.274 148.645 322.702 148.41C322.145 148.175 321.661 147.889 321.25 147.552C320.839 147.2 320.517 146.782 320.282 146.298C320.062 145.799 319.952 145.22 319.952 144.56C319.952 143.724 320.172 142.991 320.612 142.36C321.052 141.729 321.661 141.245 322.438 140.908C323.215 140.556 324.11 140.38 325.122 140.38C326.017 140.38 326.86 140.527 327.652 140.82C328.459 141.113 329.104 141.517 329.588 142.03C329.881 142.309 330.028 142.58 330.028 142.844C330.028 143.064 329.933 143.269 329.742 143.46C329.566 143.636 329.361 143.724 329.126 143.724C328.965 143.724 328.818 143.665 328.686 143.548C328.437 143.269 328.121 143.02 327.74 142.8C327.359 142.58 326.941 142.404 326.486 142.272C326.031 142.14 325.577 142.074 325.122 142.074C324.447 142.074 323.853 142.177 323.34 142.382C322.827 142.573 322.423 142.851 322.13 143.218C321.851 143.57 321.712 143.995 321.712 144.494C321.712 145.051 321.873 145.513 322.196 145.88C322.519 146.232 322.951 146.525 323.494 146.76C324.037 146.98 324.638 147.178 325.298 147.354C326.017 147.53 326.677 147.735 327.278 147.97C327.894 148.19 328.422 148.469 328.862 148.806C329.302 149.143 329.639 149.576 329.874 150.104C330.123 150.617 330.248 151.255 330.248 152.018C330.248 152.825 330.021 153.543 329.566 154.174C329.111 154.805 328.488 155.303 327.696 155.67C326.919 156.022 326.039 156.205 325.056 156.22ZM332.453 144.692H337.623C337.857 144.692 338.048 144.773 338.195 144.934C338.356 145.095 338.437 145.286 338.437 145.506C338.437 145.741 338.356 145.939 338.195 146.1C338.048 146.247 337.857 146.32 337.623 146.32H332.453C332.233 146.32 332.042 146.239 331.881 146.078C331.719 145.917 331.639 145.719 331.639 145.484C331.639 145.264 331.719 145.081 331.881 144.934C332.042 144.773 332.233 144.692 332.453 144.692ZM334.763 141.7C335.012 141.7 335.217 141.788 335.379 141.964C335.54 142.125 335.621 142.331 335.621 142.58V153.206C335.621 153.558 335.672 153.822 335.775 153.998C335.877 154.174 336.009 154.299 336.171 154.372C336.347 154.431 336.515 154.46 336.677 154.46C336.823 154.46 336.948 154.438 337.051 154.394C337.168 154.335 337.3 154.306 337.447 154.306C337.593 154.306 337.725 154.379 337.843 154.526C337.975 154.658 338.041 154.834 338.041 155.054C338.041 155.318 337.887 155.545 337.579 155.736C337.271 155.912 336.926 156 336.545 156C336.339 156 336.083 155.985 335.775 155.956C335.481 155.927 335.188 155.831 334.895 155.67C334.601 155.509 334.352 155.245 334.147 154.878C333.956 154.497 333.861 153.969 333.861 153.294V142.58C333.861 142.331 333.949 142.125 334.125 141.964C334.301 141.788 334.513 141.7 334.763 141.7ZM350.257 144.516C350.506 144.516 350.712 144.604 350.873 144.78C351.049 144.941 351.137 145.147 351.137 145.396V155.098C351.137 155.347 351.049 155.56 350.873 155.736C350.712 155.912 350.506 156 350.257 156C349.993 156 349.78 155.912 349.619 155.736C349.458 155.56 349.377 155.347 349.377 155.098V153.008L349.795 152.964C349.795 153.287 349.685 153.639 349.465 154.02C349.245 154.401 348.944 154.761 348.563 155.098C348.182 155.421 347.727 155.692 347.199 155.912C346.686 156.117 346.128 156.22 345.527 156.22C344.53 156.22 343.635 155.963 342.843 155.45C342.051 154.922 341.42 154.211 340.951 153.316C340.496 152.421 340.269 151.402 340.269 150.258C340.269 149.099 340.496 148.08 340.951 147.2C341.42 146.305 342.051 145.609 342.843 145.11C343.635 144.597 344.515 144.34 345.483 144.34C346.114 144.34 346.7 144.443 347.243 144.648C347.786 144.853 348.255 145.132 348.651 145.484C349.062 145.836 349.377 146.225 349.597 146.65C349.832 147.075 349.949 147.501 349.949 147.926L349.377 147.794V145.396C349.377 145.147 349.458 144.941 349.619 144.78C349.78 144.604 349.993 144.516 350.257 144.516ZM345.725 154.592C346.458 154.592 347.104 154.401 347.661 154.02C348.233 153.639 348.673 153.125 348.981 152.48C349.304 151.82 349.465 151.079 349.465 150.258C349.465 149.451 349.304 148.725 348.981 148.08C348.673 147.42 348.233 146.907 347.661 146.54C347.104 146.159 346.458 145.968 345.725 145.968C345.006 145.968 344.361 146.151 343.789 146.518C343.232 146.885 342.792 147.391 342.469 148.036C342.146 148.681 341.985 149.422 341.985 150.258C341.985 151.079 342.139 151.82 342.447 152.48C342.77 153.125 343.21 153.639 343.767 154.02C344.339 154.401 344.992 154.592 345.725 154.592ZM359.459 144.34C360.207 144.34 360.881 144.421 361.483 144.582C362.084 144.743 362.561 144.963 362.913 145.242C363.265 145.521 363.441 145.836 363.441 146.188C363.441 146.379 363.375 146.562 363.243 146.738C363.111 146.914 362.935 147.002 362.715 147.002C362.509 147.002 362.341 146.965 362.209 146.892C362.091 146.819 361.974 146.723 361.857 146.606C361.754 146.489 361.607 146.386 361.417 146.298C361.241 146.195 360.984 146.115 360.647 146.056C360.309 145.997 359.972 145.968 359.635 145.968C358.828 145.968 358.117 146.159 357.501 146.54C356.899 146.921 356.423 147.435 356.071 148.08C355.719 148.725 355.543 149.459 355.543 150.28C355.543 151.101 355.711 151.835 356.049 152.48C356.386 153.125 356.855 153.639 357.457 154.02C358.058 154.401 358.755 154.592 359.547 154.592C360.06 154.592 360.471 154.548 360.779 154.46C361.087 154.372 361.343 154.269 361.549 154.152C361.813 154.005 362.011 153.859 362.143 153.712C362.289 153.565 362.48 153.492 362.715 153.492C362.964 153.492 363.155 153.573 363.287 153.734C363.433 153.895 363.507 154.093 363.507 154.328C363.507 154.592 363.323 154.871 362.957 155.164C362.59 155.457 362.091 155.707 361.461 155.912C360.845 156.117 360.141 156.22 359.349 156.22C358.234 156.22 357.259 155.963 356.423 155.45C355.587 154.922 354.934 154.211 354.465 153.316C354.01 152.407 353.783 151.395 353.783 150.28C353.783 149.165 354.017 148.161 354.487 147.266C354.971 146.371 355.638 145.66 356.489 145.132C357.339 144.604 358.329 144.34 359.459 144.34ZM366.863 156C366.599 156 366.386 155.912 366.225 155.736C366.063 155.56 365.983 155.347 365.983 155.098V140.6C365.983 140.351 366.063 140.145 366.225 139.984C366.386 139.808 366.599 139.72 366.863 139.72C367.112 139.72 367.317 139.808 367.479 139.984C367.655 140.145 367.743 140.351 367.743 140.6V155.098C367.743 155.347 367.655 155.56 367.479 155.736C367.317 155.912 367.112 156 366.863 156ZM374.167 144.56C374.401 144.56 374.599 144.655 374.761 144.846C374.937 145.022 375.025 145.205 375.025 145.396C375.025 145.645 374.907 145.865 374.673 146.056L367.545 152.282L367.479 150.236L373.551 144.824C373.727 144.648 373.932 144.56 374.167 144.56ZM374.409 155.978C374.159 155.978 373.939 155.883 373.749 155.692L369.063 150.698L370.383 149.488L375.025 154.46C375.201 154.651 375.289 154.871 375.289 155.12C375.289 155.384 375.186 155.597 374.981 155.758C374.775 155.905 374.585 155.978 374.409 155.978ZM111.527 240.612C111.776 240.744 111.916 240.942 111.945 241.206C111.989 241.47 111.923 241.712 111.747 241.932C111.615 242.123 111.446 242.225 111.241 242.24C111.036 242.255 110.83 242.211 110.625 242.108C110.141 241.815 109.62 241.587 109.063 241.426C108.506 241.25 107.919 241.162 107.303 241.162C106.438 241.162 105.646 241.316 104.927 241.624C104.208 241.917 103.585 242.335 103.057 242.878C102.529 243.421 102.118 244.066 101.825 244.814C101.532 245.562 101.385 246.391 101.385 247.3C101.385 248.268 101.539 249.133 101.847 249.896C102.155 250.659 102.573 251.311 103.101 251.854C103.644 252.382 104.267 252.785 104.971 253.064C105.69 253.343 106.467 253.482 107.303 253.482C107.904 253.482 108.484 253.401 109.041 253.24C109.598 253.079 110.126 252.844 110.625 252.536C110.83 252.433 111.036 252.397 111.241 252.426C111.446 252.455 111.622 252.558 111.769 252.734C111.945 252.969 112.011 253.218 111.967 253.482C111.923 253.731 111.784 253.915 111.549 254.032C111.182 254.252 110.764 254.457 110.295 254.648C109.826 254.824 109.334 254.963 108.821 255.066C108.322 255.169 107.816 255.22 107.303 255.22C106.247 255.22 105.25 255.037 104.311 254.67C103.372 254.303 102.544 253.775 101.825 253.086C101.106 252.397 100.534 251.568 100.109 250.6C99.6983 249.617 99.4929 248.517 99.4929 247.3C99.4929 246.156 99.6909 245.107 100.087 244.154C100.483 243.201 101.033 242.372 101.737 241.668C102.456 240.964 103.284 240.414 104.223 240.018C105.176 239.622 106.203 239.424 107.303 239.424C108.066 239.424 108.806 239.527 109.525 239.732C110.258 239.937 110.926 240.231 111.527 240.612ZM125.113 249.28C125.113 250.424 124.856 251.443 124.343 252.338C123.844 253.233 123.162 253.937 122.297 254.45C121.446 254.963 120.485 255.22 119.415 255.22C118.344 255.22 117.376 254.963 116.511 254.45C115.645 253.937 114.956 253.233 114.443 252.338C113.944 251.443 113.695 250.424 113.695 249.28C113.695 248.136 113.944 247.117 114.443 246.222C114.956 245.327 115.645 244.623 116.511 244.11C117.376 243.597 118.344 243.34 119.415 243.34C120.485 243.34 121.446 243.597 122.297 244.11C123.162 244.623 123.844 245.327 124.343 246.222C124.856 247.117 125.113 248.136 125.113 249.28ZM123.353 249.28C123.353 248.429 123.177 247.681 122.825 247.036C122.487 246.391 122.018 245.885 121.417 245.518C120.83 245.151 120.163 244.968 119.415 244.968C118.667 244.968 117.992 245.151 117.391 245.518C116.804 245.885 116.335 246.391 115.983 247.036C115.631 247.681 115.455 248.429 115.455 249.28C115.455 250.116 115.631 250.857 115.983 251.502C116.335 252.147 116.804 252.661 117.391 253.042C117.992 253.409 118.667 253.592 119.415 253.592C120.163 253.592 120.83 253.409 121.417 253.042C122.018 252.661 122.487 252.147 122.825 251.502C123.177 250.857 123.353 250.116 123.353 249.28ZM128.64 255C128.391 255 128.178 254.912 128.002 254.736C127.841 254.56 127.76 254.347 127.76 254.098V244.506C127.76 244.257 127.841 244.051 128.002 243.89C128.178 243.714 128.391 243.626 128.64 243.626C128.904 243.626 129.117 243.714 129.278 243.89C129.439 244.051 129.52 244.257 129.52 244.506V247.41L129.256 246.948C129.344 246.493 129.498 246.053 129.718 245.628C129.953 245.188 130.246 244.799 130.598 244.462C130.95 244.11 131.353 243.839 131.808 243.648C132.263 243.443 132.761 243.34 133.304 243.34C133.627 243.34 133.92 243.421 134.184 243.582C134.463 243.729 134.602 243.941 134.602 244.22C134.602 244.528 134.521 244.755 134.36 244.902C134.199 245.049 134.015 245.122 133.81 245.122C133.619 245.122 133.436 245.085 133.26 245.012C133.084 244.924 132.864 244.88 132.6 244.88C132.233 244.88 131.867 244.983 131.5 245.188C131.148 245.379 130.818 245.657 130.51 246.024C130.217 246.391 129.975 246.809 129.784 247.278C129.608 247.733 129.52 248.224 129.52 248.752V254.098C129.52 254.347 129.432 254.56 129.256 254.736C129.095 254.912 128.889 255 128.64 255ZM141.354 255.22C140.18 255.22 139.154 254.971 138.274 254.472C137.394 253.973 136.704 253.291 136.206 252.426C135.722 251.546 135.48 250.534 135.48 249.39C135.48 248.114 135.729 247.029 136.228 246.134C136.741 245.225 137.401 244.535 138.208 244.066C139.029 243.582 139.894 243.34 140.804 243.34C141.478 243.34 142.131 243.465 142.762 243.714C143.392 243.963 143.95 244.33 144.434 244.814C144.918 245.283 145.306 245.855 145.6 246.53C145.893 247.19 146.047 247.931 146.062 248.752C146.062 248.987 145.974 249.185 145.798 249.346C145.622 249.507 145.416 249.588 145.182 249.588H136.492L136.096 248.07H144.566L144.214 248.378V247.894C144.155 247.293 143.95 246.779 143.598 246.354C143.26 245.914 142.842 245.577 142.344 245.342C141.86 245.107 141.346 244.99 140.804 244.99C140.364 244.99 139.924 245.071 139.484 245.232C139.058 245.379 138.67 245.628 138.318 245.98C137.98 246.317 137.702 246.757 137.482 247.3C137.276 247.843 137.174 248.495 137.174 249.258C137.174 250.109 137.342 250.857 137.68 251.502C138.032 252.147 138.516 252.661 139.132 253.042C139.748 253.409 140.466 253.592 141.288 253.592C141.801 253.592 142.248 253.526 142.63 253.394C143.011 253.262 143.341 253.101 143.62 252.91C143.898 252.705 144.133 252.499 144.324 252.294C144.514 252.162 144.698 252.096 144.874 252.096C145.094 252.096 145.27 252.169 145.402 252.316C145.548 252.463 145.622 252.639 145.622 252.844C145.622 253.093 145.504 253.313 145.27 253.504C144.859 253.959 144.302 254.362 143.598 254.714C142.894 255.051 142.146 255.22 141.354 255.22ZM161.696 239.6C162.986 239.6 163.976 239.937 164.666 240.612C165.37 241.272 165.722 242.211 165.722 243.428C165.722 244.073 165.575 244.667 165.282 245.21C164.988 245.753 164.556 246.185 163.984 246.508C163.426 246.831 162.737 247.007 161.916 247.036L161.872 246.42C162.385 246.42 162.913 246.493 163.456 246.64C163.998 246.787 164.497 247.021 164.952 247.344C165.421 247.667 165.795 248.092 166.074 248.62C166.367 249.148 166.514 249.801 166.514 250.578C166.514 251.414 166.374 252.118 166.096 252.69C165.817 253.247 165.443 253.702 164.974 254.054C164.519 254.391 164.006 254.633 163.434 254.78C162.876 254.927 162.312 255 161.74 255H155.954C155.704 255 155.492 254.912 155.316 254.736C155.154 254.56 155.074 254.347 155.074 254.098V240.48C155.074 240.231 155.154 240.025 155.316 239.864C155.492 239.688 155.704 239.6 155.954 239.6H161.696ZM161.432 241.338H156.702L156.966 240.942V246.42L156.724 246.134H161.476C162.121 246.134 162.671 245.929 163.126 245.518C163.595 245.093 163.83 244.469 163.83 243.648C163.83 242.915 163.617 242.35 163.192 241.954C162.766 241.543 162.18 241.338 161.432 241.338ZM161.608 247.894H156.812L156.966 247.74V253.482L156.79 253.284H161.674C162.539 253.284 163.243 253.064 163.786 252.624C164.343 252.184 164.622 251.502 164.622 250.578C164.622 249.859 164.475 249.309 164.182 248.928C163.888 248.532 163.507 248.261 163.038 248.114C162.583 247.967 162.106 247.894 161.608 247.894ZM178.511 243.516C178.76 243.516 178.965 243.604 179.127 243.78C179.303 243.941 179.391 244.147 179.391 244.396V254.098C179.391 254.347 179.303 254.56 179.127 254.736C178.965 254.912 178.76 255 178.511 255C178.247 255 178.034 254.912 177.873 254.736C177.711 254.56 177.631 254.347 177.631 254.098V252.008L178.049 251.964C178.049 252.287 177.939 252.639 177.719 253.02C177.499 253.401 177.198 253.761 176.817 254.098C176.435 254.421 175.981 254.692 175.453 254.912C174.939 255.117 174.382 255.22 173.781 255.22C172.783 255.22 171.889 254.963 171.097 254.45C170.305 253.922 169.674 253.211 169.205 252.316C168.75 251.421 168.523 250.402 168.523 249.258C168.523 248.099 168.75 247.08 169.205 246.2C169.674 245.305 170.305 244.609 171.097 244.11C171.889 243.597 172.769 243.34 173.737 243.34C174.367 243.34 174.954 243.443 175.497 243.648C176.039 243.853 176.509 244.132 176.905 244.484C177.315 244.836 177.631 245.225 177.851 245.65C178.085 246.075 178.203 246.501 178.203 246.926L177.631 246.794V244.396C177.631 244.147 177.711 243.941 177.873 243.78C178.034 243.604 178.247 243.516 178.511 243.516ZM173.979 253.592C174.712 253.592 175.357 253.401 175.915 253.02C176.487 252.639 176.927 252.125 177.235 251.48C177.557 250.82 177.719 250.079 177.719 249.258C177.719 248.451 177.557 247.725 177.235 247.08C176.927 246.42 176.487 245.907 175.915 245.54C175.357 245.159 174.712 244.968 173.979 244.968C173.26 244.968 172.615 245.151 172.043 245.518C171.485 245.885 171.045 246.391 170.723 247.036C170.4 247.681 170.239 248.422 170.239 249.258C170.239 250.079 170.393 250.82 170.701 251.48C171.023 252.125 171.463 252.639 172.021 253.02C172.593 253.401 173.245 253.592 173.979 253.592ZM188.306 243.34C189.304 243.34 190.088 243.545 190.66 243.956C191.232 244.367 191.636 244.917 191.87 245.606C192.12 246.295 192.244 247.065 192.244 247.916V254.098C192.244 254.347 192.156 254.56 191.98 254.736C191.819 254.912 191.614 255 191.364 255C191.115 255 190.902 254.912 190.726 254.736C190.565 254.56 190.484 254.347 190.484 254.098V247.96C190.484 247.403 190.396 246.904 190.22 246.464C190.059 246.009 189.78 245.65 189.384 245.386C189.003 245.107 188.475 244.968 187.8 244.968C187.184 244.968 186.62 245.107 186.106 245.386C185.593 245.65 185.182 246.009 184.874 246.464C184.566 246.904 184.412 247.403 184.412 247.96V254.098C184.412 254.347 184.324 254.56 184.148 254.736C183.987 254.912 183.782 255 183.532 255C183.283 255 183.07 254.912 182.894 254.736C182.733 254.56 182.652 254.347 182.652 254.098V244.506C182.652 244.257 182.733 244.051 182.894 243.89C183.07 243.714 183.283 243.626 183.532 243.626C183.796 243.626 184.009 243.714 184.17 243.89C184.332 244.051 184.412 244.257 184.412 244.506V246.068L183.972 246.552C184.046 246.171 184.214 245.789 184.478 245.408C184.742 245.012 185.072 244.66 185.468 244.352C185.864 244.044 186.304 243.802 186.788 243.626C187.272 243.435 187.778 243.34 188.306 243.34ZM196.556 255C196.292 255 196.079 254.912 195.918 254.736C195.757 254.56 195.676 254.347 195.676 254.098V239.6C195.676 239.351 195.757 239.145 195.918 238.984C196.079 238.808 196.292 238.72 196.556 238.72C196.805 238.72 197.011 238.808 197.172 238.984C197.348 239.145 197.436 239.351 197.436 239.6V254.098C197.436 254.347 197.348 254.56 197.172 254.736C197.011 254.912 196.805 255 196.556 255ZM203.86 243.56C204.095 243.56 204.293 243.655 204.454 243.846C204.63 244.022 204.718 244.205 204.718 244.396C204.718 244.645 204.601 244.865 204.366 245.056L197.238 251.282L197.172 249.236L203.244 243.824C203.42 243.648 203.625 243.56 203.86 243.56ZM204.102 254.978C203.853 254.978 203.633 254.883 203.442 254.692L198.756 249.698L200.076 248.488L204.718 253.46C204.894 253.651 204.982 253.871 204.982 254.12C204.982 254.384 204.879 254.597 204.674 254.758C204.469 254.905 204.278 254.978 204.102 254.978ZM209.225 254.098C209.225 254.347 209.137 254.56 208.961 254.736C208.8 254.912 208.595 255 208.345 255C208.081 255 207.869 254.912 207.707 254.736C207.546 254.56 207.465 254.347 207.465 254.098V244.33C207.465 244.081 207.546 243.875 207.707 243.714C207.883 243.538 208.096 243.45 208.345 243.45C208.595 243.45 208.8 243.538 208.961 243.714C209.137 243.875 209.225 244.081 209.225 244.33V254.098ZM208.345 241.976C207.979 241.976 207.707 241.903 207.531 241.756C207.355 241.609 207.267 241.382 207.267 241.074V240.766C207.267 240.458 207.363 240.231 207.553 240.084C207.744 239.937 208.015 239.864 208.367 239.864C208.719 239.864 208.983 239.937 209.159 240.084C209.335 240.231 209.423 240.458 209.423 240.766V241.074C209.423 241.382 209.328 241.609 209.137 241.756C208.961 241.903 208.697 241.976 208.345 241.976ZM218.041 243.34C219.038 243.34 219.823 243.545 220.395 243.956C220.967 244.367 221.37 244.917 221.605 245.606C221.854 246.295 221.979 247.065 221.979 247.916V254.098C221.979 254.347 221.891 254.56 221.715 254.736C221.553 254.912 221.348 255 221.099 255C220.849 255 220.637 254.912 220.461 254.736C220.299 254.56 220.219 254.347 220.219 254.098V247.96C220.219 247.403 220.131 246.904 219.955 246.464C219.793 246.009 219.515 245.65 219.119 245.386C218.737 245.107 218.209 244.968 217.535 244.968C216.919 244.968 216.354 245.107 215.841 245.386C215.327 245.65 214.917 246.009 214.609 246.464C214.301 246.904 214.147 247.403 214.147 247.96V254.098C214.147 254.347 214.059 254.56 213.883 254.736C213.721 254.912 213.516 255 213.267 255C213.017 255 212.805 254.912 212.629 254.736C212.467 254.56 212.387 254.347 212.387 254.098V244.506C212.387 244.257 212.467 244.051 212.629 243.89C212.805 243.714 213.017 243.626 213.267 243.626C213.531 243.626 213.743 243.714 213.905 243.89C214.066 244.051 214.147 244.257 214.147 244.506V246.068L213.707 246.552C213.78 246.171 213.949 245.789 214.213 245.408C214.477 245.012 214.807 244.66 215.203 244.352C215.599 244.044 216.039 243.802 216.523 243.626C217.007 243.435 217.513 243.34 218.041 243.34ZM230.008 243.34C230.639 243.34 231.226 243.45 231.768 243.67C232.311 243.875 232.78 244.147 233.176 244.484C233.587 244.821 233.902 245.173 234.122 245.54C234.357 245.907 234.474 246.251 234.474 246.574L234.056 246.31V244.396C234.056 244.147 234.137 243.941 234.298 243.78C234.46 243.604 234.672 243.516 234.936 243.516C235.186 243.516 235.391 243.604 235.552 243.78C235.728 243.941 235.816 244.147 235.816 244.396V254.032C235.816 255.235 235.56 256.232 235.046 257.024C234.548 257.816 233.873 258.41 233.022 258.806C232.172 259.202 231.218 259.4 230.162 259.4C229.722 259.4 229.238 259.341 228.71 259.224C228.182 259.107 227.713 258.96 227.302 258.784C226.892 258.623 226.628 258.454 226.51 258.278C226.29 258.131 226.151 257.963 226.092 257.772C226.048 257.596 226.085 257.427 226.202 257.266C226.334 257.061 226.503 256.958 226.708 256.958C226.928 256.958 227.2 257.024 227.522 257.156C227.654 257.2 227.86 257.273 228.138 257.376C228.432 257.479 228.754 257.567 229.106 257.64C229.473 257.728 229.832 257.772 230.184 257.772C231.431 257.772 232.384 257.442 233.044 256.782C233.719 256.137 234.056 255.279 234.056 254.208V252.162L234.298 252.272C234.21 252.683 234.027 253.064 233.748 253.416C233.484 253.768 233.154 254.083 232.758 254.362C232.377 254.626 231.952 254.839 231.482 255C231.013 255.147 230.536 255.22 230.052 255.22C229.026 255.22 228.102 254.963 227.28 254.45C226.459 253.937 225.806 253.233 225.322 252.338C224.853 251.443 224.618 250.424 224.618 249.28C224.618 248.121 224.853 247.095 225.322 246.2C225.806 245.305 226.452 244.609 227.258 244.11C228.08 243.597 228.996 243.34 230.008 243.34ZM230.228 244.968C229.48 244.968 228.806 245.159 228.204 245.54C227.618 245.907 227.156 246.413 226.818 247.058C226.496 247.703 226.334 248.444 226.334 249.28C226.334 250.087 226.496 250.82 226.818 251.48C227.156 252.125 227.618 252.639 228.204 253.02C228.806 253.401 229.48 253.592 230.228 253.592C230.991 253.592 231.666 253.409 232.252 253.042C232.839 252.661 233.301 252.147 233.638 251.502C233.976 250.857 234.144 250.116 234.144 249.28C234.144 248.429 233.976 247.681 233.638 247.036C233.301 246.391 232.839 245.885 232.252 245.518C231.666 245.151 230.991 244.968 230.228 244.968ZM251.465 239.6C252.272 239.6 252.998 239.798 253.643 240.194C254.288 240.59 254.794 241.133 255.161 241.822C255.542 242.511 255.733 243.296 255.733 244.176C255.733 245.041 255.542 245.826 255.161 246.53C254.794 247.234 254.288 247.791 253.643 248.202C252.998 248.613 252.272 248.818 251.465 248.818H246.999L247.153 248.554V254.098C247.153 254.347 247.072 254.56 246.911 254.736C246.75 254.912 246.544 255 246.295 255C246.031 255 245.818 254.912 245.657 254.736C245.51 254.56 245.437 254.347 245.437 254.098V240.48C245.437 240.231 245.518 240.025 245.679 239.864C245.855 239.688 246.068 239.6 246.317 239.6H251.465ZM251.465 247.124C251.949 247.124 252.374 246.992 252.741 246.728C253.108 246.464 253.401 246.105 253.621 245.65C253.841 245.195 253.951 244.704 253.951 244.176C253.951 243.619 253.841 243.127 253.621 242.702C253.401 242.277 253.108 241.939 252.741 241.69C252.374 241.426 251.949 241.294 251.465 241.294H246.999L247.153 241.052V247.344L246.999 247.124H251.465ZM260.235 254.098C260.235 254.347 260.147 254.56 259.971 254.736C259.795 254.912 259.582 255 259.333 255C259.084 255 258.878 254.912 258.717 254.736C258.556 254.56 258.475 254.347 258.475 254.098V239.6C258.475 239.351 258.556 239.145 258.717 238.984C258.893 238.808 259.106 238.72 259.355 238.72C259.619 238.72 259.832 238.808 259.993 238.984C260.154 239.145 260.235 239.351 260.235 239.6V254.098ZM273.021 243.516C273.27 243.516 273.475 243.604 273.637 243.78C273.813 243.941 273.901 244.147 273.901 244.396V254.098C273.901 254.347 273.813 254.56 273.637 254.736C273.475 254.912 273.27 255 273.021 255C272.757 255 272.544 254.912 272.383 254.736C272.221 254.56 272.141 254.347 272.141 254.098V252.008L272.559 251.964C272.559 252.287 272.449 252.639 272.229 253.02C272.009 253.401 271.708 253.761 271.327 254.098C270.945 254.421 270.491 254.692 269.963 254.912C269.449 255.117 268.892 255.22 268.291 255.22C267.293 255.22 266.399 254.963 265.607 254.45C264.815 253.922 264.184 253.211 263.715 252.316C263.26 251.421 263.033 250.402 263.033 249.258C263.033 248.099 263.26 247.08 263.715 246.2C264.184 245.305 264.815 244.609 265.607 244.11C266.399 243.597 267.279 243.34 268.247 243.34C268.877 243.34 269.464 243.443 270.007 243.648C270.549 243.853 271.019 244.132 271.415 244.484C271.825 244.836 272.141 245.225 272.361 245.65C272.595 246.075 272.713 246.501 272.713 246.926L272.141 246.794V244.396C272.141 244.147 272.221 243.941 272.383 243.78C272.544 243.604 272.757 243.516 273.021 243.516ZM268.489 253.592C269.222 253.592 269.867 253.401 270.425 253.02C270.997 252.639 271.437 252.125 271.745 251.48C272.067 250.82 272.229 250.079 272.229 249.258C272.229 248.451 272.067 247.725 271.745 247.08C271.437 246.42 270.997 245.907 270.425 245.54C269.867 245.159 269.222 244.968 268.489 244.968C267.77 244.968 267.125 245.151 266.553 245.518C265.995 245.885 265.555 246.391 265.233 247.036C264.91 247.681 264.749 248.422 264.749 249.258C264.749 250.079 264.903 250.82 265.211 251.48C265.533 252.125 265.973 252.639 266.531 253.02C267.103 253.401 267.755 253.592 268.489 253.592ZM276.722 243.692H281.892C282.127 243.692 282.318 243.773 282.464 243.934C282.626 244.095 282.706 244.286 282.706 244.506C282.706 244.741 282.626 244.939 282.464 245.1C282.318 245.247 282.127 245.32 281.892 245.32H276.722C276.502 245.32 276.312 245.239 276.15 245.078C275.989 244.917 275.908 244.719 275.908 244.484C275.908 244.264 275.989 244.081 276.15 243.934C276.312 243.773 276.502 243.692 276.722 243.692ZM279.032 240.7C279.282 240.7 279.487 240.788 279.648 240.964C279.81 241.125 279.89 241.331 279.89 241.58V252.206C279.89 252.558 279.942 252.822 280.044 252.998C280.147 253.174 280.279 253.299 280.44 253.372C280.616 253.431 280.785 253.46 280.946 253.46C281.093 253.46 281.218 253.438 281.32 253.394C281.438 253.335 281.57 253.306 281.716 253.306C281.863 253.306 281.995 253.379 282.112 253.526C282.244 253.658 282.31 253.834 282.31 254.054C282.31 254.318 282.156 254.545 281.848 254.736C281.54 254.912 281.196 255 280.814 255C280.609 255 280.352 254.985 280.044 254.956C279.751 254.927 279.458 254.831 279.164 254.67C278.871 254.509 278.622 254.245 278.416 253.878C278.226 253.497 278.13 252.969 278.13 252.294V241.58C278.13 241.331 278.218 241.125 278.394 240.964C278.57 240.788 278.783 240.7 279.032 240.7ZM289.348 238.764C289.597 238.764 289.854 238.793 290.118 238.852C290.396 238.911 290.631 239.013 290.822 239.16C291.027 239.307 291.13 239.505 291.13 239.754C291.13 239.989 291.056 240.187 290.91 240.348C290.763 240.495 290.587 240.568 290.382 240.568C290.25 240.568 290.066 240.531 289.832 240.458C289.597 240.37 289.355 240.326 289.106 240.326C288.768 240.326 288.49 240.399 288.27 240.546C288.064 240.693 287.91 240.891 287.808 241.14C287.72 241.375 287.676 241.639 287.676 241.932V254.098C287.676 254.347 287.588 254.56 287.412 254.736C287.25 254.912 287.045 255 286.796 255C286.532 255 286.319 254.912 286.158 254.736C285.996 254.56 285.916 254.347 285.916 254.098V241.954C285.916 240.971 286.216 240.194 286.818 239.622C287.434 239.05 288.277 238.764 289.348 238.764ZM289.964 243.802C290.198 243.802 290.396 243.883 290.558 244.044C290.719 244.191 290.8 244.381 290.8 244.616C290.8 244.851 290.719 245.049 290.558 245.21C290.396 245.357 290.198 245.43 289.964 245.43H284.442C284.207 245.43 284.009 245.349 283.848 245.188C283.686 245.027 283.606 244.836 283.606 244.616C283.606 244.367 283.686 244.169 283.848 244.022C284.009 243.875 284.207 243.802 284.442 243.802H289.964ZM303.111 249.28C303.111 250.424 302.854 251.443 302.341 252.338C301.842 253.233 301.16 253.937 300.295 254.45C299.444 254.963 298.483 255.22 297.413 255.22C296.342 255.22 295.374 254.963 294.509 254.45C293.643 253.937 292.954 253.233 292.441 252.338C291.942 251.443 291.693 250.424 291.693 249.28C291.693 248.136 291.942 247.117 292.441 246.222C292.954 245.327 293.643 244.623 294.509 244.11C295.374 243.597 296.342 243.34 297.413 243.34C298.483 243.34 299.444 243.597 300.295 244.11C301.16 244.623 301.842 245.327 302.341 246.222C302.854 247.117 303.111 248.136 303.111 249.28ZM301.351 249.28C301.351 248.429 301.175 247.681 300.823 247.036C300.485 246.391 300.016 245.885 299.415 245.518C298.828 245.151 298.161 244.968 297.413 244.968C296.665 244.968 295.99 245.151 295.389 245.518C294.802 245.885 294.333 246.391 293.981 247.036C293.629 247.681 293.453 248.429 293.453 249.28C293.453 250.116 293.629 250.857 293.981 251.502C294.333 252.147 294.802 252.661 295.389 253.042C295.99 253.409 296.665 253.592 297.413 253.592C298.161 253.592 298.828 253.409 299.415 253.042C300.016 252.661 300.485 252.147 300.823 251.502C301.175 250.857 301.351 250.116 301.351 249.28ZM306.638 255C306.389 255 306.176 254.912 306 254.736C305.839 254.56 305.758 254.347 305.758 254.098V244.506C305.758 244.257 305.839 244.051 306 243.89C306.176 243.714 306.389 243.626 306.638 243.626C306.902 243.626 307.115 243.714 307.276 243.89C307.437 244.051 307.518 244.257 307.518 244.506V247.41L307.254 246.948C307.342 246.493 307.496 246.053 307.716 245.628C307.951 245.188 308.244 244.799 308.596 244.462C308.948 244.11 309.351 243.839 309.806 243.648C310.261 243.443 310.759 243.34 311.302 243.34C311.625 243.34 311.918 243.421 312.182 243.582C312.461 243.729 312.6 243.941 312.6 244.22C312.6 244.528 312.519 244.755 312.358 244.902C312.197 245.049 312.013 245.122 311.808 245.122C311.617 245.122 311.434 245.085 311.258 245.012C311.082 244.924 310.862 244.88 310.598 244.88C310.231 244.88 309.865 244.983 309.498 245.188C309.146 245.379 308.816 245.657 308.508 246.024C308.215 246.391 307.973 246.809 307.782 247.278C307.606 247.733 307.518 248.224 307.518 248.752V254.098C307.518 254.347 307.43 254.56 307.254 254.736C307.093 254.912 306.887 255 306.638 255ZM320.022 243.45C321.019 243.45 321.826 243.707 322.442 244.22C323.073 244.719 323.491 245.43 323.696 246.354H323.366L323.52 245.958C323.696 245.547 323.997 245.151 324.422 244.77C324.847 244.389 325.339 244.073 325.896 243.824C326.453 243.575 327.033 243.45 327.634 243.45C328.602 243.45 329.365 243.663 329.922 244.088C330.479 244.499 330.875 245.056 331.11 245.76C331.359 246.449 331.484 247.227 331.484 248.092V254.098C331.484 254.347 331.396 254.56 331.22 254.736C331.059 254.912 330.853 255 330.604 255C330.34 255 330.127 254.912 329.966 254.736C329.805 254.56 329.724 254.347 329.724 254.098V248.136C329.724 247.564 329.636 247.051 329.46 246.596C329.299 246.127 329.027 245.76 328.646 245.496C328.279 245.217 327.773 245.078 327.128 245.078C326.527 245.078 325.977 245.217 325.478 245.496C324.979 245.76 324.583 246.127 324.29 246.596C323.997 247.051 323.85 247.564 323.85 248.136V254.098C323.85 254.347 323.769 254.56 323.608 254.736C323.447 254.912 323.234 255 322.97 255C322.721 255 322.508 254.912 322.332 254.736C322.171 254.56 322.09 254.347 322.09 254.098V248.07C322.09 247.513 322.009 247.014 321.848 246.574C321.701 246.119 321.445 245.76 321.078 245.496C320.711 245.217 320.205 245.078 319.56 245.078C318.973 245.078 318.438 245.217 317.954 245.496C317.47 245.76 317.081 246.119 316.788 246.574C316.495 247.014 316.348 247.513 316.348 248.07V254.098C316.348 254.347 316.26 254.56 316.084 254.736C315.923 254.912 315.717 255 315.468 255C315.219 255 315.006 254.912 314.83 254.736C314.669 254.56 314.588 254.347 314.588 254.098V244.506C314.588 244.257 314.669 244.051 314.83 243.89C315.006 243.714 315.219 243.626 315.468 243.626C315.732 243.626 315.945 243.714 316.106 243.89C316.267 244.051 316.348 244.257 316.348 244.506V246.178L315.864 246.706C315.923 246.325 316.069 245.943 316.304 245.562C316.553 245.181 316.869 244.829 317.25 244.506C317.631 244.183 318.057 243.927 318.526 243.736C318.995 243.545 319.494 243.45 320.022 243.45Z" fill="black"/>
<path d="M0 201.682H399" stroke="#00AA72" stroke-width="0.623438"/>
<path d="M53.1116 63.8616C53.1116 64.2145 52.9714 64.553 52.7218 64.8025C52.4723 65.0521 52.1338 65.1923 51.7809 65.1923H14.5207C14.1677 65.1923 13.8293 65.0521 13.5797 64.8025C13.3301 64.553 13.1899 64.2145 13.1899 63.8616C13.1899 63.5086 13.3301 63.1702 13.5797 62.9206C13.8293 62.6711 14.1677 62.5309 14.5207 62.5309H51.7809C52.1338 62.5309 52.4723 62.6711 52.7218 62.9206C52.9714 63.1702 53.1116 63.5086 53.1116 63.8616ZM14.5706 45.5941C14.4914 45.315 14.5056 45.0177 14.611 44.7475C14.7164 44.4772 14.9072 44.2488 15.1544 44.097L32.4538 33.4513C32.6634 33.3224 32.9047 33.2542 33.1508 33.2542C33.3968 33.2542 33.6381 33.3224 33.8477 33.4513L51.1471 44.097C51.3944 44.2487 51.5853 44.4769 51.6909 44.747C51.7965 45.0172 51.8109 45.3144 51.732 45.5935C51.6531 45.8726 51.4852 46.1183 51.2538 46.2932C51.0224 46.468 50.7402 46.5625 50.4501 46.5622H46.458V57.208H49.1194C49.4723 57.208 49.8108 57.3482 50.0604 57.5977C50.3099 57.8473 50.4501 58.1858 50.4501 58.5387C50.4501 58.8916 50.3099 59.2301 50.0604 59.4797C49.8108 59.7292 49.4723 59.8694 49.1194 59.8694H17.1821C16.8292 59.8694 16.4907 59.7292 16.2411 59.4797C15.9916 59.2301 15.8514 58.8916 15.8514 58.5387C15.8514 58.1858 15.9916 57.8473 16.2411 57.5977C16.4907 57.3482 16.8292 57.208 17.1821 57.208H19.8435V46.5622H15.8514C15.5616 46.5623 15.2797 46.4678 15.0485 46.2931C14.8174 46.1183 14.6495 45.8729 14.5706 45.5941ZM35.8122 55.8772C35.8122 56.2302 35.9524 56.5687 36.202 56.8182C36.4515 57.0678 36.79 57.208 37.1429 57.208C37.4959 57.208 37.8343 57.0678 38.0839 56.8182C38.3334 56.5687 38.4736 56.2302 38.4736 55.8772V47.8929C38.4736 47.54 38.3334 47.2015 38.0839 46.952C37.8343 46.7024 37.4959 46.5622 37.1429 46.5622C36.79 46.5622 36.4515 46.7024 36.202 46.952C35.9524 47.2015 35.8122 47.54 35.8122 47.8929V55.8772ZM27.8279 55.8772C27.8279 56.2302 27.9681 56.5687 28.2176 56.8182C28.4672 57.0678 28.8057 57.208 29.1586 57.208C29.5115 57.208 29.85 57.0678 30.0996 56.8182C30.3491 56.5687 30.4893 56.2302 30.4893 55.8772V47.8929C30.4893 47.54 30.3491 47.2015 30.0996 46.952C29.85 46.7024 29.5115 46.5622 29.1586 46.5622C28.8057 46.5622 28.4672 46.7024 28.2176 46.952C27.9681 47.2015 27.8279 47.54 27.8279 47.8929V55.8772Z" fill="#00AA72"/>
<path d="M49.6717 156.915L33.4998 166.345L17.3279 156.915C17.0078 156.755 16.6388 156.724 16.2963 156.827C15.9538 156.93 15.6633 157.16 15.4841 157.469C15.3049 157.779 15.2504 158.145 15.3317 158.493C15.413 158.842 15.624 159.146 15.9217 159.344L32.7967 169.188C33.0117 169.313 33.2562 169.379 33.5051 169.379C33.754 169.379 33.9985 169.313 34.2135 169.188L51.0885 159.344C51.2506 159.252 51.3928 159.129 51.507 158.982C51.6212 158.835 51.705 158.667 51.7536 158.487C51.8022 158.307 51.8145 158.12 51.79 157.935C51.7655 157.75 51.7046 157.573 51.6108 157.412C51.517 157.251 51.3921 157.11 51.2435 156.998C51.0949 156.886 50.9255 156.804 50.7451 156.758C50.5647 156.712 50.3769 156.702 50.1927 156.729C50.0084 156.756 49.8313 156.819 49.6717 156.915Z" fill="#00AA72"/>
<path d="M49.6717 148.477L33.4998 157.908L17.3279 148.477C17.0078 148.318 16.6388 148.286 16.2963 148.389C15.9538 148.492 15.6633 148.722 15.4841 149.032C15.3049 149.341 15.2504 149.707 15.3317 150.056C15.413 150.404 15.624 150.708 15.9217 150.907L32.7967 160.75C33.0117 160.876 33.2562 160.942 33.5051 160.942C33.754 160.942 33.9985 160.876 34.2135 160.75L51.0885 150.907C51.2506 150.815 51.3928 150.692 51.507 150.545C51.6212 150.398 51.705 150.229 51.7536 150.05C51.8022 149.87 51.8145 149.682 51.79 149.498C51.7655 149.313 51.7046 149.135 51.6108 148.974C51.517 148.813 51.3921 148.673 51.2435 148.56C51.0949 148.448 50.9255 148.367 50.7451 148.32C50.5647 148.274 50.3769 148.264 50.1927 148.291C50.0084 148.318 49.8313 148.381 49.6717 148.477Z" fill="#00AA72"/>
<path d="M15.9217 142.469L32.7967 152.313C33.0118 152.438 33.2562 152.504 33.5051 152.504C33.754 152.504 33.9985 152.438 34.2135 152.313L51.0885 142.469C51.3008 142.345 51.4769 142.168 51.5993 141.955C51.7217 141.742 51.7861 141.5 51.7861 141.254C51.7861 141.009 51.7217 140.767 51.5993 140.554C51.4769 140.341 51.3008 140.164 51.0885 140.04L34.2135 130.196C33.9985 130.071 33.754 130.005 33.5051 130.005C33.2562 130.005 33.0118 130.071 32.7967 130.196L15.9217 140.04C15.7095 140.164 15.5333 140.341 15.4109 140.554C15.2885 140.767 15.2241 141.009 15.2241 141.254C15.2241 141.5 15.2885 141.742 15.4109 141.955C15.5333 142.168 15.7095 142.345 15.9217 142.469Z" fill="#00AA72"/>
<path d="M45.7466 233.937H19.5352C18.9032 233.937 18.2971 234.188 17.8503 234.635C17.4034 235.082 17.1523 235.688 17.1523 236.32V256.574C17.1523 257.206 17.4034 257.812 17.8503 258.259C18.2971 258.706 18.9032 258.957 19.5352 258.957H21.9181V261.34C21.9181 261.656 22.0436 261.959 22.267 262.183C22.4905 262.406 22.7935 262.532 23.1095 262.532C23.4255 262.532 23.7285 262.406 23.9519 262.183C24.1754 261.959 24.3009 261.656 24.3009 261.34V258.957H40.9809V261.34C40.9809 261.656 41.1064 261.959 41.3299 262.183C41.5533 262.406 41.8563 262.532 42.1723 262.532C42.4883 262.532 42.7914 262.406 43.0148 262.183C43.2382 261.959 43.3638 261.656 43.3638 261.34V258.957H45.7466C46.3786 258.957 46.9847 258.706 47.4315 258.259C47.8784 257.812 48.1295 257.206 48.1295 256.574V236.32C48.1295 235.688 47.8784 235.082 47.4315 234.635C46.9847 234.188 46.3786 233.937 45.7466 233.937ZM44.5552 248.234H40.2497C39.9567 249.52 39.2006 250.652 38.1258 251.415C37.051 252.178 35.7327 252.518 34.4228 252.371C33.1129 252.223 31.9033 251.599 31.0249 250.616C30.1464 249.633 29.6609 248.361 29.6609 247.043C29.6609 245.725 30.1464 244.453 31.0249 243.47C31.9033 242.487 33.1129 241.863 34.4228 241.715C35.7327 241.568 37.051 241.908 38.1258 242.671C39.2006 243.434 39.9567 244.566 40.2497 245.852H44.5552C44.8712 245.852 45.1742 245.977 45.3976 246.2C45.6211 246.424 45.7466 246.727 45.7466 247.043C45.7466 247.359 45.6211 247.662 45.3976 247.885C45.1742 248.109 44.8712 248.234 44.5552 248.234ZM38.0023 247.043C38.0023 247.632 37.8276 248.208 37.5003 248.698C37.1731 249.188 36.7079 249.569 36.1636 249.795C35.6193 250.02 35.0205 250.079 34.4427 249.964C33.8649 249.849 33.3342 249.566 32.9176 249.149C32.501 248.733 32.2174 248.202 32.1024 247.624C31.9875 247.046 32.0465 246.447 32.2719 245.903C32.4974 245.359 32.8791 244.894 33.369 244.566C33.8588 244.239 34.4347 244.064 35.0238 244.064C35.4149 244.064 35.8022 244.141 36.1636 244.291C36.525 244.441 36.8533 244.66 37.1299 244.937C37.4065 245.213 37.6259 245.542 37.7756 245.903C37.9253 246.264 38.0023 246.652 38.0023 247.043Z" fill="#00AA72"/>
</svg>
