<?xml version="1.0" encoding="UTF-8"?>
<svg id="Layer_2" data-name="Layer 2" xmlns="http://www.w3.org/2000/svg" xmlns:xlink="http://www.w3.org/1999/xlink" viewBox="0 0 166.58 62.73">
  <defs>
    <style>
      .cls-1 {
        fill: #92278f;
      }

      .cls-2 {
        fill: url(#linear-gradient-2);
      }

      .cls-3 {
        fill: #1c1c1c;
      }

      .cls-4 {
        fill: url(#linear-gradient-3);
      }

      .cls-5 {
        fill: url(#linear-gradient);
      }
    </style>
    <linearGradient id="linear-gradient" x1="39.07" y1="62.73" x2="39.07" y2="25.82" gradientUnits="userSpaceOnUse">
      <stop offset="0" stop-color="#f58220"/>
      <stop offset="1" stop-color="#9a51a0"/>
    </linearGradient>
    <linearGradient id="linear-gradient-2" x1="31.37" y1="41.58" x2="31.37" y2="15.48" xlink:href="#linear-gradient"/>
    <linearGradient id="linear-gradient-3" x1="31.27" y1="62.54" x2="31.27" y2="0" xlink:href="#linear-gradient"/>
  </defs>
  <g id="Layer_1-2" data-name="Layer 1">
    <g>
      <polygon class="cls-5" points="58.83 62.73 20.76 33.35 20.76 47.35 17.06 47.35 17.06 25.82 61.09 59.8 58.83 62.73"/>
      <polygon class="cls-2" points="45.22 41.58 17.53 20.15 17.53 15.48 41.52 34.05 41.52 17.28 45.22 17.28 45.22 41.58"/>
      <path class="cls-4" d="M31.27,62.54C14.03,62.54,0,48.51,0,31.27S14.03,0,31.27,0s31.27,14.03,31.27,31.27-14.03,31.27-31.27,31.27ZM31.27,3.7C16.07,3.7,3.7,16.07,3.7,31.27s12.37,27.57,27.57,27.57,27.57-12.37,27.57-27.57S46.47,3.7,31.27,3.7Z"/>
    </g>
    <g>
      <path class="cls-1" d="M76.84,20.76c0-1.62.3-3.13.92-4.52s1.44-2.59,2.5-3.6c1.05-1.01,2.29-1.81,3.71-2.39,1.42-.58,2.94-.87,4.57-.87s3.14.29,4.57.87c1.42.58,2.66,1.37,3.71,2.39,1.05,1.01,1.88,2.21,2.5,3.6s.92,2.9.92,4.52-.27,2.99-.82,4.3-1.31,2.46-2.27,3.48l2.37,2.81-2.88,2.4-2.46-2.97c-.84.42-1.73.75-2.67,1-.94.24-1.92.36-2.95.36-1.62,0-3.14-.29-4.57-.87-1.42-.58-2.66-1.37-3.71-2.39-1.05-1.01-1.88-2.21-2.5-3.6-.61-1.39-.92-2.9-.92-4.52ZM80.54,20.76c0,1.1.21,2.11.62,3.05.41.94.98,1.75,1.71,2.43.73.69,1.57,1.22,2.54,1.6.97.38,2.01.57,3.13.57s2.13-.21,3.1-.63l-3.32-3.92,2.88-2.4,3.51,4.2c.57-.65,1.01-1.39,1.33-2.21.32-.82.47-1.72.47-2.69,0-1.12-.21-2.14-.62-3.08-.41-.94-.98-1.74-1.71-2.42-.73-.67-1.57-1.21-2.53-1.6-.96-.39-2-.58-3.11-.58s-2.16.19-3.13.58c-.97.39-1.82.92-2.54,1.6-.73.67-1.3,1.48-1.71,2.42-.41.94-.62,1.96-.62,3.08Z"/>
      <path class="cls-1" d="M102.37,16.02h4.27v3.7c.27-.69.62-1.29,1.04-1.79.42-.49.88-.91,1.39-1.25s1.04-.58,1.61-.74c.57-.16,1.15-.24,1.74-.24.9,0,1.74.17,2.5.52.76.35,1.42.87,1.97,1.56.56.69.99,1.55,1.29,2.58.31,1.02.46,2.21.46,3.55v7.9h-4.27v-6.6c0-.57-.02-1.19-.06-1.86-.04-.67-.15-1.31-.32-1.9-.17-.59-.42-1.08-.76-1.47-.34-.39-.8-.58-1.39-.58-.76,0-1.42.12-1.97.35-.56.23-1.04.53-1.46.88-.41.36-.76.75-1.04,1.17-.29.42-.53.81-.74,1.17v8.85h-4.27v-15.8Z"/>
      <path class="cls-1" d="M135.04,29.96c-.8.74-1.73,1.29-2.78,1.64-1.05.36-2.15.54-3.29.54s-2.15-.16-3.18-.49c-1.02-.33-1.93-.83-2.72-1.5-.79-.67-1.43-1.53-1.91-2.56-.49-1.03-.73-2.25-.73-3.67s.24-2.63.73-3.67c.48-1.03,1.12-1.88,1.91-2.56s1.7-1.17,2.72-1.5c1.02-.33,2.08-.49,3.18-.49.97,0,1.96.16,2.97.47,1.01.32,1.93.79,2.75,1.42.82.63,1.49,1.42,2.01,2.37.52.95.77,2.04.77,3.29v2.02h-12.58c.08.44.22.85.41,1.23.19.38.45.71.77,1,.33.28.73.51,1.2.68.47.17,1.04.25,1.69.25.78,0,1.46-.09,2.04-.28.58-.19,1.06-.46,1.44-.82l2.59,2.62ZM133.08,22.69c-.08-.44-.21-.86-.36-1.26-.16-.4-.39-.75-.7-1.04-.31-.29-.71-.53-1.2-.71-.5-.18-1.11-.27-1.85-.27-.67,0-1.25.09-1.72.27-.47.18-.87.42-1.2.71-.33.3-.58.64-.77,1.04-.19.4-.33.82-.41,1.26h8.22Z"/>
      <path class="cls-1" d="M147.15,32.14c-.65,0-1.34-.07-2.05-.22-.72-.15-1.42-.35-2.12-.6-.7-.25-1.35-.56-1.97-.92-.62-.36-1.15-.76-1.6-1.2l2.37-2.84c.29.36.66.7,1.09,1.03.43.33.89.62,1.39.87.5.25,1,.45,1.5.6.51.15.97.22,1.39.22.51,0,.98-.02,1.44-.06.45-.04.85-.12,1.2-.24.35-.12.62-.27.82-.46s.3-.43.3-.73c0-.42-.29-.74-.87-.95-.58-.21-1.3-.39-2.15-.54-.85-.15-1.79-.31-2.8-.47-1.01-.17-1.94-.42-2.8-.74-.85-.33-1.57-.78-2.15-1.36-.58-.58-.87-1.34-.87-2.29,0-.8.23-1.54.68-2.23.45-.68,1.04-1.27,1.75-1.75.72-.48,1.53-.86,2.43-1.14.91-.27,1.81-.41,2.72-.41,1.64,0,3.12.26,4.42.79,1.31.53,2.44,1.26,3.41,2.21l-2.43,2.81c-.55-.99-1.32-1.7-2.32-2.12-1-.42-2.03-.63-3.08-.63-.44,0-.87.04-1.28.11-.41.07-.77.19-1.07.33-.31.15-.55.34-.74.58-.19.24-.28.53-.28.87,0,.46.29.81.87,1.03s1.31.4,2.18.54c.87.14,1.82.29,2.83.46,1.01.17,1.95.44,2.81.81.86.37,1.58.89,2.15,1.56.57.67.83,1.58.79,2.72-.02.61-.18,1.14-.49,1.6-.31.45-.73.86-1.28,1.22-.34.25-.77.47-1.3.66s-1.08.35-1.67.47-1.17.23-1.74.3c-.57.07-1.06.11-1.49.11Z"/>
      <path class="cls-1" d="M161.43,26.1c0,.48.05.86.14,1.12.09.26.23.46.4.58.17.13.36.2.57.22.21.02.44.03.7.03h3.35v3.73h-5.44c-.42,0-.84-.05-1.25-.16-.41-.11-.77-.3-1.09-.58-.32-.28-.57-.66-.77-1.14s-.3-1.08-.3-1.82V11.69h3.7v4.33h4.27v3.7h-4.27v6.38Z"/>
      <path class="cls-3" d="M78.71,48.82c0,.73.14,1.41.42,2.03.28.62.66,1.16,1.14,1.61.48.45,1.04.81,1.68,1.07.64.26,1.33.39,2.06.39.8,0,1.54-.15,2.21-.45.67-.3,1.26-.71,1.75-1.23v-3.74h2.1v7.32h-2.1v-.94c-1.15.76-2.47,1.14-3.96,1.14-1.03,0-1.99-.18-2.89-.55s-1.68-.87-2.35-1.51c-.67-.64-1.19-1.4-1.58-2.28-.39-.88-.58-1.83-.58-2.86s.19-1.98.58-2.86c.39-.88.91-1.64,1.58-2.28.67-.64,1.45-1.14,2.35-1.51s1.86-.55,2.89-.55c1.21,0,2.32.24,3.32.73,1,.49,1.84,1.15,2.52,1.99l-1.5,1.5c-.48-.65-1.1-1.17-1.85-1.55-.75-.38-1.58-.57-2.49-.57-.73,0-1.42.13-2.06.39-.64.26-1.2.62-1.68,1.07-.48.45-.86.99-1.14,1.61-.28.62-.42,1.3-.42,2.03Z"/>
      <path class="cls-3" d="M92.03,40.82h2.1v15h-2.1v-15Z"/>
      <path class="cls-3" d="M101.13,45.62c.69,0,1.36.1,2.01.31.65.21,1.22.52,1.72.95s.9.97,1.21,1.62.46,1.43.46,2.32-.15,1.67-.46,2.32c-.31.65-.71,1.19-1.21,1.62-.5.43-1.07.74-1.72.95-.65.21-1.32.31-2.01.31s-1.36-.1-2.01-.31-1.22-.52-1.72-.95c-.5-.43-.9-.97-1.21-1.62-.31-.65-.46-1.43-.46-2.32s.15-1.67.46-2.32c.31-.65.71-1.19,1.21-1.62s1.07-.74,1.72-.95c.65-.21,1.32-.31,2.01-.31ZM101.13,47.72c-.57,0-1.05.09-1.44.27-.39.18-.69.42-.92.71-.23.29-.39.63-.49,1-.1.37-.15.75-.15,1.14s.05.75.15,1.12c.1.37.26.71.49,1,.23.29.53.53.92.71.39.18.87.27,1.44.27s1.05-.09,1.44-.27c.39-.18.69-.42.92-.71s.39-.63.49-1c.1-.37.15-.75.15-1.12s-.05-.77-.15-1.14c-.1-.37-.26-.71-.49-1-.23-.29-.53-.53-.92-.71-.39-.18-.87-.27-1.44-.27Z"/>
      <path class="cls-3" d="M108.13,40.82h2.4v6.46c.35-.57.77-.99,1.26-1.26s1.13-.4,1.9-.4c.73,0,1.42.1,2.05.31.63.21,1.18.52,1.65.95s.83.97,1.1,1.62.4,1.43.4,2.32-.13,1.67-.4,2.32c-.27.65-.63,1.19-1.1,1.62-.47.43-1.02.74-1.65.95-.63.21-1.32.31-2.05.31-.6,0-1.2-.13-1.8-.39-.6-.26-1.05-.69-1.36-1.29l-1.2,1.48h-1.2v-15ZM113.39,47.72c-.56,0-1.03.09-1.4.26-.37.17-.67.4-.88.69-.21.29-.36.61-.45.97-.09.36-.13.73-.13,1.1s.04.75.12,1.13c.08.38.23.72.44,1.03.21.31.51.56.88.75s.85.29,1.42.29c.47,0,.87-.09,1.22-.27.35-.18.64-.42.87-.71.23-.29.41-.63.53-1,.12-.37.18-.75.18-1.12s-.06-.77-.18-1.14c-.12-.37-.3-.71-.53-1-.23-.29-.52-.53-.87-.71-.35-.18-.75-.27-1.22-.27Z"/>
      <path class="cls-3" d="M127.73,54.08c-.08.24-.18.48-.3.71s-.29.44-.51.62c-.22.18-.51.33-.86.44-.35.11-.8.17-1.35.17s-1.15-.02-1.73-.07c-.58-.05-1.1-.17-1.56-.38-.46-.21-.83-.51-1.12-.92s-.43-.97-.43-1.69c0-.68.16-1.23.47-1.66s.71-.77,1.2-1.02c.49-.25,1.03-.43,1.64-.52s1.2-.14,1.79-.14h2.76v-.26c0-.15-.02-.31-.06-.5-.04-.19-.14-.37-.3-.54s-.4-.32-.73-.43c-.33-.11-.78-.17-1.37-.17-1.44,0-2.69.39-3.76,1.18l-1.24-1.7c.43-.29.83-.54,1.22-.74.39-.2.78-.36,1.18-.49.4-.13.81-.22,1.23-.27.42-.05.88-.08,1.37-.08.72,0,1.36.09,1.93.26.57.17,1.04.41,1.43.71s.68.64.89,1.03c.21.39.31.79.31,1.22v6.98h-1.2l-.9-1.74ZM125.01,54.22c.47,0,.87-.06,1.21-.17s.62-.26.85-.43c.23-.17.39-.37.5-.59.11-.22.16-.44.16-.65v-1.42h-2.62c-.83,0-1.51.15-2.04.46-.53.31-.8.75-.8,1.34,0,.53.26.91.78,1.13.52.22,1.17.33,1.96.33Z"/>
      <path class="cls-3" d="M131.79,40.82h2.1v15h-2.1v-15Z"/>
    </g>
  </g>
</svg>