<svg width="40" height="40" viewBox="0 0 40 40" fill="none" xmlns="http://www.w3.org/2000/svg">
<path d="M35.334 17.3335H31.334V36.6668H35.334C35.7027 36.6668 36.0007 36.3688 36.0007 36.0002V18.0002C36.0007 17.6315 35.7027 17.3335 35.334 17.3335Z" fill="#00AA72"/>
<path d="M8.00065 17.3335H4.00065C3.63198 17.3335 3.33398 17.6315 3.33398 18.0002V36.0002C3.33398 36.3688 3.63198 36.6668 4.00065 36.6668H8.00065V17.3335Z" fill="#00AA72"/>
<path d="M10 17.3335V36.6668H29.3333V17.3335H10ZM19.6667 26.0002C21.688 26.0002 23.3333 27.4955 23.3333 29.3335C23.3333 30.8555 22.2033 32.1408 20.6667 32.5382V33.0002C20.6667 33.5522 20.2187 34.0002 19.6667 34.0002C19.1147 34.0002 18.6667 33.5522 18.6667 33.0002V32.5375C17.19 32.1588 16 30.9862 16 29.6668C16 29.0995 16.448 28.6668 17 28.6668C17.552 28.6668 17.9187 29.1208 18 29.6668C18.09 30.2695 18.884 30.6668 19.6667 30.6668C20.586 30.6668 21.3333 30.0688 21.3333 29.3335C21.3333 28.5982 20.586 28.0002 19.6667 28.0002C17.6453 28.0002 16 26.5048 16 24.6668C16 23.1448 17.13 21.8595 18.6667 21.4622V21.0002C18.6667 20.4482 19.1147 20.0002 19.6667 20.0002C20.2187 20.0002 20.6667 20.4482 20.6667 21.0002V21.4628C22.1433 21.8415 23.3333 23.0142 23.3333 24.3335C23.3333 24.9008 22.8853 25.3335 22.3333 25.3335C21.7813 25.3335 21.4147 24.8795 21.3333 24.3335C21.2433 23.7308 20.4493 23.3335 19.6667 23.3335C18.7473 23.3335 18 23.9315 18 24.6668C18 25.4022 18.7473 26.0002 19.6667 26.0002Z" fill="#00AA72"/>
<path d="M11.846 8.9065L8.51267 4.9065C8.39067 4.7605 8.206 4.6665 8 4.6665C7.794 4.6665 7.61 4.7605 7.48733 4.9065L4.154 8.9065C4.058 9.02184 4 9.17117 4 9.33317C4 9.70184 4.298 9.99984 4.66667 9.99984H6.66667V14.6665C6.66667 15.0352 6.96467 15.3332 7.33333 15.3332H8.66667C9.03533 15.3332 9.33333 15.0352 9.33333 14.6665V9.99984H11.3333C11.702 9.99984 12 9.70184 12 9.33317C12 9.17117 11.942 9.02184 11.846 8.9065Z" fill="#00AA72"/>
<path d="M35.18 10.24L31.8467 6.24C31.7247 6.094 31.54 6 31.334 6C31.128 6 30.944 6.094 30.8213 6.24L27.488 10.24C27.392 10.3553 27.334 10.5047 27.334 10.6667C27.334 11.0353 27.632 11.3333 28.0007 11.3333H30.0007V14.6667C30.0007 15.0353 30.2987 15.3333 30.6673 15.3333H32.0007C32.3693 15.3333 32.6673 15.0353 32.6673 14.6667V11.3333H34.6673C35.036 11.3333 35.334 11.0353 35.334 10.6667C35.334 10.5047 35.276 10.3553 35.18 10.24Z" fill="#00AA72"/>
<path d="M19.0187 4.40533C19.2813 4.10067 19.6447 4 20 4C20.3553 4 20.7213 4.10333 20.9813 4.40533L25.748 9.86533C25.906 10.0453 26 10.248 26 10.4553C26 10.8967 25.6613 11.3333 25.138 11.3333H22.6667V14.6667C22.6667 15.0353 22.3687 15.3333 22 15.3333H18C17.6313 15.3333 17.3333 15.0353 17.3333 14.6667V11.3333H14.862C14.3387 11.3333 14 10.8967 14 10.4553C14 10.248 14.094 10.046 14.2513 9.866L19.0187 4.40533Z" fill="#00AA72"/>
</svg>
