<svg width="145" height="45" viewBox="0 0 145 45" fill="none" xmlns="http://www.w3.org/2000/svg">
<path d="M41.9578 44.7392L14.8063 23.7854V33.7702H12.1675V18.415L43.5696 42.6495L41.9578 44.7392Z" fill="#00AA72"/>
<path d="M32.2504 29.6555L12.502 14.3716V11.041L29.6116 24.2851V12.3248H32.2504V29.6555Z" fill="#00AA72"/>
<path d="M22.3017 44.6034C10.0061 44.6034 0 34.5972 0 22.3017C0 10.0062 10.0061 0 22.3017 0C34.5972 0 44.6034 10.0062 44.6034 22.3017C44.6034 34.5972 34.5972 44.6034 22.3017 44.6034ZM22.3017 2.63883C11.4611 2.63883 2.63883 11.4611 2.63883 22.3017C2.63883 33.1423 11.4611 41.9646 22.3017 41.9646C33.1423 41.9646 41.9645 33.1423 41.9645 22.3017C41.9645 11.4611 33.1423 2.63883 22.3017 2.63883Z" fill="#00AA72"/>
<path d="M54.8858 18.3691V8.52617H58.4949C59.0418 8.52617 59.5389 8.57588 59.9863 8.67531C60.4436 8.77473 60.8314 8.92884 61.1495 9.13763C61.4677 9.33647 61.7113 9.59995 61.8803 9.92805C62.0593 10.2561 62.1488 10.6489 62.1488 11.1062C62.1488 11.484 62.0742 11.8171 61.9251 12.1054C61.7759 12.3938 61.5373 12.6274 61.2092 12.8064C60.891 12.9853 60.4685 13.1245 59.9415 13.224V13.388C60.8562 13.4675 61.5174 13.7161 61.9251 14.1337C62.3426 14.5513 62.5514 15.0981 62.5514 15.7742C62.5514 16.3309 62.4172 16.8032 62.1488 17.191C61.8903 17.5688 61.4876 17.8621 60.9408 18.0709C60.4039 18.2697 59.7079 18.3691 58.8529 18.3691H54.8858ZM56.1982 17.2059H58.9871C59.7328 17.2059 60.2846 17.0816 60.6425 16.833C61.0104 16.5745 61.1943 16.1818 61.1943 15.6549C61.1943 15.0484 60.9408 14.596 60.4337 14.2977C59.9366 13.9895 59.181 13.8354 58.1668 13.8354H56.1982V17.2059ZM56.1982 12.8213H57.8984C58.8727 12.8213 59.5985 12.692 60.0758 12.4335C60.553 12.1651 60.7916 11.7674 60.7916 11.2404C60.7916 10.7135 60.5828 10.3208 60.1653 10.0623C59.7576 9.80377 59.1362 9.67452 58.3011 9.67452H56.1982V12.8213ZM66.4015 18.563C65.9839 18.563 65.6061 18.4835 65.268 18.3244C64.93 18.1554 64.6615 17.9118 64.4627 17.5936C64.2638 17.2655 64.1644 16.8529 64.1644 16.3558C64.1644 15.9879 64.2291 15.6648 64.3583 15.3864C64.4975 15.108 64.7063 14.8694 64.9847 14.6706C65.273 14.4717 65.6409 14.3077 66.0883 14.1784C66.5357 14.0492 67.0825 13.9398 67.7288 13.8503C68.0966 13.8006 68.3949 13.7509 68.6236 13.7012C68.8622 13.6515 69.0362 13.5719 69.1456 13.4626C69.2549 13.3433 69.3096 13.1693 69.3096 12.9406C69.3096 12.5628 69.1804 12.2446 68.9219 11.9861C68.6634 11.7276 68.2557 11.5984 67.6989 11.5984C67.4106 11.5984 67.1173 11.6481 66.819 11.7475C66.5208 11.8469 66.2573 12.016 66.0286 12.2546C65.8099 12.4832 65.6707 12.8064 65.611 13.224L64.3583 12.8064C64.4378 12.4484 64.5671 12.1253 64.7461 11.837C64.935 11.5487 65.1736 11.3051 65.4619 11.1062C65.7502 10.8974 66.0833 10.7384 66.4611 10.629C66.8489 10.5196 67.2764 10.4649 67.7437 10.4649C68.3899 10.4649 68.9268 10.5743 69.3544 10.793C69.7918 11.0118 70.1149 11.3498 70.3237 11.8072C70.5425 12.2546 70.6518 12.8312 70.6518 13.5371V15.2522C70.6518 15.5604 70.6568 15.8985 70.6668 16.2663C70.6866 16.6243 70.7115 16.9871 70.7413 17.355C70.7711 17.7129 70.801 18.051 70.8308 18.3691H69.5781C69.5482 18.051 69.5184 17.7328 69.4886 17.4147C69.4687 17.0965 69.4538 16.7784 69.4438 16.4602H69.25C69.1008 16.8281 68.902 17.1711 68.6534 17.4892C68.4049 17.8074 68.0917 18.0659 67.7139 18.2647C67.346 18.4636 66.9085 18.563 66.4015 18.563ZM66.8041 17.4594C67.0229 17.4594 67.2416 17.4246 67.4603 17.355C67.689 17.2854 67.9127 17.1711 68.1314 17.012C68.3601 16.8529 68.5739 16.6491 68.7727 16.4005C68.9815 16.152 69.1655 15.8537 69.3245 15.5057V14.0144L69.7123 14.0889C69.5532 14.248 69.3394 14.3673 69.071 14.4469C68.8125 14.5264 68.5242 14.591 68.206 14.6407C67.8879 14.6905 67.5697 14.7451 67.2515 14.8048C66.9334 14.8545 66.6401 14.934 66.3716 15.0434C66.1131 15.1428 65.9043 15.287 65.7453 15.4759C65.5862 15.6648 65.5066 15.9233 65.5066 16.2514C65.5066 16.6491 65.626 16.9523 65.8646 17.1611C66.1032 17.36 66.4164 17.4594 66.8041 17.4594ZM72.9283 18.3691V13.5819V10.6588H74.1512L74.017 13.1046H74.2705C74.4097 12.4982 74.5936 12.001 74.8223 11.6133C75.0609 11.2255 75.3592 10.9372 75.7171 10.7483C76.075 10.5594 76.4926 10.4649 76.9698 10.4649C77.8249 10.4649 78.4711 10.7732 78.9086 11.3896C79.356 11.9961 79.5797 12.9058 79.5797 14.1188V18.3691H78.2077V14.2381C78.2077 13.3631 78.0685 12.7169 77.7901 12.2993C77.5216 11.8817 77.1239 11.6729 76.597 11.6729C76.1198 11.6729 75.7121 11.8221 75.3741 12.1203C75.046 12.4186 74.7875 12.8113 74.5986 13.2985C74.4097 13.7857 74.3053 14.3126 74.2854 14.8794V18.3691H72.9283ZM81.8123 18.3691V7.92963H83.1695V13.8801C83.5572 13.6714 83.9301 13.4327 84.288 13.1643C84.6459 12.8959 84.979 12.6125 85.2872 12.3142C85.5954 12.016 85.8589 11.7226 86.0776 11.4343C86.3063 11.146 86.4803 10.8875 86.5996 10.6588H88.1954C88.0064 11.0267 87.7629 11.3995 87.4646 11.7773C87.1763 12.1452 86.8531 12.4932 86.4952 12.8213C86.1373 13.1394 85.7595 13.4129 85.3618 13.6415C84.974 13.8702 84.5763 14.0343 84.1687 14.1337V14.3126C84.6658 14.2729 85.1033 14.3325 85.4811 14.4916C85.8589 14.6507 86.192 14.8794 86.4803 15.1776C86.7786 15.4759 87.052 15.8189 87.3005 16.2067C87.5491 16.5845 87.7877 16.9871 88.0164 17.4147L88.4787 18.3691H86.9426L86.6145 17.6831C86.3461 17.1761 86.0726 16.7187 85.7943 16.3111C85.5159 15.8935 85.1977 15.5654 84.8398 15.3268C84.4819 15.0882 84.0543 14.9688 83.5572 14.9688H83.1695V18.3691H81.8123ZM89.9686 18.3691V10.6588H91.3257V18.3691H89.9686ZM90.6546 9.31659C90.3364 9.31659 90.0978 9.25196 89.9387 9.12271C89.7796 8.99346 89.7001 8.79959 89.7001 8.54108C89.7001 8.28258 89.7796 8.0887 89.9387 7.95945C90.0978 7.8302 90.3315 7.76558 90.6397 7.76558C90.9578 7.76558 91.1964 7.8302 91.3555 7.95945C91.5146 8.0887 91.5941 8.28258 91.5941 8.54108C91.5941 8.78964 91.5146 8.98352 91.3555 9.12271C91.1964 9.25196 90.9628 9.31659 90.6546 9.31659ZM93.682 18.3691V13.5819V10.6588H94.905L94.7707 13.1046H95.0243C95.1635 12.4982 95.3474 12.001 95.5761 11.6133C95.8147 11.2255 96.113 10.9372 96.4709 10.7483C96.8288 10.5594 97.2464 10.4649 97.7236 10.4649C98.5787 10.4649 99.2249 10.7732 99.6624 11.3896C100.11 11.9961 100.334 12.9058 100.334 14.1188V18.3691H98.9615V14.2381C98.9615 13.3631 98.8223 12.7169 98.5439 12.2993C98.2754 11.8817 97.8777 11.6729 97.3508 11.6729C96.8735 11.6729 96.4659 11.8221 96.1279 12.1203C95.7998 12.4186 95.5413 12.8113 95.3524 13.2985C95.1635 13.7857 95.0591 14.3126 95.0392 14.8794V18.3691H93.682ZM105.444 20.979C104.629 20.979 103.958 20.9144 103.431 20.7851C102.914 20.6658 102.531 20.4769 102.283 20.2184C102.034 19.9699 101.91 19.6567 101.91 19.2789C101.91 18.8215 102.089 18.4437 102.447 18.1454C102.805 17.8472 103.347 17.6483 104.072 17.5489V17.2804C103.545 17.2804 103.148 17.2158 102.879 17.0866C102.611 16.9573 102.477 16.7634 102.477 16.5049C102.477 16.2365 102.611 16.0128 102.879 15.8338C103.148 15.6449 103.585 15.4709 104.192 15.3119V15.0285C103.585 15.0186 103.123 14.8396 102.805 14.4916C102.487 14.1337 102.327 13.6714 102.327 13.1046C102.327 12.5976 102.462 12.1601 102.73 11.7922C103.009 11.4144 103.406 11.1261 103.923 10.9273C104.45 10.7185 105.077 10.6141 105.802 10.6141H109.441V11.7624L107.055 11.3896V11.6729C107.632 11.7922 108.074 11.9961 108.382 12.2844C108.691 12.5628 108.845 12.9406 108.845 13.4178C108.845 13.8454 108.72 14.2182 108.472 14.5363C108.223 14.8545 107.855 15.1031 107.368 15.282C106.891 15.451 106.299 15.5356 105.594 15.5356C105.454 15.5356 105.305 15.5306 105.146 15.5206C104.997 15.5008 104.798 15.4709 104.55 15.4312C104.281 15.6002 104.062 15.7543 103.893 15.8935C103.734 16.0327 103.655 16.157 103.655 16.2663C103.655 16.3757 103.729 16.4652 103.879 16.5348C104.038 16.5944 104.226 16.6342 104.445 16.6541C104.664 16.674 104.868 16.6839 105.057 16.6839H106.802C107 16.6839 107.249 16.7038 107.547 16.7436C107.855 16.7833 108.159 16.8678 108.457 16.9971C108.765 17.1263 109.024 17.3252 109.232 17.5936C109.441 17.8621 109.546 18.2349 109.546 18.7122C109.546 19.249 109.387 19.6865 109.068 20.0245C108.75 20.3626 108.288 20.6062 107.681 20.7553C107.075 20.9045 106.329 20.979 105.444 20.979ZM105.474 19.8605C106.14 19.8605 106.677 19.8158 107.085 19.7263C107.503 19.6467 107.806 19.5175 107.995 19.3385C108.194 19.1596 108.293 18.9309 108.293 18.6525C108.293 18.394 108.223 18.1951 108.084 18.056C107.955 17.9068 107.791 17.8024 107.592 17.7428C107.393 17.6831 107.194 17.6483 106.995 17.6384C106.797 17.6185 106.628 17.6085 106.488 17.6085H104.743C104.167 17.7378 103.769 17.9168 103.55 18.1454C103.332 18.3741 103.222 18.6177 103.222 18.8762C103.222 19.1546 103.322 19.3634 103.521 19.5026C103.719 19.6418 103.988 19.7362 104.326 19.7859C104.674 19.8356 105.057 19.8605 105.474 19.8605ZM105.653 14.6557C106.28 14.6557 106.752 14.5264 107.07 14.2679C107.388 14.0094 107.547 13.6614 107.547 13.224C107.547 12.7567 107.383 12.3739 107.055 12.0756C106.737 11.7674 106.255 11.6133 105.608 11.6133C104.982 11.6133 104.5 11.7574 104.162 12.0458C103.834 12.3341 103.67 12.7069 103.67 13.1643C103.67 13.4626 103.744 13.726 103.893 13.9547C104.052 14.1734 104.276 14.3474 104.565 14.4767C104.863 14.596 105.226 14.6557 105.653 14.6557ZM116.793 18.563C116.376 18.563 115.998 18.4835 115.66 18.3244C115.322 18.1554 115.053 17.9118 114.854 17.5936C114.655 17.2655 114.556 16.8529 114.556 16.3558C114.556 15.9879 114.621 15.6648 114.75 15.3864C114.889 15.108 115.098 14.8694 115.376 14.6706C115.665 14.4717 116.033 14.3077 116.48 14.1784C116.927 14.0492 117.474 13.9398 118.12 13.8503C118.488 13.8006 118.787 13.7509 119.015 13.7012C119.254 13.6515 119.428 13.5719 119.537 13.4626C119.647 13.3433 119.701 13.1693 119.701 12.9406C119.701 12.5628 119.572 12.2446 119.313 11.9861C119.055 11.7276 118.647 11.5984 118.091 11.5984C117.802 11.5984 117.509 11.6481 117.211 11.7475C116.912 11.8469 116.649 12.016 116.42 12.2546C116.202 12.4832 116.062 12.8064 116.003 13.224L114.75 12.8064C114.829 12.4484 114.959 12.1253 115.138 11.837C115.327 11.5487 115.565 11.3051 115.854 11.1062C116.142 10.8974 116.475 10.7384 116.853 10.629C117.241 10.5196 117.668 10.4649 118.135 10.4649C118.782 10.4649 119.318 10.5743 119.746 10.793C120.183 11.0118 120.507 11.3498 120.715 11.8072C120.934 12.2546 121.043 12.8312 121.043 13.5371V15.2522C121.043 15.5604 121.048 15.8985 121.058 16.2663C121.078 16.6243 121.103 16.9871 121.133 17.355C121.163 17.7129 121.193 18.051 121.222 18.3691H119.97C119.94 18.051 119.91 17.7328 119.88 17.4147C119.86 17.0965 119.845 16.7784 119.835 16.4602H119.642C119.492 16.8281 119.294 17.1711 119.045 17.4892C118.796 17.8074 118.483 18.0659 118.105 18.2647C117.738 18.4636 117.3 18.563 116.793 18.563ZM117.196 17.4594C117.414 17.4594 117.633 17.4246 117.852 17.355C118.081 17.2854 118.304 17.1711 118.523 17.012C118.752 16.8529 118.966 16.6491 119.164 16.4005C119.373 16.152 119.557 15.8537 119.716 15.5057V14.0144L120.104 14.0889C119.945 14.248 119.731 14.3673 119.463 14.4469C119.204 14.5264 118.916 14.591 118.598 14.6407C118.279 14.6905 117.961 14.7451 117.643 14.8048C117.325 14.8545 117.032 14.934 116.763 15.0434C116.505 15.1428 116.296 15.287 116.137 15.4759C115.978 15.6648 115.898 15.9233 115.898 16.2514C115.898 16.6491 116.018 16.9523 116.256 17.1611C116.495 17.36 116.808 17.4594 117.196 17.4594ZM123.32 18.3691V13.5819V10.6588H124.543L124.409 13.1046H124.662C124.801 12.4982 124.985 12.001 125.214 11.6133C125.453 11.2255 125.751 10.9372 126.109 10.7483C126.467 10.5594 126.884 10.4649 127.361 10.4649C128.217 10.4649 128.863 10.7732 129.3 11.3896C129.748 11.9961 129.971 12.9058 129.971 14.1188V18.3691H128.599V14.2381C128.599 13.3631 128.46 12.7169 128.182 12.2993C127.913 11.8817 127.516 11.6729 126.989 11.6729C126.511 11.6729 126.104 11.8221 125.766 12.1203C125.438 12.4186 125.179 12.8113 124.99 13.2985C124.801 13.7857 124.697 14.3126 124.677 14.8794V18.3691H123.32ZM134.947 18.563C134.291 18.563 133.729 18.389 133.262 18.041C132.795 17.6931 132.437 17.2158 132.188 16.6093C131.95 16.0029 131.83 15.3069 131.83 14.5214C131.83 13.736 131.95 13.04 132.188 12.4335C132.427 11.827 132.775 11.3498 133.232 11.0018C133.69 10.6538 134.251 10.4798 134.918 10.4798C135.464 10.4798 135.912 10.5942 136.26 10.8229C136.608 11.0515 136.886 11.3498 137.095 11.7177C137.314 12.0756 137.473 12.4683 137.572 12.8959H137.841C137.791 12.6075 137.746 12.3093 137.706 12.001C137.667 11.6829 137.632 11.3747 137.602 11.0764C137.572 10.7682 137.557 10.4948 137.557 10.2561V7.92963H138.929V14.5662V18.3691H137.706L137.781 16.2812H137.542C137.423 16.7286 137.254 17.1263 137.035 17.4743C136.817 17.8124 136.538 18.0808 136.2 18.2797C135.862 18.4686 135.444 18.563 134.947 18.563ZM135.261 17.3699C135.618 17.3699 135.942 17.2854 136.23 17.1164C136.518 16.9474 136.762 16.7286 136.961 16.4602C137.16 16.1818 137.309 15.8835 137.408 15.5654C137.517 15.2472 137.572 14.939 137.572 14.6407V14.4618C137.572 14.253 137.542 14.0293 137.483 13.7907C137.423 13.5421 137.334 13.2935 137.214 13.045C137.105 12.7964 136.956 12.5678 136.767 12.359C136.588 12.1402 136.374 11.9712 136.126 11.8519C135.877 11.7226 135.599 11.658 135.29 11.658C134.843 11.658 134.465 11.7873 134.157 12.0458C133.859 12.2943 133.63 12.6373 133.471 13.0748C133.322 13.5123 133.247 14.0044 133.247 14.5513C133.247 15.118 133.327 15.6151 133.486 16.0426C133.645 16.4602 133.874 16.7883 134.172 17.0269C134.48 17.2556 134.843 17.3699 135.261 17.3699ZM54.8858 36.3691V26.5262H56.2579V36.3691H54.8858ZM55.4227 32.1486V30.9704H61.075V32.1486H55.4227ZM55.4227 27.7342V26.5262H61.7163V27.7342H55.4227ZM63.36 36.3691V28.6588H64.7172V36.3691H63.36ZM64.046 27.3166C63.7279 27.3166 63.4893 27.252 63.3302 27.1227C63.1711 26.9935 63.0916 26.7996 63.0916 26.5411C63.0916 26.2826 63.1711 26.0887 63.3302 25.9595C63.4893 25.8302 63.7229 25.7656 64.0311 25.7656C64.3493 25.7656 64.5879 25.8302 64.747 25.9595C64.9061 26.0887 64.9856 26.2826 64.9856 26.5411C64.9856 26.7896 64.9061 26.9835 64.747 27.1227C64.5879 27.252 64.3543 27.3166 64.046 27.3166ZM67.0735 36.3691V31.5819V28.6588H68.2964L68.1622 31.1046H68.4157C68.5549 30.4982 68.7389 30.001 68.9675 29.6133C69.2062 29.2255 69.5044 28.9372 69.8623 28.7483C70.2203 28.5594 70.6379 28.4649 71.1151 28.4649C71.9701 28.4649 72.6164 28.7732 73.0539 29.3896C73.5013 29.9961 73.725 30.9058 73.725 32.1188V36.3691H72.3529V32.2381C72.3529 31.3631 72.2137 30.7169 71.9353 30.2993C71.6669 29.8817 71.2692 29.6729 70.7423 29.6729C70.265 29.6729 69.8574 29.8221 69.5193 30.1203C69.1912 30.4186 68.9327 30.8113 68.7438 31.2985C68.5549 31.7857 68.4505 32.3126 68.4306 32.8794V36.3691H67.0735ZM77.7323 36.563C77.3147 36.563 76.9369 36.4835 76.5989 36.3244C76.2608 36.1554 75.9924 35.9118 75.7935 35.5936C75.5947 35.2655 75.4953 34.8529 75.4953 34.3558C75.4953 33.9879 75.5599 33.6648 75.6891 33.3864C75.8283 33.108 76.0371 32.8694 76.3155 32.6706C76.6038 32.4717 76.9717 32.3077 77.4191 32.1784C77.8665 32.0492 78.4134 31.9398 79.0596 31.8503C79.4275 31.8006 79.7257 31.7509 79.9544 31.7012C80.193 31.6515 80.367 31.5719 80.4764 31.4626C80.5858 31.3433 80.6404 31.1693 80.6404 30.9406C80.6404 30.5628 80.5112 30.2446 80.2527 29.9861C79.9942 29.7276 79.5866 29.5984 79.0298 29.5984C78.7415 29.5984 78.4482 29.6481 78.1499 29.7475C77.8516 29.8469 77.5881 30.016 77.3595 30.2546C77.1407 30.4832 77.0015 30.8064 76.9419 31.224L75.6891 30.8064C75.7687 30.4484 75.8979 30.1253 76.0769 29.837C76.2658 29.5487 76.5044 29.3051 76.7927 29.1062C77.0811 28.8974 77.4141 28.7384 77.792 28.629C78.1797 28.5196 78.6072 28.4649 79.0745 28.4649C79.7208 28.4649 80.2577 28.5743 80.6852 28.793C81.1227 29.0118 81.4458 29.3498 81.6546 29.8072C81.8733 30.2546 81.9827 30.8312 81.9827 31.5371V33.2522C81.9827 33.5604 81.9876 33.8985 81.9976 34.2663C82.0175 34.6243 82.0423 34.9871 82.0722 35.355C82.102 35.7129 82.1318 36.051 82.1616 36.3691H80.9089C80.8791 36.051 80.8492 35.7328 80.8194 35.4147C80.7995 35.0965 80.7846 34.7784 80.7747 34.4602H80.5808C80.4317 34.8281 80.2328 35.1711 79.9843 35.4892C79.7357 35.8074 79.4225 36.0659 79.0447 36.2647C78.6768 36.4636 78.2394 36.563 77.7323 36.563ZM78.135 35.4594C78.3537 35.4594 78.5724 35.4246 78.7912 35.355C79.0198 35.2854 79.2435 35.1711 79.4623 35.012C79.691 34.8529 79.9047 34.6491 80.1036 34.4005C80.3124 34.152 80.4963 33.8537 80.6554 33.5057V32.0144L81.0431 32.0889C80.884 32.248 80.6703 32.3673 80.4018 32.4469C80.1433 32.5264 79.855 32.591 79.5368 32.6407C79.2187 32.6905 78.9005 32.7451 78.5824 32.8048C78.2642 32.8545 77.9709 32.934 77.7025 33.0434C77.444 33.1428 77.2352 33.287 77.0761 33.4759C76.917 33.6648 76.8375 33.9233 76.8375 34.2514C76.8375 34.6491 76.9568 34.9523 77.1954 35.1611C77.434 35.36 77.7472 35.4594 78.135 35.4594ZM84.2591 36.3691V31.5819V28.6588H85.482L85.3478 31.1046H85.6013C85.7405 30.4982 85.9244 30.001 86.1531 29.6133C86.3917 29.2255 86.69 28.9372 87.0479 28.7483C87.4059 28.5594 87.8234 28.4649 88.3007 28.4649C89.1557 28.4649 89.802 28.7732 90.2394 29.3896C90.6869 29.9961 90.9106 30.9058 90.9106 32.1188V36.3691H89.5385V32.2381C89.5385 31.3631 89.3993 30.7169 89.1209 30.2993C88.8525 29.8817 88.4548 29.6729 87.9278 29.6729C87.4506 29.6729 87.043 29.8221 86.7049 30.1203C86.3768 30.4186 86.1183 30.8113 85.9294 31.2985C85.7405 31.7857 85.6361 32.3126 85.6162 32.8794V36.3691H84.2591ZM96.454 36.563C95.7779 36.563 95.2012 36.4537 94.724 36.2349C94.2567 36.0162 93.8739 35.7229 93.5757 35.355C93.2873 34.9871 93.0736 34.5646 92.9344 34.0874C92.8051 33.6101 92.7405 33.113 92.7405 32.596C92.7405 32.0293 92.8151 31.4974 92.9642 31.0002C93.1133 30.5031 93.337 30.0657 93.6353 29.6879C93.9435 29.3001 94.3213 29.0018 94.7687 28.793C95.2261 28.5743 95.758 28.4649 96.3645 28.4649C96.9511 28.4649 97.4681 28.5693 97.9155 28.7781C98.3629 28.977 98.7258 29.2603 99.0042 29.6282C99.2925 29.9961 99.4765 30.4335 99.556 30.9406L98.2585 31.2985C98.2386 31.0201 98.1541 30.7517 98.005 30.4932C97.8658 30.2347 97.657 30.0259 97.3786 29.8668C97.1002 29.6978 96.7572 29.6133 96.3496 29.6133C95.9618 29.6133 95.6288 29.6879 95.3504 29.837C95.0819 29.9861 94.8533 30.1949 94.6644 30.4634C94.4854 30.7318 94.3462 31.045 94.2468 31.4029C94.1573 31.7608 94.1125 32.1486 94.1125 32.5662C94.1125 33.1428 94.1921 33.6449 94.3512 34.0724C94.5202 34.5 94.7787 34.833 95.1267 35.0717C95.4747 35.3103 95.9221 35.4296 96.4689 35.4296C96.8765 35.4296 97.2245 35.36 97.5128 35.2208C97.8012 35.0717 98.0299 34.8678 98.1989 34.6093C98.3679 34.3409 98.4773 34.0277 98.527 33.6698L99.7797 33.9531C99.7101 34.3807 99.5809 34.7585 99.392 35.0866C99.2031 35.4147 98.9644 35.6881 98.6761 35.9068C98.3878 36.1156 98.0547 36.2747 97.6769 36.3841C97.309 36.5034 96.9014 36.563 96.454 36.563ZM104.639 36.563C104.032 36.563 103.496 36.4735 103.028 36.2946C102.571 36.1057 102.183 35.8372 101.865 35.4892C101.547 35.1413 101.308 34.7286 101.149 34.2514C100.99 33.7742 100.911 33.2373 100.911 32.6407C100.911 32.0343 100.99 31.4775 101.149 30.9704C101.308 30.4634 101.542 30.0209 101.85 29.6431C102.158 29.2653 102.536 28.977 102.984 28.7781C103.431 28.5693 103.943 28.4649 104.52 28.4649C105.027 28.4649 105.489 28.5494 105.907 28.7185C106.324 28.8875 106.677 29.151 106.966 29.5089C107.264 29.8569 107.487 30.2993 107.637 30.8362C107.786 31.3631 107.845 31.9845 107.816 32.7004L101.761 32.7451V31.8205L106.995 31.7758L106.533 32.4021C106.583 31.7758 106.523 31.2587 106.354 30.8511C106.185 30.4435 105.941 30.1353 105.623 29.9265C105.315 29.7177 104.947 29.6133 104.52 29.6133C104.062 29.6133 103.66 29.7326 103.312 29.9712C102.964 30.2098 102.695 30.5528 102.506 31.0002C102.327 31.4477 102.238 31.9895 102.238 32.6258C102.238 33.5405 102.442 34.2415 102.849 34.7286C103.257 35.2059 103.863 35.4445 104.669 35.4445C104.977 35.4445 105.245 35.4097 105.474 35.3401C105.713 35.2606 105.912 35.1562 106.071 35.0269C106.24 34.8877 106.374 34.7286 106.473 34.5497C106.583 34.3707 106.667 34.1768 106.727 33.9681L107.92 34.2514C107.83 34.6093 107.691 34.9325 107.502 35.2208C107.323 35.4992 107.095 35.7378 106.816 35.9366C106.548 36.1355 106.235 36.2896 105.877 36.399C105.519 36.5083 105.106 36.563 104.639 36.563Z" fill="black"/>
</svg>
