<svg width="119" height="45" viewBox="0 0 119 45" fill="none" xmlns="http://www.w3.org/2000/svg">
<path d="M41.9578 44.7392L14.8063 23.7854V33.7702H12.1675V18.415L43.5696 42.6495L41.9578 44.7392Z" fill="#00AA72"/>
<path d="M32.2504 29.6555L12.502 14.3716V11.041L29.6116 24.2851V12.3248H32.2504V29.6555Z" fill="#00AA72"/>
<path d="M22.3017 44.6034C10.0061 44.6034 0 34.5972 0 22.3017C0 10.0062 10.0061 0 22.3017 0C34.5972 0 44.6034 10.0062 44.6034 22.3017C44.6034 34.5972 34.5972 44.6034 22.3017 44.6034ZM22.3017 2.63883C11.4611 2.63883 2.63883 11.4611 2.63883 22.3017C2.63883 33.1423 11.4611 41.9646 22.3017 41.9646C33.1423 41.9646 41.9645 33.1423 41.9645 22.3017C41.9645 11.4611 33.1423 2.63883 22.3017 2.63883Z" fill="#00AA72"/>
<path d="M58.8002 18.6656C58.0942 18.6656 57.4579 18.5562 56.8912 18.3375C56.3344 18.1187 55.8622 17.7956 55.4744 17.3681C55.0867 16.9406 54.7884 16.4186 54.5796 15.8021C54.3808 15.1758 54.2813 14.4649 54.2813 13.6695C54.2813 12.8642 54.3857 12.1433 54.5945 11.507C54.8033 10.8608 55.1016 10.309 55.4893 9.85162C55.8771 9.39427 56.3444 9.04629 56.8912 8.80767C57.438 8.55911 58.0495 8.43483 58.7256 8.43483C59.2426 8.43483 59.7198 8.5094 60.1573 8.65854C60.5948 8.79773 60.9726 9.00652 61.2907 9.28491C61.6188 9.55335 61.8724 9.88145 62.0513 10.2692C62.2303 10.657 62.3247 11.0895 62.3347 11.5667L61.0372 11.8948C61.0471 11.3877 60.9427 10.9701 60.724 10.642C60.5053 10.304 60.2169 10.0505 59.859 9.88145C59.5011 9.71243 59.1133 9.62792 58.6958 9.62792C58.308 9.62792 57.9302 9.70746 57.5623 9.86654C57.2044 10.0157 56.8862 10.2543 56.6079 10.5824C56.3295 10.9005 56.1058 11.3132 55.9367 11.8202C55.7777 12.3173 55.6981 12.9189 55.6981 13.6248C55.6981 14.5295 55.8274 15.2603 56.0859 15.8171C56.3543 16.3738 56.7272 16.7864 57.2044 17.0549C57.6816 17.3134 58.2334 17.4426 58.8598 17.4426C59.4663 17.4426 59.9535 17.3333 60.3213 17.1145C60.6892 16.8859 60.9626 16.5727 61.1416 16.175C61.3205 15.7673 61.4249 15.3001 61.4548 14.7731L62.6777 14.9968C62.6677 15.4939 62.5882 15.9662 62.4391 16.4136C62.2899 16.861 62.0613 17.2537 61.753 17.5918C61.4448 17.9298 61.0471 18.1933 60.56 18.3822C60.0728 18.5711 59.4862 18.6656 58.8002 18.6656ZM64.4821 18.4717V8.03216H65.8392V18.4717H64.4821ZM71.4922 18.6656C70.7565 18.6656 70.1052 18.5065 69.5385 18.1883C68.9817 17.8602 68.5443 17.3929 68.2261 16.7864C67.9179 16.18 67.7638 15.4442 67.7638 14.5792C67.7638 13.6844 67.9279 12.9437 68.256 12.3571C68.594 11.7606 69.0414 11.3132 69.5982 11.0149C70.1549 10.7166 70.7763 10.5675 71.4624 10.5675C72.1782 10.5675 72.8145 10.7266 73.3713 11.0447C73.938 11.3529 74.3854 11.8103 74.7135 12.4168C75.0416 13.0133 75.2057 13.754 75.2057 14.6389C75.2057 15.5238 75.0416 16.2645 74.7135 16.861C74.3954 17.4576 73.9529 17.9099 73.3862 18.2181C72.8295 18.5164 72.1981 18.6656 71.4922 18.6656ZM71.5519 17.547C72.0291 17.547 72.4367 17.4327 72.7748 17.204C73.1228 16.9654 73.3862 16.6323 73.5652 16.2048C73.7541 15.7773 73.8485 15.2702 73.8485 14.6836C73.8485 14.0771 73.7491 13.5552 73.5503 13.1177C73.3614 12.6703 73.088 12.3273 72.73 12.0887C72.3721 11.8401 71.9396 11.7158 71.4325 11.7158C70.9752 11.7158 70.5725 11.8252 70.2245 12.0439C69.8766 12.2627 69.6081 12.5858 69.4192 13.0133C69.2303 13.4309 69.1359 13.9429 69.1359 14.5494C69.1359 15.484 69.3496 16.2197 69.7771 16.7566C70.2146 17.2836 70.8062 17.547 71.5519 17.547ZM79.6139 18.6656C78.7589 18.6656 78.1126 18.3673 77.6752 17.7707C77.2377 17.1742 77.019 16.2844 77.019 15.1012V10.7614H78.391V14.9819C78.391 15.8171 78.5203 16.4385 78.7788 16.8461C79.0373 17.2537 79.4449 17.4576 80.0017 17.4576C80.3099 17.4576 80.5833 17.383 80.8219 17.2339C81.0705 17.0847 81.2892 16.871 81.4781 16.5926C81.667 16.3142 81.8211 15.9861 81.9405 15.6083C82.0598 15.2205 82.1393 14.8029 82.1791 14.3555V10.7614H83.5362V15.2503V18.4717H82.3282L82.4475 15.996H82.2238C82.0946 16.6125 81.9106 17.1195 81.672 17.5172C81.4433 17.905 81.155 18.1933 80.807 18.3822C80.459 18.5711 80.0613 18.6656 79.6139 18.6656ZM88.6055 18.6656C87.9494 18.6656 87.3876 18.4916 86.9203 18.1436C86.453 17.7956 86.0951 17.3184 85.8465 16.7119C85.6079 16.1054 85.4886 15.4094 85.4886 14.624C85.4886 13.8385 85.6079 13.1426 85.8465 12.5361C86.0852 11.9296 86.4331 11.4523 86.8905 11.1044C87.3478 10.7564 87.9096 10.5824 88.5757 10.5824C89.1226 10.5824 89.57 10.6967 89.9179 10.9254C90.2659 11.1541 90.5443 11.4523 90.7531 11.8202C90.9718 12.1781 91.1309 12.5709 91.2303 12.9984H91.4988C91.4491 12.7101 91.4043 12.4118 91.3646 12.1036C91.3248 11.7854 91.29 11.4772 91.2602 11.1789C91.2303 10.8707 91.2154 10.5973 91.2154 10.3587V8.03216H92.5875V14.6687V18.4717H91.3646L91.4391 16.3838H91.2005C91.0812 16.8312 90.9122 17.2289 90.6935 17.5769C90.4747 17.9149 90.1963 18.1834 89.8583 18.3822C89.5202 18.5711 89.1027 18.6656 88.6055 18.6656ZM88.9187 17.4725C89.2767 17.4725 89.5998 17.388 89.8881 17.2189C90.1764 17.0499 90.42 16.8312 90.6189 16.5627C90.8177 16.2844 90.9669 15.9861 91.0663 15.6679C91.1757 15.3498 91.2303 15.0416 91.2303 14.7433V14.5643C91.2303 14.3555 91.2005 14.1318 91.1409 13.8932C91.0812 13.6446 90.9917 13.3961 90.8724 13.1475C90.763 12.899 90.6139 12.6703 90.425 12.4615C90.246 12.2428 90.0323 12.0737 89.7837 11.9544C89.5352 11.8252 89.2568 11.7606 88.9486 11.7606C88.5012 11.7606 88.1233 11.8898 87.8151 12.1483C87.5169 12.3969 87.2882 12.7399 87.1291 13.1774C86.98 13.6148 86.9054 14.107 86.9054 14.6538C86.9054 15.2205 86.9849 15.7176 87.144 16.1452C87.3031 16.5627 87.5318 16.8908 87.83 17.1295C88.1383 17.3581 88.5012 17.4725 88.9187 17.4725ZM54.6393 36.4717V26.6287H56.0113V36.4717H54.6393ZM55.1761 32.2511V31.073H60.8284V32.2511H55.1761ZM55.1761 27.8367V26.6287H61.4697V27.8367H55.1761ZM63.1134 36.4717V28.7614H64.4706V36.4717H63.1134ZM63.7995 27.4191C63.4813 27.4191 63.2427 27.3545 63.0836 27.2253C62.9245 27.096 62.845 26.9021 62.845 26.6436C62.845 26.3851 62.9245 26.1912 63.0836 26.062C63.2427 25.9327 63.4763 25.8681 63.7846 25.8681C64.1027 25.8681 64.3413 25.9327 64.5004 26.062C64.6595 26.1912 64.739 26.3851 64.739 26.6436C64.739 26.8922 64.6595 27.0861 64.5004 27.2253C64.3413 27.3545 64.1077 27.4191 63.7995 27.4191ZM66.8269 36.4717V31.6844V28.7614H68.0498L67.9156 31.2072H68.1691C68.3083 30.6007 68.4923 30.1036 68.721 29.7158C68.9596 29.3281 69.2578 29.0397 69.6158 28.8508C69.9737 28.6619 70.3913 28.5675 70.8685 28.5675C71.7236 28.5675 72.3698 28.8757 72.8073 29.4921C73.2547 30.0986 73.4784 31.0083 73.4784 32.2213V36.4717H72.1063V32.3406C72.1063 31.4657 71.9671 30.8194 71.6888 30.4018C71.4203 29.9843 71.0226 29.7755 70.4957 29.7755C70.0184 29.7755 69.6108 29.9246 69.2728 30.2229C68.9447 30.5212 68.6862 30.9139 68.4972 31.4011C68.3083 31.8882 68.2039 32.4152 68.1841 32.9819V36.4717H66.8269ZM79.0218 36.6656C78.2861 36.6656 77.6349 36.5065 77.0681 36.1883C76.5114 35.8602 76.0739 35.3929 75.7557 34.7864C75.4475 34.18 75.2934 33.4442 75.2934 32.5792C75.2934 31.6844 75.4575 30.9437 75.7856 30.3571C76.1236 29.7606 76.571 29.3132 77.1278 29.0149C77.6846 28.7166 78.306 28.5675 78.992 28.5675C79.7078 28.5675 80.3442 28.7266 80.9009 29.0447C81.4676 29.3529 81.9151 29.8103 82.2432 30.4168C82.5713 31.0133 82.7353 31.754 82.7353 32.6389C82.7353 33.5238 82.5713 34.2645 82.2432 34.861C81.925 35.4576 81.4826 35.9099 80.9158 36.2181C80.3591 36.5164 79.7277 36.6656 79.0218 36.6656ZM79.0815 35.547C79.5587 35.547 79.9663 35.4327 80.3044 35.204C80.6524 34.9654 80.9158 34.6323 81.0948 34.2048C81.2837 33.7773 81.3782 33.2702 81.3782 32.6836C81.3782 32.0771 81.2787 31.5552 81.0799 31.1177C80.891 30.6703 80.6176 30.3273 80.2596 30.0887C79.9017 29.8401 79.4692 29.7158 78.9622 29.7158C78.5048 29.7158 78.1021 29.8252 77.7542 30.0439C77.4062 30.2627 77.1377 30.5858 76.9488 31.0133C76.7599 31.4309 76.6655 31.9429 76.6655 32.5494C76.6655 33.484 76.8792 34.2197 77.3068 34.7566C77.7442 35.2836 78.3358 35.547 79.0815 35.547ZM84.6679 38.8877V32.624V28.7614H85.8908L85.8162 30.7449H86.0399C86.1593 30.3074 86.3233 29.9296 86.5321 29.6114C86.7508 29.2833 87.0292 29.0298 87.3673 28.8508C87.7053 28.6619 88.1129 28.5675 88.5902 28.5675C89.2961 28.5675 89.8827 28.7464 90.35 29.1044C90.8272 29.4523 91.1851 29.9346 91.4238 30.551C91.6624 31.1575 91.7817 31.8485 91.7817 32.624C91.7817 33.3995 91.6624 34.0905 91.4238 34.697C91.1851 35.3034 90.8322 35.7857 90.3649 36.1436C89.9075 36.4916 89.3458 36.6656 88.6796 36.6656C88.1428 36.6656 87.6954 36.5562 87.3374 36.3375C86.9894 36.1088 86.7111 35.8105 86.5023 35.4426C86.2935 35.0748 86.1294 34.692 86.0101 34.2943H85.7566C85.8162 34.5627 85.866 34.8411 85.9057 35.1295C85.9455 35.4178 85.9753 35.7061 85.9952 35.9944C86.025 36.2728 86.0399 36.5413 86.0399 36.7998V38.8877H84.6679ZM88.3366 35.4874C88.7741 35.4874 89.142 35.3631 89.4402 35.1145C89.7385 34.856 89.9672 34.5081 90.1263 34.0706C90.2853 33.6331 90.3649 33.141 90.3649 32.5941C90.3649 32.0075 90.2804 31.5055 90.1114 31.0879C89.9523 30.6703 89.7236 30.3472 89.4253 30.1185C89.1271 29.8799 88.7642 29.7606 88.3366 29.7606C87.9688 29.7606 87.6407 29.8451 87.3523 30.0141C87.074 30.1732 86.8353 30.3919 86.6365 30.6703C86.4376 30.9387 86.2835 31.237 86.1742 31.5651C86.0747 31.8833 86.025 32.2014 86.025 32.5196V32.6985C86.025 32.8974 86.0549 33.1211 86.1145 33.3697C86.1742 33.6083 86.2636 33.8519 86.383 34.1004C86.5023 34.349 86.6514 34.5777 86.8304 34.7864C87.0193 34.9952 87.238 35.1643 87.4866 35.2935C87.7351 35.4228 88.0185 35.4874 88.3366 35.4874ZM96.6484 36.6656C96.1115 36.6656 95.6343 36.6059 95.2167 36.4866C94.7991 36.3772 94.4511 36.2181 94.1727 36.0094C93.8944 35.7906 93.6806 35.5321 93.5315 35.2339C93.3823 34.9356 93.3028 34.6075 93.2928 34.2496L94.4412 33.9513C94.4213 34.2794 94.5008 34.5677 94.6798 34.8163C94.8687 35.0549 95.1322 35.2388 95.4702 35.3681C95.8182 35.4973 96.2358 35.562 96.723 35.562C97.3096 35.562 97.762 35.4625 98.0801 35.2637C98.4082 35.0648 98.5723 34.7914 98.5723 34.4434C98.5723 34.165 98.4828 33.9513 98.3038 33.8021C98.1248 33.6431 97.8763 33.5188 97.5581 33.4293C97.2499 33.3299 96.882 33.2404 96.4545 33.1609C96.0966 33.0813 95.7387 32.9918 95.3807 32.8924C95.0228 32.793 94.6947 32.6637 94.3965 32.5047C94.1081 32.3356 93.8745 32.1169 93.6955 31.8485C93.5165 31.58 93.4271 31.247 93.4271 30.8493C93.4271 30.382 93.5513 29.9793 93.7999 29.6413C94.0485 29.3032 94.4014 29.0397 94.8588 28.8508C95.3161 28.6619 95.863 28.5675 96.4993 28.5675C97.1356 28.5675 97.6774 28.6669 98.1248 28.8657C98.5723 29.0547 98.9252 29.3231 99.1837 29.6711C99.4422 30.0191 99.5864 30.4267 99.6162 30.894L98.438 31.1923C98.4281 30.8642 98.3386 30.5858 98.1696 30.3571C98.0105 30.1284 97.7818 29.9594 97.4836 29.85C97.1853 29.7307 96.8373 29.6711 96.4396 29.6711C95.9127 29.6711 95.4951 29.7705 95.1869 29.9694C94.8787 30.1682 94.7245 30.4416 94.7245 30.7896C94.7245 31.0481 94.814 31.2569 94.993 31.416C95.1819 31.575 95.4354 31.6993 95.7536 31.7888C96.0717 31.8783 96.4247 31.9678 96.8125 32.0573C97.2101 32.1368 97.588 32.2263 97.9459 32.3257C98.3138 32.4251 98.6419 32.5544 98.9302 32.7135C99.2185 32.8725 99.4472 33.0863 99.6162 33.3547C99.7852 33.6132 99.8697 33.9463 99.8697 34.3539C99.8697 34.861 99.7355 35.2885 99.4671 35.6365C99.1986 35.9746 98.8208 36.2331 98.3336 36.412C97.8564 36.581 97.2947 36.6656 96.6484 36.6656ZM104.735 36.4717L108.195 26.6287H110.193L113.653 36.4717H112.176L109.283 27.7771H109.104L106.211 36.4717H104.735ZM106.375 34.2645V33.2205H112.176V34.2645H106.375ZM115.371 36.4717V26.6287H116.758V36.4717H115.371Z" fill="black"/>
</svg>
