<svg width="45" height="45" viewBox="0 0 45 45" fill="none" xmlns="http://www.w3.org/2000/svg">
<path d="M41.9578 44.7392L14.8063 23.7854V33.7702H12.1675V18.415L43.5696 42.6495L41.9578 44.7392Z" fill="#00AA72"/>
<path d="M32.2504 29.6555L12.502 14.3716V11.041L29.6116 24.2851V12.3248H32.2504V29.6555Z" fill="#00AA72"/>
<path d="M22.3017 44.6034C10.0061 44.6034 0 34.5972 0 22.3017C0 10.0062 10.0061 0 22.3017 0C34.5972 0 44.6034 10.0062 44.6034 22.3017C44.6034 34.5972 34.5972 44.6034 22.3017 44.6034ZM22.3017 2.63883C11.4611 2.63883 2.63883 11.4611 2.63883 22.3017C2.63883 33.1423 11.4611 41.9646 22.3017 41.9646C33.1423 41.9646 41.9645 33.1423 41.9645 22.3017C41.9645 11.4611 33.1423 2.63883 22.3017 2.63883Z" fill="#00AA72"/>
</svg>
