<svg width="121" height="45" viewBox="0 0 121 45" fill="none" xmlns="http://www.w3.org/2000/svg">
<path d="M41.9578 44.7392L14.8063 23.7854V33.7702H12.1675V18.415L43.5696 42.6495L41.9578 44.7392Z" fill="#00AA72"/>
<path d="M32.2504 29.6555L12.502 14.3716V11.041L29.6116 24.2851V12.3248H32.2504V29.6555Z" fill="#00AA72"/>
<path d="M22.3017 44.6034C10.0061 44.6034 0 34.5972 0 22.3017C0 10.0062 10.0061 0 22.3017 0C34.5972 0 44.6034 10.0062 44.6034 22.3017C44.6034 34.5972 34.5972 44.6034 22.3017 44.6034ZM22.3017 2.63883C11.4611 2.63883 2.63883 11.4611 2.63883 22.3017C2.63883 33.1423 11.4611 41.9646 22.3017 41.9646C33.1423 41.9646 41.9645 33.1423 41.9645 22.3017C41.9645 11.4611 33.1423 2.63883 22.3017 2.63883Z" fill="#00AA72"/>
<path d="M54.6393 18.4717V8.62871H56.0113V18.4717H54.6393ZM55.3402 18.4717V17.2935H61.5443V18.4717H55.3402ZM55.3402 13.9976V12.894H60.8433V13.9976H55.3402ZM55.3402 9.79197V8.62871H61.5293V9.79197H55.3402ZM69.939 18.4717V8.62871H71.311V18.4717H69.939ZM63.4068 18.4717V8.62871H64.7789V18.4717H63.4068ZM64.0928 14.0274V12.8493H70.4908V14.0274H64.0928ZM73.8638 18.4717V8.62871H77.2939C77.7911 8.62871 78.2434 8.66848 78.6511 8.74802C79.0687 8.82756 79.4365 8.94686 79.7547 9.10594C80.0828 9.26502 80.3562 9.4589 80.5749 9.68757C80.8036 9.91625 80.9726 10.1847 81.082 10.4929C81.2013 10.7912 81.261 11.1242 81.261 11.4921C81.261 11.8401 81.2063 12.1583 81.0969 12.4466C80.9975 12.7349 80.8434 12.9884 80.6346 13.2072C80.4258 13.4259 80.1673 13.6049 79.8591 13.7441C79.5509 13.8733 79.1929 13.9628 78.7853 14.0125V14.2064C79.1432 14.2462 79.4564 14.3406 79.7249 14.4898C79.9933 14.6389 80.222 14.8576 80.4109 15.1459C80.5998 15.4243 80.7638 15.7972 80.903 16.2645L81.5294 18.4717H80.053L79.5459 16.4583C79.4564 16.0507 79.3023 15.7226 79.0836 15.474C78.8748 15.2255 78.6113 15.0416 78.2931 14.9222C77.975 14.8029 77.6022 14.7433 77.1746 14.7433H75.2359V18.4717H73.8638ZM75.2359 13.6248H77.1746C78.0595 13.6248 78.7256 13.4657 79.173 13.1475C79.6304 12.8294 79.8591 12.3422 79.8591 11.686C79.8591 11.0298 79.6403 10.5476 79.2029 10.2394C78.7754 9.92122 78.1092 9.76214 77.2045 9.76214H75.2359V13.6248ZM53.8041 36.4717L57.2641 26.6287H59.2625L62.7224 36.4717H61.246L58.3527 27.7771H58.1738L55.2805 36.4717H53.8041ZM55.4446 34.2645V33.2205H61.246V34.2645H55.4446ZM64.4409 36.4717V26.6287H66.2603L71.4503 34.6671H71.5696L71.4652 26.6287H72.7925V36.4717H71.1371L65.8129 28.2543H65.6787L65.7831 36.4717H64.4409ZM76.0947 36.4717V35.2935H79.0028C79.6789 35.2935 80.2357 35.1394 80.6731 34.8312C81.1106 34.513 81.4337 34.0756 81.6425 33.5188C81.8613 32.962 81.9706 32.3158 81.9706 31.58C81.9706 30.9338 81.901 30.372 81.7618 29.8948C81.6326 29.4176 81.4288 29.0298 81.1504 28.7315C80.872 28.4233 80.519 28.1946 80.0915 28.0455C79.6739 27.8864 79.1768 27.8069 78.6002 27.8069H76.0947V26.6287H78.5703C79.6839 26.6287 80.5936 26.8226 81.2995 27.2103C82.0054 27.5981 82.5274 28.1549 82.8654 28.8807C83.2035 29.6065 83.3725 30.4714 83.3725 31.4756C83.3725 32.1418 83.2979 32.7433 83.1488 33.2802C83.0096 33.8171 82.8058 34.2844 82.5373 34.682C82.2788 35.0797 81.9706 35.4128 81.6127 35.6813C81.2548 35.9398 80.8571 36.1386 80.4196 36.2778C79.9822 36.4071 79.5248 36.4717 79.0476 36.4717H76.0947ZM75.3639 36.4717V26.6287H76.736V36.4717H75.3639ZM90.0907 33.4591V32.2959H92.5067C93.4513 32.2959 94.1621 32.1169 94.6394 31.759C95.1166 31.3911 95.3552 30.8045 95.3552 29.9992C95.3552 29.2535 95.1315 28.6967 94.6841 28.3289C94.2467 27.951 93.5706 27.7621 92.6559 27.7621H90.0907V26.6287H92.6857C93.332 26.6287 93.9036 26.7033 94.4008 26.8524C94.9078 27.0015 95.3353 27.2203 95.6833 27.5086C96.0313 27.7969 96.2948 28.1549 96.4737 28.5824C96.6627 29 96.7571 29.4871 96.7571 30.0439C96.7571 30.7797 96.5881 31.4011 96.25 31.9081C95.912 32.4152 95.4149 32.8029 94.7587 33.0714C94.1025 33.3299 93.2972 33.4591 92.3427 33.4591H90.0907ZM89.36 36.4717V26.6287H90.732V36.4717H89.36ZM98.6081 36.4717V26.6287H100.726L103.992 35.04H104.067L107.318 26.6287H109.361V36.4717H108.063L108.153 28.0157H108.034L104.648 36.4717H103.306L99.9504 28.0008H99.8311L99.9205 36.4717H98.6081ZM115.365 36.6656C114.709 36.6656 114.132 36.596 113.635 36.4568C113.148 36.3176 112.735 36.1138 112.397 35.8453C112.069 35.5669 111.825 35.2289 111.666 34.8312C111.507 34.4335 111.437 33.9712 111.457 33.4442L112.695 33.1758C112.655 33.6928 112.74 34.1253 112.949 34.4733C113.158 34.8212 113.476 35.0847 113.903 35.2637C114.331 35.4327 114.833 35.5172 115.409 35.5172C115.966 35.5172 116.439 35.4476 116.826 35.3084C117.214 35.1692 117.502 34.9753 117.691 34.7268C117.89 34.4782 117.99 34.1949 117.99 33.8767C117.99 33.5188 117.875 33.2354 117.647 33.0266C117.418 32.8178 117.11 32.6588 116.722 32.5494C116.344 32.4301 115.922 32.3207 115.454 32.2213C114.997 32.1219 114.54 32.0075 114.082 31.8783C113.625 31.749 113.212 31.585 112.844 31.3861C112.486 31.1774 112.193 30.9089 111.964 30.5808C111.746 30.2428 111.636 29.8152 111.636 29.2982C111.636 28.7116 111.78 28.2046 112.069 27.7771C112.367 27.3495 112.785 27.0214 113.322 26.7928C113.858 26.5541 114.49 26.4348 115.216 26.4348C115.931 26.4348 116.568 26.5492 117.125 26.7778C117.691 27.0065 118.139 27.3446 118.467 27.792C118.795 28.2294 118.969 28.7713 118.989 29.4176L117.706 29.7307C117.706 29.3728 117.642 29.0596 117.512 28.7912C117.393 28.5128 117.224 28.2891 117.005 28.1201C116.786 27.9411 116.523 27.8069 116.215 27.7174C115.907 27.618 115.569 27.5683 115.201 27.5683C114.753 27.5683 114.361 27.6379 114.023 27.7771C113.684 27.9162 113.421 28.1052 113.232 28.3438C113.043 28.5824 112.949 28.8657 112.949 29.1938C112.949 29.5816 113.083 29.8898 113.351 30.1185C113.63 30.3372 113.988 30.5112 114.425 30.6405C114.863 30.7697 115.33 30.889 115.827 30.9984C116.255 31.0879 116.672 31.1972 117.08 31.3265C117.497 31.4458 117.875 31.6098 118.213 31.8186C118.551 32.0175 118.82 32.281 119.019 32.6091C119.217 32.9372 119.317 33.3547 119.317 33.8618C119.317 34.4285 119.168 34.9207 118.869 35.3382C118.581 35.7558 118.144 36.0839 117.557 36.3225C116.97 36.5512 116.24 36.6656 115.365 36.6656Z" fill="black"/>
</svg>
