<svg width="48" height="48" viewBox="0 0 48 48" fill="none" xmlns="http://www.w3.org/2000/svg">
<path d="M44.8512 47.8252L15.8267 25.426V36.0995H13.0059V19.6851L46.5742 45.5914L44.8512 47.8252Z" fill="url(#paint0_linear_7876_6364)"/>
<path d="M34.474 31.7005L13.3633 15.3623V11.8019L31.6532 25.9596V13.1743H34.474V31.7005Z" fill="url(#paint1_linear_7876_6364)"/>
<path d="M23.8401 47.6803C10.6964 47.6803 0 36.9838 0 23.8401C0 10.6964 10.6964 0 23.8401 0C36.9838 0 47.6803 10.6964 47.6803 23.8401C47.6803 36.9838 36.9838 47.6803 23.8401 47.6803ZM23.8401 2.82087C12.2517 2.82087 2.82087 12.2517 2.82087 23.8401C2.82087 35.4286 12.2517 44.8594 23.8401 44.8594C35.4286 44.8594 44.8594 35.4286 44.8594 23.8401C44.8594 12.2517 35.4286 2.82087 23.8401 2.82087Z" fill="url(#paint2_linear_7876_6364)"/>
<defs>
<linearGradient id="paint0_linear_7876_6364" x1="29.7862" y1="47.8252" x2="29.7862" y2="19.6851" gradientUnits="userSpaceOnUse">
<stop stop-color="#F58220"/>
<stop offset="1" stop-color="#9A51A0"/>
</linearGradient>
<linearGradient id="paint1_linear_7876_6364" x1="23.9148" y1="31.7005" x2="23.9148" y2="11.8019" gradientUnits="userSpaceOnUse">
<stop stop-color="#F58220"/>
<stop offset="1" stop-color="#9A51A0"/>
</linearGradient>
<linearGradient id="paint2_linear_7876_6364" x1="23.8401" y1="47.6803" x2="23.8401" y2="0" gradientUnits="userSpaceOnUse">
<stop stop-color="#F58220"/>
<stop offset="1" stop-color="#9A51A0"/>
</linearGradient>
</defs>
</svg>
