<svg width="80" height="26" viewBox="0 0 80 26" fill="none" xmlns="http://www.w3.org/2000/svg">
<g clip-path="url(#clip0_8933_6824)">
<path d="M24.4959 25.742L8.87355 13.6857V19.4307H7.35522V10.5957L25.4233 24.5397L24.4959 25.742Z" fill="#00AA72"/>
<path d="M18.9121 17.0629L7.54932 8.26891V6.35254L17.3938 13.9729V7.09119H18.9121V17.0629Z" fill="#00AA72"/>
<path d="M13.1864 25.6638C6.11181 25.6638 0.354492 19.9065 0.354492 12.8319C0.354492 5.75733 6.11181 0 13.1864 0C20.261 0 26.0183 5.75733 26.0183 12.8319C26.0183 19.9065 20.261 25.6638 13.1864 25.6638ZM13.1864 1.51833C6.94894 1.51833 1.87282 6.59446 1.87282 12.8319C1.87282 19.0694 6.94894 24.1455 13.1864 24.1455C19.4238 24.1455 24.5 19.0694 24.5 12.8319C24.5 6.59446 19.4238 1.51833 13.1864 1.51833Z" fill="#00AA72"/>
<path d="M29.301 12.4263C29.301 11.5321 29.4666 10.6986 29.8088 9.93128C30.1511 9.16399 30.6038 8.50159 31.1889 7.94408C31.7685 7.38656 32.453 6.94494 33.2368 6.62477C34.0207 6.30461 34.8597 6.14453 35.7595 6.14453C36.6592 6.14453 37.4928 6.30461 38.2821 6.62477C39.066 6.94494 39.7505 7.38102 40.3301 7.94408C40.9097 8.50159 41.3679 9.16399 41.7101 9.93128C42.0524 10.6986 42.2182 11.5321 42.2182 12.4263C42.2182 13.3206 42.0688 14.0768 41.7651 14.8C41.4619 15.5231 41.0421 16.1579 40.5123 16.721L41.8205 18.2721L40.2307 19.5969L38.8728 17.9574C38.4091 18.1893 37.9178 18.3715 37.399 18.5095C36.8801 18.6419 36.3391 18.7082 35.7705 18.7082C34.8763 18.7082 34.0372 18.5481 33.2479 18.228C32.464 17.9078 31.7795 17.4717 31.1999 16.9086C30.6203 16.3511 30.1622 15.6887 29.8199 14.9214C29.4832 14.1541 29.3121 13.3206 29.3121 12.4263H29.301ZM31.3434 12.4263C31.3434 13.0335 31.4594 13.5911 31.6857 14.11C31.9121 14.6289 32.2267 15.076 32.6297 15.4513C33.0326 15.8322 33.4963 16.1248 34.0318 16.3346C34.5672 16.5443 35.1413 16.6492 35.7595 16.6492C36.3777 16.6492 36.9353 16.5333 37.4707 16.3014L35.638 14.1376L37.2278 12.8128L39.1654 15.1312C39.48 14.7724 39.7229 14.3639 39.8995 13.9113C40.0762 13.4586 40.159 12.9618 40.159 12.4263C40.159 11.8081 40.0431 11.2451 39.8167 10.7262C39.5904 10.2073 39.2758 9.7657 38.8728 9.39035C38.4698 9.02049 38.0061 8.7224 37.4762 8.50713C36.9463 8.29182 36.3722 8.18697 35.7595 8.18697C35.1467 8.18697 34.5672 8.29182 34.0318 8.50713C33.4963 8.7224 33.0271 9.01495 32.6297 9.39035C32.2267 9.76016 31.9121 10.2073 31.6857 10.7262C31.4594 11.2451 31.3434 11.8081 31.3434 12.4263Z" fill="#00AA72"/>
<path d="M43.3934 9.81041H45.7505V11.8528C45.8995 11.4719 46.0928 11.1407 46.3246 10.8647C46.5565 10.5943 46.8105 10.3624 47.092 10.1748C47.3735 9.98707 47.6661 9.8546 47.9804 9.76625C48.2952 9.67794 48.6153 9.63379 48.9411 9.63379C49.438 9.63379 49.9017 9.72764 50.3211 9.92084C50.7405 10.114 51.1049 10.4011 51.4086 10.782C51.7176 11.1628 51.9552 11.6376 52.1205 12.2061C52.2917 12.7692 52.3745 13.4261 52.3745 14.1657V18.5266H50.0174V14.8833C50.0174 14.5687 50.0064 14.2265 49.9842 13.8566C49.962 13.4868 49.9017 13.1335 49.8078 12.8078C49.7138 12.4821 49.5759 12.2117 49.388 11.9963C49.2004 11.7811 48.9464 11.6762 48.621 11.6762C48.2012 11.6762 47.8372 11.7425 47.5335 11.8694C47.2241 11.9964 46.9595 12.162 46.7276 12.3552C46.5011 12.5539 46.3078 12.7692 46.1535 13.001C45.9935 13.2328 45.8609 13.4482 45.7448 13.6469V18.5321H43.3877V9.81041H43.3934Z" fill="#00AA72"/>
<path d="M61.4288 17.5054C60.9872 17.9139 60.4739 18.2175 59.894 18.4107C59.3146 18.6094 58.7073 18.7087 58.0782 18.7087C57.4487 18.7087 56.8915 18.6204 56.3227 18.4383C55.7597 18.2561 55.2574 17.9801 54.8212 17.6103C54.3854 17.2404 54.0321 16.7657 53.767 16.1971C53.4966 15.6286 53.364 14.9551 53.364 14.1713C53.364 13.3874 53.4966 12.7195 53.767 12.1454C54.0321 11.5768 54.3854 11.1076 54.8212 10.7323C55.2574 10.3569 55.7597 10.0864 56.3227 9.90426C56.8857 9.7221 57.4709 9.63379 58.0782 9.63379C58.6137 9.63379 59.1599 9.7221 59.7176 9.89322C60.2753 10.0699 60.7829 10.3293 61.2355 10.6771C61.6881 11.0248 62.0583 11.4609 62.3451 11.9853C62.6324 12.5097 62.7703 13.1114 62.7703 13.8014V14.9165H55.8258C55.8701 15.1594 55.9472 15.3857 56.0523 15.5954C56.1573 15.8052 56.3005 15.9874 56.4774 16.1475C56.6596 16.302 56.8804 16.429 57.1397 16.5228C57.3991 16.6167 57.7138 16.6608 58.0725 16.6608C58.5033 16.6608 58.8784 16.6111 59.1989 16.5063C59.519 16.4014 59.7837 16.2523 59.9938 16.0536L61.4235 17.4999L61.4288 17.5054ZM60.3471 13.4923C60.3028 13.2494 60.231 13.0176 60.1481 12.7968C60.0598 12.576 59.933 12.3828 59.7619 12.2227C59.5908 12.0626 59.37 11.9301 59.0992 11.8308C58.8234 11.7314 58.4865 11.6817 58.0782 11.6817C57.7085 11.6817 57.388 11.7314 57.1286 11.8308C56.8693 11.9301 56.6485 12.0626 56.4663 12.2227C56.2841 12.3883 56.1462 12.576 56.0412 12.7968C55.9365 13.0176 55.859 13.2494 55.8151 13.4923H60.3524H60.3471Z" fill="#00AA72"/>
<path d="M68.114 18.7081C67.7549 18.7081 67.3741 18.6695 66.9822 18.5867C66.585 18.5039 66.1984 18.3935 65.8118 18.2555C65.4257 18.1175 65.0666 17.9463 64.7244 17.7476C64.3822 17.5489 64.0896 17.3281 63.8413 17.0852L65.1495 15.5176C65.3096 15.7162 65.5139 15.9039 65.7511 16.0861C65.9887 16.2683 66.2427 16.4283 66.5185 16.5663C66.7947 16.7043 67.0704 16.8147 67.3466 16.8975C67.6281 16.9804 67.8821 17.019 68.114 17.019C68.3955 17.019 68.6548 17.0079 68.9088 16.9859C69.1571 16.9638 69.3779 16.9196 69.5711 16.8534C69.7644 16.7872 69.9134 16.7043 70.0238 16.5995C70.1342 16.4946 70.1896 16.3621 70.1896 16.1965C70.1896 15.9647 70.0295 15.788 69.709 15.6721C69.3889 15.5562 68.9917 15.4568 68.5223 15.374C68.0532 15.2912 67.5341 15.2029 66.9769 15.1146C66.4192 15.0207 65.9058 14.8827 65.431 14.7061C64.962 14.5239 64.5644 14.2755 64.2443 13.9554C63.9242 13.6352 63.7642 13.2157 63.7642 12.6913C63.7642 12.2497 63.891 11.8412 64.1396 11.4603C64.3879 11.0849 64.7133 10.7592 65.1056 10.4943C65.5028 10.2293 65.9501 10.0196 66.4467 9.86498C66.949 9.71594 67.4459 9.63867 67.9482 9.63867C68.8534 9.63867 69.6705 9.78222 70.3882 10.0748C71.1112 10.3673 71.735 10.7703 72.2705 11.2947L70.929 12.8458C70.6254 12.2994 70.2006 11.9074 69.6483 11.6756C69.0964 11.4437 68.528 11.3278 67.9482 11.3278C67.7052 11.3278 67.4681 11.3499 67.2415 11.3885C67.0154 11.4272 66.8168 11.4934 66.651 11.5707C66.4799 11.6535 66.3474 11.7584 66.2427 11.8908C66.1377 12.0233 66.088 12.1834 66.088 12.3711C66.088 12.625 66.2481 12.8182 66.5681 12.9397C66.8886 13.0611 67.2912 13.1605 67.7717 13.2378C68.2518 13.315 68.7763 13.3978 69.334 13.4917C69.8912 13.5855 70.4103 13.7345 70.8851 13.9388C71.3595 14.1431 71.7571 14.4301 72.0719 14.7999C72.3862 15.1698 72.5298 15.6721 72.5077 16.3014C72.497 16.6381 72.4084 16.9307 72.2372 17.1846C72.0661 17.433 71.8343 17.6593 71.5306 17.858C71.3431 17.996 71.1059 18.1175 70.8133 18.2223C70.5207 18.3272 70.2171 18.4156 69.8912 18.4818C69.5658 18.548 69.2453 18.6088 68.931 18.6474C68.6162 18.6861 68.3458 18.7081 68.1082 18.7081H68.114Z" fill="#00AA72"/>
<path d="M75.996 15.3744C75.996 15.6393 76.0235 15.8491 76.0736 15.9926C76.1232 16.1361 76.2004 16.2465 76.2943 16.3128C76.3879 16.3845 76.4929 16.4232 76.6087 16.4342C76.7248 16.4452 76.8516 16.4508 76.9952 16.4508H78.8443V18.5097H75.8417C75.6099 18.5097 75.378 18.4821 75.1515 18.4214C74.9254 18.3607 74.7264 18.2558 74.5499 18.1012C74.373 17.9467 74.2352 17.7369 74.1248 17.4719C74.0144 17.207 73.959 16.8758 73.959 16.4673V7.41992H76.0017V9.81014H78.3588V11.8525H76.0017V15.3744H75.996Z" fill="#00AA72"/>
</g>
<defs>
<clipPath id="clip0_8933_6824">
<rect width="79.1992" height="25.8526" fill="white"/>
</clipPath>
</defs>
</svg>
