<svg width="154" height="46" viewBox="0 0 154 46" fill="none" xmlns="http://www.w3.org/2000/svg">
<g clip-path="url(#clip0_8148_3594)">
<path d="M43.1398 46L15.223 24.4556V34.7218H12.5098V18.9338L44.797 43.8514L43.1398 46Z" fill="url(#paint0_linear_8148_3594)"/>
<path d="M33.1586 30.4907L12.8535 14.776V11.3515L30.4454 24.9689V12.6714H33.1586V30.4907Z" fill="url(#paint1_linear_8148_3594)"/>
<path d="M22.9303 45.8607C10.2882 45.8607 0 35.5725 0 22.9303C0 10.2882 10.2882 0 22.9303 0C35.5725 0 45.8607 10.2882 45.8607 22.9303C45.8607 35.5725 35.5725 45.8607 22.9303 45.8607ZM22.9303 2.71322C11.7842 2.71322 2.71322 11.7842 2.71322 22.9303C2.71322 34.0765 11.7842 43.1475 22.9303 43.1475C34.0765 43.1475 43.1475 34.0765 43.1475 22.9303C43.1475 11.7842 34.0765 2.71322 22.9303 2.71322Z" fill="url(#paint2_linear_8148_3594)"/>
<path d="M56.3477 22.0594C56.3477 20.2968 56.6741 18.6538 57.3487 17.1414C58.0233 15.629 58.9155 14.3234 60.0688 13.2245C61.2112 12.1255 62.5604 11.2551 64.1054 10.624C65.6505 9.99296 67.3043 9.67743 69.0778 9.67743C70.8513 9.67743 72.4943 9.99296 74.0502 10.624C75.5952 11.2551 76.9444 12.1147 78.0868 13.2245C79.2293 14.3234 80.1324 15.629 80.8069 17.1414C81.4815 18.6538 81.8079 20.2968 81.8079 22.0594C81.8079 23.822 81.5142 25.3127 80.9157 26.738C80.3173 28.1633 79.4904 29.4146 78.4459 30.5244L81.0245 33.5818L77.891 36.1931L75.2144 32.9616C74.3004 33.4186 73.3321 33.7777 72.3093 34.0497C71.2865 34.3108 70.2202 34.4414 69.0996 34.4414C67.3369 34.4414 65.6831 34.1258 64.1272 33.4948C62.5822 32.8637 61.233 32.0041 60.0905 30.8943C58.9481 29.7954 58.045 28.4898 57.3704 26.9774C56.7067 25.465 56.3694 23.822 56.3694 22.0594H56.3477ZM60.3734 22.0594C60.3734 23.2562 60.6019 24.3552 61.048 25.3779C61.4941 26.4007 62.1143 27.282 62.9086 28.0219C63.7029 28.7726 64.6168 29.3493 65.6722 29.7628C66.7276 30.1762 67.8592 30.383 69.0778 30.383C70.2964 30.383 71.3953 30.1545 72.4507 29.6975L68.8384 25.4323L71.972 22.821L75.791 27.3908C76.4112 26.6836 76.89 25.8784 77.2382 24.9862C77.5863 24.094 77.7495 23.1148 77.7495 22.0594C77.7495 20.8408 77.521 19.731 77.0749 18.7082C76.6288 17.6855 76.0087 16.815 75.2144 16.0751C74.4201 15.3462 73.5062 14.7586 72.4616 14.3343C71.4171 13.9099 70.2855 13.7032 69.0778 13.7032C67.8701 13.7032 66.7276 13.9099 65.6722 14.3343C64.6168 14.7586 63.692 15.3353 62.9086 16.0751C62.1143 16.8041 61.4941 17.6855 61.048 18.7082C60.6019 19.731 60.3734 20.8408 60.3734 22.0594Z" fill="#92278F"/>
<path d="M84.1242 16.9021H88.7701V20.9279C89.0639 20.1771 89.4447 19.5243 89.9017 18.9803C90.3587 18.4472 90.8592 17.9902 91.4141 17.6202C91.969 17.2503 92.5456 16.9892 93.1658 16.8151C93.786 16.641 94.4171 16.554 95.059 16.554C96.0383 16.554 96.9522 16.7389 97.7791 17.1197C98.6061 17.5006 99.3242 18.0663 99.9226 18.8171C100.532 19.5678 101 20.5036 101.326 21.6243C101.663 22.7341 101.827 24.0288 101.827 25.4868V34.0824H97.1807V26.9013C97.1807 26.2811 97.159 25.6065 97.1154 24.8775C97.0719 24.1485 96.9522 23.4522 96.7673 22.8102C96.5823 22.1683 96.3103 21.6351 95.9403 21.2108C95.5704 20.7865 95.0699 20.5797 94.428 20.5797C93.601 20.5797 92.8829 20.7103 92.2845 20.9605C91.6752 21.2108 91.1529 21.5372 90.696 21.918C90.2499 22.3097 89.869 22.7341 89.5644 23.191C89.2489 23.648 88.9877 24.0724 88.7592 24.4641V34.0933H84.1133V16.9021H84.1242Z" fill="#92278F"/>
<path d="M119.67 32.0695C118.799 32.8747 117.787 33.4731 116.645 33.8539C115.503 34.2456 114.306 34.4414 113.065 34.4414C111.825 34.4414 110.726 34.2674 109.605 33.9083C108.496 33.5492 107.505 33.0052 106.646 32.2762C105.786 31.5472 105.09 30.6115 104.568 29.4908C104.035 28.3701 103.773 27.0427 103.773 25.4977C103.773 23.9527 104.035 22.6361 104.568 21.5046C105.09 20.3839 105.786 19.459 106.646 18.7192C107.505 17.9793 108.496 17.4462 109.605 17.0871C110.715 16.728 111.869 16.554 113.065 16.554C114.121 16.554 115.198 16.728 116.297 17.0653C117.396 17.4135 118.397 17.9249 119.289 18.6104C120.181 19.2958 120.91 20.1554 121.476 21.189C122.042 22.2227 122.314 23.4086 122.314 24.7687V26.9666H108.626C108.713 27.4453 108.865 27.8914 109.072 28.3049C109.279 28.7183 109.562 29.0774 109.91 29.3929C110.269 29.6976 110.704 29.9478 111.216 30.1328C111.727 30.3177 112.347 30.4048 113.054 30.4048C113.903 30.4048 114.643 30.3069 115.274 30.1001C115.905 29.8934 116.427 29.5996 116.841 29.2079L119.659 32.0586L119.67 32.0695ZM117.537 24.1594C117.45 23.6807 117.309 23.2237 117.146 22.7885C116.971 22.3532 116.721 21.9724 116.384 21.6569C116.047 21.3414 115.611 21.0802 115.078 20.8844C114.534 20.6885 113.871 20.5906 113.065 20.5906C112.336 20.5906 111.705 20.6885 111.194 20.8844C110.683 21.0802 110.247 21.3414 109.888 21.6569C109.529 21.9833 109.257 22.3532 109.05 22.7885C108.844 23.2237 108.691 23.6807 108.604 24.1594H117.548H117.537Z" fill="#92278F"/>
<path d="M132.847 34.4414C132.14 34.4414 131.389 34.3653 130.617 34.202C129.833 34.0388 129.072 33.8212 128.31 33.5492C127.548 33.2772 126.841 32.9399 126.167 32.5482C125.492 32.1565 124.915 31.7213 124.426 31.2426L127.004 28.1525C127.32 28.5442 127.723 28.9141 128.19 29.2732C128.658 29.6323 129.159 29.9478 129.703 30.2198C130.247 30.4918 130.791 30.7094 131.335 30.8726C131.89 31.0358 132.39 31.112 132.847 31.112C133.402 31.112 133.914 31.0902 134.414 31.0467C134.904 31.0032 135.339 30.9162 135.72 30.7856C136.1 30.655 136.394 30.4918 136.612 30.2851C136.829 30.0784 136.938 29.8172 136.938 29.4908C136.938 29.0338 136.623 28.6857 135.992 28.4572C135.361 28.2287 134.577 28.0328 133.652 27.8696C132.728 27.7064 131.705 27.5323 130.606 27.3582C129.507 27.1733 128.495 26.9013 127.559 26.5531C126.634 26.194 125.851 25.7044 125.22 25.0733C124.589 24.4423 124.273 23.6154 124.273 22.5817C124.273 21.7113 124.524 20.9061 125.013 20.1554C125.503 19.4155 126.145 18.7736 126.917 18.2513C127.701 17.729 128.582 17.3156 129.561 17.0109C130.551 16.7171 131.531 16.5648 132.521 16.5648C134.305 16.5648 135.916 16.8477 137.33 17.4244C138.755 18.001 139.985 18.7953 141.04 19.829L138.396 22.8864C137.798 21.8092 136.96 21.0367 135.872 20.5797C134.784 20.1227 133.663 19.8942 132.521 19.8942C132.042 19.8942 131.574 19.9378 131.128 20.0139C130.682 20.0901 130.29 20.2207 129.964 20.373C129.627 20.5362 129.365 20.7429 129.159 21.004C128.952 21.2652 128.854 21.5807 128.854 21.9506C128.854 22.4511 129.17 22.832 129.801 23.0713C130.432 23.3107 131.226 23.5066 132.173 23.6589C133.119 23.8112 134.153 23.9744 135.252 24.1594C136.351 24.3444 137.374 24.6381 138.309 25.0407C139.245 25.4433 140.028 26.0091 140.649 26.7381C141.269 27.467 141.552 28.4572 141.508 29.6975C141.486 30.3612 141.312 30.9379 140.975 31.4384C140.638 31.928 140.181 32.3741 139.582 32.7658C139.212 33.0378 138.744 33.2772 138.168 33.4839C137.591 33.6907 136.993 33.8648 136.351 33.9953C135.709 34.1259 135.078 34.2456 134.458 34.3217C133.837 34.3979 133.304 34.4414 132.836 34.4414H132.847Z" fill="#92278F"/>
<path d="M148.386 27.8696C148.386 28.3919 148.44 28.8053 148.538 29.0882C148.636 29.3711 148.789 29.5887 148.974 29.7193C149.158 29.8607 149.365 29.9369 149.594 29.9587C149.822 29.9804 150.072 29.9913 150.355 29.9913H154V34.0497H148.081C147.624 34.0497 147.167 33.9953 146.721 33.8756C146.275 33.7559 145.883 33.5492 145.535 33.2446C145.187 32.9399 144.915 32.5264 144.697 32.0042C144.48 31.4819 144.371 30.8291 144.371 30.0239V12.1909H148.397V16.9021H153.043V20.9279H148.397V27.8696H148.386Z" fill="#92278F"/>
</g>
<defs>
<linearGradient id="paint0_linear_8148_3594" x1="28.6497" y1="46" x2="28.6497" y2="18.9338" gradientUnits="userSpaceOnUse">
<stop stop-color="#F58220"/>
<stop offset="1" stop-color="#92278F"/>
</linearGradient>
<linearGradient id="paint1_linear_8148_3594" x1="23.0024" y1="30.4907" x2="23.0024" y2="11.3515" gradientUnits="userSpaceOnUse">
<stop stop-color="#F58220"/>
<stop offset="1" stop-color="#92278F"/>
</linearGradient>
<linearGradient id="paint2_linear_8148_3594" x1="22.9303" y1="45.8607" x2="22.9303" y2="0" gradientUnits="userSpaceOnUse">
<stop stop-color="#F58220"/>
<stop offset="1" stop-color="#92278F"/>
</linearGradient>
<clipPath id="clip0_8148_3594">
<rect width="154" height="46" fill="white"/>
</clipPath>
</defs>
</svg>
