<svg width="107" height="107" viewBox="0 0 107 107" fill="none" xmlns="http://www.w3.org/2000/svg">
<rect width="107" height="107" rx="53.5" fill="white"/>
<g clip-path="url(#clip0_488_1882)">
<path d="M47.4747 51.2471C54.3294 51.2471 59.9039 45.6726 59.9039 38.8179C59.9039 31.9632 54.3294 26.3887 47.4747 26.3887C40.6199 26.3887 35.0454 31.9632 35.0454 38.8179C35.0454 45.6726 40.6199 51.2471 47.4747 51.2471ZM77.918 66.0255L75.9003 64.8613C76.2442 63.8317 76.4762 62.7504 76.4762 61.6048C76.4762 60.4593 76.2463 59.3779 75.9003 58.3484L77.918 57.1842C78.9082 56.6124 79.2479 55.3446 78.6762 54.3545C78.1024 53.3622 76.8367 53.0225 75.8465 53.5963L73.8308 54.7605C72.3704 53.1157 70.4252 51.9121 68.19 51.4584V49.1777C68.19 48.0342 67.262 47.1061 66.1185 47.1061C64.975 47.1061 64.047 48.0342 64.047 49.1777V51.4584C61.8118 51.9142 59.8666 53.1177 58.4062 54.7605L56.3906 53.5963C55.3942 53.0225 54.1326 53.3622 53.5608 54.3545C52.9891 55.3467 53.3288 56.6124 54.319 57.1842L56.3367 58.3484C55.9928 59.3779 55.7608 60.4593 55.7608 61.6048C55.7608 62.7504 55.9908 63.8317 56.3367 64.8613L54.319 66.0255C53.3288 66.5972 52.9891 67.865 53.5608 68.8552C53.9461 69.5202 54.6401 69.891 55.3569 69.891C55.707 69.891 56.0633 69.8019 56.3906 69.6134L58.4062 68.4492C59.8666 70.094 61.8118 71.2976 64.047 71.7512V74.032C64.047 75.1755 64.975 76.1035 66.1185 76.1035C67.262 76.1035 68.19 75.1755 68.19 74.032V71.7512C70.4252 71.2955 72.3704 70.0919 73.8308 68.4492L75.8465 69.6134C76.1738 69.8019 76.5301 69.891 76.8802 69.891C77.5969 69.891 78.2929 69.5202 78.6762 68.8552C79.2479 67.863 78.9082 66.5972 77.918 66.0255ZM66.1185 64.7121C64.4053 64.7121 63.0112 63.318 63.0112 61.6048C63.0112 59.8917 64.4053 58.4975 66.1185 58.4975C67.8317 58.4975 69.2258 59.8917 69.2258 61.6048C69.2258 63.318 67.8317 64.7121 66.1185 64.7121ZM48.5104 61.6048C48.5104 60.4676 48.6244 59.3137 48.8522 58.1702C48.989 57.4804 48.7652 56.7699 48.2618 56.281C47.7585 55.7921 47.0417 55.5932 46.356 55.7486C37.5458 57.7704 30.9023 65.6319 30.9023 74.0341C30.9023 75.1776 31.8304 76.1056 32.9739 76.1056H50.8658C51.6654 76.1056 52.3946 75.6457 52.7364 74.9228C53.0802 74.1998 52.9767 73.3442 52.4712 72.7249C49.917 69.5948 48.5104 65.6464 48.5104 61.6048Z" fill="#008938"/>
</g>
<defs>
<clipPath id="clip0_488_1882">
<rect width="49.7169" height="49.7169" fill="white" transform="translate(30.9023 26.3882)"/>
</clipPath>
</defs>
</svg>
