<svg width="24" height="24" viewBox="0 0 24 24" fill="none" xmlns="http://www.w3.org/2000/svg">
<g clip-path="url(#clip0_13221_12972)">
<path d="M15.9996 18.4131C15.9996 20.0121 14.9476 21.3701 13.4996 21.8311V22.5001C13.4996 23.3291 12.8276 24.0001 11.9996 24.0001C11.1716 24.0001 10.4996 23.3291 10.4996 22.5001V21.9221C9.54355 21.7161 8.70055 21.1151 8.20055 20.2521C7.78655 19.5351 8.03155 18.6171 8.74855 18.2031C9.46455 17.7881 10.3826 18.0331 10.7986 18.7501C10.8896 18.9071 11.0516 19.0001 11.2326 19.0001H12.4136C12.7366 19.0001 13.0006 18.7371 13.0006 18.4131C13.0006 18.1711 12.8556 17.9571 12.6316 17.8681L10.2556 16.9181C8.88555 16.3701 8.00056 15.0631 8.00056 13.5871C8.00056 11.9881 9.05256 10.6301 10.5006 10.1691V9.50011C10.5006 8.67111 11.1726 8.00011 12.0006 8.00011C12.8286 8.00011 13.5006 8.67111 13.5006 9.50011V10.0791C14.4556 10.2851 15.2996 10.8861 15.7996 11.7491C16.2136 12.4661 15.9686 13.3841 15.2516 13.7981C14.5356 14.2131 13.6166 13.9681 13.2016 13.2511C13.1106 13.0941 12.9486 13.0001 12.7676 13.0001H11.5866C11.2636 13.0001 10.9996 13.2631 10.9996 13.5871C10.9996 13.8291 11.1446 14.0431 11.3686 14.1321L13.7446 15.0821C15.1146 15.6301 15.9996 16.9371 15.9996 18.4131ZM4.09355 5.90811C3.76555 5.58011 3.23355 5.58011 2.90555 5.90811L0.247555 8.56611C-0.281445 9.09511 0.0935547 10.0001 0.841555 10.0001H1.99955V22.5001C1.99955 23.3291 2.67155 24.0001 3.49955 24.0001C4.32755 24.0001 4.99955 23.3291 4.99955 22.5001V10.0001H6.15755C6.90655 10.0001 7.28055 9.09511 6.75155 8.56611L4.09355 5.90811ZM9.30755 5.00011H10.4926L10.4996 5.52011C10.5106 6.34111 11.1806 7.00011 11.9996 7.00011H12.0196C12.8486 6.98911 13.5106 6.30911 13.4996 5.48011L13.4936 5.00011H14.6246C15.3736 5.00011 15.7476 4.09511 15.2186 3.56611L12.5606 0.908109C12.2326 0.580109 11.7006 0.580109 11.3726 0.908109L8.71455 3.56611C8.18555 4.09511 8.56055 5.00011 9.30855 5.00011H9.30755ZM23.7516 11.5661L21.0936 8.90811C20.7656 8.58011 20.2336 8.58011 19.9056 8.90811L17.2476 11.5661C16.7186 12.0951 17.0936 13.0001 17.8416 13.0001H18.9996V22.5001C18.9996 23.3291 19.6716 24.0001 20.4996 24.0001C21.3276 24.0001 21.9996 23.3291 21.9996 22.5001V13.0001H23.1576C23.9066 13.0001 24.2806 12.0951 23.7516 11.5661Z" fill="#00AA72"/>
</g>
<defs>
<clipPath id="clip0_13221_12972">
<rect width="24" height="24" fill="white"/>
</clipPath>
</defs>
</svg>
