<svg width="40" height="40" viewBox="0 0 40 40" fill="none" xmlns="http://www.w3.org/2000/svg">
<g clip-path="url(#clip0_11916_8804)">
<path d="M38.9798 15.6477L36.0634 15.0645C35.7426 14.001 35.3173 12.9741 34.7935 11.9976L36.443 9.52344C36.7529 9.05859 36.6916 8.43969 36.2966 8.04477L31.8772 3.62531C31.4822 3.23031 30.8633 3.16906 30.3985 3.47883L27.9242 5.12828C26.9477 4.60453 25.9209 4.17938 24.8573 3.85844L24.2741 0.942031C24.1646 0.394297 23.6836 0 23.125 0H16.875C16.3164 0 15.8354 0.394297 15.7259 0.942031L15.1427 3.85844C14.0791 4.17938 13.0522 4.60461 12.0757 5.12828L9.60141 3.47883C9.13672 3.16906 8.51773 3.23031 8.12273 3.62531L3.70336 8.04477C3.30828 8.43977 3.24703 9.05867 3.55695 9.52344L5.20641 11.9976C4.68258 12.9741 4.25742 14.001 3.93648 15.0645L1.02016 15.6477C0.472422 15.7573 0.078125 16.2383 0.078125 16.7969V23.0469C0.078125 23.6055 0.472422 24.0865 1.02023 24.1959L3.93656 24.7792C4.25742 25.8427 4.68266 26.8695 5.20648 27.8461L3.55703 30.3203C3.24711 30.7851 3.30844 31.404 3.70344 31.799L8.12281 36.2184C8.51789 36.6134 9.13672 36.6747 9.60148 36.3648L12.0251 34.7492V27.3926C10.1898 25.4391 9.0625 22.8145 9.0625 19.9219C9.0625 13.8813 13.9594 8.98438 20 8.98438C26.0406 8.98438 30.9375 13.8813 30.9375 19.9219C30.9375 22.8145 29.8102 25.4391 27.9749 27.3926V34.7492L30.3985 36.3648C30.5968 36.497 30.8231 36.5617 31.0481 36.5617C31.3505 36.5617 31.6507 36.4449 31.8771 36.2184L36.2965 31.7991C36.6915 31.4041 36.7528 30.7852 36.4429 30.3204L34.7934 27.8462C35.3173 26.8696 35.7424 25.8427 36.0634 24.7793L38.9797 24.196C39.5276 24.0865 39.9219 23.6055 39.9219 23.0469V16.7969C39.9219 16.2383 39.5276 15.7573 38.9798 15.6477Z" fill="#00AA72"/>
<path d="M23.7124 13.5007C23.1227 13.1591 22.3744 13.5216 22.277 14.1961L21.5625 19.1405H18.4375L17.7231 14.1961C17.6256 13.5216 16.8774 13.1591 16.2877 13.5007C13.9995 14.8261 12.5781 17.2866 12.5781 19.9217C12.5781 22.7773 14.1773 25.3319 16.7516 26.5884L16.875 26.6486V38.828C16.875 39.4751 17.3997 39.9998 18.0469 39.9998H21.9531C22.6003 39.9998 23.125 39.4751 23.125 38.828V26.6486L23.2484 26.5884C25.8227 25.3319 27.4219 22.7773 27.4219 19.9217C27.4219 17.2866 26.0005 14.8261 23.7124 13.5007Z" fill="#00AA72"/>
</g>
<defs>
<clipPath id="clip0_11916_8804">
<rect width="40" height="40" fill="white"/>
</clipPath>
</defs>
</svg>
