<svg width="40" height="40" viewBox="0 0 40 40" fill="none" xmlns="http://www.w3.org/2000/svg">
<path d="M38.75 24.9999C38.06 24.9999 37.5 24.4399 37.5 23.7499C37.5 18.9249 33.575 14.9999 28.75 14.9999H16.6667V20.4166C16.6667 21.5166 15.3433 22.0732 14.5533 21.3199L5.38667 12.5699C5.14 12.3349 5 12.0082 5 11.6666C5 11.3249 5.14 10.9982 5.38667 10.7632L14.5533 2.01322C15.3467 1.25655 16.6667 1.81988 16.6667 2.91655V8.33322H27.0833C34.205 8.33322 40 14.1282 40 21.2499V23.7499C40 24.4399 39.44 24.9999 38.75 24.9999Z" fill="#00AA72"/>
<path d="M23.3333 37.0833V31.6667H12.9167C5.795 31.6667 0 25.8717 0 18.75V16.25C0 15.56 0.56 15 1.25 15C1.94 15 2.5 15.56 2.5 16.25C2.5 21.075 6.425 25 11.25 25H23.3333V19.5833C23.3333 18.4883 24.6517 17.92 25.4467 18.68L34.6133 27.43C34.86 27.665 35 27.9917 35 28.3333C35 28.675 34.86 29.0017 34.6133 29.2367L25.4467 37.9867C24.6517 38.7433 23.3333 38.18 23.3333 37.0833Z" fill="#00AA72"/>
</svg>
