<svg width="68" height="68" viewBox="0 0 68 68" fill="none" xmlns="http://www.w3.org/2000/svg">
<path d="M63.7512 14.875V31.875C63.7512 32.4386 63.5273 32.9791 63.1288 33.3776C62.7303 33.7761 62.1898 34 61.6262 34C61.0626 34 60.5221 33.7761 60.1236 33.3776C59.7251 32.9791 59.5012 32.4386 59.5012 31.875V20.0042L37.6296 41.8784C37.4323 42.076 37.1979 42.2328 36.9399 42.3397C36.682 42.4466 36.4054 42.5017 36.1262 42.5017C35.8469 42.5017 35.5704 42.4466 35.3124 42.3397C35.0545 42.2328 34.8201 42.076 34.6227 41.8784L25.5012 32.7542L7.87962 50.3784C7.48088 50.7772 6.94008 51.0012 6.37618 51.0012C5.81228 51.0012 5.27148 50.7772 4.87274 50.3784C4.47401 49.9797 4.25 49.4389 4.25 48.875C4.25 48.3111 4.47401 47.7703 4.87274 47.3716L23.9977 28.2466C24.1951 28.049 24.4295 27.8923 24.6874 27.7853C24.9454 27.6784 25.2219 27.6233 25.5012 27.6233C25.7804 27.6233 26.057 27.6784 26.3149 27.7853C26.5729 27.8923 26.8073 28.049 27.0046 28.2466L36.1262 37.3708L56.497 17H44.6262C44.0626 17 43.5221 16.7761 43.1236 16.3776C42.7251 15.9791 42.5012 15.4386 42.5012 14.875C42.5012 14.3114 42.7251 13.7709 43.1236 13.3724C43.5221 12.9739 44.0626 12.75 44.6262 12.75H61.6262C62.1898 12.75 62.7303 12.9739 63.1288 13.3724C63.5273 13.7709 63.7512 14.3114 63.7512 14.875Z" fill="#00AA72"/>
</svg>
