<svg width="22" height="24" viewBox="0 0 22 24" fill="none" xmlns="http://www.w3.org/2000/svg">
<path d="M20.1001 13.883L19.6491 13.624C19.7511 13.081 19.8021 12.536 19.8021 11.998C19.8021 11.46 19.7501 10.915 19.6491 10.372L20.0991 10.113C20.7941 9.714 21.2921 9.067 21.5001 8.294C21.7091 7.521 21.6041 6.711 21.2051 6.018C20.8061 5.323 20.1591 4.825 19.3861 4.617C18.6111 4.408 17.8031 4.513 17.1101 4.912L16.6601 5.171C15.8181 4.451 14.8491 3.892 13.8031 3.522V3C13.8031 1.346 12.4571 0 10.8031 0C9.14908 0 7.80308 1.346 7.80308 3V3.522C6.75608 3.892 5.78708 4.451 4.94608 5.171L4.49608 4.912C3.80308 4.515 2.99408 4.409 2.21908 4.617C1.44608 4.825 0.800083 5.323 0.401083 6.017C0.00108275 6.711 -0.103917 7.52 0.105083 8.294C0.313083 9.067 0.811083 9.713 1.50608 10.113L1.95708 10.373C1.85508 10.917 1.80408 11.461 1.80408 11.998C1.80408 12.535 1.85508 13.079 1.95708 13.623L1.50608 13.883C0.811083 14.283 0.314083 14.929 0.105083 15.702C-0.103917 16.476 0.00108284 17.285 0.400083 17.978C0.799083 18.673 1.44508 19.171 2.21908 19.379C2.99008 19.587 3.80108 19.483 4.49608 19.084L4.94608 18.825C5.78708 19.546 6.75608 20.104 7.80308 20.474V20.996C7.80308 22.65 9.14908 23.996 10.8031 23.996C12.4571 23.996 13.8031 22.65 13.8031 20.996V20.474C14.8501 20.104 15.8191 19.544 16.6601 18.825L17.1091 19.084C17.8041 19.482 18.6141 19.587 19.3861 19.379C20.1591 19.171 20.8061 18.673 21.2051 17.979C21.6041 17.285 21.7091 16.475 21.5001 15.702C21.2921 14.929 20.7941 14.282 20.1001 13.883ZM14.5091 11.291C14.3141 11.486 14.0581 11.584 13.8021 11.584C13.5461 11.584 13.2901 11.486 13.0951 11.291L11.8021 9.998V15.998C11.8021 16.551 11.3541 16.998 10.8021 16.998C10.2501 16.998 9.80208 16.551 9.80208 15.998V9.998L8.50908 11.291C8.11808 11.682 7.48608 11.682 7.09508 11.291C6.70408 10.9 6.70408 10.268 7.09508 9.877L9.44008 7.532C10.1671 6.803 11.4371 6.803 12.1661 7.532L14.5101 9.877C14.9011 10.268 14.9011 10.9 14.5101 11.291H14.5091Z" fill="#00AA72"/>
</svg>
