<svg width="100" height="103" viewBox="0 0 100 103" fill="none" xmlns="http://www.w3.org/2000/svg">
<path d="M64.8717 67.151C64.8717 62.2955 64.8717 57.4071 64.8717 52.5516C64.8717 50.5368 65.4993 49.9092 67.4811 49.9092H88.3893C90.1729 49.9092 90.8996 50.6358 90.8996 52.4195V76.6968C90.8996 77.5225 91.0317 77.8528 91.9566 77.8198C93.6411 77.7207 96.2505 77.7868 97.935 77.7868C98.4635 77.7868 98.9259 77.8528 99.1572 78.3813C99.3884 78.9098 99.1902 79.3061 98.8599 79.7025C94.3347 85.0204 83.5338 96.3498 79.0087 101.668C78.315 102.493 77.7866 102.493 77.0599 101.635C72.5678 96.3498 62.0641 85.0534 57.572 79.7686C57.2087 79.3392 56.9444 78.9098 57.2417 78.3483C57.539 77.7868 57.9684 77.7868 58.4969 77.7868C60.1814 77.7868 62.1632 77.7207 63.8478 77.8198C64.7726 77.8528 64.9378 77.5225 64.9378 76.6968C64.8717 71.7092 64.8717 72.1386 64.8717 67.151Z" fill="#0079FF"/>
<path d="M43.2371 72.634C42.7747 72.3367 42.5435 71.7752 42.6096 71.2467C42.6426 69.7603 42.6096 68.307 42.6426 66.8206C42.6426 66.4243 42.5105 66.2921 42.1471 66.2591C39.0423 65.7967 36.1026 64.5746 33.5923 62.7249C32.8656 62.2294 32.205 61.6679 31.6105 61.0403C31.148 60.5118 31.082 60.0824 31.5114 59.5209C32.4693 58.2327 33.4271 56.9776 34.418 55.7224C34.9465 55.0618 35.475 54.9958 36.1356 55.5573C38.1835 57.407 40.6608 58.6952 43.3362 59.2897C45.5823 59.7521 47.7293 59.62 49.7771 58.3979C51.9241 57.1097 52.9811 53.7076 50.1735 51.5276C48.7202 50.4046 47.0026 49.744 45.285 49.0173C43.138 48.1255 40.958 47.3327 38.9102 46.2427C36.8623 45.1527 35.0456 43.8315 33.6914 41.9158C32.2711 39.9009 31.6765 37.4567 31.9738 35.0124C32.5023 30.2561 35.3759 27.3494 39.5377 25.4997C40.3965 25.1364 41.2884 24.8721 42.2132 24.707C42.5765 24.6409 42.6096 24.4758 42.6096 24.1785C42.6096 22.5931 42.6096 20.9746 42.6096 19.3891C42.6096 18.5303 42.9729 18.167 43.8317 18.167H47.5311C48.2908 18.167 48.6211 18.4973 48.6211 19.257V24.0464C48.6211 24.3767 48.7202 24.5088 49.0505 24.5418C52.1883 24.9052 55.1611 26.1603 57.6383 28.1091C57.7705 28.2082 57.9026 28.3403 58.0347 28.4724C58.5962 29.0009 58.6623 29.2982 58.2659 29.9588C57.5062 31.3461 56.7465 32.7003 55.9868 34.0876C55.5574 34.8473 54.9629 34.9794 54.2362 34.4179C53.2783 33.6582 52.2544 32.9976 51.1314 32.4691C48.7202 31.3461 46.2429 30.8506 43.6335 31.5443C41.8829 32.0067 40.3635 32.8324 39.769 34.7152C39.2735 36.2676 39.769 37.754 40.9911 38.8109C42.5765 40.2312 44.5253 40.9579 46.4741 41.7176C48.8193 42.6424 51.1644 43.5343 53.4105 44.7234C54.9959 45.5491 56.3832 46.6721 57.5062 48.0264C58.7283 49.5128 59.2899 51.2964 59.455 53.2121C59.455 53.4103 59.488 53.6415 59.488 53.8397C59.5871 54.0379 59.455 54.3021 59.5871 54.5003V54.8306C59.455 55.5903 59.5211 56.383 59.3229 57.1427C58.8274 59.0585 57.9026 60.8091 56.5483 62.2955C54.5996 64.4755 52.1223 65.7306 49.3147 66.3582C48.9844 66.3582 48.7532 66.6555 48.7532 66.9858V67.0518C48.7862 68.5052 48.7532 69.9915 48.7532 71.4779C48.7532 72.0394 48.555 72.4688 47.9605 72.634H43.2371Z" fill="#0079FF"/>
<path d="M48.5215 80.4619C47.4976 80.5609 46.4406 80.594 45.3836 80.594C25.9618 80.594 10.2064 64.8385 10.2064 45.4167C10.2064 25.9949 25.9618 10.2394 45.3836 10.2394C64.8055 10.2394 80.5609 25.9949 80.5609 45.4167H90.8003V45.3837C90.7673 20.677 70.0903 4.02238e-05 45.4167 4.02238e-05C20.3467 -0.0329901 0 20.2806 0 45.3506V45.4167C0 70.1234 20.71 90.8003 45.3836 90.8003C49.4133 90.8003 53.443 90.2718 57.3406 89.2149L48.5215 80.4619Z" fill="#0079FF"/>
</svg>
