<svg width="67" height="78" viewBox="0 0 67 78" fill="none" xmlns="http://www.w3.org/2000/svg">
<path d="M19.63 39.2763C30.4688 39.2763 39.26 30.485 39.26 19.6463C39.26 8.8075 30.4688 0 19.63 0C8.79125 0 0 8.79125 0 19.63C0 30.4688 8.79125 39.2763 19.63 39.2763ZM12.7725 27.3975C12.9513 26.7475 13.13 26.1138 13.325 25.4638C13.5525 24.7163 13.7638 24.635 14.4463 24.9925C15.6163 25.5938 16.8513 25.935 18.1513 26.0975C18.98 26.195 19.8088 26.1138 20.5725 25.7725C22.0188 25.1388 22.2463 23.465 21.0275 22.4575C20.605 22.1163 20.1338 21.8563 19.6463 21.645C18.3788 21.0925 17.0625 20.67 15.86 19.955C13.9263 18.8013 12.6913 17.1925 12.8375 14.8363C13 12.1713 14.5113 10.4975 16.9488 9.62C17.9563 9.24625 17.9563 9.2625 17.9725 8.20625C17.9725 7.84875 17.9725 7.49125 17.9725 7.13375C17.9888 6.3375 18.135 6.2075 18.915 6.175C19.1588 6.175 19.4025 6.175 19.6463 6.175C21.3363 6.175 21.3363 6.175 21.3363 7.865C21.3363 9.05125 21.3363 9.0675 22.5225 9.24625C23.4325 9.3925 24.2938 9.6525 25.1388 10.0263C25.61 10.2375 25.7725 10.5625 25.6425 11.05C25.4313 11.7813 25.2363 12.5125 24.9925 13.2275C24.765 13.91 24.5538 14.0075 23.9038 13.6988C22.5875 13.065 21.2063 12.7888 19.7438 12.87C19.3538 12.8863 18.9963 12.935 18.6388 13.0975C17.3875 13.65 17.1763 15.0313 18.2488 15.8925C18.785 16.3313 19.4025 16.64 20.0525 16.9C21.1575 17.355 22.2788 17.81 23.3513 18.395C26.715 20.2638 27.625 24.4888 25.2525 27.365C24.3913 28.405 23.2863 29.1038 21.97 29.4613C21.4013 29.6238 21.1413 29.9163 21.1738 30.5013C21.2063 31.0863 21.1738 31.655 21.1738 32.24C21.1738 32.76 20.9138 33.0363 20.3938 33.0525C19.7763 33.0688 19.1425 33.0688 18.525 33.0525C17.9725 33.0363 17.7125 32.7275 17.7125 32.1913C17.7125 31.7688 17.7125 31.3463 17.6963 30.9238C17.68 29.9975 17.6638 29.9488 16.7538 29.8025C15.6 29.6238 14.4788 29.3638 13.4225 28.8438C12.6263 28.47 12.545 28.2588 12.7725 27.3975Z" fill="#0079FF"/>
<path d="M63.667 40.9181H61.3758C59.8645 36.2868 56.907 32.1756 52.9582 28.9906C52.9582 28.8443 52.9257 28.6818 52.8932 28.5356C52.0645 25.6268 53.0882 22.9781 54.2745 21.0768C55.1032 19.7443 54.0307 18.0381 52.4707 18.2331C48.977 18.6718 46.572 19.9556 44.9145 21.4018C43.777 22.3931 42.9645 23.7256 42.607 25.2043C40.1045 35.5718 30.7607 43.2906 19.6295 43.2906C14.2182 43.2906 9.24574 41.4706 5.26449 38.4156C3.88324 41.4056 3.13574 44.6718 3.13574 48.1006C3.13574 49.9531 3.36324 51.7569 3.78574 53.4956C3.78574 53.4956 3.78574 53.5281 3.80199 53.5769C4.24074 55.3806 4.90699 57.1194 5.75199 58.7606C6.87324 61.1819 8.49824 64.0094 10.7407 66.3006C13.9745 69.6319 14.527 73.7594 14.6082 75.5469V76.3106C14.6082 76.3431 14.6082 76.3756 14.6082 76.4081C14.6082 76.4244 14.6082 76.4244 14.6082 76.4244C14.6732 77.3019 15.4045 78.0006 16.2982 78.0006H26.5682C27.4945 78.0006 28.2582 77.2531 28.2582 76.3106V73.7756C29.7532 73.9706 31.2807 74.0844 32.8245 74.0844C34.0432 74.0844 35.2295 74.0194 36.4157 73.8894V76.3106C36.4157 77.2369 37.1632 78.0006 38.1057 78.0006H48.4082C49.3345 78.0006 50.0982 77.2531 50.0982 76.3106V73.7756C50.1145 72.9306 50.407 69.5669 53.592 66.6906C53.7057 66.5931 53.8195 66.4956 53.9332 66.3981C53.9657 66.3656 53.9982 66.3494 54.0307 66.3169C57.5732 63.1644 60.1895 59.2318 61.5382 54.8443H63.6995C65.422 54.8443 66.8195 53.4468 66.8195 51.7243V44.0381C66.787 42.3156 65.3895 40.9181 63.667 40.9181ZM50.8132 41.4706C49.3995 41.4706 48.262 40.3331 48.262 38.9193C48.262 37.5056 49.3995 36.3681 50.8132 36.3681C52.227 36.3681 53.3645 37.5056 53.3645 38.9193C53.3645 40.3331 52.227 41.4706 50.8132 41.4706Z" fill="#0079FF"/>
</svg>
