<svg width="79" height="79" viewBox="0 0 79 79" fill="none" xmlns="http://www.w3.org/2000/svg">
<path d="M67.3099 16.0331C66.3711 12.2746 64.2728 8.86605 61.2998 6.3129C57.8936 3.3879 53.5481 1.77719 49.0635 1.77719C45.699 1.77719 42.4762 2.6448 39.6318 4.30241C36.6194 1.5476 32.6697 0 28.5195 0C19.6176 0 12.3419 7.09627 12.0515 15.9285C8.97406 16.7887 6.18761 18.5397 4.05755 20.9821C1.44113 23.9825 0 27.8248 0 31.8012C0 40.8867 7.39144 48.2781 16.4769 48.2781H62.5231C71.6086 48.2781 79 40.8867 79 31.8012C79 24.5167 74.1687 18.1174 67.3099 16.0331Z" fill="#0079FF"/>
<path d="M24.8418 52.9069V57.312H16.6491C15.6388 53.7547 12.3632 51.1406 8.48633 51.1406C3.80697 51.1406 0 54.9476 0 59.627C0 64.3063 3.80697 68.1133 8.48633 68.1133C12.3635 68.1133 15.6392 65.4987 16.6494 61.9409H27.1562C28.4338 61.9409 29.4707 60.9056 29.4707 59.6265V52.9069H24.8418Z" fill="#0079FF"/>
<path d="M70.5137 51.1406C66.6368 51.1406 63.3612 53.7547 62.3509 57.312H54.1582V52.9069H49.5293V59.6265C49.5293 60.9056 50.5662 61.9409 51.8438 61.9409H62.3506C63.3608 65.4987 66.6365 68.1133 70.5137 68.1133C75.193 68.1133 79 64.3063 79 59.627C79 54.9476 75.193 51.1406 70.5137 51.1406Z" fill="#0079FF"/>
<path d="M41.8145 62.2652V52.9072H37.1855V62.2652C33.6279 63.2754 31.0137 66.5511 31.0137 70.4281C31.0137 75.1075 34.8206 78.9144 39.5 78.9144C44.1794 78.9144 47.9863 75.1075 47.9863 70.4281C47.9863 66.5511 45.3721 63.2754 41.8145 62.2652Z" fill="#0079FF"/>
</svg>
