<svg width="26" height="26" viewBox="0 0 26 26" fill="none" xmlns="http://www.w3.org/2000/svg">
<path d="M24.0176 10.688C24.1947 10.2799 24.2164 9.82117 24.0787 9.39816C23.941 8.97515 23.6534 8.61707 23.2701 8.39135L21.1901 7.15635C21.1654 7.14308 21.1439 7.12457 21.127 7.10212C21.1102 7.07967 21.0984 7.05381 21.0926 7.02635L20.551 4.65385C20.4526 4.22143 20.2008 3.83934 19.8422 3.57839C19.4837 3.31744 19.0427 3.19533 18.601 3.23468L16.1851 3.45135C16.1582 3.4577 16.1302 3.45706 16.1036 3.44947C16.0771 3.44188 16.0529 3.42761 16.0335 3.40802L14.2026 1.80468C13.8683 1.51646 13.4415 1.35791 13.0001 1.35791C12.5587 1.35791 12.132 1.51646 11.7976 1.80468L9.96679 3.40802C9.94733 3.42761 9.92317 3.44188 9.89661 3.44947C9.87006 3.45706 9.842 3.4577 9.81513 3.45135L7.39929 3.23468C6.95658 3.19338 6.51404 3.31528 6.15492 3.57743C5.7958 3.83959 5.54485 4.22394 5.44929 4.65818L4.90763 7.03068C4.90181 7.05814 4.89008 7.084 4.87324 7.10645C4.8564 7.12891 4.83486 7.14742 4.81013 7.16068L2.73013 8.39135C2.3468 8.61707 2.05923 8.97515 1.92155 9.39816C1.78387 9.82117 1.80559 10.2799 1.98263 10.688L2.94679 12.9197C2.96787 12.9718 2.96787 13.0301 2.94679 13.0822L1.98263 15.3138C1.80648 15.7204 1.78526 16.1774 1.92297 16.5985C2.06068 17.0196 2.3478 17.3758 2.73013 17.5997L4.82096 18.8498C4.86501 18.8809 4.89591 18.9272 4.90763 18.9798L5.44929 21.3523C5.54576 21.7858 5.79709 22.1691 6.15612 22.4304C6.51515 22.6917 6.95719 22.813 7.39929 22.7715L9.81513 22.544C9.84277 22.5422 9.87049 22.5461 9.89657 22.5554C9.92266 22.5647 9.94656 22.5793 9.96679 22.5982L11.7976 24.2015C12.1327 24.4881 12.5592 24.6455 13.0001 24.6455C13.4411 24.6455 13.8675 24.4881 14.2026 24.2015L16.0335 22.5982C16.0537 22.5793 16.0776 22.5647 16.1037 22.5554C16.1298 22.5461 16.1575 22.5422 16.1851 22.544L18.601 22.7715C19.0431 22.813 19.4851 22.6917 19.8441 22.4304C20.2032 22.1691 20.4545 21.7858 20.551 21.3523L21.0926 18.9798C21.0984 18.9524 21.1102 18.9265 21.127 18.9041C21.1439 18.8816 21.1654 18.8631 21.1901 18.8498L23.2701 17.604C23.6524 17.3801 23.9396 17.024 24.0773 16.6028C24.215 16.1817 24.1938 15.7247 24.0176 15.3182L23.0535 13.0865C23.0324 13.0344 23.0324 12.9761 23.0535 12.924L24.0176 10.688ZM17.8643 10.818L12.491 16.3214C12.3334 16.4724 12.1242 16.5576 11.906 16.5597C11.735 16.5613 11.5679 16.5081 11.4293 16.408L8.24429 14.133C8.06903 14.0066 7.95116 13.8157 7.91662 13.6024C7.88209 13.3891 7.93371 13.1708 8.06013 12.9955C8.18654 12.8203 8.37741 12.7024 8.59073 12.6678C8.80406 12.6333 9.02236 12.6849 9.19762 12.8114L11.8085 14.6855L16.7051 9.68052C16.7795 9.60381 16.8683 9.54263 16.9665 9.50052C17.0647 9.45841 17.1702 9.43621 17.277 9.4352C17.3838 9.43419 17.4898 9.4544 17.5887 9.49465C17.6877 9.5349 17.7777 9.5944 17.8535 9.66968C18.006 9.82115 18.0927 10.0267 18.0947 10.2416C18.0968 10.4566 18.014 10.6637 17.8643 10.818Z" fill="white"/>
</svg>
