<svg width="134" height="134" viewBox="0 0 134 134" fill="none" xmlns="http://www.w3.org/2000/svg">
<rect x="2.18062" y="68.2536" width="91.0074" height="91.0074" rx="45.5037" transform="rotate(-46.5536 2.18062 68.2536)" stroke="#166D48" stroke-width="3.085"/>
<path d="M52.957 83.6661L80.1821 54.9205L80.7443 75.648C80.7584 76.1672 80.9782 76.6597 81.3553 77.0169C81.7325 77.3741 82.2361 77.5669 82.7554 77.5528C83.2746 77.5387 83.7671 77.3189 84.1243 76.9418C84.4815 76.5647 84.6743 76.061 84.6602 75.5418L83.9699 50.0883C83.9558 49.569 83.736 49.0766 83.3588 48.7193C82.9817 48.3621 82.4781 48.1693 81.9588 48.1834L56.5053 48.8738C55.986 48.8878 55.4936 49.1076 55.1364 49.4848C54.7791 49.8619 54.5864 50.3655 54.6004 50.8848C54.6145 51.4041 54.8343 51.8965 55.2115 52.2538C55.5886 52.611 56.0922 52.8038 56.6115 52.7897L77.339 52.2275L50.1114 80.9707C49.9344 81.1576 49.7959 81.3775 49.7039 81.6178C49.6119 81.8582 49.5682 82.1143 49.5751 82.3715C49.5821 82.6288 49.6397 82.8822 49.7446 83.1172C49.8495 83.3522 49.9996 83.5643 50.1865 83.7412C50.3733 83.9182 50.5932 84.0567 50.8336 84.1487C51.0739 84.2407 51.3301 84.2844 51.5873 84.2775C51.8446 84.2705 52.098 84.2129 52.333 84.108C52.568 84.0031 52.78 83.8529 52.957 83.6661Z" fill="#166D48"/>
</svg>
