<svg width="84" height="84" viewBox="0 0 84 84" fill="none" xmlns="http://www.w3.org/2000/svg">
<path fill-rule="evenodd" clip-rule="evenodd" d="M25.8904 43.9426C25.831 43.3786 25.8006 42.8058 25.8006 42.226H25.7987C25.7987 33.278 33.0526 26.0234 42 26.0234C50.9474 26.0234 58.2014 33.278 58.2014 42.226C58.2014 46.4269 56.6025 50.2541 53.9804 53.1326C51.8005 48.7199 47.254 45.6872 42 45.6872C36.7463 45.6872 32.2017 48.7195 30.0203 53.1321C27.7609 50.6514 26.2617 47.4662 25.8906 43.9443L25.8006 44.0344C25.8006 44.0344 25.8014 44.0329 25.8028 44.0302L25.8904 43.9426ZM35.3421 37.5188C35.3421 41.1968 38.3223 44.1772 42 44.1772C45.6798 44.1772 48.6598 41.1967 48.6598 37.5188C48.6598 33.841 45.6798 30.8585 42 30.8585C38.3224 30.8585 35.3421 33.8409 35.3421 37.5188ZM37.1503 37.5188C37.1503 34.8396 39.3211 32.6668 42 32.6668C44.6806 32.6668 46.8516 34.8395 46.8516 37.5188C46.8516 40.198 44.6806 42.3689 42 42.3689C39.3212 42.3689 37.1503 40.1978 37.1503 37.5188ZM52.5147 62.9735C49.5055 63.3388 46.8112 65.7979 46.8112 69.3639C46.8112 70.4206 45.9571 71.2715 44.904 71.2715H39.0962C38.0429 71.2715 37.1888 70.4206 37.1888 69.3639C37.1888 65.2429 33.6011 62.6022 30.0808 62.9549C30.0147 62.5174 29.9211 62.0833 29.7997 61.6553C29.7997 61.6554 31.8073 59.6476 33.4012 58.0536C35.9563 59.4448 38.8858 60.2352 42 60.2352C51.9461 60.2352 60.0095 52.1729 60.0095 42.226C60.0095 39.1119 59.2192 36.1823 57.8281 33.627L61.4287 30.0261C61.8574 30.1477 62.2923 30.2414 62.7304 30.3074C62.382 33.8264 65.0225 37.4135 69.1366 37.4135C70.1933 37.4135 71.044 38.2677 71.044 39.3209V45.1293C71.044 46.1825 70.1933 47.0367 69.1366 47.0367C65.5704 47.0367 63.1115 49.7319 62.7466 52.7417C57.2962 53.1746 52.9479 57.5228 52.5147 62.9735ZM31.8163 57.0812L27.721 61.1768C29.0382 64.3348 28.4137 68.1092 25.8449 70.6781C23.8541 72.6715 21.1343 73.4943 18.5407 73.1482C18.2992 73.115 18.0975 72.9479 18.0198 72.7168C17.9421 72.4859 18.002 72.2308 18.1744 72.0585C19.5298 70.6982 22.0518 68.1774 22.0518 68.1774L21.6128 62.6139L16.05 62.1749C16.05 62.1749 13.5291 64.696 12.1718 66.0534C11.9983 66.2268 11.7417 66.2872 11.5092 66.209C11.2769 66.1309 11.1087 65.9277 11.0753 65.6847C10.7334 63.0921 11.5561 60.3721 13.5494 58.3787C16.118 55.8125 19.8921 55.1853 23.0498 56.5024L27.1441 52.4078C28.4006 54.238 29.9866 55.8243 31.8163 57.0812ZM26.1722 50.8226L22.5713 54.4237C22.1428 54.3023 21.7082 54.2085 21.2702 54.1427C21.6193 50.6237 18.98 47.0367 14.8634 47.0367C13.8103 47.0367 12.956 46.1825 12.956 45.1293V39.3209C12.956 38.2677 13.8103 37.4135 14.8634 37.4135C20.5854 37.4135 23.4532 30.4834 19.4087 26.4386C18.6643 25.6941 18.6643 24.4865 19.4087 23.742L23.5184 19.6319C24.2629 18.8876 25.4704 18.8876 26.2148 19.6319C30.2593 23.6768 37.1888 20.8088 37.1888 15.0863C37.1888 14.0331 38.0429 13.1788 39.0962 13.1788H44.904C45.9571 13.1788 46.8112 14.0331 46.8112 15.0863C46.8112 19.2041 50.3996 21.8439 53.9189 21.4934C53.9849 21.9315 54.0787 22.3661 54.2002 22.7946C54.2002 22.7946 52.273 24.722 50.5985 26.3967C48.0432 25.0055 45.1138 24.215 42 24.215C32.0541 24.215 23.9905 32.2793 23.9905 42.226C23.9905 42.2557 23.9911 42.2852 23.9925 42.3145C24.0074 45.3949 24.7953 48.2922 26.1722 50.8226ZM52.1833 27.369L56.279 23.273C54.9619 20.1177 55.5863 16.3407 58.1551 13.7717C60.1485 11.7804 62.8667 10.956 65.4601 11.3017C65.7015 11.3349 65.9032 11.5019 65.981 11.7329C66.0586 11.964 65.9988 12.2189 65.8266 12.3913C64.4723 13.7523 61.9509 16.2752 61.9509 16.2752L62.3872 21.8358L67.9502 22.275C67.9502 22.275 70.4708 19.754 71.8282 18.3966C72.0016 18.2231 72.2582 18.1628 72.4907 18.241C72.7232 18.3191 72.8913 18.5221 72.9246 18.7651C73.2668 21.3592 72.4441 24.0776 70.4507 26.071C67.8847 28.64 64.1079 29.2645 60.9502 27.9473L56.8559 32.0419C55.5991 30.212 54.0132 28.6258 52.1833 27.369ZM52.608 54.4717C49.7657 56.9358 46.0569 58.4269 42 58.4269C37.9428 58.4269 34.2342 56.9356 31.3923 54.4711C33.1647 50.3664 37.2467 47.4955 42 47.4955C46.7536 47.4955 50.8377 50.3665 52.608 54.4717ZM63.6424 54.5145C68.8088 54.5145 72.9975 58.7035 72.9975 63.8703C72.9975 69.0373 68.8088 73.2251 63.6424 73.2251C58.4759 73.2251 54.2874 69.0373 54.2874 63.8703C54.2874 58.7035 58.4759 54.5145 63.6424 54.5145ZM62.7222 59.0188C61.3875 59.3874 60.438 60.5359 60.438 61.8538C60.438 63.4586 61.8456 64.8121 63.6424 64.8121C64.3877 64.8121 65.0388 65.2965 65.0388 65.9621C65.0388 66.627 64.3877 67.112 63.6424 67.112C63.0469 67.112 62.7422 66.8563 62.3376 66.4752C61.9744 66.1331 61.4017 66.1501 61.0596 66.5135C60.7175 66.8767 60.7346 67.4494 61.0978 67.7916C61.6466 68.3085 62.1213 68.6591 62.7563 68.8199L62.7663 69.2284C62.7784 69.7273 63.1934 70.1224 63.6922 70.1102C64.191 70.098 64.5861 69.6831 64.5739 69.1842L64.5644 68.7964C65.8983 68.4272 66.8469 67.2783 66.8469 65.9621C66.8469 64.3573 65.4393 63.0038 63.6424 63.0038C62.8972 63.0038 62.2461 62.5194 62.2461 61.8538C62.2461 61.1882 62.8972 60.7038 63.6424 60.7038C63.8943 60.7038 64.2616 60.8268 64.5699 60.9898C64.7173 61.0677 64.8601 61.1427 64.9277 61.2455C65.2019 61.6625 65.7629 61.7785 66.1799 61.5044C66.5968 61.2302 66.7128 60.6691 66.4386 60.2521C66.2329 59.9393 65.863 59.6279 65.4147 59.391C65.1359 59.2436 64.8285 59.1241 64.5314 59.0394L64.5186 58.5115C64.5066 58.0126 64.0918 57.6174 63.593 57.6295C63.0942 57.6415 62.699 58.0563 62.711 58.5553L62.7222 59.0188Z" fill="white"/>
</svg>
