<svg width="60" height="60" viewBox="0 0 60 60" fill="none" xmlns="http://www.w3.org/2000/svg">
<path d="M42.7688 5.19369C42.1154 4.85271 41.3801 4.70018 40.645 4.75316C39.9099 4.80614 39.204 5.06254 38.6063 5.49369C38.1115 5.88454 37.4925 6.08421 36.8625 6.05619C36.1169 6.06443 35.3973 5.78197 34.8563 5.26869C33.6573 4.29811 32.1614 3.76855 30.6188 3.76855C29.0762 3.76855 27.5803 4.29811 26.3813 5.26869C25.8321 5.77495 25.1126 6.05602 24.3657 6.05602C23.6188 6.05602 22.8992 5.77495 22.35 5.26869C21.1546 4.29827 19.6617 3.76861 18.1219 3.76861C16.5822 3.76861 15.0893 4.29827 13.8938 5.26869C13.3475 5.7855 12.6207 6.06814 11.8688 6.05619C11.2502 6.08521 10.6426 5.88492 10.1625 5.49369C9.5614 5.06102 8.85109 4.80535 8.1121 4.75564C7.37311 4.70593 6.63497 4.86417 5.98129 5.21244C5.3065 5.55948 4.7409 6.08648 4.3471 6.73509C3.95329 7.38371 3.74665 8.12864 3.75004 8.88744V48.3937C3.75 49.4812 4.17944 50.5248 4.94494 51.2973C5.71043 52.0698 6.75003 52.5088 7.83754 52.5187H32.85C30.99 50.0932 29.9876 47.119 30 44.0624C30 40.3328 31.4816 36.756 34.1189 34.1188C36.7561 31.4815 40.3329 29.9999 44.0625 29.9999C44.3759 30 44.6889 30.0188 45 30.0562V8.86869C45.0019 8.1102 44.7947 7.36587 44.4011 6.71752C44.0074 6.06917 43.4426 5.5419 42.7688 5.19369ZM14.25 40.1249C13.805 40.1249 13.37 39.993 13 39.7457C12.63 39.4985 12.3416 39.1471 12.1713 38.736C12.001 38.3248 11.9565 37.8724 12.0433 37.436C12.1301 36.9995 12.3444 36.5986 12.6591 36.2839C12.9737 35.9693 13.3746 35.755 13.8111 35.6682C14.2475 35.5814 14.6999 35.6259 15.1111 35.7962C15.5222 35.9665 15.8736 36.2549 16.1208 36.6249C16.3681 36.9949 16.5 37.4299 16.5 37.8749C16.5 38.4717 16.263 39.044 15.841 39.4659C15.4191 39.8879 14.8468 40.1249 14.25 40.1249ZM14.25 30.7499C13.805 30.7499 13.37 30.618 13 30.3707C12.63 30.1235 12.3416 29.7721 12.1713 29.361C12.001 28.9498 11.9565 28.4974 12.0433 28.061C12.1301 27.6245 12.3444 27.2236 12.6591 26.9089C12.9737 26.5943 13.3746 26.38 13.8111 26.2932C14.2475 26.2064 14.6999 26.2509 15.1111 26.4212C15.5222 26.5915 15.8736 26.8799 16.1208 27.2499C16.3681 27.6199 16.5 28.0549 16.5 28.4999C16.5 29.0967 16.263 29.669 15.841 30.0909C15.4191 30.5129 14.8468 30.7499 14.25 30.7499ZM14.25 20.9999C13.8042 20.9999 13.3685 20.8675 12.9981 20.6194C12.6277 20.3713 12.3393 20.0188 12.1696 19.6066C11.9998 19.1944 11.9564 18.741 12.0447 18.304C12.1331 17.8671 12.3493 17.4662 12.6658 17.1523C12.9823 16.8384 13.385 16.6256 13.8227 16.5409C14.2604 16.4562 14.7134 16.5035 15.1242 16.6766C15.5349 16.8498 15.885 17.1411 16.13 17.5136C16.375 17.8861 16.5038 18.3229 16.5 18.7687C16.4988 19.0629 16.4396 19.3541 16.3259 19.6254C16.2122 19.8968 16.0461 20.1431 15.8372 20.3503C15.6282 20.5575 15.3805 20.7215 15.1082 20.833C14.8359 20.9444 14.5443 21.0012 14.25 20.9999ZM26.25 39.7499H21C20.5028 39.7499 20.0258 39.5524 19.6742 39.2008C19.3226 38.8491 19.125 38.3722 19.125 37.8749C19.125 37.3777 19.3226 36.9007 19.6742 36.5491C20.0258 36.1975 20.5028 35.9999 21 35.9999H26.25C26.7473 35.9999 27.2242 36.1975 27.5759 36.5491C27.9275 36.9007 28.125 37.3777 28.125 37.8749C28.125 38.3722 27.9275 38.8491 27.5759 39.2008C27.2242 39.5524 26.7473 39.7499 26.25 39.7499ZM34.875 30.3749H21C20.5028 30.3749 20.0258 30.1774 19.6742 29.8258C19.3226 29.4741 19.125 28.9972 19.125 28.4999C19.125 28.0027 19.3226 27.5257 19.6742 27.1741C20.0258 26.8225 20.5028 26.6249 21 26.6249H34.875C35.3723 26.6249 35.8492 26.8225 36.2009 27.1741C36.5525 27.5257 36.75 28.0027 36.75 28.4999C36.75 28.9972 36.5525 29.4741 36.2009 29.8258C35.8492 30.1774 35.3723 30.3749 34.875 30.3749ZM34.875 20.6437H21C20.5028 20.6437 20.0258 20.4461 19.6742 20.0945C19.3226 19.7429 19.125 19.266 19.125 18.7687C19.125 18.2714 19.3226 17.7945 19.6742 17.4429C20.0258 17.0912 20.5028 16.8937 21 16.8937H34.875C35.3723 16.8937 35.8492 17.0912 36.2009 17.4429C36.5525 17.7945 36.75 18.2714 36.75 18.7687C36.75 19.266 36.5525 19.7429 36.2009 20.0945C35.8492 20.4461 35.3723 20.6437 34.875 20.6437Z" fill="white"/>
<path d="M44.0625 31.875C41.652 31.875 39.2957 32.5898 37.2915 33.929C35.2873 35.2681 33.7252 37.1716 32.8027 39.3985C31.8803 41.6255 31.6389 44.076 32.1092 46.4402C32.5794 48.8043 33.7402 50.9759 35.4446 52.6804C37.1491 54.3848 39.3207 55.5456 41.6848 56.0158C44.049 56.4861 46.4995 56.2447 48.7265 55.3223C50.9534 54.3998 52.8569 52.8377 54.196 50.8335C55.5352 48.8293 56.25 46.473 56.25 44.0625C56.246 40.8314 54.9607 37.7338 52.676 35.449C50.3912 33.1643 47.2936 31.879 44.0625 31.875ZM49.1381 42.8888L44.1394 47.8894C43.9652 48.0637 43.7585 48.202 43.5308 48.2964C43.3032 48.3907 43.0592 48.4393 42.8128 48.4393C42.5664 48.4393 42.3224 48.3907 42.0948 48.2964C41.8672 48.202 41.6604 48.0637 41.4863 47.8894L38.9869 45.3881C38.6453 45.0345 38.4563 44.5609 38.4606 44.0692C38.4649 43.5776 38.6621 43.1074 39.0097 42.7597C39.3574 42.4121 39.8276 42.2149 40.3193 42.2106C40.8109 42.2063 41.2845 42.3953 41.6381 42.7369L42.8119 43.9106L46.4869 40.2356C46.6611 40.0615 46.8679 39.9235 47.0954 39.8293C47.323 39.7351 47.5669 39.6867 47.8132 39.6868C48.0594 39.6869 48.3033 39.7355 48.5308 39.8298C48.7583 39.9241 48.965 40.0624 49.1391 40.2366C49.3132 40.4108 49.4512 40.6176 49.5454 40.8451C49.6396 41.0727 49.688 41.3166 49.6879 41.5628C49.6878 41.8091 49.6392 42.053 49.5449 42.2805C49.4506 42.508 49.3123 42.7147 49.1381 42.8888Z" fill="white"/>
</svg>
