<svg width="60" height="60" viewBox="0 0 60 60" fill="none" xmlns="http://www.w3.org/2000/svg">
<g clip-path="url(#clip0_11413_4102)">
<path d="M57.2921 36.0257C54.3408 34.9575 51.0646 35.2042 48.3028 36.7028C48.2667 36.7206 37.4894 41.5912 37.4894 41.5912C36.7238 42.1647 35.8357 42.4676 34.9212 42.4676H28.1403C27.298 42.4676 26.6152 41.7856 26.6152 40.9443C26.6152 40.103 27.298 39.421 28.1403 39.421H34.9212C37.0408 39.421 37.0872 35.0601 35.0111 34.8873L25.5601 34.7787C23.8924 34.7602 22.2233 33.6883 20.4653 33.648C18.6761 33.6071 16.9834 34.0634 15.4792 35.0391C13.3846 36.3976 11.9546 38.5566 10.9961 40.8203L16.1094 53.7329H30.8121C32.139 53.7329 33.4494 53.3847 34.6013 52.7257L57.4188 39.6726C58.1125 39.0844 58.6484 38.3975 58.413 37.3426C58.2805 36.7496 57.8548 36.2297 57.2921 36.0257Z" fill="white"/>
<path d="M1.53125 42.4027L8.49971 60.0004L14.0932 56.9291L7.12458 39.3315L1.53125 42.4027Z" fill="white"/>
<path d="M43.523 0C36.0414 0 29.9766 6.14705 29.9766 13.7297C29.9766 21.3124 36.0416 27.4595 43.523 27.4595C51.0044 27.4595 57.0694 21.3124 57.0694 13.7297C57.0695 6.14705 51.0045 0 43.523 0ZM45.0623 20.5832V22.8592H41.9277V20.7683C40.7167 20.5883 39.6404 20.1064 38.7108 19.3759L39.8349 16.2232C40.7466 16.9395 42.0491 17.594 43.1691 17.594C44.0281 17.594 44.5832 17.1997 44.5832 16.5895C44.5832 16.1928 44.4557 15.7176 42.9328 15.0969C41.0267 14.3447 39.0753 13.2414 39.0753 10.7701C39.0753 8.90436 40.2157 7.40539 42.0664 6.81436V4.60013H45.1817V6.61808C46.1295 6.76603 47.1434 7.22821 47.9775 7.76628L46.809 10.8692C45.9691 10.3091 44.7781 9.76551 43.8225 9.76551C42.7777 9.76551 42.6649 10.3009 42.6649 10.531C42.6649 10.8914 42.7994 11.2024 44.5389 11.9262C46.2399 12.624 48.1922 13.7687 48.1922 16.4499C48.1923 18.3654 46.9708 19.9674 45.0623 20.5832Z" fill="white"/>
</g>
<defs>
<clipPath id="clip0_11413_4102">
<rect width="60" height="60" fill="white"/>
</clipPath>
</defs>
</svg>
