<svg width="47" height="41" viewBox="0 0 47 41" fill="none" xmlns="http://www.w3.org/2000/svg">
<path d="M27.9481 7.00484C27.6468 3.99201 25.9144 1.73238 22.9769 0.677888C21.7718 0.225963 20.416 0 18.9096 0C17.4785 0 16.1227 0.225963 14.8423 0.677888C11.9048 1.8077 10.1724 3.99201 9.87109 7.00484V7.90869V8.20998C9.87109 10.7709 10.549 13.4071 11.7541 15.968C12.3567 17.1732 13.1852 18.303 14.4657 19.4328C15.6708 20.4873 17.1772 21.0898 18.9096 21.0898H19.1356C20.7173 21.0898 22.2237 20.4873 23.4289 19.4328C24.634 18.3783 25.5378 17.2485 26.1404 15.968C27.3455 13.4071 28.0234 10.7709 28.0234 8.20998V7.90869C27.9481 7.60741 27.9481 7.30613 27.9481 7.00484Z" fill="#00AA72"/>
<path d="M35.7796 27.5674C35.1017 27.1155 34.3485 26.6636 33.52 26.3623L27.419 24.0274C26.1386 23.5754 24.8581 23.4248 23.653 24.2533L23.427 24.4793C23.0504 24.7806 22.8244 25.1572 22.6738 25.4585C22.5985 25.5338 22.5232 25.6844 22.4478 25.7597L18.9078 30.7309L18.4558 30.053C17.2507 28.396 16.0456 26.7389 14.9157 25.0065C14.8404 24.8559 14.7651 24.7806 14.6145 24.6299C14.1625 24.1027 13.7106 23.8014 13.108 23.5754L12.5808 23.5001L10.6225 23.952L4.37082 26.287C3.46697 26.5883 2.63844 26.9649 2.03588 27.4921C-0.148428 29.1492 0.00221329 31.1829 0.00221329 31.2582V36.154C0.0775342 36.7566 0.228176 37.2838 0.378818 37.7358C1.13203 39.6188 2.78909 40.2967 3.99422 40.2967H33.746C34.9511 40.2967 36.5328 39.6188 37.3614 37.7358C37.5873 37.2838 37.6627 36.7566 37.738 36.0034V31.4088C37.8133 31.2582 37.9639 29.2245 35.7796 27.5674Z" fill="#00AA72"/>
<path d="M46.9982 4.97111C46.9982 4.06726 46.6216 3.23873 45.9437 2.48552C45.2658 1.80763 44.4372 1.50635 43.4581 1.50635C41.2738 1.50635 39.3908 1.50635 37.5831 1.50635C35.6247 1.50635 34.043 3.08809 34.043 5.04643V7.38138V8.36055V9.94228C34.1183 11.4487 35.0221 12.6538 36.3779 13.1811C36.4532 13.2564 38.1856 13.407 38.3363 13.407C38.4869 13.4824 38.5622 13.633 38.5622 13.7836V21.0898V22.8222V25.0065C38.5622 25.2324 38.6375 25.3831 38.7882 25.5337C39.3154 26.1363 39.7674 26.6635 40.2946 27.3414C40.4452 27.492 40.6712 27.3414 40.6712 27.3414C40.6712 27.3414 41.3491 26.3622 42.027 25.609C42.1023 25.5337 42.1776 25.3831 42.1776 25.3077C42.027 24.4039 42.7049 23.8013 43.3828 23.2741C43.684 23.0481 43.684 23.0481 43.3828 22.7468C43.1568 22.5209 42.9308 22.2949 42.7049 22.0689C42.4036 21.7677 42.1776 21.5417 42.4036 21.2404C42.7049 20.9391 43.2321 20.7132 43.4581 20.4872C43.6087 20.3366 43.6087 20.2612 43.4581 20.1106C43.1568 19.8093 42.6295 19.5834 42.4036 19.2821C42.1776 18.9808 42.1776 18.8301 42.4036 18.5289C42.6295 18.3029 43.1568 18.0769 43.4581 17.7757C43.5334 17.7003 43.6087 17.625 43.684 17.5497C43.3828 17.2484 43.0815 16.9471 42.7802 16.6458C42.6295 16.4952 42.2529 16.2692 42.2529 16.0433V14.1603C42.2529 13.859 42.3283 13.7083 42.4789 13.633C42.6295 13.633 44.5879 13.3317 44.6632 13.2564C46.019 12.8045 46.9982 11.524 46.9982 9.94228C46.9982 9.2644 46.9982 8.51119 46.9982 7.68266C46.9982 6.70349 46.9982 5.79964 46.9982 4.97111ZM43.4581 6.4022C43.3074 6.85413 42.9308 7.08009 42.4789 7.08009C41.1985 7.08009 39.918 7.08009 38.6375 7.08009C38.2609 7.08009 37.9597 6.85413 37.7337 6.55285C37.2818 5.79964 37.809 4.89579 38.7129 4.89579H42.4036C42.7049 4.89579 43.0062 4.97111 43.0815 5.19707C43.5334 5.57368 43.6087 5.95028 43.4581 6.4022Z" fill="#00AA72"/>
</svg>
