<svg width="47" height="47" viewBox="0 0 47 47" fill="none" xmlns="http://www.w3.org/2000/svg">
<path d="M19.9603 39.6856C19.8722 39.7297 19.7841 39.7738 19.6812 39.8178C19.4903 39.9059 19.2994 39.9353 19.0938 39.9353C18.8881 39.9353 18.6972 39.8913 18.5063 39.8178C11.28 36.66 6.60938 29.5219 6.60938 21.6347V13.5859C6.60938 13.0131 6.94719 12.4844 7.47594 12.2494L18.4916 7.24094C18.8734 7.06469 19.3141 7.06469 19.7106 7.24094L30.7262 12.2494C31.255 12.4844 31.5928 13.0131 31.5928 13.5859V16.2297C32.0775 16.1856 32.5622 16.1562 33.0616 16.1562C34.3247 16.1562 35.5584 16.3325 36.7334 16.6116V10.2812C36.7334 9.70844 36.3956 9.17969 35.8669 8.94469L19.6959 1.60094C19.3141 1.42469 18.8734 1.42469 18.4769 1.60094L2.33531 8.94469C1.80656 9.17969 1.46875 9.70844 1.46875 10.2812V21.6347C1.46875 31.6662 7.43188 40.6991 16.6703 44.6206L18.5209 45.4137C18.7119 45.4872 18.9028 45.5312 19.0938 45.5312C19.2847 45.5312 19.4903 45.4872 19.6666 45.4137L21.5172 44.6206C22.1928 44.3269 22.8538 44.0037 23.5 43.6659C22.1047 42.5497 20.9003 41.2131 19.9603 39.6856Z" fill="#00AA72"/>
<path d="M28.6406 16.8025V14.5406L19.0938 10.2078L9.54688 14.5406V21.6346C9.54688 27.8915 12.9984 33.5903 18.4475 36.5131C17.9188 34.9562 17.625 33.2965 17.625 31.5781C17.625 24.6015 22.2809 18.7118 28.6406 16.8025Z" fill="#00AA72"/>
<path d="M33.0469 19.0938C26.1584 19.0938 20.5625 24.6897 20.5625 31.5781C20.5625 38.4666 26.1584 44.0625 33.0469 44.0625C39.9353 44.0625 45.5312 38.4666 45.5312 31.5781C45.5312 24.6897 39.9353 19.0938 33.0469 19.0938ZM38.9659 29.5659L32.9294 35.6613C32.6503 35.9403 32.2831 36.1019 31.8866 36.1019C31.5047 36.1019 31.1228 35.9403 30.8438 35.6759L27.1278 31.96C26.555 31.3872 26.555 30.4619 27.1278 29.8744C27.7006 29.3016 28.6259 29.3016 29.2134 29.8744L31.8866 32.5475L36.8803 27.5097C37.4531 26.9369 38.3784 26.9222 38.9513 27.5097C39.5241 28.0825 39.5388 29.0078 38.9513 29.5806L38.9659 29.5659Z" fill="#00AA72"/>
</svg>
