<svg width="55" height="29" viewBox="0 0 55 29" fill="none" xmlns="http://www.w3.org/2000/svg">
<path fill-rule="evenodd" clip-rule="evenodd" d="M54.3366 4.09798C54.3366 1.83469 52.5019 0 50.2381 0H4.09853C1.83469 0 0 1.83469 0 4.09798V24.8407C0 27.1046 1.83469 28.9392 4.09853 28.9392H50.2381C52.5019 28.9392 54.3366 27.1046 54.3366 24.8407V4.09798ZM9.77893 7.10867V5.80903C9.77893 5.20911 10.2657 4.7223 10.8657 4.7223C11.4656 4.7223 11.9524 5.20911 11.9524 5.80903V7.10867H14.7873C15.3872 7.10867 15.8741 7.59548 15.8741 8.19541C15.8741 8.79533 15.3872 9.28214 14.7873 9.28214H11.9524V13.3829H12.5545C14.8206 13.3829 16.6581 15.2198 16.6581 17.4864V17.7271C16.6581 19.9931 14.8206 21.8306 12.5545 21.8306H11.9524V23.1302C11.9524 23.7301 11.4656 24.217 10.8657 24.217C10.2657 24.217 9.77893 23.7301 9.77893 23.1302V21.8306H6.944C6.34408 21.8306 5.85671 21.3438 5.85671 20.7438C5.85671 20.1439 6.34408 19.6571 6.944 19.6571H9.77893V15.5564H9.17679C6.91073 15.5564 5.07327 13.7189 5.07327 11.4528V11.2122C5.07327 8.94558 6.91073 7.10867 9.17679 7.10867H9.77893ZM28.2977 18.8443L23.7878 23.3503C23.3636 23.7745 22.675 23.7745 22.2509 23.3498C21.8267 22.9256 21.8272 22.237 22.2514 21.8128L27.5315 16.5372C27.7355 16.3331 28.0122 16.2189 28.3011 16.2195C28.5894 16.2195 28.8661 16.3348 29.0695 16.5394L33.6604 21.148L36.2586 19.2147C36.6573 18.918 37.2062 18.9291 37.5921 19.2418L40.3721 21.4951H48.3618C48.9617 21.4951 49.4486 21.9819 49.4486 22.5819C49.4486 23.1818 48.9617 23.6686 48.3618 23.6686H39.9873C39.7378 23.6686 39.4966 23.5832 39.3031 23.4263L36.8791 21.4624L34.2038 23.4535C33.7702 23.7762 33.1659 23.7312 32.7844 23.3487L28.2977 18.8443ZM11.9524 15.5564V19.6571H12.5545C13.6202 19.6571 14.4846 18.7927 14.4846 17.7271V17.4864C14.4846 16.4202 13.6202 15.5564 12.5545 15.5564H11.9524ZM9.77893 9.28214H9.17679C8.11113 9.28214 7.24673 10.1465 7.24673 11.2122V11.4528C7.24673 12.5185 8.11113 13.3829 9.17679 13.3829H9.77893V9.28214ZM23.1053 12.2956C22.5053 12.2956 22.0185 11.8088 22.0185 11.2089C22.0185 10.609 22.5053 10.1221 23.1053 10.1221H48.3618C48.9617 10.1221 49.4486 10.609 49.4486 11.2089C49.4486 11.8088 48.9617 12.2956 48.3618 12.2956H23.1053ZM23.1053 7.40531C22.5053 7.40531 22.0185 6.91794 22.0185 6.31802C22.0185 5.7181 22.5053 5.23129 23.1053 5.23129H48.3618C48.9617 5.23129 49.4486 5.7181 49.4486 6.31802C49.4486 6.91794 48.9617 7.40531 48.3618 7.40531H23.1053Z" fill="#00AA72"/>
</svg>
