<svg width="60" height="60" viewBox="0 0 60 60" fill="none" xmlns="http://www.w3.org/2000/svg">
<path fill-rule="evenodd" clip-rule="evenodd" d="M42.5 15C42.5 21.9036 36.9035 27.5 30 27.5C23.0964 27.5 17.5 21.9036 17.5 15C17.5 8.09645 23.0964 2.5 30 2.5C36.9035 2.5 42.5 8.09645 42.5 15ZM25 32.5C15.335 32.5 7.5 40.335 7.5 50C7.5 54.1423 10.8579 57.5 15 57.5H33.5233C34.6038 57.5 35.2175 56.1803 34.658 55.2558C33.2882 52.9928 32.5 50.3385 32.5 47.5C32.5 42.4148 35.0305 37.9205 38.901 35.2078C39.8095 34.5713 39.732 33.1105 38.6468 32.8805C37.4705 32.6313 36.2505 32.5 35 32.5H25ZM47.5 37.5C48.8807 37.5 50 38.6193 50 40V45H55C56.3807 45 57.5 46.1193 57.5 47.5C57.5 48.8808 56.3807 50 55 50H50V55C50 56.3805 48.8807 57.5 47.5 57.5C46.1193 57.5 45 56.3805 45 55V50H40C38.6192 50 37.5 48.8808 37.5 47.5C37.5 46.1193 38.6192 45 40 45H45V40C45 38.6193 46.1193 37.5 47.5 37.5Z" fill="#00AA72"/>
</svg>
