<svg width="52" height="52" viewBox="0 0 52 52" fill="none" xmlns="http://www.w3.org/2000/svg">
<path fill-rule="evenodd" clip-rule="evenodd" d="M21.125 45.4967H16.25V17.8718C16.25 17.0105 15.9071 16.1834 15.2977 15.574C14.6884 14.9646 13.8612 14.6218 13 14.6218C11.1962 14.6218 11.5538 14.6218 9.75 14.6218C8.88875 14.6218 8.06163 14.9646 7.45225 15.574C6.84288 16.1834 6.5 17.0105 6.5 17.8718V45.4967H3.25C2.353 45.4967 1.625 46.2248 1.625 47.1217C1.625 48.0188 2.353 48.7467 3.25 48.7467H48.75C49.647 48.7467 50.375 48.0188 50.375 47.1217C50.375 46.2248 49.647 45.4967 48.75 45.4967H45.5V30.8718C45.5 29.0778 44.0456 27.6218 42.25 27.6218C40.4463 27.6218 40.8037 27.6218 39 27.6218C37.2044 27.6218 35.75 29.0778 35.75 30.8718V45.4967H30.875V24.3718C30.875 23.5105 30.5321 22.6834 29.9227 22.074C29.3134 21.4646 28.4862 21.1218 27.625 21.1218C25.8213 21.1218 26.1787 21.1218 24.375 21.1218C23.5138 21.1218 22.6866 21.4646 22.0773 22.074C21.4679 22.6834 21.125 23.5105 21.125 24.3718V45.4967ZM39.8954 19.4123L38.8537 19.5065C37.9616 19.5878 37.3019 20.3775 37.3815 21.2713C37.4627 22.1634 38.2525 22.8231 39.1463 22.7435L45.6463 22.1585C46.189 22.1098 46.6716 21.7913 46.93 21.3103C47.19 20.8293 47.19 20.2524 46.9316 19.7714L43.927 14.1781C43.5029 13.3884 42.5181 13.091 41.7267 13.5151C40.937 13.9393 40.6396 14.9256 41.0654 15.7154L41.5366 16.5945L13.6955 3.406C12.8846 3.0225 11.9161 3.36863 11.531 4.1795C11.1475 4.99038 11.4936 5.95888 12.3045 6.344L39.8954 19.4123Z" fill="#00AA72"/>
</svg>
