<svg width="34" height="34" viewBox="0 0 34 34" fill="none" xmlns="http://www.w3.org/2000/svg">
<path d="M22.5626 9.50022L10.6876 9.5C8.0642 9.49995 5.9375 11.6266 5.9375 14.25V18.9997C5.9375 21.6231 8.06415 23.7497 10.6875 23.7497H13.0625L19.2227 28.3698C19.3305 28.4562 19.4615 28.4997 19.5938 28.4997C19.6019 28.5003 19.6111 28.4997 19.6169 28.4997C19.9451 28.4997 20.2107 28.2342 20.2107 27.906C20.2107 27.7975 20.1817 27.6961 20.1318 27.6085L19 23.7497L22.5622 23.7499C25.1857 23.7501 27.3125 21.6234 27.3125 18.9999V14.2502C27.3125 11.6269 25.1859 9.50026 22.5626 9.50022Z" fill="#00AA72"/>
<path d="M29.6875 26.125C28.1414 26.125 26.8356 27.1207 26.3438 28.5H23.75V24.9375H21.375V29.6875C21.375 30.3433 21.9061 30.875 22.5625 30.875H26.3439C26.8357 32.2543 28.1414 33.25 29.6875 33.25C31.652 33.25 33.25 31.652 33.25 29.6875C33.25 27.723 31.652 26.125 29.6875 26.125Z" fill="#00AA72"/>
<path d="M22.5625 4.75H26.3439C26.8357 6.12928 28.1414 7.125 29.6875 7.125C31.652 7.125 33.25 5.52698 33.25 3.5625C33.25 1.59802 31.652 0 29.6875 0C28.1414 0 26.8356 0.99572 26.3438 2.375H21.375C20.7186 2.375 20.1875 2.90671 20.1875 3.5625V8.3125H22.5625V4.75Z" fill="#00AA72"/>
<path d="M11.875 2.375H6.90619C6.41441 0.99572 5.10855 0 3.5625 0C1.59802 0 0 1.59802 0 3.5625C0 5.52698 1.59802 7.125 3.5625 7.125C5.10855 7.125 6.41441 6.12928 6.90619 4.75H10.6875V8.3125H13.0625V3.5625C13.0625 2.90671 12.5314 2.375 11.875 2.375Z" fill="#00AA72"/>
<path d="M10.6875 28.5H6.90619C6.41441 27.1207 5.10855 26.125 3.5625 26.125C1.59802 26.125 0 27.723 0 29.6875C0 31.652 1.59802 33.25 3.5625 33.25C5.10855 33.25 6.41441 32.2543 6.90619 30.875H11.875C12.5314 30.875 13.0625 30.3433 13.0625 29.6875V24.9375H10.6875V28.5Z" fill="#00AA72"/>
</svg>
