<svg width="40" height="40" viewBox="0 0 40 40" fill="none" xmlns="http://www.w3.org/2000/svg">
<path fill-rule="evenodd" clip-rule="evenodd" d="M26.0865 39.4167H5.04167C3.70517 39.4167 2.42183 38.885 1.47583 37.9408C0.531667 36.9948 0 35.7115 0 34.375V5.04167C0 3.70517 0.531667 2.42183 1.47583 1.47583C2.42183 0.531667 3.70517 0 5.04167 0H20.7827C21.6333 0 22.4492 0.337333 23.0505 0.9405L31.1428 9.03283C31.746 9.63417 32.0833 10.45 32.0833 11.3007V18.9108C30.8238 18.7257 29.5423 18.7568 28.292 19.0025C27.2378 19.2078 26.3578 19.9283 25.9453 20.9202L25.6337 21.6718C25.223 21.6187 24.8252 21.5673 24.8252 21.5673C23.76 21.428 22.6967 21.8295 21.9908 22.6398C21.0357 23.7362 20.3005 25.0067 19.8293 26.3835C19.481 27.3992 19.6643 28.5212 20.317 29.3737L20.8138 30.0208C20.5627 30.349 20.317 30.668 20.317 30.668C19.6643 31.5205 19.481 32.6425 19.8293 33.6582C20.3005 35.035 21.0357 36.3055 21.9908 37.4018C22.6967 38.2122 23.76 38.6137 24.8252 38.4743L25.6337 38.3698C25.7913 38.7512 25.9453 39.1215 25.9453 39.1215C25.9875 39.2223 26.0352 39.3213 26.0865 39.4167ZM7.79167 24.75H16.0417C16.8007 24.75 17.4167 24.134 17.4167 23.375C17.4167 22.616 16.8007 22 16.0417 22H7.79167C7.03267 22 6.41667 22.616 6.41667 23.375C6.41667 24.134 7.03267 24.75 7.79167 24.75ZM20.625 3.20833V9.625C20.625 10.637 21.4463 11.4583 22.4583 11.4583H28.875L20.625 3.20833ZM7.79167 18.3333H22.4583C23.2173 18.3333 23.8333 17.7173 23.8333 16.9583C23.8333 16.1993 23.2173 15.5833 22.4583 15.5833H7.79167C7.03267 15.5833 6.41667 16.1993 6.41667 16.9583C6.41667 17.7173 7.03267 18.3333 7.79167 18.3333ZM7.79167 31.1667H16.0417C16.8007 31.1667 17.4167 30.5507 17.4167 29.7917C17.4167 29.0327 16.8007 28.4167 16.0417 28.4167H7.79167C7.03267 28.4167 6.41667 29.0327 6.41667 29.7917C6.41667 30.5507 7.03267 31.1667 7.79167 31.1667Z" fill="#00AA72"/>
<path fill-rule="evenodd" clip-rule="evenodd" d="M33.266 21.6223C33.266 21.6223 33.9169 23.1898 33.915 23.1898C34.1625 23.3145 34.4027 23.4538 34.6355 23.6042L36.3185 23.3842C36.7732 23.3255 37.2297 23.4978 37.5322 23.8443C38.3315 24.761 38.9457 25.8262 39.3417 26.9775C39.4902 27.412 39.4114 27.8942 39.1309 28.259C39.1309 28.259 38.1005 29.6065 38.1005 29.6047C38.1152 29.8815 38.1152 30.1602 38.1005 30.4352L39.1309 31.7827C39.4114 32.1475 39.4902 32.6297 39.3417 33.0642C38.9457 34.2155 38.3315 35.2807 37.5322 36.1973C37.2297 36.5438 36.7732 36.7162 36.3185 36.6575C36.3185 36.6575 34.6355 36.4375 34.6374 36.4357C34.4045 36.5878 34.1625 36.7272 33.9169 36.8518L33.266 38.4193C33.09 38.8447 32.7124 39.1527 32.2614 39.2407C31.066 39.4753 29.8377 39.4753 28.6424 39.2407C28.1914 39.1527 27.8137 38.8447 27.6377 38.4193C27.6377 38.4193 26.9869 36.8518 26.9887 36.8518C26.7412 36.7272 26.4992 36.5878 26.2682 36.4375L24.5852 36.6575C24.1287 36.7162 23.674 36.5438 23.3715 36.1973C22.5704 35.2807 21.9562 34.2155 21.562 33.0642C21.4135 32.6297 21.4924 32.1475 21.771 31.7827C21.771 31.7827 22.8032 30.4352 22.8032 30.437C22.7885 30.1602 22.7885 29.8815 22.8032 29.6065L21.771 28.259C21.4924 27.8942 21.4135 27.412 21.562 26.9775C21.9562 25.8262 22.5704 24.761 23.3715 23.8443C23.674 23.4978 24.1287 23.3255 24.5852 23.3842C24.5852 23.3842 26.2682 23.6042 26.2664 23.606C26.4992 23.4538 26.7394 23.3145 26.9869 23.1898L27.6377 21.6223C27.8137 21.197 28.1914 20.889 28.6424 20.801C29.8377 20.5663 31.066 20.5663 32.2614 20.801C32.7124 20.889 33.09 21.197 33.266 21.6223ZM30.4519 27.2708C28.9339 27.2708 27.7019 28.5028 27.7019 30.0208C27.7019 31.5388 28.9339 32.7708 30.4519 32.7708C31.9699 32.7708 33.2019 31.5388 33.2019 30.0208C33.2019 28.5028 31.9699 27.2708 30.4519 27.2708Z" fill="#00AA72"/>
</svg>
