<svg width="43" height="51" viewBox="0 0 43 51" fill="none" xmlns="http://www.w3.org/2000/svg">
<path d="M32.0947 47.7905C29.0427 47.5189 26.2225 46.0498 24.2506 43.7046C22.2788 41.3594 21.3157 38.3288 21.5721 35.2755C21.8284 32.2222 23.2833 29.3947 25.6186 27.4111C27.9539 25.4275 30.9796 24.4492 34.0341 24.6902L34.0341 18.9355C34.0342 18.4595 33.9405 17.988 33.7584 17.5482C33.5763 17.1083 33.3093 16.7086 32.9726 16.372C32.636 16.0354 32.2363 15.7683 31.7964 15.5862C31.3566 15.4041 30.8851 15.3104 30.4091 15.3105H12.3203C11.3593 15.3118 10.438 15.6942 9.75847 16.3737C9.07893 17.0532 8.6966 17.9745 8.69531 18.9355V47.1199C8.6966 48.0809 9.07893 49.0022 9.75847 49.6818C10.438 50.3613 11.3593 50.7436 12.3203 50.7449H30.4091C31.2513 50.745 32.0673 50.4521 32.7171 49.9164C33.367 49.3806 33.8101 48.6354 33.9706 47.8087C33.3462 47.8629 32.718 47.8569 32.0947 47.7905ZM22.2709 43.4859C22.2714 43.605 22.2482 43.723 22.2028 43.8332C22.1574 43.9433 22.0907 44.0434 22.0064 44.1276C21.9222 44.2118 21.8221 44.2786 21.712 44.324C21.6018 44.3694 21.4838 44.3925 21.3647 44.3921H14.0241C13.7837 44.3921 13.5532 44.2966 13.3832 44.1267C13.2133 43.9567 13.1178 43.7262 13.1178 43.4859C13.1178 43.2455 13.2133 43.015 13.3832 42.845C13.5532 42.6751 13.7837 42.5796 14.0241 42.5796H21.3647C21.4838 42.5792 21.6018 42.6024 21.712 42.6477C21.8221 42.6931 21.9222 42.7599 22.0064 42.8441C22.0907 42.9284 22.1574 43.0284 22.2028 43.1386C22.2482 43.2487 22.2714 43.3667 22.2709 43.4859ZM18.6188 33.0459H14.0241C13.7865 33.0416 13.5601 32.9442 13.3937 32.7747C13.2272 32.6053 13.1339 32.3772 13.1339 32.1396C13.1339 31.902 13.2272 31.6739 13.3937 31.5044C13.5602 31.3349 13.7866 31.2376 14.0241 31.2334H18.6188C18.8568 31.2369 19.0839 31.3339 19.2509 31.5035C19.418 31.6731 19.5117 31.9016 19.5117 32.1396C19.5117 32.3777 19.418 32.6062 19.2509 32.7757C19.0839 32.9453 18.8568 33.0423 18.6188 33.0459ZM19.525 37.8127C19.5243 38.0529 19.4286 38.283 19.2588 38.4528C19.089 38.6226 18.8589 38.7183 18.6188 38.719H14.0241C13.7837 38.719 13.5532 38.6235 13.3832 38.4535C13.2133 38.2836 13.1178 38.0531 13.1178 37.8127C13.1178 37.5724 13.2133 37.3419 13.3832 37.1719C13.5532 37.002 13.7837 36.9065 14.0241 36.9065H18.6188C18.8589 36.9072 19.089 37.0029 19.2588 37.1727C19.4286 37.3425 19.5243 37.5726 19.525 37.8127ZM24.9081 27.3727H14.0241C13.7865 27.3685 13.5601 27.2711 13.3937 27.1016C13.2272 26.9321 13.1339 26.704 13.1339 26.4665C13.1339 26.2289 13.2272 26.0008 13.3937 25.8313C13.5602 25.6618 13.7866 25.5645 14.0241 25.5602H24.9081C25.1457 25.5645 25.3721 25.6618 25.5385 25.8313C25.705 26.0008 25.7983 26.2289 25.7983 26.4665C25.7983 26.7041 25.705 26.9322 25.5385 27.1016C25.3721 27.2711 25.1457 27.3685 24.9081 27.3727ZM28.7144 21.6996H14.0241C13.7865 21.6954 13.5601 21.598 13.3937 21.4285C13.2272 21.259 13.1339 21.0309 13.1339 20.7933C13.1339 20.5557 13.2272 20.3277 13.3937 20.1582C13.5602 19.9887 13.7866 19.8914 14.0241 19.8871H28.7144C28.9524 19.8906 29.1795 19.9877 29.3466 20.1572C29.5136 20.3268 29.6073 20.5553 29.6073 20.7934C29.6073 21.0314 29.5136 21.2599 29.3466 21.4295C29.1795 21.599 28.9524 21.6961 28.7144 21.6996Z" fill="#00AA72"/>
<path d="M33.1364 26.4575C30.5401 26.4586 28.0503 27.4898 26.2136 29.3249C24.3769 31.1599 23.3433 33.6487 23.3398 36.245C23.8748 49.2248 42.3886 49.2305 42.9239 36.2449C42.9209 33.6501 41.8888 31.1623 40.0539 29.3275C38.219 27.4926 35.7313 26.4605 33.1364 26.4575ZM33.1364 33.0369C32.8349 33.0415 32.5473 33.1641 32.3353 33.3785C32.1233 33.5929 32.0038 33.8819 32.0027 34.1834C32.0015 34.4849 32.1186 34.7748 32.329 34.9909C32.5393 35.2069 32.826 35.3318 33.1274 35.3388C33.8303 35.3435 34.5088 35.5977 35.0417 36.0561C35.5747 36.5144 35.9276 37.1472 36.0375 37.8415C36.1474 38.5358 36.0072 39.2466 35.6418 39.8472C35.2765 40.4477 34.7097 40.899 34.0426 41.1206L34.0427 42.2081C34.0427 42.4485 33.9472 42.679 33.7772 42.849C33.6073 43.0189 33.3768 43.1144 33.1364 43.1144C32.8961 43.1144 32.6655 43.0189 32.4956 42.849C32.3256 42.679 32.2302 42.4485 32.2302 42.2081V41.1206C31.6322 40.9305 31.1105 40.5547 30.7405 40.0479C30.3706 39.5411 30.1718 38.9296 30.173 38.3022C30.1776 38.0649 30.2751 37.8389 30.4446 37.6727C30.614 37.5066 30.8419 37.4135 31.0792 37.4135C31.3166 37.4135 31.5445 37.5066 31.7139 37.6728C31.8833 37.839 31.9809 38.065 31.9855 38.3023C31.9855 38.5299 32.053 38.7524 32.1795 38.9417C32.3059 39.1309 32.4857 39.2784 32.696 39.3655C32.9063 39.4527 33.1377 39.4754 33.361 39.431C33.5842 39.3866 33.7893 39.277 33.9503 39.116C34.1112 38.9551 34.2208 38.75 34.2652 38.5267C34.3096 38.3035 34.2868 38.0721 34.1997 37.8617C34.1126 37.6514 33.9651 37.4717 33.7758 37.3452C33.5866 37.2188 33.364 37.1513 33.1364 37.1513C32.4301 37.1517 31.7469 36.8997 31.2101 36.4407C30.6732 35.9817 30.3181 35.346 30.2087 34.6482C30.0993 33.9504 30.2429 33.2365 30.6136 32.6353C30.9843 32.0341 31.5576 31.5851 32.2302 31.3694V30.2819C32.2302 30.0415 32.3256 29.811 32.4956 29.6411C32.6655 29.4711 32.8961 29.3756 33.1364 29.3756C33.3768 29.3756 33.6073 29.4711 33.7772 29.6411C33.9472 29.811 34.0427 30.0415 34.0427 30.2819V31.3694C34.6389 31.5623 35.159 31.9387 35.5285 32.4449C35.8979 32.9511 36.0979 33.5611 36.0998 34.1878C36.0952 34.4251 35.9977 34.6511 35.8282 34.8173C35.6588 34.9835 35.4309 35.0766 35.1936 35.0766C34.9562 35.0766 34.7284 34.9835 34.5589 34.8173C34.3895 34.6511 34.292 34.4251 34.2873 34.1878C34.285 33.8833 34.163 33.5919 33.9477 33.3766C33.7323 33.1612 33.4409 33.0392 33.1364 33.0369Z" fill="#00AA72"/>
<path d="M25.7857 13.498L24.9791 9.0574C24.8196 8.19805 24.3276 7.4363 23.6099 6.93747C22.8922 6.43865 22.0068 6.24301 21.1457 6.39302L2.71258 9.73709C2.28573 9.81551 1.87862 9.9776 1.51467 10.214C1.15072 10.4504 0.837131 10.7565 0.591953 11.1146C0.341501 11.4683 0.165048 11.869 0.0731704 12.2925C-0.0187068 12.7161 -0.0241163 13.1539 0.0572653 13.5796L5.20477 41.9452C5.29401 42.43 5.491 42.8885 5.78118 43.2869C6.07136 43.6853 6.44733 44.0134 6.88133 44.2471V18.9355C6.88247 17.4938 7.45572 16.1114 8.4752 15.0919C9.49468 14.0724 10.8771 13.4992 12.3188 13.498H25.7857Z" fill="#00AA72"/>
<path d="M20.8209 4.6167C22.1542 4.38014 23.5269 4.67975 24.6403 5.45032C25.7537 6.22089 26.5177 7.40005 26.7659 8.73115L27.6269 13.4979H30.4091C31.8508 13.4991 33.2332 14.0723 34.2527 15.0918C35.2722 16.1113 35.8454 17.4937 35.8466 18.9354C35.849 20.2254 35.8447 23.6361 35.8466 24.962C36.0799 25.0147 36.3099 25.0812 36.5353 25.1614L41.0031 9.24764C41.2336 8.40291 41.121 7.50133 40.6899 6.73922C40.2588 5.97711 39.544 5.41618 38.7012 5.17858L20.6759 0.1217C19.8324 -0.11338 18.9301 -0.00516991 18.166 0.422706C17.4019 0.850582 16.8382 1.56337 16.5978 2.40545L15.7188 5.54107C16.8836 5.31605 19.6267 4.83862 20.8209 4.6167Z" fill="#00AA72"/>
</svg>
