<svg width="38" height="38" viewBox="0 0 38 38" fill="none" xmlns="http://www.w3.org/2000/svg">
<g clip-path="url(#clip0_10853_4981)">
<path d="M21.3646 0.00643547C20.7525 -0.0576895 20.197 0.364096 20.122 0.972912C20.0459 1.58388 20.4786 2.13948 21.0884 2.21556C22.5996 2.40363 24.076 2.93867 25.4774 3.53012C26.0503 3.76806 26.6988 3.49969 26.9364 2.93652C27.1745 2.36904 26.9093 1.71666 26.3428 1.47753C24.7522 0.807775 23.0769 0.219517 21.3646 0.00643547Z" fill="#00AA72"/>
<path d="M33.8659 9.04775C34.3562 8.67592 34.452 7.97685 34.0801 7.4876C33.0375 6.11448 31.8122 4.8892 30.4391 3.84658C29.9488 3.47697 29.2519 3.56937 28.879 4.06077C28.5071 4.55002 28.6028 5.24909 29.0932 5.62093C30.3054 6.54072 31.386 7.62134 32.3058 8.83356C32.6788 9.32489 33.3768 9.41781 33.8659 9.04775Z" fill="#00AA72"/>
<path d="M34.9895 10.9893C34.4231 11.2285 34.1579 11.8808 34.3959 12.4483C34.9874 13.8497 35.5943 15.4003 35.7824 16.9115C35.8554 17.502 36.3893 17.952 37.0251 17.878C37.635 17.8019 38.0677 17.2463 37.9915 16.6353C37.7785 14.923 37.1182 13.1734 36.4485 11.5829C36.2094 11.0165 35.556 10.7545 34.9895 10.9893Z" fill="#00AA72"/>
<path d="M11.6575 1.47754C11.0911 1.71675 10.8258 2.36905 11.0639 2.93653C11.302 3.50089 11.9515 3.76756 12.5229 3.53013C13.9243 2.93868 15.4007 2.40364 16.9119 2.21557C17.5218 2.1395 17.9545 1.58389 17.8784 0.972925C17.8023 0.364109 17.2446 -0.0577507 16.6357 0.00644852C14.9234 0.219531 13.2481 0.807788 11.6575 1.47754Z" fill="#00AA72"/>
<path d="M19 37.9999C28.5281 37.9999 36.8138 30.8057 37.9912 21.3646C38.0673 20.7546 37.6346 20.198 37.0248 20.1219C36.4116 20.0534 35.8572 20.4786 35.7821 21.0884C34.7428 29.4185 27.4072 35.7734 19 35.7734C9.79151 35.7734 2.22656 28.2084 2.22656 19C2.22656 14.9415 3.83688 10.9918 6.45702 7.97524V8.34381C6.45702 8.95916 6.95495 9.45709 7.5703 9.45709C8.18564 9.45709 8.68358 8.95916 8.68358 8.34381V5.19531C8.68358 4.57996 8.18564 4.08203 7.5703 4.08203H4.42076C3.80541 4.08203 3.30748 4.57996 3.30748 5.19531C3.30748 5.81066 3.80541 6.30785 4.42076 6.30785H4.95691C1.8732 9.75582 0 14.3059 0 19C0 29.4359 8.56408 37.9999 19 37.9999Z" fill="#00AA72"/>
<path d="M5.56641 19C5.56641 26.3668 11.6332 32.4336 19 32.4336C26.3668 32.4336 32.4336 26.3668 32.4336 19C32.4336 11.6332 26.3668 5.56641 19 5.56641C11.6332 5.56641 5.56641 11.6332 5.56641 19ZM20.1133 14.5469C20.1133 13.9315 20.6112 13.4336 21.2266 13.4336C21.8419 13.4336 22.3398 13.9315 22.3398 14.5469V17.8867H24.5664V14.5469C24.5664 13.9315 25.0643 13.4336 25.6797 13.4336C26.295 13.4336 26.793 13.9315 26.793 14.5469V23.4531C26.793 24.0685 26.295 24.5664 25.6797 24.5664C25.0643 24.5664 24.5664 24.0685 24.5664 23.4531V20.1133H21.2266C20.6112 20.1133 20.1133 19.6153 20.1133 19V14.5469ZM14.5469 15.6602C13.9326 15.6602 13.4336 16.1592 13.4336 16.7734C13.4336 17.3888 12.9357 17.8867 12.3203 17.8867C11.705 17.8867 11.207 17.3888 11.207 16.7734C11.207 14.9318 12.7052 13.4336 14.5469 13.4336C16.3885 13.4336 17.8867 14.9318 17.8867 16.7734C17.8867 19 16.4049 20.1111 15.2144 21.0037C14.5549 21.4986 14.0852 21.8945 13.787 22.3398H16.7734C17.3888 22.3398 17.8867 22.8378 17.8867 23.4531C17.8867 24.0685 17.3888 24.5664 16.7734 24.5664H12.3203C11.705 24.5664 11.207 24.0685 11.207 23.4531C11.207 21.2266 12.6889 20.1154 13.8794 19.2229C15.0166 18.3694 15.6602 17.8345 15.6602 16.7734C15.6602 16.1591 15.1612 15.6602 14.5469 15.6602Z" fill="#00AA72"/>
</g>
<defs>
<clipPath id="clip0_10853_4981">
<rect width="38" height="38" fill="white"/>
</clipPath>
</defs>
</svg>
