<svg width="50" height="50" viewBox="0 0 50 50" fill="none" xmlns="http://www.w3.org/2000/svg">
<path d="M21.875 15.6243V12.4993H3.125C1.40313 12.4993 0 13.9024 0 15.6243V21.8743H22.5344C22.1 19.9649 21.875 17.9086 21.875 15.6243Z" fill="#00AA72"/>
<path d="M49.8719 28.1243C47.7406 31.4086 44.4906 34.2024 39.8344 36.8774C39.1187 37.2868 38.3125 37.4993 37.5 37.4993C36.6875 37.4993 35.8812 37.2868 35.175 36.8836C30.5187 34.2024 27.2688 31.4055 25.1344 28.1243H0V43.7493C0 45.4743 1.40313 46.8743 3.125 46.8743H46.875C48.6 46.8743 50 45.4743 50 43.7493V28.1243H49.8719ZM14.0625 37.4993H7.8125C6.95 37.4993 6.25 36.7993 6.25 35.9368C6.25 35.0743 6.95 34.3743 7.8125 34.3743H14.0625C14.925 34.3743 15.625 35.0743 15.625 35.9368C15.625 36.7993 14.925 37.4993 14.0625 37.4993Z" fill="#00AA72"/>
<path d="M49.0531 7.9398L38.1156 3.25229C37.7187 3.08354 37.2781 3.08354 36.8813 3.25229L25.9438 7.9398C25.3719 8.18355 25 8.74917 25 9.37417V15.6242C25 24.221 28.1781 29.246 36.7219 34.1679C36.9625 34.3054 37.2312 34.3742 37.5 34.3742C37.7688 34.3742 38.0375 34.3054 38.2781 34.1679C46.8219 29.2585 50 24.2335 50 15.6242V9.37417C50 8.74917 49.6281 8.18355 49.0531 7.9398ZM43.4094 15.0398L37.1594 22.8523C36.8594 23.221 36.4094 23.4367 35.9375 23.4367C35.9156 23.4367 35.8906 23.4367 35.8719 23.4367C35.375 23.4148 34.9156 23.1585 34.6375 22.7429L31.5125 18.0554C31.0344 17.3367 31.2281 16.3679 31.9469 15.8898C32.6594 15.4148 33.6313 15.6023 34.1125 16.3242L36.0531 19.2335L40.9656 13.0898C41.5063 12.4179 42.4906 12.3117 43.1625 12.846C43.8375 13.3804 43.9437 14.3648 43.4094 15.0398Z" fill="#00AA72"/>
</svg>
