<svg width="35" height="44" viewBox="0 0 35 44" fill="none" xmlns="http://www.w3.org/2000/svg">
<path fill-rule="evenodd" clip-rule="evenodd" d="M20.3125 0H4.6875C2.09844 0 0 2.09844 0 4.6875V36.4703C0 38.2734 1.03438 39.9172 2.66094 40.6969C4.28751 41.4765 6.21563 41.2547 7.62188 40.125L8.39686 39.5031C8.96874 39.0453 9.78126 39.0453 10.3531 39.5031L14.2562 42.6375C15.9687 44.0125 18.4047 44.0141 20.1203 42.6422L24.0266 39.5172C24.5969 39.0609 25.4063 39.0594 25.9766 39.5156L26.7859 40.1609C28.1938 41.2844 30.1203 41.5015 31.7437 40.7203C33.3656 39.939 34.3969 38.2969 34.3969 36.4969V14.0578H25C23.7563 14.0578 22.5641 13.5641 21.6859 12.6844C20.8062 11.8062 20.3125 10.6141 20.3125 9.3703V0ZM21.4703 33.8594L26.1047 29.225C26.5516 28.7781 26.6859 28.1062 26.4437 27.5219C26.2016 26.9391 25.6313 26.5578 25 26.5578H9.375C8.5125 26.5578 7.8125 27.2578 7.8125 28.1203C7.8125 28.9828 8.5125 29.6828 9.375 29.6828H21.2281L19.2609 31.65C18.65 32.2594 18.65 33.25 19.2609 33.8594C19.8703 34.4703 20.8609 34.4703 21.4703 33.8594ZM12.9047 16.1312L8.27031 20.7656C7.82344 21.2125 7.68907 21.8844 7.93126 22.4687C8.17344 23.0515 8.74375 23.4328 9.375 23.4328H25C25.8625 23.4328 26.5625 22.7328 26.5625 21.8703C26.5625 21.0078 25.8625 20.3078 25 20.3078H13.1469L15.1141 18.3406C15.725 17.7312 15.725 16.7406 15.1141 16.1312C14.5047 15.5203 13.5141 15.5203 12.9047 16.1312ZM23.4375 0.187492V9.3703C23.4375 9.78437 23.6016 10.1828 23.8953 10.475C24.1875 10.7687 24.5859 10.9328 25 10.9328H34.2141C33.9953 10.1734 33.5859 9.47499 33.0156 8.90937L25.4313 1.36406C24.8703 0.806252 24.1828 0.40468 23.4375 0.187492Z" fill="#00AA72"/>
</svg>
