<svg width="78" height="78" viewBox="0 0 78 78" fill="none" xmlns="http://www.w3.org/2000/svg">
<g clip-path="url(#clip0_10853_4901)">
<path d="M4.57031 39C4.57031 20.0154 20.0154 4.57031 39 4.57031C46.1399 4.57031 52.9491 6.73527 58.6822 10.7535H54.253C52.9909 10.7535 51.9678 11.7766 51.9678 13.0386C51.9678 14.3007 52.9909 15.3238 54.253 15.3238H64.9615C66.2235 15.3238 67.2467 14.3007 67.2467 13.0386V2.3301C67.2467 1.06808 66.2235 0.0449414 64.9615 0.0449414C63.6995 0.0449414 62.6764 1.06808 62.6764 2.3301V8.01846C55.9082 2.81821 47.6699 0 39 0C28.5827 0 18.789 4.05676 11.4227 11.4227C4.05676 18.789 0 28.5827 0 39C0 45.8434 1.80847 52.5863 5.22996 58.4997C5.65348 59.2319 6.42098 59.6408 7.20997 59.6408C7.59845 59.6408 7.99211 59.5416 8.3524 59.3332C9.4447 58.7011 9.81779 57.3032 9.18587 56.2107C6.16642 50.9922 4.57031 45.0407 4.57031 39Z" fill="black"/>
<path d="M72.7705 19.5003C72.1382 18.4079 70.74 18.0349 69.648 18.667C68.5557 19.2991 68.1826 20.697 68.8145 21.7894C71.834 27.0077 73.4301 32.959 73.4301 39C73.4301 57.9846 57.985 73.4297 39.0004 73.4297C31.8611 73.4297 25.0532 71.2641 19.3207 67.2465H23.7475C25.0095 67.2465 26.0326 66.2234 26.0326 64.9614C26.0326 63.6993 25.0095 62.6762 23.7475 62.6762H13.0391C11.777 62.6762 10.7539 63.6993 10.7539 64.9614V75.6699C10.7539 76.9319 11.777 77.9551 13.0391 77.9551C14.3011 77.9551 15.3242 76.9319 15.3242 75.6699V69.9759C22.0922 75.1778 30.3295 78 39.0004 78C49.4177 78 59.2114 73.9432 66.5777 66.5773C73.9437 59.211 78.0004 49.4173 78.0004 39C78.0004 32.1563 76.1919 25.4134 72.7705 19.5003Z" fill="black"/>
<path d="M58.5631 33.0895C58.72 32.5041 58.6379 31.8804 58.3347 31.3555L55.2878 26.0782C54.6568 24.9853 53.2594 24.6108 52.1663 25.2418L50.0941 26.4382C48.4103 24.946 46.4598 23.8188 44.3323 23.1086V20.7188C44.3323 19.4567 43.3092 18.4336 42.0472 18.4336H35.9534C34.6914 18.4336 33.6683 19.4567 33.6683 20.7188V23.1084C31.5408 23.8186 29.5902 24.9458 27.9063 26.438L25.8343 25.2417C24.7414 24.6104 23.3436 24.985 22.7128 26.0781L19.6659 31.3554C19.0349 32.4483 19.4094 33.8459 20.5023 34.4769L22.5738 35.673C22.3535 36.7642 22.2423 37.8774 22.2423 38.9998C22.2423 40.1223 22.3534 41.2356 22.5738 42.3267L20.5023 43.5228C19.4094 44.1538 19.0349 45.5514 19.6659 46.6443L22.7128 51.9216C23.3438 53.0147 24.7412 53.3892 25.8343 52.758L27.9063 51.5617C29.5902 53.054 31.5406 54.1811 33.6683 54.8913V57.2812C33.6683 58.5433 34.6914 59.5664 35.9534 59.5664H42.0472C43.3092 59.5664 44.3323 58.5433 44.3323 57.2812V54.8916C46.4598 54.1814 48.4103 53.0542 50.0941 51.562L52.1663 52.7583C53.2592 53.3893 54.6568 53.0147 55.2878 51.922L58.3347 46.6446C58.6377 46.1198 58.7198 45.4959 58.5631 44.9106C58.4063 44.3252 58.0233 43.8261 57.4983 43.5231L55.4266 42.3269C55.6469 41.2358 55.758 40.1226 55.758 39C55.758 37.8774 55.6469 36.7642 55.4266 35.6731L57.4983 34.4769C58.0232 34.1741 58.4063 33.6748 58.5631 33.0895ZM39.0001 45.0938C35.6347 45.0938 32.9064 42.3654 32.9064 39C32.9064 35.6346 35.6347 32.9062 39.0001 32.9062C42.3656 32.9062 45.0939 35.6346 45.0939 39C45.0939 42.3654 42.3656 45.0938 39.0001 45.0938Z" fill="black"/>
</g>
<defs>
<clipPath id="clip0_10853_4901">
<rect width="78" height="78" fill="white"/>
</clipPath>
</defs>
</svg>
