<svg width="36" height="49" viewBox="0 0 36 49" fill="none" xmlns="http://www.w3.org/2000/svg">
<path d="M36 31.092C36 31.092 35.9585 36.7583 35.9585 38.2199C35.9585 41.0587 34.2633 46.6691 34.2633 46.6691C34.2633 46.6691 34.1532 47.1038 33.8759 47.7713C33.7288 48.1254 33.262 49 31.9012 49C30.7555 49 17.2346 49 12.9869 49C11.8002 49 11.0751 48.1643 11.0751 48.1643L1.91814 36.2658C0.752324 35.1179 0.752324 33.2395 1.91814 32.0916C3.08404 30.9436 4.99197 30.9436 6.15769 32.0916L9.60098 34.8071C9.60098 34.8071 10.0444 35.0982 10.5217 35.0982C11.3248 35.0982 12.0225 34.4713 12.0225 33.6836C12.0225 32.8958 12.0172 13.7165 12.0172 13.7165C12.0172 12.093 13.3662 10.7648 15.015 10.7648C16.6639 10.7648 18.0128 12.093 18.0128 13.7165V24.0241C18.0126 24.0269 18.0112 24.0293 18.0112 24.0322C18.0112 24.0972 18.0646 24.1498 18.1305 24.1498C18.1891 24.1498 18.2355 24.1075 18.2458 24.0528C18.7 22.9891 19.7703 22.237 21.0107 22.237C22.6595 22.237 24.0085 23.5652 24.0085 25.1887V27.0434C24.0085 27.051 24.012 27.0582 24.0169 27.0653C24.0335 27.1085 24.0751 27.1394 24.1247 27.1394C24.1702 27.1394 24.2086 27.113 24.2277 27.0756C24.2289 27.0747 24.2304 27.0744 24.2317 27.0736C24.672 25.9805 25.7444 25.1887 27.0063 25.1887C28.6551 25.1887 30.0041 26.5168 30.0041 27.9674V29.9203C30.0039 29.9236 30.0022 29.9263 30.0022 29.9295C30.0022 29.9944 30.0557 30.047 30.1216 30.047C30.1735 30.047 30.2165 30.014 30.233 29.9686C30.2383 29.9657 30.2418 29.9641 30.2455 29.9624C30.2404 29.9594 30.2387 29.9499 30.2502 29.924C30.7121 28.8772 31.7739 28.1403 33.0019 28.1403C34.6511 28.1404 36 29.4686 36 31.092ZM20.5007 19.8104C20.6697 19.7949 20.8398 19.787 21.011 19.787C21.7691 19.787 22.488 19.9471 23.1455 20.2223C24.2403 18.6484 24.8833 16.7474 24.8833 14.7001C24.8833 9.29641 20.4181 4.9 14.9299 4.9C9.44177 4.9 4.97662 9.29641 4.97662 14.7001C4.97662 18.1443 6.79483 21.1734 9.53139 22.9215L9.53061 19.7668C8.2536 18.4479 7.46493 16.6664 7.46493 14.7004C7.46493 10.641 10.8071 7.35038 14.9299 7.35038C19.0526 7.35038 22.3948 10.6411 22.3948 14.7004C22.3948 16.5762 21.6751 18.2824 20.5006 19.5811V19.8104H20.5007ZM9.53275 28.3901L9.53217 25.7198C5.37154 23.736 2.48831 19.549 2.48831 14.7002C2.48831 7.94527 8.06941 2.4501 14.9299 2.4501C21.7898 2.4501 27.3716 7.94527 27.3716 14.7002C27.3716 17.2852 26.5492 19.682 25.1554 21.6606C25.4687 22.017 25.7391 22.411 25.95 22.8395C26.2939 22.7736 26.6475 22.739 27.0071 22.739C27.1392 22.739 27.2668 22.7579 27.3969 22.7672C28.9495 20.4491 29.8599 17.6787 29.8599 14.7001C29.8599 6.59461 23.1628 0 14.9299 0C6.69773 0 0 6.59461 0 14.7001C0 20.9302 3.9636 26.254 9.53275 28.3901Z" fill="white"/>
</svg>
