<svg width="39" height="39" viewBox="0 0 39 39" fill="none" xmlns="http://www.w3.org/2000/svg">
<path fill-rule="evenodd" clip-rule="evenodd" d="M27.625 9.75C27.625 14.2373 23.9873 17.875 19.5 17.875C15.0127 17.875 11.375 14.2373 11.375 9.75C11.375 5.26269 15.0127 1.625 19.5 1.625C23.9873 1.625 27.625 5.26269 27.625 9.75ZM16.25 21.125C9.96777 21.125 4.875 26.2178 4.875 32.5C4.875 35.1925 7.05762 37.375 9.75 37.375H21.7901C22.4924 37.375 22.8914 36.5172 22.5277 35.9162C21.6374 34.4453 21.125 32.72 21.125 30.875C21.125 27.5696 22.7698 24.6483 25.2857 22.885C25.8762 22.4713 25.8258 21.5218 25.1204 21.3723C24.3558 21.2103 23.5628 21.125 22.75 21.125H16.25ZM30.875 24.375C31.7725 24.375 32.5 25.1025 32.5 26V29.25H35.75C36.6475 29.25 37.375 29.9775 37.375 30.875C37.375 31.7725 36.6475 32.5 35.75 32.5H32.5V35.75C32.5 36.6473 31.7725 37.375 30.875 37.375C29.9775 37.375 29.25 36.6473 29.25 35.75V32.5H26C25.1025 32.5 24.375 31.7725 24.375 30.875C24.375 29.9775 25.1025 29.25 26 29.25H29.25V26C29.25 25.1025 29.9775 24.375 30.875 24.375Z" fill="#00AA72"/>
</svg>
