<svg width="48" height="48" viewBox="0 0 48 48" fill="none" xmlns="http://www.w3.org/2000/svg">
<g clip-path="url(#clip0_11413_4131)">
<path d="M23.6589 23.1217C26.8354 23.1217 29.5861 21.9825 31.8335 19.7347C34.0809 17.4872 35.2202 14.7374 35.2202 11.5605C35.2202 8.38473 34.0809 5.6345 31.8331 3.38634C29.5853 1.13928 26.8351 0 23.6589 0C20.4821 0 17.7322 1.13928 15.4847 3.38671C13.2373 5.63413 12.0977 8.38437 12.0977 11.5605C12.0977 14.7374 13.2373 17.4876 15.4851 19.735C17.7329 21.9821 20.4832 23.1217 23.6589 23.1217Z" fill="#00AA72"/>
<path d="M43.8871 36.9097C43.8223 35.9744 43.6912 34.9542 43.4982 33.8768C43.3033 32.7913 43.0525 31.7652 42.7522 30.8274C42.442 29.858 42.0201 28.9007 41.4987 27.9834C40.9574 27.0312 40.3217 26.2021 39.6083 25.5199C38.8623 24.8061 37.949 24.2323 36.8928 23.8137C35.8403 23.3973 34.674 23.1864 33.4263 23.1864C32.9363 23.1864 32.4624 23.3875 31.5472 23.9833C30.984 24.3506 30.3252 24.7754 29.5898 25.2452C28.9611 25.6459 28.1093 26.0212 27.0571 26.3611C26.0306 26.6932 24.9884 26.8617 23.9597 26.8617C22.931 26.8617 21.8892 26.6932 20.8616 26.3611C19.8105 26.0216 18.9587 25.6462 18.3307 25.2456C17.6023 24.7801 16.9431 24.3553 16.3715 23.9829C15.4574 23.3871 14.9832 23.186 14.4932 23.186C13.2451 23.186 12.0791 23.3973 11.027 23.8141C9.97156 24.2319 9.05786 24.8058 8.31116 25.5203C7.59814 26.2029 6.96204 27.0316 6.42151 27.9834C5.90039 28.9007 5.47852 29.8576 5.16797 30.8277C4.86804 31.7656 4.61719 32.7913 4.42236 33.8768C4.22937 34.9527 4.09827 35.9733 4.03345 36.9108C3.96973 37.8293 3.9375 38.7825 3.9375 39.7453C3.9375 42.2509 4.73401 44.2793 6.30469 45.7753C7.85596 47.2515 9.90857 48.0004 12.4047 48.0004H35.517C38.0131 48.0004 40.0649 47.2519 41.6166 45.7753C43.1876 44.2804 43.9841 42.2516 43.9841 39.7449C43.9838 38.7778 43.9512 37.8238 43.8871 36.9097Z" fill="#00AA72"/>
</g>
<defs>
<clipPath id="clip0_11413_4131">
<rect width="48" height="48" fill="white"/>
</clipPath>
</defs>
</svg>
