<svg width="72" height="72" viewBox="0 0 72 72" fill="none" xmlns="http://www.w3.org/2000/svg">
<path fill-rule="evenodd" clip-rule="evenodd" d="M14.7577 20.2832H54.0678C54.4771 20.2844 54.8692 20.4476 55.1586 20.737C55.448 21.0264 55.6111 21.4186 55.6123 21.8278V34.353C48.4357 31.2905 40.1747 35.5535 38.5545 43.2208H36.0506C35.7523 43.2208 35.4661 43.3394 35.2551 43.5503C35.0442 43.7613 34.9256 44.0475 34.9256 44.3458C34.9256 44.6442 35.0442 44.9303 35.2551 45.1413C35.4661 45.3523 35.7523 45.4708 36.0506 45.4708H38.2894C38.2561 46.69 38.402 47.9074 38.7222 49.0842H14.7577C14.3485 49.083 13.9563 48.9198 13.6669 48.6304C13.3775 48.341 13.2143 47.9488 13.2131 47.5396V21.8278C13.2143 21.4185 13.3775 21.0264 13.6669 20.737C13.9563 20.4476 14.3485 20.2844 14.7577 20.2832ZM50.7319 35.6089C48.7151 35.6089 46.7436 36.207 45.0667 37.3274C43.3898 38.4479 42.0829 40.0405 41.3111 41.9037C40.5393 43.767 40.3374 45.8172 40.7308 47.7953C41.1243 49.7733 42.0954 51.5902 43.5215 53.0163C44.9476 54.4424 46.7645 55.4135 48.7425 55.807C50.7206 56.2005 52.7708 55.9985 54.6341 55.2267C56.4974 54.4549 58.0899 53.148 59.2104 51.4711C60.3308 49.7942 60.9289 47.8227 60.9289 45.8059C60.9289 43.1015 59.8545 40.5079 57.9422 38.5956C56.0299 36.6833 53.4363 35.6089 50.7319 35.6089ZM55.8769 11.9229H51.7425C51.4442 11.9229 51.158 12.0414 50.947 12.2524C50.7361 12.4634 50.6175 12.7495 50.6175 13.0479C50.6175 13.3463 50.7361 13.6324 50.947 13.8434C51.158 14.0544 51.4442 14.1729 51.7425 14.1729H58.7869C58.9605 14.1733 59.1319 14.1334 59.2875 14.0563C59.4431 13.9793 59.5788 13.8673 59.6838 13.729C59.7888 13.5907 59.8604 13.43 59.8928 13.2594C59.9253 13.0888 59.9177 12.913 59.8708 12.7458L58.076 4.32353C58.0454 4.17926 57.9867 4.04242 57.9033 3.92083C57.8198 3.79924 57.7132 3.69528 57.5896 3.61489C57.4659 3.53449 57.3277 3.47924 57.1827 3.45228C57.0377 3.42533 56.8888 3.42719 56.7445 3.45777C56.6002 3.48835 56.4634 3.54705 56.3418 3.63052C56.2202 3.71398 56.1163 3.82058 56.0359 3.94422C55.8735 4.19393 55.817 4.4979 55.8787 4.78928L56.9724 9.92209C51.0324 5.13274 43.6303 2.52416 36 2.53126C17.5129 2.53126 2.53561 17.5136 2.53561 36H2.53125C2.53125 36.2984 2.64978 36.5845 2.86075 36.7955C3.07173 37.0065 3.35788 37.125 3.65625 37.125C3.95462 37.125 4.24077 37.0065 4.45175 36.7955C4.66272 36.5845 4.78125 36.2984 4.78125 36H4.77689C4.77689 18.7605 18.7613 4.78126 36 4.78126C43.2564 4.76737 50.2887 7.29403 55.8769 11.9229ZM16.1231 60.0771H20.2575C20.5558 60.0771 20.842 59.9586 21.0529 59.7476C21.2639 59.5366 21.3825 59.2505 21.3825 58.9521C21.3825 58.6538 21.2639 58.3676 21.0529 58.1566C20.842 57.9456 20.5558 57.8271 20.2575 57.8271H13.2131C13.0395 57.8268 12.8681 57.8667 12.7125 57.9438C12.5569 58.0208 12.4212 58.1329 12.3162 58.2711C12.2112 58.4094 12.1396 58.5702 12.1072 58.7408C12.0747 58.9113 12.0823 59.0871 12.1292 59.2543L13.924 67.6765C13.9546 67.8208 14.0133 67.9576 14.0968 68.0792C14.1802 68.2008 14.2868 68.3047 14.4105 68.3851C14.5341 68.4655 14.6724 68.5208 14.8174 68.5477C14.9624 68.5747 15.1113 68.5728 15.2556 68.5422C15.3998 68.5116 15.5367 68.4529 15.6583 68.3694C15.7798 68.2859 15.8838 68.1793 15.9642 68.0557C16.0446 67.932 16.0998 67.7938 16.1268 67.6488C16.1537 67.5038 16.1518 67.3549 16.1213 67.2106L15.0276 62.0778C20.9676 66.8671 28.3697 69.4758 36 69.4688C54.484 69.4688 69.4688 54.484 69.4688 36C69.4688 35.7016 69.3502 35.4155 69.1392 35.2045C68.9283 34.9935 68.6421 34.875 68.3438 34.875C68.0454 34.875 67.7592 34.9935 67.5483 35.2045C67.3373 35.4155 67.2188 35.7016 67.2188 36C67.2188 53.2418 53.2417 67.2188 36 67.2188C28.7436 67.2327 21.7113 64.706 16.1231 60.0771ZM54.4141 43.7596C54.4141 42.271 53.2592 41.1299 51.8569 40.7402V40.0409C51.8569 39.7425 51.7383 39.4564 51.5274 39.2454C51.3164 39.0344 51.0302 38.9159 50.7319 38.9159C50.4335 38.9159 50.1474 39.0344 49.9364 39.2454C49.7254 39.4564 49.6069 39.7425 49.6069 40.0409V40.7402C48.2046 41.1293 47.0496 42.2709 47.0496 43.7596C47.0496 46.2378 48.7853 46.5735 50.5209 46.9096C51.3425 47.0685 52.1641 47.2272 52.1641 47.853C52.1565 47.9666 52.1234 48.077 52.0675 48.1761C52.0115 48.2752 51.934 48.3604 51.8407 48.4256C50.9455 49.142 49.2989 48.6647 49.2989 47.853C49.2989 47.5546 49.1804 47.2685 48.9694 47.0575C48.7584 46.8465 48.4723 46.728 48.1739 46.728C47.8755 46.728 47.5894 46.8465 47.3784 47.0575C47.1674 47.2685 47.0489 47.5546 47.0489 47.853C47.0489 49.3415 48.2039 50.4827 49.6062 50.8724V51.5717C49.6062 51.8701 49.7247 52.1562 49.9357 52.3672C50.1467 52.5782 50.4328 52.6967 50.7312 52.6967C51.0295 52.6967 51.3157 52.5782 51.5267 52.3672C51.7376 52.1562 51.8562 51.8701 51.8562 51.5717V50.8724C53.2585 50.4833 54.4134 49.3417 54.4134 47.853C54.4134 45.3746 52.6777 45.0391 50.9421 44.703C50.1206 44.5441 49.2989 44.3852 49.2989 43.7596C49.3066 43.646 49.3396 43.5356 49.3956 43.4365C49.4516 43.3374 49.5291 43.2521 49.6223 43.1869C50.5176 42.4706 52.1641 42.9479 52.1641 43.7596C52.1641 44.0579 52.2827 44.3441 52.4936 44.5551C52.7046 44.766 52.9908 44.8846 53.2891 44.8846C53.5875 44.8846 53.8737 44.766 54.0846 44.5551C54.2956 44.3441 54.4141 44.0579 54.4141 43.7596ZM19.1261 45.4708H24.3125C24.6109 45.4708 24.897 45.3523 25.108 45.1413C25.319 44.9303 25.4375 44.6442 25.4375 44.3458C25.4375 44.0475 25.319 43.7613 25.108 43.5503C24.897 43.3394 24.6109 43.2208 24.3125 43.2208H19.1261C18.8278 43.2208 18.5416 43.3394 18.3306 43.5503C18.1197 43.7613 18.0011 44.0475 18.0011 44.3458C18.0011 44.6442 18.1197 44.9303 18.3306 45.1413C18.5416 45.3523 18.8278 45.4708 19.1261 45.4708ZM27.5884 45.4708H32.7749C33.0733 45.4708 33.3594 45.3523 33.5704 45.1413C33.7814 44.9303 33.8999 44.6442 33.8999 44.3458C33.8999 44.0475 33.7814 43.7613 33.5704 43.5503C33.3594 43.3394 33.0733 43.2208 32.7749 43.2208H27.5884C27.29 43.2208 27.0039 43.3394 26.7929 43.5503C26.5819 43.7613 26.4634 44.0475 26.4634 44.3458C26.4634 44.6442 26.5819 44.9303 26.7929 45.1413C27.0039 45.3523 27.29 45.4708 27.5884 45.4708ZM38.4965 27.4246H48.8694C49.1678 27.4246 49.454 27.306 49.6649 27.0951C49.8759 26.8841 49.9944 26.5979 49.9944 26.2996C49.9944 26.0012 49.8759 25.715 49.6649 25.5041C49.454 25.2931 49.1678 25.1746 48.8694 25.1746H38.4965C38.1981 25.1746 37.912 25.2931 37.701 25.5041C37.49 25.715 37.3715 26.0012 37.3715 26.2996C37.3715 26.5979 37.49 26.8841 37.701 27.0951C37.912 27.306 38.1981 27.4246 38.4965 27.4246ZM43.683 30.5703H48.8694C49.1678 30.5703 49.454 30.4518 49.6649 30.2408C49.8759 30.0299 49.9944 29.7437 49.9944 29.4453C49.9944 29.147 49.8759 28.8608 49.6649 28.6498C49.454 28.4389 49.1678 28.3203 48.8694 28.3203H43.683C43.3847 28.3203 43.0985 28.4389 42.8876 28.6498C42.6766 28.8608 42.558 29.147 42.558 29.4453C42.558 29.7437 42.6766 30.0299 42.8876 30.2408C43.0985 30.4518 43.3847 30.5703 43.683 30.5703ZM19.2084 24.2387C18.91 24.2387 18.6239 24.3572 18.4129 24.5682C18.2019 24.7792 18.0834 25.0653 18.0834 25.3637V30.384C18.0834 30.6824 18.2019 30.9685 18.4129 31.1795C18.6239 31.3905 18.91 31.509 19.2084 31.509H24.2279C24.5262 31.509 24.8124 31.3905 25.0234 31.1795C25.2343 30.9685 25.3529 30.6824 25.3529 30.384V25.3637C25.3529 25.0653 25.2343 24.7792 25.0234 24.5682C24.8124 24.3572 24.5262 24.2387 24.2279 24.2387H19.2084ZM23.1029 26.4887H20.3334V29.259H23.1029V26.4887Z" fill="white"/>
</svg>
