<svg width="66" height="66" viewBox="0 0 66 66" fill="none" xmlns="http://www.w3.org/2000/svg">
<path fill-rule="evenodd" clip-rule="evenodd" d="M48.125 32.6315C48.884 31.317 50.567 30.866 51.8815 31.625C53.3362 32.4638 55.1897 33.5362 56.6445 34.375C57.959 35.134 58.41 36.817 57.651 38.1315C54.8212 43.0347 48.4798 54.0155 46.9755 56.6225C46.7638 56.991 46.4667 57.3072 46.1092 57.541C45.1357 58.1845 42.999 59.5953 40.9778 60.929C40.1088 61.5038 38.9895 61.5368 38.0875 61.017C37.1855 60.4945 36.6547 59.51 36.718 58.4705C36.8637 56.0505 37.015 53.4985 37.0865 52.3325C37.1112 51.9062 37.235 51.491 37.4495 51.1225C38.9538 48.5155 45.2952 37.5347 48.125 32.6315ZM31.427 60.5C31.2483 59.7383 31.1795 58.9435 31.2263 58.1405C31.372 55.7232 31.526 53.1685 31.5948 52.0025C31.6718 50.7238 32.0457 49.4807 32.6865 48.3725L43.362 29.8815C45.639 25.9352 50.6852 24.585 54.6315 26.862L55 27.0738V13.75C55 9.19325 51.3068 5.5 46.75 5.5H19.25C17.061 5.5 14.9627 6.36899 13.4172 7.91724C11.869 9.46274 11 11.561 11 13.75V52.25C11 54.439 11.869 56.5373 13.4172 58.0828C14.9627 59.631 17.061 60.5 19.25 60.5H31.427ZM22 44H27.9812C29.4992 44 30.7312 42.768 30.7312 41.25C30.7312 39.732 29.4992 38.5 27.9812 38.5H22C20.482 38.5 19.25 39.732 19.25 41.25C19.25 42.768 20.482 44 22 44ZM22 33H33.9625C35.4805 33 36.7125 31.768 36.7125 30.25C36.7125 28.732 35.4805 27.5 33.9625 27.5H22C20.482 27.5 19.25 28.732 19.25 30.25C19.25 31.768 20.482 33 22 33ZM22 22H38.5C40.018 22 41.25 20.768 41.25 19.25C41.25 17.732 40.018 16.5 38.5 16.5H22C20.482 16.5 19.25 17.732 19.25 19.25C19.25 20.768 20.482 22 22 22Z" fill="white"/>
</svg>
