<svg width="62" height="62" viewBox="0 0 62 62" fill="none" xmlns="http://www.w3.org/2000/svg">
<path d="M3.97914 23.5152C3.44076 22.9201 3.48689 22.0011 4.08207 21.4628L18.1331 8.75366C18.6855 8.25403 19.5262 8.25294 20.0796 8.751L28.0584 15.9287L38.3969 5.59033H38.0082C37.2057 5.59033 36.5551 4.9397 36.5551 4.13721C36.5551 3.33472 37.2057 2.68408 38.0082 2.68408H41.9051C42.7076 2.68408 43.3582 3.33472 43.3582 4.13721V8.03061C43.3582 8.8331 42.7076 9.48374 41.9051 9.48374C41.1026 9.48374 40.452 8.8331 40.452 8.03061V7.64541L29.1388 18.9585C28.5924 19.5049 27.714 19.5282 27.1394 19.0113L19.1104 11.7883L6.03156 23.618C5.75353 23.8696 5.40478 23.9936 5.05724 23.9936C4.6609 23.9936 4.26601 23.8323 3.97914 23.5152ZM56.4808 45.7164H45.0649V34.2971C45.0649 33.8959 44.7395 33.5705 44.3384 33.5705C37.2404 33.5705 31.4658 39.3451 31.4658 46.443C31.4658 53.5409 37.2404 59.3155 44.3384 59.3155C51.4363 59.3155 57.2074 53.5409 57.2074 46.443C57.2074 46.0418 56.882 45.7164 56.4808 45.7164ZM48.1623 29.7466C47.7611 29.7466 47.4357 30.072 47.4357 30.4732V42.6191C47.4357 43.0203 47.7611 43.3457 48.1623 43.3457H60.3047C60.7059 43.3457 61.0312 43.0203 61.0312 42.6191C61.0312 35.5212 55.2582 29.7466 48.1623 29.7466ZM35.8285 17.1835C35.4273 17.1835 35.1019 17.5089 35.1019 17.91V33.6582C37.2655 32.0907 39.8405 31.0583 42.6317 30.7568V17.91C42.6317 17.5089 42.3063 17.1835 41.9051 17.1835H35.8285ZM32.3732 36.1683V26.5484C32.3732 26.1472 32.0478 25.8218 31.6466 25.8218H25.5702C25.169 25.8218 24.8436 26.1472 24.8436 26.5484V44.9898H22.1149V22.0571C22.1149 21.6558 21.7895 21.3306 21.3883 21.3306H15.3117C14.9105 21.3306 14.5851 21.6558 14.5851 22.0571V44.9898H11.8564V31.1926C11.8564 30.7914 11.531 30.466 11.1298 30.466H5.05687C4.65569 30.466 4.33031 30.7914 4.33031 31.1926V44.9898H2.42188C1.61939 44.9898 0.96875 45.6404 0.96875 46.4429C0.96875 47.2454 1.61939 47.896 2.42188 47.896H28.627C28.5832 47.4173 28.5595 46.9328 28.5595 46.4429C28.5595 42.522 29.9975 38.931 32.3731 36.1683H32.3732Z" fill="white"/>
</svg>
