<svg width="40" height="40" viewBox="0 0 40 40" fill="none" xmlns="http://www.w3.org/2000/svg">
<path d="M40 30C40 24.4767 35.5233 20 30 20C24.4767 20 20 24.4767 20 30C20 35.5233 24.4767 40 30 40C35.5233 40 40 35.5233 40 30ZM34.57 32.4983L32.07 34.9983C30.9283 36.14 29.07 36.14 27.9283 34.9983L25.4283 32.4983C25.0083 32.08 24.88 31.45 25.1117 30.9033C25.3383 30.3567 25.8717 30.0017 26.465 30.0017H28.3333V25.0017C28.3333 24.0817 29.0783 23.335 30 23.335C30.9217 23.335 31.6667 24.0817 31.6667 25.0017V30.0017H33.535C34.1267 30.0017 34.6617 30.3567 34.8883 30.9033C35.1133 31.445 34.99 32.0783 34.57 32.4983ZM11.6667 8.33333C11.6667 3.73167 15.3983 0 20 0C24.6017 0 28.3333 3.73167 28.3333 8.33333C28.3333 10.175 26.8417 11.6667 25 11.6667H20.3367L23.0533 7.59167C23.565 6.825 23.3583 5.79167 22.5917 5.28C21.8217 4.76833 20.79 4.975 20.28 5.74167L16.33 11.6667H15C13.1583 11.6667 11.6667 10.175 11.6667 8.33333ZM16.6667 30C16.6667 22.6367 22.6367 16.6667 30 16.6667C33.9883 16.6667 37.5567 18.4267 40 21.2017V11.6667C40 7.065 36.2683 3.33333 31.6667 3.33333H30.5433C31.275 4.875 31.6667 6.57667 31.6667 8.33333C31.6667 12.015 28.6817 15 25 15H14.11L14.1233 14.9783C10.8883 14.715 8.33333 11.995 8.33333 8.69167C8.33333 6.77167 8.8 4.96 9.57833 3.33333H8.33333C3.73167 3.33333 0 7.065 0 11.6667V31.6667C0 36.2683 3.73167 40 8.33333 40H21.2017C18.4267 37.5567 16.6667 33.9883 16.6667 30Z" fill="#00AA72"/>
</svg>
