<svg width="40" height="40" viewBox="0 0 40 40" fill="none" xmlns="http://www.w3.org/2000/svg">
<path d="M40 25V31.6667C40 32.5883 39.255 33.3333 38.3333 33.3333C37.4117 33.3333 36.6667 32.5883 36.6667 31.6667V27.3267L29.4233 34.5683C27.8417 36.1533 25.0767 36.155 23.49 34.5683L21.65 32.7283C21.325 32.4033 20.7567 32.405 20.435 32.7283L13.6817 39.5117C13.3567 39.8367 12.9283 40.0017 12.5 40.0017C12.075 40.0017 11.6483 39.84 11.3233 39.5167C10.6717 38.8667 10.6683 37.8117 11.3183 37.1583L18.0733 30.375C19.6617 28.7867 22.4233 28.7867 24.01 30.375L25.85 32.215C26.175 32.54 26.7433 32.5383 27.065 32.215L34.28 25.0017H30C29.0783 25.0017 28.3333 24.2567 28.3333 23.335C28.3333 22.4133 29.0783 21.6683 30 21.6683H36.6667C38.505 21.6683 40 23.1633 40 25.0017V25ZM15.7117 28.02L7.88333 35.8667C3.105 32.2133 0 26.48 0 20C0 8.955 8.955 0 20 0C30.7883 0 39.5583 8.54833 39.9617 19.24C38.985 18.68 37.87 18.3333 36.6667 18.3333H30C27.2433 18.3333 25 20.5767 25 23.3333C25 25.0267 25.85 26.52 27.1417 27.425L26.4583 28.1083L26.3683 28.0183C24.9933 26.6417 23.0533 25.85 21.0467 25.8483H21.0417C19.035 25.8483 17.0933 26.6367 15.7117 28.02ZM13.5233 25.7083L20.87 21.215C21.3667 20.91 21.6683 20.3733 21.6683 19.7917V9.99833C21.6683 9.07667 20.9233 8.33167 20.0017 8.33167C19.08 8.33167 18.335 9.07667 18.335 9.99833V18.8567L11.785 22.8617C10.9983 23.3433 10.7517 24.3683 11.2317 25.1533C11.5467 25.6683 12.095 25.9517 12.655 25.9517C12.9517 25.9517 13.2517 25.8733 13.5233 25.7083Z" fill="#00AA72"/>
</svg>
