<svg width="37" height="40" viewBox="0 0 37 40" fill="none" xmlns="http://www.w3.org/2000/svg">
<path d="M20.0883 8.465C21.7067 6.95 23.995 4.53167 24.9117 2.225C25.3367 1.15667 24.4833 0 23.3333 0H13.3333C12.1833 0 11.33 1.155 11.755 2.225C12.6717 4.53167 14.96 6.95 16.5783 8.465C7.615 9.79667 0 21.03 0 30C0 35.515 4.485 40 10 40H26.6667C32.1817 40 36.6667 35.515 36.6667 30C36.6667 21.03 29.0517 9.79667 20.0883 8.465ZM16.0733 22.935L21.1433 23.78C23.3783 24.1517 25.0017 26.0683 25.0017 28.335C25.0017 31.0917 22.7583 33.335 20.0017 33.335V35.0017C20.0017 35.9217 19.255 36.6683 18.335 36.6683C17.415 36.6683 16.6683 35.9217 16.6683 35.0017V33.335H16.2217C14.4417 33.335 12.7833 32.3783 11.8917 30.8367C11.4317 30.04 11.7033 29.0217 12.5 28.56C13.2933 28.0983 14.315 28.37 14.7767 29.1683C15.0733 29.6817 15.6283 30.0017 16.2217 30.0017H20.0017C20.92 30.0017 21.6683 29.2533 21.6683 28.335C21.6683 27.705 21.2167 27.1717 20.595 27.0683L15.525 26.2233C13.29 25.8517 11.6667 23.935 11.6667 21.6683C11.6667 18.9117 13.91 16.6683 16.6667 16.6683V15.0017C16.6667 14.0817 17.4133 13.335 18.3333 13.335C19.2533 13.335 20 14.0817 20 15.0017V16.6683H20.4467C22.225 16.6683 23.885 17.6267 24.7767 19.1683C25.2367 19.965 24.965 20.9833 24.1683 21.445C23.3733 21.9067 22.3533 21.635 21.8917 20.8367C21.5933 20.3217 21.04 20.0033 20.4467 20.0033H16.6667C15.7483 20.0033 15 20.7517 15 21.67C15 22.3 15.4517 22.8333 16.0733 22.9367V22.935Z" fill="#00AA72"/>
</svg>
