<svg width="40" height="40" viewBox="0 0 40 40" fill="none" xmlns="http://www.w3.org/2000/svg">
<g clip-path="url(#clip0_9078_6852)">
<path d="M2.50016 6.45964C2.50016 4.61797 3.99183 3.1263 5.83349 3.1263C7.67516 3.1263 9.16683 4.61797 9.16683 6.45964C9.16683 8.3013 7.67516 9.79297 5.83349 9.79297C3.99183 9.79297 2.50016 8.3013 2.50016 6.45964ZM34.1668 9.79297C36.0085 9.79297 37.5002 8.3013 37.5002 6.45964C37.5002 4.61797 36.0085 3.1263 34.1668 3.1263C32.3252 3.1263 30.8335 4.61797 30.8335 6.45964C30.8335 8.3013 32.3252 9.79297 34.1668 9.79297ZM20.0002 6.45964C21.8418 6.45964 23.3335 4.96797 23.3335 3.1263C23.3335 1.28464 21.8418 -0.207031 20.0002 -0.207031C18.1585 -0.207031 16.6668 1.28464 16.6668 3.1263C16.6668 4.96797 18.1585 6.45964 20.0002 6.45964ZM33.0485 31.048L23.3335 27.228V18.303C23.3335 16.643 22.1985 15.103 20.5602 14.8363C18.4718 14.4963 16.6668 16.0996 16.6668 18.1246V34.4863C14.8735 33.0096 13.1485 31.5663 13.0918 31.513C11.5552 30.078 9.13683 30.158 7.70016 31.6946C6.26183 33.233 6.33516 35.648 7.86349 37.078L10.8985 39.7913H38.3352V38.803C38.3352 35.378 36.2368 32.3013 33.0485 31.048ZM20.0002 8.1263C17.1868 8.1263 14.8268 9.75797 14.1968 11.953C14.0252 12.553 14.6102 13.1263 15.3468 13.1263H24.6535C25.3902 13.1263 25.9752 12.553 25.8035 11.953C25.1735 9.75797 22.8135 8.1263 20.0002 8.1263ZM5.83349 11.4596C3.02016 11.4596 0.660159 13.0913 0.0301591 15.2863C-0.141508 15.8863 0.443492 16.4596 1.18016 16.4596H10.4868C11.2235 16.4596 11.8085 15.8863 11.6368 15.2863C11.0068 13.0913 8.64683 11.4596 5.83349 11.4596ZM34.1668 11.4596C31.3535 11.4596 28.9935 13.0913 28.3635 15.2863C28.1918 15.8863 28.7768 16.4596 29.5135 16.4596H38.8202C39.5568 16.4596 40.1418 15.8863 39.9702 15.2863C39.3402 13.0913 36.9802 11.4596 34.1668 11.4596Z" fill="#00AA72"/>
</g>
<defs>
<clipPath id="clip0_9078_6852">
<rect width="40" height="40" fill="white"/>
</clipPath>
</defs>
</svg>
