<svg width="40" height="40" viewBox="0 0 40 40" fill="none" xmlns="http://www.w3.org/2000/svg">
<g clip-path="url(#clip0_8899_3040)">
<path d="M39.9998 6.66667V30C39.9998 33.6817 37.0148 36.6667 33.3331 36.6667H29.9748C29.9748 36.6667 29.9748 36.6667 29.9731 36.6633C31.3665 32.4767 33.3331 25.1767 33.3281 17.2733L33.3331 14.1967C33.7731 14.4183 34.2331 14.5967 34.7048 14.7283C35.6865 15.0033 36.6665 14.2867 36.6665 13.2683C36.6665 12.4717 36.1898 11.7167 35.4315 11.475C34.8881 11.3017 34.3865 11.015 33.9515 10.6417C33.4531 10.215 32.8381 10.0017 32.2231 10.0017C31.6081 10.0017 30.9931 10.215 30.4948 10.6417C29.7431 11.285 28.8015 11.6683 27.7781 11.6683C26.7548 11.6683 25.8131 11.285 25.0615 10.6417C24.5631 10.215 23.9481 10.0017 23.3331 10.0017C22.7181 10.0017 22.1031 10.215 21.6048 10.6417C20.8531 11.285 19.9115 11.6683 18.8881 11.6683C17.8648 11.6683 16.9231 11.285 16.1715 10.6417C15.6731 10.215 15.0581 10.0017 14.4431 10.0017C13.8281 10.0017 13.2131 10.215 12.7148 10.6417L12.6915 10.6617C11.6298 11.56 9.99813 10.775 9.99813 9.38333V6.66833C9.9998 2.99 12.9898 0 16.6665 0H33.3331C37.0148 0 39.9998 2.985 39.9998 6.66667ZM29.9981 17.43C29.9981 24.3367 28.3681 30.8133 27.0015 35.0417C26.0431 38.0067 23.2965 40 20.1681 40H5.53647C3.66813 40 1.85647 39.03 0.808133 37.4667C-0.1602 36.0267 -0.3502 34.3083 0.2848 32.7583C1.65647 29.405 4.21147 23.1633 4.2948 17.475C4.30147 16.9933 4.51647 16.54 4.88313 16.2283C5.6898 15.5583 6.91647 15.0117 7.9048 14.9967C8.9398 14.98 9.97813 15.3233 10.8215 16.0233C11.8348 16.8633 13.2881 16.8633 14.2998 16.0233C15.9498 14.655 18.3465 14.655 19.9965 16.0233C21.0081 16.8633 22.4615 16.8633 23.4748 16.0233C24.3265 15.3167 25.3765 14.975 26.4198 14.9983C27.3998 15.02 28.5148 15.4717 29.3148 16.135C29.7248 16.435 29.9748 16.9033 29.9965 17.4117V17.4317L29.9981 17.43ZM17.4631 21.8683C16.8465 21.5333 16.0798 21.62 15.5531 22.0933L13.0531 24.3367C12.3681 24.95 12.3115 26.005 12.9265 26.69C13.3231 27.1333 13.9015 27.3133 14.4531 27.2183C14.1698 29.2633 13.8148 31.4983 13.3781 32.8067C13.0865 33.68 13.5581 34.625 14.4315 34.915C14.6065 34.9733 14.7848 35.0017 14.9581 35.0017C15.6565 35.0017 16.3065 34.56 16.5398 33.8617C17.2048 31.865 18.2131 24.2267 18.3131 23.595C18.4231 22.8983 18.0831 22.205 17.4631 21.8683Z" fill="#00AA72"/>
</g>
<defs>
<clipPath id="clip0_8899_3040">
<rect width="40" height="40" fill="white"/>
</clipPath>
</defs>
</svg>
