<svg width="40" height="40" viewBox="0 0 40 40" fill="none" xmlns="http://www.w3.org/2000/svg">
<g clip-path="url(#clip0_8899_2957)">
<path d="M40 31.6667C40 34.4233 37.7567 36.6667 35 36.6667V38.3333C35 39.2533 34.255 40 33.3333 40C32.4117 40 31.6667 39.2533 31.6667 38.3333V36.6667H31.22C29.4417 36.6667 27.7817 35.71 26.89 34.1683C26.4283 33.3717 26.7017 32.3533 27.4967 31.8917C28.2967 31.43 29.315 31.7033 29.7733 32.5C30.0717 33.0133 30.625 33.3333 31.2183 33.3333H34.9983C35.9183 33.3333 36.665 32.585 36.665 31.6667C36.665 31.0367 36.2133 30.5033 35.5917 30.4L30.5233 29.555C28.2867 29.1833 26.665 27.2667 26.665 25C26.665 22.2433 28.9083 20 31.665 20V18.3333C31.665 17.4133 32.41 16.6667 33.3317 16.6667C34.2533 16.6667 34.9983 17.4133 34.9983 18.3333V20H35.445C37.2233 20 38.8833 20.9583 39.775 22.5C40.2367 23.2967 39.9633 24.315 39.1683 24.7767C38.3667 25.2367 37.35 24.9633 36.8917 24.1683C36.5933 23.6533 36.04 23.335 35.4467 23.335H31.6667C30.7467 23.335 30 24.0833 30 25.0017C30 25.6317 30.4517 26.165 31.0733 26.2683L36.1417 27.1133C38.3783 27.485 40 29.4 40 31.6667ZM21.6667 13.3333H32.5667C31.9883 11.8117 31.1 10.4117 29.915 9.22667L24.1083 3.41667C22.9217 2.23167 21.5217 1.34333 20 0.766667V11.6667C20 12.585 20.7467 13.3333 21.6667 13.3333ZM28.115 39.395C27.1517 39.785 26.1017 40 25 40H8.33333C3.73833 40 0 36.2617 0 31.6667V8.33333C0 3.73833 3.73833 0 8.33333 0H15.8583C16.13 0 16.3983 0.0216667 16.6667 0.04V11.6667C16.6667 14.4233 18.91 16.6667 21.6667 16.6667H28.62C28.545 16.8783 28.4833 17.095 28.4367 17.3183C26.3867 18.1833 24.7517 19.8483 23.9233 21.9183C23.4783 21.7567 22.9983 21.6667 22.4983 21.6667H10.8333C8.53667 21.6667 6.66667 23.5367 6.66667 25.8333V29.1667C6.66667 31.4633 8.53667 33.3333 10.8333 33.3333H22.5C22.785 33.3333 23.0633 33.305 23.3317 33.25C23.315 34.15 23.5433 35.04 24.005 35.8367C24.9483 37.47 26.4117 38.71 28.115 39.3967V39.395ZM6.66667 10C6.66667 10.92 7.41333 11.6667 8.33333 11.6667H11.6667C12.5867 11.6667 13.3333 10.92 13.3333 10C13.3333 9.08 12.5867 8.33333 11.6667 8.33333H8.33333C7.41333 8.33333 6.66667 9.08 6.66667 10ZM6.66667 16.6667C6.66667 17.5867 7.41333 18.3333 8.33333 18.3333H11.6667C12.5867 18.3333 13.3333 17.5867 13.3333 16.6667C13.3333 15.7467 12.5867 15 11.6667 15H8.33333C7.41333 15 6.66667 15.7467 6.66667 16.6667ZM10.8333 25C10.3733 25 10 25.3733 10 25.8333V29.1667C10 29.6267 10.3733 30 10.8333 30H22.5C22.96 30 23.3333 29.6267 23.3333 29.1667V25.8333C23.3333 25.3733 22.96 25 22.5 25H10.8333Z" fill="#00AA72"/>
</g>
<defs>
<clipPath id="clip0_8899_2957">
<rect width="40" height="40" fill="white"/>
</clipPath>
</defs>
</svg>
