<svg width="40" height="40" viewBox="0 0 40 40" fill="none" xmlns="http://www.w3.org/2000/svg">
<g clip-path="url(#clip0_8899_2842)">
<path d="M31.6582 30C29.3615 30 27.4949 28.1317 27.4949 25.8333C27.4949 23.535 29.3632 21.6667 31.6582 21.6667C33.9532 21.6667 35.8215 23.535 35.8215 25.8333C35.8215 28.1317 33.9532 30 31.6582 30ZM38.3199 40H24.9949C24.4799 40 23.9949 39.7617 23.6782 39.355C23.3632 38.9467 23.2515 38.4167 23.3799 37.9183C24.3132 34.2967 27.7932 31.6683 31.6565 31.6683C35.5199 31.6683 38.9982 34.2967 39.9332 37.9183C40.0615 38.4167 39.9515 38.9483 39.6349 39.355C39.3199 39.7617 38.8349 40 38.3182 40H38.3199ZM20.1549 37.085C20.9199 34.1133 22.9149 31.6467 25.4982 30.0917C24.6582 28.88 24.1599 27.415 24.1599 25.8333C24.1599 23.625 25.1365 21.6567 26.6599 20.2833V8.32833C26.6599 3.72833 22.9315 0 18.3315 0H8.33818C3.74152 0 0.0131836 3.72833 0.0131836 8.32833V31.6667C0.0131836 36.2683 3.74485 40 8.34652 40H18.3299C18.9899 40 19.6249 39.9033 20.2415 39.7583C19.9832 38.8933 19.9265 37.9717 20.1549 37.085ZM10.0049 31.6667H8.33985C7.41985 31.6667 6.67485 30.92 6.67485 30C6.67485 29.08 7.41985 28.3333 8.33985 28.3333H10.0049C10.9249 28.3333 11.6699 29.08 11.6699 30C11.6699 30.92 10.9249 31.6667 10.0049 31.6667ZM10.0049 25H8.33985C7.41985 25 6.67485 24.2533 6.67485 23.3333C6.67485 22.4133 7.41985 21.6667 8.33985 21.6667H10.0049C10.9249 21.6667 11.6699 22.4133 11.6699 23.3333C11.6699 24.2533 10.9249 25 10.0049 25ZM13.3365 16.6667C12.4165 16.6667 11.6715 15.92 11.6715 15V13.3333H10.0065C9.08652 13.3333 8.34152 12.5867 8.34152 11.6667C8.34152 10.7467 9.08652 10 10.0065 10H11.6715V8.33333C11.6715 7.41333 12.4165 6.66667 13.3365 6.66667C14.2565 6.66667 15.0015 7.41333 15.0015 8.33333V10H16.6665C17.5865 10 18.3315 10.7467 18.3315 11.6667C18.3315 12.5867 17.5865 13.3333 16.6665 13.3333H15.0015V15C15.0015 15.92 14.2565 16.6667 13.3365 16.6667ZM18.3332 31.6667H16.6682C15.7482 31.6667 15.0032 30.92 15.0032 30C15.0032 29.08 15.7482 28.3333 16.6682 28.3333H18.3332C19.2532 28.3333 19.9982 29.08 19.9982 30C19.9982 30.92 19.2532 31.6667 18.3332 31.6667ZM18.3332 25H16.6682C15.7482 25 15.0032 24.2533 15.0032 23.3333C15.0032 22.4133 15.7482 21.6667 16.6682 21.6667H18.3332C19.2532 21.6667 19.9982 22.4133 19.9982 23.3333C19.9982 24.2533 19.2532 25 18.3332 25Z" fill="#00AA72"/>
</g>
<defs>
<clipPath id="clip0_8899_2842">
<rect width="40" height="40" fill="white"/>
</clipPath>
</defs>
</svg>
