<svg width="40" height="37" viewBox="0 0 40 37" fill="none" xmlns="http://www.w3.org/2000/svg">
<path d="M31.6667 0H8.33333C3.73833 0 0 3.73833 0 8.33333V28.3333C0 32.9283 3.73833 36.6667 8.33333 36.6667H31.6667C36.2617 36.6667 40 32.9283 40 28.3333V8.33333C40 3.73833 36.2617 0 31.6667 0ZM10.8333 29.1667C9.45333 29.1667 8.33333 28.0467 8.33333 26.6667C8.33333 25.2867 9.45333 24.1667 10.8333 24.1667C12.2133 24.1667 13.3333 25.2867 13.3333 26.6667C13.3333 28.0467 12.2133 29.1667 10.8333 29.1667ZM10.8333 20.8333C9.45333 20.8333 8.33333 19.7133 8.33333 18.3333C8.33333 16.9533 9.45333 15.8333 10.8333 15.8333C12.2133 15.8333 13.3333 16.9533 13.3333 18.3333C13.3333 19.7133 12.2133 20.8333 10.8333 20.8333ZM10.8333 12.5C9.45333 12.5 8.33333 11.38 8.33333 10C8.33333 8.62 9.45333 7.5 10.8333 7.5C12.2133 7.5 13.3333 8.62 13.3333 10C13.3333 11.38 12.2133 12.5 10.8333 12.5ZM30 28.3333H18.3333C17.4133 28.3333 16.6667 27.5867 16.6667 26.6667C16.6667 25.7467 17.4133 25 18.3333 25H30C30.92 25 31.6667 25.7467 31.6667 26.6667C31.6667 27.5867 30.92 28.3333 30 28.3333ZM30 20H18.3333C17.4133 20 16.6667 19.2533 16.6667 18.3333C16.6667 17.4133 17.4133 16.6667 18.3333 16.6667H30C30.92 16.6667 31.6667 17.4133 31.6667 18.3333C31.6667 19.2533 30.92 20 30 20ZM30 11.6667H18.3333C17.4133 11.6667 16.6667 10.92 16.6667 10C16.6667 9.08 17.4133 8.33333 18.3333 8.33333H30C30.92 8.33333 31.6667 9.08 31.6667 10C31.6667 10.92 30.92 11.6667 30 11.6667Z" fill="#00AA72"/>
</svg>
