<svg width="40" height="40" viewBox="0 0 40 40" fill="none" xmlns="http://www.w3.org/2000/svg">
<g clip-path="url(#clip0_8899_2839)">
<path d="M40 5V8.33333C40 11.095 37.7617 13.3333 35 13.3333H33.3333V15C33.3333 17.7617 31.095 20 28.3333 20H21.6667V25.6583L23.825 23.5017C24.4767 22.85 25.53 22.85 26.1817 23.5017C26.8333 24.1533 26.8333 25.2067 26.1817 25.8583L22.0567 29.985C21.49 30.5517 20.7467 30.835 20.0033 30.835C19.26 30.835 18.5167 30.5517 17.9517 29.985L13.825 25.8583C13.1733 25.2067 13.1733 24.1533 13.825 23.5017C14.4767 22.85 15.53 22.85 16.1817 23.5017L18.335 25.655V19.9983H11.6667C8.905 19.9983 6.66667 17.76 6.66667 14.9983V13.3317H5C2.23833 13.3317 0 11.0933 0 8.33167V5C0 2.23833 2.23833 0 5 0H11.6667C14.4283 0 16.6667 2.23833 16.6667 5V8.33333C16.6667 11.095 14.4283 13.3333 11.6667 13.3333H10V15C10 15.92 10.7467 16.6667 11.6667 16.6667H28.3333C29.2533 16.6667 30 15.92 30 15V13.3333H28.3333C25.5717 13.3333 23.3333 11.095 23.3333 8.33333V5C23.3333 2.23833 25.5717 0 28.3333 0H35C37.7617 0 40 2.23833 40 5ZM35 25H29.97C29.895 26.1717 29.4317 27.3233 28.5383 28.2167L24.5717 32.185C23.6383 33.1183 22.4683 33.83 21.1683 34.0633C19.0783 34.4383 17.0417 33.7917 15.5933 32.3417L11.4667 28.215C10.5733 27.3217 10.11 26.17 10.035 24.9983H5C2.23833 24.9983 0 27.2367 0 29.9983V34.9983C0 37.76 2.23833 39.9983 5 39.9983H35C37.7617 39.9983 40 37.76 40 34.9983V29.9983C40 27.2367 37.7617 24.9983 35 24.9983V25Z" fill="#00AA72"/>
</g>
<defs>
<clipPath id="clip0_8899_2839">
<rect width="40" height="40" fill="white"/>
</clipPath>
</defs>
</svg>
