<svg width="40" height="40" viewBox="0 0 40 40" fill="none" xmlns="http://www.w3.org/2000/svg">
<g clip-path="url(#clip0_8899_2831)">
<path d="M0 30.0003V8.33366C0 4.65699 2.99 1.66699 6.66667 1.66699H10C10.7733 1.66699 11.5467 1.84866 12.2367 2.19366L17.495 4.82366C17.725 4.93866 17.9833 4.99866 18.24 4.99866H26.6667C31.2617 4.99866 35 8.73699 35 13.332H16.7067C12.31 13.332 8.36833 16.2753 7.11667 20.5037L2.66167 36.0687C1.03333 34.547 0 32.3987 0 30.0003ZM39.155 18.362C38.3567 17.2903 37.14 16.6753 35.8083 16.6537C35.7833 16.6537 35.7633 16.667 35.7383 16.667H16.7067C13.7767 16.667 11.1483 18.6287 10.3167 21.437L5.62 37.842C6.475 38.1387 7.37833 38.3337 8.33333 38.3337H29.2633C32.9733 38.3337 36.18 35.947 37.2667 32.322L39.82 22.1287C40.21 20.8253 39.9667 19.4537 39.155 18.362Z" fill="#00AA72"/>
</g>
<defs>
<clipPath id="clip0_8899_2831">
<rect width="40" height="40" fill="white"/>
</clipPath>
</defs>
</svg>
