<svg width="40" height="40" viewBox="0 0 40 40" fill="none" xmlns="http://www.w3.org/2000/svg">
<g clip-path="url(#clip0_8933_8138)">
<path d="M20.5 16.9632C20.6729 17.3508 20.8751 17.7247 21.105 18.0815L39.2084 14.4798C38.4705 11.8869 37.2143 9.47049 35.516 7.37683C33.8176 5.28317 31.7122 3.55571 29.3271 2.29892C26.9421 1.04214 24.3269 0.282127 21.6398 0.0648543C18.9526 -0.152419 16.2493 0.177559 13.6934 1.03483L20.5 16.9632Z" fill="#00AA72"/>
<path d="M21.0521 22.9037C19.4735 21.6959 18.2292 20.1051 17.4371 18.2821L10.6288 2.34375C8.04638 3.70791 5.79435 5.62149 4.03121 7.94981C2.26807 10.2781 1.03666 12.9646 0.423672 15.8201C-0.18932 18.6756 -0.169002 21.6308 0.483198 24.4776C1.1354 27.3244 2.40363 29.9937 4.19862 32.2976C5.99361 34.6014 8.27174 36.4838 10.8727 37.8124C13.4736 39.1409 16.3341 39.8832 19.2528 39.9871C22.1715 40.0909 25.0775 39.5538 27.7663 38.4135C30.4551 37.2733 32.8612 35.5575 34.8155 33.3871L21.0521 22.9037Z" fill="#00AA72"/>
<path d="M23.9414 20.9147L36.8431 30.748C38.9049 27.5424 40.0007 23.8112 39.9997 19.9997C39.9969 19.2472 39.9519 18.4955 39.8647 17.748L23.9414 20.9147Z" fill="#00AA72"/>
</g>
<defs>
<clipPath id="clip0_8933_8138">
<rect width="40" height="40" fill="white"/>
</clipPath>
</defs>
</svg>
