<svg width="40" height="40" viewBox="0 0 40 40" fill="none" xmlns="http://www.w3.org/2000/svg">
<path d="M35 13.3333H5C2.23833 13.3333 0 11.095 0 8.33333V6.66667C0 2.985 2.985 0 6.66667 0H33.3333C37.015 0 40 2.985 40 6.66667V8.33333C40 11.095 37.7617 13.3333 35 13.3333ZM30 20C24.4767 20 20 24.4767 20 30C20 35.5233 24.4767 40 30 40C35.5233 40 40 35.5233 40 30C40 24.4767 35.5233 20 30 20ZM30.9767 33.4767L28.8217 31.3217C28.5083 31.0083 28.3333 30.585 28.3333 30.1433V26.81C28.3333 25.89 29.08 25.1433 30 25.1433C30.92 25.1433 31.6667 25.89 31.6667 26.81V29.4533L33.3333 31.12C33.9833 31.77 33.9833 32.8267 33.3333 33.4767C32.6833 34.1267 31.6267 34.1267 30.9767 33.4767ZM1.66667 15.96V31.6667C1.66667 36.2617 5.405 40 10 40H21.2017C18.4267 37.5567 16.6667 33.9883 16.6667 30C16.6667 22.6367 22.6367 16.6667 30 16.6667H5C3.81333 16.6667 2.69 16.41 1.66667 15.96Z" fill="#00AA72"/>
</svg>
