<svg width="107" height="107" viewBox="0 0 107 107" fill="none" xmlns="http://www.w3.org/2000/svg">
<rect width="107" height="107" rx="53.5" fill="white"/>
<g clip-path="url(#clip0_10257_8697)">
<path d="M47.4747 51.2462C54.3294 51.2462 59.9039 45.6717 59.9039 38.8169C59.9039 31.9622 54.3294 26.3877 47.4747 26.3877C40.6199 26.3877 35.0454 31.9622 35.0454 38.8169C35.0454 45.6717 40.6199 51.2462 47.4747 51.2462ZM77.918 66.0245L75.9003 64.8603C76.2442 63.8308 76.4762 62.7494 76.4762 61.6039C76.4762 60.4583 76.2463 59.377 75.9003 58.3474L77.918 57.1832C78.9082 56.6115 79.2479 55.3437 78.6762 54.3535C78.1024 53.3612 76.8367 53.0215 75.8465 53.5953L73.8308 54.7595C72.3704 53.1147 70.4252 51.9111 68.19 51.4575V49.1767C68.19 48.0332 67.262 47.1052 66.1185 47.1052C64.975 47.1052 64.047 48.0332 64.047 49.1767V51.4575C61.8118 51.9132 59.8666 53.1168 58.4062 54.7595L56.3906 53.5953C55.3942 53.0215 54.1326 53.3612 53.5608 54.3535C52.9891 55.3457 53.3288 56.6115 54.319 57.1832L56.3367 58.3474C55.9928 59.377 55.7608 60.4583 55.7608 61.6039C55.7608 62.7494 55.9908 63.8308 56.3367 64.8603L54.319 66.0245C53.3288 66.5963 52.9891 67.8641 53.5608 68.8542C53.9461 69.5192 54.6401 69.89 55.3569 69.89C55.707 69.89 56.0633 69.8009 56.3906 69.6124L58.4062 68.4482C59.8666 70.093 61.8118 71.2966 64.047 71.7503V74.031C64.047 75.1745 64.975 76.1026 66.1185 76.1026C67.262 76.1026 68.19 75.1745 68.19 74.031V71.7503C70.4252 71.2945 72.3704 70.091 73.8308 68.4482L75.8465 69.6124C76.1738 69.8009 76.5301 69.89 76.8802 69.89C77.5969 69.89 78.2929 69.5192 78.6762 68.8542C79.2479 67.862 78.9082 66.5963 77.918 66.0245ZM66.1185 64.7112C64.4053 64.7112 63.0112 63.317 63.0112 61.6039C63.0112 59.8907 64.4053 58.4966 66.1185 58.4966C67.8317 58.4966 69.2258 59.8907 69.2258 61.6039C69.2258 63.317 67.8317 64.7112 66.1185 64.7112ZM48.5104 61.6039C48.5104 60.4666 48.6244 59.3127 48.8522 58.1692C48.989 57.4794 48.7652 56.7689 48.2618 56.28C47.7585 55.7911 47.0417 55.5923 46.356 55.7476C37.5458 57.7694 30.9023 65.6309 30.9023 74.0331C30.9023 75.1766 31.8304 76.1046 32.9739 76.1046H50.8658C51.6654 76.1046 52.3946 75.6448 52.7364 74.9218C53.0802 74.1988 52.9767 73.3433 52.4712 72.7239C49.917 69.5938 48.5104 65.6454 48.5104 61.6039Z" fill="#9E8A17"/>
</g>
<defs>
<clipPath id="clip0_10257_8697">
<rect width="49.7169" height="49.7169" fill="white" transform="translate(30.9023 26.3877)"/>
</clipPath>
</defs>
</svg>
