<svg width="40" height="40" viewBox="0 0 40 40" fill="none" xmlns="http://www.w3.org/2000/svg">
<g clip-path="url(#clip0_8933_8136)">
<path d="M11.6667 4.76046e-06H6.66667C2.98333 4.76046e-06 0 2.98334 0 6.66667V11.6667C0 15.35 2.98333 18.3333 6.66667 18.3333H11.6667C15.35 18.3333 18.3333 15.35 18.3333 11.6667V6.66667C18.3333 2.98334 15.35 4.76046e-06 11.6667 4.76046e-06ZM33.3333 21.6667H28.3333C24.65 21.6667 21.6667 24.65 21.6667 28.3333V33.3333C21.6667 37.0167 24.65 40 28.3333 40H33.3333C37.0167 40 40 37.0167 40 33.3333V28.3333C40 24.65 37.0167 21.6667 33.3333 21.6667ZM21.6667 8.33334C21.6667 6.56667 22.4 4.91667 23.75 3.70001L27.2 0.450005C27.8667 -0.183329 28.9167 -0.149995 29.55 0.516671C30.1833 1.18334 30.15 2.25001 29.4833 2.86667L26.0167 6.11667C25.8333 6.28334 25.6833 6.46667 25.55 6.65H31.6667C35.35 6.65 38.3333 9.63334 38.3333 13.3167V16.65C38.3333 17.5667 37.5833 18.3167 36.6667 18.3167C35.75 18.3167 35 17.5667 35 16.65V13.3167C35 11.4833 33.5 9.98334 31.6667 9.98334H25.55C25.6833 10.1667 25.8333 10.3333 26 10.5L29.4833 13.7667C30.15 14.4 30.1833 15.45 29.55 16.1167C29.2167 16.4667 28.7833 16.6333 28.3333 16.6333C27.9167 16.6333 27.5167 16.4833 27.1833 16.1833L23.7167 12.9333C22.4 11.7167 21.65 10.0667 21.65 8.31667L21.6667 8.33334ZM18.3333 31.6667C18.3333 33.4333 17.6 35.0667 16.25 36.3L12.8 39.55C12.4833 39.85 12.0667 40 11.65 40C11.2 40 10.7667 39.8167 10.4333 39.4833C9.8 38.8167 9.83333 37.75 10.5 37.1333L13.9667 33.8833C14.15 33.7167 14.3 33.5333 14.4333 33.35H8.31667C4.63333 33.35 1.65 30.3667 1.65 26.6833V23.35C1.65 22.4333 2.4 21.6833 3.31667 21.6833C4.23333 21.6833 4.98333 22.4333 4.98333 23.35V26.6833C4.98333 28.5167 6.48333 30.0167 8.31667 30.0167H14.4333C14.3 29.8333 14.15 29.6667 13.9833 29.5L10.5 26.2333C9.83333 25.6 9.8 24.55 10.4333 23.8833C11.0667 23.2167 12.1167 23.1833 12.7833 23.8167L16.25 27.0667C17.5667 28.2833 18.3167 29.9333 18.3167 31.6833L18.3333 31.6667Z" fill="#00AA72"/>
</g>
<defs>
<clipPath id="clip0_8933_8136">
<rect width="40" height="40" fill="white"/>
</clipPath>
</defs>
</svg>
