<svg width="40" height="40" viewBox="0 0 40 40" fill="none" xmlns="http://www.w3.org/2000/svg">
<g clip-path="url(#clip0_9078_6847)">
<path d="M17.8334 4.06867C16.4697 1.23503 13.0137 0.018329 10.1142 1.35101C8.89172 1.91294 7.90828 2.87403 7.33336 4.06867H2.5C1.1193 4.06867 0 5.16253 0 6.51185C0 7.86117 1.1193 8.95503 2.5 8.95503H7.325C8.68867 11.7887 12.1447 13.0054 15.0441 11.6727C16.2666 11.1108 17.25 10.1497 17.825 8.95503H37.5C38.8807 8.95503 40 7.86117 40 6.51185C40 5.16253 38.8807 4.06867 37.5 4.06867H17.8334Z" fill="#00AA72"/>
<path d="M27.425 13.6377C25.1777 13.6416 23.1335 14.9096 22.1734 16.8953H2.5C1.1193 16.8953 0 17.9892 0 19.3385C0 20.6878 1.1193 21.7817 2.5 21.7817H22.1666C23.5303 24.6153 26.9863 25.832 29.8858 24.4993C31.1082 23.9375 32.0916 22.9763 32.6666 21.7817H37.5C38.8807 21.7817 40 20.6878 40 19.3385C40 17.9892 38.8807 16.8953 37.5 16.8953H32.675C31.7151 14.9101 29.6717 13.6423 27.425 13.6377Z" fill="#00AA72"/>
<path d="M12.575 26.4648C10.3283 26.4693 8.28492 27.7373 7.325 29.7224H2.5C1.1193 29.7224 0 30.8163 0 32.1656C0 33.5149 1.1193 34.6088 2.5 34.6088H7.325C8.68867 37.4424 12.1447 38.6591 15.0441 37.3265C16.2666 36.7646 17.25 35.8034 17.825 34.6088H37.5C38.8807 34.6088 40 33.5149 40 32.1656C40 30.8163 38.8807 29.7224 37.5 29.7224H17.8334C16.8721 27.7347 14.8247 26.4663 12.575 26.4648Z" fill="#00AA72"/>
</g>
<defs>
<clipPath id="clip0_9078_6847">
<rect width="40" height="39.0909" fill="white"/>
</clipPath>
</defs>
</svg>
