<svg width="40" height="40" viewBox="0 0 40 40" fill="none" xmlns="http://www.w3.org/2000/svg">
<g clip-path="url(#clip0_8899_3042)">
<path d="M30 31.6667V39.5C31.1763 39.0967 32.2467 38.4336 33.1317 37.56L37.5583 33.13C38.433 32.2462 39.0967 31.1762 39.5 30H31.6667C31.2246 30 30.8007 30.1756 30.4882 30.4882C30.1756 30.8007 30 31.2246 30 31.6667Z" fill="#00AA72"/>
<path d="M11.9533 23.0464C11.334 23.6655 10.8428 24.4006 10.5076 25.2096C10.1725 26.0186 9.99997 26.8857 10 27.7614V29.9997H12.2383C13.114 29.9998 13.9811 29.8273 14.7902 29.4921C15.5992 29.157 16.3342 28.6657 16.9533 28.0464L35.8333 9.16639C36.4964 8.50335 36.8689 7.60407 36.8689 6.66639C36.8689 5.72871 36.4964 4.82943 35.8333 4.16639C35.1703 3.50335 34.271 3.13086 33.3333 3.13086C32.3957 3.13086 31.4964 3.50335 30.8333 4.16639L11.9533 23.0464Z" fill="#00AA72"/>
<path d="M40 8.25333C39.7162 9.48967 39.0928 10.6222 38.2 11.5233L19.31 30.405C18.3834 31.3364 17.2813 32.0749 16.0675 32.5775C14.8536 33.0802 13.5521 33.3371 12.2383 33.3333H10C9.11594 33.3333 8.2681 32.9821 7.64298 32.357C7.01786 31.7319 6.66667 30.8841 6.66667 30V27.7617C6.66302 26.448 6.92012 25.1466 7.42307 23.933C7.92602 22.7194 8.66483 21.6177 9.59667 20.6917L28.4767 1.81C29.3711 0.915898 30.4972 0.289065 31.7283 0C31.7067 0 31.6883 0 31.6667 0H8.33333C6.12401 0.00264643 4.00593 0.88147 2.4437 2.4437C0.88147 4.00593 0.00264643 6.12401 0 8.33333L0 31.6667C0.00264643 33.876 0.88147 35.9941 2.4437 37.5563C4.00593 39.1185 6.12401 39.9974 8.33333 40H26.6667V31.6667C26.6667 30.3406 27.1934 29.0688 28.1311 28.1311C29.0688 27.1934 30.3406 26.6667 31.6667 26.6667H40V8.33333C40 8.30667 40 8.28167 40 8.25333Z" fill="#00AA72"/>
</g>
<defs>
<clipPath id="clip0_8899_3042">
<rect width="40" height="40" fill="white"/>
</clipPath>
</defs>
</svg>
