<svg width="40" height="40" viewBox="0 0 40 40" fill="none" xmlns="http://www.w3.org/2000/svg">
<path d="M33.3332 6.75425C29.4314 3.31101 24.3413 1.5241 19.1434 1.77289C13.9456 2.02169 9.04934 4.2866 5.49429 8.08676C1.93925 11.8869 0.00533359 16.9231 0.103147 22.126C0.20096 27.3288 2.3228 32.2887 6.01817 35.9526C7.57909 37.4839 9.67989 38.3394 11.8665 38.3343H28.1448C30.2146 38.3624 32.2159 37.5938 33.7348 36.1876C35.7331 34.2799 37.3163 31.9806 38.3857 29.4334C39.4551 26.8862 39.9875 24.1457 39.9498 21.3834C39.9122 18.621 39.3051 15.8961 38.1666 13.379C37.0281 10.8619 35.3827 8.60666 33.3332 6.75425ZM32.3648 26.9826C32.19 27.3882 31.8614 27.7078 31.451 27.8712C31.0407 28.0347 30.5823 28.0286 30.1765 27.8543L21.9815 24.3343C21.3942 24.7741 20.6781 25.0078 19.9444 24.9992C19.2107 24.9906 18.5003 24.7401 17.9235 24.2866C17.3466 23.8332 16.9355 23.202 16.7539 22.4911C16.5723 21.7802 16.6303 21.0292 16.919 20.3546C17.2077 19.68 17.7109 19.1196 18.3506 18.7601C18.9903 18.4006 19.7307 18.2623 20.457 18.3665C21.1833 18.4707 21.8549 18.8117 22.3677 19.3365C22.8805 19.8614 23.2058 20.5407 23.2932 21.2693L31.4848 24.7926C31.6859 24.8791 31.8679 25.0045 32.0205 25.1614C32.1731 25.3183 32.2933 25.5037 32.3743 25.7071C32.4552 25.9104 32.4953 26.1277 32.4922 26.3466C32.4892 26.5654 32.4431 26.7816 32.3565 26.9826H32.3648ZM33.4365 21.6676C32.998 21.7223 32.5558 21.6006 32.207 21.3293C31.8582 21.058 31.6314 20.6594 31.5765 20.2209C31.2609 17.6446 30.0867 15.2497 28.2432 13.4226C26.0551 11.2345 23.0875 10.0053 19.9932 10.0053C16.8988 10.0053 13.9312 11.2345 11.7432 13.4226C9.55513 15.6106 8.3259 18.5782 8.3259 21.6726C8.3259 24.7669 9.55513 27.7345 11.7432 29.9226C11.9098 30.0976 12.0965 30.2559 12.2782 30.4226C12.6097 30.7152 12.8114 31.1275 12.8389 31.5689C12.8664 32.0102 12.7175 32.4444 12.4248 32.7759C12.1322 33.1074 11.7199 33.3091 11.2785 33.3366C10.8372 33.3641 10.403 33.2152 10.0715 32.9226C9.8365 32.7159 9.60983 32.5009 9.3865 32.2776C6.57299 29.4636 4.99256 25.6473 4.99287 21.6681C4.99318 17.6889 6.57422 13.8728 9.38817 11.0593C12.2021 8.24575 16.0185 6.66531 19.9977 6.66562C23.9769 6.66594 27.793 8.24697 30.6065 11.0609C32.973 13.4122 34.4799 16.4912 34.8848 19.8026C34.9126 20.0202 34.8971 20.2412 34.8393 20.4528C34.7815 20.6644 34.6825 20.8626 34.5479 21.0358C34.4134 21.2091 34.2459 21.3541 34.0552 21.4625C33.8645 21.5709 33.6542 21.6406 33.4365 21.6676Z" fill="#00AA72"/>
</svg>
