<svg width="40" height="40" viewBox="0 0 40 40" fill="none" xmlns="http://www.w3.org/2000/svg">
<path d="M10.8333 36.6667V40H0V36.6667C0 34.825 1.49167 33.3333 3.33333 33.3333H7.5C9.34167 33.3333 10.8333 34.825 10.8333 36.6667ZM36.6667 33.3333H32.5C30.6583 33.3333 29.1667 34.825 29.1667 36.6667V40H40V36.6667C40 34.825 38.5083 33.3333 36.6667 33.3333ZM22.5 33.3333H17.5C15.6583 33.3333 14.1667 34.825 14.1667 36.6667V40H25.8333V36.6667C25.8333 34.825 24.3417 33.3333 22.5 33.3333ZM34.615 31.6667C36.9167 31.6667 38.7817 29.8017 38.7817 27.5C38.7817 25.1983 36.9167 23.3333 34.615 23.3333C32.3133 23.3333 30.4483 25.1983 30.4483 27.5C30.4483 29.8017 32.3133 31.6667 34.615 31.6667ZM20 31.6667C22.3017 31.6667 24.1667 29.8017 24.1667 27.5C24.1667 25.1983 22.3017 23.3333 20 23.3333C17.6983 23.3333 15.8333 25.1983 15.8333 27.5C15.8333 29.8017 17.6983 31.6667 20 31.6667ZM5.385 31.6667C7.68667 31.6667 9.55167 29.8017 9.55167 27.5C9.55167 25.1983 7.68667 23.3333 5.385 23.3333C3.08333 23.3333 1.21833 25.1983 1.21833 27.5C1.21833 29.8017 3.08333 31.6667 5.385 31.6667ZM5.385 20C8.95667 20 11.9417 22.5133 12.6933 25.8617C13.445 22.5133 16.43 20 20.0017 20C23.5733 20 26.5583 22.5133 27.31 25.8617C28.0617 22.5133 31.0467 20 34.6183 20C36.7333 20 38.6383 20.8883 40.0033 22.3017V5C40.0033 2.24333 37.76 0 35.0033 0H5C2.24333 0 0 2.24333 0 5V22.3017C1.365 20.8883 3.27 20 5.385 20Z" fill="#00AA72"/>
</svg>
