<svg width="40" height="40" viewBox="0 0 40 40" fill="none" xmlns="http://www.w3.org/2000/svg">
<g clip-path="url(#clip0_9078_6842)">
<path d="M16.6667 38.1266C16.6667 38.5687 16.4911 38.9926 16.1785 39.3051C15.866 39.6177 15.442 39.7933 15 39.7933H1.66667C1.22464 39.7933 0.800716 39.6177 0.488155 39.3051C0.175595 38.9926 0 38.5687 0 38.1266C0 37.6846 0.175595 37.2607 0.488155 36.9481C0.800716 36.6356 1.22464 36.46 1.66667 36.46H15C15.442 36.46 15.866 36.6356 16.1785 36.9481C16.4911 37.2607 16.6667 37.6846 16.6667 38.1266Z" fill="#00AA72"/>
<path d="M1.66667 33.1263H11.6667C12.1087 33.1263 12.5326 32.9507 12.8452 32.6381C13.1577 32.3256 13.3333 31.9017 13.3333 31.4596C13.3333 31.0176 13.1577 30.5937 12.8452 30.2811C12.5326 29.9686 12.1087 29.793 11.6667 29.793H1.66667C1.22464 29.793 0.800716 29.9686 0.488155 30.2811C0.175595 30.5937 0 31.0176 0 31.4596C0 31.9017 0.175595 32.3256 0.488155 32.6381C0.800716 32.9507 1.22464 33.1263 1.66667 33.1263Z" fill="#00AA72"/>
<path d="M1.66667 26.4593H8.33333C8.77536 26.4593 9.19928 26.2837 9.51184 25.9712C9.8244 25.6586 10 25.2347 10 24.7926C10 24.3506 9.8244 23.9267 9.51184 23.6141C9.19928 23.3016 8.77536 23.126 8.33333 23.126H1.66667C1.22464 23.126 0.800716 23.3016 0.488155 23.6141C0.175595 23.9267 0 24.3506 0 24.7926C0 25.2347 0.175595 25.6586 0.488155 25.9712C0.800716 26.2837 1.22464 26.4593 1.66667 26.4593Z" fill="#00AA72"/>
<path d="M20 -0.207031C14.6957 -0.207031 9.60859 1.90011 5.85786 5.65083C2.10714 9.40156 0 14.4886 0 19.793C0 19.8946 0.0133333 19.993 0.015 20.0946C0.544326 19.9006 1.10294 19.7986 1.66667 19.793H8.33333C9.1515 19.7902 9.95776 19.9889 10.6809 20.3716C11.4041 20.7542 12.0219 21.3091 12.4799 21.9871C12.9378 22.6651 13.2217 23.4454 13.3066 24.2591C13.3915 25.0729 13.2748 25.895 12.9667 26.653C13.6491 26.832 14.2854 27.1547 14.8332 27.5994C15.3809 28.044 15.8275 28.6004 16.143 29.2315C16.4585 29.8625 16.6357 30.5536 16.6628 31.2586C16.6899 31.9636 16.5662 32.6663 16.3 33.3196C16.9665 33.4897 17.5899 33.7977 18.1299 34.2238C18.6699 34.6499 19.1144 35.1847 19.4348 35.7934C19.7551 36.4021 19.944 37.0713 19.9894 37.7577C20.0348 38.4441 19.9357 39.1323 19.6983 39.778C19.8 39.778 19.8983 39.793 20 39.793C25.3043 39.793 30.3914 37.6858 34.1421 33.9351C37.8929 30.1844 40 25.0973 40 19.793C40 14.4886 37.8929 9.40156 34.1421 5.65083C30.3914 1.90011 25.3043 -0.207031 20 -0.207031ZM26.1783 25.9713C25.8658 26.2838 25.4419 26.4593 25 26.4593C24.5581 26.4593 24.1342 26.2838 23.8217 25.9713L18.8217 20.9713C18.5091 20.6588 18.3334 20.235 18.3333 19.793V11.4596C18.3333 11.0176 18.5089 10.5937 18.8215 10.2811C19.134 9.96856 19.558 9.79297 20 9.79297C20.442 9.79297 20.8659 9.96856 21.1785 10.2811C21.4911 10.5937 21.6667 11.0176 21.6667 11.4596V19.103L26.1783 23.6146C26.4908 23.9272 26.6663 24.351 26.6663 24.793C26.6663 25.2349 26.4908 25.6588 26.1783 25.9713Z" fill="#00AA72"/>
</g>
<defs>
<clipPath id="clip0_9078_6842">
<rect width="40" height="40" fill="white"/>
</clipPath>
</defs>
</svg>
