<svg width="40" height="40" viewBox="0 0 40 40" fill="none" xmlns="http://www.w3.org/2000/svg">
<g clip-path="url(#clip0_8933_8134)">
<path d="M35.8333 30C35.4783 30 35.1233 29.865 34.8517 29.5933L33.7017 28.4433C32.39 27.1317 31.6667 25.3883 31.6667 23.5317V4.16667C31.6667 1.86833 33.535 0 35.8333 0C38.1317 0 40 1.86833 40 4.16667V23.5317C40 25.3867 39.2767 27.1317 37.965 28.4433L36.815 29.5933C36.5433 29.865 36.1883 30 35.8333 30ZM21.6667 0H6.66667C2.985 0 0 2.985 0 6.66667V35.595C0 37.775 1.56833 39.76 3.73667 39.9783C6.23 40.2283 8.33333 38.2767 8.33333 35.8333V35C8.33333 32.2383 10.5717 30 13.3333 30H28.3333V6.66667C28.3333 2.985 25.3483 0 21.6667 0ZM16.2117 18.6783L12.58 22.31C11.8983 22.9917 11.0033 23.3317 10.1083 23.3317C9.21333 23.3317 8.31833 22.9917 7.63667 22.31L5.49 20.1617C4.83833 19.51 4.83833 18.455 5.49 17.805C6.14167 17.1533 7.195 17.1533 7.84667 17.805L9.99333 19.9533C10.0483 20.0083 10.1683 20.0083 10.225 19.9533L13.8567 16.3217C14.5083 15.67 15.5617 15.67 16.2133 16.3217C16.865 16.9733 16.8633 18.0267 16.2117 18.6783ZM16.2117 8.67833L12.58 12.31C11.8983 12.9917 11.0033 13.3317 10.1083 13.3317C9.21333 13.3317 8.31833 12.9917 7.63667 12.31L5.49 10.1617C4.83833 9.51 4.83833 8.455 5.49 7.805C6.14167 7.15333 7.195 7.15333 7.84667 7.805L9.99333 9.95333C10.0483 10.0083 10.1683 10.0083 10.225 9.95333L13.8567 6.32167C14.5083 5.67 15.5617 5.67 16.2133 6.32167C16.865 6.97333 16.8633 8.02667 16.2117 8.67833ZM28.3333 40H10.4C11.2 38.8067 11.6667 37.3733 11.6667 35.8333V35C11.6667 34.08 12.4133 33.3333 13.3333 33.3333H31.6667C32.5867 33.3333 33.3333 34.08 33.3333 35C33.3333 37.7617 31.095 40 28.3333 40Z" fill="#00AA72"/>
</g>
<defs>
<clipPath id="clip0_8933_8134">
<rect width="40" height="40" fill="white"/>
</clipPath>
</defs>
</svg>
