<svg width="40" height="40" viewBox="0 0 40 40" fill="none" xmlns="http://www.w3.org/2000/svg">
<path d="M33.1033 7.83763C32.9716 7.28763 32.57 6.8443 32.035 6.65763C31.9367 6.62263 29.815 5.88596 26.52 5.35763C25.8316 3.43096 24.1116 2.02596 22 1.7843C20.6633 1.63263 19.3516 1.63096 18 1.7843C15.89 2.0243 14.17 3.4243 13.48 5.3543C10.1683 5.88263 8.05331 6.62763 7.95665 6.66096C7.42665 6.8493 7.02665 7.29263 6.89498 7.8393C6.83165 8.0993 5.35498 14.2776 5.35498 21.5843C5.35498 28.891 6.83165 35.066 6.89498 35.3276C7.02665 35.8776 7.42831 36.321 7.96331 36.5076C8.17498 36.5826 13.2483 38.3376 20 38.3376C26.8083 38.3376 31.8333 36.581 32.0433 36.506C32.5733 36.3176 32.9733 35.8743 33.105 35.3276C33.1683 35.0676 34.645 28.8893 34.645 21.5843C34.645 14.2793 33.1683 8.10096 33.105 7.84096L33.1033 7.83763ZM17.135 12.3243H18.3333V11.1543C18.3333 10.2343 19.0783 9.48763 20 9.48763C20.9216 9.48763 21.6666 10.2343 21.6666 11.1543V12.3243H22.865C23.7866 12.3243 24.5316 13.071 24.5316 13.991C24.5316 14.911 23.7866 15.6576 22.865 15.6576H21.6666V16.8276C21.6666 17.7476 20.9216 18.4943 20 18.4943C19.0783 18.4943 18.3333 17.7476 18.3333 16.8276V15.6576H17.135C16.2133 15.6576 15.4683 14.911 15.4683 13.991C15.4683 13.071 16.2133 12.3243 17.135 12.3243ZM19.575 30.871H14.0066C13.085 30.871 12.34 30.1243 12.34 29.2043C12.34 28.2843 13.085 27.5376 14.0066 27.5376H19.575C20.4966 27.5376 21.2416 28.2843 21.2416 29.2043C21.2416 30.1243 20.4966 30.871 19.575 30.871ZM25.9933 24.4876H14.0083C13.0866 24.4876 12.3416 23.741 12.3416 22.821C12.3416 21.901 13.0866 21.1543 14.0083 21.1543H25.9933C26.915 21.1543 27.66 21.901 27.66 22.821C27.66 23.741 26.915 24.4876 25.9933 24.4876Z" fill="#00AA72"/>
</svg>
