<svg width="40" height="40" viewBox="0 0 40 40" fill="none" xmlns="http://www.w3.org/2000/svg">
<path d="M6.06334 14.9999C5.03334 14.9999 4.23334 14.0699 4.415 13.0565C5.01334 9.72152 6.675 6.62152 9.17334 4.27985C12.3983 1.25485 16.61 -0.253483 21.05 0.0348503C29.4183 0.57485 35.955 7.85985 35.8317 16.5632C35.765 21.2599 31.85 25.0015 27.1517 25.0015H22.265C21.665 25.5782 20.855 25.9365 19.9583 25.9365C18.1167 25.9365 16.625 24.4449 16.625 22.6032C16.625 20.7615 18.1167 19.2699 19.9583 19.2699C21.4717 19.2699 22.735 20.2849 23.1417 21.6682H27.1517C30.045 21.6682 32.4667 19.3632 32.4983 16.4715C32.575 9.56152 27.4233 3.78985 20.835 3.36318C17.3367 3.14652 14 4.32652 11.4517 6.71485C9.43667 8.60318 8.13834 11.0215 7.68334 13.6782C7.55 14.4549 6.85 15.0032 6.06334 15.0032V14.9999ZM20 28.3332C13.8417 28.3332 8.51334 32.1532 6.74167 37.8365C6.58334 38.3432 6.675 38.8949 6.99 39.3215C7.305 39.7482 7.80334 39.9999 8.33334 39.9999H31.6667C32.1967 39.9999 32.695 39.7482 33.01 39.3215C33.325 38.8949 33.4167 38.3432 33.2583 37.8365C31.4867 32.1532 26.1583 28.3332 20 28.3332ZM24.89 18.3332H28.8133C29.0383 17.5382 29.1667 16.7015 29.1667 15.8332C29.1667 10.7699 25.0633 6.66652 20 6.66652C14.9367 6.66652 10.8333 10.7699 10.8333 15.8332C10.8333 18.3182 11.8267 20.5682 13.4317 22.2199C13.6333 18.7765 16.4633 16.0382 19.9583 16.0382C21.9433 16.0382 23.6933 16.9399 24.8917 18.3332H24.89Z" fill="#00AA72"/>
</svg>
