<svg width="40" height="40" viewBox="0 0 40 40" fill="none" xmlns="http://www.w3.org/2000/svg">
<g clip-path="url(#clip0_8899_3038)">
<path d="M5 10C5 4.485 9.48667 0 15 0C20.5133 0 25 4.485 25 10C25 15.515 20.515 20 15 20C9.485 20 5 15.515 5 10ZM40 30C40 35.5233 35.5233 40 30 40C24.4767 40 20 35.5233 20 30C20 24.4767 24.4767 20 30 20C35.5233 20 40 24.4767 40 30ZM36.1867 27.1633C35.5483 26.4983 34.4917 26.48 33.83 27.115L29.3083 31.4883C29.07 31.7233 28.6767 31.7283 28.4383 31.4917L26.1817 29.2733C25.5217 28.6267 24.4683 28.6383 23.825 29.2967C23.18 29.955 23.19 31.0083 23.8483 31.6533L26.105 33.8733C26.8717 34.6217 27.875 34.9967 28.8767 34.9967C29.8783 34.9967 30.8783 34.6217 31.6317 33.8783L36.1367 29.5217C36.8 28.8833 36.8217 27.8283 36.185 27.165L36.1867 27.1633ZM16.6667 30C16.6667 27.72 17.2417 25.575 18.25 23.6983C17.2017 23.465 16.1167 23.3333 15 23.3333C6.74 23.3333 0.0166695 30.0467 2.80977e-06 38.305C-0.00166386 39.2333 0.738336 40 1.66667 40H21.2017C18.4267 37.5567 16.6667 33.9883 16.6667 30Z" fill="#00AA72"/>
</g>
<defs>
<clipPath id="clip0_8899_3038">
<rect width="40" height="40" fill="white"/>
</clipPath>
</defs>
</svg>
