<svg width="395" height="394" viewBox="0 0 395 394" fill="none" xmlns="http://www.w3.org/2000/svg">
<path d="M245.496 20.284C248.835 21.1792 252.268 19.1963 253.162 15.855C254.057 12.5137 252.075 9.07899 248.736 8.1838C245.397 7.28861 241.965 9.27151 241.07 12.6128C240.176 15.9541 242.157 19.3884 245.496 20.284Z" fill="#002DB4"/>
<path d="M240.197 40.0666C243.302 40.899 246.493 39.0556 247.324 35.9492C248.156 32.8428 246.314 29.6499 243.21 28.8174C240.105 27.985 236.914 29.8284 236.083 32.9349C235.251 36.0413 237.093 39.2342 240.197 40.0666Z" fill="#002DB4"/>
<path d="M234.906 59.8493C237.776 60.6185 240.726 58.9146 241.495 56.043C242.264 53.1714 240.561 50.2198 237.691 49.4502C234.821 48.6806 231.872 50.3849 231.103 53.2565C230.334 56.1281 232.037 59.0797 234.906 59.8493Z" fill="#002DB4"/>
<path d="M229.608 79.6314C232.243 80.3378 234.951 78.7734 235.657 76.1367C236.363 73.4999 234.799 70.7897 232.164 70.0833C229.529 69.3769 226.821 70.9413 226.115 73.5781C225.409 76.2148 226.973 78.925 229.608 79.6314Z" fill="#002DB4"/>
<path d="M224.305 99.4142C226.705 100.058 229.172 98.6325 229.815 96.2306C230.458 93.8287 229.034 91.3598 226.634 90.7162C224.233 90.0726 221.766 91.4979 221.123 93.8998C220.48 96.3017 221.904 98.7706 224.305 99.4142Z" fill="#002DB4"/>
<path d="M219.018 119.197C221.183 119.778 223.409 118.492 223.989 116.325C224.57 114.158 223.284 111.931 221.119 111.35C218.953 110.77 216.727 112.055 216.147 114.222C215.567 116.39 216.852 118.617 219.018 119.197Z" fill="#002DB4"/>
<path d="M213.715 138.979C215.646 139.497 217.63 138.351 218.147 136.418C218.665 134.486 217.519 132.501 215.588 131.983C213.657 131.465 211.673 132.612 211.155 134.544C210.638 136.476 211.784 138.462 213.715 138.979Z" fill="#002DB4"/>
<path d="M208.416 158.762C210.112 159.217 211.855 158.21 212.31 156.513C212.764 154.816 211.758 153.071 210.062 152.616C208.366 152.162 206.622 153.169 206.168 154.866C205.713 156.563 206.719 158.308 208.416 158.762Z" fill="#002DB4"/>
<path d="M201.188 175.188C200.796 176.65 201.663 178.153 203.125 178.545C204.586 178.937 206.088 178.069 206.48 176.606C206.871 175.144 206.004 173.641 204.543 173.249C203.082 172.857 201.58 173.725 201.188 175.188Z" fill="#002DB4"/>
<path d="M289.635 38.5792C292.628 40.3087 296.456 39.2823 298.185 36.2865C299.914 33.2908 298.888 29.4603 295.894 27.7304C292.9 26.0009 289.072 27.0272 287.343 30.023C285.615 33.0187 286.641 36.8497 289.635 38.5792Z" fill="#002DB4"/>
<path d="M279.411 56.3155C282.194 57.9236 285.753 56.9693 287.36 54.1842C288.967 51.3991 288.013 47.8374 285.23 46.2298C282.447 44.6217 278.888 45.576 277.281 48.361C275.673 51.1461 276.627 54.7074 279.411 56.3155Z" fill="#002DB4"/>
<path d="M269.175 74.0522C271.748 75.5384 275.038 74.6563 276.523 72.0818C278.009 69.5074 277.127 66.215 274.554 64.7287C271.981 63.242 268.691 64.1246 267.206 66.6991C265.721 69.2735 266.602 72.5655 269.175 74.0522Z" fill="#002DB4"/>
<path d="M263.879 83.2281C261.516 81.8632 258.495 82.6733 257.131 85.0371C255.767 87.4008 256.577 90.424 258.939 91.7889C261.301 93.1538 264.322 92.3437 265.686 89.9799C267.05 87.6157 266.241 84.5929 263.879 83.2281Z" fill="#002DB4"/>
<path d="M247.057 103.375C245.814 105.528 246.551 108.282 248.704 109.525C250.856 110.768 253.607 110.031 254.849 107.877C256.092 105.724 255.355 102.97 253.203 101.727C251.051 100.484 248.299 101.221 247.057 103.375Z" fill="#002DB4"/>
<path d="M238.476 127.262C240.417 128.384 242.9 127.718 244.021 125.775C245.142 123.832 244.477 121.348 242.535 120.227C240.593 119.105 238.111 119.771 236.99 121.713C235.869 123.656 236.534 126.14 238.476 127.262Z" fill="#002DB4"/>
<path d="M231.859 138.726C230.128 137.726 227.915 138.32 226.915 140.051C225.916 141.784 226.509 143.999 228.24 144.999C229.972 145.999 232.185 145.405 233.184 143.673C234.184 141.941 233.591 139.726 231.859 138.726Z" fill="#002DB4"/>
<path d="M221.183 157.225C219.663 156.346 217.718 156.868 216.841 158.389C215.963 159.911 216.484 161.857 218.004 162.735C219.525 163.613 221.469 163.092 222.347 161.571C223.225 160.049 222.704 158.103 221.183 157.225Z" fill="#002DB4"/>
<path d="M336.4 67.6822C338.845 65.2361 338.845 61.2703 336.4 58.8242C333.956 56.3781 329.993 56.3781 327.548 58.8242C325.104 61.2703 325.104 65.2361 327.548 67.6822C329.993 70.1282 333.956 70.1282 336.4 67.6822Z" fill="#002DB4"/>
<path d="M321.301 82.1641C323.573 79.8901 323.573 76.2033 321.301 73.9288C319.028 71.6548 315.344 71.6548 313.072 73.9288C310.799 76.2028 310.799 79.8901 313.072 82.1641C315.344 84.4381 319.028 84.4381 321.301 82.1641Z" fill="#002DB4"/>
<path d="M298.595 96.6464C300.696 98.7483 304.102 98.7483 306.203 96.6464C308.303 94.5439 308.303 91.1362 306.203 89.0337C304.102 86.9318 300.696 86.9318 298.595 89.0337C296.494 91.1357 296.494 94.5439 298.595 96.6464Z" fill="#002DB4"/>
<path d="M291.115 111.128C293.044 109.198 293.044 106.068 291.115 104.138C289.186 102.208 286.059 102.208 284.13 104.138C282.201 106.068 282.201 109.198 284.13 111.128C286.059 113.058 289.186 113.058 291.115 111.128Z" fill="#002DB4"/>
<path d="M272.831 126.928C275.316 126.928 277.331 124.913 277.331 122.426C277.331 119.939 275.316 117.923 272.831 117.923C270.346 117.923 268.332 119.939 268.332 122.426C268.332 124.913 270.346 126.928 272.831 126.928Z" fill="#002DB4"/>
<path d="M255.185 134.347C253.6 135.933 253.6 138.505 255.185 140.091C256.77 141.678 259.341 141.678 260.926 140.091C262.511 138.505 262.511 135.933 260.926 134.347C259.341 132.761 256.77 132.761 255.185 134.347Z" fill="#002DB4"/>
<path d="M245.827 149.452C244.414 148.037 242.122 148.037 240.709 149.452C239.295 150.866 239.295 153.159 240.709 154.574C242.122 155.988 244.414 155.988 245.827 154.574C247.241 153.159 247.241 150.866 245.827 149.452Z" fill="#002DB4"/>
<path d="M226.232 169.055C227.473 170.298 229.487 170.298 230.728 169.055C231.97 167.813 231.97 165.799 230.728 164.556C229.487 163.314 227.473 163.314 226.232 164.556C224.99 165.799 224.99 167.813 226.232 169.055Z" fill="#002DB4"/>
<path d="M215.641 183.537C216.711 182.466 216.711 180.731 215.641 179.66C214.571 178.59 212.837 178.59 211.767 179.66C210.697 180.731 210.697 182.466 211.767 183.537C212.837 184.608 214.571 184.608 215.641 183.537Z" fill="#002DB4"/>
<path d="M365.175 107.903C368.169 106.173 369.195 102.342 367.466 99.3466C365.738 96.3508 361.91 95.3245 358.916 97.054C355.922 98.7834 354.896 102.614 356.625 105.61C358.354 108.606 362.181 109.633 365.175 107.903Z" fill="#002DB4"/>
<path d="M338.902 115.851C340.509 118.636 344.068 119.59 346.851 117.982C349.634 116.374 350.588 112.813 348.981 110.027C347.374 107.242 343.815 106.288 341.032 107.896C338.248 109.504 337.295 113.065 338.902 115.851Z" fill="#002DB4"/>
<path d="M321.179 126.091C322.664 128.665 325.954 129.547 328.527 128.061C331.1 126.575 331.981 123.282 330.496 120.708C329.011 118.133 325.721 117.251 323.148 118.737C320.575 120.224 319.693 123.516 321.179 126.091Z" fill="#002DB4"/>
<path d="M303.456 136.331C304.82 138.695 307.84 139.505 310.203 138.14C312.565 136.775 313.375 133.752 312.011 131.388C310.647 129.024 307.626 128.214 305.263 129.579C302.901 130.944 302.092 133.967 303.456 136.331Z" fill="#002DB4"/>
<path d="M293.514 142.069C292.271 139.915 289.52 139.178 287.367 140.421C285.215 141.664 284.478 144.418 285.721 146.572C286.963 148.725 289.715 149.463 291.867 148.22C294.019 146.976 294.756 144.223 293.514 142.069Z" fill="#002DB4"/>
<path d="M268.009 156.811C269.13 158.754 271.613 159.42 273.554 158.298C275.496 157.176 276.161 154.692 275.04 152.749C273.919 150.806 271.437 150.141 269.495 151.263C267.554 152.384 266.888 154.868 268.009 156.811Z" fill="#002DB4"/>
<path d="M255.219 168.377C256.95 167.377 257.543 165.162 256.544 163.43C255.544 161.697 253.33 161.104 251.599 162.104C249.868 163.104 249.275 165.319 250.274 167.051C251.274 168.783 253.488 169.377 255.219 168.377Z" fill="#002DB4"/>
<path d="M233.715 172.946C232.194 173.824 231.674 175.77 232.551 177.292C233.429 178.813 235.374 179.335 236.894 178.456C238.415 177.578 238.936 175.632 238.058 174.11C237.18 172.589 235.236 172.068 233.715 172.946Z" fill="#002DB4"/>
<path d="M382.572 154.207C385.911 153.312 387.893 149.877 386.998 146.536C386.104 143.194 382.671 141.211 379.332 142.107C375.993 143.002 374.012 146.436 374.906 149.778C375.801 153.119 379.233 155.102 382.572 154.207Z" fill="#002DB4"/>
<path d="M362.268 159.196C365.373 158.364 367.215 155.171 366.383 152.065C365.551 148.958 362.36 147.115 359.256 147.947C356.151 148.779 354.309 151.972 355.141 155.079C355.973 158.185 359.163 160.029 362.268 159.196Z" fill="#002DB4"/>
<path d="M341.96 164.186C344.83 163.416 346.533 160.464 345.764 157.593C344.995 154.721 342.046 153.017 339.176 153.786C336.306 154.556 334.603 157.508 335.372 160.379C336.141 163.251 339.091 164.955 341.96 164.186Z" fill="#002DB4"/>
<path d="M321.644 169.176C324.279 168.469 325.843 165.759 325.137 163.123C324.431 160.486 321.723 158.921 319.088 159.628C316.453 160.334 314.889 163.044 315.595 165.681C316.302 168.318 319.01 169.882 321.644 169.176Z" fill="#002DB4"/>
<path d="M301.34 174.165C303.741 173.522 305.165 171.053 304.522 168.651C303.879 166.249 301.412 164.824 299.012 165.467C296.611 166.111 295.187 168.58 295.83 170.981C296.473 173.383 298.94 174.809 301.34 174.165Z" fill="#002DB4"/>
<path d="M278.935 171.307C276.77 171.888 275.485 174.115 276.065 176.282C276.646 178.449 278.871 179.735 281.037 179.154C283.202 178.574 284.487 176.346 283.907 174.179C283.327 172.013 281.101 170.727 278.935 171.307Z" fill="#002DB4"/>
<path d="M258.859 177.147C256.928 177.665 255.783 179.651 256.3 181.582C256.817 183.515 258.802 184.661 260.733 184.143C262.664 183.626 263.809 181.64 263.292 179.708C262.774 177.776 260.79 176.629 258.859 177.147Z" fill="#002DB4"/>
<path d="M238.771 182.987C237.075 183.441 236.069 185.186 236.523 186.883C236.978 188.581 238.721 189.588 240.417 189.133C242.113 188.678 243.119 186.934 242.665 185.236C242.211 183.539 240.467 182.532 238.771 182.987Z" fill="#002DB4"/>
<path d="M222.046 190.766C221.654 189.303 220.152 188.435 218.691 188.827C217.23 189.219 216.363 190.722 216.754 192.184C217.146 193.646 218.648 194.515 220.109 194.123C221.57 193.731 222.438 192.228 222.046 190.766Z" fill="#002DB4"/>
<path d="M388.807 203.227C392.17 202.427 394.249 199.051 393.45 195.686C392.651 192.32 389.277 190.24 385.914 191.039C382.551 191.839 380.472 195.215 381.271 198.581C382.07 201.946 385.444 204.026 388.807 203.227Z" fill="#002DB4"/>
<path d="M366.499 191.353C363.285 191.353 360.68 193.96 360.68 197.176C360.68 200.393 363.285 203 366.499 203C369.713 203 372.318 200.393 372.318 197.176C372.318 193.961 369.713 191.353 366.499 191.353Z" fill="#002DB4"/>
<path d="M345.586 191.793C342.615 191.793 340.207 194.203 340.207 197.176C340.207 200.149 342.615 202.559 345.586 202.559C348.557 202.559 350.965 200.149 350.965 197.176C350.965 194.204 348.557 191.793 345.586 191.793Z" fill="#002DB4"/>
<path d="M329.624 197.177C329.624 194.447 327.413 192.234 324.685 192.234C321.957 192.234 319.746 194.447 319.746 197.177C319.746 199.906 321.957 202.119 324.685 202.119C327.413 202.119 329.624 199.906 329.624 197.177Z" fill="#002DB4"/>
<path d="M307.979 198.993C308.936 196.698 307.852 194.061 305.559 193.104C303.265 192.147 300.63 193.231 299.674 195.526C298.717 197.821 299.801 200.457 302.094 201.415C304.387 202.372 307.022 201.288 307.979 198.993Z" fill="#002DB4"/>
<path d="M282.872 201.238C285.114 201.238 286.931 199.42 286.931 197.176C286.931 194.933 285.114 193.114 282.872 193.114C280.63 193.114 278.812 194.933 278.812 197.176C278.812 199.42 280.63 201.238 282.872 201.238Z" fill="#002DB4"/>
<path d="M265.578 197.176C265.578 195.176 263.958 193.555 261.959 193.555C259.96 193.555 258.34 195.176 258.34 197.176C258.34 199.177 259.96 200.798 261.959 200.798C263.958 200.798 265.578 199.177 265.578 197.176Z" fill="#002DB4"/>
<path d="M244.237 197.176C244.237 195.42 242.814 193.995 241.058 193.995C239.302 193.995 237.879 195.42 237.879 197.176C237.879 198.934 239.302 200.358 241.058 200.358C242.814 200.358 244.237 198.934 244.237 197.176Z" fill="#002DB4"/>
<path d="M382.572 240.146C379.233 239.251 375.801 241.234 374.906 244.575C374.012 247.916 375.993 251.351 379.332 252.246C382.671 253.141 386.104 251.158 386.998 247.817C387.893 244.475 385.911 241.041 382.572 240.146Z" fill="#002DB4"/>
<path d="M359.256 246.406C362.36 247.238 365.551 245.395 366.383 242.288C367.215 239.182 365.373 235.989 362.268 235.157C359.164 234.324 355.973 236.168 355.141 239.274C354.309 242.381 356.151 245.573 359.256 246.406Z" fill="#002DB4"/>
<path d="M339.176 240.566C342.046 241.335 344.995 239.631 345.764 236.76C346.533 233.888 344.83 230.936 341.96 230.167C339.091 229.397 336.141 231.101 335.372 233.973C334.603 236.845 336.306 239.796 339.176 240.566Z" fill="#002DB4"/>
<path d="M319.088 234.726C321.723 235.433 324.432 233.868 325.138 231.231C325.843 228.594 324.28 225.884 321.645 225.178C319.01 224.471 316.301 226.036 315.595 228.672C314.889 231.31 316.453 234.019 319.088 234.726Z" fill="#002DB4"/>
<path d="M299.012 228.887C301.412 229.53 303.879 228.105 304.522 225.703C305.165 223.301 303.741 220.833 301.341 220.189C298.941 219.545 296.473 220.971 295.83 223.373C295.187 225.774 296.612 228.243 299.012 228.887Z" fill="#002DB4"/>
<path d="M283.907 220.174C284.487 218.007 283.202 215.779 281.037 215.199C278.871 214.618 276.646 215.904 276.065 218.071C275.485 220.238 276.77 222.465 278.935 223.046C281.101 223.626 283.327 222.341 283.907 220.174Z" fill="#002DB4"/>
<path d="M263.292 214.645C263.809 212.713 262.664 210.727 260.733 210.21C258.802 209.692 256.818 210.838 256.3 212.771C255.783 214.703 256.928 216.689 258.859 217.206C260.79 217.724 262.775 216.577 263.292 214.645Z" fill="#002DB4"/>
<path d="M236.523 207.47C236.069 209.167 237.075 210.911 238.771 211.366C240.468 211.821 242.211 210.814 242.665 209.117C243.12 207.419 242.113 205.675 240.418 205.22C238.721 204.765 236.978 205.773 236.523 207.47Z" fill="#002DB4"/>
<path d="M220.109 200.231C218.647 199.839 217.145 200.707 216.754 202.169C216.363 203.632 217.23 205.135 218.691 205.526C220.153 205.918 221.654 205.05 222.046 203.588C222.438 202.126 221.57 200.622 220.109 200.231Z" fill="#002DB4"/>
<path d="M365.175 286.45C362.181 284.721 358.354 285.747 356.625 288.743C354.896 291.739 355.922 295.569 358.916 297.299C361.91 299.029 365.738 298.002 367.466 295.006C369.195 292.011 368.169 288.18 365.175 286.45Z" fill="#002DB4"/>
<path d="M346.851 276.371C344.067 274.763 340.508 275.717 338.902 278.503C337.295 281.288 338.248 284.849 341.031 286.457C343.815 288.065 347.373 287.111 348.981 284.326C350.588 281.541 349.634 277.979 346.851 276.371Z" fill="#002DB4"/>
<path d="M330.496 273.645C331.982 271.071 331.1 267.778 328.527 266.292C325.954 264.806 322.664 265.688 321.179 268.262C319.693 270.837 320.575 274.129 323.148 275.616C325.721 277.102 329.011 276.22 330.496 273.645Z" fill="#002DB4"/>
<path d="M310.203 256.213C307.841 254.848 304.82 255.659 303.456 258.022C302.092 260.386 302.901 263.409 305.263 264.774C307.625 266.139 310.647 265.329 312.011 262.965C313.375 260.601 312.565 257.578 310.203 256.213Z" fill="#002DB4"/>
<path d="M293.514 252.285C294.756 250.131 294.019 247.378 291.867 246.135C289.715 244.892 286.963 245.629 285.721 247.783C284.478 249.937 285.216 252.69 287.367 253.933C289.52 255.176 292.271 254.438 293.514 252.285Z" fill="#002DB4"/>
<path d="M269.495 243.091C271.437 244.212 273.919 243.546 275.04 241.604C276.161 239.661 275.496 237.177 273.555 236.055C271.613 234.933 269.131 235.599 268.01 237.542C266.888 239.485 267.554 241.969 269.495 243.091Z" fill="#002DB4"/>
<path d="M251.6 232.249C253.331 233.249 255.544 232.655 256.544 230.923C257.543 229.191 256.95 226.976 255.219 225.976C253.488 224.975 251.274 225.569 250.275 227.301C249.275 229.034 249.868 231.249 251.6 232.249Z" fill="#002DB4"/>
<path d="M238.058 220.242C238.936 218.721 238.415 216.775 236.894 215.897C235.374 215.018 233.429 215.54 232.551 217.061C231.674 218.583 232.194 220.528 233.715 221.407C235.236 222.286 237.18 221.764 238.058 220.242Z" fill="#002DB4"/>
<path d="M327.548 326.671C325.104 329.117 325.104 333.083 327.548 335.529C329.993 337.975 333.956 337.975 336.4 335.529C338.845 333.083 338.845 329.117 336.4 326.671C333.956 324.225 329.993 324.225 327.548 326.671Z" fill="#002DB4"/>
<path d="M317.186 322.13C320.4 322.13 323.006 319.523 323.006 316.307C323.006 313.091 320.4 310.484 317.186 310.484C313.973 310.484 311.367 313.091 311.367 316.307C311.367 319.523 313.973 322.13 317.186 322.13Z" fill="#002DB4"/>
<path d="M298.595 297.708C296.494 299.81 296.494 303.218 298.595 305.32C300.696 307.422 304.102 307.422 306.203 305.32C308.303 303.218 308.303 299.81 306.203 297.708C304.102 295.606 300.696 295.606 298.595 297.708Z" fill="#002DB4"/>
<path d="M287.623 291.663C290.35 291.663 292.562 289.45 292.562 286.72C292.562 283.991 290.35 281.778 287.623 281.778C284.895 281.778 282.684 283.991 282.684 286.72C282.684 289.45 284.895 291.663 287.623 291.663Z" fill="#002DB4"/>
<path d="M276.013 275.11C277.77 273.352 277.77 270.501 276.013 268.743C274.256 266.985 271.407 266.985 269.65 268.743C267.893 270.501 267.893 273.352 269.65 275.11C271.407 276.869 274.256 276.869 276.013 275.11Z" fill="#002DB4"/>
<path d="M260.926 260.006C262.511 258.42 262.511 255.848 260.926 254.261C259.341 252.675 256.77 252.675 255.185 254.261C253.6 255.848 253.6 258.42 255.185 260.006C256.77 261.593 259.341 261.593 260.926 260.006Z" fill="#002DB4"/>
<path d="M245.827 239.779C244.414 238.365 242.122 238.365 240.709 239.779C239.295 241.193 239.295 243.487 240.709 244.901C242.122 246.315 244.414 246.315 245.827 244.901C247.241 243.487 247.241 241.193 245.827 239.779Z" fill="#002DB4"/>
<path d="M226.232 229.797C227.473 231.04 229.487 231.04 230.728 229.797C231.97 228.555 231.97 226.54 230.728 225.298C229.487 224.055 227.473 224.055 226.232 225.298C224.99 226.54 224.99 228.555 226.232 229.797Z" fill="#002DB4"/>
<path d="M211.767 214.693C212.837 215.763 214.571 215.763 215.641 214.693C216.711 213.622 216.711 211.887 215.641 210.816C214.571 209.746 212.837 209.746 211.767 210.816C210.697 211.887 210.697 213.622 211.767 214.693Z" fill="#002DB4"/>
<path d="M289.635 355.775C286.641 357.504 285.615 361.335 287.343 364.33C289.072 367.326 292.9 368.352 295.894 366.623C298.888 364.894 299.913 361.063 298.185 358.067C296.456 355.072 292.628 354.045 289.635 355.775Z" fill="#002DB4"/>
<path d="M287.36 340.169C285.753 337.384 282.194 336.429 279.411 338.038C276.627 339.646 275.674 343.207 277.281 345.992C278.888 348.777 282.447 349.731 285.23 348.123C288.013 346.515 288.967 342.954 287.36 340.169Z" fill="#002DB4"/>
<path d="M276.523 322.271C275.038 319.697 271.748 318.815 269.175 320.301C266.602 321.787 265.721 325.08 267.206 327.654C268.692 330.229 271.981 331.111 274.554 329.625C277.127 328.138 278.009 324.846 276.523 322.271Z" fill="#002DB4"/>
<path d="M258.939 302.564C256.577 303.929 255.767 306.952 257.131 309.316C258.495 311.68 261.516 312.49 263.879 311.125C266.241 309.76 267.05 306.737 265.686 304.373C264.322 302.009 261.301 301.199 258.939 302.564Z" fill="#002DB4"/>
<path d="M248.704 284.827C246.551 286.071 245.814 288.824 247.057 290.978C248.299 293.131 251.051 293.869 253.203 292.626C255.355 291.383 256.092 288.629 254.85 286.476C253.608 284.322 250.855 283.584 248.704 284.827Z" fill="#002DB4"/>
<path d="M242.535 274.127C244.477 273.005 245.142 270.521 244.021 268.578C242.9 266.635 240.417 265.97 238.476 267.092C236.534 268.213 235.869 270.697 236.99 272.64C238.111 274.583 240.593 275.249 242.535 274.127Z" fill="#002DB4"/>
<path d="M231.859 255.628C233.59 254.627 234.183 252.412 233.184 250.68C232.185 248.948 229.971 248.354 228.24 249.354C226.509 250.355 225.916 252.57 226.915 254.302C227.915 256.034 230.128 256.627 231.859 255.628Z" fill="#002DB4"/>
<path d="M221.183 237.129C222.704 236.25 223.225 234.305 222.347 232.783C221.469 231.261 219.525 230.74 218.004 231.619C216.484 232.497 215.963 234.443 216.841 235.964C217.718 237.486 219.663 238.007 221.183 237.129Z" fill="#002DB4"/>
<path d="M245.496 374.069C242.157 374.964 240.176 378.399 241.07 381.74C241.965 385.082 245.397 387.065 248.736 386.169C252.075 385.274 254.057 381.839 253.162 378.498C252.268 375.157 248.835 373.174 245.496 374.069Z" fill="#002DB4"/>
<path d="M243.21 365.536C246.314 364.704 248.156 361.511 247.324 358.404C246.493 355.298 243.302 353.454 240.197 354.287C237.093 355.119 235.251 358.312 236.083 361.419C236.914 364.525 240.105 366.368 243.21 365.536Z" fill="#002DB4"/>
<path d="M237.691 344.903C240.561 344.133 242.264 341.182 241.495 338.31C240.726 335.438 237.777 333.734 234.906 334.504C232.037 335.273 230.334 338.225 231.103 341.096C231.872 343.968 234.821 345.672 237.691 344.903Z" fill="#002DB4"/>
<path d="M232.164 324.27C234.799 323.563 236.363 320.853 235.657 318.217C234.951 315.58 232.242 314.015 229.607 314.721C226.972 315.428 225.409 318.138 226.115 320.775C226.82 323.412 229.529 324.977 232.164 324.27Z" fill="#002DB4"/>
<path d="M229.815 298.123C229.172 295.721 226.705 294.295 224.305 294.939C221.904 295.583 220.48 298.051 221.123 300.453C221.766 302.855 224.234 304.28 226.634 303.637C229.034 302.993 230.458 300.524 229.815 298.123Z" fill="#002DB4"/>
<path d="M223.989 278.028C223.409 275.861 221.183 274.575 219.018 275.155C216.852 275.736 215.567 277.963 216.147 280.13C216.727 282.297 218.953 283.583 221.119 283.003C223.284 282.422 224.57 280.195 223.989 278.028Z" fill="#002DB4"/>
<path d="M218.147 257.935C217.63 256.002 215.645 254.856 213.715 255.374C211.784 255.891 210.638 257.878 211.155 259.809C211.673 261.741 213.658 262.888 215.588 262.37C217.519 261.853 218.665 259.866 218.147 257.935Z" fill="#002DB4"/>
<path d="M212.31 237.84C211.855 236.143 210.112 235.136 208.416 235.59C206.719 236.045 205.713 237.79 206.168 239.487C206.622 241.184 208.366 242.191 210.062 241.737C211.758 241.282 212.764 239.538 212.31 237.84Z" fill="#002DB4"/>
<path d="M206.48 217.746C206.088 216.284 204.586 215.416 203.125 215.808C201.664 216.2 200.796 217.703 201.188 219.165C201.579 220.628 203.081 221.495 204.543 221.103C206.004 220.711 206.871 219.208 206.48 217.746Z" fill="#002DB4"/>
<path d="M199.539 392.561C202.903 391.766 204.986 388.392 204.192 385.026C203.398 381.659 200.026 379.574 196.662 380.369C193.298 381.164 191.214 384.538 192.009 387.904C192.803 391.271 196.174 393.356 199.539 392.561Z" fill="#002DB4"/>
<path d="M192.32 365.652C192.32 368.868 194.926 371.475 198.14 371.475C201.354 371.475 203.959 368.868 203.959 365.652C203.959 362.436 201.354 359.829 198.14 359.829C194.926 359.829 192.32 362.436 192.32 365.652Z" fill="#002DB4"/>
<path d="M198.129 339.348C195.158 339.348 192.75 341.758 192.75 344.731C192.75 347.704 195.158 350.114 198.129 350.114C201.1 350.114 203.508 347.704 203.508 344.731C203.508 341.758 201.1 339.348 198.129 339.348Z" fill="#002DB4"/>
<path d="M199.269 328.624C201.923 327.994 203.565 325.33 202.935 322.674C202.305 320.019 199.643 318.376 196.989 319.006C194.335 319.636 192.694 322.3 193.324 324.956C193.953 327.612 196.615 329.254 199.269 328.624Z" fill="#002DB4"/>
<path d="M198.14 298.388C195.655 298.388 193.641 300.404 193.641 302.89C193.641 305.376 195.655 307.392 198.14 307.392C200.625 307.392 202.64 305.376 202.64 302.89C202.639 300.403 200.625 298.388 198.14 298.388Z" fill="#002DB4"/>
<path d="M198.126 286.031C200.368 286.031 202.185 284.212 202.185 281.969C202.185 279.725 200.368 277.907 198.126 277.907C195.884 277.907 194.066 279.725 194.066 281.969C194.066 284.212 195.884 286.031 198.126 286.031Z" fill="#002DB4"/>
<path d="M198.139 257.427C196.14 257.427 194.52 259.048 194.52 261.048C194.52 263.048 196.14 264.67 198.139 264.67C200.138 264.67 201.758 263.048 201.758 261.048C201.758 259.048 200.138 257.427 198.139 257.427Z" fill="#002DB4"/>
<path d="M198.14 236.946C196.384 236.946 194.961 238.371 194.961 240.128C194.961 241.884 196.384 243.309 198.14 243.309C199.896 243.309 201.319 241.884 201.319 240.128C201.319 238.371 199.896 236.946 198.14 236.946Z" fill="#002DB4"/>
<path d="M150.771 374.069C147.432 373.174 144 375.157 143.105 378.498C142.211 381.839 144.192 385.274 147.531 386.169C150.87 387.065 154.303 385.082 155.198 381.74C156.092 378.399 154.111 374.964 150.771 374.069Z" fill="#002DB4"/>
<path d="M156.061 354.287C152.957 353.454 149.766 355.298 148.934 358.404C148.102 361.511 149.944 364.704 153.049 365.536C156.153 366.368 159.344 364.525 160.176 361.419C161.008 358.312 159.166 355.119 156.061 354.287Z" fill="#002DB4"/>
<path d="M161.363 334.504C158.493 333.734 155.544 335.438 154.775 338.31C154.005 341.182 155.709 344.133 158.578 344.903C161.448 345.672 164.398 343.968 165.167 341.096C165.935 338.225 164.233 335.273 161.363 334.504Z" fill="#002DB4"/>
<path d="M166.66 314.721C164.025 314.015 161.317 315.58 160.611 318.216C159.905 320.853 161.469 323.563 164.104 324.269C166.739 324.976 169.447 323.411 170.153 320.774C170.859 318.138 169.295 315.428 166.66 314.721Z" fill="#002DB4"/>
<path d="M171.962 294.939C169.561 294.295 167.094 295.721 166.451 298.123C165.808 300.525 167.233 302.993 169.633 303.637C172.033 304.281 174.5 302.855 175.144 300.453C175.786 298.051 174.362 295.583 171.962 294.939Z" fill="#002DB4"/>
<path d="M177.252 275.156C175.086 274.575 172.86 275.862 172.28 278.029C171.7 280.196 172.985 282.423 175.151 283.004C177.316 283.584 179.542 282.298 180.122 280.131C180.702 277.964 179.417 275.737 177.252 275.156Z" fill="#002DB4"/>
<path d="M182.553 255.374C180.622 254.856 178.638 256.002 178.12 257.935C177.603 259.867 178.749 261.853 180.68 262.37C182.611 262.888 184.595 261.741 185.112 259.809C185.629 257.877 184.484 255.891 182.553 255.374Z" fill="#002DB4"/>
<path d="M187.851 235.591C186.154 235.137 184.411 236.144 183.957 237.841C183.502 239.539 184.509 241.283 186.205 241.738C187.901 242.193 189.644 241.185 190.099 239.488C190.553 237.791 189.546 236.046 187.851 235.591Z" fill="#002DB4"/>
<path d="M195.077 219.165C195.469 217.703 194.601 216.2 193.14 215.808C191.679 215.416 190.177 216.284 189.786 217.746C189.394 219.208 190.261 220.712 191.722 221.103C193.184 221.495 194.686 220.627 195.077 219.165Z" fill="#002DB4"/>
<path d="M106.62 355.774C103.626 354.045 99.7983 355.071 98.07 358.067C96.3417 361.063 97.3673 364.893 100.361 366.623C103.355 368.353 107.183 367.326 108.912 364.331C110.64 361.334 109.614 357.504 106.62 355.774Z" fill="#002DB4"/>
<path d="M116.859 338.037C114.075 336.429 110.517 337.383 108.91 340.168C107.303 342.953 108.256 346.515 111.039 348.123C113.823 349.731 117.382 348.777 118.989 345.991C120.596 343.207 119.642 339.645 116.859 338.037Z" fill="#002DB4"/>
<path d="M127.093 320.301C124.521 318.815 121.23 319.697 119.745 322.272C118.26 324.846 119.141 328.139 121.714 329.625C124.287 331.112 127.577 330.229 129.062 327.654C130.548 325.08 129.666 321.788 127.093 320.301Z" fill="#002DB4"/>
<path d="M137.332 302.564C134.969 301.199 131.948 302.009 130.584 304.373C129.22 306.737 130.03 309.76 132.392 311.125C134.754 312.49 137.776 311.68 139.14 309.316C140.504 306.952 139.694 303.929 137.332 302.564Z" fill="#002DB4"/>
<path d="M149.213 290.978C150.455 288.824 149.718 286.071 147.566 284.828C145.414 283.585 142.662 284.322 141.42 286.476C140.178 288.63 140.915 291.383 143.067 292.626C145.218 293.869 147.97 293.131 149.213 290.978Z" fill="#002DB4"/>
<path d="M153.734 274.127C155.675 275.249 158.158 274.583 159.279 272.64C160.4 270.697 159.735 268.213 157.793 267.092C155.851 265.97 153.369 266.635 152.248 268.578C151.126 270.521 151.792 273.005 153.734 274.127Z" fill="#002DB4"/>
<path d="M164.408 255.628C166.139 256.627 168.352 256.034 169.352 254.302C170.352 252.569 169.759 250.355 168.028 249.354C166.296 248.354 164.083 248.948 163.083 250.68C162.084 252.412 162.677 254.627 164.408 255.628Z" fill="#002DB4"/>
<path d="M175.082 237.129C176.603 238.007 178.547 237.486 179.425 235.964C180.303 234.443 179.782 232.497 178.261 231.619C176.741 230.74 174.797 231.261 173.919 232.783C173.041 234.305 173.562 236.25 175.082 237.129Z" fill="#002DB4"/>
<path d="M59.8802 326.671C57.4358 329.117 57.4358 333.083 59.8802 335.529C62.3247 337.975 66.2879 337.975 68.7324 335.529C71.1768 333.083 71.1768 329.117 68.7324 326.671C66.2879 324.225 62.3251 324.225 59.8802 326.671Z" fill="#002DB4"/>
<path d="M74.9661 312.188C72.6936 314.462 72.6936 318.15 74.9661 320.424C77.2386 322.698 80.9234 322.698 83.1959 320.424C85.4684 318.15 85.4684 314.462 83.1959 312.188C80.9234 309.914 77.2386 309.914 74.9661 312.188Z" fill="#002DB4"/>
<path d="M93.8675 306.897C96.8383 306.897 99.2466 304.487 99.2466 301.514C99.2466 298.541 96.8383 296.131 93.8675 296.131C90.8966 296.131 88.4883 298.541 88.4883 301.514C88.4883 304.487 90.8966 306.897 93.8675 306.897Z" fill="#002DB4"/>
<path d="M112.151 290.215C114.079 288.284 114.079 285.155 112.151 283.225C110.222 281.295 107.095 281.295 105.166 283.225C103.236 285.155 103.236 288.284 105.166 290.215C107.095 292.145 110.222 292.145 112.151 290.215Z" fill="#002DB4"/>
<path d="M126.615 275.11C128.372 273.352 128.372 270.501 126.615 268.743C124.857 266.985 122.009 266.985 120.251 268.743C118.494 270.501 118.494 273.352 120.251 275.11C122.009 276.869 124.857 276.869 126.615 275.11Z" fill="#002DB4"/>
<path d="M141.09 260.006C142.675 258.42 142.675 255.848 141.09 254.261C139.505 252.675 136.934 252.675 135.349 254.261C133.764 255.848 133.764 258.42 135.349 260.006C136.934 261.593 139.504 261.593 141.09 260.006Z" fill="#002DB4"/>
<path d="M150.439 244.901C151.852 246.315 154.144 246.315 155.557 244.901C156.971 243.487 156.971 241.193 155.557 239.779C154.144 238.365 151.853 238.365 150.439 239.779C149.026 241.193 149.026 243.487 150.439 244.901Z" fill="#002DB4"/>
<path d="M170.033 225.298C168.791 224.055 166.779 224.055 165.537 225.298C164.295 226.54 164.295 228.555 165.537 229.797C166.779 231.04 168.791 231.04 170.033 229.797C171.274 228.555 171.274 226.54 170.033 225.298Z" fill="#002DB4"/>
<path d="M184.508 214.693C185.578 213.622 185.578 211.887 184.508 210.816C183.439 209.746 181.704 209.746 180.634 210.816C179.565 211.887 179.565 213.622 180.634 214.693C181.704 215.763 183.439 215.763 184.508 214.693Z" fill="#002DB4"/>
<path d="M31.0916 286.45C28.0978 288.18 27.0722 292.011 28.8005 295.006C30.5288 298.002 34.3572 299.029 37.3505 297.299C40.3443 295.57 41.37 291.739 39.6417 288.743C37.9134 285.747 34.0853 284.721 31.0916 286.45Z" fill="#002DB4"/>
<path d="M57.3674 278.503C55.7604 275.717 52.2016 274.763 49.4183 276.371C46.6351 277.979 45.6815 281.541 47.2885 284.326C48.8955 287.111 52.4544 288.065 55.2376 286.457C58.0204 284.849 58.9745 281.288 57.3674 278.503Z" fill="#002DB4"/>
<path d="M75.0895 268.262C73.6043 265.688 70.314 264.806 67.7413 266.292C65.1686 267.778 64.287 271.071 65.7722 273.645C67.258 276.22 70.5477 277.102 73.1205 275.615C75.6937 274.129 76.5753 270.837 75.0895 268.262Z" fill="#002DB4"/>
<path d="M92.8114 258.022C91.4475 255.659 88.4267 254.848 86.0641 256.213C83.7019 257.578 82.8923 260.601 84.2563 262.965C85.6203 265.329 88.641 266.139 91.0037 264.774C93.3664 263.409 94.1759 260.387 92.8114 258.022Z" fill="#002DB4"/>
<path d="M102.752 252.285C103.995 254.438 106.746 255.176 108.898 253.933C111.05 252.69 111.788 249.937 110.545 247.783C109.303 245.629 106.551 244.892 104.399 246.135C102.247 247.378 101.509 250.131 102.752 252.285Z" fill="#002DB4"/>
<path d="M128.267 237.542C127.146 235.599 124.663 234.933 122.722 236.055C120.78 237.177 120.115 239.661 121.236 241.604C122.357 243.547 124.839 244.212 126.781 243.091C128.723 241.969 129.388 239.485 128.267 237.542Z" fill="#002DB4"/>
<path d="M144.668 232.249C146.399 231.249 146.992 229.034 145.993 227.301C144.993 225.569 142.78 224.976 141.048 225.976C139.317 226.975 138.724 229.191 139.724 230.923C140.723 232.655 142.937 233.249 144.668 232.249Z" fill="#002DB4"/>
<path d="M162.551 221.407C164.071 220.528 164.592 218.583 163.714 217.061C162.836 215.54 160.892 215.018 159.371 215.897C157.851 216.775 157.33 218.721 158.208 220.242C159.086 221.764 161.03 222.286 162.551 221.407Z" fill="#002DB4"/>
<path d="M13.6994 240.146C10.3603 241.041 8.37878 244.476 9.27338 247.817C10.168 251.158 13.6005 253.141 16.9395 252.246C20.2786 251.351 22.2601 247.916 21.3656 244.575C20.471 241.234 17.0384 239.25 13.6994 240.146Z" fill="#002DB4"/>
<path d="M34.0019 235.156C30.8976 235.989 29.0554 239.182 29.8873 242.288C30.7191 245.394 33.91 247.238 37.0144 246.405C40.1187 245.573 41.9609 242.38 41.1291 239.274C40.2972 236.167 37.1063 234.324 34.0019 235.156Z" fill="#002DB4"/>
<path d="M54.3087 230.167C51.439 230.936 49.7362 233.888 50.5048 236.759C51.274 239.631 54.2236 241.335 57.0933 240.566C59.9629 239.797 61.6657 236.845 60.8971 233.973C60.1279 231.101 57.1783 229.397 54.3087 230.167Z" fill="#002DB4"/>
<path d="M77.1683 234.726C79.8033 234.02 81.367 231.309 80.6606 228.673C79.9547 226.036 77.2464 224.471 74.6114 225.178C71.9764 225.884 70.4125 228.594 71.1189 231.231C71.8248 233.867 74.5333 235.432 77.1683 234.726Z" fill="#002DB4"/>
<path d="M97.2545 228.886C99.6548 228.243 101.079 225.774 100.436 223.372C99.7928 220.97 97.3256 219.545 94.9258 220.188C92.5255 220.832 91.1011 223.301 91.7443 225.702C92.3875 228.104 94.8547 229.529 97.2545 228.886Z" fill="#002DB4"/>
<path d="M117.334 223.046C119.499 222.465 120.784 220.238 120.204 218.071C119.624 215.904 117.398 214.618 115.232 215.199C113.067 215.779 111.782 218.007 112.362 220.174C112.942 222.341 115.168 223.626 117.334 223.046Z" fill="#002DB4"/>
<path d="M137.408 217.206C139.339 216.689 140.485 214.702 139.968 212.771C139.45 210.838 137.465 209.692 135.535 210.21C133.604 210.727 132.459 212.713 132.976 214.645C133.493 216.577 135.477 217.724 137.408 217.206Z" fill="#002DB4"/>
<path d="M157.499 211.366C159.195 210.911 160.202 209.167 159.747 207.47C159.293 205.772 157.549 204.766 155.853 205.22C154.157 205.675 153.151 207.419 153.605 209.117C154.06 210.814 155.803 211.821 157.499 211.366Z" fill="#002DB4"/>
<path d="M176.156 200.231C174.694 200.622 173.828 202.126 174.219 203.588C174.611 205.051 176.113 205.918 177.574 205.526C179.035 205.135 179.902 203.631 179.511 202.169C179.12 200.707 177.618 199.839 176.156 200.231Z" fill="#002DB4"/>
<path d="M13.278 201.61C15.7225 199.164 15.7225 195.198 13.278 192.752C10.8336 190.306 6.87043 190.306 4.42601 192.752C1.98159 195.198 1.98159 199.164 4.42601 201.61C6.87043 204.056 10.8336 204.056 13.278 201.61Z" fill="#002DB4"/>
<path d="M35.5233 197.254C35.5638 194.038 32.9915 191.398 29.7779 191.358C26.5643 191.317 23.9263 193.891 23.8858 197.107C23.8453 200.323 26.4177 202.962 29.6313 203.003C32.8448 203.043 35.4828 200.469 35.5233 197.254Z" fill="#002DB4"/>
<path d="M50.68 202.56C53.6509 202.56 56.0592 200.15 56.0592 197.177C56.0592 194.204 53.6509 191.794 50.68 191.794C47.709 191.794 45.3008 194.204 45.3008 197.177C45.3008 200.149 47.709 202.56 50.68 202.56Z" fill="#002DB4"/>
<path d="M76.5188 197.177C76.5188 194.447 74.3072 192.234 71.5797 192.234C68.8518 192.234 66.6406 194.447 66.6406 197.177C66.6406 199.906 68.8522 202.119 71.5797 202.119C74.3072 202.119 76.5188 199.906 76.5188 197.177Z" fill="#002DB4"/>
<path d="M93.5525 201.583C95.9717 201.014 97.4718 198.59 96.9032 196.169C96.3347 193.749 93.9127 192.247 91.4936 192.816C89.0744 193.385 87.5742 195.809 88.1428 198.23C88.7113 200.65 91.1334 202.152 93.5525 201.583Z" fill="#002DB4"/>
<path d="M113.395 201.238C115.637 201.238 117.455 199.42 117.455 197.176C117.455 194.933 115.637 193.114 113.395 193.114C111.153 193.114 109.336 194.933 109.336 197.176C109.336 199.42 111.153 201.238 113.395 201.238Z" fill="#002DB4"/>
<path d="M130.688 197.176C130.688 199.177 132.308 200.798 134.307 200.798C136.306 200.798 137.926 199.177 137.926 197.176C137.926 195.176 136.306 193.555 134.307 193.555C132.308 193.555 130.688 195.176 130.688 197.176Z" fill="#002DB4"/>
<path d="M158.386 197.176C158.386 195.42 156.962 193.995 155.206 193.995C153.45 193.995 152.027 195.42 152.027 197.176C152.027 198.934 153.451 200.358 155.206 200.358C156.962 200.358 158.386 198.934 158.386 197.176Z" fill="#002DB4"/>
<path d="M16.9395 142.107C13.6005 141.211 10.168 143.194 9.27338 146.536C8.37878 149.877 10.3603 153.312 13.6994 154.207C17.0384 155.102 20.471 153.119 21.3656 149.778C22.2601 146.436 20.2786 143.002 16.9395 142.107Z" fill="#002DB4"/>
<path d="M37.0144 147.947C33.91 147.115 30.7191 148.958 29.8873 152.065C29.0554 155.171 30.8976 158.364 34.0019 159.196C37.1063 160.029 40.2977 158.185 41.1291 155.079C41.9609 151.972 40.1187 148.779 37.0144 147.947Z" fill="#002DB4"/>
<path d="M57.0934 153.787C54.2237 153.018 51.2741 154.722 50.505 157.594C49.7359 160.465 51.4391 163.417 54.3088 164.186C57.1785 164.956 60.1281 163.252 60.8972 160.38C61.6659 157.508 59.9626 154.556 57.0934 153.787Z" fill="#002DB4"/>
<path d="M77.1681 159.628C74.5331 158.921 71.8246 160.486 71.1187 163.122C70.4128 165.759 71.9762 168.469 74.6112 169.176C77.2462 169.882 79.9545 168.317 80.6605 165.681C81.3664 163.044 79.8031 160.334 77.1681 159.628Z" fill="#002DB4"/>
<path d="M97.2545 165.467C94.8542 164.824 92.387 166.249 91.7443 168.651C91.1011 171.053 92.5255 173.522 94.9258 174.165C97.3261 174.809 99.7928 173.384 100.436 170.982C101.079 168.58 99.6548 166.111 97.2545 165.467Z" fill="#002DB4"/>
<path d="M120.204 176.282C120.784 174.115 119.499 171.888 117.334 171.307C115.168 170.726 112.942 172.013 112.362 174.18C111.782 176.347 113.067 178.574 115.233 179.155C117.398 179.735 119.624 178.449 120.204 176.282Z" fill="#002DB4"/>
<path d="M132.976 179.708C132.459 181.64 133.604 183.626 135.535 184.143C137.466 184.661 139.45 183.515 139.968 181.582C140.485 179.65 139.339 177.665 137.408 177.147C135.478 176.629 133.493 177.776 132.976 179.708Z" fill="#002DB4"/>
<path d="M157.499 182.987C155.803 182.532 154.06 183.539 153.605 185.237C153.151 186.934 154.157 188.678 155.853 189.133C157.549 189.588 159.293 188.581 159.747 186.883C160.202 185.186 159.195 183.442 157.499 182.987Z" fill="#002DB4"/>
<path d="M177.574 188.827C176.112 188.435 174.61 189.303 174.219 190.766C173.827 192.228 174.695 193.731 176.156 194.123C177.618 194.515 179.12 193.646 179.511 192.184C179.902 190.722 179.035 189.219 177.574 188.827Z" fill="#002DB4"/>
<path d="M31.0916 107.903C34.0854 109.633 37.9134 108.606 39.6422 105.61C41.3705 102.615 40.3448 98.7842 37.351 97.0547C34.3573 95.3253 30.5293 96.3516 28.801 99.3473C27.0718 102.343 28.0979 106.174 31.0916 107.903Z" fill="#002DB4"/>
<path d="M49.4183 117.982C52.2016 119.59 55.7604 118.636 57.3674 115.851C58.9745 113.065 58.0208 109.504 55.2376 107.896C52.4544 106.288 48.8955 107.242 47.2885 110.027C45.6815 112.813 46.6351 116.374 49.4183 117.982Z" fill="#002DB4"/>
<path d="M65.7722 120.708C64.287 123.282 65.1686 126.575 67.7413 128.061C70.314 129.548 73.6043 128.666 75.0895 126.091C76.5753 123.516 75.6937 120.224 73.1205 118.738C70.5477 117.251 67.258 118.133 65.7722 120.708Z" fill="#002DB4"/>
<path d="M86.0644 138.14C88.427 139.505 91.4478 138.695 92.8117 136.331C94.1757 133.968 93.3662 130.945 91.004 129.58C88.6418 128.215 85.6206 129.025 84.2566 131.389C82.8922 133.752 83.7017 136.776 86.0644 138.14Z" fill="#002DB4"/>
<path d="M102.752 142.069C101.509 144.223 102.247 146.976 104.399 148.219C106.551 149.463 109.303 148.725 110.545 146.571C111.788 144.418 111.05 141.664 108.898 140.421C106.746 139.178 103.994 139.916 102.752 142.069Z" fill="#002DB4"/>
<path d="M126.781 151.263C124.839 150.141 122.357 150.806 121.236 152.749C120.115 154.692 120.78 157.176 122.722 158.298C124.663 159.42 127.146 158.754 128.267 156.811C129.388 154.868 128.723 152.384 126.781 151.263Z" fill="#002DB4"/>
<path d="M144.668 162.105C142.937 161.104 140.723 161.698 139.724 163.43C138.724 165.163 139.318 167.378 141.049 168.378C142.78 169.378 144.993 168.784 145.993 167.053C146.992 165.319 146.399 163.104 144.668 162.105Z" fill="#002DB4"/>
<path d="M158.208 174.11C157.33 175.632 157.851 177.578 159.371 178.456C160.892 179.335 162.836 178.813 163.714 177.292C164.592 175.77 164.071 173.824 162.551 172.946C161.031 172.068 159.086 172.589 158.208 174.11Z" fill="#002DB4"/>
<path d="M68.7324 67.6822C71.1768 65.2361 71.1768 61.2703 68.7324 58.8242C66.2879 56.3781 62.3247 56.3781 59.8802 58.8242C57.4358 61.2703 57.4358 65.2361 59.8802 67.6822C62.3251 70.1282 66.2879 70.1282 68.7324 67.6822Z" fill="#002DB4"/>
<path d="M83.1959 82.1641C85.4684 79.8901 85.4684 76.2033 83.1959 73.9288C80.9234 71.6548 77.2386 71.6548 74.9661 73.9288C72.6936 76.2028 72.6936 79.8901 74.9661 82.1641C77.2386 84.4381 80.9234 84.4381 83.1959 82.1641Z" fill="#002DB4"/>
<path d="M97.6717 96.6464C99.7727 94.5439 99.7727 91.1362 97.6717 89.0337C95.5706 86.9318 92.1646 86.9318 90.064 89.0337C87.963 91.1357 87.963 94.5439 90.064 96.6464C92.1651 98.7483 95.5711 98.7483 97.6717 96.6464Z" fill="#002DB4"/>
<path d="M105.166 104.138C103.236 106.068 103.236 109.197 105.166 111.128C107.095 113.058 110.222 113.058 112.151 111.128C114.079 109.197 114.079 106.068 112.151 104.138C110.222 102.208 107.095 102.208 105.166 104.138Z" fill="#002DB4"/>
<path d="M120.251 119.243C118.494 121.001 118.494 123.852 120.251 125.61C122.009 127.368 124.857 127.368 126.615 125.61C128.372 123.852 128.372 121.001 126.615 119.243C124.857 117.485 122.009 117.485 120.251 119.243Z" fill="#002DB4"/>
<path d="M141.09 140.091C142.675 138.505 142.675 135.933 141.09 134.347C139.505 132.761 136.934 132.761 135.349 134.347C133.764 135.933 133.764 138.505 135.349 140.091C136.934 141.678 139.504 141.678 141.09 140.091Z" fill="#002DB4"/>
<path d="M150.439 154.574C151.852 155.988 154.144 155.988 155.557 154.574C156.971 153.159 156.971 150.866 155.557 149.452C154.144 148.037 151.853 148.037 150.439 149.452C149.026 150.866 149.026 153.159 150.439 154.574Z" fill="#002DB4"/>
<path d="M170.033 164.556C168.791 163.314 166.779 163.314 165.537 164.556C164.295 165.799 164.295 167.813 165.537 169.055C166.779 170.298 168.791 170.298 170.033 169.055C171.274 167.813 171.274 165.799 170.033 164.556Z" fill="#002DB4"/>
<path d="M184.508 179.661C183.439 178.591 181.704 178.591 180.634 179.661C179.565 180.732 179.565 182.467 180.634 183.538C181.704 184.608 183.439 184.608 184.508 183.538C185.578 182.467 185.578 180.732 184.508 179.661Z" fill="#002DB4"/>
<path d="M106.62 38.5792C109.614 36.8497 110.64 33.0187 108.912 30.023C107.183 27.0272 103.355 26.0009 100.361 27.7304C97.3673 29.4598 96.3417 33.2908 98.07 36.2865C99.7983 39.2823 103.627 40.3087 106.62 38.5792Z" fill="#002DB4"/>
<path d="M108.91 54.1842C110.517 56.9693 114.075 57.9236 116.859 56.3155C119.642 54.7074 120.596 51.1461 118.989 48.361C117.382 45.576 113.823 44.6217 111.039 46.2298C108.256 47.8374 107.303 51.3991 108.91 54.1842Z" fill="#002DB4"/>
<path d="M121.714 64.7288C119.141 66.2151 118.26 69.5075 119.745 72.0819C121.231 74.6564 124.52 75.5385 127.093 74.0523C129.666 72.566 130.547 69.2736 129.062 66.6992C127.577 64.1243 124.287 63.2421 121.714 64.7288Z" fill="#002DB4"/>
<path d="M137.332 91.7889C139.694 90.424 140.504 87.4013 139.14 85.0371C137.776 82.6733 134.755 81.8632 132.392 83.2281C130.03 84.5929 129.22 87.6157 130.584 89.9799C131.948 92.3437 134.969 93.1538 137.332 91.7889Z" fill="#002DB4"/>
<path d="M147.566 109.525C149.717 108.282 150.455 105.528 149.213 103.375C147.97 101.221 145.218 100.484 143.067 101.727C140.915 102.97 140.178 105.724 141.42 107.877C142.662 110.031 145.414 110.769 147.566 109.525Z" fill="#002DB4"/>
<path d="M153.733 120.226C151.792 121.348 151.127 123.832 152.248 125.775C153.369 127.718 155.851 128.383 157.793 127.261C159.734 126.14 160.399 123.655 159.278 121.713C158.158 119.77 155.675 119.104 153.733 120.226Z" fill="#002DB4"/>
<path d="M168.028 144.999C169.759 143.999 170.352 141.784 169.352 140.051C168.353 138.319 166.139 137.726 164.408 138.726C162.677 139.726 162.084 141.941 163.083 143.674C164.083 145.405 166.296 145.999 168.028 144.999Z" fill="#002DB4"/>
<path d="M179.425 158.389C178.547 156.868 176.603 156.346 175.082 157.225C173.562 158.103 173.041 160.049 173.919 161.571C174.797 163.092 176.741 163.613 178.261 162.735C179.782 161.857 180.303 159.911 179.425 158.389Z" fill="#002DB4"/>
<path d="M150.771 20.284C154.111 19.3888 156.092 15.9541 155.198 12.6128C154.303 9.27151 150.87 7.28861 147.531 8.1838C144.192 9.07899 142.211 12.5137 143.105 15.855C144 19.1963 147.432 21.1792 150.771 20.284Z" fill="#002DB4"/>
<path d="M153.049 28.8174C149.944 29.6498 148.102 32.8428 148.934 35.9492C149.766 39.0556 152.957 40.899 156.061 40.0666C159.166 39.2342 161.008 36.0413 160.176 32.9348C159.344 29.8289 156.154 27.985 153.049 28.8174Z" fill="#002DB4"/>
<path d="M158.578 49.45C155.709 50.2192 154.006 53.1712 154.774 56.0428C155.543 58.9144 158.493 60.6183 161.363 59.8491C164.232 59.0795 165.936 56.1279 165.167 53.2563C164.397 50.3848 161.448 48.6809 158.578 49.45Z" fill="#002DB4"/>
<path d="M164.104 70.0833C161.469 70.7897 159.905 73.4999 160.611 76.1367C161.317 78.7734 164.025 80.3383 166.66 79.6314C169.295 78.925 170.859 76.2148 170.153 73.5781C169.446 70.9413 166.739 69.3769 164.104 70.0833Z" fill="#002DB4"/>
<path d="M166.451 96.2308C167.095 98.6327 169.562 100.058 171.962 99.4145C174.362 98.7709 175.786 96.302 175.143 93.9006C174.5 91.4987 172.033 90.0733 169.633 90.7169C167.233 91.3601 165.808 93.8289 166.451 96.2308Z" fill="#002DB4"/>
<path d="M172.28 116.325C172.86 118.492 175.086 119.778 177.252 119.197C179.417 118.617 180.702 116.39 180.122 114.222C179.542 112.055 177.316 110.77 175.151 111.35C172.985 111.931 171.7 114.158 172.28 116.325Z" fill="#002DB4"/>
<path d="M178.12 136.418C178.638 138.351 180.622 139.497 182.553 138.979C184.484 138.462 185.629 136.476 185.112 134.544C184.595 132.612 182.61 131.465 180.68 131.983C178.749 132.501 177.603 134.486 178.12 136.418Z" fill="#002DB4"/>
<path d="M183.957 156.513C184.411 158.21 186.154 159.217 187.851 158.762C189.547 158.308 190.554 156.563 190.099 154.866C189.645 153.168 187.901 152.162 186.205 152.616C184.509 153.071 183.502 154.816 183.957 156.513Z" fill="#002DB4"/>
<path d="M189.785 176.607C190.177 178.069 191.679 178.937 193.14 178.545C194.601 178.153 195.469 176.65 195.077 175.188C194.686 173.726 193.184 172.858 191.722 173.25C190.261 173.641 189.394 175.144 189.785 176.607Z" fill="#002DB4"/>
<path d="M199.907 13.7861C203.223 12.8092 205.12 9.32716 204.144 6.00869C203.168 2.69022 199.688 0.791996 196.372 1.76889C193.056 2.74579 191.159 6.22787 192.135 9.54634C193.111 12.8648 196.591 14.763 199.907 13.7861Z" fill="#002DB4"/>
<path d="M203.959 28.701C203.959 25.4848 201.354 22.8778 198.14 22.8778C194.926 22.8778 192.32 25.4848 192.32 28.701C192.32 31.9171 194.926 34.5241 198.14 34.5241C201.354 34.5241 203.959 31.9171 203.959 28.701Z" fill="#002DB4"/>
<path d="M198.129 55.0048C201.1 55.0048 203.508 52.5945 203.508 49.622C203.508 46.6495 201.1 44.2393 198.129 44.2393C195.159 44.2393 192.75 46.649 192.75 49.622C192.75 52.595 195.158 55.0048 198.129 55.0048Z" fill="#002DB4"/>
<path d="M203.096 70.9488C203.347 68.2304 201.348 65.8231 198.632 65.572C195.916 65.3209 193.51 67.321 193.259 70.0394C193.008 72.7578 195.007 75.165 197.723 75.4161C200.439 75.6672 202.845 73.6672 203.096 70.9488Z" fill="#002DB4"/>
<path d="M202.329 92.9125C203.106 90.5507 201.823 88.0058 199.463 87.2282C197.102 86.4506 194.559 87.7349 193.782 90.0967C193.005 92.4585 194.288 95.0035 196.649 95.7811C199.009 96.5587 201.552 95.2743 202.329 92.9125Z" fill="#002DB4"/>
<path d="M198.126 116.446C200.368 116.446 202.185 114.628 202.185 112.384C202.185 110.141 200.368 108.322 198.126 108.322C195.884 108.322 194.066 110.141 194.066 112.384C194.066 114.628 195.884 116.446 198.126 116.446Z" fill="#002DB4"/>
<path d="M198.139 136.926C200.138 136.926 201.758 135.305 201.758 133.305C201.758 131.305 200.138 129.683 198.139 129.683C196.14 129.683 194.52 131.305 194.52 133.305C194.52 135.305 196.14 136.926 198.139 136.926Z" fill="#002DB4"/>
<path d="M198.14 157.407C199.896 157.407 201.319 155.983 201.319 154.226C201.319 152.469 199.896 151.044 198.14 151.044C196.384 151.044 194.961 152.469 194.961 154.226C194.961 155.983 196.384 157.407 198.14 157.407Z" fill="#002DB4"/>
<path d="M198.245 193.934C196.487 193.934 195.062 195.36 195.062 197.118C195.062 198.876 196.487 200.302 198.245 200.302C200.002 200.302 201.426 198.876 201.426 197.118C201.426 195.36 200.002 193.934 198.245 193.934Z" fill="#002DB4"/>
</svg>
