<svg width="77" height="77" viewBox="0 0 77 77" fill="none" xmlns="http://www.w3.org/2000/svg">
<path d="M47.106 20.423C45.8023 22.5127 43.7874 24.0608 41.4326 24.7823C39.0777 25.5038 36.5414 25.3501 34.2909 24.3495C32.0403 23.3489 30.2272 21.5688 29.1853 19.337C28.1435 17.1053 27.9432 14.5723 28.6213 12.2045C29.2994 9.83676 30.8102 7.79377 32.8755 6.45187C34.9408 5.10997 37.4214 4.55953 39.8604 4.90195C42.2994 5.24437 44.5326 6.45659 46.1485 8.31531C47.7645 10.174 48.6543 12.5541 48.6542 15.017C48.655 16.9285 48.1185 18.8017 47.106 20.423Z" fill="#FFD44C"/>
<path d="M42.3479 24.4552C40.7967 25.0959 39.1113 25.3444 37.4411 25.1786C35.7709 25.0128 34.1673 24.4379 32.7723 23.5047C31.3772 22.5716 30.2336 21.3089 29.4428 19.8285C28.652 18.348 28.2383 16.6955 28.2383 15.0171C28.2383 13.3387 28.652 11.6862 29.4428 10.2057C30.2336 8.72531 31.3772 7.46264 32.7723 6.52946C34.1673 5.59629 35.7709 5.02137 37.4411 4.8556C39.1113 4.68982 40.7967 4.9383 42.3479 5.57903C42.1723 5.65261 41.9966 5.7307 41.8254 5.81329C40.0489 6.66865 38.5578 8.01986 37.5323 9.70385C36.5067 11.3878 35.9904 13.3326 36.0456 15.3036C36.1009 17.2745 36.7253 19.1873 37.8436 20.8112C38.9619 22.4351 40.5263 23.7007 42.3479 24.4552Z" fill="#FFBE19"/>
<path d="M24.0275 30.0337V34.8391H21.6248H12.014H9.61133V30.0337H24.0275Z" fill="#3896D2"/>
<path d="M45.6505 30.0337V34.8391H43.2478H33.6371H31.2344V30.0337H45.6505Z" fill="#3896D2"/>
<path d="M67.2755 30.0337V34.8391H64.8728H55.2621H52.8594V30.0337H67.2755Z" fill="#3896D2"/>
<path d="M24.0275 61.2686V66.0739H9.61133V61.2686H12.014H21.6248H24.0275Z" fill="#3896D2"/>
<path d="M45.6505 61.2686V66.0739H31.2344V61.2686H33.6371H43.2478H45.6505Z" fill="#3896D2"/>
<path d="M67.2755 61.2686V66.0739H52.8594V61.2686H55.2621H64.8728H67.2755Z" fill="#3896D2"/>
<path d="M16.8194 30.0337V34.8391H15.6181H10.8127H9.61133V30.0337H16.8194Z" fill="#0E86D2"/>
<path d="M38.4424 30.0337V34.8391H37.2411H32.4357H31.2344V30.0337H38.4424Z" fill="#0E86D2"/>
<path d="M60.0674 30.0337V34.8391H58.8661H54.0607H52.8594V30.0337H60.0674Z" fill="#0E86D2"/>
<path d="M16.8194 61.2686V66.0739H9.61133V61.2686H10.8127H15.6181H16.8194Z" fill="#0E86D2"/>
<path d="M38.4424 61.2686V66.0739H31.2344V61.2686H32.4357H37.2411H38.4424Z" fill="#0E86D2"/>
<path d="M60.0674 61.2686V66.0739H52.8594V61.2686H54.0607H58.8661H60.0674Z" fill="#0E86D2"/>
<path d="M70.8804 25.2285V30.0339H67.2764H52.8603H45.6522H31.2361H24.028H9.61185H6.00781V25.2285H38.4441H70.8804Z" fill="#3896D2"/>
<path d="M14.4172 25.2285V30.0339H13.9501H12.0812H11.1469H9.27817H8.34383H6.47499H6.00781V25.2285H10.2125H14.4172Z" fill="#0E86D2"/>
<path d="M12.0137 34.8389H21.6244V61.2685H12.0137V34.8389Z" fill="#B4D7F0"/>
<path d="M33.6387 34.8389H43.2494V61.2685H33.6387V34.8389Z" fill="#B4D7F0"/>
<path d="M55.2617 34.8389H64.8725V61.2685H55.2617V34.8389Z" fill="#B4D7F0"/>
<path d="M12.0137 34.8389H16.8191V61.2685H12.0137V34.8389Z" fill="#7DBBE3"/>
<path d="M33.6387 34.8389H38.4441V61.2685H33.6387V34.8389Z" fill="#7DBBE3"/>
<path d="M55.2617 34.8389H60.0671V61.2685H55.2617V34.8389Z" fill="#7DBBE3"/>
<path d="M42.8993 5.75441L42.8707 5.81298C41.4892 5.1497 39.9763 4.80534 38.4438 4.80534C36.9113 4.80534 35.3983 5.1497 34.0168 5.81298L33.9883 5.75441L38.4438 3.604L42.8993 5.75441Z" fill="#B4D7F0"/>
<path d="M29.7793 20.4228C30.696 21.894 31.9725 23.1072 33.4883 23.948C35.0041 24.7888 36.7091 25.2294 38.4425 25.2282H3.60352V23.4397C3.60348 22.5358 3.85835 21.6503 4.33887 20.8848C4.81939 20.1192 5.50607 19.5047 6.32006 19.1118L33.987 5.75439L34.0156 5.81296C32.7223 6.43538 31.5747 7.32337 30.6477 8.41905C29.7206 9.51473 29.0349 10.7935 28.6352 12.172C28.2355 13.5504 28.1308 14.9977 28.3279 16.4193C28.5251 17.841 29.0196 19.2051 29.7793 20.4228Z" fill="#B4D7F0"/>
<path d="M34.0156 5.81296C32.4824 6.55087 31.1579 7.65999 30.1622 9.03965C29.1664 10.4193 28.5311 12.0258 28.3137 13.7133L17.1322 19.1118C16.3182 19.5047 15.6315 20.1192 15.151 20.8848C14.6705 21.6503 14.4156 22.5358 14.4156 23.4397V25.2282H3.60352V23.4397C3.60348 22.5358 3.85835 21.6503 4.33887 20.8848C4.81939 20.1192 5.50607 19.5047 6.32006 19.1118L33.987 5.75439L34.0156 5.81296Z" fill="#7DBBE3"/>
<path d="M47.1066 20.4228C47.8663 19.2051 48.3608 17.841 48.558 16.4193C48.7551 14.9977 48.6504 13.5504 48.2507 12.172C47.851 10.7935 47.1653 9.51473 46.2382 8.41905C45.3112 7.32337 44.1636 6.43538 42.8703 5.81296L42.8988 5.75439L70.5658 19.1118C71.3798 19.5047 72.0665 20.1192 72.547 20.8848C73.0275 21.6503 73.2824 22.5358 73.2824 23.4397V25.2282H38.4434C40.1767 25.2294 41.8818 24.7888 43.3976 23.948C44.9134 23.1072 46.1899 21.894 47.1066 20.4228Z" fill="#B4D7F0"/>
<path d="M69.6775 66.0742C70.6333 66.0742 71.55 66.4539 72.2259 67.1298C72.9018 67.8057 73.2815 68.7224 73.2815 69.6783C73.2815 70.6341 72.9018 71.5508 72.2259 72.2267C71.55 72.9026 70.6333 73.2823 69.6775 73.2823H7.20755C6.2517 73.2823 5.335 72.9026 4.65911 72.2267C3.98323 71.5508 3.60352 70.6341 3.60352 69.6783C3.60352 68.7224 3.98323 67.8057 4.65911 67.1298C5.335 66.4539 6.2517 66.0742 7.20755 66.0742H69.6775Z" fill="#B4D7F0"/>
<path d="M20.4223 73.2823H7.20755C6.2517 73.2823 5.335 72.9026 4.65911 72.2267C3.98323 71.5508 3.60352 70.6341 3.60352 69.6783C3.60352 68.7224 3.98323 67.8057 4.65911 67.1298C5.335 66.4539 6.2517 66.0742 7.20755 66.0742H20.4223C19.4665 66.0742 18.5498 66.4539 17.8739 67.1298C17.198 67.8057 16.8183 68.7224 16.8183 69.6783C16.8183 70.6341 17.198 71.5508 17.8739 72.2267C18.5498 72.9026 19.4665 73.2823 20.4223 73.2823Z" fill="#7DBBE3"/>
<path d="M38.4439 12.0137C38.7624 12.0141 39.0677 12.1407 39.293 12.366C39.5182 12.5912 39.6449 12.8965 39.6452 13.215H42.0479C42.047 12.47 41.8155 11.7436 41.3854 11.1353C40.9552 10.527 40.3473 10.0668 39.6452 9.81764V8.40967H37.2425V9.81764C36.5404 10.0668 35.9326 10.527 35.5024 11.1353C35.0722 11.7436 34.8408 12.47 34.8398 13.215C34.8398 13.4015 34.8833 13.5855 34.9667 13.7523C35.0501 13.9191 35.1712 14.0642 35.3204 14.1761L39.5296 17.3331C39.4128 17.5796 39.2156 17.7791 38.9704 17.8987C38.7252 18.0182 38.4466 18.0508 38.1804 17.991C37.9143 17.9311 37.6764 17.7825 37.5059 17.5695C37.3355 17.3565 37.2426 17.0919 37.2425 16.8191H34.8398C34.8408 17.5641 35.0722 18.2906 35.5024 18.8988C35.9326 19.5071 36.5404 19.9674 37.2425 20.2165V21.6245H39.6452V20.2165C40.3473 19.9674 40.9552 19.5071 41.3854 18.8988C41.8155 18.2906 42.047 17.5641 42.0479 16.8191C42.0479 16.6326 42.0045 16.4486 41.9211 16.2818C41.8377 16.115 41.7166 15.9699 41.5674 15.858L37.3582 12.701C37.4557 12.4955 37.6094 12.3219 37.8016 12.2003C37.9937 12.0786 38.2164 12.0139 38.4439 12.0137Z" fill="#D94736"/>
</svg>
