<svg width="58" height="58" viewBox="0 0 58 58" fill="none" xmlns="http://www.w3.org/2000/svg">
<g clip-path="url(#clip0_11388_5671)">
<path d="M29.4335 4.80538H26.7906C25.9977 2.04229 23.4508 0 20.4234 0C17.396 0 14.8492 2.04229 14.0563 4.80538H11.4133C10.4282 4.80538 9.61133 5.62229 9.61133 6.6074V10.2114C9.61133 12.518 11.5095 14.4161 13.816 14.4161H27.0308C29.3374 14.4161 31.2355 12.518 31.2355 10.2114V6.6074C31.2355 5.62229 30.4186 4.80538 29.4335 4.80538Z" fill="black"/>
<path d="M34.2383 7.20801H33.6377V10.2114C33.6377 13.8635 30.6823 16.8188 27.0303 16.8188H13.8155C10.1634 16.8188 7.20807 13.8635 7.20807 10.2114V7.20801H6.6074C2.95531 7.20801 0 10.1633 0 13.8154V43.849C0 47.5011 2.95531 50.4564 6.6074 50.4564H22.4892C21.2398 47.8855 20.519 45.0504 20.4469 42.047H9.01009C8.02498 42.047 7.20807 41.2301 7.20807 40.245C7.20807 39.2599 8.02498 38.443 9.01009 38.443H20.6391C20.8553 36.9773 21.2157 35.5838 21.6963 34.2383H9.01009C8.02498 34.2383 7.20807 33.4214 7.20807 32.4362C7.20807 31.4511 8.02498 30.6342 9.01009 30.6342H23.4262C24.3392 29.0965 25.4685 27.6789 26.7419 26.4295H9.01009C8.02498 26.4295 7.20807 25.6126 7.20807 24.6275C7.20807 23.6424 8.02498 22.8255 9.01009 22.8255H31.6915C34.4546 21.3839 37.554 20.5189 40.8457 20.4468V13.8154C40.8457 10.1633 37.8904 7.20801 34.2383 7.20801Z" fill="black"/>
<path d="M31.667 53.628C31.0519 53.628 30.4368 53.3926 29.9683 52.924C29.0288 51.9846 29.0288 50.4661 29.9683 49.5266L49.5286 29.9687C50.468 29.0293 51.9865 29.0293 52.926 29.9687C53.8654 30.9082 53.8654 32.4267 52.926 33.3662L33.3657 52.924C32.8947 53.3926 32.2821 53.628 31.667 53.628Z" fill="black"/>
<path d="M41.4467 57.6648C32.5039 57.6648 25.2285 50.3895 25.2285 41.4467C25.2285 32.5039 32.5039 25.2285 41.4467 25.2285C50.3895 25.2285 57.6648 32.5039 57.6648 41.4467C57.6648 50.3895 50.3895 57.6648 41.4467 57.6648ZM41.4467 30.0339C35.154 30.0339 30.0339 35.154 30.0339 41.4467C30.0339 47.7393 35.154 52.8594 41.4467 52.8594C47.7393 52.8594 52.8594 47.7393 52.8594 41.4467C52.8594 35.154 47.7393 30.0339 41.4467 30.0339Z" fill="black"/>
</g>
<defs>
<clipPath id="clip0_11388_5671">
<rect width="57.6645" height="57.6645" fill="white"/>
</clipPath>
</defs>
</svg>
