<svg width="24" height="24" viewBox="0 0 24 24" fill="none" xmlns="http://www.w3.org/2000/svg">
<path d="M21.9834 10.8819C21.4314 10.8819 20.9835 10.4341 20.9835 9.882C20.9835 7.07701 19.8915 4.44102 17.9084 2.45689C17.5175 2.06596 17.5175 1.43407 17.9084 1.04295C18.2994 0.652023 18.9314 0.652023 19.3224 1.04295C21.6835 3.40392 22.9834 6.54308 22.9834 9.882C22.9834 10.4341 22.5355 10.8819 21.9834 10.8819Z" fill="#FAFAFA"/>
<path d="M1.98431 10.8819C1.43243 10.8819 0.984375 10.4341 0.984375 9.882C0.984375 6.54308 2.28442 3.40392 4.64539 1.04295C5.03632 0.652023 5.6684 0.652023 6.05933 1.04295C6.45044 1.43407 6.45044 2.06596 6.05933 2.45689C4.07629 4.43993 2.98444 7.07701 2.98444 9.882C2.98444 10.4341 2.53638 10.8819 1.98431 10.8819Z" fill="#FAFAFA"/>
<path d="M21.3635 16.9131C19.8514 15.635 18.9844 13.767 18.9844 11.788V9C18.9844 5.48108 16.3704 2.56805 12.9844 2.08008V0.999939C12.9844 0.44696 12.5364 0 11.9845 0C11.4324 0 10.9844 0.44696 10.9844 0.999939V2.08008C7.59747 2.56805 4.98438 5.48108 4.98438 9V11.788C4.98438 13.767 4.11737 15.635 2.5965 16.921C2.2074 17.254 1.98438 17.738 1.98438 18.2499C1.98438 19.2151 2.76935 20.0001 3.7345 20.0001H20.2345C21.1995 20.0001 21.9844 19.2151 21.9844 18.2499C21.9844 17.738 21.7614 17.254 21.3635 16.9131Z" fill="#FAFAFA"/>
<path d="M11.9846 24C13.7955 24 15.3105 22.7089 15.6586 21H8.31055C8.65845 22.7089 10.1735 24 11.9846 24Z" fill="#FAFAFA"/>
</svg>
