<svg width="47" height="47" viewBox="0 0 47 47" fill="none" xmlns="http://www.w3.org/2000/svg">
<path d="M39.9696 25.2726C36.9689 27.523 33.3058 29.0854 29.3191 29.8562C28.9165 32.7079 26.4611 34.909 23.5 34.909C20.5389 34.909 18.0835 32.7079 17.6809 29.8562C13.6942 29.0854 10.0311 27.523 7.03045 25.2726C2.49678 21.8723 0 17.3145 0 12.4385V37.4531C0 41.1925 3.04224 44.2346 6.78149 44.2346H40.2185C43.9578 44.2346 47 41.1925 47 37.4531V12.4385C47 17.3145 44.5032 21.8723 39.9696 25.2726Z" fill="#00AA72"/>
<path d="M17.6218 27.031V24.5298C17.6218 23.7694 18.2383 23.1529 18.9987 23.1529H28.0013C28.7617 23.1529 29.3782 23.7694 29.3782 24.5298V27.031C37.9637 25.1675 44.2461 19.3316 44.2461 12.4387V11.0618H33.1731V8.32549C33.1731 5.25975 30.6789 2.76562 27.6132 2.76562H19.3869C16.3212 2.76562 13.827 5.25975 13.827 8.32549V11.0618H2.75391V12.4387C2.75391 19.3316 9.0363 25.1675 17.6218 27.031ZM16.5808 8.32549C16.5808 6.77825 17.8396 5.51953 19.3868 5.51953H27.6131C29.1603 5.51953 30.4191 6.77825 30.4191 8.32549V11.0618H16.5807V8.32549H16.5808Z" fill="#00AA72"/>
<path d="M26.6236 25.9067H20.375V29.031C20.375 30.7538 21.7766 32.1554 23.4993 32.1554C25.222 32.1554 26.6236 30.7538 26.6236 29.031V25.9067Z" fill="#00AA72"/>
</svg>
