<svg width="24" height="24" viewBox="0 0 24 24" fill="none" xmlns="http://www.w3.org/2000/svg">
<path d="M16.5952 1.4823H2.71406C1.21734 1.4823 0 2.69964 0 4.19636V16.3604C0 16.9365 0.651516 17.2613 1.11141 16.9328L4.97719 14.1746C5.30156 13.9435 5.68313 13.8212 6.08156 13.8212H14.5842C16.0809 13.8212 17.2983 12.6039 17.2983 11.1071V2.18542C17.2983 1.7973 16.9833 1.4823 16.5952 1.4823ZM13.1798 9.99996H5.05594C4.66781 9.99996 4.35281 9.68542 4.35281 9.29683C4.35281 8.90871 4.66781 8.59371 5.05594 8.59371H13.1798C13.568 8.59371 13.883 8.90871 13.883 9.29683C13.883 9.68542 13.568 9.99996 13.1798 9.99996ZM13.1798 6.71871H5.05594C4.66781 6.71871 4.35281 6.40417 4.35281 6.01558C4.35281 5.62746 4.66781 5.31246 5.05594 5.31246H13.1798C13.568 5.31246 13.883 5.62746 13.883 6.01558C13.883 6.40417 13.568 6.71871 13.1798 6.71871Z" fill="#FAFAFA"/>
<path d="M23.9995 9.65032V21.8139C23.9995 22.3861 23.3512 22.7171 22.888 22.3863L19.0223 19.6286C18.6979 19.3975 18.3163 19.2752 17.9179 19.2752H9.41523C7.91852 19.2752 6.70117 18.0574 6.70117 16.5606V15.2275H14.5837C16.8557 15.2275 18.704 13.3792 18.704 11.1072V6.93579H21.2854C22.7821 6.93579 23.9995 8.1536 23.9995 9.65032Z" fill="#FAFAFA"/>
</svg>
