<svg width="68" height="68" viewBox="0 0 68 68" fill="none" xmlns="http://www.w3.org/2000/svg">
<path fill-rule="evenodd" clip-rule="evenodd" d="M34 1.9248C39.2656 1.9248 43.5342 4.9257 43.5342 11.8462C43.5342 18.7668 39.2656 24.377 34 24.377C28.7343 24.377 24.4658 18.7668 24.4658 11.8462C24.4658 4.92557 28.7345 1.9248 34 1.9248ZM3.45312 59.688H64.5469C65.2784 59.688 65.875 60.2846 65.875 61.0161V64.7476C65.875 65.4792 65.2784 66.0758 64.5469 66.0758H3.45312C2.72159 66.0758 2.125 65.4792 2.125 64.7476V61.0161C2.125 60.2846 2.72159 59.688 3.45312 59.688ZM48.316 56.5005L50.3706 40.2116C50.3913 40.0472 50.2681 39.9126 50.103 39.9126H17.897C17.7319 39.9126 17.6087 40.0473 17.6294 40.2116L19.684 56.5005H48.316ZM34 46.2186C35.6847 46.2186 37.0504 47.5843 37.0504 49.269C37.0504 50.9537 35.6847 52.3194 34 52.3194C32.3153 52.3194 30.9496 50.9537 30.9496 49.269C30.9496 47.5843 32.3153 46.2186 34 46.2186ZM14.1412 55.8697C13.4097 55.8697 12.8131 55.2731 12.8131 54.5415V36.6234C12.8131 31.9058 17.0238 29.2713 21.7905 28.046C30.0532 25.9212 38.1866 26.0558 46.2095 28.046C50.9874 29.2312 55.1869 31.9086 55.1869 36.6234V54.5415C55.1869 55.2731 54.5903 55.8697 53.8588 55.8697H50.5292L52.4706 40.4771C52.6513 39.0454 51.5465 37.7875 50.103 37.7875H17.897C16.4535 37.7875 15.3487 39.0454 15.5294 40.4771L17.4708 55.8697H14.1412Z" fill="black"/>
</svg>
