<svg width="24" height="24" viewBox="0 0 24 24" fill="none" xmlns="http://www.w3.org/2000/svg">
<g clip-path="url(#clip0_10982_4673)">
<path d="M15.5403 5.30934C15.6232 5.14369 15.6054 4.9485 15.493 4.80651L12.3813 0.724685C12.2926 0.606372 12.1506 0.5354 12.0027 0.5354C11.8548 0.5354 11.7128 0.606372 11.6182 0.724685L8.50655 4.80651C8.39414 4.9485 8.38233 5.14964 8.45921 5.30934C8.54203 5.475 8.70765 5.57555 8.89106 5.57555H9.68967V9.75797C11.7128 10.7577 13.3456 12.42 14.3099 14.4609V5.57555H15.1085C15.2918 5.57555 15.4575 5.46905 15.5403 5.30934Z" fill="#FAFAFA"/>
<path d="M19.728 8.50972C19.586 8.39732 19.3848 8.3855 19.2251 8.46238C19.0595 8.54521 18.9589 8.71082 18.9589 8.89424V9.69285H18.7282C17.5273 9.69285 16.356 9.92947 15.2734 10.3791V15.7624C16.0247 14.875 17.1428 14.313 18.3851 14.313H18.9589V15.1116C18.9589 15.295 19.0654 15.4607 19.2251 15.5435C19.3908 15.6263 19.586 15.6086 19.728 15.4962L23.8098 12.3845C23.9281 12.2958 23.9991 12.1538 23.9991 12.0059C23.9991 11.8521 23.9281 11.716 23.8098 11.6214L19.728 8.50972Z" fill="#FAFAFA"/>
<path d="M0.195232 12.3786L4.27706 15.4902C4.41904 15.6026 4.62018 15.6204 4.77989 15.5376C4.94554 15.4547 5.04609 15.2891 5.04609 15.1057V14.3071H5.61993C7.86792 14.3071 9.68995 16.135 9.68995 18.3771V22.9854C9.68995 23.2516 9.9029 23.4646 10.1691 23.4646H13.8309C14.0971 23.4646 14.3101 23.2516 14.3101 22.9854V18.7261C14.3101 13.7451 10.2578 9.69286 5.27681 9.69286H5.04019V8.89425C5.04019 8.71088 4.93964 8.54522 4.77398 8.4624C4.60833 8.38548 4.41314 8.39733 4.27115 8.50974L0.189284 11.6214C0.0709717 11.7101 0 11.8521 0 12.0059C0.00590765 12.1538 0.0709717 12.2898 0.195232 12.3786Z" fill="#FAFAFA"/>
</g>
<defs>
<clipPath id="clip0_10982_4673">
<rect width="24" height="24" fill="white"/>
</clipPath>
</defs>
</svg>
