<svg width="35" height="43" viewBox="0 0 35 43" fill="none" xmlns="http://www.w3.org/2000/svg">
<path fill-rule="evenodd" clip-rule="evenodd" d="M19.7857 14.5859C20.9803 15.9035 22.0549 17.1515 23.0093 18.3388V32.0779H21.3517C19.7495 32.0779 18.8786 33.9602 19.9155 35.1814L23.3918 39.2757C20.9174 41.1375 17.7015 42.2447 14.1749 42.1853C4.01082 42.3565 -3.5788 32.8422 1.75625 23.4745C3.24107 20.8675 5.51058 17.9542 8.56443 14.5858C8.86651 14.6713 9.18494 14.7172 9.51374 14.7172H18.8365C19.1652 14.7172 19.4836 14.6714 19.7857 14.5859ZM28.2942 42.0189L34.8725 34.2712C35.1364 33.9601 34.9162 33.4841 34.5083 33.4841H31.4444V18.258C31.4444 17.7317 31.0151 17.3024 30.4887 17.3024L25.3711 17.3025C24.8448 17.3025 24.4156 17.7318 24.4155 18.2581V33.4841H21.3516C20.9437 33.4841 20.7236 33.9602 20.9874 34.2712L27.5657 42.0189C27.7566 42.2437 28.1035 42.2438 28.2942 42.0189ZM9.51365 13.3109H18.8364C19.9858 13.3109 20.9262 12.3705 20.9262 11.2213C20.9262 10.0719 19.9858 9.13166 18.8364 9.13166H9.51365C8.36422 9.13166 7.42396 10.0719 7.42396 11.2213C7.42396 12.3707 8.36422 13.3109 9.51365 13.3109ZM14.7073 32.5695C13.2465 32.7467 11.5786 32.1848 11.1889 30.6222C11.0964 30.2461 10.7164 30.0161 10.3403 30.1086C9.96409 30.2012 9.73417 30.5811 9.82663 30.9573C10.2576 32.6863 11.7266 33.7232 13.4321 33.9561V34.9034C13.4321 35.2917 13.7469 35.6065 14.1352 35.6065C14.5235 35.6065 14.8383 35.2917 14.8383 34.9033V33.9687L14.8721 33.9647C16.677 33.7456 18.5107 32.6757 18.4621 30.6383C18.4592 30.5184 18.452 30.4095 18.4403 30.3127C18.1723 28.1049 16.1853 27.3317 14.2581 27.0153C13.5963 26.9067 12.8959 26.7205 12.3731 26.3792C11.9319 26.0912 11.6152 25.6719 11.5853 25.0556C11.529 23.8955 12.4629 23.1678 13.5093 22.957C13.9812 22.862 14.4956 22.8733 14.961 22.9912C15.7373 23.188 16.4439 23.6994 16.8159 24.5852C16.966 24.9432 17.378 25.1117 17.736 24.9615C18.094 24.8113 18.2625 24.3993 18.1123 24.0413C17.5267 22.6468 16.3222 21.7505 14.8383 21.5373V20.593C14.8383 20.2047 14.5235 19.8898 14.1352 19.8898C13.7469 19.8898 13.4321 20.2047 13.4321 20.593V21.5483C13.3659 21.5587 13.3002 21.5706 13.2347 21.5837C11.4993 21.9331 10.0937 23.2514 10.1845 25.1214C10.2883 27.2608 12.1861 28.0963 14.0328 28.3995C15.2559 28.6003 16.8678 29.0184 17.0449 30.4774C17.0547 30.5581 17.0601 30.6224 17.0613 30.6712C17.091 31.9166 15.7447 32.4436 14.7073 32.5695ZM9.73645 7.72541L7.72121 5.71025C6.88607 4.87512 6.88607 3.50842 7.72121 2.67328C8.43154 1.96295 9.55601 1.84289 10.4013 2.38544C11.0521 2.80301 11.9117 2.44714 12.0765 1.69154C12.287 0.727734 13.1501 8.78906e-05 14.175 0C15.1814 0 16.0591 0.709278 16.2736 1.69163C16.4385 2.44705 17.298 2.80318 17.9488 2.38553C18.7938 1.84315 19.9185 1.96304 20.6288 2.67319C21.464 3.50833 21.464 4.87521 20.6288 5.71025L18.6137 7.72532L9.73645 7.72541Z" fill="#00AA72"/>
</svg>
