<svg width="36" height="34" viewBox="0 0 36 34" fill="none" xmlns="http://www.w3.org/2000/svg">
<g clip-path="url(#clip0_10987_5008)">
<path d="M35.6166 30.3252L27.6966 18.1716C27.2451 17.4491 26.4051 17 25.5006 17C24.5961 17 23.7561 17.4491 23.3166 18.1546L15.4101 30.2883C14.3226 31.8084 15.4941 34 17.5686 34H33.4326C35.5311 34 36.6561 31.7702 35.6166 30.3252ZM25.5006 31.875C24.6726 31.875 24.0006 31.2403 24.0006 30.4583C24.0006 29.6763 24.6726 29.0417 25.5006 29.0417C26.3286 29.0417 27.0006 29.6763 27.0006 30.4583C27.0006 31.2403 26.3286 31.875 25.5006 31.875ZM27.0006 26.2083C27.0006 26.9903 26.3301 27.625 25.5006 27.625C24.6711 27.625 24.0006 26.9903 24.0006 26.2083V21.9583C24.0006 21.1763 24.6711 20.5417 25.5006 20.5417C26.3301 20.5417 27.0006 21.1763 27.0006 21.9583V26.2083Z" fill="#00AA72"/>
<path d="M28.5 0H4.5C2.0145 0 0 1.90258 0 4.25C0 6.59742 2.0145 8.5 4.5 8.5H28.5C30.9855 8.5 33 6.59742 33 4.25C33 1.90258 30.9855 0 28.5 0ZM4.5 5.66667C3.672 5.66667 3 5.032 3 4.25C3 3.468 3.672 2.83333 4.5 2.83333C5.328 2.83333 6 3.468 6 4.25C6 5.032 5.328 5.66667 4.5 5.66667ZM10.5 5.66667C9.672 5.66667 9 5.032 9 4.25C9 3.468 9.672 2.83333 10.5 2.83333C11.328 2.83333 12 3.468 12 4.25C12 5.032 11.328 5.66667 10.5 5.66667Z" fill="#00AA72"/>
<path d="M28.5 11.3333H4.5C2.01 11.3333 0 13.2316 0 15.5833C0 17.9349 2.01 19.8333 4.5 19.8333H18.705L20.76 16.6741C21.705 15.1441 23.535 14.1666 25.5 14.1666C27.465 14.1666 29.295 15.1441 30.285 16.7308L31.56 18.6858C32.445 17.9208 33 16.8158 33 15.5833C33 13.2316 30.99 11.3333 28.5 11.3333ZM4.5 16.9999C3.675 16.9999 3 16.3624 3 15.5833C3 14.8041 3.675 14.1666 4.5 14.1666C5.325 14.1666 6 14.8041 6 15.5833C6 16.3624 5.325 16.9999 4.5 16.9999ZM10.5 16.9999C9.675 16.9999 9 16.3624 9 15.5833C9 14.8041 9.675 14.1666 10.5 14.1666C11.325 14.1666 12 14.8041 12 15.5833C12 16.3624 11.325 16.9999 10.5 16.9999Z" fill="#00AA72"/>
<path d="M4.5 22.6667C2.01 22.6667 0 24.5651 0 26.9167C0 29.2684 2.01 31.1667 4.5 31.1667H12.03C12.09 30.2742 12.405 29.4384 12.93 28.7017L16.86 22.6667H4.5ZM4.5 28.3334C3.675 28.3334 3 27.6959 3 26.9167C3 26.1376 3.675 25.5001 4.5 25.5001C5.325 25.5001 6 26.1376 6 26.9167C6 27.6959 5.325 28.3334 4.5 28.3334ZM10.5 28.3334C9.675 28.3334 9 27.6959 9 26.9167C9 26.1376 9.675 25.5001 10.5 25.5001C11.325 25.5001 12 26.1376 12 26.9167C12 27.6959 11.325 28.3334 10.5 28.3334Z" fill="#00AA72"/>
</g>
<defs>
<clipPath id="clip0_10987_5008">
<rect width="36" height="34" fill="white"/>
</clipPath>
</defs>
</svg>
