<svg width="26" height="26" viewBox="0 0 26 26" fill="none" xmlns="http://www.w3.org/2000/svg">
<path d="M22.5186 17.693H20.9025V4.76387C20.9025 2.83694 19.3485 1.28296 17.4216 1.28296H3.31144C3.24928 1.28296 3.18712 1.28296 3.12496 1.31404C1.19803 1.5316 -0.169473 3.24097 0.0170042 5.1679C0.203482 6.78404 1.47774 8.08938 3.12496 8.27586C3.18712 8.27586 3.24928 8.30694 3.31144 8.30694H3.49792V21.236V21.2671C3.529 23.163 5.08297 24.717 6.97883 24.717H22.27H22.3632H22.5186C24.4455 24.717 25.9995 23.163 25.9995 21.236C26.0306 19.2469 24.4455 17.693 22.5186 17.693ZM3.49792 6.41109V6.38001C2.59661 6.38001 1.88178 5.66518 1.88178 4.76387C1.88178 3.86256 2.59661 3.14773 3.49792 3.14773H14.3447C13.8163 4.17336 13.8163 5.38546 14.3447 6.41109H3.49792ZM18.4161 19.1226H5.67349V17.2579H18.4161V19.1226ZM18.4161 15.3931H5.67349V13.5283H18.4161V15.3931ZM18.4161 11.6635H5.67349V9.79876H18.4161V11.6635ZM22.5497 22.79C21.6484 22.79 20.9336 22.0752 20.9336 21.1739V19.5577H22.5497C23.451 19.5577 24.1658 20.2726 24.1658 21.1739C24.1658 22.0752 23.451 22.79 22.5497 22.79Z" fill="#FAFAFA"/>
</svg>
