<svg width="42" height="42" viewBox="0 0 42 42" fill="none" xmlns="http://www.w3.org/2000/svg">
<g clip-path="url(#clip0_11004_5152)">
<path d="M0.148197 10.1719C-0.0493988 11.4769 -0.0493988 12.8043 0.148197 14.1094L3.34742 15.12C3.79761 16.5778 4.57159 17.9148 5.61148 19.0312L4.8896 22.3125C5.91859 23.1376 7.06702 23.8014 8.29554 24.2812L10.7729 22.0139C12.2607 22.3557 13.8066 22.3557 15.2944 22.0139L17.7718 24.2812C19.0003 23.8014 20.1487 23.1376 21.1777 22.3125L20.4526 19.0312C21.4934 17.913 22.2675 16.5736 22.7166 15.1134L25.9224 14.1094C26.12 12.8043 26.12 11.4769 25.9224 10.1719L22.7232 9.16125C22.2712 7.70285 21.4949 6.36569 20.4526 5.25L21.1777 1.96875C20.1487 1.1437 19.0003 0.479862 17.7718 0L15.2944 2.26734C13.8066 1.92552 12.2607 1.92552 10.7729 2.26734L8.29554 0C7.06702 0.479862 5.91859 1.1437 4.8896 1.96875L5.61148 5.25C4.57065 6.36823 3.7966 7.70768 3.34742 9.16781L0.148197 10.1719ZM13.0337 7.52063C13.9466 7.52063 14.8391 7.79131 15.5982 8.29845C16.3574 8.8056 16.9491 9.52644 17.2986 10.3698C17.6482 11.2132 17.7398 12.1413 17.5619 13.0368C17.384 13.9323 16.9447 14.7549 16.2993 15.4007C15.654 16.0465 14.8317 16.4864 13.9364 16.665C13.041 16.8435 12.1128 16.7525 11.2692 16.4036C10.4255 16.0547 9.70428 15.4634 9.1966 14.7046C8.68891 13.9459 8.4176 13.0536 8.41695 12.1406C8.41695 10.9162 8.90335 9.74191 9.76915 8.87611C10.635 8.01031 11.8092 7.52391 13.0337 7.52391V7.52063Z" fill="#00AA72"/>
<path d="M39.5624 24.7669C39.0202 24.5078 38.4073 24.4362 37.82 24.5634C37.5374 24.1704 37.2212 23.8026 36.875 23.4642C35.8218 22.4273 34.1122 23.7464 34.1122 23.7464C34.1122 23.7464 34.0138 22.5815 33.0327 22.26C32.2747 22.0139 30.3224 22.1025 30.4635 23.8055C30.4635 23.8055 30.2568 13.4006 29.6038 12.1111C28.9508 10.8215 27.5727 11.76 27.3069 12.0586C27.0411 12.3572 27.1724 23.625 27.2347 24.6553C27.2971 25.6856 27.0411 29.9053 27.0411 29.9053C26.4522 29.4566 25.9926 28.86 25.7089 28.1761C25.2266 27.1097 24.1799 25.9776 22.3457 25.2754C20.5114 24.5733 19.4746 25.6561 19.8257 26.6306C20.1768 27.6051 21.6008 28.7831 22.4507 30.2826C23.3005 31.7822 23.6089 33.5114 24.4654 34.9256C25.3218 36.3398 26.4833 38.092 27.1166 39.4669C27.7499 40.8417 30.3486 42.0919 30.3486 42.0919H40.8716C40.8716 42.0919 41.856 38.3644 41.9839 35.933C42.1119 33.5015 41.18 28.8717 41.0455 27.0736C40.911 25.2755 40.4877 25.2 39.5624 24.7669Z" fill="#00AA72"/>
</g>
<defs>
<clipPath id="clip0_11004_5152">
<rect width="42" height="42" fill="white"/>
</clipPath>
</defs>
</svg>
