<svg width="86" height="86" viewBox="0 0 86 86" fill="none" xmlns="http://www.w3.org/2000/svg">
<path fill-rule="evenodd" clip-rule="evenodd" d="M8.0569 58.2129H22.7422C23.4818 58.2127 24.1102 58.671 24.3361 59.3753L28.4231 72.113C28.5918 72.6388 28.5069 73.1647 28.1815 73.6107C27.8562 74.0568 27.3813 74.2981 26.8292 74.2981C17.1179 74.2981 13.6807 74.2981 3.96977 74.2981C3.4176 74.2983 2.94259 74.0569 2.61721 73.6109C2.29184 73.1648 2.20698 72.6388 2.37569 72.113L6.46265 59.3753C6.68877 58.6708 7.3171 58.2127 8.0569 58.2129Z" fill="#DAA33B"/>
<path fill-rule="evenodd" clip-rule="evenodd" d="M50.1911 58.2129C42.9498 58.2129 42.7471 58.2129 35.5058 58.2129C34.7662 58.2127 34.1378 58.671 33.9119 59.3753L29.8249 72.113C29.6562 72.6388 29.7411 73.1647 30.0664 73.6107C30.3918 74.0568 30.8667 74.2981 31.4188 74.2981H54.2784C54.8305 74.2983 55.3056 74.0569 55.6309 73.6109C55.9563 73.1648 56.0412 72.6388 55.8725 72.113L51.7855 59.3753C51.5592 58.6708 50.9309 58.2127 50.1911 58.2129Z" fill="#DAA33B"/>
<path fill-rule="evenodd" clip-rule="evenodd" d="M62.9555 58.2129H77.6408C78.3806 58.2127 79.0088 58.671 79.2347 59.3753L83.3217 72.113C83.4904 72.6388 83.4055 73.1647 83.0802 73.6107C82.7548 74.0568 82.2799 74.2981 81.7278 74.2981C72.0165 74.2981 68.5793 74.2981 58.8682 74.2981C58.316 74.2983 57.841 74.0569 57.5157 73.6109C57.1903 73.1648 57.1054 72.6388 57.2741 72.113L61.3611 59.3753C61.5874 58.6708 62.2157 58.2127 62.9555 58.2129Z" fill="#DAA33B"/>
<path fill-rule="evenodd" clip-rule="evenodd" d="M36.4665 42.2847C29.2252 42.2847 29.0225 42.2847 21.7812 42.2847C21.0415 42.2845 20.4132 42.7428 20.1873 43.4471L16.1003 56.1848C15.9316 56.7105 16.0164 57.2364 16.3418 57.6825C16.6672 58.1285 17.142 58.3699 17.6942 58.3699H40.5538C41.1058 58.3701 41.5809 58.1285 41.9062 57.6825C42.2315 57.2364 42.3164 56.7104 42.1477 56.1848L38.0607 43.4471C37.8346 42.7426 37.2063 42.2845 36.4665 42.2847Z" fill="#F5B945"/>
<path fill-rule="evenodd" clip-rule="evenodd" d="M49.2307 42.2847H63.916C64.6558 42.2845 65.284 42.7428 65.5099 43.4471L69.5969 56.1848C69.7656 56.7105 69.6807 57.2364 69.3554 57.6825C69.03 58.1285 68.5552 58.3699 68.003 58.3699C58.2917 58.3699 54.8545 58.3699 45.1434 58.3699C44.5914 58.3701 44.1163 58.1285 43.791 57.6825C43.4657 57.2364 43.3808 56.7104 43.5495 56.1848L47.6365 43.4471C47.8628 42.7426 48.4911 42.2845 49.2307 42.2847Z" fill="#F5B945"/>
<path fill-rule="evenodd" clip-rule="evenodd" d="M35.5061 26.3252H50.1914C50.931 26.325 51.5594 26.7833 51.7853 27.4876L55.8723 40.2253C56.041 40.7511 55.9561 41.277 55.6308 41.723C55.3054 42.1691 54.8305 42.4104 54.2784 42.4104C44.5671 42.4104 41.1299 42.4104 31.419 42.4104C30.8668 42.4106 30.3918 42.1692 30.0664 41.7232C29.7411 41.2771 29.6562 40.7511 29.8249 40.2253L33.9119 27.4876C34.138 26.7831 34.7663 26.325 35.5061 26.3252Z" fill="#FDCD56"/>
<path fill-rule="evenodd" clip-rule="evenodd" d="M44.5232 20.4886C44.5232 21.413 43.7739 22.1623 42.8495 22.1623C41.9251 22.1623 41.1757 21.413 41.1757 20.4886V13.0712C41.1757 12.1468 41.9251 11.3975 42.8495 11.3975C43.7739 11.3975 44.5232 12.1468 44.5232 13.0712V20.4886ZM60.1145 27.0634C59.526 27.7711 58.4751 27.8676 57.7674 27.2792C57.0596 26.6907 56.963 25.6397 57.5517 24.9319L62.8934 18.5082C63.4819 17.8006 64.5329 17.7038 65.2405 18.2925C65.9484 18.881 66.0449 19.9319 65.4563 20.6397L60.1145 27.0634ZM28.1474 24.9319C28.7359 25.6396 28.6393 26.6905 27.9317 27.2792C27.2238 27.8676 26.1731 27.7711 25.5844 27.0634L20.2426 20.6397C19.6542 19.9321 19.7507 18.8811 20.4584 18.2925C21.1661 17.704 22.217 17.8006 22.8057 18.5082L28.1474 24.9319Z" fill="#FDCD56"/>
</svg>
