<svg width="32" height="32" viewBox="0 0 32 32" fill="none" xmlns="http://www.w3.org/2000/svg">
<g clip-path="url(#clip0_10982_4460)">
<path d="M16 0.349609C21.4743 0.349609 26.458 3.1345 29.333 7.80176C29.8104 8.57725 29.5687 9.59367 28.792 10.0723C28.0166 10.5495 27.001 10.3088 26.5225 9.53223C24.2549 5.85029 20.319 3.65039 16 3.65039C9.19077 3.65039 3.65059 9.19189 3.65039 16.001C3.65039 22.8103 9.1907 28.3516 16 28.3516C20.319 28.3516 24.2549 26.1507 26.5225 22.4688L26.5215 22.4678C27 21.6932 28.0167 21.4524 28.792 21.9277V21.9287C29.5687 22.4073 29.8103 23.4237 29.333 24.1992C26.458 28.8653 21.4744 31.6504 16 31.6504C7.37063 31.6504 0.349609 24.6294 0.349609 16C0.349609 7.37063 7.37063 0.349609 16 0.349609ZM14.1572 8.8418C14.7567 8.23308 15.7127 8.18989 16.3652 8.71387L16.4922 8.82715C17.0991 9.42769 17.1434 10.3836 16.6191 11.0352L16.5068 11.1611L13.9453 13.7559L13.3574 14.3516H29.999C30.9108 14.3518 31.6482 15.0892 31.6484 16.001V16.0371C31.6287 16.932 30.8996 17.6504 30 17.6504H13.3584L13.9473 18.2461L16.5078 20.8408C17.1479 21.4898 17.1403 22.5344 16.4922 23.1748C16.1711 23.4913 15.7527 23.6504 15.333 23.6504C14.9603 23.6503 14.5882 23.5247 14.2842 23.2744L14.1582 23.1592L9.16797 18.1025L9.16602 18.1006C8.01392 16.9471 8.01328 15.0541 9.17578 13.8916L9.17676 13.8896L14.1572 8.8418Z" fill="#FAFAFA" stroke="#00AA72" stroke-width="0.7"/>
</g>
<defs>
<clipPath id="clip0_10982_4460">
<rect width="32" height="32" fill="white"/>
</clipPath>
</defs>
</svg>
