<svg width="45" height="45" viewBox="0 0 45 45" fill="none" xmlns="http://www.w3.org/2000/svg">
<path d="M20.1562 23.9438C20.1562 22.3313 21.0375 20.8875 22.4625 20.175L26.2125 18.2625C26.8125 17.9625 27.4688 17.8125 28.125 17.8125H33.2812V9.375C33.2812 6.525 30.975 4.21875 28.125 4.21875H11.25C8.4 4.21875 6.09375 6.525 6.09375 9.375V33.75C6.09375 36.6 8.4 38.9062 11.25 38.9062H24.1125C21.6187 36.225 20.1562 32.6437 20.1562 28.8375V23.9438ZM11.25 9.84375H24.375C25.1513 9.84375 25.7812 10.4738 25.7812 11.25C25.7812 12.0262 25.1513 12.6562 24.375 12.6562H11.25C10.4738 12.6562 9.84375 12.0262 9.84375 11.25C9.84375 10.4738 10.4738 9.84375 11.25 9.84375ZM16.875 23.9062H11.25C10.4738 23.9062 9.84375 23.2763 9.84375 22.5C9.84375 21.7237 10.4738 21.0938 11.25 21.0938H16.875C17.6512 21.0938 18.2812 21.7237 18.2812 22.5C18.2812 23.2763 17.6512 23.9062 16.875 23.9062ZM18.75 18.2812H11.25C10.4738 18.2812 9.84375 17.6512 9.84375 16.875C9.84375 16.0988 10.4738 15.4688 11.25 15.4688H18.75C19.5262 15.4688 20.1562 16.0988 20.1562 16.875C20.1562 17.6512 19.5262 18.2812 18.75 18.2812ZM40.0125 22.68L36.2625 20.7769C36.0656 20.6775 35.8463 20.625 35.625 20.625H28.125C27.9037 20.625 27.6862 20.6775 27.4875 20.7769L23.7375 22.68C23.265 22.92 22.9688 23.4056 22.9688 23.9344V28.8431C22.9688 33.825 26.0813 38.3494 30.72 40.1025C31.0913 40.2431 31.4813 40.3125 31.8731 40.3125C32.265 40.3125 32.6587 40.2412 33.0356 40.1006C37.6687 38.3494 40.7812 33.825 40.7812 28.8431V23.9344C40.7812 23.4056 40.485 22.92 40.0125 22.68ZM35.7375 28.5712L32.3625 32.3494C32.0944 32.6475 31.7138 32.8181 31.3125 32.8181C30.9113 32.8181 30.5306 32.6475 30.2625 32.3494L28.0125 29.8294C27.4969 29.25 27.5456 28.3612 28.125 27.8438C28.7062 27.3281 29.5912 27.375 30.1125 27.9562L31.3144 29.3006L33.6394 26.6962C34.155 26.1169 35.0437 26.0681 35.6269 26.5838C36.2062 27.1013 36.255 27.99 35.7394 28.5694L35.7375 28.5712Z" fill="#00AA72"/>
</svg>
