<svg width="44" height="44" viewBox="0 0 44 44" fill="none" xmlns="http://www.w3.org/2000/svg">
<path d="M18.3333 27.5C17.8471 27.5 17.3808 27.3068 17.037 26.963C16.6932 26.6192 16.5 26.1529 16.5 25.6667V18.3333C16.5 17.8471 16.6932 17.3808 17.037 17.037C17.3808 16.6932 17.8471 16.5 18.3333 16.5H25.6667C26.1529 16.5 26.6192 16.6932 26.963 17.037C27.3068 17.3808 27.5 17.8471 27.5 18.3333V25.6667C27.5 26.1529 27.3068 26.6192 26.963 26.963C26.6192 27.3068 26.1529 27.5 25.6667 27.5H18.3333ZM38.5 20.1667C38.5 19.1942 38.1137 18.2616 37.4261 17.5739C36.7384 16.8863 35.8058 16.5 34.8333 16.5H30.8288C31.0462 17.0871 31.1605 17.7073 31.1667 18.3333V25.6667C31.1651 27.1249 30.5851 28.5229 29.554 29.554C28.5229 30.5851 27.1249 31.1651 25.6667 31.1667H18.3333C17.7073 31.1604 17.0871 31.0461 16.5 30.8288V34.8333C16.5 35.8058 16.8863 36.7384 17.5739 37.4261C18.2616 38.1137 19.1942 38.5 20.1667 38.5H34.8333C35.8058 38.5 36.7384 38.1137 37.4261 37.4261C38.1137 36.7384 38.5 35.8058 38.5 34.8333V20.1667ZM9.16667 5.5C8.19421 5.5 7.26157 5.88631 6.57394 6.57394C5.88631 7.26157 5.5 8.19421 5.5 9.16667V23.8333C5.5 24.8058 5.88631 25.7384 6.57394 26.4261C7.26157 27.1137 8.19421 27.5 9.16667 27.5H13.1712C12.9539 26.9129 12.8396 26.2927 12.8333 25.6667V18.3333C12.8349 16.8751 13.4149 15.4771 14.446 14.446C15.4771 13.4149 16.8751 12.8349 18.3333 12.8333H25.6667C26.2927 12.8395 26.9129 12.9538 27.5 13.1712V9.16667C27.5 8.19421 27.1137 7.26157 26.4261 6.57394C25.7384 5.88631 24.8058 5.5 23.8333 5.5H9.16667Z" fill="#00AA72"/>
</svg>
