<svg width="26" height="26" viewBox="0 0 26 26" fill="none" xmlns="http://www.w3.org/2000/svg">
<g clip-path="url(#clip0_10982_4704)">
<path d="M3.25 14.625C3.25 13.2809 4.34338 12.1875 5.6875 12.1875C7.03162 12.1875 8.125 13.2809 8.125 14.625H9.75C9.75 14.625 9.75 11.976 9.75 11.9685C9.75 11.3615 10.4495 10.9622 10.9731 11.2671C11.501 11.5745 12.1875 11.174 12.1875 10.5625C12.1875 9.97238 11.4917 9.55272 10.9732 9.85786C10.4435 10.1695 9.75 9.76822 9.75 9.15649V4.875H2.4375C1.09338 4.875 0 5.96838 0 7.3125V14.625H3.25Z" fill="#FAFAFA"/>
<path d="M9.75 22.75C8.40588 22.75 7.3125 21.6566 7.3125 20.3125C7.3125 18.9684 8.40588 17.875 9.75 17.875V16.25H7.09311C6.48702 16.25 6.07651 15.5659 6.39206 15.0265C6.69679 14.5057 6.30256 13.8125 5.68756 13.8125C5.09911 13.8125 4.67932 14.5094 4.98288 15.0264C5.2949 15.5579 4.89669 16.25 4.28189 16.25H0V23.5625C0 24.9066 1.09338 26 2.4375 26H9.75V22.75Z" fill="#FAFAFA"/>
<path d="M17.875 16.25C17.875 17.5941 16.7816 18.6875 15.4375 18.6875C14.0934 18.6875 13 17.5941 13 16.25H11.375V18.9065C11.375 19.5153 10.677 19.9144 10.1519 19.6079C9.62711 19.3017 8.93752 19.7002 8.9375 20.3125C8.93748 20.9048 9.63231 21.3229 10.1519 21.0171C10.6788 20.707 11.375 21.1128 11.375 21.7185V26H18.6875C20.0316 26 21.125 24.9066 21.125 23.5625V16.25H17.875Z" fill="#FAFAFA"/>
<path d="M23.5625 0H15.4375C14.9884 0 14.625 0.363407 14.625 0.8125V4.28148C14.625 4.89744 15.3175 5.29276 15.8485 4.98292C16.3801 4.67269 17.0625 5.08236 17.0625 5.68748C17.0625 6.28061 16.3689 6.69939 15.8486 6.39213C15.3209 6.08055 14.625 6.4878 14.625 7.09351V10.5625C14.625 11.0116 14.9884 11.375 15.4375 11.375H17.875C17.875 12.7191 18.9684 13.8125 20.3125 13.8125C21.6566 13.8125 22.75 12.7191 22.75 11.375H25.1875C25.6366 11.375 26 11.0116 26 10.5625V2.4375C26 1.09338 24.9066 0 23.5625 0Z" fill="#FAFAFA"/>
</g>
<defs>
<clipPath id="clip0_10982_4704">
<rect width="26" height="26" fill="white"/>
</clipPath>
</defs>
</svg>
