<svg width="24" height="24" viewBox="0 0 24 24" fill="none" xmlns="http://www.w3.org/2000/svg">
<g clip-path="url(#clip0_10982_4721)">
<path d="M10 11C12.2091 11 14 9.20914 14 7C14 4.79086 12.2091 3 10 3C7.79086 3 6 4.79086 6 7C6 9.20914 7.79086 11 10 11Z" fill="#FAFAFA"/>
<path d="M23.7103 22.29L17.7503 16.33C19.3697 14.3464 20.165 11.8163 19.9717 9.2628C19.7784 6.70936 18.6113 4.32782 16.7117 2.61056C14.812 0.893298 12.3252 -0.0283609 9.76525 0.0361287C7.20531 0.100618 4.76803 1.14632 2.9573 2.95705C1.14657 4.76778 0.100862 7.20507 0.0363728 9.76501C-0.0281167 12.325 0.893542 14.8118 2.6108 16.7114C4.32806 18.611 6.7096 19.7781 9.26305 19.9714C11.8165 20.1647 14.3466 19.3694 16.3303 17.75L22.2903 23.71C22.4798 23.8959 22.7348 24 23.0003 24C23.2658 24 23.5207 23.8959 23.7103 23.71C23.8976 23.5212 24.0027 23.266 24.0027 23C24.0027 22.734 23.8976 22.4788 23.7103 22.29ZM10.0003 12C8.80751 11.9985 7.64178 12.3551 6.65404 13.0237C5.6663 13.6923 4.90205 14.6421 4.46026 15.75C3.68124 15.0089 3.06136 14.1168 2.63842 13.1282C2.21548 12.1396 1.99835 11.0753 2.00026 10C1.99801 8.68342 2.32073 7.38662 2.93981 6.22465C3.55888 5.06269 4.45517 4.07147 5.54916 3.33893C6.64315 2.6064 7.90103 2.15519 9.21121 2.02533C10.5214 1.89548 11.8434 2.09099 13.0599 2.59452C14.2764 3.09806 15.3498 3.89405 16.1849 4.91189C17.02 5.92972 17.591 7.13794 17.8473 8.42936C18.1035 9.72078 18.0371 11.0555 17.6538 12.3151C17.2706 13.5746 16.5824 14.7202 15.6503 15.65C15.6161 15.686 15.5794 15.7195 15.5403 15.75C15.0985 14.6421 14.3342 13.6923 13.3465 13.0237C12.3587 12.3551 11.193 11.9985 10.0003 12Z" fill="#FAFAFA"/>
</g>
<defs>
<clipPath id="clip0_10982_4721">
<rect width="24" height="24" fill="white"/>
</clipPath>
</defs>
</svg>
