<svg width="34" height="34" viewBox="0 0 34 34" fill="none" xmlns="http://www.w3.org/2000/svg">
<path d="M8.33789 8.33826C12.3466 4.32956 18.4404 3.68064 23.125 6.38806C23.5633 6.64138 23.7133 7.2026 23.46 7.64099C23.2065 8.07898 22.6461 8.22906 22.208 7.97595C18.224 5.67327 13.0419 6.22739 9.63477 9.63416C5.5668 13.7021 5.56681 20.2976 9.63477 24.3656C13.0419 27.7725 18.2239 28.3276 22.208 26.0248C22.6462 25.7715 23.2066 25.9215 23.46 26.3597C23.7133 26.7982 23.5633 27.3583 23.125 27.6117C18.4404 30.3193 12.3466 29.6711 8.33789 25.6625C3.554 20.8786 3.55405 13.1222 8.33789 8.33826ZM26.2686 12.1019C26.6264 11.7441 27.2065 11.7442 27.5645 12.1019L30.2441 14.7816C30.5012 15.0387 30.7317 15.2692 30.9072 15.476C31.0971 15.6998 31.277 15.9564 31.3818 16.2787C31.5341 16.7473 31.535 17.2526 31.3828 17.7211H31.3818C31.277 18.0439 31.0972 18.301 30.9072 18.5248C30.8195 18.6281 30.718 18.7373 30.6064 18.8529L30.2441 19.2191L27.5645 21.8988C27.2066 22.2562 26.6264 22.2563 26.2686 21.8988C25.9106 21.5409 25.9106 20.9599 26.2686 20.6019L28.9541 17.9164H17C16.4938 17.9164 16.0831 17.5066 16.083 17.0004C16.083 16.4941 16.4937 16.0834 17 16.0834H28.9541L28.1006 15.2299L26.2686 13.3988C25.9106 13.0408 25.9106 12.4599 26.2686 12.1019Z" fill="#FAFAFA" stroke="#FAFAFA"/>
</svg>
