<svg width="45" height="45" viewBox="0 0 45 45" fill="none" xmlns="http://www.w3.org/2000/svg">
<g clip-path="url(#clip0_11004_5150)">
<path d="M27.1931 23.1356L26.2219 24.1181V5.625C26.2219 2.51813 28.74 0 31.8469 0H39.3469C42.4538 0 44.9719 2.51813 44.9719 5.625V20.625C44.9719 23.25 43.1663 25.4363 40.7344 26.0569C40.1869 24.4688 39.1969 23.0775 37.7869 22.0763C34.5562 19.7794 30.1088 20.2238 27.195 23.1338L27.1931 23.1356ZM41.22 30H41.0738C40.8638 31.2863 40.3875 32.5256 39.5981 33.5794L35.0138 38.1094C34.2844 38.8388 33.0994 38.8237 32.3888 38.0756C31.7044 37.3556 31.7175 36.2213 32.4188 35.5181L36.5962 31.3294C38.0494 29.3925 37.6688 26.5931 35.6119 25.1306C33.8456 23.8763 31.3894 24.24 29.8575 25.7719L23.7581 31.935C22.3519 33.3413 21.5606 35.25 21.5606 37.2375V44.955L21.5325 44.9962H40.5394L41.1563 44.3794C43.6181 41.9175 45 38.58 45 35.0981V28.9369C43.8863 29.5931 42.6056 29.9963 41.22 29.9963V30ZM17.8125 45H9.375C4.20563 45 0 40.7944 0 35.625V9.375C0 4.20563 4.20563 0 9.375 0H24.3938C23.2031 1.57125 22.47 3.50625 22.47 5.625V7.5H9.375C8.34 7.5 7.5 8.33813 7.5 9.375V13.125C7.5 14.1619 8.34 15 9.375 15H22.47V27.9094L21.1069 29.2856C19.8338 30.5588 18.9113 32.085 18.3694 33.75H16.8731C15.8381 33.75 14.9981 34.5881 14.9981 35.625C14.9981 36.6619 15.8381 37.5 16.8731 37.5H17.8106V45H17.8125ZM15 20.625C15 21.6619 15.84 22.5 16.875 22.5H18.75C19.785 22.5 20.625 21.6619 20.625 20.625C20.625 19.5881 19.785 18.75 18.75 18.75H16.875C15.84 18.75 15 19.5881 15 20.625ZM15 28.125C15 29.1619 15.84 30 16.875 30H18.75C19.785 30 20.625 29.1619 20.625 28.125C20.625 27.0881 19.785 26.25 18.75 26.25H16.875C15.84 26.25 15 27.0881 15 28.125ZM13.125 35.625C13.125 34.5881 12.285 33.75 11.25 33.75H9.375C8.34 33.75 7.5 34.5881 7.5 35.625C7.5 36.6619 8.34 37.5 9.375 37.5H11.25C12.285 37.5 13.125 36.6619 13.125 35.625ZM13.125 28.125C13.125 27.0881 12.285 26.25 11.25 26.25H9.375C8.34 26.25 7.5 27.0881 7.5 28.125C7.5 29.1619 8.34 30 9.375 30H11.25C12.285 30 13.125 29.1619 13.125 28.125ZM13.125 20.625C13.125 19.5881 12.285 18.75 11.25 18.75H9.375C8.34 18.75 7.5 19.5881 7.5 20.625C7.5 21.6619 8.34 22.5 9.375 22.5H11.25C12.285 22.5 13.125 21.6619 13.125 20.625Z" fill="#00AA72"/>
</g>
<defs>
<clipPath id="clip0_11004_5150">
<rect width="45" height="45" fill="white"/>
</clipPath>
</defs>
</svg>
