<svg width="26" height="26" viewBox="0 0 26 26" fill="none" xmlns="http://www.w3.org/2000/svg">
<g clip-path="url(#clip0_10982_4781)">
<path d="M6.27539 14.3318L6.27544 14.332C6.29154 14.3158 6.29047 14.3168 6.27539 14.3318Z" fill="#FAFAFA"/>
<path d="M25.4243 10.7382L24.1314 10.4273C23.8503 9.20005 23.3661 8.03381 22.6893 6.94943L23.3445 5.8494C23.523 5.54969 23.4746 5.16736 23.2285 4.92117L21.0812 2.77389C20.835 2.52846 20.4535 2.47936 20.1529 2.65785L19.0529 3.31308C17.9685 2.63627 16.8023 2.15207 15.5751 1.87095L15.2642 0.578056C15.1794 0.239649 14.8752 0.00158691 14.5256 0.00158691H11.4791C11.1296 0.00158691 10.8254 0.239599 10.7406 0.578056L10.4297 1.87095C9.20247 2.15207 8.03623 2.63627 6.95185 3.31308L5.85182 2.65785C5.55211 2.47931 5.16978 2.5277 4.92359 2.77389L2.77621 4.92112C2.53002 5.16731 2.48168 5.54959 2.66017 5.84935L3.3154 6.94938C2.63859 8.03376 2.15439 9.2 1.87327 10.4272L0.580375 10.7381C0.241969 10.8229 0.00390625 11.1271 0.00390625 11.4767V14.5231C0.00390625 14.8727 0.241918 15.1777 0.581086 15.2617L1.87398 15.5726C2.06141 16.3858 2.3435 17.1671 2.70577 17.9164C3.26513 17.3548 6.07445 14.5334 6.27636 14.3318C6.2664 14.2805 6.15758 13.3049 6.15468 13.1149C6.08989 9.23382 9.21593 6.14602 13.0053 6.14602C16.8206 6.14602 19.8629 9.22245 19.8486 13.0237C19.8322 16.5391 17.2084 19.5319 13.5438 19.8056C13.3853 19.8178 12.6685 19.9235 11.6695 19.7265L8.09498 23.3011C8.84147 23.6612 9.61979 23.9414 10.4297 24.1282L10.7405 25.4218C10.8253 25.7602 11.1295 25.9983 11.4791 25.9983H14.5256C14.8751 25.9983 15.1793 25.7603 15.2641 25.4218L15.575 24.1289C16.8022 23.8478 17.9685 23.3636 19.0529 22.6868L20.1529 23.342C20.4511 23.5206 20.8342 23.4715 21.0811 23.226L23.2284 21.0787C23.4746 20.8325 23.5229 20.4502 23.3444 20.1505L22.6892 19.0504C23.3668 17.9661 23.8502 16.7998 24.1313 15.5718L25.4235 15.2617C25.7626 15.1777 26.0007 14.8727 26.0007 14.5231V11.4767C26.0007 11.1271 25.7627 10.8229 25.4243 10.7382Z" fill="#FAFAFA"/>
<path d="M18.1552 11.6076C18.0884 11.3454 17.8859 11.1391 17.6248 11.0676C17.3639 10.996 17.085 11.0706 16.8936 11.2619L15.1556 13C14.5616 13.5941 13.5958 13.5941 13.0017 13C12.4081 12.4065 12.4081 11.4396 13.0017 10.846L14.7404 9.10727C14.9318 8.91593 15.0056 8.63663 14.9341 8.37577C14.8625 8.11491 14.6565 7.91214 14.3943 7.84551C11.1805 7.0288 8.28845 9.12215 7.75804 12.013C7.58772 12.965 7.66359 13.9133 7.97518 14.7865C7.54181 15.2199 0.848133 21.9135 0.668215 22.0935C-0.225078 22.9868 -0.225078 24.4401 0.682333 25.3475C1.58126 26.1996 2.95799 26.2355 3.90806 25.3334L11.2151 18.0264C12.3852 18.444 13.6903 18.4355 14.9674 17.9849C17.2685 17.1729 18.879 14.4478 18.1552 11.6076Z" fill="#FAFAFA"/>
</g>
<defs>
<clipPath id="clip0_10982_4781">
<rect width="26" height="26" fill="white"/>
</clipPath>
</defs>
</svg>
