<svg width="41" height="41" viewBox="0 0 41 41" fill="none" xmlns="http://www.w3.org/2000/svg">
<g clip-path="url(#clip0_10987_4998)">
<path fill-rule="evenodd" clip-rule="evenodd" d="M19.8146 35.7776C21.8774 38.9218 25.4328 41 29.4688 41C35.8302 41 41 35.8327 41 29.4688C41 25.4328 38.9244 21.878 35.7789 19.8171C35.843 19.1995 35.875 18.5724 35.875 17.9375C35.875 8.03728 27.8352 0 17.9375 0C8.03984 0 0 8.03728 0 17.9375C0 27.8377 8.03984 35.875 17.9375 35.875C18.5717 35.875 19.1996 35.8417 19.8146 35.7776ZM29.4688 21.7812C33.7097 21.7812 37.1562 25.2259 37.1562 29.4688C37.1562 33.7116 33.7097 37.1562 29.4688 37.1562C25.2278 37.1562 21.7812 33.7116 21.7812 29.4688C21.7812 25.2259 25.2278 21.7812 29.4688 21.7812ZM31.9544 26.1881L28.1875 29.9537L26.9831 28.7506C26.2336 28.0004 25.0164 28.0004 24.2669 28.7506C23.5173 29.5001 23.5173 30.7186 24.2669 31.4681L26.8294 34.0306C27.5789 34.7815 28.7961 34.7815 29.5456 34.0306L34.6706 28.9056C35.4202 28.1561 35.4202 26.9376 34.6706 26.1881C33.9211 25.4379 32.7039 25.4379 31.9544 26.1881ZM14.1706 24.4213L19.2956 19.2963C19.6544 18.9362 19.8594 18.4474 19.8594 17.9375V7.6875C19.8594 6.62663 19.0009 5.76562 17.9375 5.76562C16.8741 5.76562 16.0156 6.62663 16.0156 7.6875V17.1412L11.4544 21.7037C10.7048 22.4533 10.7048 23.6717 11.4544 24.4213C12.2039 25.1714 13.4211 25.1714 14.1706 24.4213Z" fill="#00AA72"/>
</g>
<defs>
<clipPath id="clip0_10987_4998">
<rect width="41" height="41" fill="white"/>
</clipPath>
</defs>
</svg>
