<svg width="26" height="26" viewBox="0 0 26 26" fill="none" xmlns="http://www.w3.org/2000/svg">
<g clip-path="url(#clip0_10982_4815)">
<path d="M12.9886 26C9.62567 26 6.29865 24.6976 3.79314 22.1921C-0.244006 18.1549 -1.16709 11.8323 1.54821 6.81647C2.13946 5.71976 2.89501 4.70771 3.79314 3.80957C4.03478 3.56793 4.42624 3.56793 4.66788 3.80957C4.90952 4.05121 4.90952 4.44267 4.66788 4.68431C3.85473 5.49746 3.17126 6.4125 2.63687 7.40448C0.179306 11.9434 1.01504 17.6644 4.66788 21.3173C8.46258 25.112 14.3426 25.8563 18.9665 23.1289C19.2605 22.9569 19.6395 23.0531 19.8134 23.3476C19.987 23.6416 19.8892 24.021 19.5947 24.1945C17.5375 25.408 15.2548 26 12.9886 26Z" fill="#FAFAFA"/>
<path d="M21.7392 22.3733C21.5809 22.3733 21.4226 22.3128 21.3018 22.192C21.0602 21.9508 21.0602 21.5589 21.3018 21.3172C22.1226 20.4961 22.8117 19.5669 23.3502 18.556C25.8187 13.9514 24.995 8.37745 21.3018 4.68431C17.5104 0.894488 11.6423 0.143007 7.02813 2.86074C6.73489 3.03429 6.35554 2.93646 6.18118 2.64128C6.00803 2.34691 6.10626 1.96788 6.40063 1.79433C11.4994 -1.20826 17.9864 -0.379755 22.1765 3.80958C26.2584 7.89141 27.1685 14.0518 24.4415 19.1393C23.8463 20.2564 23.0839 21.2843 22.1765 22.1921C22.0557 22.3129 21.8974 22.3733 21.7392 22.3733Z" fill="#FAFAFA"/>
<path d="M21.7381 22.3732C21.5984 22.3732 21.4623 22.3261 21.3518 22.2379C21.2238 22.1356 21.1417 21.9862 21.1231 21.823L20.8457 19.3373C20.8078 18.9977 21.0527 18.692 21.3921 18.6538C21.7252 18.6196 22.0374 18.8604 22.0756 19.2003L22.2843 21.071L24.1551 20.862C24.4958 20.8221 24.8011 21.0682 24.8385 21.4077C24.8768 21.7473 24.6323 22.0534 24.2928 22.0912L21.807 22.3691C21.784 22.3719 21.7611 22.3732 21.7381 22.3732Z" fill="#FAFAFA"/>
<path d="M4.46702 7.35572C4.15169 7.35572 3.88226 7.11571 3.85204 6.7955L3.67402 4.92115L1.80007 5.09917C1.46255 5.12858 1.1577 4.88207 1.12585 4.54179C1.0936 4.20184 1.34295 3.89984 1.68323 3.86758L4.17297 3.63114C4.33767 3.61465 4.49919 3.66616 4.6257 3.77008C4.75212 3.87481 4.83191 4.02504 4.84719 4.18852L5.08362 6.67867C5.11588 7.01862 4.86652 7.32062 4.52625 7.35288C4.5065 7.35491 4.48676 7.35572 4.46702 7.35572Z" fill="#FAFAFA"/>
<path d="M12.9898 5.56676C8.89051 5.56676 5.56641 8.89078 5.56641 12.9902C5.56641 17.0896 8.89042 20.4136 12.9898 20.4136C17.0892 20.4136 20.4132 17.0896 20.4132 12.9902C20.4132 8.89078 17.0892 5.56676 12.9898 5.56676ZM14.5899 14.5903C14.4745 14.714 14.3178 14.7717 14.1528 14.7717C13.9961 14.7717 13.8394 14.714 13.7156 14.5903L12.5526 13.4273C12.4372 13.3118 12.3711 13.1551 12.3711 12.9901V9.28663C12.3711 8.94838 12.6516 8.66799 12.9897 8.66799C13.3279 8.66799 13.6084 8.94838 13.6084 9.28663V12.7344L14.5899 13.7159C14.8373 13.9633 14.8374 14.3511 14.5899 14.5903Z" fill="#FAFAFA"/>
</g>
<defs>
<clipPath id="clip0_10982_4815">
<rect width="26" height="26" fill="white"/>
</clipPath>
</defs>
</svg>
