<svg width="36" height="36" viewBox="0 0 36 36" fill="none" xmlns="http://www.w3.org/2000/svg">
<g clip-path="url(#clip0_10987_5051)">
<path fill-rule="evenodd" clip-rule="evenodd" d="M17.3982 31.4145C19.2094 34.1753 22.3312 36 25.875 36C31.4606 36 36 31.4629 36 25.875C36 22.3312 34.1775 19.2099 31.4156 17.4004C31.4719 16.8581 31.5 16.3074 31.5 15.75C31.5 7.05712 24.4406 0 15.75 0C7.05938 0 0 7.05712 0 15.75C0 24.4429 7.05938 31.5 15.75 31.5C16.3069 31.5 16.8582 31.4708 17.3982 31.4145ZM25.875 19.125C29.5987 19.125 32.625 22.1496 32.625 25.875C32.625 29.6004 29.5987 32.625 25.875 32.625C22.1513 32.625 19.125 29.6004 19.125 25.875C19.125 22.1496 22.1513 19.125 25.875 19.125ZM28.0575 22.9944L24.75 26.3008L23.6925 25.2444C23.0344 24.5857 21.9656 24.5857 21.3075 25.2444C20.6494 25.9026 20.6494 26.9724 21.3075 27.6306L23.5575 29.8806C24.2156 30.5398 25.2844 30.5398 25.9425 29.8806L30.4425 25.3806C31.1006 24.7224 31.1006 23.6526 30.4425 22.9944C29.7844 22.3357 28.7156 22.3357 28.0575 22.9944ZM12.4425 21.4431L16.9425 16.9431C17.2575 16.6269 17.4375 16.1978 17.4375 15.75V6.75C17.4375 5.8185 16.6838 5.0625 15.75 5.0625C14.8162 5.0625 14.0625 5.8185 14.0625 6.75V15.0508L10.0575 19.0569C9.39938 19.7151 9.39938 20.7849 10.0575 21.4431C10.7156 22.1018 11.7844 22.1018 12.4425 21.4431Z" fill="#00AA72"/>
</g>
<defs>
<clipPath id="clip0_10987_5051">
<rect width="36" height="36" fill="white"/>
</clipPath>
</defs>
</svg>
