<svg width="44" height="44" viewBox="0 0 44 44" fill="none" xmlns="http://www.w3.org/2000/svg">
<path fill-rule="evenodd" clip-rule="evenodd" d="M27.959 20.1665V23.8332C27.959 24.9277 27.5245 25.9763 26.7508 26.75C25.9772 27.5237 24.9285 27.9582 23.834 27.9582H20.1673C19.0728 27.9582 18.0242 27.5237 17.2505 26.75C16.4768 25.9763 16.0423 24.9277 16.0423 23.8332V20.1665C16.0423 19.072 16.4768 18.0233 17.2505 17.2497C18.0242 16.476 19.0728 16.0415 20.1673 16.0415H23.834C24.9285 16.0415 25.9772 16.476 26.7508 17.2497C27.5245 18.0233 27.959 19.072 27.959 20.1665Z" fill="#00AA72"/>
<path fill-rule="evenodd" clip-rule="evenodd" d="M41.709 6.4165V10.0832C41.709 11.1777 41.2745 12.2263 40.5008 13C39.7272 13.7737 38.6785 14.2082 37.584 14.2082H33.9173C32.8228 14.2082 31.7741 13.7737 31.0005 13C30.2268 12.2263 29.7923 11.1777 29.7923 10.0832V6.4165C29.7923 5.322 30.2268 4.27334 31.0005 3.49967C31.7741 2.726 32.8228 2.2915 33.9173 2.2915H37.584C38.6785 2.2915 39.7272 2.726 40.5008 3.49967C41.2745 4.27334 41.709 5.322 41.709 6.4165Z" fill="#00AA72"/>
<path fill-rule="evenodd" clip-rule="evenodd" d="M14.209 33.9165V37.5832C14.209 38.6777 13.7745 39.7263 13.0008 40.5C12.2272 41.2737 11.1785 41.7082 10.084 41.7082H6.41732C5.32282 41.7082 4.27415 41.2737 3.50048 40.5C2.72682 39.7263 2.29232 38.6777 2.29232 37.5832V33.9165C2.29232 32.822 2.72682 31.7733 3.50048 30.9997C4.27415 30.226 5.32282 29.7915 6.41732 29.7915H10.084C11.1785 29.7915 12.2272 30.226 13.0008 30.9997C13.7745 31.7733 14.209 32.822 14.209 33.9165Z" fill="#00AA72"/>
<path fill-rule="evenodd" clip-rule="evenodd" d="M31.168 9.625H7.33463C6.72597 9.625 6.1448 9.867 5.71397 10.296C5.28497 10.7268 5.04297 11.308 5.04297 11.9167V18.3333C5.04297 18.942 5.28497 19.5232 5.71397 19.954C6.1448 20.383 6.72597 20.625 7.33463 20.625H12.8346C13.5936 20.625 14.2096 21.241 14.2096 22C14.2096 22.759 13.5936 23.375 12.8346 23.375H7.33463C5.99813 23.375 4.7148 22.8433 3.7688 21.8992C2.82463 20.9532 2.29297 19.6698 2.29297 18.3333C2.29297 16.3478 2.29297 13.9022 2.29297 11.9167C2.29297 10.5802 2.82463 9.29683 3.7688 8.35083C4.7148 7.40667 5.99813 6.875 7.33463 6.875C14.822 6.875 31.168 6.875 31.168 6.875C31.927 6.875 32.543 7.491 32.543 8.25C32.543 9.009 31.927 9.625 31.168 9.625Z" fill="#00AA72"/>
<path fill-rule="evenodd" clip-rule="evenodd" d="M20.1673 34.375H36.6673C37.276 34.375 37.8572 34.133 38.288 33.704C38.717 33.2732 38.959 32.692 38.959 32.0833C38.959 30.0978 38.959 27.6522 38.959 25.6667C38.959 25.058 38.717 24.4768 38.288 24.046C37.8572 23.617 37.276 23.375 36.6673 23.375H26.584C25.825 23.375 25.209 22.759 25.209 22C25.209 21.241 25.825 20.625 26.584 20.625H36.6673C38.0038 20.625 39.2872 21.1567 40.2332 22.1008C41.1773 23.0468 41.709 24.3302 41.709 25.6667V32.0833C41.709 33.4198 41.1773 34.7032 40.2332 35.6492C39.2872 36.5933 38.0038 37.125 36.6673 37.125H20.1673C19.4083 37.125 18.7923 36.509 18.7923 35.75C18.7923 34.991 19.4083 34.375 20.1673 34.375Z" fill="#00AA72"/>
<path fill-rule="evenodd" clip-rule="evenodd" d="M8.19611 24.6947L10.8893 21.9997L8.19611 19.3047C7.65894 18.7694 7.65894 17.8967 8.19611 17.3614C8.73144 16.8242 9.60411 16.8242 10.1394 17.3614L13.8061 21.028C14.3433 21.5652 14.3433 22.4342 13.8061 22.9714L10.1394 26.638C9.60411 27.1752 8.73144 27.1752 8.19611 26.638C7.65894 26.1027 7.65894 25.23 8.19611 24.6947Z" fill="#00AA72"/>
<path fill-rule="evenodd" clip-rule="evenodd" d="M21.0288 40.388L17.3621 36.7214C16.825 36.1842 16.825 35.3152 17.3621 34.778L21.0288 31.1114C21.5641 30.5742 22.4368 30.5742 22.9721 31.1114C23.5093 31.6467 23.5093 32.5194 22.9721 33.0547L20.279 35.7497L22.9721 38.4447C23.5093 38.98 23.5093 39.8527 22.9721 40.388C22.4368 40.9252 21.5641 40.9252 21.0288 40.388Z" fill="#00AA72"/>
</svg>
