<svg width="32" height="32" viewBox="0 0 32 32" fill="none" xmlns="http://www.w3.org/2000/svg">
<path d="M13.293 7.43568L14.096 9.66568C14.988 12.1407 16.937 14.0897 19.412 14.9817L21.642 15.7847C21.843 15.8577 21.843 16.1427 21.642 16.2147L19.412 17.0177C16.937 17.9097 14.988 19.8587 14.096 22.3337L13.293 24.5637C13.22 24.7647 12.935 24.7647 12.863 24.5637L12.06 22.3337C11.168 19.8587 9.21903 17.9097 6.74403 17.0177L4.51403 16.2147C4.31303 16.1417 4.31303 15.8567 4.51403 15.7847L6.74403 14.9817C9.21903 14.0897 11.168 12.1407 12.06 9.66568L12.863 7.43568C12.935 7.23368 13.22 7.23368 13.293 7.43568Z" fill="#00AA72"/>
<path d="M23.3311 2.07676L23.7381 3.20576C24.1901 4.45876 25.1771 5.44576 26.4301 5.89776L27.5591 6.30476C27.6611 6.34176 27.6611 6.48576 27.5591 6.52276L26.4301 6.92976C25.1771 7.38176 24.1901 8.36876 23.7381 9.62176L23.3311 10.7508C23.2941 10.8528 23.1501 10.8528 23.1131 10.7508L22.7061 9.62176C22.2541 8.36876 21.2671 7.38176 20.0141 6.92976L18.8851 6.52276C18.7831 6.48576 18.7831 6.34176 18.8851 6.30476L20.0141 5.89776C21.2671 5.44576 22.2541 4.45876 22.7061 3.20576L23.1131 2.07676C23.1501 1.97376 23.2951 1.97376 23.3311 2.07676Z" fill="#00AA72"/>
<path d="M23.3311 21.2498L23.7381 22.3788C24.1901 23.6318 25.1771 24.6188 26.4301 25.0708L27.5591 25.4778C27.6611 25.5148 27.6611 25.6588 27.5591 25.6958L26.4301 26.1028C25.1771 26.5548 24.1901 27.5418 23.7381 28.7948L23.3311 29.9238C23.2941 30.0258 23.1501 30.0258 23.1131 29.9238L22.7061 28.7948C22.2541 27.5418 21.2671 26.5548 20.0141 26.1028L18.8851 25.6958C18.7831 25.6588 18.7831 25.5148 18.8851 25.4778L20.0141 25.0708C21.2671 24.6188 22.2541 23.6318 22.7061 22.3788L23.1131 21.2498C23.1501 21.1478 23.2951 21.1478 23.3311 21.2498Z" fill="#00AA72"/>
</svg>
