<svg width="26" height="26" viewBox="0 0 26 26" fill="none" xmlns="http://www.w3.org/2000/svg">
<g clip-path="url(#clip0_9989_13268)">
<path d="M2.64205 17.947C1.89978 16.3958 1.52344 14.7314 1.52344 13C1.52344 6.67179 6.67179 1.52344 13 1.52344C15.5142 1.52344 17.9046 2.32695 19.879 3.81159L17.9794 4.06169C17.5623 4.11658 17.2687 4.49922 17.3236 4.91629C17.3785 5.3334 17.7611 5.62697 18.1782 5.57207L21.7532 5.10143C22.1702 5.04654 22.4638 4.6639 22.409 4.24684L21.9383 0.671938C21.8834 0.254871 21.5007 -0.0387461 21.0837 0.0161484H21.0836C20.6665 0.071043 20.3729 0.45368 20.4278 0.870746L20.6396 2.47914C18.433 0.86968 15.7835 0 13 0C9.52758 0 6.263 1.3522 3.80758 3.80758C1.35225 6.263 0 9.52758 0 13C0 14.9609 0.426562 16.8465 1.26791 18.6046C1.4495 18.9841 1.9043 19.1445 2.28379 18.9629C2.66322 18.7813 2.82364 18.3265 2.64205 17.947Z" fill="#00AA72"/>
<path d="M20.0445 11.864L20.4253 11.6442C20.7896 11.4339 20.9145 10.968 20.7041 10.6037L18.9267 7.52522C18.7164 7.16092 18.2505 7.03605 17.8862 7.24643L17.5054 7.46632C16.631 7.97118 15.5379 7.34007 15.5379 6.33034V5.89062C15.5379 5.46995 15.1969 5.12891 14.7762 5.12891H11.2215C10.8008 5.12891 10.4598 5.46995 10.4598 5.89062V6.33034C10.4598 7.34007 9.36672 7.97113 8.49226 7.46632L8.11146 7.24643C7.74715 7.0361 7.28128 7.16092 7.07095 7.52522L5.2936 10.6037C5.08327 10.968 5.20809 11.4339 5.57239 11.6442L5.9532 11.864C6.82766 12.3689 6.82766 13.6311 5.9532 14.1359L5.57239 14.3558C5.20809 14.5661 5.08322 15.032 5.2936 15.3963L7.07095 18.4747C7.28128 18.839 7.74715 18.9639 8.11146 18.7535L8.49226 18.5336C9.36672 18.0288 10.4598 18.6599 10.4598 19.6696V20.1094C10.4598 20.53 10.8008 20.8711 11.2215 20.8711H14.7762C15.1969 20.8711 15.5379 20.53 15.5379 20.1094V19.6697C15.5379 18.6599 16.631 18.0289 17.5054 18.5337L17.8862 18.7536C18.2505 18.9639 18.7164 18.8391 18.9267 18.4748L20.7041 15.3963C20.9144 15.032 20.7896 14.5661 20.4253 14.3558L20.0445 14.136C19.17 13.6311 19.17 12.3689 20.0445 11.864ZM12.9988 15.9199C11.3862 15.9199 10.0789 14.6126 10.0789 13C10.0789 11.3874 11.3862 10.0801 12.9988 10.0801C14.6115 10.0801 15.9188 11.3874 15.9188 13C15.9188 14.6126 14.6115 15.9199 12.9988 15.9199Z" fill="#00AA72"/>
<path d="M24.7336 7.39551C24.552 7.01602 24.0972 6.85561 23.7177 7.0372C23.3383 7.21879 23.1778 7.67359 23.3594 8.05308C24.1017 9.60429 24.4781 11.2687 24.4781 13.0001C24.4781 19.3283 19.3297 24.4767 13.0015 24.4767C10.4873 24.4767 8.09688 23.6732 6.12246 22.1885L8.02208 21.9384C8.43915 21.8836 8.73277 21.5009 8.67787 21.0839C8.62298 20.6667 8.24034 20.3732 7.82328 20.4281L4.24833 20.8987C3.83126 20.9536 3.53764 21.3362 3.59254 21.7533L4.06323 25.3282C4.11812 25.7453 4.50076 26.0389 4.91783 25.984C5.33489 25.9291 5.62856 25.5465 5.57367 25.1294L5.36191 23.521C7.56845 25.1305 10.218 26.0001 13.0015 26.0001C16.4739 26.0001 19.7385 24.6479 22.1939 22.1926C24.6492 19.7371 26.0015 16.4726 26.0015 13.0001C26.0015 11.0393 25.5749 9.15361 24.7336 7.39551Z" fill="#00AA72"/>
</g>
<defs>
<clipPath id="clip0_9989_13268">
<rect width="26" height="26" fill="white"/>
</clipPath>
</defs>
</svg>
