<svg width="81" height="81" viewBox="0 0 81 81" fill="none" xmlns="http://www.w3.org/2000/svg">
<g clip-path="url(#clip0_9989_16402)">
<path d="M0.424487 79.9802C0.867138 80.6174 1.59471 80.9998 2.37339 80.9998H78.6265C79.4052 80.9998 80.1328 80.6174 80.5754 79.9802C81.0203 79.3406 81.1223 78.5249 80.8489 77.795C79.9242 75.3222 78.1956 73.1531 77.4933 72.3374C77.0437 71.8114 76.3856 71.5078 75.6926 71.5078H5.30726C4.61433 71.5078 3.95621 71.8114 3.50659 72.3374C2.80449 73.1531 1.07565 75.3222 0.150954 77.795C-0.12242 78.5249 -0.0205375 79.3406 0.424487 79.9802Z" fill="black"/>
<path d="M9.49219 38.127H23.8887V66.7617H9.49219V38.127Z" fill="#00AA72"/>
<path d="M33.3828 38.127H47.6211V66.7617H33.3828V38.127Z" fill="#00AA72"/>
<path d="M57.1133 38.127H71.5098V66.7617H57.1133V38.127Z" fill="#00AA72"/>
<path d="M5.13637 32.6821C5.58187 33.1293 6.20187 33.3808 6.81506 33.3808C6.81538 33.3808 6.81585 33.3805 6.81617 33.3805C6.81648 33.3805 6.81696 33.3808 6.81728 33.3793H74.1826C74.1829 33.3808 74.1834 33.3805 74.1837 33.3805C74.184 33.3805 74.1845 33.3808 74.1848 33.3808C74.798 33.3808 75.418 33.1295 75.8635 32.6821C76.3463 32.1992 79.9549 28.4411 80.9997 23.8887H0C1.04493 28.4411 4.65338 32.1992 5.13637 32.6821Z" fill="black"/>
<path d="M79.491 19.1425L41.5627 0.250238C40.8953 -0.0834126 40.1074 -0.0834126 39.44 0.250238L1.51172 19.1425H79.491Z" fill="black"/>
</g>
<defs>
<clipPath id="clip0_9989_16402">
<rect width="81" height="81" fill="white"/>
</clipPath>
</defs>
</svg>
