<svg width="94" height="94" viewBox="0 0 94 94" fill="none" xmlns="http://www.w3.org/2000/svg">
<g clip-path="url(#clip0_9989_16420)">
<path d="M91.2461 79.1289H85.4684C84.6047 77.5213 83.3215 76.1779 81.7552 75.2414C80.189 74.3049 78.3982 73.8103 76.5733 73.8103C74.7484 73.8103 72.9576 74.3049 71.3913 75.2414C69.8251 76.1779 68.5419 77.5213 67.6782 79.1289H41.2076C40.3439 77.5213 39.0607 76.1779 37.4944 75.2414C35.9282 74.3049 34.1374 73.8103 32.3125 73.8103C30.4876 73.8103 28.6968 74.3049 27.1306 75.2414C25.5643 76.1779 24.2811 77.5213 23.4174 79.1289H21.3575C20.1402 79.1289 18.9727 78.6453 18.112 77.7846C17.2512 76.9238 16.7676 75.7564 16.7676 74.5391C16.7676 73.3218 17.2512 72.1543 18.112 71.2935C18.9727 70.4328 20.1402 69.9492 21.3575 69.9492H82.0664C82.6909 69.9493 83.2969 69.7371 83.785 69.3475C84.273 68.9578 84.6142 68.4139 84.7524 67.8048L93.9321 27.4142C94.0236 27.011 94.0231 26.5924 93.9307 26.1893C93.8384 25.7863 93.6564 25.4093 93.3984 25.0862C93.1404 24.7631 92.8129 24.5023 92.4403 24.323C92.0677 24.1438 91.6596 24.0507 91.2461 24.0508H83.6288C83.0486 39.234 70.5184 51.4062 55.1956 51.4062C39.8729 51.4062 27.3426 39.234 26.7625 24.0508H19.9273L16.6758 2.34633C16.5782 1.69399 16.2497 1.09835 15.75 0.667758C15.2503 0.237163 14.6127 0.000211536 13.9531 0L2.75391 0C2.02352 1.08835e-08 1.32306 0.290143 0.8066 0.8066C0.290143 1.32306 0 2.02352 0 2.75391C0 3.48429 0.290143 4.18475 0.8066 4.70121C1.32306 5.21767 2.02352 5.50781 2.75391 5.50781H11.5811L14.8307 27.1939C14.8298 27.2 14.8298 27.2062 14.8307 27.2123L20.4138 64.4818C17.8205 64.7142 15.4173 65.9393 13.7057 67.9013C11.9942 69.8633 11.1067 72.4106 11.2284 75.0114C11.3502 77.6122 12.4719 80.0654 14.3593 81.859C16.2466 83.6525 18.7538 84.6477 21.3575 84.6367H22.2442C22.4382 87.1741 23.5831 89.5448 25.4499 91.2743C27.3167 93.0038 29.7677 93.9647 32.3125 93.9647C34.8573 93.9647 37.3083 93.0038 39.1751 91.2743C41.0419 89.5448 42.1868 87.1741 42.3808 84.6367H66.505C66.699 87.1741 67.8439 89.5448 69.7107 91.2743C71.5775 93.0038 74.0285 93.9647 76.5733 93.9647C79.1181 93.9647 81.5691 93.0038 83.4359 91.2743C85.3027 89.5448 86.4476 87.1741 86.6416 84.6367H91.2461C91.9765 84.6367 92.6769 84.3466 93.1934 83.8301C93.7099 83.3137 94 82.6132 94 81.8828C94 81.1524 93.7099 80.452 93.1934 79.9355C92.6769 79.4191 91.9765 79.1289 91.2461 79.1289Z" fill="black"/>
<path d="M55.1953 45.8984C59.7342 45.8984 64.1712 44.5525 67.9452 42.0308C71.7192 39.5091 74.6607 35.9249 76.3976 31.7315C78.1346 27.5381 78.5891 22.9238 77.7036 18.4721C76.8181 14.0203 74.6324 9.93119 71.4229 6.72168C68.2134 3.51218 64.1242 1.32647 59.6725 0.440973C55.2208 -0.444528 50.6064 0.00994363 46.413 1.74692C42.2196 3.48389 38.6354 6.42535 36.1137 10.1993C33.592 13.9733 32.2461 18.4103 32.2461 22.9492C32.2534 29.0335 34.6736 34.8665 38.9758 39.1687C43.278 43.471 49.111 45.8912 55.1953 45.8984ZM43.9961 20.6286C44.4919 20.0927 45.1802 19.7756 45.9097 19.7471C46.6392 19.7185 47.3502 19.9808 47.8864 20.4762L52.4634 24.6989L62.506 15.4219C63.047 14.9604 63.7456 14.726 64.4554 14.7679C65.1653 14.8098 65.8315 15.1246 66.3145 15.6465C66.7975 16.1684 67.0599 16.8569 67.0467 17.5679C67.0336 18.2789 66.7459 18.9572 66.244 19.4609L54.3306 30.4766C53.8217 30.9473 53.1539 31.2087 52.4607 31.2087C51.7674 31.2087 51.0997 30.9473 50.5908 30.4766L44.1466 24.5171C43.6113 24.0214 43.2946 23.3334 43.266 22.6044C43.2375 21.8753 43.4994 21.1647 43.9943 20.6286H43.9961Z" fill="#00AA72"/>
</g>
<defs>
<clipPath id="clip0_9989_16420">
<rect width="94" height="94" fill="white"/>
</clipPath>
</defs>
</svg>
