<svg width="94" height="94" viewBox="0 0 94 94" fill="none" xmlns="http://www.w3.org/2000/svg">
<g clip-path="url(#clip0_9989_16410)">
<path fill-rule="evenodd" clip-rule="evenodd" d="M23.6605 52.9084C22.8905 51.3284 21.8965 49.8524 20.6975 48.5294C17.5035 45.0704 15.5625 40.4454 15.5625 35.3714C15.5625 24.6004 24.3065 15.8564 35.0765 15.8564C45.8475 15.8564 54.5915 24.6004 54.5915 35.3714C54.5915 40.4454 52.6505 45.0704 49.4705 48.5424C48.2755 49.8624 47.2845 51.3334 46.5155 52.9084H23.6605ZM37.6115 27.3694C37.6505 27.1484 37.5345 26.9284 37.3305 26.8354C37.1255 26.7414 36.8835 26.7984 36.7425 26.9734C34.4925 29.7454 29.7255 35.6214 28.1085 37.6144C27.9965 37.7524 27.9675 37.9404 28.0325 38.1054C28.0975 38.2714 28.2465 38.3894 28.4225 38.4144C29.7065 38.5954 32.0805 38.9314 33.1375 39.0804C33.2745 39.1004 33.3965 39.1764 33.4755 39.2904C33.5535 39.4034 33.5805 39.5454 33.5495 39.6804C33.2685 40.9034 32.5565 44.0014 32.0755 46.0964C32.0245 46.3204 32.1335 46.5504 32.3405 46.6504C32.5465 46.7514 32.7955 46.6964 32.9395 46.5184C35.3645 43.5294 40.3815 37.3464 42.0455 35.2954C42.1575 35.1574 42.1865 34.9694 42.1215 34.8034C42.0565 34.6384 41.9075 34.5204 41.7315 34.4954C40.4365 34.3124 38.0335 33.9724 36.9895 33.8254C36.8575 33.8064 36.7375 33.7344 36.6595 33.6264C36.5805 33.5174 36.5495 33.3824 36.5725 33.2504C36.7745 32.1094 37.2745 29.2774 37.6115 27.3694Z" fill="#00AA72"/>
<path fill-rule="evenodd" clip-rule="evenodd" d="M44.5924 65.9012C44.5894 67.4222 44.5874 68.7522 44.5864 69.6692C44.5864 70.5452 44.1984 71.3752 43.5284 71.9372C37.8874 76.6472 32.2554 76.6802 26.6234 71.9292C25.9594 71.3692 25.5754 70.5442 25.5754 69.6752C25.5634 67.8732 25.5634 64.4682 25.5634 61.1552C25.5634 59.3642 25.3084 57.5992 24.8164 55.9082H45.3544C44.8624 57.5992 44.6074 59.3652 44.6074 61.1552C44.6044 61.7372 44.6024 62.3222 44.6004 62.9012H36.2564C35.4284 62.9012 34.7564 63.5732 34.7564 64.4012C34.7564 65.2292 35.4284 65.9012 36.2564 65.9012H44.5924Z" fill="black"/>
<path fill-rule="evenodd" clip-rule="evenodd" d="M8.806 31.5439H1.75C0.922 31.5439 0.25 32.2159 0.25 33.0439C0.25 33.8719 0.922 34.5439 1.75 34.5439H8.806C9.633 34.5439 10.306 33.8719 10.306 33.0439C10.306 32.2159 9.633 31.5439 8.806 31.5439Z" fill="black"/>
<path fill-rule="evenodd" clip-rule="evenodd" d="M68.4037 31.5439H61.3477C60.5197 31.5439 59.8477 32.2159 59.8477 33.0439C59.8477 33.8719 60.5197 34.5439 61.3477 34.5439H68.4037C69.2317 34.5439 69.9037 33.8719 69.9037 33.0439C69.9037 32.2159 69.2317 31.5439 68.4037 31.5439Z" fill="black"/>
<path fill-rule="evenodd" clip-rule="evenodd" d="M33.5742 1.59668V8.65268C33.5742 9.48068 34.2472 10.1527 35.0742 10.1527C35.9022 10.1527 36.5742 9.48068 36.5742 8.65268V1.59668C36.5742 0.76968 35.9022 0.0966797 35.0742 0.0966797C34.2472 0.0966797 33.5742 0.76968 33.5742 1.59668Z" fill="black"/>
<path fill-rule="evenodd" clip-rule="evenodd" d="M57.7687 7.80686L53.2417 14.4349C52.7747 15.1189 52.9507 16.0529 53.6347 16.5199C54.3187 16.9869 55.2527 16.8109 55.7197 16.1269L60.2457 9.49886C60.7127 8.81486 60.5367 7.88086 59.8527 7.41386C59.1697 6.94786 58.2347 7.12386 57.7687 7.80686Z" fill="black"/>
<path fill-rule="evenodd" clip-rule="evenodd" d="M9.90583 9.49886L14.4318 16.1269C14.8988 16.8109 15.8328 16.9869 16.5168 16.5199C17.1998 16.0529 17.3758 15.1189 16.9088 14.4349L12.3828 7.80686C11.9158 7.12386 10.9818 6.94786 10.2978 7.41386C9.61483 7.88086 9.43883 8.81486 9.90583 9.49886Z" fill="black"/>
<path fill-rule="evenodd" clip-rule="evenodd" d="M67.8573 60.6768C70.9393 57.0438 75.4623 53.3168 82.4603 49.6378C83.1923 49.2528 83.4753 48.3448 83.0893 47.6128C82.7043 46.8798 81.7963 46.5978 81.0643 46.9828C64.7543 55.5568 61.1023 64.3408 58.4883 71.7838C58.1963 64.8608 59.5053 55.4168 67.4313 49.8288C79.0173 41.6598 90.1073 40.6618 92.0763 34.4428C94.0453 28.2238 96.3263 60.1488 85.7533 67.7158C76.4553 74.3708 69.0803 72.7348 62.4323 77.8988C62.2253 78.4798 62.0143 79.0488 61.7933 79.6068C60.1833 83.6638 55.1703 95.8448 42.5663 93.6368C38.1043 92.8548 35.7183 89.6558 34.5273 86.0298C33.6533 83.3678 33.4473 80.4878 33.4453 78.3818C33.9893 78.4498 34.5333 78.4828 35.0763 78.4818C35.5283 78.4808 35.9813 78.4578 36.4343 78.4098C36.4353 80.2558 36.6143 82.7698 37.3783 85.0938C38.2373 87.7108 39.8643 90.1178 43.0843 90.6818C53.6993 92.5418 57.6483 81.9178 59.0053 78.4998C61.0673 73.3028 62.2923 67.1308 67.8573 60.6768Z" fill="black"/>
</g>
<defs>
<clipPath id="clip0_9989_16410">
<rect width="94" height="94" fill="white"/>
</clipPath>
</defs>
</svg>
