<svg width="75" height="75" viewBox="0 0 75 75" fill="none" xmlns="http://www.w3.org/2000/svg">
<path d="M4.51953 35.2759V37.4747C4.51953 38.4559 5.17007 39.3192 6.11496 39.5898C6.7548 39.7723 21.9808 44.071 37.5011 44.071C53.0213 44.071 68.2473 39.7723 68.8871 39.5898C69.8319 39.3192 70.4826 38.4561 70.4826 37.4747V35.2759C70.4826 34.0606 69.4991 33.0771 68.2838 33.0771H6.7183C5.50297 33.0771 4.51953 34.0606 4.51953 35.2759Z" fill="#00AA72"/>
<path d="M63.8911 52.8651C65.1064 52.8651 66.0898 51.8817 66.0898 50.6663V44.8377C62.9674 45.5747 58.2679 46.5606 52.7907 47.3233C52.2372 55.31 45.6307 61.6602 37.5059 61.6602C29.381 61.6602 22.7746 55.31 22.2211 47.3233C16.7426 46.5605 12.0437 45.5741 8.92188 44.8374V50.6663C8.92188 51.8817 9.90531 52.8651 11.1206 52.8651H14.2385C14.7495 54.6624 15.4732 56.3952 16.403 58.0442L14.1848 60.2623C13.326 61.1212 13.326 62.5127 14.1848 63.3716L20.4033 69.59C21.2621 70.4488 22.6536 70.4488 23.5125 69.59L25.7306 67.3718C27.3797 68.3016 29.1124 69.0252 30.9097 69.5363V72.8008C30.9097 74.0161 31.8931 74.9995 33.1085 74.9995H41.9035C43.1189 74.9995 44.1023 74.0161 44.1023 72.8008V69.5363C45.8996 69.0253 47.6324 68.3016 49.2814 67.3718L51.4996 69.59C52.3584 70.4488 53.7499 70.4488 54.6088 69.59L60.8272 63.3716C61.686 62.5127 61.686 61.1212 60.8272 60.2623L58.609 58.0442C59.5388 56.3952 60.2624 54.6624 60.7735 52.8651H63.8911Z" fill="#152934"/>
<path d="M34.0062 24.0863C32.8988 24.5875 31.5943 24.0914 31.0989 22.9869L24.2349 7.62104C16.3873 11.7505 10.7516 19.5865 9.33984 28.6792H65.6597C64.2479 19.5865 58.6122 11.7503 50.7646 7.62104L43.9007 22.9869C43.4049 24.0922 42.0997 24.5869 40.9933 24.0863C39.8875 23.5882 39.3936 22.287 39.8939 21.1789L47.4917 4.18349C48.0379 2.97211 47.4093 1.49483 46.1269 1.14728C40.485 -0.382476 34.5138 -0.382476 28.8719 1.14757C27.5895 1.49513 26.9609 2.97241 27.5071 4.18378L35.1056 21.1789C35.6059 22.287 35.1143 23.5882 34.0062 24.0863Z" fill="#152934"/>
</svg>
