<svg width="49" height="49" viewBox="0 0 49 49" fill="none" xmlns="http://www.w3.org/2000/svg">
<g clip-path="url(#clip0_9989_13328)">
<path d="M2.95312 23.0469V24.4834C2.95312 25.1245 3.37815 25.6885 3.99547 25.8653C4.4135 25.9845 14.3612 28.793 24.5011 28.793C34.6409 28.793 44.5886 25.9845 45.0066 25.8653C45.6239 25.6885 46.049 25.1246 46.049 24.4834V23.0469C46.049 22.2529 45.4065 21.6104 44.6125 21.6104H4.38965C3.59564 21.6104 2.95312 22.2529 2.95312 23.0469Z" fill="#00AA72"/>
<path d="M41.7413 34.5387C42.5354 34.5387 43.1779 33.8962 43.1779 33.1022V29.2941C41.1379 29.7757 38.0676 30.4198 34.4891 30.9181C34.1274 36.136 29.8113 40.2848 24.503 40.2848C19.1947 40.2848 14.8785 36.136 14.5169 30.9181C10.9377 30.4197 7.86771 29.7753 5.82812 29.2939V33.1022C5.82812 33.8962 6.47064 34.5387 7.26465 34.5387H9.30165C9.6355 35.7129 10.1083 36.845 10.7158 37.9224L9.2666 39.3716C8.70549 39.9327 8.70549 40.8418 9.2666 41.4029L13.3293 45.4656C13.8904 46.0267 14.7995 46.0267 15.3606 45.4656L16.8098 44.0164C17.8872 44.6239 19.0193 45.0966 20.1935 45.4306V47.5633C20.1935 48.3574 20.836 48.9999 21.63 48.9999H27.3761C28.1702 48.9999 28.8127 48.3574 28.8127 47.5633V45.4306C29.9869 45.0967 31.119 44.6239 32.1964 44.0164L33.6455 45.4656C34.2066 46.0267 35.1158 46.0267 35.6769 45.4656L39.7396 41.4029C40.3007 40.8418 40.3007 39.9327 39.7396 39.3716L38.2904 37.9224C38.8979 36.845 39.3706 35.7129 39.7045 34.5387H41.7413Z" fill="#00AA72"/>
<path d="M22.2169 15.7364C21.4934 16.0638 20.6412 15.7397 20.3175 15.0181L15.833 4.97908C10.7059 7.67698 7.02391 12.7965 6.10156 18.7371H42.8972C41.9748 12.7965 38.2928 7.67688 33.1658 4.97908L28.6813 15.0181C28.3574 15.7402 27.5047 16.0634 26.7818 15.7364C26.0594 15.411 25.7367 14.5608 26.0636 13.8369L31.0274 2.73321C31.3843 1.94178 30.9736 0.976624 30.1357 0.749557C26.4497 -0.249884 22.5486 -0.249884 18.8625 0.749748C18.0247 0.976816 17.614 1.94197 17.9708 2.7334L22.9352 13.8369C23.262 14.5608 22.9408 15.411 22.2169 15.7364Z" fill="#00AA72"/>
</g>
<defs>
<clipPath id="clip0_9989_13328">
<rect width="49" height="49" fill="white"/>
</clipPath>
</defs>
</svg>
