<svg width="88" height="88" viewBox="0 0 88 88" fill="none" xmlns="http://www.w3.org/2000/svg">
<g clip-path="url(#clip0_9989_16397)">
<path d="M72.3477 18.2188C72.3477 8.26873 64.2508 0 54.3008 0C50.4235 0 46.8005 1.65911 43.9883 4.64509C41.1759 1.65911 37.5529 0 33.6758 0C23.7258 0 15.6289 8.26873 15.6289 18.2188C15.6289 28.2267 22.973 33.3929 31.4778 39.3774C34.985 41.8447 38.6131 44.3977 42.2989 47.5953L43.9857 49.0605L45.6751 47.5977C49.8418 43.9923 53.8047 41.1701 57.2993 38.68C65.7059 32.6956 72.3477 27.9673 72.3477 18.2188ZM51.7227 25.9531H46.5664V31.1094H41.4102V25.9531H36.2539V20.7969H41.4102V15.6406H46.5664V20.7969H51.7227V25.9531Z" fill="#141414"/>
<path d="M84.8947 23.5811C79.6352 23.5811 78.2775 48.0217 78.1742 48.5375C77.6505 52.1187 75.1277 57.42 70.8673 60.612L59.7004 68.7199L56.6087 64.5909L67.7756 56.4855C72.1992 53.169 74.2152 47.5061 68.6867 47.5061C63.7353 47.5061 54.48 53.2386 51.7362 55.5127C48.4598 58.2283 46.5664 62.2632 46.5664 66.5189V88H62.0352C62.0352 85.5248 63.3758 82.8264 65.4381 80.2482C67.6039 77.4123 70.6977 74.5248 73.8944 71.5857C79.9787 65.8623 86.2865 59.9842 87.1117 54.0031C87.6016 49.9853 88.0084 43.0945 87.9881 36.9531C87.9658 30.0755 87.3831 23.8033 84.8947 23.5811Z" fill="#00AA72"/>
<path d="M35.6355 55.0343C28.365 50.0326 22.8482 47.5061 19.2904 47.5061C13.7618 47.5061 15.7779 53.169 20.2015 56.4855L31.3684 64.5909L28.2767 68.7199L17.1098 60.612C12.849 57.42 10.3262 52.1187 9.80253 48.5375C9.69923 48.0217 8.34159 23.5811 3.08204 23.5811C0.194545 23.8389 -0.11483 32.2436 0.0400292 40.2873C0.143326 46.1654 0.607217 51.8889 0.864857 54.0031C1.69003 59.9842 7.99784 65.8625 14.0822 71.5857C17.2791 74.5248 20.3727 77.4123 22.5385 80.2482C24.6008 82.8264 25.9414 85.5248 25.9414 88H41.4102V66.6218C41.4105 62.067 39.2722 57.7764 35.6355 55.0343Z" fill="#00AA72"/>
</g>
<defs>
<clipPath id="clip0_9989_16397">
<rect width="88" height="88" fill="white"/>
</clipPath>
</defs>
</svg>
