<svg width="50" height="50" viewBox="0 0 50 50" fill="none" xmlns="http://www.w3.org/2000/svg">
<g clip-path="url(#clip0_9989_13355)">
<path d="M5.83272 14.5899C5.78877 14.4405 5.80537 14.294 5.88252 14.1582C7.75948 10.8584 10.4636 8.08988 13.7136 6.14164C16.8718 4.24515 20.5398 3.12113 24.4567 3.02445C24.7585 3.01859 24.9997 2.76957 24.9997 2.46781V0.557654C24.9997 0.328162 25.1325 0.130897 25.3435 0.043006C25.5564 -0.0429315 25.7888 0.00101386 25.9528 0.165076L30.0827 4.29496C30.3015 4.51371 30.3015 4.8682 30.0827 5.08402L25.9528 9.21683C25.7898 9.37992 25.5573 9.42484 25.3435 9.33597C25.1335 9.25004 24.9997 9.05375 24.9997 8.82133V6.92679C24.9997 6.77152 24.944 6.63578 24.8308 6.52836C24.7175 6.41801 24.5817 6.36527 24.4265 6.37015C21.1355 6.46976 18.0651 7.41703 15.4245 9.00004C12.6814 10.6475 10.3972 12.9756 8.8083 15.7549C8.65889 16.0147 8.32686 16.1094 8.06123 15.9678L6.10713 14.9239C5.96846 14.8526 5.87666 14.7393 5.83272 14.5899ZM15.7536 41.1924C12.9773 39.6035 10.6462 37.3194 9.00166 34.5762C7.41866 31.9356 6.46846 28.8653 6.37178 25.5743C6.36592 25.419 6.41866 25.2813 6.52705 25.17C6.63741 25.0567 6.77022 25.001 6.92842 25.001H8.82198C9.05147 25.001 9.24873 24.8682 9.33663 24.6553C9.42452 24.4424 9.37862 24.2119 9.21455 24.0489L5.08467 19.9161C4.86592 19.7002 4.51436 19.7002 4.29561 19.9161L0.165726 24.0489C0.00264042 24.2119 -0.0442346 24.4424 0.043656 24.6553C0.131547 24.8682 0.328812 25.001 0.558304 25.001H2.46846C2.77022 25.001 3.01631 25.2422 3.0251 25.544C3.11885 29.461 4.2458 33.1289 6.13936 36.2871C8.09053 39.5371 10.8562 42.2412 14.1589 44.1153C14.2946 44.1924 14.4382 44.209 14.5876 44.168C14.737 44.1241 14.8503 44.0323 14.9255 43.8936L15.9694 41.9395C16.111 41.6739 16.0173 41.3418 15.7536 41.1924ZM43.8952 35.0743L41.9382 34.0303C41.6726 33.8887 41.3435 33.9834 41.1931 34.2461C39.6013 37.0225 37.3181 39.3506 34.5739 40.9981C31.9362 42.5811 28.863 43.5284 25.5749 43.628C25.4167 43.6338 25.2819 43.5811 25.1677 43.4698C25.0573 43.3614 24.9987 43.2266 24.9987 43.0713V41.1778C24.9987 40.9483 24.8689 40.751 24.656 40.6631C24.4431 40.5743 24.2106 40.6192 24.0466 40.7823L19.9167 44.9151C19.698 45.1309 19.698 45.4854 19.9167 45.7041L24.0466 49.834C24.2097 49.9971 24.4421 50.044 24.656 49.9561C24.8698 49.8682 24.9987 49.6709 24.9987 49.4414V47.5313C24.9987 47.2295 25.2399 46.9805 25.5437 46.9746C29.4606 46.878 33.1257 45.7539 36.2839 43.8575C39.5339 41.9082 42.238 39.1407 44.1149 35.8409C44.1921 35.7051 44.2087 35.5616 44.1647 35.4092C44.1257 35.2598 44.031 35.1465 43.8952 35.0743ZM49.9548 25.3438C49.8659 25.1309 49.6696 25.001 49.4401 25.001H47.5329C47.2282 25.001 46.9821 24.7578 46.9733 24.4561C46.8796 20.5391 45.7526 16.8711 43.8591 13.7129C41.9099 10.4629 39.1423 7.75883 35.8425 5.8848C35.7038 5.80765 35.5603 5.79105 35.4108 5.83207C35.2614 5.87601 35.1481 5.96781 35.073 6.10648L34.0319 8.06351C33.8884 8.32914 33.9851 8.65824 34.2448 8.80863C37.0212 10.3975 39.3522 12.6846 40.9968 15.4248C42.5827 18.0655 43.53 21.1358 43.6296 24.4268C43.6325 24.585 43.5798 24.7198 43.4714 24.8311C43.363 24.9444 43.2282 25.003 43.07 25.003H41.1765C40.947 25.003 40.7497 25.1329 40.6618 25.3457C40.573 25.5586 40.6198 25.7911 40.7839 25.9522L44.9138 30.085C45.1325 30.3008 45.487 30.3008 45.7028 30.085L49.8356 25.9522C49.9968 25.7901 50.0437 25.5577 49.9548 25.3438ZM24.9997 35.376C19.2858 35.376 14.6247 30.7139 14.6247 25.001C14.6247 19.2842 19.2868 14.6231 24.9997 14.6231C30.7165 14.6231 35.3747 19.2852 35.3747 25.001C35.3747 30.7139 30.7155 35.376 24.9997 35.376ZM24.7116 28.4082L30.3894 22.7305C30.7048 22.4151 30.7048 21.9053 30.3894 21.5899C30.0739 21.2745 29.5642 21.2745 29.2487 21.5899L24.1413 26.7002L20.7507 23.3096C20.4353 22.9942 19.9255 22.9942 19.6101 23.3096C19.2946 23.625 19.2946 24.1348 19.6101 24.4502L23.571 28.4092C23.8845 28.7237 24.3962 28.7237 24.7116 28.4082Z" fill="#00AA72"/>
</g>
<defs>
<clipPath id="clip0_9989_13355">
<rect width="50" height="50" fill="white"/>
</clipPath>
</defs>
</svg>
