<svg width="48" height="47" viewBox="0 0 48 47" fill="none" xmlns="http://www.w3.org/2000/svg">
<g clip-path="url(#clip0_9989_13357)">
<path d="M33.9235 8.46468C33.7501 8.91596 33.6547 9.40422 33.6547 9.91406C33.6547 12.1915 35.5475 14.0449 37.8734 14.0449C38.3944 14.0449 38.8933 13.9513 39.3543 13.7815C41.0976 16.412 42.0892 19.4077 42.2544 22.5527C43.2613 22.997 44.2053 23.5477 45.0791 24.2022C45.0884 23.9682 45.0922 23.7341 45.0922 23.5C45.0922 19.3545 43.859 15.3987 41.5168 11.9927C41.8818 11.3816 42.0922 10.6716 42.0922 9.91406C42.0922 7.63658 40.1994 5.7832 37.8734 5.7832C37.1 5.7832 36.3751 5.9891 35.7511 6.34638C32.2726 4.05338 28.2324 2.8457 23.9984 2.8457C23.7594 2.8457 23.5203 2.84937 23.2812 2.85855C23.9497 3.7141 24.5122 4.6385 24.9659 5.62439C28.1776 5.78614 31.237 6.75772 33.9235 8.46468Z" fill="#00AA72"/>
<path d="M14.075 38.5354C14.2483 38.0841 14.3438 37.5959 14.3438 37.086C14.3438 34.8086 12.4509 32.9552 10.125 32.9552C9.60431 32.9552 9.10566 33.0486 8.64478 33.2184C6.90141 30.5878 5.90916 27.5922 5.74406 24.4474C4.73719 24.0031 3.79313 23.4524 2.91937 22.7979C2.91 23.0319 2.90625 23.266 2.90625 23.5001C2.90625 27.645 4.13963 31.6018 6.48141 35.0079C6.11653 35.6189 5.90625 36.3287 5.90625 37.086C5.90625 39.3635 7.79906 41.2169 10.125 41.2169C10.8984 41.2169 11.6233 41.011 12.2473 40.6537C15.7259 42.9467 19.7669 44.1544 24 44.1544C24.2391 44.1544 24.4781 44.1507 24.7172 44.1415C24.0488 43.286 23.4863 42.3616 23.0325 41.3757C19.8208 41.214 16.7615 40.2424 14.075 38.5354Z" fill="#00AA72"/>
<path d="M38.2963 33.4388C38.2963 32.3528 37.3934 31.4697 36.2844 31.4697C35.1753 31.4697 34.2734 32.3528 34.2734 33.4388C34.2734 34.5247 35.1753 35.4087 36.2844 35.4087C37.3934 35.4087 38.2963 34.5247 38.2963 33.4388Z" fill="#00AA72"/>
<path d="M36.2819 38.1626C33.3822 38.1626 31.0234 40.4722 31.0234 43.3115V45.779C32.6059 46.5602 34.3919 46.9999 36.28 46.9999C38.17 46.9999 39.9588 46.5593 41.5413 45.7771V43.3115C41.5413 41.9354 40.9938 40.6429 40.0009 39.6708C39.0072 38.6987 37.6862 38.1626 36.2819 38.1626Z" fill="#00AA72"/>
<path d="M36.2812 24.0508C29.8191 24.0508 24.5625 29.1978 24.5625 35.5254C24.5625 38.7943 25.9659 41.7474 28.2122 43.8394V43.3116C28.2122 40.2988 29.9438 37.6753 32.4825 36.3424C31.8422 35.541 31.4597 34.5331 31.4597 33.4388C31.4597 30.8346 33.6234 28.7159 36.2831 28.7159C38.9437 28.7159 41.1075 30.8346 41.1075 33.4388C41.1075 34.5312 40.7259 35.5373 40.0884 36.3378C40.7794 36.7004 41.4197 37.1649 41.9906 37.723C43.515 39.2156 44.355 41.2003 44.355 43.3116V43.8348C46.5994 41.7437 48 38.7915 48 35.5254C48 29.1978 42.7434 24.0508 36.2812 24.0508Z" fill="#00AA72"/>
<path d="M13.7337 9.38799C13.7337 8.30203 12.8309 7.41895 11.7219 7.41895C10.6128 7.41895 9.71094 8.30203 9.71094 9.38799C9.71094 10.4739 10.6128 11.3579 11.7219 11.3579C12.8309 11.3579 13.7337 10.4739 13.7337 9.38799Z" fill="#00AA72"/>
<path d="M6.46094 19.2607V21.7282C8.04344 22.5094 9.82938 22.9491 11.7175 22.9491C13.6075 22.9491 15.3962 22.5085 16.9787 21.7264V19.2607C16.9787 17.8847 16.4313 16.5922 15.4384 15.62C14.4447 14.6479 13.1237 14.1118 11.7194 14.1118C8.81969 14.1118 6.46094 16.4214 6.46094 19.2607Z" fill="#00AA72"/>
<path d="M3.64969 19.7887V19.2608C3.64969 16.248 5.38125 13.6245 7.92 12.2916C7.27969 11.4902 6.89719 10.4823 6.89719 9.38807C6.89719 6.78379 9.06094 4.66512 11.7206 4.66512C14.3812 4.66512 16.545 6.78379 16.545 9.38807C16.545 10.4804 16.1634 11.4865 15.5259 12.287C16.2169 12.6496 16.8572 13.1141 17.4281 13.6722C18.9525 15.1648 19.7925 17.1495 19.7925 19.2608V19.7841C22.0369 17.6929 23.4375 14.7407 23.4375 11.4746C23.4375 5.14705 18.1809 0 11.7188 0C5.25656 0 0 5.14705 0 11.4746C0 14.7435 1.40344 17.6966 3.64969 19.7887Z" fill="#00AA72"/>
</g>
<defs>
<clipPath id="clip0_9989_13357">
<rect width="48" height="47" fill="white"/>
</clipPath>
</defs>
</svg>
