<svg width="104" height="104" viewBox="0 0 104 104" fill="none" xmlns="http://www.w3.org/2000/svg">
<path d="M92.6717 80.0471C91.6428 79.6078 90.5358 79.3809 89.417 79.3799H14.5601C3.88062 79.6674 3.7461 95.2922 14.5603 95.6531H89.417C91.2771 95.6332 93.0746 94.9785 94.5117 93.7974C95.9488 92.6163 96.9393 90.9797 97.3191 89.1587C97.6989 87.3377 97.4452 85.4416 96.6 83.7845C95.7548 82.1274 94.3688 80.8088 92.6717 80.0471ZM20.63 89.1438C20.2051 89.1358 19.8002 88.9618 19.5018 88.6593C19.2035 88.3567 19.0353 87.9494 19.0331 87.5244C19.031 87.0995 19.1952 86.6906 19.4905 86.385C19.7859 86.0795 20.189 85.9016 20.6138 85.8893C21.0384 85.8977 21.443 86.0717 21.7411 86.3743C22.0391 86.6768 22.2072 87.0839 22.2093 87.5086C22.2114 87.9334 22.0474 88.3421 21.7524 88.6476C21.4573 88.9531 21.0545 89.1312 20.63 89.1438ZM33.193 89.1438C32.7627 89.1419 32.3506 88.9696 32.047 88.6646C31.7434 88.3596 31.573 87.9468 31.573 87.5165C31.573 87.0862 31.7435 86.6734 32.0471 86.3684C32.3507 86.0635 32.7627 85.8912 33.1931 85.8893C33.6225 85.8926 34.0331 86.0655 34.3356 86.3703C34.638 86.6752 34.8077 87.0872 34.8077 87.5166C34.8077 87.946 34.638 88.358 34.3355 88.6628C34.033 88.9676 33.6224 89.1405 33.193 89.1438ZM45.7396 89.1438C45.3147 89.1357 44.9099 88.9618 44.6115 88.6592C44.3131 88.3566 44.1449 87.9493 44.1428 87.5244C44.1407 87.0994 44.3049 86.6905 44.6003 86.385C44.8956 86.0795 45.2988 85.9016 45.7235 85.8893C46.1482 85.8977 46.5527 86.0718 46.8508 86.3743C47.1488 86.6769 47.3169 87.084 47.319 87.5087C47.3211 87.9334 47.1571 88.3421 46.862 88.6476C46.5669 88.9531 46.1641 89.1312 45.7396 89.1438ZM58.3026 89.1438C57.8723 89.1419 57.4602 88.9696 57.1567 88.6646C56.8531 88.3596 56.6826 87.9468 56.6826 87.5165C56.6826 87.0862 56.8531 86.6734 57.1567 86.3684C57.4603 86.0635 57.8724 85.8912 58.3027 85.8893C58.7321 85.8926 59.1428 86.0655 59.4452 86.3703C59.7477 86.6752 59.9174 87.0872 59.9174 87.5166C59.9173 87.946 59.7476 88.358 59.4451 88.6628C59.1427 88.9676 58.732 89.1405 58.3026 89.1438ZM70.8493 89.1438C70.4245 89.1358 70.0196 88.9619 69.7212 88.6593C69.4228 88.3567 69.2546 87.9494 69.2525 87.5245C69.2504 87.0995 69.4145 86.6906 69.7098 86.3851C70.0052 86.0795 70.4083 85.9016 70.8331 85.8893C71.2577 85.8977 71.6623 86.0717 71.9604 86.3743C72.2585 86.6768 72.4265 87.0839 72.4286 87.5086C72.4308 87.9333 72.2668 88.342 71.9717 88.6475C71.6767 88.953 71.2739 89.1312 70.8493 89.1438ZM83.4122 89.1438C82.9843 89.1403 82.5751 88.9684 82.273 88.6654C81.9709 88.3623 81.8003 87.9525 81.7982 87.5246C81.7961 87.0967 81.9625 86.6852 82.2616 86.3791C82.5606 86.073 82.9681 85.8971 83.396 85.8893C83.8234 85.8934 84.2321 86.0656 84.5337 86.3685C84.8353 86.6715 85.0056 87.081 85.0077 87.5085C85.0098 87.936 84.8437 88.3471 84.5452 88.6531C84.2466 88.9591 83.8396 89.1354 83.4122 89.1438Z" fill="black"/>
<path d="M69.8906 61.4789V76.1249H89.4185C90.5203 76.1265 91.6163 76.2854 92.6732 76.5969V61.4789C92.6739 61.265 92.6323 61.0531 92.5508 60.8553C92.4693 60.6575 92.3494 60.4778 92.1982 60.3266C92.0469 60.1753 91.8672 60.0555 91.6694 59.9739C91.4716 59.8924 91.2597 59.8508 91.0458 59.8516H71.5179C71.304 59.8508 71.0921 59.8924 70.8943 59.974C70.6965 60.0555 70.5168 60.1753 70.3656 60.3266C70.2143 60.4779 70.0945 60.6576 70.013 60.8553C69.9315 61.0531 69.8899 61.265 69.8906 61.4789Z" fill="#00AA72"/>
<path d="M34.0872 76.1249V61.4789C34.088 61.265 34.0464 61.0531 33.9649 60.8553C33.8833 60.6575 33.7635 60.4778 33.6122 60.3266C33.461 60.1753 33.2813 60.0555 33.0835 59.9739C32.8857 59.8924 32.6738 59.8508 32.4599 59.8516H12.932C12.7181 59.8508 12.5061 59.8924 12.3084 59.974C12.1106 60.0555 11.9309 60.1753 11.7797 60.3266C11.6284 60.4779 11.5086 60.6575 11.4271 60.8553C11.3455 61.0531 11.304 61.265 11.3047 61.4789V76.5969C12.3618 76.2866 13.4576 76.1277 14.5594 76.1249H34.0872Z" fill="#00AA72"/>
<path d="M61.7528 59.8516H42.2249C42.011 59.8508 41.7991 59.8924 41.6013 59.974C41.4035 60.0555 41.2239 60.1753 41.0726 60.3266C40.9214 60.4779 40.8015 60.6576 40.72 60.8553C40.6385 61.0531 40.5969 61.265 40.5977 61.4789V76.1249H63.3802V61.4789C63.3809 61.265 63.3393 61.0531 63.2578 60.8553C63.1763 60.6575 63.0564 60.4778 62.9052 60.3266C62.7539 60.1753 62.5742 60.0555 62.3764 59.9739C62.1786 59.8924 61.9667 59.8508 61.7528 59.8516Z" fill="#00AA72"/>
<path d="M30.0177 37.0039C31.9001 36.8578 33.8233 37.1985 34.6067 39.1358C35.4351 41.0562 34.3031 42.6839 32.8654 43.8873C32.5605 44.1946 32.3895 44.61 32.3895 45.0428C32.3895 45.4757 32.5606 45.8911 32.8655 46.1983L37.7312 51.064C38.0384 51.3689 38.4537 51.54 38.8866 51.54C39.3195 51.54 39.7348 51.3689 40.042 51.064L41.0185 50.0713C41.506 49.5982 42.1213 49.2781 42.7885 49.1504C43.4557 49.0226 44.1458 49.0928 44.7736 49.3522C45.4014 49.6117 45.9397 50.0491 46.322 50.6106C46.7044 51.1721 46.9142 51.8332 46.9256 52.5125L46.9257 53.9118C46.9249 54.1257 46.9665 54.3377 47.048 54.5354C47.1295 54.7332 47.2493 54.9129 47.4006 55.0642C47.5519 55.2154 47.7315 55.3352 47.9293 55.4168C48.1271 55.4983 48.339 55.5399 48.5529 55.5391H55.4202C55.6341 55.5399 55.846 55.4983 56.0438 55.4168C56.2416 55.3352 56.4213 55.2154 56.5725 55.0642C56.7238 54.9129 56.8436 54.7332 56.9252 54.5355C57.0067 54.3377 57.0483 54.1257 57.0476 53.9118V52.5124C57.0589 51.8331 57.2687 51.172 57.6511 50.6105C58.0335 50.049 58.5718 49.6116 59.1996 49.3522C59.8275 49.0927 60.5175 49.0226 61.1847 49.1504C61.8519 49.2782 62.4672 49.5983 62.9547 50.0714L63.9312 51.064C64.2384 51.3689 64.6537 51.54 65.0866 51.54C65.5194 51.54 65.9347 51.3689 66.2419 51.064L71.1076 46.1983C71.4125 45.8911 71.5836 45.4757 71.5836 45.0429C71.5836 44.61 71.4125 44.1947 71.1076 43.8874L70.115 42.911C69.642 42.4235 69.3219 41.8082 69.1941 41.141C69.0663 40.4738 69.1365 39.7838 69.3959 39.1559C69.6554 38.5281 70.0928 37.9898 70.6543 37.6074C71.2158 37.2251 71.8768 37.0153 72.5561 37.0039H73.9554C74.3866 37.0026 74.7998 36.8308 75.1048 36.5259C75.4097 36.221 75.5815 35.8078 75.5828 35.3766V28.5093C75.5816 28.0781 75.4097 27.6649 75.1048 27.36C74.7999 27.0551 74.3867 26.8832 73.9554 26.882C69.2522 27.5123 67.3447 22.8329 71.1078 19.9983C71.4061 19.6876 71.5726 19.2736 71.5725 18.8429C71.5725 18.4122 71.4059 17.9982 71.1076 17.6876L66.242 12.8219C65.9348 12.517 65.5195 12.3459 65.0867 12.3459C64.6538 12.3459 64.2385 12.517 63.9313 12.8219C61.0662 16.6126 56.4162 14.6363 57.0478 9.97387C57.0485 9.75997 57.0068 9.54805 56.9253 9.35031C56.8437 9.15257 56.7239 8.97291 56.5726 8.82167C56.4214 8.67044 56.2417 8.55061 56.0439 8.46909C55.8462 8.38758 55.6342 8.34598 55.4203 8.34669H48.5531C48.3392 8.34596 48.1272 8.38755 47.9295 8.46908C47.7317 8.55061 47.552 8.67045 47.4008 8.82171C47.2495 8.97298 47.1297 9.15267 47.0482 9.35044C46.9667 9.54821 46.9251 9.76015 46.9258 9.97406C47.0721 11.8565 46.731 13.7796 44.7939 14.5631C42.8744 15.3916 41.2451 14.2593 40.0423 12.8218C39.735 12.5169 39.3197 12.3459 38.8868 12.3459C38.4539 12.3459 38.0386 12.517 37.7313 12.8219L32.8657 17.6876C31.7087 18.9473 32.8759 20.1134 33.8585 20.9747C34.3316 21.4623 34.6516 22.0776 34.7794 22.7448C34.9071 23.412 34.8369 24.102 34.5775 24.7298C34.318 25.3577 33.8806 25.8959 33.3191 26.2783C32.7576 26.6607 32.0965 26.8705 31.4173 26.8819L30.0179 26.882C29.5867 26.8832 29.1735 27.0551 28.8686 27.36C28.5637 27.6649 28.3919 28.0781 28.3906 28.5093V35.3766C28.3919 35.8078 28.5637 36.2209 28.8686 36.5258C29.1734 36.8307 29.5866 37.0026 30.0177 37.0039ZM51.9869 22.179C64.891 22.5857 64.8881 41.302 51.9867 41.7069C39.0823 41.3001 39.0853 22.5838 51.9869 22.179Z" fill="black"/>
</svg>
