<svg width="96" height="96" viewBox="0 0 96 96" fill="none" xmlns="http://www.w3.org/2000/svg">
<g clip-path="url(#clip0_10026_6993)">
<path d="M93.06 33.5175L89.128 31.2495C89.644 29.5775 90 27.8375 90 25.9975C90 24.1575 89.64 22.4175 89.128 20.7455L93.06 18.4775C94.976 17.3775 95.632 14.9295 94.528 13.0135C93.424 11.1015 90.984 10.4415 89.064 11.5455L85.156 13.7975C82.736 11.1895 79.584 9.29353 76 8.47753V3.99353C76 1.78553 74.208 -0.00646973 72 -0.00646973C69.792 -0.00646973 68 1.78553 68 3.99353V8.47753C64.416 9.29753 61.26 11.1895 58.844 13.7975L54.936 11.5455C53.016 10.4415 50.576 11.0975 49.472 13.0135C48.368 14.9295 49.024 17.3735 50.94 18.4775L54.872 20.7455C54.356 22.4175 54 24.1575 54 25.9975C54 27.8375 54.36 29.5775 54.872 31.2495L50.94 33.5175C49.024 34.6175 48.368 37.0655 49.472 38.9815C50.58 40.9095 53.052 41.5415 54.936 40.4495L58.844 38.1975C61.264 40.8055 64.416 42.7015 68 43.5175V48.0015C68 50.2095 69.792 52.0015 72 52.0015C74.208 52.0015 76 50.2095 76 48.0015V43.5175C79.584 42.6975 82.74 40.8055 85.156 38.1975L89.064 40.4495C90.944 41.5415 93.416 40.9135 94.528 38.9815C95.632 37.0655 94.976 34.6215 93.06 33.5175ZM72 32.0015C68.692 32.0015 66 29.3095 66 26.0015C66 22.6935 68.692 20.0015 72 20.0015C75.308 20.0015 78 22.6935 78 26.0015C78 29.3095 75.308 32.0015 72 32.0015ZM96 50.0815V60.0015C96 71.0295 87.028 80.0015 76 80.0015H52V88.0015H68C70.208 88.0015 72 89.7935 72 92.0015C72 94.2095 70.208 96.0015 68 96.0015H28C25.792 96.0015 24 94.2095 24 92.0015C24 89.7935 25.792 88.0015 28 88.0015H44V80.0015H20C8.972 80.0015 0 71.0295 0 60.0015V28.0015C0 16.9735 8.972 8.00153 20 8.00153H43.192C39.92 13.2255 38 19.3815 38 26.0015C38 44.7775 53.224 60.0015 72 60.0015C81.368 60.0015 89.852 56.2095 96 50.0815Z" fill="#152934"/>
</g>
<defs>
<clipPath id="clip0_10026_6993">
<rect width="96" height="96" fill="white"/>
</clipPath>
</defs>
</svg>
