<svg width="18" height="18" viewBox="0 0 18 18" fill="none" xmlns="http://www.w3.org/2000/svg">
<g clip-path="url(#clip0_9989_13318)">
<path d="M3.19922 11.1094C3.78176 11.1094 4.25391 10.6372 4.25391 10.0547H7.24219V7.06641C6.65965 7.06641 6.1875 6.59426 6.1875 6.01172C6.1875 5.42918 6.65965 4.95703 7.24219 4.95703V3.19922C7.24219 3.00505 7.08479 2.84766 6.89062 2.84766H0.738281C0.349945 2.84766 0.0351562 3.16245 0.0351562 3.55078V10.0547H2.14453C2.14453 10.6372 2.61668 11.1094 3.19922 11.1094Z" fill="#00AA72"/>
<path d="M8.29688 14.8008C8.29688 14.2182 7.82473 13.7461 7.24219 13.7461V10.7578H4.81008C4.53867 11.378 3.91852 11.8125 3.19922 11.8125C2.47992 11.8125 1.85977 11.378 1.58836 10.7578H0.0351562V17.2617C0.0351562 17.6502 0.349805 17.9648 0.738281 17.9648H7.24219V15.8555C7.82473 15.8555 8.29688 15.3833 8.29688 14.8008Z" fill="#00AA72"/>
<path d="M14.8008 10.7578H13.043C13.043 10.1753 12.5708 9.70312 11.9883 9.70312C11.4057 9.70312 10.9336 10.1753 10.9336 10.7578H7.94531V13.1897C8.56564 13.4615 9 14.0813 9 14.8008C9 15.5202 8.56564 16.1401 7.94531 16.4118V17.9648H14.4492C14.8376 17.9648 15.1523 17.6501 15.1523 17.2617V11.1094C15.1523 10.9152 14.9949 10.7578 14.8008 10.7578Z" fill="#00AA72"/>
<path d="M17.2617 0.0351562H11.1094C10.9152 0.0351562 10.7578 0.192551 10.7578 0.386719V2.14453C10.1753 2.14453 9.70312 2.61668 9.70312 3.19922C9.70312 3.78176 10.1753 4.25391 10.7578 4.25391V7.24219H13.7461C13.7461 6.65965 14.2182 6.1875 14.8008 6.1875C15.3833 6.1875 15.8555 6.65965 15.8555 7.24219H17.6133C17.8074 7.24219 17.9648 7.08479 17.9648 6.89062V0.738281C17.9648 0.349945 17.6501 0.0351562 17.2617 0.0351562Z" fill="#00AA72"/>
</g>
<defs>
<clipPath id="clip0_9989_13318">
<rect width="18" height="18" fill="white"/>
</clipPath>
</defs>
</svg>
