<svg width="59" height="47" viewBox="0 0 59 47" fill="none" xmlns="http://www.w3.org/2000/svg">
<mask id="path-1-outside-1_10027_7026" maskUnits="userSpaceOnUse" x="-0.640625" y="-0.147461" width="60" height="47" fill="black">
<rect fill="white" x="-0.640625" y="-0.147461" width="60" height="47"/>
<path d="M35.8295 37.8876L44.1769 22.2631H38.826V2.99992L55.7348 2.99992V25.4736L40.1102 41.9543L35.8295 37.8876ZM3.72428 37.8876L12.0717 22.2631H6.72077L6.72077 2.99992H23.6295V25.4736L8.00499 41.9543L3.72428 37.8876Z"/>
</mask>
<path d="M35.8295 37.8876L33.1835 36.474L32.1069 38.4891L33.7633 40.0626L35.8295 37.8876ZM44.1769 22.2631L46.823 23.6767L49.1809 19.2631L44.1769 19.2631V22.2631ZM38.826 22.2631H35.826V25.2631H38.826V22.2631ZM38.826 2.99992V-7.62939e-05H35.826V2.99992H38.826ZM55.7348 2.99992H58.7348V-7.62939e-05H55.7348V2.99992ZM55.7348 25.4736L57.9119 27.5376L58.7348 26.6696V25.4736H55.7348ZM40.1102 41.9543L38.044 44.1293L40.2212 46.1977L42.2874 44.0183L40.1102 41.9543ZM3.72428 37.8876L1.07822 36.474L0.00167084 38.4891L1.65804 40.0626L3.72428 37.8876ZM12.0717 22.2631L14.7177 23.6767L17.0757 19.2631H12.0717V22.2631ZM6.72077 22.2631H3.72077V25.2631H6.72077V22.2631ZM6.72077 2.99992V-7.62939e-05H3.72077V2.99992H6.72077ZM23.6295 2.99992H26.6295V-7.62939e-05H23.6295V2.99992ZM23.6295 25.4736L25.8067 27.5376L26.6295 26.6696V25.4736H23.6295ZM8.00499 41.9543L5.93874 44.1293L8.11597 46.1977L10.1821 44.0183L8.00499 41.9543ZM35.8295 37.8876L38.4756 39.3013L46.823 23.6767L44.1769 22.2631L41.5309 20.8494L33.1835 36.474L35.8295 37.8876ZM44.1769 22.2631V19.2631H38.826V22.2631V25.2631H44.1769V22.2631ZM38.826 22.2631H41.826V2.99992H38.826H35.826V22.2631H38.826ZM38.826 2.99992V5.99992L55.7348 5.99992V2.99992V-7.62939e-05H38.826V2.99992ZM55.7348 2.99992H52.7348V25.4736H55.7348H58.7348V2.99992H55.7348ZM55.7348 25.4736L53.5577 23.4096L37.9331 39.8903L40.1102 41.9543L42.2874 44.0183L57.9119 27.5376L55.7348 25.4736ZM40.1102 41.9543L42.1765 39.7793L37.8958 35.7126L35.8295 37.8876L33.7633 40.0626L38.044 44.1293L40.1102 41.9543ZM3.72428 37.8876L6.37034 39.3013L14.7177 23.6767L12.0717 22.2631L9.4256 20.8494L1.07822 36.474L3.72428 37.8876ZM12.0717 22.2631V19.2631H6.72077V22.2631V25.2631H12.0717V22.2631ZM6.72077 22.2631H9.72077V2.99992H6.72077H3.72077L3.72077 22.2631H6.72077ZM6.72077 2.99992V5.99992H23.6295V2.99992V-7.62939e-05L6.72077 -7.62939e-05V2.99992ZM23.6295 2.99992H20.6295V25.4736H23.6295H26.6295V2.99992H23.6295ZM23.6295 25.4736L21.4524 23.4096L5.82787 39.8903L8.00499 41.9543L10.1821 44.0183L25.8067 27.5376L23.6295 25.4736ZM8.00499 41.9543L10.0712 39.7793L5.79053 35.7126L3.72428 37.8876L1.65804 40.0626L5.93874 44.1293L8.00499 41.9543Z" fill="#00AA72" mask="url(#path-1-outside-1_10027_7026)"/>
</svg>
