<svg width="88" height="88" viewBox="0 0 88 88" fill="none" xmlns="http://www.w3.org/2000/svg">
<path d="M10.2656 25.6782C10.1882 25.4152 10.2175 25.1574 10.3532 24.9185C13.6567 19.1108 18.4159 14.2382 24.1359 10.8093C29.6943 7.47147 36.15 5.49319 43.0439 5.32303C43.575 5.31272 43.9995 4.87444 43.9995 4.34335V0.981472C43.9995 0.577566 44.2332 0.230378 44.6045 0.0756906C44.9792 -0.0755594 45.3882 0.0017844 45.677 0.290534L52.9456 7.55913C53.3306 7.94413 53.3306 8.56803 52.9456 8.94788L45.677 16.2216C45.39 16.5087 44.9809 16.5877 44.6045 16.4313C44.235 16.2801 43.9995 15.9346 43.9995 15.5255V12.1912C43.9995 11.9179 43.9015 11.679 43.7021 11.4899C43.5028 11.2957 43.2639 11.2029 42.9906 11.2115C37.1984 11.3868 31.7946 13.054 27.1471 15.8401C22.3192 18.7396 18.299 22.8371 15.5026 27.7287C15.2396 28.1858 14.6553 28.3526 14.1878 28.1033L10.7486 26.266C10.5045 26.1405 10.3429 25.9412 10.2656 25.6782ZM27.7264 72.4987C22.84 69.7022 18.7373 65.6821 15.8429 60.8541C13.0568 56.2066 11.3845 50.8029 11.2143 45.0107C11.204 44.7374 11.2968 44.4951 11.4876 44.2991C11.6818 44.0998 11.9156 44.0018 12.194 44.0018H15.5267C15.9306 44.0018 16.2778 43.768 16.4325 43.3933C16.5871 43.0187 16.5064 42.613 16.2176 42.326L8.94902 35.0522C8.56402 34.6724 7.94527 34.6724 7.56027 35.0522L0.291678 42.326C0.00464713 42.613 -0.0778529 43.0187 0.0768346 43.3933C0.231522 43.768 0.57871 44.0018 0.982616 44.0018H4.34449C4.87558 44.0018 5.30871 44.4263 5.32418 44.9574C5.48918 51.8513 7.47262 58.3069 10.8053 63.8654C14.2393 69.5854 19.1068 74.3446 24.9196 77.6429C25.1586 77.7787 25.4112 77.8079 25.6742 77.7357C25.9371 77.6583 26.1365 77.4968 26.2689 77.2527L28.1062 73.8135C28.3554 73.346 28.1904 72.7616 27.7264 72.4987ZM77.2556 61.7307L73.8112 59.8933C73.3437 59.6441 72.7645 59.8108 72.4998 60.2732C69.6982 65.1596 65.6798 69.2571 60.8501 72.1566C56.2078 74.9427 50.7989 76.6099 45.0118 76.7852C44.7334 76.7955 44.4962 76.7027 44.2951 76.5068C44.1009 76.316 43.9978 76.0788 43.9978 75.8055V72.4729C43.9978 72.069 43.7692 71.7218 43.3945 71.5671C43.0198 71.4107 42.6107 71.4897 42.322 71.7768L35.0534 79.0505C34.6684 79.4304 34.6684 80.0543 35.0534 80.4393L42.322 87.7079C42.609 87.9949 43.0181 88.0774 43.3945 87.9227C43.7709 87.768 43.9978 87.4208 43.9978 87.0169V83.6551C43.9978 83.124 44.4223 82.6857 44.9568 82.6754C51.8507 82.5052 58.3012 80.5269 63.8596 77.1891C69.5796 73.7585 74.3389 68.8876 77.6423 63.0799C77.7781 62.841 77.8073 62.5883 77.73 62.3202C77.6612 62.0573 77.4945 61.8579 77.2556 61.7307ZM87.9204 44.6051C87.764 44.2304 87.4185 44.0018 87.0146 44.0018H83.6579C83.1217 44.0018 82.6886 43.5738 82.6731 43.0427C82.5081 36.1488 80.5246 29.6932 77.192 24.1348C73.7614 18.4148 68.8904 13.6555 63.0828 10.3573C62.8387 10.2215 62.5861 10.1923 62.3231 10.2644C62.0601 10.3418 61.8607 10.5033 61.7284 10.7474L59.8962 14.1918C59.6436 14.6593 59.8137 15.2385 60.2709 15.5032C65.1573 18.2996 69.26 22.3249 72.1543 27.1477C74.9456 31.7952 76.6128 37.199 76.7881 42.9912C76.7932 43.2696 76.7004 43.5068 76.5096 43.7027C76.3189 43.9021 76.0817 44.0052 75.8032 44.0052H72.4706C72.0667 44.0052 71.7195 44.2338 71.5648 44.6085C71.4084 44.9832 71.4909 45.3923 71.7796 45.6758L79.0482 52.9496C79.4332 53.3294 80.0571 53.3294 80.437 52.9496L87.7107 45.6758C87.9943 45.3905 88.0768 44.9815 87.9204 44.6051ZM43.9995 62.2618C33.9431 62.2618 25.7395 54.0565 25.7395 44.0018C25.7395 33.9402 33.9448 25.7366 43.9995 25.7366C54.0611 25.7366 62.2595 33.9419 62.2595 44.0018C62.2595 54.0565 54.0593 62.2618 43.9995 62.2618ZM43.4925 49.9985L53.4853 40.0057C54.0404 39.4505 54.0404 38.5533 53.4853 37.9982C52.9301 37.443 52.0329 37.443 51.4778 37.9982L42.4887 46.9924L36.5212 41.0249C35.9661 40.4697 35.0689 40.4697 34.5137 41.0249C33.9586 41.5801 33.9586 42.4772 34.5137 43.0324L41.485 50.0002C42.0367 50.5537 42.9373 50.5537 43.4925 49.9985Z" fill="#FAFAFA"/>
</svg>
