<svg width="25" height="25" viewBox="0 0 25 25" fill="none" xmlns="http://www.w3.org/2000/svg">
<g clip-path="url(#clip0_9989_13228)">
<path d="M1.84364 9.31365C3.25241 9.85839 5.14069 10.1584 7.16095 10.1584C7.89757 10.1584 8.62293 10.1176 9.32083 10.0377L11.2707 8.0878L13.3318 9.4855C13.5221 9.39758 13.7159 9.31728 13.9126 9.2448L14.3219 7.11009V4.50732C13.9496 4.74765 13.5099 4.96719 13.0066 5.16174C11.4334 5.77018 9.35745 6.10511 7.16095 6.10511C4.96445 6.10511 2.8883 5.77018 1.31531 5.16174C0.812149 4.96719 0.372314 4.74765 0 4.50732V7.83813C0 8.40099 0.993156 8.98463 1.84364 9.31365Z" fill="#00AA72"/>
<path d="M9.48563 13.3318L8.30574 11.5919C7.92789 11.6125 7.54585 11.6234 7.16095 11.6234C4.96445 11.6234 2.8883 11.2882 1.31531 10.68C0.812149 10.4853 0.372314 10.2657 0 10.0254V13.3562C0 13.8193 0.723648 14.3986 1.84364 14.8317C3.16792 15.3438 4.91619 15.6397 6.79932 15.6732V14.3814L9.24492 13.9124C9.3174 13.7159 9.3977 13.5221 9.48563 13.3318Z" fill="#00AA72"/>
<path d="M22.7626 18.4998L22.8914 18.0769L25.0017 17.6723V15.5922L22.8912 15.1875L22.7626 14.7648C22.6425 14.3698 22.4826 13.9847 22.2879 13.6198L22.0794 13.2298L23.286 11.4506L21.8152 9.97982L20.0363 11.1864L19.646 10.9779C19.2811 10.7832 18.8959 10.6234 18.5012 10.5034L18.0784 10.3746L17.6738 8.26416H15.5937L15.1889 10.3746L14.7661 10.5034C14.3714 10.6234 13.9861 10.7832 13.6213 10.9779L13.2312 11.1864L11.452 9.97982L9.98129 11.4506L11.1879 13.2298L10.9796 13.6198C10.7847 13.9847 10.625 14.3698 10.5049 14.7648L10.3761 15.1875L8.26562 15.5922V17.6723L10.3761 18.0769L10.5049 18.4998C10.625 18.8946 10.7847 19.2799 10.9796 19.6447L11.1879 20.0348L9.98129 21.814L11.452 23.2847L13.2312 22.0781L13.6213 22.2864C13.9861 22.4813 14.3712 22.641 14.7663 22.7612L15.1889 22.8899L15.5937 25.0002H17.6738L18.0786 22.8897L18.5012 22.7612C18.896 22.641 19.2813 22.4812 19.6462 22.2864L20.0363 22.0781L21.8152 23.2847L23.2862 21.8138L22.0796 20.0348L22.2879 19.6447C22.4826 19.2799 22.6425 18.8946 22.7626 18.4998ZM16.6337 19.9284C14.8162 19.9284 13.3376 18.4498 13.3376 16.6323C13.3376 14.8148 14.8162 13.3362 16.6337 13.3362C18.4512 13.3362 19.9298 14.8148 19.9298 16.6323C19.9298 18.4498 18.4512 19.9284 16.6337 19.9284Z" fill="#00AA72"/>
<path d="M1.84364 3.79562C3.25241 4.34055 5.14069 4.64058 7.16095 4.64058C9.18121 4.64058 11.0695 4.34055 12.4783 3.79581C13.5981 3.36266 14.3219 2.78339 14.3219 2.32029C14.3219 1.85719 13.5981 1.27792 12.4783 0.844955C11.0695 0.300026 9.18121 0 7.16095 0C5.14069 0 3.25222 0.300026 1.84364 0.844765C0.723648 1.27792 0 1.85719 0 2.32029C0 2.78339 0.723648 3.36246 1.84364 3.79562Z" fill="#00AA72"/>
<path d="M16.632 14.8008C15.6223 14.8008 14.8008 15.6223 14.8008 16.632C14.8008 17.6418 15.6223 18.4633 16.632 18.4633C17.6418 18.4633 18.4633 17.6418 18.4633 16.632C18.4633 15.6223 17.6418 14.8008 16.632 14.8008Z" fill="#00AA72"/>
</g>
<defs>
<clipPath id="clip0_9989_13228">
<rect width="25" height="25" fill="white"/>
</clipPath>
</defs>
</svg>
