<svg width="34" height="34" viewBox="0 0 34 34" fill="none" xmlns="http://www.w3.org/2000/svg">
<path d="M33.5849 27.7482L28.577 32.7576C27.7483 33.5849 26.6588 34 25.5708 34C24.4828 34 23.3948 33.5863 22.5661 32.759L17.4151 27.608C16.8612 27.0541 16.8612 26.1587 17.4151 25.6048C17.969 25.0509 18.8643 25.0509 19.4183 25.6048L24.0833 30.2699V1.41667C24.0833 0.63325 24.7166 0 25.5 0C26.2834 0 26.9167 0.634667 26.9167 1.41667V30.4116L31.5818 25.7465C32.1357 25.1926 33.031 25.1926 33.5849 25.7465C34.1388 26.299 34.1388 27.1943 33.5849 27.7482ZM15.4119 23.6003C14.1383 24.8738 13.8536 26.7566 14.5364 28.3135C14.4118 28.3163 14.2913 28.3319 14.1667 28.3319C6.34242 28.3333 0 21.9895 0 14.1667C0 6.34383 6.34242 0 14.1667 0C16.7507 0 19.1647 0.70125 21.25 1.90967V23.4373C19.6308 21.9853 16.9603 22.0504 15.4119 23.6003ZM15.5833 5.66667C15.5833 4.88467 14.9487 4.25 14.1667 4.25C8.69833 4.25 4.25 8.69833 4.25 14.1667C4.25 18.1092 6.58467 21.6778 10.1972 23.2574C10.3828 23.3382 10.5754 23.3764 10.7638 23.3764C11.3093 23.3764 11.8292 23.0591 12.0629 22.5264C12.3774 21.8096 12.0502 20.9737 11.3333 20.6607C8.75217 19.5316 7.08333 16.983 7.08333 14.1667C7.08333 10.2609 10.2609 7.08333 14.1667 7.08333C14.9487 7.08333 15.5833 6.44867 15.5833 5.66667Z" fill="#00AA72"/>
</svg>
