<svg width="32" height="32" viewBox="0 0 32 32" fill="none" xmlns="http://www.w3.org/2000/svg">
<path d="M0 6.66633C0 4.457 3.58133 2.66633 8 2.66633C12.4187 2.66633 16 4.457 16 6.66633C16 8.87567 12.4187 10.6663 8 10.6663C3.58133 10.6663 0 8.87567 0 6.66633ZM8 21.333C12.5613 21.333 16 19.3263 16 16.6663V13.9997C16 16.6277 12.6667 18.6663 8 18.6663C3.33333 18.6663 0 16.6277 0 13.9997V16.6663C0 19.3263 3.43867 21.333 8 21.333ZM8 15.9997C12.5613 15.9997 16 13.993 16 11.333V8.66633C16 11.2943 12.6667 13.333 8 13.333C3.33333 13.333 0 11.2943 0 8.66633V11.333C0 13.993 3.43867 15.9997 8 15.9997ZM24 21.333C28.4187 21.333 32 19.5423 32 17.333C32 15.1237 28.4187 13.333 24 13.333C19.5813 13.333 16 15.1237 16 17.333C16 19.5423 19.5813 21.333 24 21.333ZM24 29.333C19.3333 29.333 16 27.2943 16 24.6663C16 27.2943 12.6667 29.333 8 29.333C3.33333 29.333 0 27.2943 0 24.6663V27.333C0 29.993 3.43867 31.9997 8 31.9997C12.5613 31.9997 16 29.993 16 27.333C16 29.993 19.4387 31.9997 24 31.9997C28.5613 31.9997 32 29.993 32 27.333V24.6663C32 27.2943 28.6667 29.333 24 29.333ZM24 23.9997C19.3333 23.9997 16 21.961 16 19.333C16 21.961 12.6667 23.9997 8 23.9997C3.33333 23.9997 0 21.961 0 19.333V21.9997C0 24.6597 3.43867 26.6663 8 26.6663C12.5613 26.6663 16 24.6597 16 21.9997C16 24.6597 19.4387 26.6663 24 26.6663C28.5613 26.6663 32 24.6597 32 21.9997V19.333C32 21.961 28.6667 23.9997 24 23.9997ZM20.4 5.66633C20.7387 5.66633 21.0773 5.53833 21.336 5.281L22.6667 3.973V9.333C22.6667 10.069 23.2627 10.6663 24 10.6663C24.7373 10.6663 25.3333 10.069 25.3333 9.333V3.98633L26.6707 5.28767C27.1987 5.801 28.0413 5.789 28.556 5.26233C29.0693 4.73433 29.0587 3.89033 28.5293 3.377L25.8587 0.775668C24.82 -0.257665 23.1373 -0.257665 22.1093 0.770335L19.464 3.38233C18.9387 3.89967 18.9347 4.74367 19.4507 5.26767C19.712 5.53167 20.056 5.66367 20.4 5.66367V5.66633Z" fill="#00AA72"/>
</svg>
