<svg width="29" height="29" viewBox="0 0 29 29" fill="none" xmlns="http://www.w3.org/2000/svg">
<path d="M17.2188 14.094L12.0833 19.2294C11.6326 19.6789 11.0103 19.9375 10.3748 19.9375H9.66667V19.2294C9.66667 18.5842 9.918 17.9776 10.3748 17.5208L15.5102 12.3854L17.2188 14.094ZM18.479 9.41654L17.2188 10.6768L18.9273 12.3854L20.1876 11.1251C20.6589 10.6539 20.6589 9.88779 20.1876 9.41654C19.7309 8.95858 18.9346 8.95858 18.479 9.41654ZM29 6.04167V22.9583C29 26.2897 26.2897 29 22.9583 29H6.04167C2.71029 29 0 26.2897 0 22.9583V6.04167C0 2.71029 2.71029 0 6.04167 0H22.9583C26.2897 0 29 2.71029 29 6.04167ZM21.8974 7.70796C20.5272 6.33892 18.1395 6.33892 16.7705 7.70796L8.66617 15.8123C7.75388 16.7245 7.25 17.9389 7.25 19.2294V21.1458C7.25 21.814 7.79133 22.3542 8.45833 22.3542H10.3748C11.6653 22.3542 12.8796 21.8515 13.7919 20.938L21.8962 12.8337C23.31 11.42 23.3112 9.12171 21.8974 7.70796Z" fill="#00AA72"/>
</svg>
