<svg width="28" height="28" viewBox="0 0 28 28" fill="none" xmlns="http://www.w3.org/2000/svg">
<path d="M22.1667 10.5H13.9673C13.7877 10.5 13.6057 10.458 13.4447 10.3775L9.76383 8.5365C9.27967 8.295 8.7395 8.16783 8.19933 8.16783H5.83333C2.61683 8.16667 0 10.7835 0 14V22.1667C0 25.3832 2.61683 28 5.83333 28H22.1667C25.3832 28 28 25.3832 28 22.1667V16.3333C28 13.1168 25.3832 10.5 22.1667 10.5ZM17.5 21H15.1667V23.3333C15.1667 23.9785 14.644 24.5 14 24.5C13.356 24.5 12.8333 23.9785 12.8333 23.3333V21H10.5C9.856 21 9.33333 20.4785 9.33333 19.8333C9.33333 19.1882 9.856 18.6667 10.5 18.6667H12.8333V16.3333C12.8333 15.6882 13.356 15.1667 14 15.1667C14.644 15.1667 15.1667 15.6882 15.1667 16.3333V18.6667H17.5C18.144 18.6667 18.6667 19.1882 18.6667 19.8333C18.6667 20.4785 18.144 21 17.5 21ZM8.19933 5.83333H5.83333V4.66667C5.83333 2.093 7.92633 0 10.5 0H17.1162C18.0507 0 18.9303 0.364 19.5918 1.0255L21.1412 2.57483C21.8027 3.23517 22.1667 4.11483 22.1667 5.04933V8.16667H14.2427L10.8068 6.44817C10.0018 6.04567 9.1 5.83333 8.19933 5.83333Z" fill="#00AA72"/>
</svg>
