<svg width="29" height="29" viewBox="0 0 29 29" fill="none" xmlns="http://www.w3.org/2000/svg">
<path d="M24.3262 18.1069C23.9153 18.3268 23.2544 18.5733 22.3542 18.5733C21.5337 18.5733 20.706 18.2374 20.2843 18.0368C18.6108 17.2018 13.2905 14.1025 13.2905 8.45954V4.25817C13.2905 2.54596 14.1097 0.981167 15.4328 0H6.04167C2.71029 0 0 2.71029 0 6.04167V16.9167C0 20.248 2.71029 22.9583 6.04167 22.9583H13.2917V26.5833H8.45833C7.79013 26.5833 7.25 27.1235 7.25 27.7917C7.25 28.4599 7.79013 29 8.45833 29H20.5417C21.2099 29 21.75 28.4599 21.75 27.7917C21.75 27.1235 21.2099 26.5833 20.5417 26.5833H15.7083V22.9583H22.9583C26.2897 22.9583 29 20.248 29 16.9167V14.813C27.3748 16.6496 25.3496 17.6755 24.3262 18.1069ZM8.45833 8.45833C9.79354 8.45833 10.875 9.53979 10.875 10.875C10.875 12.2102 9.79354 13.2917 8.45833 13.2917C7.12313 13.2917 6.04167 12.2102 6.04167 10.875C6.04167 9.53979 7.12313 8.45833 8.45833 8.45833ZM12.5075 19.2572C11.8985 19.4892 11.1855 19.1811 10.9523 18.5491C10.5862 17.5728 9.5845 16.9167 8.45954 16.9167C7.33458 16.9167 6.33167 17.5728 5.96675 18.5491C5.73354 19.1763 5.03271 19.4892 4.41163 19.2572C3.78571 19.0228 3.47033 18.3256 3.70354 17.7021C4.42129 15.7869 6.33287 14.5012 8.46075 14.5012C10.5886 14.5012 12.5002 15.7869 13.218 17.7021C13.4512 18.3268 13.1358 19.0228 12.5099 19.2572H12.5075ZM21.3247 15.8545C21.3247 15.8545 21.959 16.1566 22.3554 16.1566C22.9608 16.1566 23.2556 15.9343 23.2556 15.9343C24.6029 15.3918 29 13.2542 29 8.45833V4.25696C29 3.01358 28.2049 1.91279 27.022 1.52008L22.9233 0.161917C22.5535 0.0386667 22.1548 0.0386667 21.7838 0.161917L17.6828 1.52008C16.501 1.914 15.7071 3.01479 15.7071 4.25817V8.45954C15.7071 12.7153 20.0088 15.1972 21.3235 15.8545H21.3247ZM19.3684 5.02908C19.5641 3.84129 20.6818 3.02083 21.8865 3.02083H22.8242C24.0289 3.02083 25.1466 3.84129 25.3424 5.02908C25.5913 6.54192 24.4265 7.85417 22.9595 7.85417V11.4792H23.5637C23.8972 11.4792 24.1679 11.7498 24.1679 12.0833C24.1679 12.4168 23.8972 12.6875 23.5637 12.6875H22.3554C22.0219 12.6875 21.7512 12.4168 21.7512 12.0833V7.85417C20.2843 7.85417 19.1195 6.54192 19.3684 5.02908ZM20.5429 5.42058C20.5429 4.75479 21.0854 4.21225 21.7512 4.21225H22.9595C23.6253 4.21225 24.1679 4.75479 24.1679 5.42058C24.1679 6.08638 23.6253 6.62892 22.9595 6.62892H21.7512C21.0854 6.62892 20.5429 6.08638 20.5429 5.42058Z" fill="#00AA72"/>
</svg>
