<svg width="30" height="30" viewBox="0 0 30 30" fill="none" xmlns="http://www.w3.org/2000/svg">
<path d="M11.3258 14.6667C6.32312 14.6667 3.99245 12.336 3.99245 7.33333C3.99245 2.33067 6.32178 0 11.3258 0C16.3298 0 18.6591 2.33067 18.6591 7.33333C18.6591 12.336 16.3298 14.6667 11.3258 14.6667ZM14.9098 29.3333H1.33378C0.973784 29.3333 0.629784 29.188 0.377784 28.9293C0.127117 28.672 -0.00888277 28.3227 0.000450562 27.9627C0.199117 20.6107 3.68978 17.332 11.3151 17.332C11.7031 17.332 12.0738 17.3467 12.4418 17.364C12.1298 18.5173 11.9658 19.832 11.9658 21.332C11.9658 25.0693 12.9258 27.7067 14.9098 29.3333ZM28.8658 25.3827C28.3071 26.3347 27.0805 26.6547 26.1285 26.0947L25.5031 25.728C25.0725 26.0387 24.5565 26.2667 23.9658 26.4213V27.3333C23.9658 28.4373 23.0698 29.3333 21.9658 29.3333C20.8618 29.3333 19.9658 28.4373 19.9658 27.3333V26.4213C19.3751 26.2667 18.8591 26.04 18.4285 25.728L17.8031 26.0947C16.8511 26.6533 15.6245 26.3347 15.0658 25.3827C14.5071 24.4307 14.8258 23.204 15.7778 22.6453L16.6698 22.1213C16.6458 21.8707 16.6311 21.6093 16.6311 21.332C16.6311 21.0547 16.6458 20.7947 16.6698 20.5427L15.7778 20.0187C14.8258 19.46 14.5058 18.2333 15.0658 17.2813C15.6245 16.3293 16.8511 16.0093 17.8031 16.5693L18.4285 16.936C18.8591 16.6253 19.3751 16.3973 19.9658 16.2427V15.3307C19.9658 14.2267 20.8618 13.3307 21.9658 13.3307C23.0698 13.3307 23.9658 14.2267 23.9658 15.3307V16.2427C24.5565 16.3973 25.0725 16.624 25.5031 16.936L26.1285 16.5693C27.0805 16.0107 28.3071 16.3293 28.8658 17.2813C29.4245 18.2333 29.1058 19.46 28.1538 20.0187L27.2618 20.5427C27.2858 20.7933 27.3005 21.0547 27.3005 21.332C27.3005 21.6093 27.2858 21.8693 27.2618 22.1213L28.1538 22.6453C29.1058 23.204 29.4258 24.4307 28.8658 25.3827ZM23.9658 21.3333C23.9658 19.744 23.5551 19.3333 21.9658 19.3333C20.3765 19.3333 19.9658 19.744 19.9658 21.3333C19.9658 22.9227 20.3765 23.3333 21.9658 23.3333C23.5551 23.3333 23.9658 22.9227 23.9658 21.3333Z" fill="#00AA72"/>
</svg>
