<svg width="30" height="30" viewBox="0 0 30 30" fill="none" xmlns="http://www.w3.org/2000/svg">
<path d="M10.6243 0C12.3505 0 13.7493 1.39875 13.7493 3.125C13.7493 4.85125 12.3505 6.25 10.6243 6.25C8.89805 6.25 7.4993 4.85125 7.4993 3.125C7.4993 1.39875 8.89805 0 10.6243 0ZM15.5543 10.4125C15.7293 9.91125 15.5693 9.3525 15.153 9.0225C13.9218 8.04125 12.313 7.5 10.6243 7.5C8.93555 7.5 7.3268 8.04125 6.09555 9.0225C5.6793 9.35375 5.5193 9.91125 5.6943 10.4125C5.87055 10.9137 6.3443 11.25 6.8743 11.25H14.3743C14.9055 11.25 15.3793 10.9137 15.5543 10.4125ZM28.9343 10.8512C28.2905 10.265 27.4518 9.96125 26.5868 10.0037C25.7155 10.0438 24.913 10.4213 24.3443 11.0475L19.918 15.7188C19.958 15.9812 19.9993 16.2437 19.9993 16.5163C19.9993 19.12 18.0555 21.3612 15.478 21.7287L10.163 22.4738C9.4793 22.5713 8.8468 22.0963 8.7493 21.4137C8.6518 20.73 9.1268 20.0975 9.8093 20L15.0118 19.2712C16.1818 19.1038 17.1968 18.2638 17.4368 17.1063C17.8068 15.325 16.4493 13.75 14.7318 13.75H4.99805C2.2368 13.75 -0.00195312 15.9887 -0.00195312 18.75V25C-0.00195312 27.7612 2.2368 30 4.99805 30H10.3255C13.8318 30 17.1755 28.5275 19.543 25.9425L29.1705 15.4313C30.3555 14.1038 30.248 12.0487 28.9343 10.8512Z" fill="#00AA72"/>
</svg>
