<svg width="28" height="28" viewBox="0 0 28 28" fill="none" xmlns="http://www.w3.org/2000/svg">
<path d="M24.4992 9.33333H5.83255C4.83038 9.33333 3.88188 8.89817 3.22505 8.16667C3.31605 8.064 3.41405 7.96717 3.51788 7.875C4.00088 7.448 4.04755 6.71067 3.62055 6.22767C3.19355 5.7435 2.45621 5.698 1.97321 6.125C1.47738 6.5625 1.06555 7.0735 0.748214 7.63933C0.261714 8.50383 -0.00195312 9.48733 -0.00195312 10.5V22.1667C-0.00195312 25.3832 2.61488 28 5.83138 28H24.498C26.4277 28 27.998 26.4297 27.998 24.5V12.8333C27.998 10.9037 26.4289 9.33333 24.4992 9.33333ZM21.5825 20.4167C20.6165 20.4167 19.8325 19.6327 19.8325 18.6667C19.8325 17.7007 20.6165 16.9167 21.5825 16.9167C22.5485 16.9167 23.3325 17.7007 23.3325 18.6667C23.3325 19.6327 22.5485 20.4167 21.5825 20.4167ZM17.4992 3.5C19.4324 3.5 20.9992 5.06683 20.9992 7H24.4992C25.7942 7.0035 27.0087 7.4445 27.9992 8.20517V3.5C27.9992 1.56683 26.4324 0 24.4992 0H10.4992C8.56605 0 6.99921 1.56683 6.99921 3.5V7H13.9992C13.9992 5.06683 15.566 3.5 17.4992 3.5ZM24.4992 1.75C25.4652 1.75 26.2492 2.534 26.2492 3.5C26.2492 4.466 25.4652 5.25 24.4992 5.25C23.5332 5.25 22.7492 4.466 22.7492 3.5C22.7492 2.534 23.5332 1.75 24.4992 1.75ZM10.4992 5.25C9.53321 5.25 8.74921 4.466 8.74921 3.5C8.74921 2.534 9.53321 1.75 10.4992 1.75C11.4652 1.75 12.2492 2.534 12.2492 3.5C12.2492 4.466 11.4652 5.25 10.4992 5.25Z" fill="#00AA72"/>
</svg>
