<svg width="24" height="24" viewBox="0 0 24 24" fill="none" xmlns="http://www.w3.org/2000/svg">
<path d="M23.553 22.139L20.887 19.473C21.585 18.492 22 17.296 22 16C22 12.686 19.314 10 16 10C12.686 10 10 12.686 10 16C10 19.314 12.686 22 16 22C17.296 22 18.492 21.585 19.473 20.887L22.139 23.553C22.334 23.748 22.59 23.846 22.846 23.846C23.102 23.846 23.358 23.748 23.553 23.553C23.944 23.162 23.944 22.53 23.553 22.139ZM15.327 18.997C14.726 18.997 14.123 18.772 13.663 18.323L12.531 17.215C12.136 16.828 12.13 16.195 12.516 15.801C12.902 15.406 13.535 15.4 13.93 15.785L15.062 16.893C15.206 17.035 15.441 17.034 15.584 16.893L18.297 14.269C18.695 13.888 19.329 13.899 19.711 14.298C20.094 14.696 20.081 15.329 19.682 15.712L16.979 18.326C16.527 18.772 15.928 18.997 15.327 18.997ZM8 16C8 11.589 11.589 8 16 8C17.458 8 18.822 8.398 20 9.083V5C20 2.243 17.756 0 15 0H4.999C2.242 0 0 2.244 0 5.001V19C0 21.757 2.244 24 5 24H16C11.589 24 8 20.411 8 16ZM10 5H15C15.552 5 16 5.447 16 6C16 6.553 15.552 7 15 7H10C9.448 7 9 6.553 9 6C9 5.447 9.448 5 10 5ZM6 17H5C4.448 17 4 16.553 4 16C4 15.447 4.448 15 5 15H6C6.552 15 7 15.447 7 16C7 16.553 6.552 17 6 17ZM6 12H5C4.448 12 4 11.553 4 11C4 10.447 4.448 10 5 10H6C6.552 10 7 10.447 7 11C7 11.553 6.552 12 6 12ZM6 7H5C4.448 7 4 6.553 4 6C4 5.447 4.448 5 5 5H6C6.552 5 7 5.447 7 6C7 6.553 6.552 7 6 7Z" fill="#00AA72"/>
</svg>
