<svg width="28" height="28" viewBox="0 0 28 28" fill="none" xmlns="http://www.w3.org/2000/svg">
<path d="M0.34138 9.97911C0.0899895 9.51282 -0.0264761 8.9857 0.00505396 8.4569C0.036584 7.9281 0.214862 7.41855 0.51988 6.98544C1.01835 6.25408 1.6859 5.65376 2.46588 5.23544L11.217 0.680773C12.0772 0.23351 13.0324 0 14.0019 0C14.9714 0 15.9266 0.23351 16.7867 0.680773L25.5367 5.23894C26.3167 5.65726 26.9842 6.25758 27.4827 6.98894C27.7877 7.42205 27.966 7.9316 27.9975 8.4604C28.0291 8.9892 27.9126 9.51632 27.6612 9.98261C27.3906 10.4946 26.9846 10.9225 26.4877 11.2197C25.9907 11.517 25.4216 11.6722 24.8425 11.6684H3.16121C2.58157 11.6721 2.01205 11.5164 1.5148 11.2185C1.01755 10.9206 0.611649 10.4919 0.34138 9.97911ZM26.8352 25.6684C26.8352 25.0496 26.5894 24.4561 26.1518 24.0185C25.7142 23.5809 25.1207 23.3351 24.5019 23.3351V14.0018H22.1685V23.3351H18.6685V14.0018H16.3352V23.3351H11.6685V14.0018H9.33521V23.3351H5.83521V14.0018H3.50188V23.3351C2.88304 23.3351 2.28955 23.5809 1.85196 24.0185C1.41438 24.4561 1.16855 25.0496 1.16855 25.6684C0.859128 25.6684 0.562381 25.7914 0.343589 26.0101C0.124796 26.2289 0.00188013 26.5257 0.00188013 26.8351C0.00188013 27.1445 0.124796 27.4413 0.343589 27.6601C0.562381 27.8789 0.859128 28.0018 1.16855 28.0018H26.8352C27.1446 28.0018 27.4414 27.8789 27.6602 27.6601C27.879 27.4413 28.0019 27.1445 28.0019 26.8351C28.0019 26.5257 27.879 26.2289 27.6602 26.0101C27.4414 25.7914 27.1446 25.6684 26.8352 25.6684Z" fill="#00AA72"/>
</svg>
