<svg width="32" height="32" viewBox="0 0 32 32" fill="none" xmlns="http://www.w3.org/2000/svg">
<path d="M16 16C20.4187 16 24 12.4187 24 8C24 3.58133 20.4187 0 16 0C11.5813 0 8 3.58133 8 8C8 12.4187 11.5813 16 16 16ZM11.6293 5.42133C11.832 3.98133 13.1067 2.93333 14.5613 2.93333H14.9347V2.4C14.9347 1.81067 15.412 1.33333 16.0013 1.33333C16.5907 1.33333 17.068 1.81067 17.068 2.4V2.93333H17.608C18.556 2.93333 19.4053 3.36533 19.968 4.044C20.5253 4.716 20.052 5.732 19.1787 5.732C18.876 5.732 18.4987 5.58933 18.2933 5.36667C18.1227 5.18133 17.8773 5.06533 17.6067 5.06533H14.5307C14.16 5.06533 13.8213 5.31333 13.748 5.676C13.6627 6.1 13.9427 6.49867 14.3467 6.58L18.0693 7.32533C19.552 7.62133 20.588 9.03467 20.3693 10.5773C20.1653 12.0173 18.892 13.064 17.4373 13.064H17.064V13.5973C17.064 14.1867 16.5867 14.664 15.9973 14.664C15.408 14.664 14.9307 14.1867 14.9307 13.5973V13.064H14.356C13.408 13.064 12.5587 12.6307 11.996 11.9533C11.4387 11.2813 11.912 10.2653 12.7853 10.2653C13.088 10.2653 13.4653 10.408 13.6707 10.6307C13.8413 10.816 14.0867 10.932 14.3573 10.932H17.4693C17.84 10.932 18.1787 10.6827 18.2507 10.3187C18.3347 9.89467 18.056 9.49867 17.6493 9.416L13.928 8.67067C12.4453 8.37333 11.4107 6.96267 11.628 5.41867L11.6293 5.42133ZM17.3427 21.6733L23.7133 27.3787L19.2053 30.8973C18.2893 31.612 17.1613 32 16 32C14.8387 32 13.7107 31.612 12.7947 30.8973L8.82133 27.796C7.884 27.064 6.72933 26.6667 5.54 26.6667H1.33333C0.597333 26.6667 0 26.0693 0 25.3333V16C0 15.264 0.597333 14.6667 1.33333 14.6667H6.028C6.54667 14.6667 7.06133 14.6133 7.56667 14.5133C8.37867 15.5627 9.38 16.4533 10.5213 17.1387C9.14667 18.5653 8.94 20.78 10.0507 22.3173C10.744 23.2827 11.6013 24 13.1613 24C14.2173 24 15.384 23.584 16.0973 22.8667L17.344 21.6733H17.3427ZM16 18.6667C16.252 18.6667 16.4973 18.6467 16.7453 18.6293L14.2533 20.9413C13.9773 21.2187 13.596 21.3613 13.2027 21.328C12.8053 21.296 12.456 21.0947 12.2173 20.7613C11.852 20.2547 11.964 19.4613 12.4587 18.9653L13.1653 18.272C14.0693 18.5213 15.0173 18.6653 16.0013 18.6653L16 18.6667ZM32 16V25.3333C32 26.0693 31.4027 26.6667 30.6667 26.6667H26.9147L17.7987 18.504C20.5013 18.044 22.8533 16.572 24.456 14.4853C24.9933 14.5973 25.54 14.668 26.092 14.668H30.6667C31.4027 14.668 32 15.2653 32 16.0013V16Z" fill="#00AA72"/>
</svg>
