<svg width="32" height="32" viewBox="0 0 32 32" fill="none" xmlns="http://www.w3.org/2000/svg">
<path d="M0.388196 11.4027C0.100892 10.8698 -0.0322115 10.2674 0.00382283 9.66307C0.0398572 9.05873 0.243603 8.47639 0.592196 7.98141C1.16187 7.14556 1.92479 6.45949 2.8162 5.98141L12.8175 0.776074C13.8005 0.264915 14.8922 -0.00195313 16.0002 -0.00195312C17.1082 -0.00195313 18.1998 0.264915 19.1829 0.776074L29.1829 5.98541C30.0743 6.46349 30.8372 7.14956 31.4069 7.98541C31.7555 8.48039 31.9592 9.06273 31.9952 9.66708C32.0313 10.2714 31.8982 10.8738 31.6109 11.4067C31.3015 11.9918 30.8376 12.4809 30.2696 12.8206C29.7017 13.1603 29.0513 13.3377 28.3895 13.3334H3.61086C2.94841 13.3375 2.29754 13.1597 1.72925 12.8192C1.16096 12.4788 0.697074 11.9888 0.388196 11.4027ZM30.6669 29.3334C30.6669 28.6262 30.3859 27.9479 29.8858 27.4478C29.3857 26.9477 28.7074 26.6667 28.0002 26.6667V16.0001H25.3335V26.6667H21.3335V16.0001H18.6669V26.6667H13.3335V16.0001H10.6669V26.6667H6.66686V16.0001H4.0002V26.6667C3.29295 26.6667 2.61467 26.9477 2.11458 27.4478C1.61448 27.9479 1.33353 28.6262 1.33353 29.3334C0.979907 29.3334 0.640768 29.4739 0.39072 29.7239C0.140671 29.974 0.000195592 30.3131 0.000195592 30.6667C0.000195592 31.0204 0.140671 31.3595 0.39072 31.6096C0.640768 31.8596 0.979907 32.0001 1.33353 32.0001H30.6669C31.0205 32.0001 31.3596 31.8596 31.6097 31.6096C31.8597 31.3595 32.0002 31.0204 32.0002 30.6667C32.0002 30.3131 31.8597 29.974 31.6097 29.7239C31.3596 29.4739 31.0205 29.3334 30.6669 29.3334Z" fill="#00AA72"/>
</svg>
