<svg width="32" height="32" viewBox="0 0 32 32" fill="none" xmlns="http://www.w3.org/2000/svg">
<path d="M9.33333 31C9.33333 31.552 8.85067 32 8.256 32H1.07733C0.482667 32 0 31.552 0 31C0 28.6067 2.08933 26.6667 4.66667 26.6667C7.244 26.6667 9.33333 28.6067 9.33333 31ZM27.3333 26.6667C24.756 26.6667 22.6667 28.6067 22.6667 31C22.6667 31.552 23.1493 32 23.744 32H30.924C31.5187 32 32.0013 31.552 32.0013 31C32.0013 28.6067 29.9107 26.6667 27.3333 26.6667ZM16 26.6667C13.6067 26.6667 11.3333 28.6067 11.3333 31C11.3333 31.552 11.7813 32 12.3333 32H19.6667C20.2187 32 20.6667 31.552 20.6667 31C20.6667 28.6067 18.3933 26.6667 16 26.6667ZM27.3333 25.3333C29.1747 25.3333 30.6667 23.8413 30.6667 22C30.6667 20.1587 29.1747 18.6667 27.3333 18.6667C25.492 18.6667 24 20.1587 24 22C24 23.8413 25.492 25.3333 27.3333 25.3333ZM16 25.3333C17.8413 25.3333 19.3333 23.8413 19.3333 22C19.3333 20.1587 17.8413 18.6667 16 18.6667C14.1587 18.6667 12.6667 20.1587 12.6667 22C12.6667 23.8413 14.1587 25.3333 16 25.3333ZM4.66667 25.3333C6.508 25.3333 8 23.8413 8 22C8 20.1587 6.508 18.6667 4.66667 18.6667C2.82533 18.6667 1.33333 20.1587 1.33333 22C1.33333 23.8413 2.82533 25.3333 4.66667 25.3333ZM32 14V7.33333C32 3.29067 28.7107 0 24.6667 0H7.33333C3.28933 0 0 3.29067 0 7.33333V14C0 15.104 0.894667 16 2 16C3.10533 16 4 15.104 4 14V7.33333C4 5.49467 5.496 4 7.33333 4H24.6667C26.504 4 28 5.49467 28 7.33333V14C28 15.104 28.8947 16 30 16C31.1053 16 32 15.104 32 14Z" fill="#00AA72"/>
</svg>
