<svg width="202" height="202" viewBox="0 0 202 202" fill="none" xmlns="http://www.w3.org/2000/svg">
<path d="M193.284 86.5326H8.71606C7.99209 86.5326 7.29777 86.245 6.78585 85.7331C6.27392 85.2212 5.98633 84.5269 5.98633 83.8029V63.8923C5.98632 63.4222 6.10769 62.9601 6.33867 62.5508C6.56966 62.1414 6.90244 61.7986 7.30479 61.5556L99.5696 5.85275C99.9952 5.59609 100.483 5.46045 100.98 5.46045C101.476 5.46045 101.964 5.59609 102.389 5.85275L194.693 61.5556C195.095 61.7986 195.428 62.1414 195.659 62.5508C195.89 62.9601 196.011 63.4222 196.011 63.8923V83.8029C196.011 84.5264 195.724 85.2203 195.212 85.7322C194.701 86.244 194.007 86.5319 193.284 86.5326ZM11.4485 81.0732H190.554V65.4318L100.984 11.3777L11.4485 65.4264V81.0732Z" fill="url(#paint0_linear_10535_4255)"/>
<path d="M101 66.3679C97.7713 66.3679 94.6147 65.4103 91.9298 63.6164C89.2449 61.8224 87.1523 59.2725 85.9166 56.2893C84.6809 53.306 84.3576 50.0233 84.9875 46.8562C85.6175 43.6892 87.1725 40.7801 89.4558 38.4968C91.7391 36.2135 94.6482 34.6585 97.8152 34.0286C100.982 33.3986 104.265 33.7219 107.248 34.9576C110.232 36.1933 112.781 38.286 114.575 40.9708C116.369 43.6557 117.327 46.8123 117.327 50.0414C117.322 54.3699 115.6 58.5196 112.539 61.5804C109.479 64.6411 105.329 66.3628 101 66.3679ZM101 39.1716C98.8511 39.1716 96.75 39.8089 94.9629 41.003C93.1759 42.1971 91.783 43.8943 90.9605 45.88C90.138 47.8657 89.9228 50.0507 90.3421 52.1587C90.7614 54.2667 91.7964 56.203 93.3162 57.7228C94.836 59.2426 96.7723 60.2776 98.8803 60.6969C100.988 61.1162 103.173 60.901 105.159 60.0785C107.145 59.256 108.842 57.8631 110.036 56.076C111.23 54.289 111.867 52.1879 111.867 50.0386C111.864 47.1576 110.718 44.3956 108.681 42.3585C106.643 40.3213 103.881 39.1752 101 39.1716Z" fill="url(#paint1_linear_10535_4255)"/>
<path d="M177.355 103.776H148.308C146.745 103.774 145.246 103.152 144.14 102.046C143.035 100.94 142.414 99.4408 142.412 97.8772V83.8027C142.412 83.0788 142.7 82.3844 143.212 81.8725C143.724 81.3606 144.418 81.073 145.142 81.073H180.522C181.246 81.073 181.94 81.3606 182.452 81.8725C182.964 82.3844 183.252 83.0788 183.252 83.8027V97.8854C183.248 99.4476 182.625 100.945 181.52 102.049C180.415 103.153 178.918 103.774 177.355 103.776ZM147.874 86.5243V97.8772C147.874 97.9933 147.92 98.1047 148.002 98.187C148.084 98.2694 148.195 98.316 148.311 98.3167H177.355C177.471 98.316 177.583 98.2694 177.664 98.187C177.746 98.1047 177.792 97.9933 177.792 97.8772V86.5325L147.874 86.5243Z" fill="url(#paint2_linear_10535_4255)"/>
<path d="M174.877 158.914H150.784C150.06 158.914 149.366 158.626 148.854 158.114C148.342 157.603 148.055 156.908 148.055 156.184V101.044C148.055 100.32 148.342 99.6254 148.854 99.1135C149.366 98.6016 150.06 98.314 150.784 98.314H174.877C175.601 98.314 176.295 98.6016 176.807 99.1135C177.319 99.6254 177.607 100.32 177.607 101.044V156.184C177.607 156.908 177.319 157.603 176.807 158.114C176.295 158.626 175.601 158.914 174.877 158.914ZM153.514 153.455H172.147V103.773H153.514V153.455Z" fill="url(#paint3_linear_10535_4255)"/>
<path d="M180.522 176.166H145.142C144.418 176.166 143.724 175.878 143.212 175.366C142.7 174.854 142.412 174.16 142.412 173.436V159.353C142.414 157.79 143.035 156.291 144.14 155.185C145.246 154.079 146.745 153.457 148.308 153.454H177.355C178.919 153.457 180.418 154.079 181.523 155.185C182.629 156.291 183.25 157.79 183.252 159.353V173.436C183.252 174.16 182.964 174.854 182.452 175.366C181.94 175.878 181.246 176.166 180.522 176.166ZM147.872 170.706H177.792V159.353C177.792 159.237 177.746 159.126 177.664 159.043C177.583 158.961 177.471 158.915 177.355 158.914H148.308C148.192 158.915 148.081 158.961 147.999 159.043C147.917 159.126 147.872 159.237 147.872 159.353V170.706Z" fill="url(#paint4_linear_10535_4255)"/>
<path d="M115.523 103.776H86.4782C84.9147 103.774 83.4158 103.152 82.3104 102.046C81.2051 100.94 80.5835 99.4408 80.582 97.8772V83.8027C80.582 83.0788 80.8696 82.3844 81.3815 81.8725C81.8935 81.3606 82.5878 81.073 83.3118 81.073H118.689C119.413 81.073 120.107 81.3606 120.619 81.8725C121.131 82.3844 121.419 83.0788 121.419 83.8027V97.8854C121.415 99.4476 120.793 100.945 119.688 102.049C118.582 103.153 117.085 103.774 115.523 103.776ZM86.0415 86.5325V97.8854C86.0415 98.0015 86.0874 98.1129 86.1692 98.1952C86.2511 98.2775 86.3622 98.3242 86.4782 98.3249H115.523C115.639 98.3242 115.75 98.2775 115.832 98.1952C115.913 98.1129 115.959 98.0015 115.959 97.8854V86.5325H86.0415Z" fill="url(#paint5_linear_10535_4255)"/>
<path d="M113.011 158.914H88.9895C88.2655 158.914 87.5712 158.626 87.0593 158.114C86.5474 157.603 86.2598 156.908 86.2598 156.184V101.044C86.2598 100.32 86.5474 99.6254 87.0593 99.1135C87.5712 98.6016 88.2655 98.314 88.9895 98.314H113.011C113.735 98.314 114.429 98.6016 114.941 99.1135C115.453 99.6254 115.741 100.32 115.741 101.044V156.184C115.741 156.908 115.453 157.603 114.941 158.114C114.429 158.626 113.735 158.914 113.011 158.914ZM91.7192 153.455H110.281V103.773H91.7192V153.455Z" fill="url(#paint6_linear_10535_4255)"/>
<path d="M118.689 176.166H83.3118C82.5878 176.166 81.8935 175.878 81.3815 175.366C80.8696 174.854 80.582 174.16 80.582 173.436V159.353C80.5835 157.79 81.2051 156.291 82.3104 155.185C83.4158 154.079 84.9147 153.457 86.4782 153.454H115.523C117.086 153.457 118.585 154.079 119.69 155.185C120.796 156.291 121.417 157.79 121.419 159.353V173.436C121.419 174.16 121.131 174.854 120.619 175.366C120.107 175.878 119.413 176.166 118.689 176.166ZM86.0388 170.706H115.959V159.353C115.959 159.237 115.913 159.126 115.832 159.043C115.75 158.961 115.639 158.915 115.523 158.914H86.4782C86.3622 158.915 86.2511 158.961 86.1692 159.043C86.0874 159.126 86.0415 159.237 86.0415 159.353L86.0388 170.706Z" fill="url(#paint7_linear_10535_4255)"/>
<path d="M56.4198 103.776H27.3728C25.8092 103.774 24.3103 103.152 23.205 102.046C22.0996 100.94 21.478 99.4408 21.4766 97.8772V83.8027C21.4766 83.0788 21.7642 82.3844 22.2761 81.8725C22.788 81.3606 23.4823 81.073 24.2063 81.073H59.5863C60.3103 81.073 61.0046 81.3606 61.5165 81.8725C62.0285 82.3844 62.3161 83.0788 62.3161 83.8027V97.8854C62.3124 99.4476 61.6899 100.945 60.5848 102.049C59.4796 103.153 57.982 103.774 56.4198 103.776ZM26.936 86.5325V97.8854C26.936 98.0015 26.9819 98.1129 27.0638 98.1952C27.1456 98.2775 27.2567 98.3242 27.3728 98.3249H56.4198C56.5359 98.3242 56.647 98.2775 56.7288 98.1952C56.8107 98.1129 56.8566 98.0015 56.8566 97.8854V86.5325H26.936Z" fill="url(#paint8_linear_10535_4255)"/>
<path d="M54.0497 158.914H29.7551C29.0312 158.914 28.3368 158.626 27.8249 158.114C27.313 157.603 27.0254 156.908 27.0254 156.184V101.044C27.0254 100.32 27.313 99.6254 27.8249 99.1135C28.3368 98.6016 29.0312 98.314 29.7551 98.314H54.0497C54.7737 98.314 55.468 98.6016 55.9799 99.1135C56.4918 99.6254 56.7794 100.32 56.7794 101.044V156.184C56.7794 156.908 56.4918 157.603 55.9799 158.114C55.468 158.626 54.7737 158.914 54.0497 158.914ZM32.4848 153.455H51.32V103.773H32.4848V153.455Z" fill="url(#paint9_linear_10535_4255)"/>
<path d="M59.5863 176.166H24.2063C23.4823 176.166 22.788 175.878 22.2761 175.366C21.7642 174.854 21.4766 174.16 21.4766 173.436V159.353C21.478 157.79 22.0996 156.291 23.205 155.185C24.3103 154.079 25.8092 153.457 27.3728 153.454H56.4198C57.9834 153.457 59.4823 154.079 60.5877 155.185C61.693 156.291 62.3146 157.79 62.3161 159.353V173.436C62.3161 174.16 62.0285 174.854 61.5165 175.366C61.0046 175.878 60.3103 176.166 59.5863 176.166ZM26.936 170.706H56.8566V159.353C56.8566 159.237 56.8107 159.126 56.7288 159.043C56.647 158.961 56.5359 158.915 56.4198 158.914H27.3728C27.2567 158.915 27.1456 158.961 27.0638 159.043C26.9819 159.126 26.936 159.237 26.936 159.353V170.706Z" fill="url(#paint10_linear_10535_4255)"/>
<path d="M193.81 196.541H8.18871C7.46474 196.541 6.77043 196.253 6.2585 195.741C5.74658 195.229 5.45898 194.535 5.45898 193.811V173.436C5.45898 172.712 5.74658 172.018 6.2585 171.506C6.77043 170.994 7.46474 170.707 8.18871 170.707H193.81C194.534 170.707 195.229 170.994 195.741 171.506C196.252 172.018 196.54 172.712 196.54 173.436V193.811C196.54 194.535 196.252 195.229 195.741 195.741C195.229 196.253 194.534 196.541 193.81 196.541ZM10.9184 191.081H191.081V176.166H10.9184V191.081Z" fill="url(#paint11_linear_10535_4255)"/>
<defs>
<linearGradient id="paint0_linear_10535_4255" x1="100.999" y1="5.46045" x2="100.999" y2="86.5326" gradientUnits="userSpaceOnUse">
<stop stop-color="#00AA72"/>
<stop offset="1" stop-color="#032352"/>
</linearGradient>
<linearGradient id="paint1_linear_10535_4255" x1="101" y1="33.7148" x2="101" y2="66.3679" gradientUnits="userSpaceOnUse">
<stop stop-color="#00AA72"/>
<stop offset="1" stop-color="#032352"/>
</linearGradient>
<linearGradient id="paint2_linear_10535_4255" x1="162.832" y1="81.073" x2="162.832" y2="103.776" gradientUnits="userSpaceOnUse">
<stop stop-color="#00AA72"/>
<stop offset="1" stop-color="#032352"/>
</linearGradient>
<linearGradient id="paint3_linear_10535_4255" x1="162.831" y1="98.314" x2="162.831" y2="158.914" gradientUnits="userSpaceOnUse">
<stop stop-color="#00AA72"/>
<stop offset="1" stop-color="#032352"/>
</linearGradient>
<linearGradient id="paint4_linear_10535_4255" x1="162.832" y1="153.454" x2="162.832" y2="176.166" gradientUnits="userSpaceOnUse">
<stop stop-color="#00AA72"/>
<stop offset="1" stop-color="#032352"/>
</linearGradient>
<linearGradient id="paint5_linear_10535_4255" x1="101" y1="81.073" x2="101" y2="103.776" gradientUnits="userSpaceOnUse">
<stop stop-color="#00AA72"/>
<stop offset="1" stop-color="#032352"/>
</linearGradient>
<linearGradient id="paint6_linear_10535_4255" x1="101" y1="98.314" x2="101" y2="158.914" gradientUnits="userSpaceOnUse">
<stop stop-color="#00AA72"/>
<stop offset="1" stop-color="#032352"/>
</linearGradient>
<linearGradient id="paint7_linear_10535_4255" x1="101" y1="153.454" x2="101" y2="176.166" gradientUnits="userSpaceOnUse">
<stop stop-color="#00AA72"/>
<stop offset="1" stop-color="#032352"/>
</linearGradient>
<linearGradient id="paint8_linear_10535_4255" x1="41.8963" y1="81.073" x2="41.8963" y2="103.776" gradientUnits="userSpaceOnUse">
<stop stop-color="#00AA72"/>
<stop offset="1" stop-color="#032352"/>
</linearGradient>
<linearGradient id="paint9_linear_10535_4255" x1="41.9024" y1="98.314" x2="41.9024" y2="158.914" gradientUnits="userSpaceOnUse">
<stop stop-color="#00AA72"/>
<stop offset="1" stop-color="#032352"/>
</linearGradient>
<linearGradient id="paint10_linear_10535_4255" x1="41.8963" y1="153.454" x2="41.8963" y2="176.166" gradientUnits="userSpaceOnUse">
<stop stop-color="#00AA72"/>
<stop offset="1" stop-color="#032352"/>
</linearGradient>
<linearGradient id="paint11_linear_10535_4255" x1="101" y1="170.707" x2="101" y2="196.541" gradientUnits="userSpaceOnUse">
<stop stop-color="#00AA72"/>
<stop offset="1" stop-color="#032352"/>
</linearGradient>
</defs>
</svg>
