<svg width="34" height="34" viewBox="0 0 34 34" fill="none" xmlns="http://www.w3.org/2000/svg">
<g clip-path="url(#clip0_10535_4408)">
<path d="M17 17C21.6948 17 25.5 13.1948 25.5 8.5C25.5 3.80517 21.6948 0 17 0C12.3052 0 8.5 3.80517 8.5 8.5C8.5 13.1948 12.3052 17 17 17ZM12.3562 5.76017C12.5715 4.23017 13.9258 3.11667 15.4714 3.11667H15.8681V2.55C15.8681 1.92383 16.3752 1.41667 17.0014 1.41667C17.6276 1.41667 18.1347 1.92383 18.1347 2.55V3.11667H18.7085C19.7157 3.11667 20.6182 3.57567 21.216 4.29675C21.8082 5.01075 21.3052 6.09025 20.3773 6.09025C20.0557 6.09025 19.6548 5.93867 19.4367 5.70208C19.2553 5.50517 18.9947 5.38192 18.7071 5.38192H15.4388C15.045 5.38192 14.6852 5.64542 14.6072 6.03075C14.5166 6.48125 14.8141 6.90483 15.2433 6.99125L19.1987 7.78317C20.774 8.09767 21.8748 9.59933 21.6424 11.2384C21.4257 12.7684 20.0728 13.8805 18.5272 13.8805H18.1305V14.4472C18.1305 15.0733 17.6233 15.5805 16.9972 15.5805C16.371 15.5805 15.8638 15.0733 15.8638 14.4472V13.8805H15.2533C14.246 13.8805 13.3436 13.4201 12.7457 12.7004C12.1536 11.9864 12.6565 10.9069 13.5844 10.9069C13.906 10.9069 14.3069 11.0585 14.5251 11.2951C14.7064 11.492 14.9671 11.6153 15.2547 11.6153H18.5612C18.955 11.6153 19.3148 11.3503 19.3913 10.9636C19.4806 10.5131 19.1845 10.0923 18.7524 10.0045L14.7985 9.21258C13.2232 8.89667 12.1238 7.39783 12.3547 5.75733L12.3562 5.76017ZM18.4266 23.0279L25.1954 29.0898L20.4057 32.8284C19.4324 33.5877 18.2339 34 17 34C15.7661 34 14.5676 33.5877 13.5943 32.8284L9.37267 29.5332C8.37675 28.7555 7.14992 28.3333 5.88625 28.3333H1.41667C0.634667 28.3333 0 27.6987 0 26.9167V17C0 16.218 0.634667 15.5833 1.41667 15.5833H6.40475C6.95583 15.5833 7.50267 15.5267 8.03958 15.4204C8.90233 16.5353 9.96625 17.4817 11.1789 18.2098C9.71833 19.7257 9.49875 22.0788 10.6788 23.7122C11.4155 24.7378 12.3264 25.5 13.9839 25.5C15.1059 25.5 16.3455 25.058 17.1034 24.2958L18.428 23.0279H18.4266ZM17 19.8333C17.2677 19.8333 17.5284 19.8121 17.7919 19.7937L15.1442 22.2502C14.8509 22.5448 14.4458 22.6964 14.0278 22.661C13.6057 22.627 13.2345 22.4131 12.9809 22.0589C12.5927 21.5206 12.7117 20.6777 13.2373 20.1507L13.9882 19.414C14.9487 19.6789 15.9559 19.8319 17.0014 19.8319L17 19.8333ZM34 17V26.9167C34 27.6987 33.3653 28.3333 32.5833 28.3333H28.5968L18.9111 19.6605C21.7827 19.1717 24.2817 17.6077 25.9845 15.3907C26.5554 15.5097 27.1362 15.5848 27.7227 15.5848H32.5833C33.3653 15.5848 34 16.2194 34 17.0014V17Z" fill="white"/>
</g>
<defs>
<clipPath id="clip0_10535_4408">
<rect width="34" height="34" fill="white"/>
</clipPath>
</defs>
</svg>
