<svg width="179" height="179" viewBox="0 0 179 179" fill="none" xmlns="http://www.w3.org/2000/svg">
<g clip-path="url(#clip0_10535_4236)">
<path d="M89.6183 115.315C75.2232 115.315 63.5117 103.837 63.5117 89.7267C63.5117 75.6161 75.2232 64.137 89.6183 64.137C91.6595 64.137 94.1467 64.6393 93.9821 67.2521C93.8248 69.7466 91.5642 69.9112 89.6183 69.9112C78.4062 69.9112 69.2859 78.8005 69.2859 89.7267C69.2859 100.653 78.4062 109.541 89.6183 109.541C100.83 109.541 109.951 100.652 109.951 89.7267C109.951 86.5336 109.197 83.4877 107.71 80.6714C106.965 79.2625 107.505 77.5158 108.914 76.7709C110.323 76.026 112.073 76.563 112.816 77.9763C114.719 81.5794 115.725 85.6429 115.725 89.7267C115.725 103.837 104.015 115.315 89.6183 115.315Z" fill="url(#paint0_linear_10535_4236)"/>
<path d="M103.387 74.3341C102.802 74.3341 102.212 74.1565 101.701 73.7884C100.937 73.2384 100.126 72.7346 99.2898 72.2914C97.8795 71.5451 97.3425 69.7999 98.0874 68.3895C98.8322 66.9821 100.579 66.4407 101.989 67.1885C103.06 67.7558 104.1 68.3996 105.078 69.1055C107.296 70.7035 106.124 74.3341 103.387 74.3341Z" fill="url(#paint1_linear_10535_4236)"/>
<path d="M168.135 44.1799L168.032 31.6455C168.019 30.0591 166.729 28.783 165.145 28.783C165.137 28.783 165.129 28.783 165.121 28.783C163.527 28.796 162.244 30.0995 162.257 31.6932L162.287 35.4969C144.954 14.8571 117.191 1.4436 90.5601 1.4436C63.023 1.4436 37.5328 13.7773 20.6361 35.2789C19.6516 36.5319 19.8695 38.3465 21.1225 39.331C22.377 40.3169 24.1915 40.0989 25.1775 38.8445C40.9728 18.7445 64.8043 7.2178 90.5601 7.2178C116.449 7.2178 143.485 20.7381 159.58 41.3187H151.657C150.063 41.3187 148.77 42.6107 148.77 44.2058C148.77 45.7995 150.063 47.0929 151.657 47.0929H165.248C166.179 47.0915 168.135 46.0536 168.135 44.1799Z" fill="url(#paint2_linear_10535_4236)"/>
<path d="M173.135 57.4041C172.558 55.9202 170.883 55.1839 169.398 55.7628C167.912 56.3402 167.176 58.0147 167.755 59.5016C171.386 68.8168 173.226 78.6488 173.226 88.7248C173.226 120.383 151.173 150.783 119.75 163.872L121.901 160.58C122.773 159.246 122.397 157.456 121.064 156.586C119.728 155.716 117.94 156.088 117.066 157.423L110.181 167.958C109.222 169.421 109.839 171.475 111.432 172.179L123.033 177.295C126.438 178.789 128.769 173.516 125.362 172.012L120.427 169.836C135.577 163.821 149.311 153.817 159.647 141.144C172.31 125.618 179 107.492 179 88.7248C179 77.9285 177.027 67.392 173.135 57.4041C177.027 67.392 172.556 55.9187 173.135 57.4041Z" fill="url(#paint3_linear_10535_4236)"/>
<path d="M93.9864 170.163C92.8503 170.207 91.7085 170.23 90.5609 170.23C44.9794 170.23 7.89605 133.668 7.89605 88.7248C7.89605 80.7737 11.2379 70.8291 14.4223 62.4349L16.9688 68.069C18.5061 71.4671 23.7621 69.0781 22.2319 65.6929L16.8489 53.7837C16.1864 52.3199 14.3632 51.6718 12.9254 52.3906L1.59497 58.0652C0.168741 58.7783 -0.407235 60.5135 0.305878 61.9383C1.02043 63.3645 2.75847 63.9434 4.18036 63.2259L8.83003 60.8975C5.53585 69.6309 2.1233 79.9841 2.1233 88.7233C2.1233 136.848 41.7963 176.002 90.5623 176.002C91.7864 176.002 93.0048 175.976 94.2159 175.928C95.8096 175.866 97.0496 174.522 96.9861 172.93C96.9226 171.338 95.5757 170.102 93.9864 170.163C95.5757 170.102 92.8518 170.207 93.9864 170.163Z" fill="url(#paint4_linear_10535_4236)"/>
<path d="M94.121 147.228C91.2873 147.228 82.8873 147.261 81.5794 146.704C79.3275 145.745 77.4913 143.301 77.4913 140.795V135.044C73.1405 133.904 68.9383 132.128 65.1331 129.823L61.0912 133.856C58.5534 136.362 54.2271 135.942 51.7918 133.612C50.6023 132.473 45.9714 127.744 44.9003 126.5C42.6166 123.845 42.6672 119.731 45.163 117.239L49.231 113.181C46.852 109.128 45.1169 104.868 44.1295 100.654H38.4361C34.8864 100.654 31.9531 97.7384 31.7583 94.2205C31.6673 92.5763 31.7106 85.9432 31.7583 84.2918C31.8564 80.8893 34.6093 77.6211 38.1994 77.6211H43.9707C45.1125 73.2833 46.8895 69.0926 49.1992 65.3004L45.1645 61.2744C42.6397 58.7496 43.0771 54.4045 45.4085 51.9794C46.5503 50.7928 51.2909 46.1705 52.5367 45.1038C55.1928 42.8302 59.3069 42.8807 61.8014 45.3665L65.8751 49.4315C69.9387 47.0554 74.2116 45.3232 78.4383 44.3358V38.4273C78.4383 34.8762 81.3658 31.953 84.8794 31.7567C86.5265 31.6658 93.1755 31.7047 94.8312 31.7567C98.43 31.8693 101.272 34.8098 101.272 38.4273V44.1784C105.623 45.3188 109.825 47.093 113.631 49.3998L117.672 45.3665C120.204 42.8518 124.542 43.2863 126.972 45.6119C128.161 46.7508 132.792 51.4785 133.862 52.7228C136.146 55.3789 136.095 59.4916 133.598 61.9832L129.531 66.041C131.91 70.093 133.644 74.3515 134.633 78.5666H140.326C143.793 78.5666 146.864 81.1318 147.219 84.6425C147.391 86.3416 147.291 93.2317 147.242 94.9307C147.144 98.3346 144.394 101.6 140.801 101.6H135.03C133.888 105.938 132.111 110.127 129.801 113.922L133.836 117.947C136.362 120.473 135.923 124.818 133.592 127.243C132.45 128.43 127.711 133.05 126.464 134.117C123.806 136.392 119.695 136.345 117.199 133.856L113.125 129.791C109.062 132.166 104.79 133.899 100.562 134.887V140.558C100.562 143.962 97.6375 147.228 94.121 147.228ZM83.2641 140.566C83.3261 140.859 83.5326 141.453 84.1677 141.453H93.8929C94.1888 141.391 94.7879 141.186 94.7879 140.557V132.519C94.7879 131.109 95.8085 129.904 97.2015 129.673C102.123 128.854 107.233 126.793 111.981 123.714C113.122 122.973 114.628 123.132 115.591 124.092L121.277 129.766C121.735 130.224 122.348 129.954 122.637 129.784L129.554 123.112C129.967 122.7 129.717 122.116 129.547 121.824L124.07 116.359C123.084 115.376 122.941 113.83 123.728 112.682C126.648 108.422 128.847 103.251 129.918 98.1195C130.198 96.7813 131.378 95.8228 132.745 95.8228H140.574C140.869 95.7622 141.468 95.5587 141.468 94.9293V85.22C141.35 84.6353 140.966 84.3394 140.326 84.3394H132.27C130.858 84.3394 129.654 83.3203 129.422 81.9272C128.603 77.0206 126.537 71.9249 123.452 67.1886C122.706 66.0439 122.865 64.5339 123.832 63.5682L129.518 57.8936C129.967 57.4461 129.703 56.8412 129.536 56.554L122.849 49.6524C122.43 49.2366 121.836 49.4878 121.54 49.6581L116.061 55.1249C115.08 56.105 113.54 56.2479 112.395 55.4641C108.126 52.5525 102.941 50.3568 97.7948 49.2872C96.4552 49.01 95.4952 47.8277 95.4952 46.4607V38.423C95.4952 37.8672 95.1069 37.5266 94.8283 37.5266H85.1031C84.8072 37.5886 84.2081 37.7936 84.2081 38.423V46.6974C84.2081 48.1078 83.1875 49.3131 81.7945 49.5441C76.8749 50.3626 71.7648 52.4225 67.0155 55.5016C65.8736 56.2451 64.3695 56.0848 63.4066 55.1234L57.7205 49.4503C57.2643 48.9941 56.6494 49.2626 56.3607 49.4315L49.4432 56.1036C49.0303 56.515 49.2801 57.0996 49.4504 57.3912L54.9272 62.858C55.9132 63.8425 56.0561 65.3871 55.2693 66.5347C52.3505 70.7917 50.152 75.9639 49.0794 81.0957C48.7993 82.4339 47.62 83.3924 46.2529 83.3924H38.4275C38.1315 83.4559 37.5325 83.6595 37.5325 84.2903V93.991C37.5945 94.284 37.801 94.8787 38.4361 94.8787H46.4926C47.9043 94.8787 49.1083 95.8993 49.3407 97.2909C50.1592 102.196 52.2234 107.293 55.3097 112.031C56.0561 113.176 55.8973 114.686 54.9301 115.651L49.244 121.325C48.795 121.773 49.0592 122.378 49.2266 122.666L55.9132 129.567C56.3318 129.984 56.9265 129.733 57.2225 129.56L62.7007 124.093C63.6809 123.113 65.2226 122.97 66.3688 123.754C70.6359 126.667 75.8197 128.863 80.9674 129.932C82.307 130.21 83.2669 131.392 83.2669 132.759V140.566H83.2641Z" fill="url(#paint5_linear_10535_4236)"/>
</g>
<defs>
<linearGradient id="paint0_linear_10535_4236" x1="89.6183" y1="64.137" x2="89.6183" y2="115.315" gradientUnits="userSpaceOnUse">
<stop stop-color="#033177"/>
<stop offset="1" stop-color="#7BB0FF"/>
</linearGradient>
<linearGradient id="paint1_linear_10535_4236" x1="101.996" y1="66.8521" x2="101.996" y2="74.3341" gradientUnits="userSpaceOnUse">
<stop stop-color="#033177"/>
<stop offset="1" stop-color="#7BB0FF"/>
</linearGradient>
<linearGradient id="paint2_linear_10535_4236" x1="94.0772" y1="1.4436" x2="94.0772" y2="47.0929" gradientUnits="userSpaceOnUse">
<stop stop-color="#033177"/>
<stop offset="1" stop-color="#7BB0FF"/>
</linearGradient>
<linearGradient id="paint3_linear_10535_4236" x1="144.362" y1="55.5652" x2="144.362" y2="177.559" gradientUnits="userSpaceOnUse">
<stop stop-color="#033177"/>
<stop offset="1" stop-color="#7BB0FF"/>
</linearGradient>
<linearGradient id="paint4_linear_10535_4236" x1="48.4942" y1="52.0962" x2="48.4942" y2="176.002" gradientUnits="userSpaceOnUse">
<stop stop-color="#033177"/>
<stop offset="1" stop-color="#7BB0FF"/>
</linearGradient>
<linearGradient id="paint5_linear_10535_4236" x1="89.5104" y1="31.7021" x2="89.5104" y2="147.228" gradientUnits="userSpaceOnUse">
<stop stop-color="#033177"/>
<stop offset="1" stop-color="#7BB0FF"/>
</linearGradient>
<clipPath id="clip0_10535_4236">
<rect width="179" height="179" fill="white"/>
</clipPath>
</defs>
</svg>
