<svg width="49" height="35" viewBox="0 0 49 35" fill="none" xmlns="http://www.w3.org/2000/svg">
<path d="M37.2649 5.19607H34.5852L35.7556 4.00173C35.969 3.7841 36.1382 3.52573 36.2537 3.24135C36.3692 2.95698 36.4287 2.65218 36.4287 2.34436C36.4287 2.03654 36.3694 1.73173 36.254 1.44732C36.1386 1.16291 35.9694 0.904485 35.7561 0.686791C35.5428 0.469097 35.2896 0.2964 35.011 0.17856C34.7323 0.0607201 34.4336 4.53642e-05 34.1319 2.54283e-08C33.8302 -4.53134e-05 33.5315 0.0605394 33.2528 0.178295C32.9741 0.296051 32.7208 0.468673 32.5075 0.686303L27.1232 6.1824C26.6925 6.62193 26.4505 7.21805 26.4505 7.83962C26.4505 8.4612 26.6925 9.05732 27.1232 9.49685L32.5094 14.9929C32.722 15.2135 32.9754 15.3889 33.2548 15.509C33.5342 15.6292 33.8342 15.6917 34.1374 15.6929C34.4406 15.6942 34.741 15.6342 35.0214 15.5164C35.3017 15.3986 35.5564 15.2253 35.7708 15.0065C35.9852 14.7877 36.1551 14.5278 36.2705 14.2417C36.386 13.9556 36.4448 13.6491 36.4436 13.3397C36.4423 13.0303 36.3811 12.7242 36.2633 12.4391C36.1456 12.154 35.9737 11.8955 35.7576 11.6785L33.9985 9.88357H37.2649C39.1493 9.88357 40.9564 10.6474 42.2889 12.007C43.6213 13.3667 44.3699 15.2107 44.3699 17.1336C44.3699 19.0564 43.6213 20.9005 42.2889 22.2601C40.9564 23.6197 39.1493 24.3836 37.2649 24.3836C36.3633 24.382 35.4713 24.1942 34.6426 23.8315C33.814 23.4688 33.0659 22.9388 32.4434 22.2732L19.8488 8.76248C18.7963 7.63783 17.5317 6.74211 16.131 6.1292C14.7304 5.5163 13.2227 5.19888 11.6988 5.19607C8.59605 5.19607 5.62043 6.45377 3.42648 8.69248C1.23254 10.9312 0 13.9675 0 17.1336C0 20.2996 1.23254 23.3359 3.42648 25.5747C5.62043 27.8134 8.59605 29.0711 11.6988 29.0711H14.3784L13.208 30.2654C12.9919 30.4824 12.82 30.7409 12.7022 31.026C12.5845 31.3111 12.5232 31.6172 12.522 31.9266C12.5208 32.236 12.5796 32.5426 12.695 32.8286C12.8105 33.1147 12.9803 33.3746 13.1947 33.5934C13.4091 33.8122 13.6638 33.9855 13.9442 34.1033C14.2246 34.2211 14.525 34.2811 14.8282 34.2799C15.1314 34.2786 15.4314 34.2161 15.7108 34.096C15.9902 33.9758 16.2435 33.8004 16.4562 33.5799L21.8423 28.0847C22.273 27.6452 22.515 27.0491 22.515 26.4275C22.515 25.8059 22.273 25.2098 21.8423 24.7703L16.4562 19.2742C16.2435 19.0536 15.9902 18.8782 15.7108 18.7581C15.4314 18.638 15.1314 18.5755 14.8282 18.5742C14.525 18.5729 14.2246 18.6329 13.9442 18.7508C13.6638 18.8686 13.4091 19.0419 13.1947 19.2606C12.9803 19.4794 12.8105 19.7393 12.695 20.0254C12.5796 20.3115 12.5208 20.6181 12.522 20.9275C12.5232 21.2369 12.5845 21.5429 12.7022 21.828C12.82 22.1132 12.9919 22.3717 13.208 22.5886L14.967 24.3836H11.6988C9.81439 24.3836 8.0072 23.6197 6.67476 22.2601C5.34231 20.9005 4.59375 19.0564 4.59375 17.1336C4.59375 15.2107 5.34231 13.3667 6.67476 12.007C8.0072 10.6474 9.81439 9.88357 11.6988 9.88357C12.6004 9.88514 13.4924 10.0729 14.321 10.4356C15.1496 10.7983 15.8977 11.3284 16.5203 11.9939L29.1148 25.5037C30.1671 26.6287 31.4316 27.5248 32.8323 28.1379C34.233 28.751 35.7408 29.0684 37.2649 29.0711C40.3676 29.0711 43.3432 27.8134 45.5372 25.5747C47.7311 23.3359 48.9636 20.2996 48.9636 17.1336C48.9636 13.9675 47.7311 10.9312 45.5372 8.69248C43.3432 6.45377 40.3676 5.19607 37.2649 5.19607Z" fill="#00AA72"/>
</svg>
