<svg width="53" height="53" viewBox="0 0 53 53" fill="none" xmlns="http://www.w3.org/2000/svg">
<path d="M26.4063 0C21.1836 0 16.0782 1.5487 11.7357 4.45026C7.39325 7.35181 4.00869 11.4759 2.01007 16.301C0.0114414 21.1261 -0.51149 26.4355 0.507401 31.5579C1.52629 36.6802 4.04124 41.3853 7.73422 45.0783C11.4272 48.7713 16.1323 51.2862 21.2547 52.3051C26.377 53.324 31.6864 52.8011 36.5115 50.8024C41.3366 48.8038 45.4607 45.4193 48.3623 41.0768C51.2638 36.7343 52.8125 31.6289 52.8125 26.4062C52.8051 19.4051 50.0207 12.6929 45.0701 7.74238C40.1196 2.79185 33.4074 0.00739329 26.4063 0ZM37.9996 27.8434L29.8746 35.9684C29.4935 36.3495 28.9765 36.5636 28.4375 36.5636C27.8985 36.5636 27.3815 36.3495 27.0004 35.9684C26.6193 35.5872 26.4051 35.0703 26.4051 34.5312C26.4051 33.9922 26.6193 33.4753 27.0004 33.0941L31.6596 28.4375H16.25C15.7113 28.4375 15.1946 28.2235 14.8137 27.8426C14.4328 27.4616 14.2188 26.945 14.2188 26.4062C14.2188 25.8675 14.4328 25.3509 14.8137 24.9699C15.1946 24.589 15.7113 24.375 16.25 24.375H31.6596L27.0004 19.7184C26.6193 19.3372 26.4051 18.8203 26.4051 18.2812C26.4051 17.7422 26.6193 17.2253 27.0004 16.8441C27.3815 16.463 27.8985 16.2489 28.4375 16.2489C28.9765 16.2489 29.4935 16.463 29.8746 16.8441L37.9996 24.9691C38.1885 25.1578 38.3383 25.3818 38.4405 25.6284C38.5427 25.875 38.5954 26.1393 38.5954 26.4062C38.5954 26.6732 38.5427 26.9375 38.4405 27.1841C38.3383 27.4307 38.1885 27.6547 37.9996 27.8434Z" fill="white"/>
</svg>
