<svg width="46" height="46" viewBox="0 0 46 46" fill="none" xmlns="http://www.w3.org/2000/svg">
<g clip-path="url(#clip0_10720_5936)">
<mask id="mask0_10720_5936" style="mask-type:luminance" maskUnits="userSpaceOnUse" x="0" y="0" width="46" height="46">
<path d="M0 0H46V46H0V0Z" fill="white"/>
</mask>
<g mask="url(#mask0_10720_5936)">
<path d="M7.66732 22.0416V29.7083C7.66732 31.2991 8.95149 32.5833 10.5423 32.5833C12.1332 32.5833 13.4173 31.2991 13.4173 29.7083V22.0416C13.4173 20.4508 12.1332 19.1666 10.5423 19.1666C8.95149 19.1666 7.66732 20.4508 7.66732 22.0416ZM19.1673 22.0416V29.7083C19.1673 31.2991 20.4515 32.5833 22.0423 32.5833C23.6332 32.5833 24.9173 31.2991 24.9173 29.7083V22.0416C24.9173 20.4508 23.6332 19.1666 22.0423 19.1666C20.4515 19.1666 19.1673 20.4508 19.1673 22.0416ZM6.70898 42.1666H37.3757C38.9665 42.1666 40.2507 40.8824 40.2507 39.2916C40.2507 37.7008 38.9665 36.4166 37.3757 36.4166H6.70898C5.11815 36.4166 3.83398 37.7008 3.83398 39.2916C3.83398 40.8824 5.11815 42.1666 6.70898 42.1666ZM30.6673 22.0416V29.7083C30.6673 31.2991 31.9515 32.5833 33.5423 32.5833C35.1332 32.5833 36.4173 31.2991 36.4173 29.7083V22.0416C36.4173 20.4508 35.1332 19.1666 33.5423 19.1666C31.9515 19.1666 30.6673 20.4508 30.6673 22.0416ZM20.2598 2.85578L5.11815 10.8291C4.33232 11.2316 3.83398 12.0558 3.83398 12.9374C3.83398 14.2599 4.90732 15.3333 6.22982 15.3333H37.874C39.1773 15.3333 40.2507 14.2599 40.2507 12.9374C40.2507 12.0558 39.7523 11.2316 38.9665 10.8291L23.8248 2.85578C22.7132 2.26161 21.3715 2.26161 20.2598 2.85578Z" fill="#00AA72"/>
</g>
</g>
<defs>
<clipPath id="clip0_10720_5936">
<rect width="46" height="46" fill="white"/>
</clipPath>
</defs>
</svg>
