<svg width="37" height="33" viewBox="0 0 37 33" fill="none" xmlns="http://www.w3.org/2000/svg">
<path d="M23.1254 19.4982C23.1254 21.979 21.0509 23.9978 18.5017 23.9978C15.9526 23.9978 13.8781 21.979 13.8781 19.4982C13.8781 17.0175 15.9526 14.9986 18.5017 14.9986C21.0509 14.9986 23.1254 17.0175 23.1254 19.4982ZM35.8635 23.2344C33.4777 26.8791 28.0465 33 18.5017 33C8.95698 33 3.52573 26.8761 1.13376 23.2254C-0.379716 20.9291 -0.378174 18.0704 1.13992 15.7681C1.98759 14.4737 3.22827 12.8673 4.89279 11.333L1.89974 7.6898C1.36802 7.04186 1.47745 6.09845 2.14172 5.58099C2.80598 5.06654 3.77541 5.16853 4.30867 5.81647L7.27551 9.42964C8.26805 8.7502 9.36694 8.12776 10.5783 7.60431L9.05716 3.2802C8.78128 2.49727 9.21128 1.64385 10.0173 1.37537C10.8219 1.1054 11.6988 1.52386 11.9747 2.30979L13.4882 6.6144C14.5716 6.34142 15.7306 6.15394 16.9605 6.06545V1.49986C16.9605 0.671939 17.651 0 18.5017 0C19.3525 0 20.043 0.671939 20.043 1.49986V6.06395C21.2805 6.15244 22.4442 6.34142 23.5338 6.6174L25.0519 2.31279C25.3278 1.52986 26.1986 1.1114 27.0108 1.38137C27.8138 1.64985 28.2438 2.50327 27.9679 3.2877L26.4421 7.61181C27.6319 8.12776 28.7123 8.7382 29.6894 9.40564L32.6501 5.78647C33.1803 5.14003 34.1466 5.02904 34.8155 5.5465C35.4813 6.06245 35.5907 7.00586 35.0606 7.6538L32.0752 11.303C33.7567 12.8478 35.0097 14.4677 35.8635 15.7741C37.3801 18.0734 37.3786 20.9321 35.8605 23.2359L35.8635 23.2344ZM26.2078 19.4982C26.2078 15.3631 22.7509 11.9989 18.5017 11.9989C14.2526 11.9989 10.7956 15.3631 10.7956 19.4982C10.7956 23.6333 14.2526 26.9975 18.5017 26.9975C22.7509 26.9975 26.2078 23.6333 26.2078 19.4982Z" fill="white"/>
</svg>
