<svg width="40" height="40" viewBox="0 0 40 40" fill="none" xmlns="http://www.w3.org/2000/svg">
<path d="M37.1667 17.0833H35.8333H8.41667C7.08333 17.0833 6 18.1666 6 19.4999V24.9166V34.8333C6 36.1666 7.08333 37.2499 8.41667 37.2499H37.25C38.5833 37.2499 39.6667 36.1666 39.6667 34.8333V19.4166C39.5833 18.0833 38.5 17.0833 37.1667 17.0833ZM13.4167 33.9166H9.41667V32.0833H13.4167V33.9166ZM21 33.9166H17V32.0833H21V33.9166ZM28.5833 33.9166H24.5833V32.0833H28.5833V33.9166ZM28.0833 27.2499C25.9167 27.2499 24.25 25.4999 24.25 23.4166C24.25 21.3333 26 19.5833 28.0833 19.5833C30.1667 19.5833 31.9167 21.3333 31.9167 23.4166C31.9167 25.4999 30.25 27.2499 28.0833 27.2499ZM36.25 33.9166H32.25V32.0833H36.25V33.9166ZM33.3333 27.2499V25.4166C34.4167 25.4166 35.3333 24.4999 35.3333 23.4166C35.3333 22.3333 34.4167 21.4166 33.3333 21.4166V19.5833C35.5 19.5833 37.1667 21.3333 37.1667 23.4166C37.1667 25.4999 35.5 27.2499 33.3333 27.2499Z" fill="#00AA72"/>
<path d="M28.082 25.3333C29.1866 25.3333 30.082 24.4378 30.082 23.3333C30.082 22.2287 29.1866 21.3333 28.082 21.3333C26.9775 21.3333 26.082 22.2287 26.082 23.3333C26.082 24.4378 26.9775 25.3333 28.082 25.3333Z" fill="#00AA72"/>
<path d="M33.9993 5.33325V5.24992C33.9993 3.91659 32.916 2.83325 31.5827 2.83325H2.83268C1.49935 2.83325 0.416016 3.91659 0.416016 5.24992V5.41659H33.9993V5.33325Z" fill="#00AA72"/>
<path d="M0.416016 7.25H33.9993V12H0.416016V7.25Z" fill="#00AA72"/>
<path d="M2.83268 22.9166H4.16602V19.4166C4.16602 17.0833 6.08268 15.1666 8.41602 15.1666H33.9993V13.8333H0.416016V20.5833C0.416016 21.9166 1.49935 22.9166 2.83268 22.9166Z" fill="#00AA72"/>
</svg>
