<svg width="36" height="36" viewBox="0 0 36 36" fill="none" xmlns="http://www.w3.org/2000/svg">
<path d="M14 24C13.4696 24 12.9609 23.7893 12.5858 23.4142C12.2107 23.0391 12 22.5304 12 22V14C12 13.4696 12.2107 12.9609 12.5858 12.5858C12.9609 12.2107 13.4696 12 14 12H22C22.5304 12 23.0391 12.2107 23.4142 12.5858C23.7893 12.9609 24 13.4696 24 14V22C24 22.5304 23.7893 23.0391 23.4142 23.4142C23.0391 23.7893 22.5304 24 22 24H14ZM36 16C36 14.9391 35.5786 13.9217 34.8284 13.1716C34.0783 12.4214 33.0609 12 32 12H27.6314C27.8686 12.6405 27.9933 13.3171 28 14V22C27.9983 23.5908 27.3656 25.1159 26.2407 26.2407C25.1159 27.3656 23.5908 27.9983 22 28H14C13.3171 27.9932 12.6405 27.8685 12 27.6314V32C12 33.0609 12.4214 34.0783 13.1716 34.8284C13.9217 35.5786 14.9391 36 16 36H32C33.0609 36 34.0783 35.5786 34.8284 34.8284C35.5786 34.0783 36 33.0609 36 32V16ZM4 0C2.93913 0 1.92172 0.421427 1.17157 1.17157C0.421427 1.92172 0 2.93913 0 4V20C0 21.0609 0.421427 22.0783 1.17157 22.8284C1.92172 23.5786 2.93913 24 4 24H8.3686C8.13152 23.3595 8.00682 22.6829 8 22V14C8.00175 12.4092 8.63445 10.8841 9.75929 9.75929C10.8841 8.63445 12.4092 8.00175 14 8H22C22.6829 8.00672 23.3595 8.13142 24 8.3686V4C24 2.93913 23.5786 1.92172 22.8284 1.17157C22.0783 0.421427 21.0609 0 20 0H4Z" fill="white"/>
</svg>
