<svg width="25" height="25" viewBox="0 0 25 25" fill="none" xmlns="http://www.w3.org/2000/svg">
<path d="M11.0195 9H2.11328C1.49727 9 1 9.49727 1 10.1133V21.625C1 22.2336 1.49727 22.7383 2.11328 22.7383H11.0195C11.6355 22.7383 12.1328 22.2336 12.1328 21.625V10.1133C12.1328 9.49727 11.6355 9 11.0195 9Z" fill="white"/>
<path d="M23.2617 0.625H14.3555C13.7395 0.625 13.2422 1.12227 13.2422 1.73828V13.25C13.2422 13.8586 13.7395 14.3633 14.3555 14.3633H23.2617C23.8777 14.3633 24.375 13.8586 24.375 13.25V1.73828C24.375 1.12227 23.8777 0.625 23.2617 0.625Z" fill="white"/>
<path d="M23.2617 15.8477H14.3555C13.7395 15.8477 13.2422 16.3449 13.2422 16.9609V23.2617C13.2422 23.8703 13.7395 24.375 14.3555 24.375H23.2617C23.8777 24.375 24.375 23.8703 24.375 23.2617V16.9609C24.375 16.3449 23.8777 15.8477 23.2617 15.8477Z" fill="white"/>
<path d="M11.0195 0.625H2.11328C1.49727 0.625 1 1.12227 1 1.73828V8.03906C1 8.64766 1.49727 9.15234 2.11328 9.15234H11.0195C11.6355 9.15234 12.1328 8.64766 12.1328 8.03906V1.73828C12.1328 1.12227 11.6355 0.625 11.0195 0.625Z" fill="white"/>
</svg>
