<svg width="27" height="25" viewBox="0 0 27 25" fill="none" xmlns="http://www.w3.org/2000/svg">
<path fill-rule="evenodd" clip-rule="evenodd" d="M3.5 0C1.567 0 0 1.567 0 3.5V21C0 22.933 1.567 24.5 3.5 24.5H16.625C18.558 24.5 20.125 22.933 20.125 21V3.5C20.125 1.567 18.558 0 16.625 0H3.5ZM5.6875 6.125C5.20424 6.125 4.8125 6.51674 4.8125 7C4.8125 7.48326 5.20424 7.875 5.6875 7.875H14.4375C14.9208 7.875 15.3125 7.48326 15.3125 7C15.3125 6.51674 14.9208 6.125 14.4375 6.125H5.6875ZM5.6875 11.375C5.20424 11.375 4.8125 11.7667 4.8125 12.25C4.8125 12.7333 5.20424 13.125 5.6875 13.125H14.4375C14.9208 13.125 15.3125 12.7333 15.3125 12.25C15.3125 11.7667 14.9208 11.375 14.4375 11.375H5.6875ZM5.6875 16.625C5.20424 16.625 4.8125 17.0167 4.8125 17.5C4.8125 17.9833 5.20424 18.375 5.6875 18.375H10.0625C10.5458 18.375 10.9375 17.9833 10.9375 17.5C10.9375 17.0167 10.5458 16.625 10.0625 16.625H5.6875Z" fill="white"/>
<path d="M22.3125 21.4375C21.8292 21.4375 21.4375 21.0458 21.4375 20.5625V3.9375C21.4375 3.45424 21.8292 3.0625 22.3125 3.0625C22.7958 3.0625 23.1875 3.45424 23.1875 3.9375V20.5625C23.1875 21.0458 22.7958 21.4375 22.3125 21.4375Z" fill="white"/>
<path d="M25.375 18.375C24.8917 18.375 24.5 17.9833 24.5 17.5V7C24.5 6.51674 24.8917 6.125 25.375 6.125C25.8583 6.125 26.25 6.51674 26.25 7V17.5C26.25 17.9833 25.8583 18.375 25.375 18.375Z" fill="white"/>
</svg>
