<svg width="133" height="133" viewBox="0 0 133 133" fill="none" xmlns="http://www.w3.org/2000/svg">
<path d="M43.3477 118.124C42.6581 117.631 41.6729 117.138 40.3921 117.138C39.2099 117.138 37.7322 117.631 36.6484 118.813C36.0573 119.404 35.5647 120.291 35.3677 121.276C35.1707 122.261 35.1707 123.444 35.5647 124.429C35.9588 125.513 36.6484 126.399 37.6336 127.089C38.6188 127.68 39.801 127.975 40.7862 127.778C42.5596 127.581 44.0373 126.301 44.4314 124.626C44.727 123.444 44.4314 122.655 44.2344 122.754C44.0373 122.754 43.8403 123.444 43.3477 124.232C42.8551 125.02 41.7714 125.808 40.5892 125.808C39.9981 125.808 39.407 125.512 39.0129 125.217C38.6188 124.823 38.2247 124.33 38.1262 123.739C37.8307 122.557 38.3233 121.572 38.8159 120.981C39.801 119.995 40.9833 120.193 41.6729 120.587C42.3625 120.981 42.7566 121.572 42.9536 121.966C43.4462 122.754 43.7418 122.852 44.1359 122.852C44.3329 122.852 44.5299 122.853 44.727 122.655C44.924 122.458 45.0225 122.064 45.0225 121.375C45.121 120.488 44.8255 119.306 43.3477 118.124Z" fill="#00AA72"/>
<path d="M113.789 103.149C114.971 103.149 115.956 103.247 117.237 103.149C118.518 103.05 119.7 102.755 120.784 102.361C123.049 101.474 124.921 99.7992 126.202 97.8288C127.483 95.8585 128.074 93.5925 128.074 91.3266C127.975 83.4451 127.877 76.3518 127.778 70.3422H127.877C127.877 68.6674 127.778 67.0911 127.778 65.6133C127.68 61.2785 127.68 63.2488 127.483 56.4511C127.483 55.9585 127.483 55.4659 127.384 55.0718C127.286 52.1163 127.089 50.54 126.99 50.54C126.892 50.54 126.892 50.8355 126.793 51.3281C126.301 50.934 124.33 50.54 116.449 50.4414C99.3065 50.1459 57.4362 50.8355 40.0969 51.2296C40.0969 51.1311 40.0969 51.0325 40.0969 50.934C40.2939 49.6533 40.7865 48.5696 41.3776 47.4859C42.6584 45.417 44.9243 44.2348 46.9932 44.1363C52.6087 43.9392 57.8302 43.7422 62.7562 43.6437C93.2969 42.56 83.9376 42.954 106.695 41.9688C114.38 41.5748 113.395 41.6733 115.168 41.5748C115.661 41.5748 116.153 41.4763 116.547 41.5748C117.335 41.5748 118.124 41.6733 118.813 41.7718C121.67 42.4614 123.345 44.1363 124.33 45.5155C125.315 46.8948 125.709 48.077 126.005 48.8651C126.301 49.6533 126.399 50.1459 126.498 50.3429C126.596 50.54 126.793 50.6385 126.892 50.6385C126.99 50.6385 127.187 50.6385 127.286 50.3429C127.384 50.0474 127.581 49.5548 127.483 48.5696C127.384 47.5844 127.187 46.1066 126.202 44.3333C125.709 43.4466 124.921 42.3629 123.838 41.4762C122.754 40.4911 121.375 39.6044 119.503 39.1118C118.616 38.9148 117.631 38.6192 116.547 38.6192C115.956 38.6192 115.562 38.6192 115.069 38.6192C113.198 38.6192 114.478 38.6192 106.597 38.7177C85.4154 39.2103 93.7502 39.1118 85.7702 39.3088C85.7702 35.4666 85.7702 39.2103 85.7702 14.2851C85.7702 13.3 85.7702 12.3148 85.7702 11.3296C85.7702 11.2311 82.4599 2.26588 73.7902 2.06885C73.2976 2.06885 72.7065 2.06885 72.2139 2.06885C56.5495 2.06885 33.4962 2.06885 15.9599 2.16737C15.1717 2.16737 14.3836 2.16737 13.5954 2.16737C12.9058 2.16737 11.7236 2.16737 10.7384 2.46292C7.58578 3.05403 5.0243 6.10811 4.92578 9.65477V10.0488V21.3785C5.41837 113.395 5.31986 96.0555 5.51689 123.542C5.51689 123.936 5.51689 124.429 5.61541 124.823C5.91097 126.596 6.79763 128.173 8.17689 129.355C9.45763 130.438 11.231 131.128 12.9058 131.128C18.7184 131.03 11.625 131.128 46.5991 130.734C82.0658 130.241 83.6421 129.749 46.5991 129.158C14.9747 128.764 18.7184 128.862 12.9058 128.764C11.7236 128.764 10.6399 128.271 9.75319 127.581C8.86652 126.793 8.27541 125.71 8.07837 124.527C7.97986 124.232 8.07837 123.936 7.97986 123.641C7.97986 123.247 8.17689 101.671 8.17689 101.573C8.27541 75.9577 8.47245 47.88 8.57097 21.477C8.57097 19.6051 8.57097 13.8911 8.57097 10.1474V9.95033C8.66948 8.07848 10.0487 6.50218 11.7236 6.00959C12.3147 5.91107 12.7087 5.91107 13.5954 5.91107H15.9599C34.8754 5.81255 61.0813 5.91107 72.3125 5.91107C79.5043 5.91107 77.5339 10.837 77.928 11.2311V14.1866V39.4074C76.4502 39.4074 74.9725 39.5059 73.3962 39.5059C73.3962 14.6792 73.3962 33.5948 73.3962 22.1666V21.7725C72.7065 14.8763 64.825 16.4525 57.4362 16.4525C19.9006 16.5511 30.7376 16.4525 19.605 16.5511C19.1124 16.5511 18.0287 16.5511 17.1421 16.8466C15.3687 17.4377 12.891 18.9155 12.3984 20.6888C12.2999 21.1814 12.2013 21.5755 12.2013 22.0681C12.2013 22.8563 12.2013 28.2748 12.6939 94.5777C12.6939 95.1688 13.891 110.833 13.891 111.621C13.891 111.917 13.891 112.41 13.9895 112.705C14.285 114.183 15.2702 115.464 16.6495 116.153C17.3391 116.449 18.0287 116.646 18.8169 116.646C22.6591 116.646 20.0976 116.646 46.5991 116.252C53.1013 116.153 58.3228 115.956 61.968 115.858C69.2584 115.562 69.751 115.365 61.968 115.07C58.3228 114.971 53.1013 114.774 46.5991 114.676C14.7776 114.183 23.1517 114.38 18.9154 114.281C18.5213 114.281 18.1273 114.183 17.8317 113.986C17.1421 113.592 16.6495 112.902 16.551 112.213C16.551 112.016 16.551 111.818 16.551 111.621C16.551 108.37 16.551 111.424 16.748 94.5777C17.2406 17.1422 17.1421 22.1666 17.3391 21.674C17.5362 21.0829 18.0287 20.5903 18.6199 20.3933C19.1124 20.2948 16.3539 20.2948 57.6332 20.3933C67.091 20.3933 67.9776 20.3933 68.2732 20.4918C68.9628 20.6888 69.5539 21.1814 69.6524 22.0681V22.1666V22.4622V39.6044C60.5887 39.8014 66.8939 39.7029 47.1902 40.294C44.1362 40.3926 41.1806 41.8703 39.2102 44.2348C38.3236 25.8118 37.4369 30.6392 36.7473 48.7666C35.8606 51.2296 36.0576 52.2148 36.0576 66.9925C35.9591 72.6081 35.8606 77.8296 35.8606 81.9674C35.8606 110.636 36.7473 111.227 37.831 111.227C38.7176 111.227 39.4073 110.833 39.7028 97.8288C40.1954 98.3214 40.7865 98.814 41.3776 99.2081C42.5599 99.9962 43.8406 100.587 45.3184 100.883C45.7124 100.981 46.008 100.981 46.4021 101.08H46.8947H47.3873C62.3621 101.573 29.6539 100.489 69.948 101.77C70.145 111.72 70.3421 111.621 70.2436 112.311C70.2436 112.607 70.145 112.902 69.948 113.198C69.751 113.69 69.3569 114.084 69.0613 114.281C68.4702 114.774 67.9776 114.873 67.7806 115.07C67.5836 115.168 67.485 115.365 67.485 115.464C67.485 115.562 67.485 115.759 67.7806 115.858C68.0762 115.956 68.7658 116.055 69.8495 115.562C70.3421 115.267 71.0317 114.873 71.5243 114.183C71.8199 113.789 72.0169 113.395 72.2139 112.804C72.411 112.311 72.411 111.621 72.411 111.129C72.608 108.272 72.7065 104.725 72.7065 101.868C74.4799 101.967 76.2532 101.967 78.125 102.065C78.2236 109.06 78.3221 115.661 78.5191 122.951V124.035C78.5191 124.33 78.5191 124.626 78.4206 124.921C78.2236 126.005 77.731 126.793 77.2384 127.483C76.7458 128.074 76.1547 128.468 75.7606 128.764C74.7754 129.355 74.1843 129.453 73.8887 129.65C73.5932 129.749 73.4947 129.946 73.4947 130.044C73.4947 130.143 73.4947 130.34 73.8887 130.438C74.2828 130.537 75.071 130.636 76.3517 130.143C77.0413 129.946 77.8295 129.453 78.6176 128.764C79.4058 127.975 80.1939 126.892 80.588 125.414C80.6865 125.02 80.785 124.626 80.785 124.232C80.785 123.838 80.785 124.035 80.8836 120.587C80.9821 115.07 81.0806 112.213 81.1791 102.262C89.8487 102.558 98.4199 102.853 106.597 103.05C109.257 103.05 111.523 103.149 113.789 103.149ZM116.547 53.2985C124.133 52.9044 126.202 52.5103 126.793 52.1163C126.695 52.9044 126.695 53.8896 126.596 55.1703C126.596 55.5644 126.596 56.057 126.498 56.5496C126.202 63.2488 126.301 61.377 126.202 65.7118C126.104 67.9777 126.202 67.2881 126.104 68.7659C125.709 68.7659 125.315 68.7659 124.921 68.7659C111.818 68.4703 105.809 68.4703 85.711 68.1748C70.6376 68.0762 54.4806 67.9777 39.9984 67.8792C39.9984 49.7518 39.9984 57.1407 39.9984 55.2688C57.0421 54.8748 99.5036 54.1851 116.547 53.2985ZM47.5843 97.3363H47.1902H46.7962C46.5991 97.3363 46.3036 97.3362 46.1065 97.2377C43.2495 96.6466 41.0821 94.2822 40.3924 91.6222C40.0969 90.7355 39.9984 89.8488 39.9984 88.7651C39.9984 78.4207 39.9984 78.9133 39.9984 71.6229C46.9932 71.5244 54.2836 71.5244 61.5739 71.4259C89.8487 71.1303 80.785 71.2288 108.173 70.8348C114.774 70.7363 120.882 70.5392 126.104 70.4407C126.005 76.4503 125.907 83.5437 125.808 91.4251C125.808 93.1985 125.217 95.0703 124.232 96.5481C123.247 98.1244 121.67 99.3066 119.897 99.9962C119.01 100.292 118.025 100.489 117.04 100.587C116.153 100.587 114.971 100.489 113.789 100.489C111.523 100.39 109.257 100.292 106.991 100.193C88.568 99.3066 68.3717 98.42 49.3576 97.5333L47.5843 97.3363Z" fill="#00AA72"/>
<path d="M113.394 91.6223C113.394 91.3267 112.113 91.0312 110.044 90.7356C109.059 90.5386 107.779 90.44 106.399 90.3415C106.005 90.3415 105.907 90.243 105.611 90.1445C105.414 90.046 105.217 89.9475 105.02 89.8489C104.724 89.5534 104.429 89.1593 104.429 88.6667C104.429 88.3712 104.429 88.3712 104.429 87.8786C104.626 84.8245 104.626 83.6423 104.724 81.7704C104.724 81.3763 104.922 81.0808 105.119 80.7852C105.316 80.5882 105.611 80.4897 105.907 80.4897C108.665 80.5882 107.384 80.5882 112.113 80.6867C113.493 80.6867 113.493 80.6867 113.887 80.8838C114.182 81.0808 114.379 81.3763 114.379 81.7704C114.379 83.3467 114.478 84.726 114.478 85.9082C114.478 86.4993 114.576 87.0904 114.576 87.583C114.576 87.9771 114.675 88.3712 114.675 88.7652C114.675 89.1593 114.576 89.5534 114.379 89.7504C114.084 90.243 113.69 90.5386 113.493 90.8341C113.394 91.0312 113.394 91.3267 113.394 91.6223C113.394 91.9178 113.394 92.2134 113.788 92.4104C113.985 92.5089 114.281 92.6075 114.773 92.6075C115.266 92.6075 115.857 92.4104 116.547 91.9178C117.236 91.4252 117.926 90.5386 118.222 89.2578C118.32 88.4697 118.32 88.1741 118.419 87.583C118.517 85.5141 118.517 86.3023 118.616 83.8393C118.616 82.5586 118.616 82.8541 118.616 82.1645V81.8689V81.3763C118.419 79.1104 116.645 77.1401 114.379 76.746C113.394 76.6475 113.099 76.6475 112.507 76.6475C107.779 76.6475 109.059 76.6475 106.202 76.6475C104.922 76.6475 103.641 77.2386 102.754 78.2238C101.867 79.1104 101.375 80.4897 101.473 81.7704C101.572 84.726 101.572 83.7408 101.67 86.6963C101.67 87.0904 101.67 87.4845 101.769 87.8786C101.769 88.1741 101.769 88.8638 101.966 89.4549C102.262 90.5386 103.05 91.4252 103.936 92.0163C104.33 92.3119 104.823 92.5089 105.316 92.6075C105.808 92.706 106.301 92.706 106.596 92.706C107.976 92.6075 109.158 92.5089 110.242 92.5089C112.113 92.1149 113.296 91.8193 113.394 91.6223Z" fill="#00AA72"/>
<path d="M45.8116 66.4998C46.8953 67.1895 48.176 67.3865 49.2597 67.288C51.1316 66.9924 52.7079 65.6132 53.2005 63.8398C53.5945 62.5591 53.2005 61.771 53.0034 61.771C52.8064 61.771 52.6094 62.5591 52.1168 63.4458C51.6242 64.3324 50.4419 65.3176 49.0627 65.2191C48.3731 65.2191 47.7819 64.9235 47.1908 64.5295C46.6982 64.1354 46.3042 63.5443 46.1071 62.8547C45.7131 61.5739 46.3042 60.2932 46.8953 59.7021C47.7819 58.7169 49.1612 58.5198 50.3434 59.2095C51.1316 59.7021 51.5256 60.3917 51.8212 60.7858C52.1168 61.2784 52.2153 61.4754 52.4123 61.6724C52.6094 61.771 52.8064 61.8695 53.0034 61.8695C53.2005 61.8695 53.3975 61.8695 53.5945 61.6724C53.7916 61.4754 53.8901 61.0813 53.8901 60.2932C53.7916 59.505 53.3975 58.2243 51.9197 57.0421C51.1316 56.451 50.0479 56.0569 48.7671 56.0569C47.4864 56.0569 45.9101 56.5495 44.7279 57.8302C43.1516 59.505 42.7575 61.8695 43.4471 63.9384C43.9397 64.825 44.8264 65.8102 45.8116 66.4998Z" fill="#00AA72"/>
<path d="M47.9778 13.3985C59.9971 13.3985 60.1941 12.5118 60.1941 11.4281C60.1941 10.3444 59.8985 9.45776 47.9778 9.45776C20.2941 9.45776 20.3926 13.3985 47.9778 13.3985Z" fill="#00AA72"/>
</svg>
