<svg width="32" height="32" viewBox="0 0 32 32" fill="none" xmlns="http://www.w3.org/2000/svg">
<g clip-path="url(#clip0_10746_5747)">
<path d="M15.986 32C11.847 32 7.75218 30.397 4.66848 27.3133C-0.300315 22.3445 -1.43642 14.5628 1.90548 8.38955C2.63318 7.03975 3.56308 5.79415 4.66848 4.68875C4.96588 4.39135 5.44768 4.39135 5.74508 4.68875C6.04248 4.98615 6.04248 5.46795 5.74508 5.76535C4.74428 6.76615 3.90308 7.89235 3.24538 9.11325C0.220685 14.6996 1.24928 21.7408 5.74508 26.2367C10.4155 30.9071 17.6525 31.8231 23.3434 28.4663C23.7053 28.2546 24.1717 28.3731 24.3858 28.7355C24.5994 29.0974 24.479 29.5643 24.1166 29.7779C21.5846 31.2714 18.7752 32 15.986 32Z" fill="#FAFAFA"/>
<path d="M26.7555 27.5363C26.5607 27.5363 26.3659 27.4619 26.2171 27.3132C25.9198 27.0163 25.9198 26.534 26.2171 26.2366C27.2274 25.2259 28.0755 24.0823 28.7383 22.8382C31.7764 17.171 30.7626 10.3107 26.2171 5.76529C21.5507 1.10089 14.3286 0.17599 8.64955 3.52089C8.28865 3.73449 7.82175 3.61409 7.60715 3.25079C7.39405 2.88849 7.51495 2.42199 7.87725 2.20839C14.1527 -1.48711 22.1367 -0.46741 27.2938 4.68869C32.3176 9.71249 33.4377 17.2945 30.0814 23.556C29.3489 24.931 28.4104 26.196 27.2938 27.3133C27.1451 27.462 26.9503 27.5363 26.7555 27.5363Z" fill="#FAFAFA"/>
<path d="M26.7555 27.5362C26.5835 27.5362 26.416 27.4782 26.2801 27.3696C26.1225 27.2437 26.0214 27.0598 25.9986 26.859L25.6571 23.7996C25.6105 23.3817 25.9119 23.0055 26.3297 22.9584C26.7396 22.9163 27.1238 23.2127 27.1709 23.631L27.4277 25.9335L29.7302 25.6762C30.1496 25.6271 30.5253 25.93 30.5714 26.3479C30.6185 26.7658 30.3176 27.1425 29.8997 27.1891L26.8403 27.5311C26.812 27.5346 26.7838 27.5362 26.7555 27.5362Z" fill="#FAFAFA"/>
<path d="M5.49652 9.05316C5.10842 9.05316 4.77682 8.75776 4.73962 8.36366L4.52052 6.05676L2.21412 6.27586C1.79872 6.31206 1.42352 6.00866 1.38432 5.58986C1.34462 5.17146 1.65152 4.79976 2.07032 4.76006L5.13462 4.46906C5.33732 4.44876 5.53611 4.51216 5.69181 4.64006C5.84741 4.76896 5.94562 4.95386 5.96442 5.15506L6.25541 8.21986C6.29511 8.63826 5.98821 9.00996 5.56942 9.04966C5.54511 9.05216 5.52082 9.05316 5.49652 9.05316Z" fill="#FAFAFA"/>
<path d="M15.9861 6.85144C10.9408 6.85144 6.84961 10.9425 6.84961 15.9879C6.84961 21.0333 10.9407 25.1244 15.9861 25.1244C21.0315 25.1244 25.1226 21.0333 25.1226 15.9879C25.1226 10.9425 21.0315 6.85144 15.9861 6.85144ZM17.9555 17.9573C17.8134 18.1096 17.6205 18.1806 17.4175 18.1806C17.2246 18.1806 17.0317 18.1096 16.8794 17.9573L15.448 16.5259C15.3059 16.3838 15.2246 16.1909 15.2246 15.9878V11.4297C15.2246 11.0134 15.5698 10.6683 15.986 10.6683C16.4022 10.6683 16.7474 11.0134 16.7474 11.4297V15.6731L17.9554 16.8811C18.2599 17.1856 18.26 17.6629 17.9555 17.9573Z" fill="#FAFAFA"/>
</g>
<defs>
<clipPath id="clip0_10746_5747">
<rect width="32" height="32" fill="white"/>
</clipPath>
</defs>
</svg>
