<svg width="24" height="24" viewBox="0 0 24 24" fill="none" xmlns="http://www.w3.org/2000/svg">
<path d="M18.501 23.991C18.141 23.991 17.853 23.785 17.853 23.785C16.715 23.216 13 21.081 13 17.513V14.326C13 13.031 13.826 11.887 15.056 11.478L17.556 10.649C18.165 10.448 18.836 10.448 19.444 10.649L21.945 11.478C23.174 11.886 24.001 13.03 24.001 14.326V17.513C24.001 21.544 20.238 23.371 19.084 23.835C19.084 23.835 18.862 23.991 18.502 23.991H18.501ZM13 2H12.829C12.416 0.836 11.304 0 10 0H8C6.696 0 5.584 0.836 5.171 2H5C2.243 2 0 4.243 0 7V19C0 21.757 2.243 24 5 24H13C13.447 24 13.873 23.922 14.286 23.811C12.661 22.445 11 20.358 11 17.512V16.999H5C4.448 16.999 4 16.551 4 15.999C4 15.447 4.448 14.999 5 14.999H11V14.325C11 13.867 11.074 13.425 11.191 12.999H5C4.448 12.999 4 12.551 4 11.999C4 11.447 4.448 10.999 5 10.999H12.289C12.856 10.365 13.577 9.861 14.426 9.579L16.927 8.749C17.276 8.634 17.637 8.573 18.001 8.537V6.999C18.001 4.242 15.758 1.999 13.001 1.999L13 2ZM13 9H5C4.448 9 4 8.552 4 8C4 7.448 4.448 7 5 7H13C13.552 7 14 7.448 14 8C14 8.552 13.552 9 13 9Z" fill="#FAFAFA"/>
</svg>
