<svg width="167" height="167" viewBox="0 0 167 167" fill="none" xmlns="http://www.w3.org/2000/svg">
<g clip-path="url(#clip0_10709_5890)">
<path d="M157.082 127.958C156.736 127.276 155.357 126.109 146.793 118.015C147.024 117.924 148.983 118.033 148.92 116.198C147.929 87.1173 144.612 57.2072 143.625 28.254C143.594 27.3496 142.873 26.6201 141.968 26.5806C14.2214 22.3817 18.5239 24.4592 14.669 24.4307C13.7061 24.4894 12.9747 25.322 13.0447 26.2872C11.84 27.337 9.52525 29.6885 8.38086 30.8511C9.8225 60.7185 10.309 87.2511 11.2497 117.139C19.3906 124.611 18.5694 123.989 19.2601 123.956C72.4357 121.248 69.3184 121.445 69.6035 121.431C69.5897 122.873 69.5729 124.318 69.551 125.77C58.9094 127.591 53.6217 130.163 53.8595 133.417C54.2877 139.729 82.4796 141.12 87.1169 140.923C93.7504 140.641 108.598 139.22 113.506 136.57C116.49 134.958 118.009 131.235 115.168 128.404C111.077 124.325 98.6004 124.047 92.8145 123.97C92.5589 122.792 92.3076 121.614 92.0585 120.437L119.693 119.223C145.281 142.418 144.053 141.513 144.297 141.655C147.867 143.737 152.73 141.95 155.534 139.054C158.263 136.235 158.915 131.568 157.082 127.958ZM93.7298 128.22L93.5641 127.453C102.947 127.656 107.412 129.019 108.439 129.836C107.107 131.585 98.1087 134.972 83.7346 135.94C68.8219 136.926 58.7024 134.611 57.3937 133.263C58.0426 132.551 61.1605 130.793 69.5169 129.296L69.5107 130.063C69.5107 132.357 72.9794 132.358 72.9794 130.063C73.0853 120.641 73.0573 123.113 73.0747 121.27L88.5445 120.591C89.5481 125.344 89.2983 124.124 90.3378 128.945C90.8172 131.192 94.2077 130.458 93.7298 128.22ZM20.9222 120.416C20.8533 87.146 18.8717 57.5645 16.6359 27.7865C21.9178 27.8304 11.4728 25.7703 140.215 29.9737C141.247 57.8538 144.329 86.3132 145.38 114.607L143.29 114.7L137.89 109.589C138.384 109.558 138.872 109.532 139.367 109.501C140.322 109.44 141.048 108.616 140.987 107.659C138.529 69.3825 135.031 37.3602 135.023 35.7527C135.018 34.7974 134.243 34.0274 133.288 34.0274C133.285 34.0274 133.283 34.0274 133.279 34.0274C97.5892 34.2055 62.006 32.6972 24.8912 32.372C24.8866 32.372 24.881 32.372 24.8765 32.372C23.9257 32.372 23.15 33.1387 23.1421 34.0917C23.1232 36.1959 26.8595 65.443 26.6617 111.999C26.6558 113.17 27.2531 114.295 28.3591 114.295C45.8123 114.295 91.0874 112.22 110.815 111.159C112.505 112.699 114.258 114.293 116.041 115.91C65.9761 118.088 71.038 117.835 20.9222 120.416ZM95.3309 83.2594C93.9086 82.9804 92.7922 84.4635 93.4498 85.7492C94.2422 87.3036 95.7764 90.854 97.1984 94.1943C96.2739 94.1994 95.3496 94.2044 94.4252 94.2095C92.8633 94.2181 92.8599 96.6462 94.4252 96.6376C99.1199 96.6116 97.8792 96.6256 98.2162 96.5919C98.8095 97.9908 99.6899 100.079 100.186 101.208C100.331 101.537 100.564 101.796 100.846 101.974C102.682 103.697 104.855 105.703 107.222 107.873C83.4425 109.126 57.0158 109.99 30.1205 110.774C30.1869 85.8624 29.0607 60.6822 26.779 35.8636C63.423 36.225 97.183 37.6237 131.499 37.4958C131.499 37.4982 131.499 37.5018 131.499 37.5042C133.691 59.7291 135.83 82.1901 137.427 106.141C136.427 106.203 135.428 106.265 134.437 106.319C126.186 98.5095 119.482 92.1508 113.887 86.9034C113.606 86.5113 113.178 86.228 112.659 86.1783C111.192 86.0383 98.3559 83.8568 95.3309 83.2594ZM109.406 89.2017C109.378 90.076 109.342 90.9683 109.017 91.6016C108.806 92.016 108.411 92.2554 108.256 92.2147C107.171 91.9565 106.116 92.7895 106.126 93.9175C106.144 95.9445 104.569 97.6701 102.494 97.7953C102.028 96.7002 101.893 96.3766 100.921 94.0849C101.493 93.7675 104.748 90.0352 104.87 88.4558C106.526 88.734 108.113 88.9958 109.406 89.2017ZM140.044 133.034C130.369 124.16 113.46 108.979 104.697 100.823C106.569 100.158 107.904 98.9634 108.743 97.368C123.436 112.108 142.331 129.024 144.327 130.618C143.05 131.651 141.612 132.462 140.044 133.034ZM146.719 128.194C145.653 126.894 130.356 114.174 110.926 94.6462C112.163 93.5958 112.625 92.2641 112.789 90.631C122.148 99.428 139.489 115.905 148.831 124.707C148.248 125.982 147.544 127.152 146.719 128.194Z" fill="#00AA72"/>
<path d="M50.0739 61.909C50.0404 60.3642 50.007 58.8193 49.9735 57.2745C49.9396 55.7143 47.5114 55.7088 47.5453 57.2745C47.5789 58.8193 47.6123 60.3642 47.6458 61.909C47.6796 63.4692 50.1079 63.4747 50.0739 61.909Z" fill="#00AA72"/>
<path d="M50.4285 69.0785C50.6014 67.5172 50.5238 65.9992 50.2635 64.4527C50.0047 62.9151 47.6645 63.5672 47.9221 65.0981C48.145 66.4222 48.1479 67.7466 48.0004 69.0785C47.8287 70.6293 50.2582 70.6171 50.4285 69.0785Z" fill="#00AA72"/>
<path d="M50.7323 76.1391C50.6814 74.7418 50.6304 73.3446 50.5795 71.9473C50.5226 70.3895 48.0942 70.382 48.1514 71.9473C48.2023 73.3446 48.2533 74.7418 48.3042 76.1391C48.3611 77.6969 50.7895 77.7044 50.7323 76.1391Z" fill="#00AA72"/>
<path d="M50.8589 83.3114C50.8514 81.9507 50.8439 80.5898 50.8363 79.2288C50.8279 77.6669 48.3996 77.6636 48.4082 79.2288C48.4157 80.5898 48.4232 81.9507 48.4308 83.3114C48.4393 84.8735 50.8675 84.8767 50.8589 83.3114Z" fill="#00AA72"/>
<path d="M57.0602 95.7683C56.9481 95.77 56.8359 95.7717 56.7239 95.7734L56.7075 92.7827C56.7033 91.9269 56.2051 91.2321 54.963 91.0573L51.3787 91.0774C51.3052 89.6644 51.2318 88.2517 51.1583 86.8388C51.0774 85.2841 48.6489 85.2745 48.7302 86.8388C48.8039 88.2562 48.8775 89.6734 48.9514 91.0909L46.8805 91.1025C45.923 91.1081 45.1506 91.8884 45.1563 92.8459L45.2003 100.861C45.205 101.819 45.9851 102.586 46.9347 102.586H46.9449L55.0273 102.541C55.9848 102.535 56.7572 101.755 56.7515 100.797L56.7373 98.2013C56.845 98.1996 56.9525 98.1981 57.0602 98.1964C58.6211 98.1725 58.6258 95.7443 57.0602 95.7683Z" fill="#00AA72"/>
<path d="M66.9185 95.6708C65.1223 95.6399 63.3261 95.609 61.5298 95.5781C59.9668 95.5513 59.9665 97.9794 61.5298 98.0063C63.3261 98.0371 65.1223 98.068 66.9185 98.0989C68.4816 98.1259 68.4818 95.6977 66.9185 95.6708Z" fill="#00AA72"/>
<path d="M74.599 95.1473C73.185 95.2212 71.771 95.2952 70.357 95.369C68.8025 95.4505 68.7929 97.879 70.357 97.7973C71.771 97.7233 73.185 97.6493 74.599 97.5754C76.1537 97.4941 76.1633 95.0654 74.599 95.1473Z" fill="#00AA72"/>
<path d="M82.7361 94.7628C81.0546 94.8002 79.3732 94.8376 77.6917 94.875C76.1315 94.9098 76.126 97.338 77.6917 97.3031C79.3732 97.2657 81.0546 97.2283 82.7361 97.1911C84.2963 97.1563 84.3018 94.7281 82.7361 94.7628Z" fill="#00AA72"/>
<path d="M90.0697 94.3435C88.9615 94.3497 87.8532 94.3558 86.745 94.3619C85.1831 94.3705 85.1797 96.7986 86.745 96.79C87.8532 96.7839 88.9615 96.7778 90.0697 96.7718C91.6316 96.7632 91.635 94.3349 90.0697 94.3435Z" fill="#00AA72"/>
<path d="M109.176 79.5565C109.183 80.8438 109.19 82.1311 109.197 83.4184C109.206 84.9804 111.634 84.9837 111.625 83.4184C111.618 82.1311 111.611 80.8438 111.604 79.5565C111.595 77.9945 109.167 77.9913 109.176 79.5565Z" fill="#00AA72"/>
<path d="M111.014 76.6907C111.008 75.5137 111.001 74.3368 110.995 73.1598C110.986 71.5978 108.558 71.5945 108.566 73.1598C108.573 74.3368 108.579 75.5137 108.586 76.6907C108.595 78.2527 111.023 78.2559 111.014 76.6907Z" fill="#00AA72"/>
<path d="M110.862 69.9607C110.856 68.747 110.849 67.5333 110.842 66.3194C110.834 64.7575 108.405 64.7541 108.414 66.3194C108.421 67.5333 108.427 68.747 108.434 69.9607C108.443 71.5227 110.871 71.5259 110.862 69.9607Z" fill="#00AA72"/>
<path d="M110.254 63.3432C110.247 62.2031 110.241 61.0629 110.235 59.9227C110.226 58.3607 107.798 58.3575 107.807 59.9227C107.813 61.0629 107.819 62.2031 107.826 63.3432C107.834 64.9053 110.262 64.9085 110.254 63.3432Z" fill="#00AA72"/>
<path d="M64.1345 48.0318C62.797 48.0391 61.4594 48.0466 60.1219 48.0539C58.56 48.0625 58.5566 50.4906 60.1219 50.482C61.4594 50.4747 62.797 50.4673 64.1345 50.46C65.6965 50.4514 65.6998 48.0232 64.1345 48.0318Z" fill="#00AA72"/>
<path d="M67.3407 50.1111C68.5254 50.1046 69.71 50.0981 70.8947 50.0914C72.4567 50.0828 72.4601 47.6547 70.8947 47.6634C69.71 47.6698 68.5254 47.6765 67.3407 47.683C65.7788 47.6916 65.7754 50.1197 67.3407 50.1111Z" fill="#00AA72"/>
<path d="M74.2196 50.1834C75.4043 50.1769 76.5889 50.1705 77.7736 50.164C79.3356 50.1553 79.3389 47.7273 77.7736 47.7359C76.5889 47.7424 75.4043 47.7488 74.2196 47.7553C72.6577 47.764 72.6543 50.1922 74.2196 50.1834Z" fill="#00AA72"/>
<path d="M81.4423 49.9231C82.5886 49.9169 83.7352 49.9105 84.8817 49.9042C86.4436 49.8956 86.447 47.4675 84.8817 47.4761C83.7352 47.4824 82.5886 47.4887 81.4423 47.495C79.8802 47.5036 79.877 49.9317 81.4423 49.9231Z" fill="#00AA72"/>
<path d="M78.3392 49.7947C124.423 49.5182 161.778 48.7505 161.774 48.0799C161.77 47.4094 124.408 47.09 78.3246 47.3665C32.241 47.643 -5.11393 48.4107 -5.1099 49.0812C-5.10588 49.7518 32.2556 50.0712 78.3392 49.7947Z" fill="#00AA72"/>
<path d="M113.021 44.8039C113.016 43.7409 112.037 42.9919 111.277 43.0786L103.194 43.1238C102.237 43.1294 101.464 43.9097 101.47 44.8672L101.481 46.833C100.036 46.8409 98.5906 46.849 97.1455 46.857C95.5834 46.8655 95.58 49.2937 97.1455 49.2851C98.595 49.2772 100.045 49.269 101.494 49.2611L101.514 52.8819C101.519 53.8401 102.299 54.6072 103.249 54.6072H103.259L107.776 54.582C107.78 55.3324 107.784 56.0827 107.788 56.8332C107.797 58.3952 110.225 58.3985 110.217 56.8332C110.212 56.0782 110.208 55.3234 110.204 54.5684L111.341 54.5621C112.299 54.5564 113.071 53.7762 113.065 52.8187L113.021 44.8039Z" fill="#00AA72"/>
<path d="M45.2191 55.4225L53.3016 55.3785C54.2555 55.3738 55.0316 54.5962 55.0269 53.6351L55.011 50.7309C55.6059 50.7277 56.2008 50.7243 56.7959 50.721C58.3578 50.7124 58.3611 48.2843 56.7959 48.2929C56.1964 48.2963 55.597 48.2994 54.9975 48.3028L54.9829 45.6204C54.9772 44.6651 54.2026 43.895 53.2485 43.895H53.2395L45.157 43.9391C44.203 43.9437 43.4269 44.7214 43.4317 45.6825L43.4757 53.6972C43.4813 54.6524 44.2559 55.4225 45.2101 55.4225H45.2191Z" fill="#00AA72"/>
<path d="M89.6334 67.1272L84.0916 67.1307C83.9761 62.9668 80.5814 59.6228 76.39 59.6252C72.1272 59.6276 68.6734 63.0854 68.6758 67.3482C68.6782 71.3088 71.6745 74.5333 75.5167 74.9738L75.5201 81.2562C75.5201 82.2124 76.2977 82.9895 77.2545 82.9895L89.6413 82.9816C90.5988 82.9805 91.3745 82.2036 91.3745 81.2461L91.3678 68.8604C91.3678 67.9043 90.5902 67.1272 89.6334 67.1272ZM78.9877 79.5196L78.9852 74.5838C80.9272 73.888 82.5022 72.453 83.3694 70.5999L87.9001 70.5971L87.9046 79.514L78.9877 79.5196Z" fill="#00AA72"/>
</g>
<defs>
<clipPath id="clip0_10709_5890">
<rect width="166.5" height="166.5" fill="white"/>
</clipPath>
</defs>
</svg>
