<svg width="77" height="79" viewBox="0 0 77 79" fill="none" xmlns="http://www.w3.org/2000/svg">
<path d="M49.9926 51.7492C49.9926 48.0074 49.9926 44.2401 49.9926 40.4983C49.9926 38.9456 50.4763 38.4619 52.0036 38.4619H68.1163C69.4908 38.4619 70.0508 39.0219 70.0508 40.3965V59.1056C70.0508 59.7419 70.1526 59.9965 70.8654 59.971C72.1636 59.8946 74.1745 59.9456 75.4726 59.9456C75.8799 59.9456 76.2363 59.9965 76.4145 60.4037C76.5926 60.811 76.4399 61.1165 76.1854 61.4219C72.6981 65.5201 64.3745 74.251 60.8872 78.3492C60.3526 78.9856 59.9454 78.9856 59.3854 78.3237C55.9236 74.251 47.829 65.5456 44.3672 61.4728C44.0872 61.1419 43.8836 60.811 44.1126 60.3783C44.3417 59.9456 44.6726 59.9456 45.0799 59.9456C46.3781 59.9456 47.9054 59.8946 49.2036 59.971C49.9163 59.9965 50.0436 59.7419 50.0436 59.1056C49.9926 55.2619 49.9926 55.5928 49.9926 51.7492Z" fill="#00AA72"/>
<path d="M33.3196 55.9745C32.9633 55.7455 32.7851 55.3127 32.836 54.9055C32.8615 53.76 32.836 52.64 32.8615 51.4945C32.8615 51.1891 32.7596 51.0873 32.4796 51.0618C30.0869 50.7055 27.8215 49.7636 25.8869 48.3382C25.3269 47.9564 24.8178 47.5236 24.3596 47.04C24.0033 46.6327 23.9524 46.3018 24.2833 45.8691C25.0215 44.8764 25.7596 43.9091 26.5233 42.9418C26.9305 42.4327 27.3378 42.3818 27.8469 42.8145C29.4251 44.24 31.3342 45.2327 33.396 45.6909C35.1269 46.0473 36.7815 45.9455 38.3596 45.0036C40.0142 44.0109 40.8287 41.3891 38.6651 39.7091C37.5451 38.8436 36.2215 38.3345 34.8978 37.7745C33.2433 37.0873 31.5633 36.4764 29.9851 35.6364C28.4069 34.7964 27.0069 33.7782 25.9633 32.3018C24.8687 30.7491 24.4105 28.8655 24.6396 26.9818C25.0469 23.3164 27.2615 21.0764 30.4687 19.6509C31.1305 19.3709 31.8178 19.1673 32.5305 19.04C32.8105 18.9891 32.836 18.8618 32.836 18.6327C32.836 17.4109 32.836 16.1636 32.836 14.9418C32.836 14.28 33.116 14 33.7778 14H36.6287C37.2142 14 37.4687 14.2545 37.4687 14.84V18.5309C37.4687 18.7855 37.5451 18.8873 37.7996 18.9127C40.2178 19.1927 42.5087 20.16 44.4178 21.6618C44.5196 21.7382 44.6215 21.84 44.7233 21.9418C45.156 22.3491 45.2069 22.5782 44.9015 23.0873C44.316 24.1564 43.7305 25.2 43.1451 26.2691C42.8142 26.8545 42.356 26.9564 41.796 26.5236C41.0578 25.9382 40.2687 25.4291 39.4033 25.0218C37.5451 24.1564 35.636 23.7745 33.6251 24.3091C32.276 24.6655 31.1051 25.3018 30.6469 26.7527C30.2651 27.9491 30.6469 29.0945 31.5887 29.9091C32.8105 31.0036 34.3124 31.5636 35.8142 32.1491C37.6215 32.8618 39.4287 33.5491 41.1596 34.4655C42.3815 35.1018 43.4505 35.9673 44.316 37.0109C45.2578 38.1564 45.6905 39.5309 45.8178 41.0073C45.8178 41.16 45.8433 41.3382 45.8433 41.4909C45.9196 41.6436 45.8178 41.8473 45.9196 42V42.2545C45.8178 42.84 45.8687 43.4509 45.716 44.0364C45.3342 45.5127 44.6215 46.8618 43.5778 48.0073C42.076 49.6873 40.1669 50.6545 38.0033 51.1382C37.7487 51.1382 37.5705 51.3673 37.5705 51.6218V51.6727C37.596 52.7927 37.5705 53.9382 37.5705 55.0836C37.5705 55.5164 37.4178 55.8473 36.9596 55.9745H33.3196Z" fill="#00AA72"/>
<path d="M37.3927 62.0073C36.6036 62.0837 35.7891 62.1091 34.9745 62.1091C20.0073 62.1091 7.86545 49.9673 7.86545 35C7.86545 20.0328 20.0073 7.89094 34.9745 7.89094C49.9418 7.89094 62.0836 20.0328 62.0836 35H69.9745V34.9746C69.9491 15.9346 54.0145 3.09982e-05 35 3.09982e-05C15.68 -0.0254235 0 15.6291 0 34.9491V35C0 54.04 15.96 69.9746 34.9745 69.9746C38.08 69.9746 41.1855 69.5673 44.1891 68.7528L37.3927 62.0073Z" fill="#00AA72"/>
</svg>
