<svg width="45" height="59" viewBox="0 0 45 59" fill="none" xmlns="http://www.w3.org/2000/svg">
<path d="M7.05409 38.2662C4.46485 35.8745 2.48988 32.8942 1.29631 29.5776C0.102747 26.261 -0.27428 22.7057 0.19714 19.2125C0.663271 15.6705 1.98131 12.2944 4.03828 9.37344C6.09526 6.45251 8.82982 4.07391 12.0076 2.44151C15.1854 0.809104 18.7116 -0.0284144 22.284 0.00073568C25.8564 0.0298857 29.3685 0.924835 32.5192 2.60888C35.6699 4.29292 38.3653 6.71583 40.3743 9.66994C42.3834 12.624 43.6461 16.0212 44.0544 19.5704C44.4627 23.1195 44.0043 26.7147 42.7185 30.0478C41.4327 33.381 39.3578 36.3526 36.6718 38.7081C34.9422 40.1951 33.5993 42.0797 32.7585 44.2H24.5635V26.5629C25.9946 26.057 27.2344 25.1212 28.1133 23.8837C28.9922 22.6462 29.4673 21.1674 29.4736 19.6495C29.4736 18.9984 29.215 18.3739 28.7545 17.9135C28.2941 17.4531 27.6697 17.1945 27.0186 17.1945C26.3674 17.1945 25.743 17.4531 25.2826 17.9135C24.8222 18.3739 24.5635 18.9984 24.5635 19.6495C24.5635 20.3006 24.3049 20.9251 23.8444 21.3855C23.384 21.8459 22.7596 22.1046 22.1085 22.1046C21.4573 22.1046 20.8329 21.8459 20.3725 21.3855C19.9121 20.9251 19.6534 20.3006 19.6534 19.6495C19.6534 18.9984 19.3948 18.3739 18.9343 17.9135C18.4739 17.4531 17.8495 17.1945 17.1984 17.1945C16.5472 17.1945 15.9228 17.4531 15.4624 17.9135C15.002 18.3739 14.7433 18.9984 14.7433 19.6495C14.7496 21.1674 15.2247 22.6462 16.1036 23.8837C16.9825 25.1212 18.2223 26.057 19.6534 26.5629V44.2H11.2154C10.2768 41.9427 8.85664 39.9176 7.05409 38.2662ZM12.2883 49.1101V49.8712C12.2909 52.273 13.2461 54.5757 14.9445 56.2741C16.6428 57.9724 18.9456 58.9277 21.3474 58.9303H22.8695C25.2714 58.9277 27.5741 57.9724 29.2724 56.2741C30.9708 54.5757 31.9261 52.273 31.9287 49.8712V49.1101H12.2883Z" fill="#00AA72"/>
</svg>
