<svg width="40" height="41" viewBox="0 0 40 41" fill="none" xmlns="http://www.w3.org/2000/svg">
<path fill-rule="evenodd" clip-rule="evenodd" d="M14.276 19.9745C14.276 23.1707 16.8381 25.7592 20.0017 25.7592C23.1654 25.7592 25.7275 23.1707 25.7275 19.9745H14.276ZM38.2663 15.8851H28.7444C28.3039 14.3587 27.4878 13.0093 26.4116 11.9338C27.7075 10.4471 29.6055 9.50898 31.7204 9.50898C35.1973 9.50898 38.088 12.0441 38.6808 15.3846C38.7274 15.6469 38.5301 15.8851 38.2663 15.8851ZM38.7515 19.9745V22.538L35.6445 23.7463C35.2505 25.4189 34.5942 27.0163 33.7019 28.4802L35.0542 31.5564L31.4657 35.1821L28.4218 33.8162C26.9726 34.718 25.3908 35.3811 23.7349 35.7791L22.5392 38.9175H17.4643L16.2683 35.7784C14.6127 35.3804 13.0317 34.7173 11.5826 33.8158L8.53781 35.1821L4.94918 31.5565L6.30112 28.4813C5.40847 27.0171 4.75223 25.419 4.35817 23.7461L1.25195 22.5381V19.9745H11.1511C11.1511 24.9133 15.1132 28.9163 20.0017 28.9163C24.8901 28.9163 28.8524 24.9134 28.8524 19.9745H38.7515ZM20.0019 1.71508C22.196 1.71508 23.9747 3.51215 23.9747 5.72881C23.9747 7.94546 22.1959 9.74253 20.0019 9.74253C17.8078 9.74253 16.0291 7.94546 16.0291 5.72881C16.0291 3.51215 17.8077 1.71508 20.0019 1.71508ZM12.7288 17.6163L27.2748 17.6162C27.5679 17.6162 27.7871 17.3516 27.7354 17.0601C27.0701 13.3125 23.8289 10.5319 20.0018 10.5319C16.1387 10.5319 12.927 13.3487 12.2682 17.0601C12.2165 17.3517 12.4357 17.6163 12.7288 17.6163ZM8.2832 1.49463C10.2579 1.49463 11.8589 3.11197 11.8589 5.10716C11.8589 7.10226 10.2579 8.71968 8.2832 8.71968C6.30838 8.71968 4.70754 7.10226 4.70754 5.10716C4.70754 3.11197 6.30838 1.49463 8.2832 1.49463ZM1.73726 15.8851C1.47344 15.8851 1.27617 15.6469 1.32273 15.3845C1.91562 12.044 4.80629 9.5089 8.2832 9.5089C10.3982 9.5089 12.2961 10.447 13.592 11.9337C12.5157 13.0093 11.6996 14.3586 11.2591 15.885L1.73726 15.8851ZM31.7205 1.49463C33.6952 1.49463 35.2961 3.11197 35.2961 5.10716C35.2961 7.10226 33.6952 8.71968 31.7205 8.71968C29.7456 8.71968 28.1448 7.10226 28.1448 5.10716C28.1448 3.11197 29.7457 1.49463 31.7205 1.49463Z" fill="#FAFAFA"/>
</svg>
