<svg width="44" height="44" viewBox="0 0 44 44" fill="none" xmlns="http://www.w3.org/2000/svg">
<g clip-path="url(#clip0_10773_4339)">
<path d="M21.7531 36.0352C19.5857 36.0352 17.8223 37.8167 17.8223 40.0066C18.0382 45.2753 25.4689 45.2738 25.6841 40.0066C25.684 37.8167 23.9206 36.0352 21.7531 36.0352Z" fill="#FAFAFA"/>
<path d="M12.3703 0C10.2029 0 8.43945 1.78158 8.43945 3.9714C8.65539 9.24004 16.0861 9.2385 16.3013 3.9714C16.3013 1.78158 14.5378 0 12.3703 0Z" fill="#FAFAFA"/>
<path d="M31.1379 0C28.9704 0 27.207 1.78158 27.207 3.9714C27.423 9.24004 34.8537 9.2385 35.0689 3.9714C35.0688 1.78158 33.3054 0 31.1379 0Z" fill="#FAFAFA"/>
<path d="M16.5458 27.3166V33.9938H26.9575V27.3166L37.7123 18.1631H5.79102L16.5458 27.3166Z" fill="#FAFAFA"/>
<path d="M4.98438 12.9316H38.5249V15.5863H4.98438V12.9316Z" fill="#FAFAFA"/>
<path d="M25.6855 10.0056C25.6855 7.81581 23.9221 6.03423 21.7546 6.03423C19.465 6.02229 17.6265 8.05313 17.839 10.3553H25.6702C25.6803 10.2394 25.6855 10.1227 25.6855 10.0056Z" fill="#FAFAFA"/>
</g>
<defs>
<clipPath id="clip0_10773_4339">
<rect width="43.5082" height="43.9568" fill="white"/>
</clipPath>
</defs>
</svg>
