<svg width="19" height="19" viewBox="0 0 19 19" fill="none" xmlns="http://www.w3.org/2000/svg">
<path d="M9.1365 0C4.0912 0 0 4.0911 0 9.1365C0 14.1819 4.0911 18.273 9.1365 18.273C14.1819 18.273 18.273 14.1819 18.273 9.1365C18.273 4.0911 14.1819 0 9.1365 0ZM11.1059 11.1059C10.9638 11.2582 10.7709 11.3292 10.5679 11.3292C10.375 11.3292 10.1821 11.2582 10.0298 11.1059L8.5984 9.6745C8.4563 9.5324 8.375 9.3395 8.375 9.1364V4.5783C8.375 4.162 8.7202 3.8169 9.1364 3.8169C9.5526 3.8169 9.8978 4.162 9.8978 4.5783V8.8217L11.1058 10.0297C11.4103 10.3342 11.4104 10.8115 11.1059 11.1059Z" fill="#00AA72"/>
</svg>
