<svg width="45" height="45" viewBox="0 0 45 45" fill="none" xmlns="http://www.w3.org/2000/svg">
<g clip-path="url(#clip0_11819_4193)">
<path d="M29.1579 24.3677L25.3891 28.1493C23.8607 29.6829 21.1716 29.716 19.6103 28.1493L15.8413 24.3677L2.30469 37.9482C2.80856 38.1812 3.36412 38.3202 3.95475 38.3202H41.0446C41.6352 38.3202 42.1906 38.1814 42.6943 37.9483L29.1579 24.3677Z" fill="#00AA72"/>
<path d="M41.0444 6.67969H3.95457C3.36395 6.67969 2.80839 6.81873 2.30469 7.05173L16.7695 21.5645C16.7704 21.5655 16.7716 21.5656 16.7725 21.5666C16.7735 21.5676 16.7737 21.5689 16.7737 21.5689L21.477 26.2877C21.9765 26.7873 23.0226 26.7873 23.5222 26.2877L28.2245 21.5697C28.2245 21.5697 28.2257 21.5676 28.2266 21.5666C28.2266 21.5666 28.2287 21.5655 28.2297 21.5645L42.6941 7.05164C42.1904 6.81855 41.635 6.67969 41.0444 6.67969Z" fill="#00AA72"/>
<path d="M0.420645 8.89551C0.159961 9.42268 0 10.0079 0 10.6347V34.3652C0 34.992 0.159785 35.5772 0.420557 36.1043L13.9806 22.5004L0.420645 8.89551Z" fill="#00AA72"/>
<path d="M44.5794 8.89551L31.0195 22.5005L44.5794 36.1047C44.8401 35.5775 45 34.9923 45 34.3653V10.6349C45 10.0079 44.8401 9.42268 44.5794 8.89551Z" fill="#00AA72"/>
</g>
<defs>
<clipPath id="clip0_11819_4193">
<rect width="45" height="45" fill="white"/>
</clipPath>
</defs>
</svg>
