<svg width="32" height="32" viewBox="0 0 32 32" fill="none" xmlns="http://www.w3.org/2000/svg">
<path fill-rule="evenodd" clip-rule="evenodd" d="M31.0976 15.5485C31.0976 19.7015 29.4802 23.606 26.5434 26.5428C23.6061 29.4802 19.7016 31.0979 15.5491 31.0979C15.0297 31.0979 14.6086 30.6768 14.6086 30.1574C14.6086 29.638 15.0297 29.217 15.5491 29.217C19.1991 29.217 22.6313 27.7949 25.2134 25.2128C30.5423 19.8839 30.5423 11.2131 25.2134 5.8842C19.8839 0.554814 11.2124 0.554876 5.88301 5.8842C5.84213 5.92508 5.80194 5.96658 5.76156 6.00803H6.949C7.46839 6.00803 7.88946 6.42911 7.88946 6.9485C7.88946 7.46788 7.46839 7.88896 6.949 7.88896H3.4887C2.96931 7.88896 2.54823 7.46788 2.54823 6.9485V3.4882C2.54823 2.96881 2.96931 2.54773 3.4887 2.54773C4.00809 2.54773 4.42917 2.96881 4.42917 3.4882V4.6804C4.47036 4.63827 4.5113 4.59582 4.55293 4.55419C7.48983 1.61742 11.3947 0 15.5483 0C19.7019 0 23.6066 1.61736 26.5435 4.55419C29.4803 7.49102 31.0977 11.3955 31.0977 15.5485H31.0976ZM5.7704 15.5485C5.7704 10.1565 10.1571 5.76984 15.5491 5.76984C20.941 5.76984 25.3278 10.1565 25.3278 15.5485C25.3278 20.9405 20.9411 25.3272 15.5491 25.3272C10.1571 25.3272 5.7704 20.9405 5.7704 15.5485ZM14.6086 15.5485C14.6086 15.8845 14.7878 16.1949 15.0787 16.3629L18.2635 18.2023C18.4117 18.2879 18.5734 18.3285 18.733 18.3285C19.058 18.3285 19.3741 18.1599 19.5483 17.8583C19.808 17.4085 19.654 16.8333 19.2042 16.5736L16.4895 15.0057V10.5865C16.4895 10.0671 16.0685 9.64601 15.5491 9.64601C15.0297 9.64601 14.6086 10.0671 14.6086 10.5865V15.5486V15.5485ZM1.88031 15.5485C1.88031 15.0313 1.45911 14.6084 0.940155 14.6084C0.421204 14.6084 0 15.0313 0 15.5485C0 16.0657 0.42296 16.4887 0.940155 16.4887C1.45735 16.4887 1.88031 16.0657 1.88031 15.5485ZM12.0106 28.7499C11.5094 28.6166 10.994 28.9134 10.859 29.4164C10.7257 29.9176 11.0225 30.4329 11.5236 30.568C12.0266 30.7013 12.542 30.4045 12.6753 29.9015C12.8103 29.4003 12.5136 28.8849 12.0106 28.7499ZM8.71557 27.3849C8.26415 27.1254 7.69008 27.2801 7.43064 27.7297C7.17113 28.1794 7.32399 28.7552 7.77366 29.0146C8.22333 29.2741 8.79915 29.1195 9.05859 28.6699C9.3181 28.2202 9.16524 27.6444 8.71557 27.3849ZM4.55331 25.2131C4.18722 25.5811 4.18722 26.1764 4.55331 26.5425C4.92122 26.9104 5.5166 26.9104 5.88445 26.5425C6.25054 26.1764 6.25054 25.5811 5.88445 25.2131C5.51654 24.8452 4.92116 24.8452 4.55331 25.2131ZM2.42773 22.039C1.97806 22.2984 1.82344 22.8725 2.08295 23.3222C2.34239 23.7718 2.91827 23.9265 3.36788 23.667C3.81755 23.4075 3.97216 22.8316 3.71266 22.382C3.45321 21.9324 2.87733 21.7777 2.42773 22.039ZM2.34597 19.0852C2.21267 18.584 1.69729 18.2873 1.19433 18.4206C0.693125 18.5556 0.394558 19.0711 0.529609 19.5722C0.66466 20.0752 1.1801 20.372 1.68124 20.2387C2.18245 20.1036 2.48108 19.5882 2.34597 19.0852ZM1.19433 12.6765C1.69729 12.8098 2.21267 12.513 2.34597 12.0119C2.48102 11.5089 2.18245 10.9935 1.68131 10.8584C1.1801 10.7251 0.664723 11.0219 0.529672 11.5249C0.394621 12.0261 0.693188 12.5415 1.19439 12.6765H1.19433Z" fill="#FAFAFA"/>
</svg>
