<svg width="42" height="42" viewBox="0 0 42 42" fill="none" xmlns="http://www.w3.org/2000/svg">
<g clip-path="url(#clip0_10803_4426)">
<path d="M20.9905 11.9643C20.3646 12.2305 19.7584 12.5324 19.1734 12.8684C18.7206 12.9022 18.0907 12.8741 18.0909 12.2688C18.0909 12.2688 18.1168 0.597682 18.1168 0.597682C18.1176 0.21517 18.4705 -0.0683298 18.842 0.0144397C24.3436 1.2404 28.7367 5.42727 30.2832 10.8266C27.1595 10.3303 23.8922 10.7214 20.9905 11.9643Z" fill="#00AA72"/>
<path d="M27.6465 13.1666C44.7321 13.0515 47.2582 38.445 30.7914 41.955C30.5067 42.0191 30.235 41.8031 30.2358 41.509L30.2607 30.3074C30.2613 30.0557 30.4644 29.852 30.7147 29.852H32.255C32.7504 29.852 33.0497 29.3009 32.7817 28.8819C25.9644 18.8783 29.274 18.8813 22.4554 28.8819C22.1873 29.3008 22.4866 29.8519 22.9821 29.8519H24.7218C24.973 29.8519 25.1764 30.0569 25.1758 30.3094L25.1509 41.5434C25.1502 41.8315 24.887 42.0495 24.6066 41.99C7.96378 38.623 10.452 13.0196 27.6465 13.1666Z" fill="#00AA72"/>
<path d="M0.113234 14.8745C0.222418 7.65182 5.25635 1.62999 11.9887 0.05146C12.362 -0.0360674 12.719 0.250878 12.7181 0.636261L12.6922 12.2713C12.6915 12.6012 12.4253 12.8683 12.0972 12.8683H10.4472C9.97634 12.8683 9.69194 13.392 9.94665 13.7901L13.1211 18.7531C11.0996 22.024 10.2447 25.9829 10.7154 29.8096C4.50511 27.7517 0.00848007 21.808 0.113234 14.8745Z" fill="#00AA72"/>
</g>
<defs>
<clipPath id="clip0_10803_4426">
<rect width="42" height="42" fill="white" transform="matrix(-1 0 0 1 42 0)"/>
</clipPath>
</defs>
</svg>
