<svg width="42" height="42" viewBox="0 0 42 42" fill="none" xmlns="http://www.w3.org/2000/svg">
<path d="M20.8792 11.9643C20.2532 12.2305 19.6471 12.5324 19.0621 12.8684C18.6092 12.9022 17.9794 12.8741 17.9796 12.2688C17.9796 12.2688 18.0055 0.597682 18.0055 0.597682C18.0063 0.21517 18.3592 -0.0683298 18.7306 0.0144397C24.2323 1.2404 28.6253 5.42727 30.1719 10.8266C27.0481 10.3303 23.7809 10.7214 20.8792 11.9643Z" fill="#00AA72"/>
<path d="M27.5352 13.1666C44.6207 13.0515 47.1469 38.445 30.68 41.955C30.3954 42.0191 30.1237 41.8031 30.1244 41.509L30.1494 30.3074C30.1499 30.0557 30.3531 29.852 30.6034 29.852H32.1436C32.6391 29.852 32.9383 29.3009 32.6704 28.8819C25.8531 18.8783 29.1627 18.8813 22.3441 28.8819C22.076 29.3008 22.3753 29.8519 22.8707 29.8519H24.6105C24.8616 29.8519 25.0651 30.0569 25.0645 30.3094L25.0396 41.5434C25.0389 41.8315 24.7757 42.0495 24.4953 41.99C7.85245 38.623 10.3407 13.0196 27.5352 13.1666Z" fill="#00AA72"/>
<path d="M0.00190544 14.8745C0.11109 7.65182 5.14502 1.62999 11.8773 0.05146C12.2506 -0.0360674 12.6076 0.250878 12.6067 0.636261L12.5809 12.2713C12.5802 12.6012 12.314 12.8683 11.9858 12.8683H10.3359C9.86502 12.8683 9.58061 13.392 9.83532 13.7901L13.0098 18.7531C10.9883 22.024 10.1333 25.9829 10.6041 29.8096C4.39378 27.7517 -0.102848 21.808 0.00190544 14.8745Z" fill="#00AA72"/>
</svg>
