<svg width="29" height="32" viewBox="0 0 29 32" fill="none" xmlns="http://www.w3.org/2000/svg">
<path d="M15.7927 12V14.6666C15.7927 15.4026 15.1954 16 14.4594 16C13.7234 16 13.126 15.4026 13.126 14.6666V12C13.126 11.264 13.7234 10.6666 14.4594 10.6666C15.1954 10.6666 15.7927 11.264 15.7927 12ZM14.4594 17.3333C13.7234 17.3333 13.126 17.9306 13.126 18.6666C13.126 19.4026 13.7234 20 14.4594 20C15.1954 20 15.7927 19.4026 15.7927 18.6666C15.7927 17.9306 15.1954 17.3333 14.4594 17.3333ZM28.406 23.8426C27.3247 25.7626 24.8794 26.448 22.9594 25.3693L22.194 24.9386C21.0967 25.912 19.83 26.676 18.4594 27.1893V28C18.4594 30.2053 16.6647 32 14.4594 32C12.254 32 10.4594 30.2053 10.4594 28V27.3333C9.00072 26.848 7.65005 26.0826 6.47538 25.0786L5.95938 25.3693C4.03538 26.4466 1.59272 25.7626 0.512716 23.8426C-0.568617 21.92 0.116716 19.476 2.03938 18.3946L2.47805 18.148C2.34605 17.4333 2.28072 16.7053 2.28072 15.9733C2.28072 15.2586 2.34472 14.5466 2.47005 13.8453L2.03938 13.604C0.11805 12.5226 -0.567284 10.0786 0.512716 8.15598C1.03672 7.22531 1.89138 6.55331 2.92072 6.26531C3.94872 5.97598 5.03005 6.10531 5.96072 6.63065L6.43938 6.89998C7.62072 5.87998 8.98472 5.10398 10.4594 4.61198V3.99731C10.4594 1.79198 12.254 -0.00268555 14.4594 -0.00268555C16.6647 -0.00268555 18.4594 1.79198 18.4594 3.99731V4.75731C19.8447 5.27731 21.122 6.05065 22.2287 7.03865L22.9594 6.62798C23.8887 6.10265 24.9687 5.97065 25.998 6.26398C27.026 6.55198 27.882 7.22398 28.406 8.15465C29.4874 10.0773 28.802 12.5213 26.8794 13.6026L26.0754 14.0546C26.178 14.688 26.2287 15.328 26.2287 15.972C26.2287 16.632 26.174 17.2893 26.0674 17.9373L26.878 18.3933C28.8007 19.4746 29.486 21.9186 28.4047 23.8413L28.406 23.8426ZM21.6647 18.4933L16.09 8.93731C15.3607 7.68798 13.5567 7.68798 12.8274 8.93731L7.25272 18.4933C6.51805 19.752 7.42605 21.3333 8.88472 21.3333H20.0327C21.49 21.3333 22.398 19.752 21.6647 18.4933Z" fill="#FAFAFA"/>
</svg>
