<svg width="50" height="45" viewBox="0 0 50 45" fill="none" xmlns="http://www.w3.org/2000/svg">
<path d="M48.4375 16.875C48.4387 17.06 48.3993 17.2435 48.3215 17.4148C48.2438 17.5862 48.1292 17.742 47.9844 17.8734L38.6094 26.3109C38.4634 26.4412 38.2903 26.5443 38.0999 26.6143C37.9095 26.6843 37.7057 26.7198 37.5 26.7187C37.2969 26.721 37.0952 26.6875 36.9063 26.6203C36.6185 26.5139 36.3725 26.3326 36.1999 26.0996C36.0273 25.8666 35.936 25.5925 35.9375 25.3125V21.0937H21.875C21.4606 21.0937 21.0632 20.9456 20.7702 20.6818C20.4771 20.4181 20.3125 20.0604 20.3125 19.6875V14.0625C20.3125 13.6895 20.4771 13.3318 20.7702 13.0681C21.0632 12.8044 21.4606 12.6562 21.875 12.6562H35.9375V8.43746C35.9388 8.15935 36.0317 7.88782 36.2045 7.65722C36.3772 7.42662 36.6221 7.24729 36.9081 7.14193C37.1941 7.03657 37.5083 7.00989 37.8112 7.06528C38.114 7.12066 38.3918 7.25562 38.6094 7.45309L47.9844 15.8906C48.2731 16.1525 48.4358 16.506 48.4375 16.875ZM28.125 23.9062H14.0625V19.6875C14.061 19.4098 13.9682 19.1388 13.7958 18.9086C13.6234 18.6784 13.3791 18.4992 13.0938 18.3937C12.8092 18.286 12.4956 18.2566 12.1925 18.3092C11.8894 18.3617 11.6104 18.4939 11.3907 18.689L2.01565 27.1265C1.87084 27.2579 1.75627 27.4138 1.67851 27.5851C1.60075 27.7564 1.56134 27.9399 1.56253 28.125C1.56134 28.31 1.60075 28.4935 1.67851 28.6648C1.75627 28.8362 1.87084 28.992 2.01565 29.1234L11.3907 37.5609C11.5367 37.6912 11.7098 37.7943 11.9002 37.8643C12.0905 37.9343 12.2944 37.9698 12.5 37.9687C12.705 37.9735 12.9083 37.9349 13.0938 37.8562C13.3791 37.7507 13.6234 37.5716 13.7958 37.3413C13.9682 37.1111 14.061 36.8401 14.0625 36.5625V32.3437H28.125C28.5394 32.3437 28.9369 32.1956 29.2299 31.9318C29.5229 31.6681 29.6875 31.3104 29.6875 30.9375V25.3125C29.6875 24.9395 29.5229 24.5818 29.2299 24.3181C28.9369 24.0544 28.5394 23.9062 28.125 23.9062Z" fill="#FAFAFA"/>
</svg>
