<svg width="38" height="38" viewBox="0 0 38 38" fill="none" xmlns="http://www.w3.org/2000/svg">
<path fill-rule="evenodd" clip-rule="evenodd" d="M24.9007 37.625H4.8125C3.53675 37.625 2.31175 37.1175 1.40875 36.2162C0.5075 35.3132 0 34.0882 0 32.8125V4.8125C0 3.53675 0.5075 2.31175 1.40875 1.40875C2.31175 0.5075 3.53675 0 4.8125 0H19.838C20.65 0 21.4287 0.322 22.0028 0.89775L29.7272 8.62225C30.303 9.19625 30.625 9.975 30.625 10.787V18.0512C29.4228 17.8745 28.1995 17.9042 27.006 18.1388C25.9997 18.3347 25.1597 19.0225 24.766 19.9692L24.4685 20.6868C24.0765 20.636 23.6968 20.587 23.6968 20.587C22.68 20.454 21.665 20.8372 20.9912 21.6108C20.0795 22.6572 19.3778 23.87 18.928 25.1842C18.5955 26.1537 18.7705 27.2247 19.3935 28.0385L19.8678 28.6562C19.628 28.9695 19.3935 29.274 19.3935 29.274C18.7705 30.0878 18.5955 31.1587 18.928 32.1283C19.3778 33.4425 20.0795 34.6552 20.9912 35.7017C21.665 36.4753 22.68 36.8585 23.6968 36.7255L24.4685 36.6258C24.619 36.9897 24.766 37.3433 24.766 37.3433C24.8063 37.4395 24.8517 37.534 24.9007 37.625ZM7.4375 23.625H15.3125C16.037 23.625 16.625 23.037 16.625 22.3125C16.625 21.588 16.037 21 15.3125 21H7.4375C6.713 21 6.125 21.588 6.125 22.3125C6.125 23.037 6.713 23.625 7.4375 23.625ZM19.6875 3.0625V9.1875C19.6875 10.1535 20.4715 10.9375 21.4375 10.9375H27.5625L19.6875 3.0625ZM7.4375 17.5H21.4375C22.162 17.5 22.75 16.912 22.75 16.1875C22.75 15.463 22.162 14.875 21.4375 14.875H7.4375C6.713 14.875 6.125 15.463 6.125 16.1875C6.125 16.912 6.713 17.5 7.4375 17.5ZM7.4375 29.75H15.3125C16.037 29.75 16.625 29.162 16.625 28.4375C16.625 27.713 16.037 27.125 15.3125 27.125H7.4375C6.713 27.125 6.125 27.713 6.125 28.4375C6.125 29.162 6.713 29.75 7.4375 29.75Z" fill="#00AA72"/>
<path fill-rule="evenodd" clip-rule="evenodd" d="M31.7561 20.6395C31.7561 20.6395 32.3773 22.1358 32.3756 22.1358C32.6118 22.2548 32.8411 22.3878 33.0633 22.5313L34.6698 22.3213C35.1038 22.2653 35.5396 22.4297 35.8283 22.7605C36.5913 23.6355 37.1776 24.6523 37.5556 25.7513C37.6973 26.166 37.6221 26.6263 37.3543 26.9745C37.3543 26.9745 36.3708 28.2608 36.3708 28.259C36.3848 28.5233 36.3848 28.7893 36.3708 29.0518L37.3543 30.338C37.6221 30.6863 37.6973 31.1465 37.5556 31.5613C37.1776 32.6603 36.5913 33.677 35.8283 34.552C35.5396 34.8827 35.1038 35.0473 34.6698 34.9913C34.6698 34.9913 33.0633 34.7813 33.0651 34.7795C32.8428 34.9248 32.6118 35.0577 32.3773 35.1768L31.7561 36.673C31.5881 37.079 31.2276 37.373 30.7971 37.457C29.6561 37.681 28.4836 37.681 27.3426 37.457C26.9121 37.373 26.5516 37.079 26.3836 36.673C26.3836 36.673 25.7623 35.1768 25.7641 35.1768C25.5278 35.0577 25.2968 34.9248 25.0763 34.7812L23.4698 34.9913C23.0341 35.0473 22.6001 34.8827 22.3113 34.552C21.5466 33.677 20.9603 32.6603 20.5841 31.5613C20.4423 31.1465 20.5176 30.6863 20.7836 30.338C20.7836 30.338 21.7688 29.0517 21.7688 29.0535C21.7548 28.7892 21.7548 28.5233 21.7688 28.2608L20.7836 26.9745C20.5176 26.6263 20.4423 26.166 20.5841 25.7513C20.9603 24.6523 21.5466 23.6355 22.3113 22.7605C22.6001 22.4297 23.0341 22.2653 23.4698 22.3213C23.4698 22.3213 25.0763 22.5313 25.0746 22.533C25.2968 22.3878 25.5261 22.2548 25.7623 22.1358L26.3836 20.6395C26.5516 20.2335 26.9121 19.9395 27.3426 19.8555C28.4836 19.6315 29.6561 19.6315 30.7971 19.8555C31.2276 19.9395 31.5881 20.2335 31.7561 20.6395ZM29.0698 26.0313C27.6208 26.0313 26.4448 27.2073 26.4448 28.6563C26.4448 30.1053 27.6208 31.2813 29.0698 31.2813C30.5188 31.2813 31.6948 30.1053 31.6948 28.6563C31.6948 27.2073 30.5188 26.0313 29.0698 26.0313Z" fill="#00AA72"/>
</svg>
