<svg width="32" height="32" viewBox="0 0 32 32" fill="none" xmlns="http://www.w3.org/2000/svg">
<path d="M25.3333 1.33325H6.66667C2.99067 1.33325 0 4.32392 0 7.99992V18.6666C0 22.3426 2.99067 25.3333 6.66667 25.3333H14.6667V27.9999H9.33333C8.59733 27.9999 8 28.5973 8 29.3333C8 30.0693 8.59733 30.6666 9.33333 30.6666H22.6667C23.4027 30.6666 24 30.0693 24 29.3333C24 28.5973 23.4027 27.9999 22.6667 27.9999H17.3333V25.3333H25.3333C29.0093 25.3333 32 22.3426 32 18.6666V7.99992C32 4.32392 29.0093 1.33325 25.3333 1.33325ZM26.6667 14.6373C26.6667 15.3733 26.0693 15.9706 25.3333 15.9706C24.5973 15.9706 24 15.3733 24 14.6373V12.5533L19.328 17.2253C18.1533 18.4013 16.104 18.4013 14.9293 17.2253L12.4467 14.7426C12.2733 14.5693 11.992 14.5693 11.8187 14.7426L7.61333 18.9479C7.35333 19.2079 7.012 19.3386 6.67067 19.3386C6.32933 19.3386 5.988 19.2079 5.728 18.9479C5.20667 18.4266 5.20667 17.5839 5.728 17.0626L9.93333 12.8573C11.1453 11.6439 13.12 11.6439 14.332 12.8573L16.8147 15.3399C17.0413 15.5666 17.216 15.5666 17.4427 15.3399L22.1147 10.6679H20C19.264 10.6679 18.6667 10.0706 18.6667 9.33459C18.6667 8.59859 19.264 8.00125 20 8.00125H24.6667C25.7693 8.00125 26.6667 8.89859 26.6667 10.0013V14.6386V14.6373Z" fill="#FAFAFA"/>
</svg>
