<svg width="36" height="36" viewBox="0 0 36 36" fill="none" xmlns="http://www.w3.org/2000/svg">
<path d="M9.9868 15.5332H3.37554V27.2084H9.9868V15.5332Z" fill="#00AA72"/>
<path d="M21.2407 15.5332H14.6294V27.2084H21.2407V15.5332Z" fill="#00AA72"/>
<path d="M2.10997 29.3184C3.172 29.3184 32.4742 29.3184 33.7596 29.3184C34.9231 29.3184 35.8696 30.2649 35.8696 31.4283V33.89C35.8696 35.0534 34.9231 36 33.7596 36H2.10997C0.946533 36 0 35.0534 0 33.89V31.4283C0 30.2649 0.946533 29.3184 2.10997 29.3184Z" fill="#00AA72"/>
<path d="M1.32225 6.62387C17.5743 -0.0213634 17.1394 0.156367 17.1511 0.151655C17.6526 -0.0490039 18.2101 -0.0530832 18.7259 0.154609L34.5474 6.62387C35.3508 6.94711 35.8696 7.71501 35.8696 8.58129V11.3134C35.8696 12.4768 34.9231 13.4233 33.7596 13.4233H2.10997C0.946533 13.4233 0 12.4768 0 11.3134V8.58129C0 7.71501 0.518841 6.94711 1.32225 6.62387ZM16.8798 7.86699C16.8798 8.44963 17.3522 8.92198 17.9348 8.92198C18.5174 8.92198 18.9898 8.44963 18.9898 7.86699V5.61635C18.9898 5.03372 18.5174 4.56136 17.9348 4.56136C17.3522 4.56136 16.8798 5.03372 16.8798 5.61635V7.86699Z" fill="#00AA72"/>
<path d="M32.4946 15.5332H25.8834V27.2084H32.4946V15.5332Z" fill="#00AA72"/>
</svg>
