<svg width="26" height="26" viewBox="0 0 26 26" fill="none" xmlns="http://www.w3.org/2000/svg">
<g clip-path="url(#clip0_10773_4373)">
<path d="M2.33789 13.7617H0.763672C0.342645 13.7617 0.00195312 14.1024 0.00195312 14.5234V25.2383C0.00195312 25.6593 0.342645 26 0.763672 26H2.33789C3.59798 26 4.62305 24.9749 4.62305 23.7148V16.0469C4.62305 14.7868 3.59798 13.7617 2.33789 13.7617Z" fill="white"/>
<path d="M13.002 0C8.38182 0 4.62305 3.80956 4.62305 8.42969C4.62305 10.0053 5.0622 11.5202 5.86988 12.8261C6.89317 12.255 8.02996 11.9392 9.20976 11.9392C10.8297 11.9392 12.4665 12.5061 13.8552 13.7617H17.623C18.1743 13.7617 18.6821 13.9254 19.1287 14.1824C20.5519 12.68 21.4316 10.6577 21.4316 8.42969C21.4316 3.80956 17.6221 0 13.002 0ZM13.002 6.14453C14.2621 6.14453 15.2872 7.1696 15.2872 8.42969C15.2872 9.34984 14.7397 10.1763 13.8924 10.5348C13.8503 10.5527 13.8064 10.5597 13.7637 10.5748V11.4766C13.7637 11.8976 13.423 12.2383 13.002 12.2383C12.581 12.2383 12.2403 11.8976 12.2403 11.4766V10.5769C11.845 10.4438 11.4618 10.2206 11.1178 9.88767C10.8158 9.59532 10.8084 9.11331 11.1015 8.81055C11.3938 8.50855 11.8773 8.50185 12.1786 8.7942C12.5483 9.152 12.9567 9.27621 13.2981 9.13189C13.5808 9.01215 13.7638 8.73691 13.7638 8.42969C13.7638 8.00942 13.4223 7.66797 13.0021 7.66797C11.742 7.66797 10.7169 6.6429 10.7169 5.38281C10.7168 4.42543 11.3208 3.56256 12.2202 3.23527C12.2268 3.23284 12.2337 3.23395 12.2403 3.23167V2.28516C12.2403 1.86413 12.581 1.52344 13.002 1.52344C13.423 1.52344 13.7637 1.86413 13.7637 2.28516V3.22283C14.266 3.39209 14.7456 3.72765 15.157 4.21794C15.4278 4.54005 15.3861 5.02059 15.0633 5.29059C14.7419 5.56212 14.2599 5.52043 13.9906 5.19685C13.5875 4.71778 13.1329 4.52512 12.7416 4.66649C12.4419 4.77582 12.2403 5.0637 12.2403 5.38281C12.2403 5.80308 12.5817 6.14453 13.002 6.14453Z" fill="white"/>
<path d="M25.3774 14.0514C24.7527 13.5944 23.8844 13.6858 23.3665 14.2494L19.2532 19.3682C18.9637 19.6729 18.4153 19.8557 18.1258 19.8557H13.002C12.5753 19.8557 12.2402 19.5206 12.2402 19.094C12.2402 18.6673 12.5753 18.3322 13.002 18.3322C16.4145 18.3322 13.8297 18.3322 17.623 18.3322C18.4609 18.3322 19.1465 17.6467 19.1465 16.8088C19.1465 15.9709 18.4609 15.2854 17.623 15.2854C14.0457 15.2854 17.4072 15.2854 13.5809 15.2854C13.2012 15.2854 13.0119 15.0446 12.7125 14.7826C12.2555 14.3713 11.7375 14.0666 11.2043 13.8533C9.55345 13.1792 7.6459 13.3832 6.14648 14.4259C6.14648 17.1995 6.14648 21.3324 6.14648 24.4767H17.623C19.0551 24.4767 20.4262 23.7404 21.2793 22.5978L25.6973 16.1994C26.2 15.5291 26.0629 14.5541 25.3774 14.0514Z" fill="white"/>
</g>
<defs>
<clipPath id="clip0_10773_4373">
<rect width="26" height="26" fill="white"/>
</clipPath>
</defs>
</svg>
