<svg width="36" height="36" viewBox="0 0 36 36" fill="none" xmlns="http://www.w3.org/2000/svg">
<g clip-path="url(#clip0_10773_4269)">
<path d="M30.7211 26.6205C29.7092 26.6205 28.7628 26.1163 28.1896 25.2718L26.6862 23.057C24.9153 26.2729 21.5489 28.3491 17.75 28.3491C12.4492 28.3491 8.07601 24.2483 7.56043 19.0147H8.5337C8.91393 19.0147 9.26297 18.8012 9.43999 18.4603C9.617 18.1194 9.59294 17.7072 9.37751 17.3899L7.88471 15.1907L5.6227 11.8583C5.43175 11.5769 5.11614 11.4087 4.77889 11.4087C4.73673 11.4087 4.69492 11.4113 4.6536 11.4164C4.61227 11.4215 4.57157 11.4293 4.53156 11.4393C4.43158 11.4645 4.33618 11.5048 4.24861 11.5585C4.12602 11.6336 4.01855 11.7351 3.935 11.8582L0.180188 17.3898C-0.0352382 17.7071 -0.0592977 18.1194 0.117717 18.4602C0.294731 18.801 0.643767 19.0147 1.02407 19.0147H2.08075C2.3244 22.8722 3.92418 26.4649 6.64714 29.2228C9.61284 32.2265 13.5559 33.8807 17.75 33.8807C21.9441 33.8807 25.8872 32.2265 28.8529 29.2228C29.6413 28.4243 30.3395 27.5483 30.9389 26.612C30.8666 26.6171 30.7941 26.6205 30.7211 26.6205Z" fill="#FAFAFA"/>
<path d="M18.5298 16.9402H16.9694C16.6736 16.9402 16.433 16.6965 16.433 16.3969V15.6067C16.433 15.3071 16.6736 15.0635 16.9694 15.0635H18.5298C18.8256 15.0635 19.0662 15.3071 19.0662 15.6067C19.0662 16.1795 19.5247 16.6438 20.0902 16.6438C20.6557 16.6438 21.1142 16.1794 21.1142 15.6067C21.1142 14.2467 20.0847 13.126 18.7735 13.0011V12.4458C18.7735 11.873 18.315 11.4087 17.7495 11.4087C17.1839 11.4087 16.7255 11.8731 16.7255 12.4458V13.0011C15.4143 13.126 14.3848 14.2467 14.3848 15.6067V16.3969C14.3848 17.8403 15.5441 19.0145 16.9693 19.0145H18.5297C18.8254 19.0145 19.066 19.2582 19.066 19.5578V20.348C19.066 20.6475 18.8254 20.8913 18.5297 20.8913H16.9693C16.6735 20.8913 16.4329 20.6476 16.4329 20.3481C16.4329 19.7753 15.9744 19.3109 15.4089 19.3109C14.8434 19.3109 14.3848 19.7753 14.3848 20.3481C14.3848 21.7081 15.4143 22.8288 16.7255 22.9536V23.5088C16.7255 24.0817 17.1841 24.546 17.7496 24.546C18.3151 24.546 18.7736 24.0816 18.7736 23.5088V22.9536C20.0847 22.8287 21.1143 21.708 21.1143 20.348V19.5578C21.1142 18.1144 19.9549 16.9402 18.5298 16.9402Z" fill="#FAFAFA"/>
<path d="M35.3836 17.4946C35.2065 17.1537 34.8575 16.9402 34.4772 16.9402H33.4205C33.1769 13.0827 31.5771 9.49002 28.8542 6.73208C25.8885 3.72843 21.9454 2.07422 17.7513 2.07422C13.5573 2.07422 9.6141 3.72843 6.64847 6.73215C5.86005 7.53068 5.16191 8.40666 4.5625 9.34297C4.63468 9.33777 4.7072 9.3344 4.78021 9.3344C5.79217 9.3344 6.73853 9.83862 7.31173 10.6831L8.81507 12.8979C10.586 9.68194 13.9524 7.60582 17.7513 7.60582C23.0521 7.60582 27.4253 11.7067 27.9409 16.9403H26.9676C26.5874 16.9403 26.2383 17.1537 26.0613 17.4947C25.8843 17.8355 25.9084 18.2477 26.1238 18.5651L27.6166 20.7642L29.8786 24.0967C29.9264 24.1671 29.9819 24.2303 30.0436 24.2857C30.2287 24.4517 30.4695 24.5463 30.7225 24.5463C31.0597 24.5463 31.3753 24.3781 31.5664 24.0967L32.9222 22.0993L35.3211 18.5652C35.5366 18.2476 35.5606 17.8354 35.3836 17.4946Z" fill="#FAFAFA"/>
</g>
<defs>
<clipPath id="clip0_10773_4269">
<rect width="35.5" height="35.9551" fill="white"/>
</clipPath>
</defs>
</svg>
