<svg width="35" height="35" viewBox="0 0 35 35" fill="none" xmlns="http://www.w3.org/2000/svg">
<g clip-path="url(#clip0_10746_5644)">
<path d="M18.5273 0C16.2653 0 14.3574 1.90784 14.3574 4.16991C14.3574 6.43199 16.2653 8.33983 18.5273 8.33983C20.7894 8.33983 22.6289 6.43199 22.6289 4.16991C22.6289 1.90784 20.7894 0 18.5273 0Z" fill="#00AA72"/>
<path d="M23.0795 8.33984C21.9526 9.58938 20.3386 10.3906 18.5273 10.3906C16.7161 10.3906 15.0337 9.58938 13.9068 8.33984C12.923 9.43079 12.3066 10.86 12.3066 12.4414V13.4668C12.3066 14.0336 12.7653 14.4922 13.332 14.4922H23.6543C24.221 14.4922 24.6797 14.0336 24.6797 13.4668V12.4414C24.6797 10.86 24.0633 9.43079 23.0795 8.33984Z" fill="#00AA72"/>
<path d="M9.90868 31.4728L4.68323 20.9964C4.17867 19.9848 2.95067 19.5722 1.93779 20.0741L0.572041 20.7506C0.0635165 21.0028 -0.143407 21.6208 0.110411 22.1285L6.26274 34.4331C6.51574 34.9406 7.13118 35.1425 7.6356 34.8937L8.98378 34.2258C10.0006 33.7221 10.4151 32.4883 9.90868 31.4728Z" fill="#00AA72"/>
<path d="M34.162 16.9326C33.3212 16.3174 32.1522 16.4404 31.455 17.1992L25.8496 24.0898C25.4599 24.5 24.7216 24.7461 24.332 24.7461H19.5536C18.9793 24.7461 18.5282 24.295 18.5282 23.7207C18.5282 23.1464 18.9793 22.6953 19.5536 22.6953C20.9269 22.6953 22.4474 22.6953 23.6552 22.6953C24.7831 22.6953 25.7059 21.7725 25.7059 20.6445C25.7059 19.5166 24.7831 18.5937 23.6552 18.5937C18.8395 18.5937 23.433 18.5937 18.2821 18.5937C17.7711 18.5937 17.5162 18.2697 17.1132 17.9169C15.5266 16.4892 13.1518 15.8014 10.7476 16.3587C9.41271 16.6681 8.51249 17.2074 7.59948 17.9305L7.56906 17.9058L6.08594 19.211L11.9145 30.8984H13.6405H23.6552C25.5829 30.8984 27.4287 29.9756 28.5771 28.4375L34.5926 19.8242C35.2694 18.9218 35.0848 17.6094 34.162 16.9326Z" fill="#00AA72"/>
</g>
<defs>
<clipPath id="clip0_10746_5644">
<rect width="35" height="35" fill="white"/>
</clipPath>
</defs>
</svg>
