<svg width="44" height="44" viewBox="0 0 44 44" fill="none" xmlns="http://www.w3.org/2000/svg">
<path d="M22.8007 16.971C20.8184 17.2512 19.087 19.1122 19.0703 19.1289C19.0454 19.1547 19.0173 19.1772 18.9867 19.1958C16.2934 20.9439 14.7753 19.614 14.7126 19.5346C12.9896 17.983 14.5704 15.3818 14.6373 15.273C15.3431 14.1 16.1978 13.0232 17.18 12.0696H9.86559L6.69141 22.5415C6.7255 22.5604 6.75652 22.5843 6.78341 22.6126C11.7099 28.1831 18.2506 33.1263 20.831 34.9915C21.0995 35.19 21.4334 35.2792 21.7652 35.2409C22.097 35.2027 22.4019 35.0398 22.6181 34.7853C22.8344 34.5307 22.9459 34.2036 22.9301 33.87C22.9143 33.5364 22.7724 33.2212 22.5331 32.9883L18.9825 29.4377C18.9046 29.3593 18.8609 29.2533 18.8609 29.1429C18.8609 29.0324 18.9046 28.9264 18.9825 28.848C19.0214 28.8088 19.0676 28.7777 19.1186 28.7565C19.1695 28.7352 19.2242 28.7243 19.2794 28.7243C19.3346 28.7243 19.3893 28.7352 19.4402 28.7565C19.4912 28.7777 19.5375 28.8088 19.5763 28.848L21.4666 30.7383L23.1395 32.4111L23.9759 33.2685C24.2759 33.5607 24.6785 33.7238 25.0973 33.7228C25.5162 33.7217 25.918 33.5567 26.2166 33.263C26.5152 32.9693 26.6869 32.5703 26.6949 32.1516C26.7029 31.7328 26.5465 31.3276 26.2593 31.0227L23.0015 27.6227L22.3825 26.9828C22.3433 26.9439 22.3122 26.8977 22.291 26.8467C22.2697 26.7958 22.2588 26.7411 22.2588 26.6859C22.2588 26.6307 22.2697 26.576 22.291 26.5251C22.3122 26.4741 22.3433 26.4278 22.3825 26.389C22.4214 26.3498 22.4676 26.3187 22.5186 26.2974C22.5696 26.2762 22.6242 26.2653 22.6794 26.2653C22.7346 26.2653 22.7893 26.2762 22.8403 26.2974C22.8912 26.3187 22.9375 26.3498 22.9764 26.389L27.7314 31.3238C27.9616 31.5517 28.2531 31.7078 28.5704 31.7732C28.8877 31.8386 29.2171 31.8105 29.5187 31.6922C29.8203 31.574 30.0811 31.3707 30.2694 31.1071C30.4577 30.8435 30.5653 30.5308 30.5794 30.2072C30.5863 29.9792 30.5452 29.7523 30.4587 29.5412C30.3723 29.33 30.2424 29.1395 30.0775 28.9818L27.2253 26.2217L25.2389 24.2938C25.1946 24.2569 25.1585 24.2112 25.1327 24.1597C25.107 24.1082 25.0921 24.0519 25.0891 23.9944C25.0861 23.9369 25.095 23.8794 25.1153 23.8255C25.1356 23.7716 25.1667 23.7224 25.2069 23.6811C25.247 23.6398 25.2953 23.6073 25.3486 23.5855C25.4019 23.5637 25.4591 23.5532 25.5167 23.5545C25.5743 23.5559 25.631 23.5692 25.6832 23.5934C25.7354 23.6177 25.782 23.6526 25.8202 23.6957L31.4659 29.1617C31.614 29.3138 31.7913 29.4343 31.9872 29.516C32.1831 29.5977 32.3935 29.6389 32.6058 29.6372C32.818 29.6354 33.0277 29.5907 33.2222 29.5057C33.4167 29.4207 33.592 29.2972 33.7375 29.1427C33.883 28.9881 33.9957 28.8057 34.0688 28.6065C34.142 28.4072 34.174 28.1952 34.163 27.9832C34.152 27.7713 34.0982 27.5637 34.0048 27.3731C33.9114 27.1825 33.7804 27.0127 33.6197 26.8741L22.8007 16.971Z" fill="black"/>
<path d="M8.58901 9.61898C6.41793 8.6429 4.05056 8.18202 1.67188 8.27235V24.6744H4.22712C4.49983 24.6751 4.76533 24.5868 4.98341 24.4231C5.20149 24.2593 5.36028 24.029 5.43573 23.7669L9.27487 11.1245C9.36262 10.8331 9.34143 10.5197 9.21525 10.2427C9.08907 9.9657 8.8665 9.74403 8.58901 9.61898Z" fill="black"/>
<path d="M24.1558 10.4302C23.2539 10.0589 22.2461 10.0365 21.3287 10.3674C19.7269 10.9529 17.3892 12.3581 15.3358 15.7121C15.3358 15.7372 14.0519 17.8031 15.2605 18.9156C15.3023 18.9532 16.3813 19.8565 18.4723 18.5224C18.7734 18.2088 20.6595 16.3185 22.8886 16.1136C22.9462 16.1087 23.0042 16.1159 23.0589 16.1346C23.1136 16.1533 23.1638 16.1832 23.2064 16.2223L34.1676 26.2593C34.2178 26.3053 34.2638 26.3554 34.3098 26.4056C35.5644 26.2133 36.4008 25.0674 36.6434 24.6492L32.6704 13.8218L24.1558 10.4302Z" fill="black"/>
<path d="M40.9836 10.267C38.5982 10.2512 36.2323 10.6971 34.0163 11.5802C33.7183 11.7079 33.4813 11.946 33.355 12.2446C33.2287 12.5432 33.2229 12.8791 33.3388 13.1819L37.9934 25.8494C38.0843 26.0937 38.2474 26.3047 38.461 26.4541C38.6747 26.6035 38.9288 26.6843 39.1895 26.6858H41.82V10.2879C41.6109 10.2754 41.3223 10.267 40.9836 10.267Z" fill="black"/>
</svg>
