<svg width="26" height="33" viewBox="0 0 26 33" fill="none" xmlns="http://www.w3.org/2000/svg">
<path fill-rule="evenodd" clip-rule="evenodd" d="M15.0312 0H3.46875C1.55284 0 0 1.55284 0 3.46875V26.988C0 28.3223 0.765441 29.5387 1.9691 30.1157C3.17275 30.6926 4.59957 30.5285 5.64019 29.6925L6.21368 29.2323C6.63687 28.8935 7.23813 28.8935 7.66132 29.2323L10.5496 31.5517C11.8169 32.5692 13.6195 32.5704 14.889 31.5552L17.7797 29.2427C18.2017 28.9051 18.8006 28.9039 19.2227 29.2416L19.8216 29.7191C20.8634 30.5504 22.289 30.7111 23.4904 30.133C24.6906 29.5549 25.4537 28.3397 25.4537 27.0077V10.4028H18.5C17.5796 10.4028 16.6974 10.0374 16.0476 9.38643C15.3966 8.73662 15.0312 7.8544 15.0312 6.93402V0ZM15.888 25.0559L19.3175 21.6265C19.6482 21.2958 19.7476 20.7986 19.5684 20.3662C19.3892 19.9349 18.9671 19.6528 18.5 19.6528H6.9375C6.29925 19.6528 5.78125 20.1708 5.78125 20.809C5.78125 21.4473 6.29925 21.9653 6.9375 21.9653H15.7088L14.2531 23.421C13.801 23.8719 13.801 24.605 14.2531 25.0559C14.704 25.508 15.4371 25.508 15.888 25.0559ZM9.54947 11.9371L6.12003 15.3666C5.78934 15.6972 5.68991 16.1944 5.86913 16.6269C6.04835 17.0581 6.47038 17.3403 6.9375 17.3403H18.5C19.1383 17.3403 19.6562 16.8223 19.6562 16.184C19.6562 15.5458 19.1383 15.0278 18.5 15.0278H9.72869L11.1844 13.5721C11.6365 13.1211 11.6365 12.3881 11.1844 11.9371C10.7335 11.485 10.0004 11.485 9.54947 11.9371ZM17.3438 0.138744V6.93402C17.3438 7.24043 17.4652 7.53527 17.6825 7.75149C17.8987 7.96887 18.1936 8.09027 18.5 8.09027H25.3184C25.1565 7.52834 24.8536 7.0115 24.4316 6.59293L18.8191 1.00941C18.404 0.596626 17.8953 0.299463 17.3438 0.138744Z" fill="#00AA72"/>
</svg>
