<svg width="31" height="31" viewBox="0 0 31 31" fill="none" xmlns="http://www.w3.org/2000/svg">
<path d="M17.1594 0.7815C16.0002 -0.2605 14.2709 -0.2605 13.1117 0.7815L11.8574 1.90179H18.4136L17.1594 0.7815Z" fill="#00AA72"/>
<path d="M2.68621 11.1072L1.06634 12.5113C0.821575 12.7206 0.615421 12.9686 0.451172 13.2424L2.68621 14.8107V11.1072Z" fill="#00AA72"/>
<path d="M29.2091 12.5113L27.5859 11.1072V14.8526C28.5457 14.186 29.3411 13.632 29.8467 13.2778C29.6793 12.9912 29.4635 12.7335 29.2091 12.5113Z" fill="#00AA72"/>
<path d="M0.170694 13.8318C0.0579456 14.1538 0 14.4952 0 14.843V27.6284C0 28.4528 0.322048 29.1967 0.840544 29.7474C0.853398 29.7313 0.869517 29.7185 0.888861 29.7056L11.8514 22.0311L0.170694 13.8318ZM2.235 24.1856C2.235 24.3628 2.09332 24.5077 1.91295 24.5077C1.73585 24.5077 1.5909 24.3628 1.5909 24.1856V21.503C1.5909 21.3259 1.73585 21.1809 1.91295 21.1809C2.09332 21.1809 2.235 21.3259 2.235 21.503V24.1856ZM1.91295 20.4112C1.73585 20.4112 1.5909 20.2663 1.5909 20.0892V19.7156C1.5909 19.5385 1.73585 19.3936 1.91295 19.3936C2.09332 19.3936 2.235 19.5385 2.235 19.7156V20.0892C2.235 20.2663 2.09332 20.4112 1.91295 20.4112Z" fill="#00AA72"/>
<path d="M15.9609 23.7574C15.4619 24.1008 14.8042 24.1006 14.312 23.7574L12.4119 22.4241L1.33984 30.1726C1.83904 30.5204 2.44449 30.7201 3.09181 30.7201H27.1779C27.8284 30.7201 28.4339 30.5204 28.933 30.1726L17.8642 22.4273C16.8433 23.1422 16.1316 23.6382 15.9609 23.7574Z" fill="#00AA72"/>
<path d="M30.1149 13.8768C28.0441 15.3228 21.9188 19.5996 18.4277 22.0343L29.3838 29.7055C29.4032 29.7184 29.4193 29.7313 29.4322 29.7474C29.9507 29.1967 30.2727 28.4528 30.2727 27.6283V14.843C30.2727 14.5145 30.218 14.1892 30.1149 13.8768Z" fill="#00AA72"/>
<path d="M15.5937 23.2291C16.1637 22.8298 22.7303 18.247 26.9427 15.3067V5.36508C26.9427 3.8096 25.7157 2.54395 24.202 2.54395H6.07072C4.55706 2.54395 3.33008 3.8096 3.33008 5.36508V15.2617L14.6791 23.2291C14.9528 23.4191 15.32 23.4191 15.5937 23.2291ZM8.1544 6.03172C8.1544 5.8546 8.29931 5.70967 8.47645 5.70967H21.7931C21.9735 5.70967 22.1152 5.8546 22.1152 6.03172C22.1152 6.20886 21.9735 6.35377 21.7931 6.35377H8.47645C8.29931 6.35377 8.1544 6.20886 8.1544 6.03172ZM10.2219 13.178C10.2219 10.4663 12.4248 8.26352 15.1364 8.26352C17.8513 8.26352 20.0509 10.4663 20.0509 13.178C20.0509 15.8897 17.8513 18.0925 15.1364 18.0925C12.4248 18.0925 10.2219 15.8897 10.2219 13.178Z" fill="#00AA72"/>
<path d="M15.4588 15.3318V14.97H15.6573C16.0605 14.97 16.3885 14.6492 16.3885 14.2548V13.3558C16.3885 12.9614 16.0605 12.6405 15.6573 12.6405H14.6163C14.5688 12.6405 14.5289 12.6079 14.5289 12.5694V11.6704C14.5289 11.6317 14.5688 11.5992 14.6163 11.5992H16.0665C16.2445 11.5992 16.3885 11.455 16.3885 11.2771C16.3885 11.0993 16.2445 10.9551 16.0665 10.9551H15.4588V10.5934C15.4588 10.4156 15.3148 10.2714 15.1368 10.2714C14.9588 10.2714 14.8147 10.4156 14.8147 10.5934V10.9551H14.6163C14.2128 10.9551 13.8848 11.276 13.8848 11.6704V12.5694C13.8848 12.9638 14.2128 13.2846 14.6163 13.2846H15.6573C15.7045 13.2846 15.7444 13.3171 15.7444 13.3558V14.2548C15.7444 14.2934 15.7045 14.3259 15.6573 14.3259H14.2068C14.0288 14.3259 13.8848 14.4701 13.8848 14.648C13.8848 14.8258 14.0288 14.97 14.2068 14.97H14.8147V15.3318C14.8147 15.5097 14.9588 15.6539 15.1368 15.6539C15.3148 15.6539 15.4588 15.5097 15.4588 15.3318Z" fill="black"/>
</svg>
