<svg width="46" height="42" viewBox="0 0 46 42" fill="none" xmlns="http://www.w3.org/2000/svg">
<path d="M20.5213 22.3475C20.5213 20.8425 21.4186 19.495 22.8695 18.83L26.6877 17.045C27.2986 16.765 27.9668 16.625 28.6349 16.625H33.8849V8.75C33.8849 6.09 31.5368 3.9375 28.6349 3.9375H11.4531C8.55131 3.9375 6.20312 6.09 6.20312 8.75V31.5C6.20312 34.16 8.55131 36.3125 11.4531 36.3125H24.5495C22.0104 33.81 20.5213 30.4675 20.5213 26.915V22.3475ZM11.4531 9.1875H24.8168C25.6071 9.1875 26.2486 9.7755 26.2486 10.5C26.2486 11.2245 25.6071 11.8125 24.8168 11.8125H11.4531C10.6628 11.8125 10.0213 11.2245 10.0213 10.5C10.0213 9.7755 10.6628 9.1875 11.4531 9.1875ZM17.1804 22.3125H11.4531C10.6628 22.3125 10.0213 21.7245 10.0213 21C10.0213 20.2755 10.6628 19.6875 11.4531 19.6875H17.1804C17.9708 19.6875 18.6122 20.2755 18.6122 21C18.6122 21.7245 17.9708 22.3125 17.1804 22.3125ZM19.0895 17.0625H11.4531C10.6628 17.0625 10.0213 16.4745 10.0213 15.75C10.0213 15.0255 10.6628 14.4375 11.4531 14.4375H19.0895C19.8799 14.4375 20.5213 15.0255 20.5213 15.75C20.5213 16.4745 19.8799 17.0625 19.0895 17.0625ZM40.7386 21.168L36.9204 19.3917C36.7199 19.299 36.4966 19.25 36.2713 19.25H28.6349C28.4097 19.25 28.1882 19.299 27.9858 19.3917L24.1677 21.168C23.6866 21.392 23.3849 21.8452 23.3849 22.3387V26.9202C23.3849 31.57 26.554 35.7927 31.2771 37.429C31.6551 37.5602 32.0522 37.625 32.4512 37.625C32.8502 37.625 33.2511 37.5585 33.6348 37.4272C38.3522 35.7927 41.5213 31.57 41.5213 26.9202V22.3387C41.5213 21.8452 41.2197 21.392 40.7386 21.168ZM36.3858 26.6665L32.9495 30.1927C32.6765 30.471 32.2889 30.6302 31.8804 30.6302C31.4719 30.6302 31.0843 30.471 30.8113 30.1927L28.5204 27.8407C27.9954 27.3 28.045 26.4705 28.6349 25.9875C29.2268 25.5062 30.1278 25.55 30.6586 26.0925L31.8823 27.3472L34.2496 24.9165C34.7746 24.3757 35.6795 24.3302 36.2732 24.8115C36.8631 25.2945 36.9128 26.124 36.3878 26.6647L36.3858 26.6665Z" fill="white"/>
</svg>
