<svg width="30" height="30" viewBox="0 0 30 30" fill="none" xmlns="http://www.w3.org/2000/svg">
<path d="M19.9766 10.9531C15.001 10.9531 10.9531 15.001 10.9531 19.9766C10.9531 24.9521 15.001 29 19.9766 29C24.9521 29 29 24.9521 29 19.9766C29 15.001 24.9521 10.9531 19.9766 10.9531ZM19.9766 19.1562C21.3336 19.1562 22.4375 20.2602 22.4375 21.6172C22.4375 22.6852 21.7496 23.5872 20.7969 23.927V25.7188H19.1562V23.927C18.2035 23.5872 17.5156 22.6852 17.5156 21.6172H19.1562C19.1562 22.0698 19.524 22.4375 19.9766 22.4375C20.4292 22.4375 20.7969 22.0698 20.7969 21.6172C20.7969 21.1646 20.4292 20.7969 19.9766 20.7969C18.6195 20.7969 17.5156 19.693 17.5156 18.3359C17.5156 17.2679 18.2035 16.3659 19.1562 16.0261V14.2344H20.7969V16.0261C21.7496 16.3659 22.4375 17.2679 22.4375 18.3359H20.7969C20.7969 17.8833 20.4292 17.5156 19.9766 17.5156C19.524 17.5156 19.1562 17.8833 19.1562 18.3359C19.1562 18.7885 19.524 19.1562 19.9766 19.1562Z" fill="white"/>
<path d="M10.1328 10.9531C15.1925 10.9531 19.1562 8.791 19.1562 6.03125C19.1562 3.2715 15.1925 1 10.1328 1C5.07313 1 1 3.2715 1 6.03125C1 8.791 5.07313 10.9531 10.1328 10.9531Z" fill="white"/>
<path d="M1 19.4602V20.7968C1 23.5566 5.07313 25.7187 10.1328 25.7187C10.4198 25.7187 10.6979 25.6923 10.9805 25.6784C10.3512 24.6891 9.88196 23.5913 9.60563 22.4177C5.94676 22.3167 2.7698 21.1924 1 19.4602Z" fill="white"/>
<path d="M9.35193 20.755C9.33312 20.497 9.3125 20.2393 9.3125 19.9765C9.3125 19.1214 9.42455 18.2937 9.61563 17.4963C5.95223 17.397 2.77138 16.2721 1 14.5383V15.8749C1 18.4883 4.67839 20.5421 9.35193 20.755Z" fill="white"/>
<path d="M10.1328 15.8749C10.1337 15.8749 10.1344 15.8748 10.1353 15.8748C10.6764 14.5818 11.4628 13.4162 12.4395 12.4396C11.6986 12.5332 10.933 12.5937 10.1328 12.5937C6.23813 12.5937 2.85533 11.4323 1 9.61646V10.9531C1 13.7128 5.07313 15.8749 10.1328 15.8749Z" fill="white"/>
</svg>
