<svg width="36" height="36" viewBox="0 0 36 36" fill="none" xmlns="http://www.w3.org/2000/svg">
<g clip-path="url(#clip0_10803_4444)">
<path d="M10.0527 15.5332H3.44147V27.2084H10.0527V15.5332Z" fill="#00AA72"/>
<path d="M21.3066 15.5332H14.6954V27.2084H21.3066V15.5332Z" fill="#00AA72"/>
<path d="M2.17591 29.3184C3.23793 29.3184 32.5402 29.3184 33.8256 29.3184C34.989 29.3184 35.9355 30.2649 35.9355 31.4283V33.89C35.9355 35.0534 34.989 36 33.8256 36H2.17591C1.01247 36 0.065937 35.0534 0.065937 33.89V31.4283C0.065937 30.2649 1.01247 29.3184 2.17591 29.3184Z" fill="#00AA72"/>
<path d="M1.38819 6.62387C17.6402 -0.0213634 17.2053 0.156367 17.217 0.151655C17.7185 -0.0490039 18.276 -0.0530832 18.7918 0.154609L34.6133 6.62387C35.4167 6.94711 35.9355 7.71501 35.9355 8.58129V11.3134C35.9355 12.4768 34.989 13.4233 33.8256 13.4233H2.17591C1.01247 13.4233 0.065937 12.4768 0.065937 11.3134V8.58129C0.065937 7.71501 0.584778 6.94711 1.38819 6.62387ZM16.9458 7.86699C16.9458 8.44963 17.4181 8.92198 18.0007 8.92198C18.5834 8.92198 19.0557 8.44963 19.0557 7.86699V5.61635C19.0557 5.03372 18.5834 4.56136 18.0007 4.56136C17.4181 4.56136 16.9458 5.03372 16.9458 5.61635V7.86699Z" fill="#00AA72"/>
<path d="M32.5605 15.5332H25.9493V27.2084H32.5605V15.5332Z" fill="#00AA72"/>
</g>
<defs>
<clipPath id="clip0_10803_4444">
<rect width="36" height="36" fill="white" transform="matrix(-1 0 0 1 36 0)"/>
</clipPath>
</defs>
</svg>
