<svg width="41" height="41" viewBox="0 0 41 41" fill="none" xmlns="http://www.w3.org/2000/svg">
<g clip-path="url(#clip0_11819_4184)">
<path d="M17.0833 39.2918C17.0833 39.7449 16.9033 40.1794 16.583 40.4998C16.2626 40.8202 15.8281 41.0002 15.375 41.0002H1.70833C1.25526 41.0002 0.820734 40.8202 0.500359 40.4998C0.179985 40.1794 0 39.7449 0 39.2918C0 38.8388 0.179985 38.4042 0.500359 38.0839C0.820734 37.7635 1.25526 37.5835 1.70833 37.5835H15.375C15.8281 37.5835 16.2626 37.7635 16.583 38.0839C16.9033 38.4042 17.0833 38.8388 17.0833 39.2918Z" fill="#00AA72"/>
<path d="M1.70833 34.1667H11.9583C12.4114 34.1667 12.8459 33.9867 13.1663 33.6663C13.4867 33.3459 13.6667 32.9114 13.6667 32.4583C13.6667 32.0053 13.4867 31.5707 13.1663 31.2504C12.8459 30.93 12.4114 30.75 11.9583 30.75H1.70833C1.25526 30.75 0.820734 30.93 0.500359 31.2504C0.179985 31.5707 0 32.0053 0 32.4583C0 32.9114 0.179985 33.3459 0.500359 33.6663C0.820734 33.9867 1.25526 34.1667 1.70833 34.1667Z" fill="#00AA72"/>
<path d="M1.70833 27.3332H8.54167C8.99475 27.3332 9.42927 27.1532 9.74964 26.8328C10.07 26.5124 10.25 26.0779 10.25 25.6248C10.25 25.1718 10.07 24.7372 9.74964 24.4169C9.42927 24.0965 8.99475 23.9165 8.54167 23.9165H1.70833C1.25526 23.9165 0.820734 24.0965 0.500359 24.4169C0.179985 24.7372 0 25.1718 0 25.6248C0 26.0779 0.179985 26.5124 0.500359 26.8328C0.820734 27.1532 1.25526 27.3332 1.70833 27.3332Z" fill="#00AA72"/>
<path d="M20.5 0C15.0631 0 9.84881 2.15982 6.00431 6.00431C2.15982 9.84881 0 15.0631 0 20.5C0 20.6042 0.0136667 20.705 0.015375 20.8092C0.557934 20.6104 1.13051 20.5058 1.70833 20.5H8.54167C9.38028 20.4972 10.2067 20.7008 10.9479 21.0931C11.6892 21.4853 12.3225 22.054 12.7918 22.7489C13.2612 23.4439 13.5523 24.2437 13.6393 25.0778C13.7263 25.9119 13.6067 26.7546 13.2908 27.5315C13.9903 27.7151 14.6425 28.0458 15.204 28.5015C15.7654 28.9573 16.2231 29.5277 16.5466 30.1745C16.87 30.8213 17.0516 31.5297 17.0794 32.2523C17.1071 32.9749 16.9803 33.6951 16.7075 34.3648C17.3907 34.5391 18.0297 34.8548 18.5832 35.2916C19.1367 35.7284 19.5923 36.2765 19.9206 36.9004C20.2489 37.5244 20.4426 38.2103 20.4892 38.9139C20.5357 39.6174 20.4341 40.3229 20.1908 40.9846C20.295 40.9846 20.3958 41 20.5 41C25.9369 41 31.1512 38.8402 34.9957 34.9957C38.8402 31.1512 41 25.9369 41 20.5C41 15.0631 38.8402 9.84881 34.9957 6.00431C31.1512 2.15982 25.9369 0 20.5 0ZM26.8328 26.8328C26.5124 27.1531 26.078 27.333 25.625 27.333C25.172 27.333 24.7376 27.1531 24.4172 26.8328L19.2922 21.7078C18.9718 21.3875 18.7918 20.953 18.7917 20.5V11.9583C18.7917 11.5053 18.9717 11.0707 19.292 10.7504C19.6124 10.43 20.0469 10.25 20.5 10.25C20.9531 10.25 21.3876 10.43 21.708 10.7504C22.0283 11.0707 22.2083 11.5053 22.2083 11.9583V19.7928L26.8328 24.4172C27.1531 24.7376 27.333 25.172 27.333 25.625C27.333 26.078 27.1531 26.5124 26.8328 26.8328Z" fill="#00AA72"/>
</g>
<defs>
<clipPath id="clip0_11819_4184">
<rect width="41" height="41" fill="white"/>
</clipPath>
</defs>
</svg>
