<svg width="36" height="36" viewBox="0 0 36 36" fill="none" xmlns="http://www.w3.org/2000/svg">
<path d="M24.75 9.5625C24.75 10.8975 24.3541 12.2026 23.6124 13.3126C22.8707 14.4226 21.8165 15.2878 20.5831 15.7987C19.3497 16.3096 17.9925 16.4433 16.6831 16.1828C15.3738 15.9223 14.171 15.2795 13.227 14.3355C12.283 13.3915 11.6402 12.1887 11.3797 10.8794C11.1192 9.56999 11.2529 8.21279 11.7638 6.97939C12.2747 5.74599 13.1399 4.69178 14.2499 3.95008C15.3599 3.20838 16.665 2.8125 18 2.8125C19.7902 2.8125 21.5071 3.52366 22.773 4.78953C24.0388 6.0554 24.75 7.77229 24.75 9.5625ZM33.1875 27.5625C33.1886 28.6866 32.8562 29.7858 32.2324 30.7209C31.6085 31.6561 30.7213 32.3851 29.683 32.8158C28.6446 33.2465 27.5019 33.3595 26.3993 33.1405C25.2967 32.9214 24.2839 32.3802 23.489 31.5854C22.6941 30.7905 22.1529 29.7777 21.9339 28.6751C21.7149 27.5725 21.8278 26.4297 22.2585 25.3914C22.6892 24.3531 23.4183 23.4658 24.3534 22.842C25.2886 22.2182 26.3878 21.8858 27.5119 21.8869C29.0171 21.8869 30.4608 22.4848 31.5251 23.5492C32.5895 24.6136 33.1875 26.0572 33.1875 27.5625ZM30.9375 27.5625C30.9375 27.4133 30.8782 27.2702 30.7727 27.1648C30.6673 27.0593 30.5242 27 30.375 27H28.125V24.75C28.125 24.6008 28.0657 24.4577 27.9602 24.3523C27.8548 24.2468 27.7117 24.1875 27.5625 24.1875C27.4133 24.1875 27.2702 24.2468 27.1648 24.3523C27.0593 24.4577 27 24.6008 27 24.75V27H24.75C24.6008 27 24.4577 27.0593 24.3523 27.1648C24.2468 27.2702 24.1875 27.4133 24.1875 27.5625C24.1875 27.7117 24.2468 27.8548 24.3523 27.9602C24.4577 28.0657 24.6008 28.125 24.75 28.125H27V30.375C27 30.5242 27.0593 30.6673 27.1648 30.7727C27.2702 30.8782 27.4133 30.9375 27.5625 30.9375C27.7117 30.9375 27.8548 30.8782 27.9602 30.7727C28.0657 30.6673 28.125 30.5242 28.125 30.375V28.125H30.375C30.5242 28.125 30.6673 28.0657 30.7727 27.9602C30.8782 27.8548 30.9375 27.7117 30.9375 27.5625ZM20.7056 27.5625C20.7091 25.7962 21.3985 24.1003 22.6285 22.8325C23.8584 21.5648 25.5327 20.8244 27.2981 20.7675C26.5134 20.2376 25.6548 19.8263 24.75 19.5469C24.4856 19.4625 24.2213 19.4006 23.9513 19.3388L23.715 19.2937C23.5012 19.2544 23.2875 19.2262 23.0681 19.1981L22.815 19.17C22.5281 19.17 22.2525 19.125 21.9375 19.125H14.0625C13.7644 19.125 13.4719 19.125 13.185 19.17L12.9319 19.1981C12.7125 19.1981 12.4988 19.2544 12.285 19.2937L12.0544 19.3388C11.7787 19.4006 11.4919 19.4625 11.25 19.5469C9.29533 20.1484 7.585 21.3607 6.37011 23.0059C5.15521 24.651 4.49977 26.6424 4.5 28.6875C4.5 29.881 4.97411 31.0256 5.81802 31.8695C6.66193 32.7134 7.80653 33.1875 9 33.1875H23.6869C22.7694 32.5636 22.0183 31.725 21.4987 30.7447C20.9791 29.7644 20.7069 28.672 20.7056 27.5625Z" fill="white"/>
</svg>
