<svg width="32" height="30" viewBox="0 0 32 30" fill="none" xmlns="http://www.w3.org/2000/svg">
<path d="M27.8213 17.6732V7.30004C27.8213 6.03129 26.7831 4.99316 25.5125 4.99316H2.33812C1.06938 4.99379 0.03125 6.03191 0.03125 7.30004V22.9082C0.03125 24.1769 1.06938 25.215 2.33812 25.215H23.21C22.8469 24.5063 22.6431 23.7057 22.6431 22.855C22.6431 19.9925 24.96 17.6732 27.8213 17.6732ZM16.0344 10.0907H25.3425C25.6263 10.0907 25.8563 10.3225 25.8563 10.6063C25.8563 10.8913 25.6256 11.1219 25.3425 11.1219H16.0344C15.7494 11.1219 15.5188 10.8913 15.5188 10.6063C15.5188 10.3225 15.7494 10.0907 16.0344 10.0907ZM16.0344 13.09H22.5875C22.8725 13.09 23.1031 13.3207 23.1031 13.6057C23.1031 13.8894 22.8725 14.1194 22.5875 14.1194H16.0344C15.7494 14.1194 15.5188 13.8888 15.5188 13.6057C15.5188 13.3207 15.7494 13.09 16.0344 13.09ZM16.0344 16.0875H25.3425C25.6263 16.0875 25.8563 16.3194 25.8563 16.6032C25.8563 16.8882 25.6256 17.1188 25.3425 17.1188H16.0344C15.7494 17.1188 15.5188 16.8882 15.5188 16.6032C15.5188 16.32 15.7494 16.0875 16.0344 16.0875ZM14.3569 21.7644C14.3569 22.1913 14.1812 22.5813 13.9 22.8625C13.6181 23.1444 13.2288 23.3194 12.8019 23.3194H11.4875V20.8675C11.4875 20.5825 11.2575 20.3519 10.9719 20.3519C10.6881 20.3519 10.4581 20.5825 10.4581 20.8675V23.3194H5.89375V20.8675C5.89375 20.5825 5.66313 20.3519 5.37813 20.3519C5.09438 20.3519 4.86438 20.5825 4.86438 20.8675V23.3194H3.55C3.12313 23.3194 2.73312 23.1438 2.45187 22.8625C2.17 22.5807 1.995 22.1913 1.995 21.7644V18.4744C1.995 18.09 2.10125 17.7288 2.29625 17.42C2.48938 17.1119 2.76937 16.86 3.11812 16.6938V16.6957L6.03625 15.3013V15.0444C5.26 14.4494 4.70375 13.5919 4.39563 12.6582C4.16875 11.9675 4.07875 11.2319 4.135 10.5307C4.19375 9.81129 4.40625 9.12066 4.785 8.53566C5.4225 7.55754 6.50375 6.88816 8.08562 6.88816C9.66625 6.88816 10.7481 7.55754 11.3844 8.53566C11.765 9.12004 11.9781 9.81129 12.0344 10.5307C12.0931 11.2325 12.0006 11.9675 11.7738 12.6582C11.49 13.5175 10.9975 14.3113 10.3138 14.8975V15.3013L13.1944 16.6782C13.2069 16.6819 13.2212 16.6888 13.2331 16.6938C13.5806 16.86 13.86 17.1119 14.055 17.42C14.25 17.7282 14.3562 18.09 14.3562 18.4744V21.7644H14.3569ZM16.0344 20.1163C15.7494 20.1163 15.5188 19.8857 15.5188 19.6025C15.5188 19.3175 15.7494 19.0869 16.0344 19.0869H22.5875C22.8725 19.0869 23.1031 19.3175 23.1031 19.6025C23.1031 19.8863 22.8725 20.1163 22.5875 20.1163H16.0344ZM27.8213 18.7025C25.5356 18.7025 23.6719 20.5682 23.6719 22.855C23.6719 25.1407 25.5356 27.0063 27.8213 27.0063C30.105 27.0063 31.9688 25.1407 31.9688 22.855C31.9688 20.5682 30.105 18.7025 27.8213 18.7025ZM30.27 21.7869L27.4281 24.6463C27.2281 24.8482 26.9019 24.8482 26.7019 24.6482L25.3731 23.325C25.1712 23.125 25.1712 22.8007 25.3713 22.5988C25.5713 22.3988 25.8956 22.3969 26.0975 22.5969L27.0613 23.5569L29.5419 21.0625C29.7419 20.8625 30.0681 20.8607 30.2681 21.0607C30.47 21.2607 30.47 21.5869 30.27 21.7869ZM8.63813 15.765C8.86313 15.71 9.07938 15.6357 9.285 15.5469V16.0663C9.285 16.3713 9.15938 16.6494 8.95875 16.8494C8.75688 17.0513 8.48063 17.1757 8.17562 17.1757C7.87063 17.1757 7.59438 17.0519 7.3925 16.8494C7.19062 16.6494 7.06625 16.3713 7.06625 16.0663V15.62C7.21688 15.6769 7.37125 15.7263 7.53062 15.765C7.72375 15.8132 7.90438 15.8357 8.085 15.8357C8.26437 15.8363 8.44625 15.8132 8.63813 15.765ZM5.7025 11.1375C5.54812 11.3569 5.38 11.5344 5.20813 11.6675C5.14937 11.315 5.13188 10.9569 5.16 10.61C5.20437 10.0538 5.36375 9.52941 5.64563 9.09504C6.10125 8.39504 6.89813 7.91879 8.085 7.91879C9.27188 7.91879 10.0675 8.39566 10.5225 9.09504C10.8044 9.52879 10.9637 10.0538 11.0081 10.61C11.0138 10.6807 11.0188 10.7538 11.0206 10.8263C10.5425 10.3957 9.97375 10.4138 9.35 10.4332C8.70875 10.4544 7.98063 10.4775 7.25938 9.34879C7.10687 9.11129 6.79 9.04066 6.5525 9.19316C6.425 9.27441 6.345 9.40191 6.3225 9.54066H6.32062C6.20875 10.2038 5.98187 10.7375 5.7025 11.1375ZM10.7675 12.4207C10.5194 13.1332 10.0925 13.7775 9.50937 14.2263C9.495 14.2369 9.4825 14.2457 9.46875 14.2582C9.15312 14.4919 8.79375 14.6694 8.39188 14.7682C8.2875 14.7932 8.18625 14.8069 8.08562 14.8069C7.98312 14.8069 7.88188 14.7925 7.7775 14.7682C7.4425 14.685 7.13438 14.5488 6.86 14.3675C6.84375 14.3569 6.83 14.3463 6.81375 14.3375C6.2325 13.9444 5.79125 13.3594 5.51 12.7007C5.88 12.4882 6.24 12.1619 6.54313 11.73C6.74312 11.4463 6.92062 11.1138 7.06375 10.7344C7.87187 11.5088 8.66563 11.4819 9.38313 11.4588C9.94375 11.4407 10.4306 11.425 10.7675 12.4207Z" fill="white"/>
</svg>
