<svg width="47" height="43" viewBox="0 0 47 43" fill="none" xmlns="http://www.w3.org/2000/svg">
<path d="M40.625 4.33333H19.8556C19.7128 4.33333 19.5741 4.27613 19.4725 4.17473L16.4086 1.11085C15.6923 0.393467 14.7403 0 13.7278 0H5.95833C2.67237 0 0 2.67237 0 5.95833V36.2917C0 39.5776 2.67237 42.25 5.95833 42.25H40.625C43.911 42.25 46.5833 39.5776 46.5833 36.2917V10.2917C46.5833 7.0057 43.911 4.33333 40.625 4.33333ZM23.2917 33.5833C19.6777 33.5833 16.3928 31.7382 14.5032 28.6492C14.0357 27.8833 14.2768 26.8825 15.0427 26.4149C15.8065 25.9409 16.8075 26.1885 17.277 26.9523C18.5699 29.0702 20.8191 30.3333 23.2915 30.3333C27.1741 30.3333 30.3331 27.1743 30.3331 23.2917C30.3331 19.409 27.1741 16.25 23.2915 16.25C22.1626 16.25 21.0704 16.5325 20.0922 17.0374L22.1765 17.2995C23.0661 17.4118 23.6977 18.2243 23.5857 19.115C23.4819 19.9359 22.7827 20.5368 21.9754 20.5368C21.9078 20.5368 21.8389 20.5324 21.7702 20.524L16.086 19.8088C15.6585 19.7559 15.2692 19.5336 15.0059 19.193C14.7414 18.8524 14.6228 18.4208 14.6768 17.9933L15.3942 12.308C15.5073 11.4173 16.3208 10.7952 17.2096 10.8988C18.1003 11.011 18.7308 11.8235 18.6188 12.7142L18.4238 14.258C19.9021 13.4546 21.567 13 23.2917 13C28.9664 13 33.5833 17.617 33.5833 23.2917C33.5833 28.9664 28.9664 33.5833 23.2917 33.5833Z" fill="#00AA72"/>
</svg>
