<svg width="41" height="42" viewBox="0 0 41 42" fill="none" xmlns="http://www.w3.org/2000/svg">
<path fill-rule="evenodd" clip-rule="evenodd" d="M40.5121 13.2188V36.7188C40.5121 37.8879 40.0384 39.0085 39.1939 39.834C38.3494 40.6609 37.2047 41.125 36.0108 41.125H12.0036C10.8097 41.125 9.66502 40.6609 8.82048 39.834C7.97594 39.0085 7.50225 37.8879 7.50225 36.7188V26.2436C8.23318 26.3714 8.98556 26.4375 9.75293 26.4375C16.7922 26.4375 22.5067 20.843 22.5067 13.9531C22.5067 7.06322 16.7922 1.46875 9.75293 1.46875C9.36496 1.46875 8.98125 1.48637 8.60399 1.51868C9.42924 0.588964 10.6467 0 12.0036 0H27.0081V8.8125C27.0081 9.98163 27.4818 11.1023 28.3263 11.9277C29.1709 12.7546 30.3155 13.2188 31.5094 13.2188H40.5121ZM16.5049 33.7812V32.3125C16.5049 31.5018 15.8319 30.8438 15.0045 30.8438C14.1771 30.8438 13.5041 31.5018 13.5041 32.3125V33.7812C13.5041 34.592 14.1771 35.25 15.0045 35.25C15.8319 35.25 16.5049 34.592 16.5049 33.7812ZM22.5067 33.7812V27.9062C22.5067 27.0955 21.8337 26.4375 21.0063 26.4375C20.1789 26.4375 19.5058 27.0955 19.5058 27.9062V33.7812C19.5058 34.592 20.1789 35.25 21.0063 35.25C21.8337 35.25 22.5067 34.592 22.5067 33.7812ZM28.5086 33.7812V29.375C28.5086 28.5643 27.8355 27.9062 27.0081 27.9062C26.1807 27.9062 25.5076 28.5643 25.5076 29.375V33.7812C25.5076 34.592 26.1807 35.25 27.0081 35.25C27.8355 35.25 28.5086 34.592 28.5086 33.7812ZM34.5103 33.7812V23.5C34.5103 22.6893 33.8373 22.0312 33.0099 22.0312C32.1825 22.0312 31.5094 22.6893 31.5094 23.5V33.7812C31.5094 34.592 32.1825 35.25 33.0099 35.25C33.8373 35.25 34.5103 34.592 34.5103 33.7812ZM30.009 0.0279021C31.0872 0.14834 32.0925 0.647722 32.8298 1.44232L39.3418 8.45265C39.8284 8.97846 40.1756 9.60562 40.3599 10.2812H31.5094C31.1108 10.2812 30.7292 10.127 30.4484 9.85091C30.1676 9.57625 30.009 9.20172 30.009 8.8125V0.0279021ZM19.3901 15.4219C18.6677 19.9941 14.6251 23.5 9.75293 23.5C4.3706 23.5 0 19.2215 0 13.9531C0 9.18409 3.58177 5.22582 8.25245 4.51935V12.4844C8.25245 14.1073 9.59645 15.4219 11.2534 15.4219H19.3901ZM11.2534 4.51935C15.4353 5.15238 18.7449 8.39097 19.3901 12.4844H11.2534V4.51935Z" fill="#00AA72"/>
</svg>
