<svg width="47" height="47" viewBox="0 0 47 47" fill="none" xmlns="http://www.w3.org/2000/svg">
<path d="M23.5 0C10.542 0 0 10.542 0 23.5C0 36.458 10.542 46.9998 23.5 46.9998C36.458 46.9998 47 36.4577 47 23.5C47 10.5423 36.4577 0 23.5 0ZM35.3575 20.8695L30.7143 25.3957L31.8106 31.7867C31.9244 32.4513 31.6511 33.1232 31.1056 33.5197C30.7968 33.7439 30.4313 33.858 30.0639 33.858C29.7821 33.858 29.4988 33.7906 29.2396 33.6546L23.5002 30.6371L17.7606 33.6548C17.1634 33.9688 16.4402 33.9163 15.8947 33.5199C15.3489 33.1235 15.0756 32.4515 15.1897 31.7869L16.2859 25.396L11.6423 20.8695C11.1594 20.3987 10.9857 19.6946 11.1941 19.0532C11.4025 18.4117 11.957 17.9442 12.6246 17.8473L19.0414 16.9148L21.9109 11.1001C22.2096 10.4952 22.8255 10.1123 23.5 10.1123C24.1745 10.1123 24.7904 10.4952 25.0891 11.1001L27.9586 16.9148L34.3754 17.8473C35.0428 17.9442 35.5975 18.4117 35.8059 19.0532C36.0143 19.6946 35.8404 20.3989 35.3575 20.8695Z" fill="#00AA72"/>
</svg>
