<svg width="37" height="36" viewBox="0 0 37 36" fill="none" xmlns="http://www.w3.org/2000/svg">
<path d="M36.6667 16.0417C36.6667 18.0675 35.0258 19.7083 33 19.7083H3.66667C1.64083 19.7083 0 18.0675 0 16.0417C0 14.0158 1.64083 12.375 3.66667 12.375H4.257C5.16083 5.40467 11.121 0 18.3333 0C25.5457 0 31.5058 5.40467 32.4097 12.375H33C35.0258 12.375 36.6667 14.0158 36.6667 16.0417ZM33 22.4583C33.4767 22.4583 33.935 22.4033 34.375 22.3117V26.6017C34.375 31.6433 30.2683 35.75 25.2267 35.75C22.77 35.75 20.4783 34.7967 18.755 33.0733L18.3333 32.6517L17.9117 33.0733C16.1883 34.7967 13.8967 35.75 11.44 35.75C6.39833 35.75 2.29167 31.6433 2.29167 26.6017V22.3117C2.73167 22.4033 3.19 22.4583 3.66667 22.4583H33ZM14.2083 28.875C14.2083 28.116 13.5923 27.5 12.8333 27.5H9.16667C8.40767 27.5 7.79167 28.116 7.79167 28.875C7.79167 29.634 8.40767 30.25 9.16667 30.25H12.8333C13.5923 30.25 14.2083 29.634 14.2083 28.875ZM28.875 28.875C28.875 28.116 28.259 27.5 27.5 27.5H23.8333C23.0743 27.5 22.4583 28.116 22.4583 28.875C22.4583 29.634 23.0743 30.25 23.8333 30.25H27.5C28.259 30.25 28.875 29.634 28.875 28.875Z" fill="#00AA72"/>
</svg>
