<svg width="101" height="93" viewBox="0 0 101 93" fill="none" xmlns="http://www.w3.org/2000/svg">
<path d="M0.00304785 46.5022C0.0133044 37.2559 3.69092 28.3912 10.229 21.8531C16.7671 15.315 25.6318 11.6374 34.878 11.6272H87.5248L82.5115 6.61872C81.7844 5.89161 81.3759 4.90544 81.3759 3.87715C81.3759 2.84887 81.7844 1.8627 82.5115 1.13559C83.2386 0.408484 84.2248 2.42272e-08 85.253 0C86.2813 -2.42272e-08 87.2675 0.408485 87.9946 1.13559L99.6196 12.7606C99.9799 13.1205 100.266 13.5478 100.461 14.0183C100.656 14.4887 100.756 14.9929 100.756 15.5022C100.756 16.0114 100.656 16.5156 100.461 16.986C100.266 17.4565 99.9799 17.8838 99.6196 18.2437L87.9946 29.8687C87.2675 30.5958 86.2813 31.0043 85.253 31.0043C84.2248 31.0043 83.2386 30.5958 82.5115 29.8687C81.7844 29.1416 81.3759 28.1554 81.3759 27.1272C81.3759 26.0989 81.7844 25.1127 82.5115 24.3856L87.5248 19.3772H34.878C27.6864 19.3848 20.7915 22.2451 15.7063 27.3304C10.621 32.4156 7.76074 39.3105 7.75305 46.5022C7.75305 47.5299 7.34479 48.5155 6.61809 49.2422C5.89138 49.9689 4.90576 50.3772 3.87805 50.3772C2.85033 50.3772 1.86471 49.9689 1.13801 49.2422C0.411305 48.5155 0.00304785 47.5299 0.00304785 46.5022ZM96.878 42.6272C95.8503 42.6272 94.8647 43.0354 94.138 43.7621C93.4113 44.4888 93.003 45.4744 93.003 46.5022C92.9954 53.6938 90.1351 60.5887 85.0498 65.6739C79.9646 70.7592 73.0697 73.6195 65.878 73.6272H13.2313L18.2446 68.6187C18.6046 68.2587 18.8902 67.8313 19.0851 67.3609C19.2799 66.8905 19.3802 66.3863 19.3802 65.8772C19.3802 65.368 19.2799 64.8638 19.0851 64.3934C18.8902 63.923 18.6046 63.4956 18.2446 63.1356C17.8846 62.7756 17.4572 62.49 16.9868 62.2951C16.5164 62.1003 16.0122 62 15.503 62C14.9939 62 14.4897 62.1003 14.0193 62.2951C13.5489 62.49 13.1215 62.7756 12.7615 63.1356L1.13649 74.7606C0.776202 75.1205 0.490385 75.5478 0.295379 76.0183C0.100372 76.4887 0 76.9929 0 77.5022C0 78.0114 0.100372 78.5156 0.295379 78.986C0.490385 79.4565 0.776202 79.8838 1.13649 80.2437L12.7615 91.8687C13.1215 92.2288 13.5489 92.5143 14.0193 92.7092C14.4897 92.904 14.9939 93.0043 15.503 93.0043C16.0122 93.0043 16.5164 92.904 16.9868 92.7092C17.4572 92.5143 17.8846 92.2288 18.2446 91.8687C18.6046 91.5087 18.8902 91.0813 19.0851 90.6109C19.2799 90.1405 19.3802 89.6363 19.3802 89.1272C19.3802 88.618 19.2799 88.1138 19.0851 87.6434C18.8902 87.173 18.6046 86.7456 18.2446 86.3856L13.2313 81.3772H65.878C75.1243 81.3669 83.989 77.6893 90.5271 71.1512C97.0652 64.6131 100.743 55.7484 100.753 46.5022C100.753 45.4744 100.345 44.4888 99.6181 43.7621C98.8914 43.0354 97.9058 42.6272 96.878 42.6272Z" fill="black"/>
</svg>
