<svg width="62" height="62" viewBox="0 0 62 62" fill="none" xmlns="http://www.w3.org/2000/svg">
<rect width="62" height="62" rx="31" fill="white"/>
<path d="M15.3838 31.0001C15.3869 28.1338 16.527 25.3858 18.5538 23.3589C20.5806 21.3321 23.3287 20.1921 26.195 20.1889H42.5155L40.9614 18.6363C40.736 18.4109 40.6093 18.1052 40.6093 17.7864C40.6093 17.4676 40.736 17.1619 40.9614 16.9365C41.1868 16.7111 41.4925 16.5845 41.8113 16.5845C42.13 16.5845 42.4357 16.7111 42.6611 16.9365L46.2649 20.5403C46.3766 20.6518 46.4652 20.7843 46.5256 20.9301C46.5861 21.076 46.6172 21.2323 46.6172 21.3901C46.6172 21.548 46.5861 21.7043 46.5256 21.8501C46.4652 21.996 46.3766 22.1285 46.2649 22.24L42.6611 25.8438C42.4357 26.0692 42.13 26.1958 41.8113 26.1958C41.4925 26.1958 41.1868 26.0692 40.9614 25.8438C40.736 25.6184 40.6093 25.3127 40.6093 24.9939C40.6093 24.6751 40.736 24.3694 40.9614 24.144L42.5155 22.5914H26.195C23.9656 22.5938 21.8282 23.4805 20.2518 25.0569C18.6753 26.6333 17.7886 28.7707 17.7863 31.0001C17.7863 31.3187 17.6597 31.6243 17.4344 31.8496C17.2091 32.0748 16.9036 32.2014 16.585 32.2014C16.2664 32.2014 15.9609 32.0748 15.7356 31.8496C15.5103 31.6243 15.3838 31.3187 15.3838 31.0001ZM45.415 29.7989C45.0964 29.7989 44.7909 29.9255 44.5656 30.1507C44.3403 30.376 44.2138 30.6816 44.2138 31.0001C44.2114 33.2295 43.3247 35.367 41.7483 36.9434C40.1718 38.5198 38.0344 39.4065 35.805 39.4089H19.4845L21.0386 37.8563C21.1502 37.7447 21.2388 37.6122 21.2992 37.4663C21.3596 37.3205 21.3907 37.1642 21.3907 37.0064C21.3907 36.8486 21.3596 36.6923 21.2992 36.5464C21.2388 36.4006 21.1502 36.2681 21.0386 36.1565C20.927 36.0449 20.7945 35.9564 20.6487 35.896C20.5029 35.8356 20.3466 35.8045 20.1888 35.8045C20.0309 35.8045 19.8746 35.8356 19.7288 35.896C19.583 35.9564 19.4505 36.0449 19.3389 36.1565L15.7351 39.7603C15.6234 39.8718 15.5348 40.0043 15.4744 40.1501C15.4139 40.296 15.3828 40.4523 15.3828 40.6101C15.3828 40.768 15.4139 40.9243 15.4744 41.0701C15.5348 41.216 15.6234 41.3485 15.7351 41.46L19.3389 45.0638C19.4505 45.1754 19.583 45.2639 19.7288 45.3243C19.8746 45.3847 20.0309 45.4158 20.1888 45.4158C20.3466 45.4158 20.5029 45.3847 20.6487 45.3243C20.7945 45.2639 20.927 45.1754 21.0386 45.0638C21.1502 44.9522 21.2388 44.8197 21.2992 44.6738C21.3596 44.528 21.3907 44.3717 21.3907 44.2139C21.3907 44.0561 21.3596 43.8998 21.2992 43.7539C21.2388 43.6081 21.1502 43.4756 21.0386 43.364L19.4845 41.8114H35.805C38.6714 41.8082 41.4194 40.6682 43.4462 38.6413C45.473 36.6145 46.6131 33.8665 46.6163 31.0001C46.6163 30.6816 46.4897 30.376 46.2644 30.1507C46.0391 29.9255 45.7336 29.7989 45.415 29.7989Z" fill="black"/>
</svg>
