<svg width="40" height="40" viewBox="0 0 40 40" fill="none" xmlns="http://www.w3.org/2000/svg">
<path d="M5.00063 10.425V3.48164C4.96156 1.60047 6.45281 0.0428125 8.33399 0H15.0006C15.962 0 16.7415 0.779375 16.7415 1.74086C16.7415 2.70234 15.9621 3.48172 15.0006 3.48172H10.7323L20.5756 13.7784C20.6432 13.851 20.738 13.8921 20.8373 13.8917C20.9359 13.893 21.0303 13.8524 21.0973 13.7801L32.574 1.815C34.1773 0.198359 36.4473 2.71836 34.9306 4.27336L23.4556 16.2334C22.7758 16.9537 21.8295 17.3623 20.839 17.3634C19.8467 17.3613 18.8991 16.9509 18.219 16.2284L8.33399 5.88836V10.425C8.33399 11.3455 7.58781 12.0916 6.66734 12.0916C5.74688 12.0916 5.00063 11.3455 5.00063 10.425ZM37.409 26.7584C29.9273 18.9617 10.0756 18.96 2.59399 26.7584C0.903595 28.5195 -0.0276554 30.8741 0.000625814 33.315L0.135626 35.2716C0.0862508 37.8268 2.11234 39.9408 4.66727 40C4.74063 40 8.87227 39.44 8.87227 39.44C11.335 39.3196 13.2735 37.294 13.2856 34.8284L13.549 31.6984C15.596 30.8552 17.7868 30.4161 20.0006 30.405C22.216 30.437 24.4062 30.8813 26.459 31.715L26.719 34.8284C26.7311 37.2941 28.6695 39.3196 31.1323 39.44C31.1323 39.44 35.264 40 35.3373 40C37.8522 39.9591 39.8694 37.9085 39.869 35.3934L40.0006 33.1984C40.0038 30.7981 39.0739 28.4906 37.4073 26.7634L37.409 26.7584Z" fill="#00AA72"/>
</svg>
