<svg width="40" height="40" viewBox="0 0 40 40" fill="none" xmlns="http://www.w3.org/2000/svg">
<path d="M15 20C9.485 20 5 15.515 5 10C5 4.485 9.485 0 15 0C20.515 0 25 4.485 25 10C25 15.515 20.515 20 15 20ZM35.8917 33.3333H40V30H34.1083L31.8733 33.3533L26.8733 23.3533L22.4417 30H18.3333V33.3333H24.225L26.46 29.98L31.46 40L35.8917 33.3333ZM26.0767 36.6667H15V26.6667H20.6567L22.8017 23.4483C22.4267 23.3967 22.055 23.3333 21.665 23.3333H8.33333C3.73833 23.3333 0 27.0717 0 31.6667V40H27.7433L26.0767 36.6667Z" fill="#00AA72"/>
</svg>
