<svg width="40" height="40" viewBox="0 0 40 40" fill="none" xmlns="http://www.w3.org/2000/svg">
<path d="M24.6372 32.1983C26.2689 32.9183 28.0689 33.3267 29.9639 33.3317C29.9739 34.91 29.4472 36.4533 28.3972 37.6733C27.1222 39.1533 25.2739 40 23.3239 40H6.67392C4.72392 40 2.87558 39.15 1.60225 37.67C0.34725 36.2133 -0.209417 34.2967 0.0739165 32.4083C0.750583 27.91 3.21558 23.745 7.40892 20.0017C3.21392 16.2567 0.748917 12.0917 0.0722499 7.59333C-0.211083 5.705 0.34725 3.78833 1.60058 2.33167C2.87558 0.85 4.72392 0 6.67392 0H23.3239C25.2739 0 27.1222 0.846667 28.3972 2.32667C29.4472 3.545 29.9739 5.09 29.9639 6.66833C22.6289 6.68833 16.6672 12.66 16.6672 20C16.6672 21.0933 16.8139 22.15 17.0639 23.1683L16.0439 22.355C15.4356 21.8717 14.5772 21.8717 13.9689 22.3517L12.7956 23.2833C10.2006 25.335 6.76392 28.6367 5.12058 32.71C4.91225 33.225 4.97558 33.8067 5.28392 34.2667C5.59392 34.725 6.11225 35 6.66558 35H23.3322C23.8872 35 24.4056 34.7267 24.7139 34.2667C25.0239 33.8083 25.0856 33.2233 24.8772 32.71C24.8072 32.535 24.7156 32.3717 24.6389 32.2L24.6372 32.1983ZM40.0006 20C40.0006 25.515 35.5156 30 30.0006 30C24.4856 30 20.0006 25.515 20.0006 20C20.0006 14.485 24.4856 10 30.0006 10C35.5156 10 40.0006 14.485 40.0006 20ZM33.6789 21.3217L31.6672 19.31V15.8333C31.6672 14.9133 30.9206 14.1667 30.0006 14.1667C29.0806 14.1667 28.3339 14.9133 28.3339 15.8333V20C28.3339 20.4417 28.5089 20.8667 28.8222 21.1783L31.3222 23.6783C31.6472 24.0033 32.0739 24.1667 32.5006 24.1667C32.9272 24.1667 33.3539 24.0033 33.6789 23.6783C34.3306 23.0267 34.3306 21.9733 33.6789 21.3217ZM9.41058 31.665H20.5806C19.0406 29.2833 16.7489 27.18 15.0006 25.7867C13.2556 27.1667 10.9472 29.2783 9.41058 31.665Z" fill="#00AA72"/>
</svg>
