<svg width="60" height="60" viewBox="0 0 60 60" fill="none" xmlns="http://www.w3.org/2000/svg">
<path fill-rule="evenodd" clip-rule="evenodd" d="M30.0009 43.0353C22.823 43.0353 16.9656 37.1779 16.9656 30C16.9656 22.8221 22.823 16.9647 30.0009 16.9647C37.1788 16.9647 43.0362 22.8221 43.0362 30C43.0362 37.1779 37.1788 43.0353 30.0009 43.0353ZM29.0597 22.7387C28.7046 22.8014 28.3587 22.8982 28.0303 23.0275C26.4036 23.668 25.2223 25.0675 25.3146 26.978V26.9786C25.4381 29.504 27.7362 30.5334 29.8604 30.8832L29.8614 30.8833C30.6449 31.0115 31.4968 31.2075 32.177 31.6178C32.7181 31.9441 33.1361 32.4233 33.2268 33.1642C33.3166 33.91 32.9728 34.4427 32.459 34.7968C31.8126 35.2426 30.9367 35.4442 30.1484 35.4629C28.6493 35.4982 27.1154 34.8133 26.7333 33.2788C26.6079 32.7747 26.0967 32.4674 25.5927 32.5928C25.0886 32.7184 24.7813 33.2294 24.9067 33.7335C25.4128 35.7665 27.1239 36.9692 29.0597 37.2711V38.25C29.0597 38.7695 29.4815 39.1912 30.0009 39.1912C30.5203 39.1912 30.9421 38.7695 30.9421 38.25V37.2845C33.1701 36.9797 35.4108 35.5493 35.0955 32.938L35.0954 32.9367C34.7783 30.3398 32.3495 29.3829 30.1653 29.0257C29.5706 28.9278 28.9397 28.776 28.3937 28.5091C27.756 28.1972 27.2353 27.7141 27.1947 26.8869C27.1448 25.8501 27.8369 25.1266 28.7199 24.7791C30.18 24.2042 32.2076 24.5881 32.9706 26.4032C33.1719 26.8821 33.7241 27.1074 34.2029 26.9061C34.6819 26.7048 34.9072 26.1526 34.7059 25.6738C33.9697 23.9227 32.4999 22.9846 30.9421 22.7272V21.75C30.9421 21.2305 30.5203 20.8088 30.0009 20.8088C29.4815 20.8088 29.0597 21.2305 29.0597 21.75V22.7387ZM47.0753 30H58.2362V33.8237L53.5586 35.624C52.9661 38.1167 51.9736 40.494 50.635 42.6789L52.6661 47.2644L47.2653 52.6652L42.6799 50.6341C40.5026 51.9805 38.1176 52.9652 35.6249 53.5577L33.8246 58.2353H26.1849L24.3847 53.5577C21.8842 52.9652 19.5069 51.9727 17.322 50.6341L12.7366 52.6652L7.33574 47.2644L9.37457 42.6789C8.02821 40.5017 7.04339 38.1167 6.44327 35.624L1.76562 33.8237V26.184L6.44327 24.3838C7.04339 21.8833 8.02821 19.506 9.37457 17.3211L7.33574 12.7357L12.7366 7.33483L17.322 9.37365C19.5069 8.0273 21.8842 7.04247 24.3769 6.45012L26.1849 1.76471H30.0019V12.9257H30.0009C20.5984 12.9257 12.9266 20.5975 12.9266 30C12.9266 39.4025 20.5984 47.0744 30.0009 47.0744C39.4034 47.0744 47.0753 39.4025 47.0753 30ZM34.8213 13.6206L37.5679 6.98989C38.5773 7.32342 39.5576 7.72189 40.5041 8.18012L37.7624 14.7988C36.8282 14.3191 35.8444 13.9229 34.8213 13.6206ZM52.751 21.6875L46.1385 24.4266C45.7888 23.4193 45.3472 22.4545 44.8237 21.5419L51.4648 18.7911C51.9541 19.7228 52.3846 20.69 52.751 21.6875ZM40.5592 16.5981L45.635 11.5222C46.4416 12.206 47.203 12.9415 47.9143 13.7234L42.855 18.7827C42.1588 17.9861 41.39 17.2545 40.5592 16.5981Z" fill="#00AA72"/>
</svg>
