<svg width="48" height="48" viewBox="0 0 48 48" fill="none" xmlns="http://www.w3.org/2000/svg">
<path d="M38.5 0H9.5C6.466 0 4 2.466 4 5.5V42.5C4 45.534 6.466 48 9.5 48H38.5C41.534 48 44 45.534 44 42.5V5.5C44 2.466 41.534 0 38.5 0ZM19.56 37.44C20.146 38.026 20.146 38.976 19.56 39.562C19.268 39.854 18.884 40 18.5 40C18.116 40 17.732 39.854 17.44 39.56L16 38.122L14.56 39.562C14.268 39.854 13.884 40 13.5 40C13.116 40 12.732 39.854 12.44 39.56C11.854 38.974 11.854 38.024 12.44 37.438L13.878 36L12.438 34.56C11.852 33.974 11.852 33.024 12.438 32.438C13.024 31.852 13.974 31.852 14.56 32.438L16 33.878L17.44 32.438C18.026 31.852 18.976 31.852 19.562 32.438C20.148 33.024 20.148 33.974 19.562 34.56L18.122 36L19.56 37.44ZM18.5 25.5H17.5V26.5C17.5 27.328 16.828 28 16 28C15.172 28 14.5 27.328 14.5 26.5V25.5H13.5C12.672 25.5 12 24.828 12 24C12 23.172 12.672 22.5 13.5 22.5H14.5V21.5C14.5 20.672 15.172 20 16 20C16.828 20 17.5 20.672 17.5 21.5V22.5H18.5C19.328 22.5 20 23.172 20 24C20 24.828 19.328 25.5 18.5 25.5ZM34.5 40H29.5C28.672 40 28 39.328 28 38.5C28 37.672 28.672 37 29.5 37H34.5C35.328 37 36 37.672 36 38.5C36 39.328 35.328 40 34.5 40ZM34.5 35H29.5C28.672 35 28 34.328 28 33.5C28 32.672 28.672 32 29.5 32H34.5C35.328 32 36 32.672 36 33.5C36 34.328 35.328 35 34.5 35ZM34.5 26H29.5C28.672 26 28 25.328 28 24.5C28 23.672 28.672 23 29.5 23H34.5C35.328 23 36 23.672 36 24.5C36 25.328 35.328 26 34.5 26ZM38 12.5C38 14.43 36.43 16 34.5 16H13.5C11.57 16 10 14.43 10 12.5V9.5C10 7.57 11.57 6 13.5 6H34.5C36.43 6 38 7.57 38 9.5V12.5Z" fill="#00AA72"/>
</svg>
