<svg width="46" height="46" viewBox="0 0 46 46" fill="none" xmlns="http://www.w3.org/2000/svg">
<g clip-path="url(#clip0_10819_4553)">
<path d="M23 13.4167V0.881667C24.7499 1.54483 26.3599 2.56642 27.7246 3.92917L34.4022 10.6107C35.7669 11.9734 36.7885 13.5834 37.4517 15.3333H24.9167C23.8587 15.3333 23 14.4727 23 13.4167ZM37.375 34.5C43.2093 34.5 45.5764 32.9456 46 32.4319V27.7917C46 26.0992 42.4542 24.9167 37.375 24.9167C32.2958 24.9167 28.75 26.0992 28.75 27.7917V32.4319C29.1736 32.9456 31.5407 34.5 37.375 34.5ZM37.375 46C42.8547 46 46 44.4858 46 41.8466V36.8441C43.9319 37.7372 41.0742 38.3333 37.375 38.3333C33.6758 38.3333 30.8181 37.7372 28.75 36.8441V41.8466C28.75 44.4858 31.8953 46 37.375 46ZM24.9167 41.8466V27.7917C24.9167 25.7753 26.1318 21.0833 37.375 21.0833C37.7104 21.0833 38.0075 21.1006 38.3257 21.1082C38.3161 20.3397 38.3027 19.3622 38.2892 19.1667H24.9186C21.7484 19.1667 19.1686 16.5868 19.1686 13.4167V0.046C18.86 0.0249167 18.5514 0 18.239 0H9.58333C4.29908 0 0 4.29908 0 9.58333V36.4167C0 41.7009 4.29908 46 9.58333 46H26.3561C25.1083 44.3862 24.9167 42.6899 24.9167 41.8466ZM11.5 36.4167C11.5 37.4747 10.6432 38.3333 9.58333 38.3333C8.52342 38.3333 7.66667 37.4747 7.66667 36.4167V30.6667C7.66667 29.6087 8.52342 28.75 9.58333 28.75C10.6432 28.75 11.5 29.6087 11.5 30.6667V36.4167ZM19.1667 36.4167C19.1667 37.4747 18.3099 38.3333 17.25 38.3333C16.1901 38.3333 15.3333 37.4747 15.3333 36.4167V23C15.3333 21.942 16.1901 21.0833 17.25 21.0833C18.3099 21.0833 19.1667 21.942 19.1667 23V36.4167Z" fill="#00AA72"/>
</g>
<defs>
<clipPath id="clip0_10819_4553">
<rect width="46" height="46" fill="white"/>
</clipPath>
</defs>
</svg>
