<svg width="60" height="60" viewBox="0 0 60 60" fill="none" xmlns="http://www.w3.org/2000/svg">
<path d="M27.1875 10.3125V23.4375C27.1875 24.4321 26.7924 25.3859 26.0891 26.0891C25.3859 26.7924 24.4321 27.1875 23.4375 27.1875H10.3125C9.31794 27.1875 8.36411 26.7924 7.66085 26.0891C6.95759 25.3859 6.5625 24.4321 6.5625 23.4375V10.3125C6.5625 9.31794 6.95759 8.36411 7.66085 7.66085C8.36411 6.95759 9.31794 6.5625 10.3125 6.5625H23.4375C24.4321 6.5625 25.3859 6.95759 26.0891 7.66085C26.7924 8.36411 27.1875 9.31794 27.1875 10.3125ZM49.6875 6.5625H36.5625C35.5679 6.5625 34.6141 6.95759 33.9109 7.66085C33.2076 8.36411 32.8125 9.31794 32.8125 10.3125V23.4375C32.8125 24.4321 33.2076 25.3859 33.9109 26.0891C34.6141 26.7924 35.5679 27.1875 36.5625 27.1875H49.6875C50.6821 27.1875 51.6359 26.7924 52.3391 26.0891C53.0424 25.3859 53.4375 24.4321 53.4375 23.4375V10.3125C53.4375 9.31794 53.0424 8.36411 52.3391 7.66085C51.6359 6.95759 50.6821 6.5625 49.6875 6.5625ZM23.4375 32.8125H10.3125C9.31794 32.8125 8.36411 33.2076 7.66085 33.9109C6.95759 34.6141 6.5625 35.5679 6.5625 36.5625V49.6875C6.5625 50.6821 6.95759 51.6359 7.66085 52.3391C8.36411 53.0424 9.31794 53.4375 10.3125 53.4375H23.4375C24.4321 53.4375 25.3859 53.0424 26.0891 52.3391C26.7924 51.6359 27.1875 50.6821 27.1875 49.6875V36.5625C27.1875 35.5679 26.7924 34.6141 26.0891 33.9109C25.3859 33.2076 24.4321 32.8125 23.4375 32.8125ZM43.125 32.8125C41.0854 32.8125 39.0916 33.4173 37.3957 34.5505C35.6998 35.6836 34.378 37.2942 33.5975 39.1786C32.817 41.0629 32.6127 43.1364 33.0107 45.1369C33.4086 47.1373 34.3907 48.9748 35.833 50.417C37.2752 51.8593 39.1127 52.8414 41.1131 53.2393C43.1136 53.6373 45.1871 53.433 47.0714 52.6525C48.9558 51.872 50.5664 50.5502 51.6995 48.8543C52.8327 47.1584 53.4375 45.1646 53.4375 43.125C53.4375 40.39 52.351 37.7669 50.417 35.833C48.4831 33.899 45.86 32.8125 43.125 32.8125Z" fill="#00AA72"/>
</svg>
