<svg width="36" height="34" viewBox="0 0 36 34" fill="none" xmlns="http://www.w3.org/2000/svg">
<path fill-rule="evenodd" clip-rule="evenodd" d="M18.8438 18.0683V11.5403C18.8438 11.101 18.4658 10.7444 18 10.7444C17.5343 10.7444 17.1562 11.101 17.1562 11.5403V18.0683C17.1562 18.5076 17.5343 18.8642 18 18.8642C18.4658 18.8642 18.8438 18.5076 18.8438 18.0683Z" fill="#00AA72"/>
<path fill-rule="evenodd" clip-rule="evenodd" d="M17.5779 17.3794L12.9643 19.8914C12.5616 20.1111 12.4232 20.5983 12.6561 20.9793C12.8878 21.3592 13.4053 21.4897 13.8081 21.27L18.4217 18.758C18.8244 18.5383 18.9628 18.0512 18.7311 17.6702C18.4982 17.2903 17.9807 17.1597 17.5779 17.3794Z" fill="#00AA72"/>
<path fill-rule="evenodd" clip-rule="evenodd" d="M22.7786 16.3554C20.8976 19.9054 17.7183 25.9037 15.9825 29.1788C15.5898 29.9185 15.6315 30.7983 16.0927 31.502C16.554 32.2056 17.3696 32.6344 18.246 32.6344H31.8393C32.7168 32.6344 33.5313 32.2056 33.9926 31.502C34.4538 30.7983 34.4955 29.9185 34.104 29.1788C32.3681 25.9037 29.1888 19.9054 27.3067 16.3554C26.8781 15.5467 26.0017 15.0352 25.0432 15.0352C24.0847 15.0352 23.2072 15.5467 22.7786 16.3554ZM24.969 28.0666C25.4336 28.0666 25.8127 28.4232 25.8127 28.8626C25.8127 29.3019 25.4336 29.6585 24.969 29.6585C24.5032 29.6585 24.1252 29.3019 24.1252 28.8626C24.1252 28.4232 24.5032 28.0666 24.969 28.0666ZM24.1252 21.1683V26.4821C24.1252 26.9215 24.5032 27.2781 24.969 27.2781C25.4336 27.2781 25.8127 26.9215 25.8127 26.4821V21.1683C25.8127 20.7289 25.4336 20.3723 24.969 20.3723C24.5032 20.3723 24.1252 20.7289 24.1252 21.1683Z" fill="#00AA72"/>
<path fill-rule="evenodd" clip-rule="evenodd" d="M14.61 32.2618C13.8877 31.1019 13.8349 29.6734 14.4739 28.4667L15.1759 27.1422C10.3969 25.9621 6.86663 21.8571 6.86663 16.9805C6.86663 11.1838 11.856 6.47699 18.0007 6.47699C23.8609 6.47699 28.6702 10.7582 29.1034 16.1824L33.0105 23.5551C33.9971 21.5567 34.5484 19.3291 34.5484 16.9805C34.5484 8.36501 27.1335 1.37012 18.0007 1.37012C8.868 1.37012 1.45312 8.36501 1.45312 16.9805C1.45312 24.4996 7.10175 30.7845 14.61 32.2618Z" fill="#00AA72"/>
</svg>
