<svg width="64" height="64" viewBox="0 0 64 64" fill="none" xmlns="http://www.w3.org/2000/svg">
<path d="M57.9679 41.2163C57.9668 41.0117 57.9026 40.8124 57.7842 40.6455C57.6658 40.4786 57.4988 40.3523 57.306 40.2837L48.0897 36.9942C47.8729 36.914 47.6345 36.914 47.4177 36.9942L38.2014 40.2837C38.0097 40.354 37.8439 40.4808 37.7257 40.6473C37.6076 40.8138 37.5426 41.0122 37.5395 41.2163L37.4492 49.7106C37.4492 55.3768 42.6541 58.6862 47.7587 60C52.8633 58.6862 58.0582 55.3768 58.0582 49.7006L57.9679 41.2163ZM51.5396 47.1232L47.4378 51.2249C47.2484 51.4087 46.9948 51.5116 46.7308 51.5116C46.4668 51.5115 46.2132 51.4087 46.0238 51.2248L43.9779 49.169C43.7911 48.9814 43.6864 48.7273 43.6867 48.4625C43.6871 48.1977 43.7924 47.9439 43.9796 47.7566C44.1669 47.5694 44.4207 47.4641 44.6855 47.4638C44.9503 47.4635 45.2044 47.5682 45.392 47.755L46.7258 49.0988L50.1155 45.7091C50.3043 45.5266 50.5571 45.4253 50.8198 45.4271C51.0824 45.4288 51.3339 45.5335 51.5203 45.7185C51.7066 45.9036 51.813 46.1543 51.8167 46.4169C51.8203 46.6795 51.7208 46.9331 51.5396 47.1232Z" fill="#00AA72"/>
<path d="M35.5335 41.1964C35.544 40.5829 35.7404 39.987 36.0967 39.4874C36.453 38.9878 36.9525 38.6081 37.5291 38.3984C37.8543 38.3419 47.8136 34.5621 47.7585 34.9284C48.4538 34.8255 53.2687 36.7719 54.0263 36.9844V19.6348L30.9805 33.4643V59.2279L37.1681 55.5173C36.0348 53.7935 35.4348 51.7738 35.4431 49.7108L35.5335 41.1964Z" fill="#00AA72"/>
<path d="M5.94141 45.4078L28.9764 59.2278V33.4638L5.94141 19.6348V45.4078Z" fill="#00AA72"/>
<path d="M29.9788 4L6.88281 17.86L29.9788 31.719L53.0848 17.86L29.9788 4Z" fill="#00AA72"/>
</svg>
