<svg width="64" height="64" viewBox="0 0 64 64" fill="none" xmlns="http://www.w3.org/2000/svg">
<path d="M52.5891 11.3199H31.8791C31.0653 11.3228 30.2827 11.007 29.6991 10.4399L25.9391 5.82991C25.4736 5.25041 24.8824 4.78447 24.2101 4.46741C23.5379 4.15034 22.8023 3.99047 22.0591 3.99991H11.4091C10.0514 4.00083 8.74968 4.54055 7.78969 5.50054C6.82971 6.46052 6.28998 7.76228 6.28906 9.11991V41.0699C6.28998 42.4275 6.82971 43.7293 7.78969 44.6893C8.74968 45.6493 10.0514 46.189 11.4091 46.1899H16.8591C16.7679 44.9815 16.8183 43.7666 17.0091 42.5699C16.4223 41.9457 16.0551 41.1471 15.9631 40.2954C15.871 39.4436 16.0592 38.5851 16.4991 37.8499L18.0591 35.1499C18.4884 34.4134 19.1386 33.8307 19.9175 33.4843C20.6964 33.1379 21.5646 33.0454 22.3991 33.2199C23.6624 32.2043 25.0759 31.3912 26.5891 30.8099C26.8501 29.9939 27.3637 29.282 28.0557 28.7769C28.7477 28.2718 29.5823 27.9997 30.4391 27.9999H33.5591C34.4105 27.9999 35.2401 28.2699 35.9283 28.7713C36.6166 29.2727 37.128 29.9794 37.3891 30.7899C38.9125 31.38 40.3333 32.2069 41.5991 33.2399C42.4388 33.0556 43.3155 33.1455 44.1004 33.4965C44.8852 33.8475 45.5367 34.4411 45.9591 35.1899C46.8239 36.8036 48.5927 38.9074 47.8991 40.9099C47.7335 41.5292 47.4253 42.1011 46.9991 42.5799C47.18 43.7743 47.227 44.9851 47.1391 46.1899H52.5891C53.9467 46.189 55.2484 45.6493 56.2084 44.6893C57.1684 43.7293 57.7081 42.4275 57.7091 41.0699V16.4399C57.7031 15.0838 57.1617 13.785 56.2028 12.8261C55.2439 11.8672 53.9451 11.3259 52.5891 11.3199Z" fill="#00AA72"/>
<path d="M54.9095 9.72008C54.7237 8.63195 54.159 7.64461 53.3153 6.93271C52.4717 6.22082 51.4034 5.83024 50.2995 5.83008H28.5195L31.1594 9.06043C32.1237 9.85559 54.429 8.74308 54.9095 9.72008Z" fill="#00AA72"/>
<path d="M44.7906 48.22C45.3139 46.0955 45.3173 43.8761 44.8006 41.75L45.0206 41.63C45.4852 41.3576 45.8243 40.9135 45.9646 40.3935C46.1049 39.8735 46.0352 39.3191 45.7706 38.85L44.2106 36.15C44.0588 35.9029 43.8577 35.6897 43.6199 35.5237C43.3821 35.3577 43.1127 35.2425 42.8284 35.1853C42.5441 35.128 42.251 35.13 41.9675 35.191C41.684 35.2521 41.4161 35.3708 41.1806 35.54C39.6086 34.0191 37.69 32.9036 35.5906 32.29V32.04C35.5914 31.7727 35.5395 31.5079 35.4379 31.2606C35.3363 31.0134 35.187 30.7886 34.9985 30.5992C34.8099 30.4097 34.5859 30.2593 34.3391 30.1564C34.0924 30.0536 33.8278 30.0005 33.5606 30H30.4406C30.1498 30.0051 29.8634 30.0709 29.5995 30.1931C29.3357 30.3152 29.1002 30.4911 28.9082 30.7095C28.7162 30.9279 28.5719 31.1839 28.4845 31.4612C28.3971 31.7385 28.3685 32.031 28.4006 32.32C26.2982 32.9199 24.373 34.0215 22.7906 35.53L22.5706 35.41C22.1035 35.1407 21.5488 35.0673 21.0278 35.206C20.5068 35.3447 20.0619 35.6841 19.7906 36.15L18.2306 38.85C18.0916 39.1045 18.0067 39.385 17.9811 39.6738C17.9555 39.9627 17.9898 40.2537 18.0818 40.5287C18.1738 40.8036 18.3215 41.0567 18.5158 41.272C18.71 41.4873 18.9466 41.6602 19.2107 41.7799C18.6873 43.9045 18.6838 46.1238 19.2006 48.25C18.9374 48.3665 18.7015 48.5366 18.5078 48.7494C18.3141 48.9622 18.1669 49.2131 18.0756 49.486C17.9844 49.7589 17.951 50.0478 17.9777 50.3343C18.0043 50.6208 18.0905 50.8986 18.2306 51.15L19.7906 53.85C19.9415 54.098 20.1422 54.3121 20.3799 54.4788C20.6177 54.6455 20.8874 54.7611 21.172 54.8184C21.4566 54.8757 21.7501 54.8734 22.0338 54.8117C22.3175 54.7501 22.5854 54.6303 22.8206 54.46C24.3925 55.9809 26.3111 57.0964 28.4106 57.71C28.3793 57.9965 28.4083 58.2864 28.4957 58.561C28.5832 58.8357 28.7271 59.089 28.9183 59.3047C29.1095 59.5203 29.3437 59.6936 29.6059 59.8134C29.868 59.9331 30.1524 59.9967 30.4406 60H33.5606C33.8513 59.9948 34.1377 59.9291 34.4016 59.8069C34.6654 59.6847 34.9009 59.5088 35.0928 59.2904C35.2848 59.0721 35.4292 58.8161 35.5166 58.5387C35.604 58.2614 35.6325 57.9689 35.6005 57.6799C37.6991 57.0869 39.6169 55.9802 41.1806 54.46C41.4154 54.6312 41.6833 54.7517 41.9672 54.8139C42.251 54.8761 42.5448 54.8786 42.8297 54.8212C43.1146 54.7639 43.3845 54.6479 43.6222 54.4807C43.8599 54.3135 44.0603 54.0987 44.2106 53.85L45.7706 51.15C45.9091 50.8954 45.9937 50.615 46.0191 50.3262C46.0445 50.0375 46.0102 49.7466 45.9182 49.4717C45.8263 49.1968 45.6787 48.9438 45.4847 48.7285C45.2907 48.5131 45.0544 48.34 44.7906 48.22ZM32.0006 52.5C30.0118 52.4989 28.1048 51.7084 26.6985 50.3021C25.2922 48.8958 24.5017 46.9888 24.5006 45C24.8482 35.0727 39.1545 35.0753 39.5006 45.0001C39.4994 46.9889 38.7089 48.8959 37.3026 50.3021C35.8963 51.7084 33.9893 52.4989 32.0006 52.5Z" fill="#00AA72"/>
</svg>
