<svg width="46" height="46" viewBox="0 0 46 46" fill="none" xmlns="http://www.w3.org/2000/svg">
<path d="M10.0625 0V46C6.88562 46 4.3125 43.4269 4.3125 40.25V5.75C4.3125 2.57312 6.88562 0 10.0625 0Z" fill="#00AA72"/>
<path d="M27.3125 21.5625C29.6942 21.5625 31.625 19.6317 31.625 17.25C31.625 14.8683 29.6942 12.9375 27.3125 12.9375C24.9308 12.9375 23 14.8683 23 17.25C23 19.6317 24.9308 21.5625 27.3125 21.5625Z" fill="#00AA72"/>
<path d="M37.375 0H12.9375V46H37.375C39.7469 46 41.6875 44.0594 41.6875 41.6875V4.3125C41.6875 1.94063 39.7469 0 37.375 0ZM34.5 38.8125H20.125C19.3312 38.8125 18.6875 38.1688 18.6875 37.375C18.6875 36.5812 19.3312 35.9375 20.125 35.9375H34.5C35.2945 35.9375 35.9375 36.5812 35.9375 37.375C35.9375 38.1688 35.2945 38.8125 34.5 38.8125ZM35.9375 33.0625H18.6875C17.8937 33.0625 17.25 32.4188 17.25 31.625C17.25 30.8312 17.8937 30.1875 18.6875 30.1875H35.9375C36.732 30.1875 37.375 30.8312 37.375 31.625C37.375 32.4188 36.732 33.0625 35.9375 33.0625ZM35.9375 18.6875H34.3547C34.1679 19.6036 33.8021 20.4538 33.3023 21.2077L34.427 22.3324C34.9885 22.8939 34.9885 23.8036 34.427 24.3652C34.1462 24.6459 33.7784 24.7864 33.4107 24.7864C33.043 24.7864 32.6751 24.6459 32.3944 24.3652L31.2694 23.2402C30.5155 23.7397 29.6658 24.1054 28.75 24.2922V25.875C28.75 26.6688 28.107 27.3125 27.3125 27.3125C26.518 27.3125 25.875 26.6688 25.875 25.875V24.2922C24.9592 24.1054 24.109 23.7397 23.3552 23.2401L22.2301 24.3652C21.9493 24.6459 21.5815 24.7864 21.2138 24.7864C20.846 24.7864 20.4782 24.6459 20.1974 24.3652C19.636 23.8037 19.636 22.8941 20.1974 22.3324L21.3226 21.2073C20.8229 20.4535 20.4571 19.6033 20.2705 18.6875H18.6876C17.8939 18.6875 17.2501 18.0438 17.2501 17.25C17.2501 16.4562 17.8939 15.8125 18.6876 15.8125H20.2705C20.4572 14.8967 20.8229 14.0465 21.3226 13.2927L20.1974 12.1676C19.636 11.6061 19.636 10.6964 20.1974 10.1348C20.7589 9.57318 21.6686 9.57332 22.2302 10.1348L23.3554 11.2599C24.1092 10.7603 24.9593 10.3944 25.8751 10.2078V8.625C25.8751 7.83121 26.5181 7.1875 27.3126 7.1875C28.1071 7.1875 28.7501 7.83121 28.7501 8.625V10.2078C29.6658 10.3946 30.5157 10.7603 31.2695 11.2598L32.3945 10.1348C32.956 9.57332 33.8656 9.57332 34.4273 10.1348C34.9889 10.6963 34.9888 11.6059 34.4273 12.1676L33.3026 13.2923C33.8024 14.0462 34.1682 14.8965 34.355 15.8125H35.9378C36.7323 15.8125 37.3753 16.4562 37.3753 17.25C37.3753 18.0438 36.732 18.6875 35.9375 18.6875Z" fill="#00AA72"/>
</svg>
