<svg width="48" height="48" viewBox="0 0 48 48" fill="none" xmlns="http://www.w3.org/2000/svg">
<path d="M42.4999 6H5.50012C2.46606 6 0 8.46606 0 11.5001V36.4999C0 39.5339 2.46606 42 5.50012 42H42.4999C45.5339 42 48 39.5339 48 36.4999V11.5001C48 8.46606 45.5339 6 42.4999 6ZM15 13.9999C17.7561 13.9999 19.9999 16.244 19.9999 19.0001C19.9999 21.7559 17.7561 24 15 24C12.2439 24 10.0001 21.7559 10.0001 19.0001C10.0001 16.244 12.2439 13.9999 15 13.9999ZM24 32.5001C24 33.3281 23.328 34.0001 22.5 34.0001H7.5C6.672 34.0001 6 33.3281 6 32.5001V31.5C6 28.4659 8.46606 25.9999 11.5001 25.9999H18.4999C21.5339 25.9999 24 28.4659 24 31.5V32.5001ZM40.5 34.0001H29.5001C28.6721 34.0001 28.0001 33.3281 28.0001 32.5001C28.0001 31.6721 28.6721 31.0001 29.5001 31.0001H40.5C41.328 31.0001 42 31.6721 42 32.5001C42 33.3281 41.328 34.0001 40.5 34.0001ZM40.5 25.9999H29.5001C28.6721 25.9999 28.0001 25.3279 28.0001 24.4999C28.0001 23.6719 28.6721 22.9999 29.5001 22.9999H40.5C41.328 22.9999 42 23.6719 42 24.4999C42 25.3279 41.328 25.9999 40.5 25.9999ZM40.5 18H29.5001C28.6721 18 28.0001 17.328 28.0001 16.5C28.0001 15.672 28.6721 15 29.5001 15H40.5C41.328 15 42 15.672 42 16.5C42 17.328 41.328 18 40.5 18Z" fill="#00AA72"/>
</svg>
