<svg width="36" height="34" viewBox="0 0 36 34" fill="none" xmlns="http://www.w3.org/2000/svg">
<g clip-path="url(#clip0_11046_4176)">
<path d="M10.5471 8.4239H14.0625H17.5779C17.913 8.4239 18.2263 8.27234 18.4272 8.01929C19.9633 6.08451 20.7422 3.94438 20.7422 1.65825V0.994949C20.7422 0.445472 20.27 0 19.6875 0C17.7342 0 15.1864 1.19341 14.0625 1.77406C12.9386 1.19341 10.3908 0 8.4375 0C7.85503 0 7.38281 0.445472 7.38281 0.994949V1.65825C7.38281 3.94438 8.16166 6.08451 9.69785 8.01929C9.89873 8.27234 10.212 8.4239 10.5471 8.4239Z" fill="#00AA72"/>
<path d="M14.8789 23.0476V25.8646C15.4177 25.5902 15.7378 25.0837 15.8233 24.6036C15.8845 24.2606 15.9095 23.4373 14.8789 23.0476Z" fill="#00AA72"/>
<path d="M12.5911 19.4563C12.5172 19.8264 12.6123 20.1712 12.8334 20.3348C12.9199 20.3988 13.0171 20.4614 13.1212 20.5228V18.6501C12.8142 18.8527 12.647 19.1769 12.5911 19.4563Z" fill="#00AA72"/>
<path d="M19.8281 25.0948V20.1585C19.8281 18.7797 20.8794 17.6186 22.3279 17.3978C23.077 17.2835 23.7286 16.8427 24.0871 16.2138C22.5762 14.2426 20.7975 12.4068 19.0339 10.7119C18.8357 10.5212 18.5643 10.4138 18.2813 10.4138H9.84375C9.5606 10.4138 9.28941 10.5212 9.09106 10.7118C4.59555 15.0326 0 20.2674 0 26.333L7.03125e-05 26.4044C0.00991406 30.5711 3.66272 33.961 8.14296 33.961H19.982C21.2347 33.961 22.4225 33.6958 23.4842 33.2229C21.1984 31.1403 19.8281 28.232 19.8281 25.0948ZM17.5569 24.8786C17.4227 25.6313 17.0213 26.3298 16.4265 26.8453C15.9818 27.2308 15.4565 27.4946 14.879 27.628V28.2566C14.879 28.7145 14.4855 29.0857 14.0001 29.0857C13.5146 29.0857 13.1212 28.7145 13.1212 28.2566V27.7055C12.3848 27.6481 11.779 27.4649 10.9171 26.933C10.5109 26.6824 10.397 26.1685 10.6628 25.7853C10.9285 25.4021 11.4731 25.2946 11.8794 25.5453C12.3777 25.8528 12.6958 25.9841 13.1212 26.0374V22.395C12.5381 22.1439 12.104 21.9027 11.7484 21.6396C11.0057 21.09 10.6665 20.1357 10.8636 19.1491C11.0786 18.0733 11.8721 17.2173 12.9347 16.9154C12.9975 16.8976 13.0596 16.8813 13.1212 16.8661V16.3172C13.1212 15.8592 13.5146 15.4881 14.0001 15.4881C14.4855 15.4881 14.879 15.8592 14.879 16.3172V16.7743C15.7607 16.9133 16.3833 17.3212 16.6836 17.6462C17.0025 17.9915 16.9644 18.5152 16.5984 18.816C16.2342 19.1154 15.6825 19.0812 15.3629 18.7406C15.342 18.7205 15.1841 18.5761 14.879 18.4768V21.2826C15.045 21.3409 15.211 21.3974 15.3739 21.4517C16.9758 21.9858 17.8327 23.331 17.5569 24.8786Z" fill="#00AA72"/>
<path d="M35.273 19.3621C33.8409 19.1436 32.587 18.2884 31.9269 17.0387C31.8372 16.8689 31.6505 16.7639 31.4493 16.7639H26.4882C26.287 16.7639 26.1003 16.8689 26.0106 17.0387C25.3505 18.2884 24.0966 19.1436 22.6645 19.3621C22.2474 19.4257 21.9375 19.7597 21.9375 20.1584V25.0947C21.9375 29.0943 24.6437 32.6331 28.6346 33.909C28.851 33.9781 29.0865 33.9781 29.3029 33.909C33.2938 32.6332 36 29.0943 36 25.0947V20.1584C36 19.7597 35.6901 19.4257 35.273 19.3621ZM32.6976 24.2142L28.7202 27.9663C28.5143 28.1606 28.2443 28.2578 27.9745 28.2578C27.7046 28.2578 27.4346 28.1607 27.2287 27.9663L25.24 26.0902C24.8281 25.7017 24.8281 25.0717 25.24 24.6832C25.6518 24.2946 26.3197 24.2946 26.7315 24.6832L27.9745 25.8557L31.2062 22.8071C31.6181 22.4185 32.2859 22.4185 32.6978 22.8071C33.1095 23.1957 33.1095 23.8257 32.6976 24.2142Z" fill="#00AA72"/>
</g>
<defs>
<clipPath id="clip0_11046_4176">
<rect width="36" height="33.9609" fill="white"/>
</clipPath>
</defs>
</svg>
